<?xml version="1.0" encoding="utf-8"?>
<!-- Generator: Adobe Illustrator 23.0.3, SVG Export Plug-In . SVG Version: 6.00 Build 0)  -->
<svg version="1.1" id="图层_1" xmlns="http://www.w3.org/2000/svg" xmlns:xlink="http://www.w3.org/1999/xlink" x="0px" y="0px"
	 width="32px" height="32px" viewBox="0 0 32 32" style="enable-background:new 0 0 32 32;" xml:space="preserve">
<g>
	<g>
		<defs>
			<path id="SVGID_72_" d="M31.843,13h-2.049C28.415,6.71,22.791,2,16.062,2C8.3,2,2.008,8.268,2.008,16S8.3,30,16.062,30
				c7.08,0,12.938-5.215,13.912-12H32c-0.988,7.892-7.747,14-15.938,14C7.191,32,0,24.837,0,16S7.191,0,16.062,0
				C23.904,0,30.433,5.598,31.843,13z"/>
		</defs>
		<use xlink:href="#SVGID_72_"  style="overflow:visible;fill:#0052D9;"/>
		<clipPath id="SVGID_2_">
			<use xlink:href="#SVGID_72_"  style="overflow:visible;"/>
		</clipPath>
	</g>
	<g>
		<g>
			<defs>
				<rect id="SVGID_74_" x="11" y="6" width="2" height="4"/>
			</defs>
			<use xlink:href="#SVGID_74_"  style="overflow:visible;fill:#0052D9;"/>
			<clipPath id="SVGID_3_">
				<use xlink:href="#SVGID_74_"  style="overflow:visible;"/>
			</clipPath>
		</g>
		<g>
			<defs>
				<rect id="SVGID_76_" x="5" y="10" width="2" height="3"/>
			</defs>
			<use xlink:href="#SVGID_76_"  style="overflow:visible;fill:#0052D9;"/>
			<clipPath id="SVGID_5_">
				<use xlink:href="#SVGID_76_"  style="overflow:visible;"/>
			</clipPath>
		</g>
		<g>
			<defs>
				<rect id="SVGID_78_" x="25" y="10" width="2" height="3"/>
			</defs>
			<use xlink:href="#SVGID_78_"  style="overflow:visible;fill:#0052D9;"/>
			<clipPath id="SVGID_7_">
				<use xlink:href="#SVGID_78_"  style="overflow:visible;"/>
			</clipPath>
		</g>
		<g>
			<defs>
				<rect id="SVGID_80_" x="5" y="21" width="2" height="3"/>
			</defs>
			<use xlink:href="#SVGID_80_"  style="overflow:visible;fill:#0052D9;"/>
			<clipPath id="SVGID_9_">
				<use xlink:href="#SVGID_80_"  style="overflow:visible;"/>
			</clipPath>
		</g>
		<g>
			<defs>
				<rect id="SVGID_82_" x="25" y="21" width="2" height="3"/>
			</defs>
			<use xlink:href="#SVGID_82_"  style="overflow:visible;fill:#0052D9;"/>
			<clipPath id="SVGID_11_">
				<use xlink:href="#SVGID_82_"  style="overflow:visible;"/>
			</clipPath>
		</g>
		<g>
			<defs>
				<rect id="SVGID_84_" x="19" y="6" width="2" height="4"/>
			</defs>
			<use xlink:href="#SVGID_84_"  style="overflow:visible;fill:#0052D9;"/>
			<clipPath id="SVGID_13_">
				<use xlink:href="#SVGID_84_"  style="overflow:visible;"/>
			</clipPath>
		</g>
		<g>
			<defs>
				<rect id="SVGID_86_" x="5" y="10" width="22" height="2"/>
			</defs>
			<use xlink:href="#SVGID_86_"  style="overflow:visible;fill:#0052D9;"/>
			<clipPath id="SVGID_15_">
				<use xlink:href="#SVGID_86_"  style="overflow:visible;"/>
			</clipPath>
		</g>
		<g>
			<defs>
				<rect id="SVGID_88_" x="5" y="22" width="22" height="2"/>
			</defs>
			<use xlink:href="#SVGID_88_"  style="overflow:visible;fill:#0052D9;"/>
			<clipPath id="SVGID_17_">
				<use xlink:href="#SVGID_88_"  style="overflow:visible;"/>
			</clipPath>
		</g>
		<g>
			<rect x="22" y="14" style="fill:#0052D9;" width="2" height="6"/>
			<rect x="25" y="14" style="fill:#0052D9;" width="2" height="4"/>
			<rect x="22" y="14" style="fill:#0052D9;" width="5" height="1"/>
			<rect x="22" y="17" style="fill:#0052D9;" width="5" height="1"/>
		</g>
		
			<rect x="18.5" y="12.5" transform="matrix(-1.836970e-16 1 -1 -1.836970e-16 33.5 -4.5)" style="fill:#0052D9;" width="1" height="4"/>
		<rect x="18" y="14" style="fill:#0052D9;" width="2" height="6"/>
		
			<rect x="13.5" y="12.5" transform="matrix(-1.836970e-16 1 -1 -1.836970e-16 28.5 0.5)" style="fill:#0052D9;" width="1" height="4"/>
		
			<rect x="7.5" y="14.5" transform="matrix(-1.836970e-16 1 -1 -1.836970e-16 25.5 8.5)" style="fill:#0052D9;" width="2" height="5"/>
		<rect x="13" y="14" style="fill:#0052D9;" width="2" height="6"/>
		<rect x="9" y="14" style="fill:#0052D9;" width="2" height="6"/>
		<rect x="5" y="14" style="fill:#0052D9;" width="2" height="6"/>
	</g>
</g>
</svg>
