<?xml version="1.0" encoding="UTF-8"?>
<svg width="32px" height="32px" viewBox="0 0 32 32" version="1.1" xmlns="http://www.w3.org/2000/svg" xmlns:xlink="http://www.w3.org/1999/xlink">
    <title>CHC-32px</title>
    <g id="CHC-32px" stroke="none" stroke-width="1" fill="none" fill-rule="evenodd">
        <g id="Group" transform="translate(-0.000000, 0.000000)" fill="#0052D9">
            <path d="M16.0621652,0 C23.9037493,0 30.4328845,5.59751424 31.8424842,13.000191 L29.7932003,13.0003278 C28.4146475,6.70979962 22.7905597,2 16.0621652,2 C8.30013742,2 2.00777065,8.2680135 2.00777065,16 C2.00777065,23.7319865 8.30013742,30 16.0621652,30 C23.142219,30 28.9995165,24.7850199 29.9741102,18.0008423 L31.999963,18.0007904 C31.0115906,25.8930309 24.2528284,32 16.0621652,32 C7.19127631,32 -2.0250468e-13,24.836556 -2.0250468e-13,16 C-2.0250468e-13,7.163444 7.19127631,0 16.0621652,0 Z" id="Combined-Shape" fill-rule="nonzero"></path>
            <polygon id="Path-2" points="16.0029612 7.95628357 15.720253 8.12047638 16.2791867 8.12047638"></polygon>
        </g>
        <path d="M22.9902802,17.8311942 L22.9902802,20.0001113 L15.9795746,24.2237579 L8.98545834,20.0001113 L8.98545834,17.8781555 L16.019,21.925 L22.9902802,17.8311942 Z M22.9902802,12.0001113 L15.9795746,16.2237579 L8.98545834,12.0001113 L11.0535474,11.0680588 L16.019,13.925 L20.9839859,11.009368 L22.9902802,12.0001113 Z M16,7.84529946 L23.0621778,11.9226497 L23.0621778,16.5773503 L16,20.6547005 L8.93782217,16.5773503 L8.93782217,11.9226497 L16,7.84529946 Z M16,10.155 L10.937,13.077 L10.937,15.422 L15.999,18.344 L21.062,15.422 L21.062,13.077 L16,10.155 Z" id="形状结合备份" fill="#0052D9" fill-rule="nonzero"></path>
        <rect id="Rectangle-Copy" fill="#0052D9" opacity="0" x="0" y="0" width="32" height="32"></rect>
    </g>
</svg>