<?xml version="1.0" encoding="utf-8"?>
<!-- Generator: Adobe Illustrator 22.1.0, SVG Export Plug-In . SVG Version: 6.00 Build 0)  -->
<svg version="1.1" id="图层_1" xmlns="http://www.w3.org/2000/svg" xmlns:xlink="http://www.w3.org/1999/xlink" x="0px" y="0px"
	 width="32px" height="32px" viewBox="0 0 32 32" style="enable-background:new 0 0 32 32;" xml:space="preserve">
<style type="text/css">
	.st0{fill:#0052D9;fill-opacity:0;}
	.st1{fill:#0052D9;}
</style>
<title>容器镜像服务-32px</title>
<desc>Created with Sketch.</desc>
<g id="容器镜像服务-32px">
	<rect id="Rectangle-Copy" class="st0" width="32" height="32"/>
	<g id="Group">
		<path id="Combined-Shape" class="st1" d="M16,0c7.8,0,14.3,5.6,15.7,13l-2,0C28.3,6.7,22.7,2,16,2C8.3,2,2,8.3,2,16s6.3,14,14,14
			c7.1,0,12.9-5.2,13.9-12l2,0c-1,7.9-7.7,14-15.9,14C7.2,32,0,24.8,0,16S7.2,0,16,0z"/>
		<path id="形状结合" class="st1" d="M16,17v7H9v-7H16z M25,17v7h-7v-7H25z M14,19h-3v3h3V19z M23,19h-3v3h3V19z M16,7v8H9V7H16
			z M14,9h-3v4h3V9z"/>
	</g>
</g>
<g>
	<path class="st1" d="M20,10.2l2.4,2.8H20V10.2 M19.9,7H18v8h7v-2L19.9,7L19.9,7z"/>
</g>
</svg>
