<?xml version="1.0" encoding="UTF-8"?>
<svg width="32px" height="32px" viewBox="0 0 32 32" version="1.1" xmlns="http://www.w3.org/2000/svg" xmlns:xlink="http://www.w3.org/1999/xlink">
    <title>TACO Kit-32px</title>
    <g id="TACO-Kit-32px" stroke="none" stroke-width="1" fill="none" fill-rule="evenodd">
        <g id="编组备份-2">
            <rect id="Rectangle-Copy" fill="#0052D9" opacity="0" x="0" y="0" width="32" height="32"></rect>
            <path d="M16.08,0 C24.231,0 30.949,6.042 32,13.866 L32,13.866 L29.834,13.866 C28.8,7.223 23.046,2.133 16.08,2.133 C8.383,2.133 2.144,8.341 2.144,16 C2.144,23.659 8.383,29.867 16.08,29.867 C23.046,29.867 28.801,24.777 29.834,18.133 L29.834,18.133 L32,18.133 C30.95,25.958 24.231,32 16.08,32 C7.199,32 0,24.836 0,16 C0,7.164 7.199,0 16.08,0 Z M16,6 C21.5228475,6 26,10.4771525 26,16 C26,18.0646159 25.3743171,19.9830957 24.302221,21.5761696 L24.3239759,21.6207809 L24.2466328,21.6578975 C22.4439566,24.2803542 19.4228007,26 16,26 C10.4771525,26 6,21.5228475 6,16 C6,10.4771525 10.4771525,6 16,6 Z M15.004,16.285 L12.625,16.285 L10.1586146,21.4661371 C11.4047928,22.7973165 13.1007255,23.7022576 15.0040643,23.938612 L15.004,16.285 Z M19.58,16.285 L17.004,16.285 L17.0049699,23.9374849 C18.9710139,23.6910737 20.7151983,22.731214 21.970148,21.3252809 L19.58,16.285 Z M14.2663671,8.18835181 C10.681568,8.98036291 8,12.1770246 8,16 C8,17.2859554 8.30341541,18.5010444 8.84256203,19.5775827 L14.2663671,8.18835181 Z M17.9823119,8.24750404 L23.2573049,19.3707824 C23.7339055,18.3463969 24,17.2042733 24,16 C24,12.2659542 21.4417377,9.12942263 17.9823119,8.24750404 Z M16.11,8.968 L13.578,14.285 L18.631,14.285 L16.11,8.968 Z" id="形状结合" fill="#0052D9" fill-rule="nonzero"></path>
        </g>
    </g>
</svg>