<svg width="32" height="32" viewBox="0 0 32 32" fill="none" xmlns="http://www.w3.org/2000/svg">
<g clip-path="url(#clip0_1304_86)">
<path d="M14.9979 0.036266C23.4383 -0.526431 30.8721 5.52079 32 13.8672H29.8571C28.7161 6.57199 22.0335 1.44608 14.6569 2.20786C7.28028 2.96965 1.7968 9.35196 2.18425 16.725C2.5717 24.098 8.6942 29.8758 16.1104 29.8672C22.9695 29.8592 28.8019 24.8811 29.8571 18.1338H32C30.8721 26.4802 23.4383 32.5275 14.9979 31.9648C6.55745 31.4021 0 24.4221 0 16.0005C0 7.57892 6.55745 0.598963 14.9979 0.036266Z" fill="#0052D9"/>
<path d="M11.385 13.9746L16 10.5279L20.615 13.9746L20.2495 14.2476L21.9629 15.4959L24 13.9746L16 8L8 13.9746L16 19.9491L18.9334 17.7584L17.22 16.51L16 17.4212L11.385 13.9746Z" fill="#0052D9"/>
<path d="M14.7479 15.514L16 14.5788L20.615 18.0254L16 21.4721L11.385 18.0254L11.8011 17.7146L10.0877 16.4663L8 18.0254L16 24L24 18.0254L16 12.0509L13.0345 14.2656L14.7479 15.514Z" fill="#0052D9"/>
</g>
<defs>
<clipPath id="clip0_1304_86">
<rect width="32" height="32" fill="white"/>
</clipPath>
</defs>
</svg>
