<svg width="32" height="32" viewBox="0 0 32 32" fill="none" xmlns="http://www.w3.org/2000/svg">
<path d="M1.15 4.89002C9.86554 -1.63001 21.8345 -1.63001 30.55 4.89002L30.69 5.00002V5.18002C30.7 5.51002 30.71 5.84002 30.71 6.17002C30.6769 16.654 25.0802 26.3321 16.01 31.59L15.82 31.7L15.63 31.59C6.58983 26.3162 1.02214 16.646 1 6.18002V5.00002L1.15 4.89002ZM28.71 6.03002C20.9749 0.656829 10.7151 0.656829 2.98 6.03002V6.18002C3.02934 15.5978 7.87753 24.3404 15.84 29.37C23.8179 24.3443 28.6728 15.5889 28.71 6.16002V6.03002Z" fill="#0052D9"/>
<path d="M8.87422 17H7.06172L9.82344 9H12.0031L14.7609 17H12.9484L10.9445 10.8281H10.882L8.87422 17ZM8.76094 13.8555H13.0422V15.1758H8.76094V13.8555ZM15.7238 17V9H18.8801C19.4869 9 20.0038 9.11589 20.4309 9.34766C20.8579 9.57682 21.1835 9.89583 21.4074 10.3047C21.634 10.7109 21.7473 11.1797 21.7473 11.7109C21.7473 12.2422 21.6327 12.7109 21.4035 13.1172C21.1744 13.5234 20.8423 13.8398 20.4074 14.0664C19.9751 14.293 19.4517 14.4062 18.8371 14.4062H16.8254V13.0508H18.5637C18.8892 13.0508 19.1574 12.9948 19.3684 12.8828C19.5819 12.7682 19.7408 12.6107 19.8449 12.4102C19.9517 12.207 20.0051 11.974 20.0051 11.7109C20.0051 11.4453 19.9517 11.2135 19.8449 11.0156C19.7408 10.8151 19.5819 10.6602 19.3684 10.5508C19.1548 10.4388 18.884 10.3828 18.5559 10.3828H17.4152V17H15.7238ZM24.5373 9V17H22.8459V9H24.5373Z" fill="#0052D9"/>
</svg>
