<svg width="32" height="32" viewBox="0 0 32 32" fill="none" xmlns="http://www.w3.org/2000/svg">
<path d="M30.8 5.00001C26.6 1.80001 21.4 0.100006 16.1 0.100006C10.8 0.200006 5.69999 1.90001 1.39999 5.00001L1.29999 5.20001V6.40001C1.29999 16.9 6.89999 26.5 16 31.8L16.2 31.9L16.4 31.8C25.4 26.5 31 16.8 31 6.30001V5.20001L30.8 5.00001ZM29 6.30001C29 11.6 27.4 16.6 24.7 20.9L22.1 18.3C23.2 17 23.8 15.3 23.8 13.4C23.8 11.3 23 9.30001 21.5 7.80001C20 6.40001 18 5.50001 15.9 5.50001C11.6 5.50001 8.09999 9.00001 8.09999 13.4C8.09999 17.7 11.6 21.2 15.9 21.2C17.7 21.2 19.3 20.6 20.6 19.6L23.5 22.5C21.5 25.2 19 27.6 16.1 29.4C8.09999 24.4 3.29999 15.6 3.29999 6.20001C7.09999 3.60001 11.6 2.20001 16.1 2.20001C20.7 2.20001 25.2 3.60001 29 6.20001V6.30001ZM12.6 15.1L14.1 12.8L16.1 17.4L18.8 14.4H21.6C21.4 15.6 20.9 16.7 20 17.6C18.3 19.3 15.8 19.8 13.6 18.9C12 18.2 10.7 16.8 10.2 15.2H12.6V15.1ZM10.1 13.1C10.3 10 12.8 7.50001 15.9 7.50001C18.3 7.50001 20.4 8.90001 21.3 11.1C21.5 11.5 21.6 11.9 21.6 12.3H17.9L16.7 13.7L14.5 8.70001L11.5 13.1H10.1Z" fill="#0052D9"/>
</svg>
