<svg width="32" height="32" viewBox="0 0 32 32" fill="none" xmlns="http://www.w3.org/2000/svg">
<path d="M16.0123 0C21.4102 0.0690612 26.6527 1.81656 31.0123 5C31.0123 5 32.0123 22.21 16.0123 32L15.5374 31.7041C0.0322447 21.8675 1.01235 5 1.01235 5C5.37204 1.81656 10.6145 0.0690612 16.0123 0ZM16.0123 2C11.3734 2.06055 6.85393 3.47898 3.01235 6.08C3.24151 15.5842 8.09409 24.3785 16.0123 29.64C23.928 24.3762 28.7798 15.5833 29.0123 6.08C25.1708 3.47898 20.6513 2.06055 16.0123 2Z" fill="#0052D9"/>
<path d="M11 24H18.5M14 21V24" stroke="#0052D9" stroke-width="2"/>
<path fill-rule="evenodd" clip-rule="evenodd" d="M20.7067 20.2625L20.7163 20.2721L21.0257 19.9627C21.027 19.9614 21.0282 19.9602 21.0294 19.959L21.9688 19.0196L11.9492 9L10.6967 10.2525L10.7063 10.2621C8.24697 13.0447 8.34813 17.2973 11.0098 19.959C13.6715 22.6207 17.9241 22.7218 20.7067 20.2625ZM19.451 19.0068L11.962 11.5178C10.1925 13.6055 10.2926 16.7368 12.2623 18.7065C14.232 20.6762 17.3633 20.7763 19.451 19.0068Z" fill="#0052D9"/>
<circle cx="19" cy="12" r="2" fill="#0052D9"/>
<path fill-rule="evenodd" clip-rule="evenodd" d="M21.3483 13.7296C21.3483 13.7296 21.3484 13.7296 21.3484 13.7296C22.4347 12.6432 22.4347 10.8819 21.3484 9.79549C20.262 8.70911 18.5006 8.70911 17.4142 9.79549C17.4142 9.79549 17.4142 9.7955 17.4142 9.7955L16 8.38128C16 8.38128 16 8.38128 16 8.38128C17.8674 6.51385 20.8951 6.51385 22.7626 8.38128C24.63 10.2487 24.63 13.2764 22.7626 15.1438L21.3483 13.7296Z" fill="#0052D9"/>
<path fill-rule="evenodd" clip-rule="evenodd" d="M24.1811 15.9788C24.1811 15.9788 24.1811 15.9788 24.1811 15.9788C26.602 13.5579 26.602 9.63279 24.1811 7.21187C21.7602 4.79096 17.8351 4.79096 15.4142 7.21187C15.4142 7.21188 15.4142 7.21188 15.4142 7.21189L14 5.79767C14 5.79767 14 5.79767 14 5.79766C17.202 2.5957 22.3934 2.5957 25.5953 5.79766C28.7973 8.99962 28.7973 14.191 25.5953 17.393C25.5953 17.393 25.5953 17.393 25.5953 17.393L24.1811 15.9788Z" fill="#0052D9"/>
<path d="M16 15L18 13" stroke="#0052D9" stroke-width="2"/>
</svg>
