<?xml version="1.0" encoding="UTF-8"?>
<svg width="30px" height="32px" viewBox="0 0 30 32" version="1.1" xmlns="http://www.w3.org/2000/svg" xmlns:xlink="http://www.w3.org/1999/xlink">
    <title>机密计算平台-32</title>
    <g id="页面-1" stroke="none" stroke-width="1" fill="none" fill-rule="evenodd">
        <g id="机密计算平台-32" transform="translate(0.000028, 0.000000)" fill="#0052D9" fill-rule="nonzero">
            <path d="M0.15,4.8900225 C8.86554,-1.6300075 20.8345,-1.6300075 29.55,4.8900225 L29.69,5.0000225 L29.69,5.1800225 C29.7,5.5100225 29.71,5.8400225 29.71,6.1700225 C29.6769,16.6540025 24.0802,26.3321025 15.01,31.5900025 L14.82,31.7000025 L14.63,31.5900025 C5.58983,26.3162025 0.02214,16.6460025 0,6.1800225 L0,5.0000225 L0.15,4.8900225 Z M27.71,6.0300225 C19.9749,0.6568315 9.7151,0.6568315 1.98,6.0300225 L1.98,6.1800225 C2.02934,15.5978025 6.87753,24.3404025 14.84,29.3700025 C22.8179,24.3443025 27.6728,15.5889025 27.71,6.1600225 L27.71,6.0300225 Z M14.77,5.3100225 L21.98,9.4700225 L21.98,17.8400025 L14.77,22.0000025 L7.56,17.8400025 L7.56,9.4700225 L14.77,5.3100225 Z M19.94,11.6300025 L15.73,13.9500025 L15.73,19.0800025 L18.9,17.2500025 L19.94,16.6196025 L19.94,15.5400025 L19.94,11.6300025 Z M9.51,11.7200025 L9.51,15.4600025 L9.51,16.1882025 L9.51,16.6271025 L10.47,17.2000025 L13.72,19.0800025 L13.72,13.9400025 L9.51,11.7200025 Z M15.78,8.2000225 L14.78,7.6593425 L13.78,8.2000225 L10.63,10.0200025 L14.78,12.2200025 L18.85,9.9700225 L15.78,8.2000225 Z" id="形状"></path>
        </g>
    </g>
</svg>