<?xml version="1.0" encoding="UTF-8"?>
<svg width="32px" height="32px" viewBox="0 0 32 32" version="1.1" xmlns="http://www.w3.org/2000/svg" xmlns:xlink="http://www.w3.org/1999/xlink">
    <title>IDAM-32px</title>
    <g id="IDAM-32px" stroke="none" stroke-width="1" fill="none" fill-rule="evenodd">
        <rect id="Rectangle-" fill="#0052D9" opacity="0" x="0" y="0" width="32" height="32"></rect>
        <g id="Group" transform="translate(1.000000, 2.000000)">
            <path d="M3.73205081,3.00018082 L27.0120508,3.00018082 L27.0120508,18.0001808 L29.0120508,18.0001808 L29.0120508,1.00018082 L3.73205081,1.00018082 C3.27944513,0.216244788 2.35672894,-0.165956773 1.48236191,0.0683291662 C0.607994882,0.302615105 0,1.09496946 0,2.00018082 C0,2.90539218 0.607994882,3.69774653 1.48236191,3.93203247 C2.35672894,4.16631841 3.27944513,3.78411685 3.73205081,3.00018082 Z" id="_复合路径_-path" fill="#0052D9"></path>
            <path d="M28,24 C27.2897779,24.0042869 26.6351046,24.3849109 26.28,25 L3,25 L3,10 L1,10 L1,27 L26.28,27 C26.7660656,27.8418497 27.7870648,28.2122842 28.6998631,27.8779642 C29.6126615,27.5436442 30.1528813,26.6014004 29.9802345,25.6447584 C29.8075876,24.6881165 28.9720785,23.9941529 28,24 Z" id="_复合路径_-path" fill="#0052D9"></path>
            <g id="1" transform="translate(7.000000, 6.000000)">
                <path d="M13.6880361,10.5182872 L15.4996155,14.2540817 L11.3128732,14.5182389 L13.6880361,10.5182872 Z" id="三角形" stroke="#0052D9" stroke-width="2" transform="translate(13.267958, 12.022672) rotate(79.000000) translate(-13.267958, -12.022672) "></path>
                <path d="M7,9 L7,11 L6,11 C4.5198932,11 3.2275472,11.8038998 2.5357707,12.9988908 L7,12.9987139 L7,14.9987139 L2,14.9989959 C2,14.9993306 2,14.9996653 2,15 L0,15 C0,11.6862915 2.6862915,9 6,9 L7,9 Z" id="形状结合-path" fill="#0052D9"></path>
                <rect id="矩形" fill="#0052D9" x="6" y="13" width="1.5" height="2"></rect>
                <circle id="椭圆形" stroke="#0052D9" stroke-width="2" cx="8" cy="4" r="3"></circle>
                <polygon id="路径-5" fill="#0052D9" points="11.9841945 13.581125 11.552548 11.581125 13.552548 12.3584894"></polygon>
                <polygon id="路径" fill="#0052D9" points="7 9 8 15 7 15"></polygon>
                <polygon id="矩形" fill="#0052D9" points="6 9 7 9 7.04573202 11 6 11"></polygon>
                <rect id="矩形" fill="#0052D9" x="6" y="11" width="2" height="2"></rect>
            </g>
        </g>
    </g>
</svg>