<svg id="图层_1" data-name="图层 1" xmlns="http://www.w3.org/2000/svg" width="32" height="32" viewBox="0 0 32 32"><defs><style>.cls-1,.cls-2{fill:#0052D9;}.cls-1{opacity:0;}.cls-3{fill:none;stroke:#0052D9;stroke-miterlimit:10;stroke-width:2px;}</style></defs><title>32px，00A4FF，描边2px 副本 14</title><rect class="cls-1" width="32" height="32"/><path class="cls-2" d="M16.24,2.17a22.22,22.22,0,0,1,12.82,4v.13A27.49,27.49,0,0,1,16.24,29.45,27.49,27.49,0,0,1,3.42,6.33V6.19a22.22,22.22,0,0,1,12.82-4m0-2A24.39,24.39,0,0,0,1.58,5.05l-.14.11v.18c0,.32,0,.65,0,1A29.42,29.42,0,0,0,16.05,31.68l.19.1.18-.1A29.4,29.4,0,0,0,31.06,6.32c0-.33,0-.66,0-1V5.16l-.15-.11A24.36,24.36,0,0,0,16.24.17Z"/><polyline class="cls-2" points="14.11 14.79 16.24 17.3 18.54 14.6"/><ellipse class="cls-3" cx="16.33" cy="10.61" rx="3.55" ry="3.5"/><path class="cls-3" d="M16.32,14.12s-6.23-.19-6.23,5.71H22.65c0-5.9-6.22-5.71-6.22-5.71"/></svg>