<svg width="32" height="32" viewBox="0 0 32 32" fill="none" xmlns="http://www.w3.org/2000/svg">
<path fill-rule="evenodd" clip-rule="evenodd" d="M19.2835 4.00148H23.4778L23.5206 4.00516C24.1854 4.06238 24.8043 4.36798 25.2538 4.86107L25.2893 4.89999L25.3205 4.94243C26.19 6.12496 26.6042 7.58066 26.4882 9.04284V10.0653L26.4854 10.1024C26.4267 10.8909 26.3223 11.8936 26.1856 13.0507C26.2788 12.9687 26.371 12.8855 26.4621 12.8011L26.9456 12.3534L31.8871 14.5497L31.2056 15.5412C29.6685 17.7777 27.5788 19.5737 25.1443 20.7572C24.8729 22.5997 24.5815 24.5403 24.2902 26.4583L24.1611 27.3081H17.9249L18.0995 26.1581C18.2453 25.1975 18.391 24.2376 18.5331 23.2891C18.4467 23.3119 18.3599 23.3343 18.2727 23.3561C15.9993 23.9667 13.6643 24.3167 11.313 24.3996C10.8754 25.1945 10.4387 26.0039 10.0102 26.806L9.72771 27.3348H3.27517L4.07575 25.8582C4.21921 25.5936 4.36339 25.3283 4.50751 25.0631C4.75978 24.5989 5.01183 24.1352 5.26118 23.673C4.79851 23.5082 4.3546 23.2911 3.93837 23.025C3.13819 22.5133 2.45973 21.8326 1.95064 21.0308L1.90745 20.9628L1.74999 20.5954L0.571332 17.6086L0.58926 17.5992L0.0893463 16.5847L0.0643216 16.447C-0.314844 14.3616 1.02547 12.2953 2.94835 10.6067C4.92895 8.8675 7.79157 7.28095 11.1197 6.12362L12.7988 5.53977L11.3283 12.3951L10.8383 12.5945C8.43902 13.5703 6.28837 15.0702 4.54367 16.9844C4.29588 17.2732 4.0836 17.5895 3.91067 17.9264C4.35163 18.1335 4.81213 18.2978 5.28587 18.4168C6.14423 18.6216 7.01843 18.7511 7.89853 18.8041C8.67915 17.3887 9.41589 16.0193 10.092 14.7625L10.0933 14.7603C10.5892 13.8386 11.0533 12.9758 11.4763 12.2038L12.574 10.1691L12.6945 9.95224C13.682 7.93488 15.1154 6.16837 16.8863 4.78644L16.9061 4.77104L16.9265 4.75665C17.3439 4.46333 17.8102 4.24676 18.3035 4.11707C18.5649 4.04247 18.8353 4.00359 19.1072 4.00151C19.1657 3.9995 19.2252 3.9995 19.2835 4.00148ZM2.34242 16.6323C2.54527 16.2922 2.77776 15.9695 3.03769 15.6683L3.04634 15.6582L3.05526 15.6484C4.88272 13.6403 7.1105 12.0402 9.59285 10.9499L10.0845 8.65762C7.68648 9.65567 5.68566 10.8647 4.26803 12.1096C2.5441 13.6234 1.90365 14.9798 2.01398 15.9657L2.34242 16.6323ZM3.68066 20.0231C4.02829 20.5506 4.48311 20.9994 5.01583 21.34C5.57006 21.6944 6.19515 21.9232 6.84721 22.0103L6.89111 22.0161L8.2474 22.3212L7.63409 23.478C7.30675 24.0954 6.97142 24.7164 6.63592 25.3348H8.52933C8.96079 24.5311 9.40046 23.7216 9.8407 22.9292L10.1211 22.4245L10.6983 22.4149C13.0847 22.3755 15.4571 22.0422 17.7619 21.4224L17.7704 21.4201L17.779 21.418C18.1373 21.3284 18.492 21.228 18.8524 21.1215L19.1458 19.0926C18.3674 19.3593 17.5782 19.594 16.7801 19.7959C15.5105 20.1355 14.2213 20.3969 12.9198 20.5785L10.9594 20.8521L16.7463 10.1711C17.0334 9.65159 17.3202 9.16004 17.593 8.70984C18.1493 7.7931 18.7971 6.93519 19.5252 6.14998C19.514 6.14101 19.5026 6.13223 19.4911 6.12363L19.4835 6.11803C19.3859 6.04392 19.2672 6.00309 19.145 6.00138L19.135 6.00133L19.1289 6.00138L19.1225 6.00145C19.0294 6.00216 18.9368 6.01571 18.8474 6.04171L18.8334 6.04578L18.8193 6.04944C18.5606 6.11655 18.3157 6.22834 18.0956 6.37971C16.5673 7.57747 15.3311 9.10699 14.4805 10.8528L14.4687 10.877L14.3253 11.1351L13.2319 13.162C12.8125 13.9273 12.3512 14.7846 11.8533 15.7101L11.8522 15.7123C11.0916 17.126 10.2475 18.6949 9.34922 20.3134L9.05668 20.8405L8.45399 20.8279C7.22807 20.8023 6.00841 20.6457 4.8158 20.3608L4.80535 20.3583C4.41913 20.2616 4.03987 20.141 3.66969 19.9975L3.68066 20.0231ZM21.7924 6.00148C22.1451 6.91218 22.3098 7.88548 22.2758 8.86258C22.2949 9.26784 22.2942 9.67381 22.2736 10.079L22.273 10.0895L22.2723 10.1C22.1496 11.8036 21.8119 14.5263 21.3721 17.6715C21.3721 17.6721 21.372 17.6727 21.3719 17.6733L21.2907 18.2705L21.2852 18.2728L20.7405 22.0392L20.7401 22.0413C20.5826 23.1143 20.4178 24.2092 20.2513 25.3081H22.4417C22.7174 23.4867 22.9904 21.6619 23.2435 19.9365L23.9114 15.1273C24.1878 12.9946 24.3958 11.2109 24.4882 9.99064V8.95816L24.4919 8.91501C24.5764 7.94213 24.3113 6.97171 23.7456 6.17742C23.6461 6.08193 23.5189 6.02028 23.3821 6.00148H21.7924ZM25.8306 15.8476L25.492 18.2852C26.7524 17.5043 27.8788 16.5226 28.8258 15.3777L27.3243 14.7104C26.8482 15.1172 26.3495 15.4969 25.8306 15.8476ZM19.4674 16.8481C19.8682 13.9471 20.1656 11.5016 20.2767 9.96697C20.2941 9.61787 20.2939 9.26811 20.2762 8.91902L20.2738 8.87298L20.2757 8.82692C20.2823 8.66732 20.2815 8.50783 20.2736 8.34893C19.9221 8.79417 19.598 9.26099 19.3031 9.74688M19.4674 16.8481C18.4272 17.248 17.3639 17.5854 16.2831 17.8586L16.2696 17.8622C15.7313 18.0063 15.1893 18.1354 14.6442 18.2493L18.4988 11.1348C18.7709 10.6425 19.0434 10.1755 19.3031 9.74688" fill="#0052D9"/>
</svg>
