<svg width="32" height="32" viewBox="0 0 32 32" fill="none" xmlns="http://www.w3.org/2000/svg">
<path d="M2.66667 9.33331V26.6666L27.0235 26.6665C27.4845 25.8696 28.3463 25.3333 29.3333 25.3333C30.8061 25.3333 32 26.5272 32 28C32 29.4728 30.8061 30.6666 29.3333 30.6666C28.3469 30.6666 27.4856 30.131 27.0243 29.3348L0 29.3333V9.33331H2.66667ZM2.66667 1.33331C3.65367 1.33331 4.51543 1.86954 4.97652 2.66655L32 2.66665V22.6666H29.3333V5.33331L4.97575 5.33475C4.51447 6.13102 3.65312 6.66665 2.66667 6.66665C1.19391 6.66665 0 5.47274 0 3.99998C0 2.52722 1.19391 1.33331 2.66667 1.33331Z" fill="#0052D9" style="fill:#0052D9;fill:color(display-p3 0.0000 0.3216 0.8510);fill-opacity:1;"/>
<circle cx="16" cy="16" r="2.66667" transform="rotate(180 16 16)" fill="#0052D9" style="fill:#0052D9;fill:color(display-p3 0.0000 0.3216 0.8510);fill-opacity:1;"/>
<path d="M16.6667 16.6666L20.6667 21.9999L23.6667 21.9999L24.6667 21.9999" stroke="#0052D9" style="stroke:#0052D9;stroke:color(display-p3 0.0000 0.3216 0.8510);stroke-opacity:1;" stroke-width="2.66667" stroke-linecap="square"/>
<path d="M25 16C25 16 21.25 10 16 10C10.375 10 7 16 7 16C7 16 10.75 22 16 22" stroke="#0052D9" style="stroke:#0052D9;stroke:color(display-p3 0.0000 0.3216 0.8510);stroke-opacity:1;" stroke-width="2.66667"/>
</svg>
