<?xml version="1.0" encoding="UTF-8"?>
<svg width="32px" height="32px" viewBox="0 0 32 32" version="1.1" xmlns="http://www.w3.org/2000/svg" xmlns:xlink="http://www.w3.org/1999/xlink">
    <!-- Generator: Sketch 57.1 (83088) - https://sketch.com -->
    <title>对话机器人-32px</title>
    <desc>Created with Sketch.</desc>
    <g id="对话机器人-32px" stroke="none" stroke-width="1" fill="none" fill-rule="evenodd">
        <path d="M3.38396788,6 L4.74214915,7.37806337 L4.61757406,7.54922154 C0.550940813,13.1365138 1.09543895,20.9649418 5.98518465,25.9262672 C10.4395899,30.4458794 17.2842638,31.3389752 22.6805162,28.2457265 C22.6789041,28.2161958 22.6781131,28.1862955 22.6781131,28.1559717 C22.6781131,27.2252296 23.4217428,26.4707141 24.3390565,26.4707141 C25.2563703,26.4707141 26,27.2252296 26,28.1559717 C26,29.0867137 25.2563703,29.8412293 24.3390565,29.8412293 C24.1816625,29.8412293 24.0270569,29.8189412 23.8786999,29.7755932 C17.7126493,33.4702815 9.77880276,32.508286 4.63846548,27.2927007 C-0.976835617,21.5951986 -1.54549338,12.5809002 3.21510152,6.22543897 L3.38396788,6 Z M27.3615345,4.70729932 C32.9768356,10.4048014 33.5454934,19.4190998 28.7848985,25.774561 L28.6160321,26 L27.2578508,24.6219366 L27.3824259,24.4507785 C31.4490592,18.8634861 30.9045611,11.0350582 26.0148153,6.07373277 C21.5604101,1.55412062 14.7157362,0.661024788 9.31948384,3.75427349 C9.32109587,3.78380417 9.32188693,3.81370449 9.32188693,3.84402834 C9.32188693,4.7747704 8.57825721,5.52928593 7.66094346,5.52928593 C6.74362971,5.52928593 5.99999999,4.7747704 5.99999999,3.84402834 C5.99999999,2.91328627 6.74362971,2.15877075 7.66094346,2.15877075 C7.8183375,2.15877075 7.97294312,2.18105882 8.12130012,2.22440684 C14.2873507,-1.47028153 22.2211972,-0.508286043 27.3615345,4.70729932 Z" id="形状结合" fill="#0052D9" fill-rule="nonzero" transform="translate(16.000000, 16.000000) scale(-1, 1) translate(-16.000000, -16.000000) "></path>
        <path d="M25,9 L7,9 L7,23 L8.4649666,23 L10.6369914,20.8879759 L25,20.8888295 L25,9 Z" id="形状结合" stroke="#0052D9" stroke-width="2"></path>
        <rect id="矩形" fill="#0052D9" x="12" y="13" width="2" height="2" rx="1"></rect>
        <rect id="矩形备份-5" fill="#0052D9" x="18" y="13" width="2" height="2" rx="1"></rect>
        <path d="M17.8,17.8 C17.8,17.0268014 17.0164983,16.4 16.05,16.4 C15.0835017,16.4 14.3,17.0268014 14.3,17.8 L17.8,17.8 Z" id="椭圆形备份-2" fill="#0052D9" fill-rule="nonzero" transform="translate(16.050000, 17.100000) rotate(-180.000000) translate(-16.050000, -17.100000) "></path>
        <rect id="Rectangle-Copy备份-3" fill="#0052D9" opacity="0" x="0" y="0" width="32" height="32"></rect>
    </g>
</svg>