<?xml version="1.0" encoding="UTF-8"?>
<svg width="32px" height="32px" viewBox="0 0 32 32" version="1.1" xmlns="http://www.w3.org/2000/svg" xmlns:xlink="http://www.w3.org/1999/xlink">
    <title>智聆口语评测 SOE 32_blue</title>
    <g id="最新的文档" stroke="none" stroke-width="1" fill="none" fill-rule="evenodd">
        <g id="智聆口语评测-SOE-32_blue" transform="translate(0.000000, 0.000157)" fill-rule="nonzero">
            <g id="智聆口语评测-SOE">
                <path d="M4,11 L4,26 L27.28,26 C27.7660656,25.1581503 28.7870648,24.7877158 29.6998631,25.1220358 C30.6126615,25.4563558 31.1528813,26.3985996 30.9802345,27.3552416 C30.8075876,28.3118835 29.9720785,29.0058471 29,29.0000729 C28.2897779,28.9957131 27.6351046,28.6150891 27.28,28 L2,28 L2,11 L4,11 Z M4.73205081,4.00018082 L30.0120508,4.00018082 L30.0120508,21.0001808 L28.0120508,21.0001808 L28.0120508,6.00018082 L4.73205081,6.00018082 C4.27944513,6.78411685 3.35672894,7.16631841 2.48236191,6.93203247 C1.60799488,6.69774653 1,5.90539218 1,5.00018082 C1,4.09496946 1.60799488,3.30261511 2.48236191,3.06832917 C3.35672894,2.83404323 4.27944513,3.21624479 4.73205081,4.00018082 Z M17,11 L17,21 L15,21 L15,11 L17,11 Z M13,13 L13,19 L11,19 L11,13 L13,13 Z M21,13 L21,19 L19,19 L19,13 L21,13 Z M25,14 L25,18 L23,18 L23,14 L25,14 Z M9,14 L9,18 L7,18 L7,14 L9,14 Z" id="形状结合" fill="#0052D9"></path>
                <rect id="Rectangle-Copy" fill="#0052D9" opacity="0" x="0" y="0" width="32" height="32"></rect>
            </g>
        </g>
    </g>
</svg>