<svg width="32" height="32" viewBox="0 0 32 32" fill="none" xmlns="http://www.w3.org/2000/svg">
<g clip-path="url(#clip0_43_9)">
<path fill-rule="evenodd" clip-rule="evenodd" d="M22.5 4.74166C16.2822 1.15181 8.33151 3.28219 4.74166 9.49999C3.85335 11.0386 3.31585 12.6813 3.10311 14.3371L5.87079 13.5955L6.38843 15.5274L1.55516 16.8224L1.03865 14.8948L1.03755 14.8947L1.03779 14.8916L1.03752 14.8906L1.03786 14.8905C1.19843 12.7052 1.84228 10.5219 3.00961 8.49999C7.15175 1.3256 16.3256 -1.13252 23.5 3.00961C26.2935 4.62245 28.3738 7.00051 29.626 9.72576L27.8087 10.5608C26.7237 8.19962 24.9231 6.14067 22.5 4.74166ZM30.9764 15.1315L30.9777 15.1311L30.46 13.1993L25.6291 14.4937L26.1467 16.4256L28.9976 15.6617C29.0603 17.9796 28.5038 20.3428 27.2583 22.5C23.6685 28.7178 15.7178 30.8482 9.49999 27.2583C6.41975 25.4799 4.34339 22.6333 3.46734 19.4543L1.53921 19.9857C2.5492 23.6507 4.94647 26.9387 8.49999 28.9904C15.6744 33.1325 24.8482 30.6744 28.9904 23.5C30.5113 20.8657 31.1428 17.9588 30.9764 15.1315Z" fill="#0052D9"/>
<path fill-rule="evenodd" clip-rule="evenodd" d="M21.3461 14.02C21.0683 11.1797 18.8205 9 16 9C13.1887 9 10.9464 11.1655 10.6567 13.9922C9.0749 14.7189 8 16.4119 8 18.3077C8 20.8791 10.0104 23 12.5 23H17H19.5C21.9896 23 24 20.8791 24 18.3077C24 16.4266 22.9395 14.7975 21.3461 14.02ZM19.5 21H17H12.5C11.1396 21 10 19.7978 10 18.3077C10 17.032 10.8088 15.9406 11.8659 15.6782L12.625 15.4898V14.6154C12.625 12.5714 14.1146 11 16 11C17.8854 11 19.375 12.5714 19.375 14.6154V15.4444L20.0787 15.6628C21.2124 16.0146 22 17.0579 22 18.3077C22 19.7978 20.8604 21 19.5 21ZM18.5171 17.0363V15.0363L13.4829 15.0363V17.0363L14.9908 17.0363V20.0055H16.9908V17.0363H18.5171Z" fill="#0052D9"/>
</g>
<defs>
<clipPath id="clip0_43_9">
<rect width="32" height="32" fill="white"/>
</clipPath>
</defs>
</svg>
