<?xml version="1.0" encoding="UTF-8"?>
<svg width="30px" height="26px" viewBox="0 0 30 26" version="1.1" xmlns="http://www.w3.org/2000/svg" xmlns:xlink="http://www.w3.org/1999/xlink">
    <!-- Generator: Sketch 54.1 (76490) - https://sketchapp.com -->
    <title>分组 35复制</title>
    <desc>Created with Sketch.</desc>
    <g id="介绍页配图设计" stroke="none" stroke-width="1" fill="none" fill-rule="evenodd">
        <g id="icon" transform="translate(-321.000000, -896.000000)">
            <g id="分组-35复制" transform="translate(320.000000, 893.000000)">
                <g id="编组-24" transform="translate(1.000000, 3.000000)" fill="#0052D9">
                    <path d="M28,26 C27.2897779,25.9957131 26.6351046,25.6150891 26.28,25 L1,25 L1,8 L3,8 L3,23 L26.28,23 C26.7660656,22.1581503 27.7870648,21.7877158 28.6998631,22.1220358 C29.6126615,22.4563558 30.1528813,23.3985996 29.9802345,24.3552416 C29.8075876,25.3118835 28.9720785,26.0058471 28,26 Z" id="_复合路径_-path"></path>
                    <path d="M27.0120508,3.00018082 L3.73205081,3.00018082 C3.27944513,3.78411685 2.35672894,4.16631841 1.48236191,3.93203247 C0.607994882,3.69774653 1.11022302e-16,2.90539218 0,2.00018082 C-1.11022302e-16,1.09496946 0.607994882,0.302615105 1.48236191,0.0683291662 C2.35672894,-0.165956773 3.27944513,0.216244788 3.73205081,1.00018082 L29.0120508,1.00018082 L29.0120508,18.0001808 L27.0120508,18.0001808 L27.0120508,3.00018082 Z" id="_复合路径_-path"></path>
                </g>
                <g id="分组" transform="translate(15.500000, 16.500000) scale(1, -1) rotate(-270.000000) translate(-15.500000, -16.500000) translate(10.000000, 8.000000)" fill-rule="nonzero" stroke="#0052D9">
                    <circle id="椭圆形" stroke-width="2" cx="2" cy="2" r="1"></circle>
                    <circle id="椭圆形复制-6" stroke-width="2" cx="8.90291374" cy="2" r="1"></circle>
                    <circle id="椭圆形-copy-2" stroke-width="2" cx="2" cy="15" r="1"></circle>
                    <path d="M1.5,3.5 L1.5,14.5 L2.5,14.5 L2.5,3.5 L1.5,3.5 Z" id="矩形"></path>
                    <polyline id="路径-2" stroke-width="2" points="8.90291374 3.42709748 8.90291374 7.26307889 1.99861531 10.7471636"></polyline>
                </g>
            </g>
        </g>
    </g>
</svg>