<?xml version="1.0" encoding="UTF-8"?>
<svg width="30px" height="26px" viewBox="0 0 30 26" version="1.1" xmlns="http://www.w3.org/2000/svg" xmlns:xlink="http://www.w3.org/1999/xlink">
    <!-- Generator: Sketch 54.1 (76490) - https://sketchapp.com -->
    <title>编组 18复制 3</title>
    <desc>Created with Sketch.</desc>
    <g id="介绍页配图设计" stroke="none" stroke-width="1" fill="none" fill-rule="evenodd">
        <g id="icon" transform="translate(-321.000000, -959.000000)" fill="#0052D9">
            <g id="编组-18复制-3" transform="translate(320.000000, 956.000000)">
                <g id="编组-19">
                    <g id="编组-24" transform="translate(1.000000, 3.000000)">
                        <path d="M28,26 C27.2897779,25.9957131 26.6351046,25.6150891 26.28,25 L1,25 L1,8 L3,8 L3,23 L26.28,23 C26.7660656,22.1581503 27.7870648,21.7877158 28.6998631,22.1220358 C29.6126615,22.4563558 30.1528813,23.3985996 29.9802345,24.3552416 C29.8075876,25.3118835 28.9720785,26.0058471 28,26 Z" id="_复合路径_-path"></path>
                        <path d="M27.0120508,3.00018082 L3.73205081,3.00018082 C3.27944513,3.78411685 2.35672894,4.16631841 1.48236191,3.93203247 C0.607994882,3.69774653 1.11022302e-16,2.90539218 0,2.00018082 C-1.11022302e-16,1.09496946 0.607994882,0.302615105 1.48236191,0.0683291662 C2.35672894,-0.165956773 3.27944513,0.216244788 3.73205081,1.00018082 L29.0120508,1.00018082 L29.0120508,18.0001808 L27.0120508,18.0001808 L27.0120508,3.00018082 Z" id="_复合路径_-path"></path>
                    </g>
                    <g id="编组-20" transform="translate(8.000000, 7.000000)">
                        <path d="M16.2942286,11.1905989 L16.2942286,13.5 L8.5,18 L0.705771366,13.5 L0.705771366,11.1285234 L2.70577137,12.2832239 L2.70577137,12.3452995 L8.5,15.6905989 L14.2942286,12.3452995 L14.2942286,10.0358984 L16.2942286,11.1905989 Z M16.2942286,7.03671058 L14.2942286,5.88201004 L14.2942286,5.65470054 L8.5,2.30940108 L2.70577137,5.65470054 L2.70577137,7.96410162 L0.705771366,6.80940108 L0.705771366,4.5 L8.5,0 L16.2942286,4.5 L16.2942286,7.03671058 Z" id="形状结合" fill-rule="nonzero"></path>
                        <rect id="矩形" x="8" y="7.15470054" width="2" height="6"></rect>
                        <path d="M10.2343675,9.99598737 L10.2343675,10.0013375 L10.2320508,10 L10.2343675,9.99598737 Z M12.2343675,8.84963496 L16.2942286,11.20574 L16.2942286,13.5 L12.2343675,11.1560381 L12.2343675,8.84963496 Z M5.65586431,7.35793749 L5.65586431,9.66721115 L0.705771366,6.80364634 L0.705771366,4.5 L5.65586431,7.35793749 Z" id="形状结合"></path>
                        <path d="M15,7.58180628 C16.1045695,7.58180628 17,6.68637578 17,5.58180628 C17,4.47723678 16.1045695,3.58180628 15,3.58180628 C13.8954305,3.58180628 13,4.47723678 13,5.58180628 C13,6.68637578 13.8954305,7.58180628 15,7.58180628 Z" id="椭圆形"></path>
                        <path d="M2,14.4469622 C3.1045695,14.4469622 4,13.5515317 4,12.4469622 C4,11.3423927 3.1045695,10.4469622 2,10.4469622 C0.8954305,10.4469622 0,11.3423927 0,12.4469622 C0,13.5515317 0.8954305,14.4469622 2,14.4469622 Z" id="椭圆形复制-5"></path>
                    </g>
                </g>
            </g>
        </g>
    </g>
</svg>