<svg width="32" height="32" viewBox="0 0 32 32" fill="none" xmlns="http://www.w3.org/2000/svg">
<g clip-path="url(#clip0_348_6580)">
<path fill-rule="evenodd" clip-rule="evenodd" d="M4 11V26H27.277C27.624 25.405 28.262 25 29 25C30.105 25 31 25.895 31 27C31 28.105 30.105 29 29 29C28.261 29 27.623 28.595 27.277 28H2V11H4ZM3 3C3.738 3 4.376 3.405 4.723 4H30V21H28V6H4.723C4.376 6.595 3.738 7 3 7C1.895 7 1 6.105 1 5C1 3.895 1.895 3 3 3Z" fill="#0052D9"/>
<circle cx="16.0605" cy="16" r="5" stroke="#0052D9" stroke-width="2"/>
<path d="M16.0605 9V11.5" stroke="#0052D9" stroke-width="2"/>
<path d="M21.0605 13L22.0605 12.5" stroke="#0052D9" stroke-width="2"/>
<path d="M9.93932 19.7989L11.0603 19.0001" stroke="#0052D9" stroke-width="2"/>
<path d="M16.0605 21.5V23" stroke="#0052D9" stroke-width="2"/>
<path d="M11.5605 13L10.0605 12" stroke="#0052D9" stroke-width="2"/>
<path d="M21.5604 20.5L20.1938 19.5" stroke="#0052D9" stroke-width="2"/>
<circle cx="16.0605" cy="16" r="2" fill="#0052D9"/>
</g>
<defs>
<clipPath id="clip0_348_6580">
<rect width="32" height="32" fill="white"/>
</clipPath>
</defs>
</svg>
