<?xml version="1.0" encoding="UTF-8"?>
<svg width="32px" height="32px" viewBox="0 0 32 32" version="1.1" xmlns="http://www.w3.org/2000/svg" xmlns:xlink="http://www.w3.org/1999/xlink">
    <title>blue-效能-32xp</title>
    <g id="页面-1" stroke="none" stroke-width="1" fill="none" fill-rule="evenodd">
        <g id="blue-效能-32xp" fill-rule="nonzero">
            <rect id="Rectangle-Copy" fill="#0052D9" opacity="0" x="0" y="0" width="32" height="32"></rect>
            <path d="M4,11 L4,26 L27.2675644,26 C27.6133738,25.4021986 28.2597176,25 29,25 C30.1045695,25 31,25.8954305 31,27 C31,28.1045695 30.1045695,29 29,29 C28.2597176,29 27.6133738,28.5978014 27.2675644,28 L2,28 L2,11 L4,11 Z M3,3 C3.74028236,3 4.38662619,3.40219863 4.73243561,4 L30,4 L30,21 L28,21 L28,6 L4.73243561,6 C4.38662619,6.59780137 3.74028236,7 3,7 C1.8954305,7 1,6.1045695 1,5 C1,3.8954305 1.8954305,3 3,3 Z" id="Combined-Shape" fill="#0052D9"></path>
            <path d="M11.0558469,19.9572533 L11.0558469,23 L9.0791938,23 L9.0791938,19.9572533 L11.0558469,19.9572533 Z M16.9756492,17.9318763 L16.9756492,22.9953189 L14.9989961,22.9953189 L14.9989961,17.9318763 L16.9756492,17.9318763 Z M22.931001,14.8938107 L22.931001,22.9953189 L20.9543479,22.9953189 L20.9543479,14.8938107 L22.931001,14.8938107 Z M22.3670805,9 L23.5,10.6607363 L16.624965,15.5721784 L14.138719,13.4173109 L9.6583876,16.7276166 L8.5,15.0853819 L14.2369048,10.8476636 L16.7403674,13.0183116 L22.3670805,9 Z" id="形状结合" fill="#0052D9"></path>
        </g>
    </g>
</svg>