<?xml version="1.0" encoding="UTF-8"?>
<svg width="30px" height="26px" viewBox="0 0 30 26" version="1.1" xmlns="http://www.w3.org/2000/svg" xmlns:xlink="http://www.w3.org/1999/xlink">
    <!-- Generator: Sketch 54.1 (76490) - https://sketchapp.com -->
    <title>编组 25复制 2</title>
    <desc>Created with Sketch.</desc>
    <g id="介绍页配图设计" stroke="none" stroke-width="1" fill="none" fill-rule="evenodd">
        <g id="icon" transform="translate(-321.000000, -757.000000)">
            <g id="编组-25复制-2" transform="translate(320.000000, 754.000000)">
                <g id="编组-8复制" transform="translate(1.000000, 3.000000)">
                    <g id="编组-24" fill="#0052D9">
                        <path d="M28,26 C27.2897779,25.9957131 26.6351046,25.6150891 26.28,25 L1,25 L1,8 L3,8 L3,23 L26.28,23 C26.7660656,22.1581503 27.7870648,21.7877158 28.6998631,22.1220358 C29.6126615,22.4563558 30.1528813,23.3985996 29.9802345,24.3552416 C29.8075876,25.3118835 28.9720785,26.0058471 28,26 Z" id="_复合路径_-path"></path>
                        <path d="M27.0120508,3.00018082 L3.73205081,3.00018082 C3.27944513,3.78411685 2.35672894,4.16631841 1.48236191,3.93203247 C0.607994882,3.69774653 1.11022302e-16,2.90539218 0,2.00018082 C-1.11022302e-16,1.09496946 0.607994882,0.302615105 1.48236191,0.0683291662 C2.35672894,-0.165956773 3.27944513,0.216244788 3.73205081,1.00018082 L29.0120508,1.00018082 L29.0120508,18.0001808 L27.0120508,18.0001808 L27.0120508,3.00018082 Z" id="_复合路径_-path"></path>
                    </g>
                    <g id="编组-14" transform="translate(6.000000, 4.000000)">
                        <polygon id="矩形" fill="#0052D9" points="3 1 15 1 15 3 3 3"></polygon>
                        <path d="M5.99658768,1.97994881 L5.99658768,5.89348415 L1.74236635,16 L16.3526934,16 L12.049969,5.89564298 L12.049969,1.99716069 L5.99658768,1.97994881 Z" id="矩形" stroke="#0052D9" stroke-width="2"></path>
                        <path d="M3.5,12.5 C2.5,13.5 3.09948754,13.9255774 5.29846263,13.7767321 C8.59692527,13.5534642 7.5,11 10.5,11 C12.5,11 14,11.5 15,12.5" id="路径-3" stroke="#0052D9" stroke-width="2"></path>
                        <circle id="椭圆形" fill="#0052D9" cx="9.5" cy="7.5" r="1.5"></circle>
                    </g>
                </g>
            </g>
        </g>
    </g>
</svg>