<?xml version="1.0" encoding="UTF-8"?>
<svg width="32px" height="32px" viewBox="0 0 32 32" version="1.1" xmlns="http://www.w3.org/2000/svg" xmlns:xlink="http://www.w3.org/1999/xlink">
    <!-- Generator: Sketch 52.6 (67491) - http://www.bohemiancoding.com/sketch -->
    <title>远程调试 RD-32px</title>
    <desc>Created with Sketch.</desc>
    <g id="远程调试-RD-32px" stroke="none" stroke-width="1" fill="none" fill-rule="evenodd">
        <rect id="Rectangle-Copy" fill="#0052D9" opacity="0" x="0" y="0" width="32" height="32"></rect>
        <g id="_编组_-2" transform="translate(5.000000, 1.000000)">
            <g id="_编组_">
                <path d="M22,24 L22,0 L0,0 L0,30 L22,30 L22,28 L2,28 L2,2 L20,2 L20,24 L22,24 Z M13,24 L13,22 L9,22 L9,24 L13,24 Z" id="Shape" fill="#0052D9" fill-rule="nonzero"></path>
                <rect id="Rectangle-190" stroke="#0052D9" stroke-width="2" x="5" y="5" width="4" height="4"></rect>
                <rect id="Rectangle-190-Copy" stroke="#0052D9" stroke-width="2" x="13" y="14" width="4" height="4"></rect>
                <path d="M10,17 L6,17 L4,17 L4,12 L6,12 L6,15 L9,15 L9,14 L9.98254529,15 L10,15 L10,15.0177648 L11.9476359,17 L10,17 Z" id="Combined-Shape" fill="#0052D9"></path>
                <path d="M16,11 L12,11 L10,11 L10,6 L12,6 L12,9 L15,9 L15,8 L15.9825453,9 L16,9 L16,9.01776479 L17.9476359,11 L16,11 Z" id="Combined-Shape-Copy-9" fill="#0052D9" transform="translate(13.973818, 8.500000) scale(-1, -1) translate(-13.973818, -8.500000) "></path>
            </g>
        </g>
    </g>
</svg>