<?xml version="1.0" encoding="UTF-8"?>
<svg width="30px" height="26px" viewBox="0 0 30 26" version="1.1" xmlns="http://www.w3.org/2000/svg" xmlns:xlink="http://www.w3.org/1999/xlink">
    <!-- Generator: Sketch 54.1 (76490) - https://sketchapp.com -->
    <title>编组 15复制 2</title>
    <desc>Created with Sketch.</desc>
    <g id="介绍页配图设计" stroke="none" stroke-width="1" fill="none" fill-rule="evenodd">
        <g id="icon" transform="translate(-321.000000, -692.000000)">
            <g id="编组-15复制-2" transform="translate(320.000000, 689.000000)">
                <g id="编组-24" transform="translate(1.000000, 3.000000)" fill="#0052D9">
                    <path d="M28,26 C27.2897779,25.9957131 26.6351046,25.6150891 26.28,25 L1,25 L1,8 L3,8 L3,23 L26.28,23 C26.7660656,22.1581503 27.7870648,21.7877158 28.6998631,22.1220358 C29.6126615,22.4563558 30.1528813,23.3985996 29.9802345,24.3552416 C29.8075876,25.3118835 28.9720785,26.0058471 28,26 Z" id="_复合路径_-path"></path>
                    <path d="M27.0120508,3.00018082 L3.73205081,3.00018082 C3.27944513,3.78411685 2.35672894,4.16631841 1.48236191,3.93203247 C0.607994882,3.69774653 1.11022302e-16,2.90539218 0,2.00018082 C-1.11022302e-16,1.09496946 0.607994882,0.302615105 1.48236191,0.0683291662 C2.35672894,-0.165956773 3.27944513,0.216244788 3.73205081,1.00018082 L29.0120508,1.00018082 L29.0120508,18.0001808 L27.0120508,18.0001808 L27.0120508,3.00018082 Z" id="_复合路径_-path"></path>
                </g>
                <g id="编组-8" transform="translate(6.000000, 7.000000)" fill="#0052D9">
                    <path d="M5.7829573,3.41232913 L6.7933575,5.16239361 C5.67960004,6.09353113 5,7.4849784 5,9 C5,10.0654693 5.33294212,11.0765898 5.93884335,11.9176134 L3.63515051,11.9176134 C3.22736209,11.0294693 3,10.0412863 3,9 C3,6.71751607 4.09242895,4.6901826 5.7829573,3.41232913 Z M9.5930661,2.01163115 C9.72772632,2.00391236 9.86340627,2 10,2 C13.8659932,2 17,5.13400675 17,9 C17,12.8659932 13.8659932,16 10,16 C8.09269493,16 6.36355437,15.237187 5.10101726,14 L10,14 C12.7614237,14 15,11.7614237 15,9 C15,6.50236973 13.1686891,4.43246504 10.7755708,4.05978945 L9.59306636,2.0116316 Z" id="形状结合" fill-rule="nonzero"></path>
                    <rect id="矩形" x="2" y="14" width="9" height="2"></rect>
                    <path d="M15.6769742,13.7719524 L16.3400416,13.7719524 L16.0220721,13.4539829 C16.5096003,12.992977 16.9685916,12.5075617 17.3965163,12 L20.1684687,14.7719524 L16.6329348,18.3074863 L15.2187212,16.8932727 L16.3400416,15.7719524 L13,15.7719524 C13.9600244,15.1789715 14.8560654,14.5089797 15.6769742,13.7719524 Z" id="形状结合"></path>
                    <path d="M11.0355339,4.03553391 L14.0355339,4.03553391 L14.0355339,6.03553391 L9.03553391,6.03553391 L9.03553391,4.03553391 L9.03553391,1.03553391 L11.0355339,1.03553391 L11.0355339,4.03553391 Z" id="形状结合" transform="translate(11.535534, 3.535534) rotate(-315.000000) translate(-11.535534, -3.535534) "></path>
                </g>
            </g>
        </g>
    </g>
</svg>