<?xml version="1.0" encoding="utf-8"?>
<!-- Generator: Adobe Illustrator 21.0.0, SVG Export Plug-In . SVG Version: 6.00 Build 0)  -->
<svg version="1.1" id="图层_1" xmlns="http://www.w3.org/2000/svg" xmlns:xlink="http://www.w3.org/1999/xlink" x="0px" y="0px"
	 viewBox="0 0 728.129 107.9" style="enable-background:new 0 0 728.129 107.9;" xml:space="preserve">
<style type="text/css">
	.st0{fill:#00A1FF;}
	.st1{fill:#00C4D6;}
	.st2{fill:#006EFF;}
</style>
<g>
	<g>
		<path d="M556.142,69.107c0-0.412-0.506-0.61-0.782-0.305c-5.011,5.542-12.64,10.207-22.325,10.207
			c-14.37-0.001-23.655-9.928-23.655-25.292c0-15.656,8.846-25.382,23.089-25.382c8.281,0,16.913,3.961,22.074,9.323
			c0.281,0.292,0.773,0.092,0.773-0.313v-7.922c-5.821-5.243-14.261-8.403-22.85-8.403c-8.943,0-16.516,3.126-21.9,9.042
			c-5.331,5.857-8.149,14.037-8.149,23.655c0,19.557,12.304,32.696,30.617,32.696c8.739,0,17.27-3.24,23.107-8.629V69.107z"/>
		<polygon points="165.46,22.651 165.46,29.441 186.934,29.441 186.934,84.793 194.366,84.793 194.366,29.441 215.84,29.441 
			215.84,22.651 		"/>
		<path d="M720.718,43.884c-3.843-4.165-10.268-5.679-14.891-5.679c-6.175,0-11.719,2.303-15.61,6.486
			c-4.001,4.302-6.116,10.267-6.116,17.251c0,16.579,11,24,21.902,24c6.369,0,11.625-2.276,14.714-6.306v5.248h7.411V22.748h-7.411
			V43.884z M720.522,62.118c0,8.484-4.926,17.072-14.339,17.072c-7.07,0-14.679-5.232-14.679-16.719
			c0-8.44,4.456-17.523,14.239-17.523C716.651,44.948,720.522,54.197,720.522,62.118z"/>
		<rect x="565.977" y="22.748" width="7.523" height="62.136"/>
		<path d="M349.417,73.377c0-0.391-0.461-0.596-0.751-0.334c-4.841,4.37-11.87,6.073-14.943,6.073
			c-9.973,0-16.417-6.687-16.417-17.037c0-10.35,6.444-17.037,16.417-17.037c3.082,0,9.896,0.863,14.951,5.225
			c0.292,0.252,0.743,0.044,0.743-0.341V43.08c-3.047-1.918-9.459-4.879-16.09-4.879c-13.775,0-23.03,9.596-23.03,23.879
			c0,14.282,9.255,23.879,23.03,23.879c5.695,0,11.276-1.537,16.09-4.897V73.377z"/>
		<path d="M252.272,71.912c0-0.436-0.549-0.615-0.813-0.267c-3.302,4.351-11.203,7.865-16.061,7.865
			c-4.643,0-9.008-1.531-11.392-3.996c-2.894-2.992-4.463-7.104-4.427-11.33h34.768v-0.531c0-9.805-1.671-15.365-5.96-19.829
			c-3.582-3.728-8.511-5.618-14.65-5.618c-13.007,0-21.411,9.308-21.411,23.732c0.475,15.005,9,23.963,22.804,23.963
			c6.581,0,12.152-2.216,17.141-6.57V71.912z M247.321,57.795h-27.756l0.011-0.139c0.301-3.959,2.048-7.366,5.054-9.853
			c2.4-1.986,5.564-3.08,8.909-3.08c8.102,0,13.381,4.957,13.775,12.938L247.321,57.795z"/>
		<path d="M668.28,62.473c0,12.378-7.139,16.77-13.252,16.77c-5.925,0-12.222-4.097-12.222-11.691V39.265h-7.073v28.16
			c0,10.904,7.786,18.519,18.934,18.519c6.174,0,10.993-2.08,14.053-6.039v4.966h6.745V39.265h-7.185V62.473z"/>
		<path d="M283.56,38.208c-5.69,0-10.51,1.902-13.745,5.388V39.24h-7.022v45.645h7.179V58.876c0-4.296,1.314-7.948,3.7-10.284
			c2.572-2.519,5.749-3.683,9.698-3.563c5.626,0.17,11.302,3.893,11.302,11.829v28.026h7.179V56.521
			c0-5.624-1.786-10.31-5.165-13.552C293.44,39.855,288.901,38.208,283.56,38.208z"/>
		<path d="M396.307,71.912c0-0.436-0.549-0.615-0.813-0.267c-3.302,4.351-11.203,7.865-16.061,7.865
			c-4.643,0-9.008-1.531-11.392-3.996c-2.894-2.992-4.463-7.104-4.427-11.33h34.768v-0.531c0-9.805-1.671-15.365-5.96-19.829
			c-3.582-3.728-8.511-5.618-14.65-5.618c-13.007,0-21.411,9.308-21.411,23.732c0.475,15.005,9,23.963,22.804,23.963
			c6.581,0,12.152-2.216,17.141-6.57V71.912z M391.355,57.795h-27.755l0.011-0.139c0.301-3.959,2.048-7.366,5.054-9.853
			c2.4-1.986,5.564-3.08,8.909-3.08c8.102,0,13.381,4.957,13.775,12.938L391.355,57.795z"/>
		<path d="M427.477,38.208c-5.69,0-10.51,1.902-13.745,5.388V39.24h-7.022v45.645h7.179V58.876c0-4.296,1.314-7.948,3.7-10.284
			c2.572-2.519,5.749-3.683,9.698-3.563c5.626,0.17,11.302,3.893,11.302,11.829v28.026h7.179V56.521
			c0-5.624-1.786-10.31-5.165-13.552C437.358,39.855,432.818,38.208,427.477,38.208z"/>
		<path d="M469.247,85.491c4.356-0.238,9.347-2.123,9.347-2.123v-6.874c0-0.311-0.306-0.53-0.599-0.427
			c-1.703,0.6-5.649,1.82-7.695,2.113c-0.75,0.119-1.411,0.225-1.904-0.194c-0.325-0.278-0.49-0.648-0.49-1.45V45.874h13.141v-6.641
			h-13.141V27.071h-7.46v12.162h-7.488v6.641h7.488v31.382c0,2.699,0.822,4.788,2.443,6.21
			C464.405,84.796,466.616,85.491,469.247,85.491z"/>
		<path d="M605.47,38.295c-13.238,0-22.133,9.574-22.133,23.823s8.895,23.823,22.133,23.823c13.239,0,22.133-9.574,22.133-23.823
			S618.709,38.295,605.47,38.295z M590.205,62.071l-0.004-0.017c0.027-10.099,6.157-16.879,15.269-16.879
			c9.131,0,15.268,6.809,15.269,16.943c-0.003,10.132-6.139,16.943-15.269,16.943C596.344,79.061,590.213,72.196,590.205,62.071z"/>
	</g>
	<g>
		<path class="st0" d="M139.225,49.068c-6.243-6.365-14.941-10.377-24.614-10.377c-8.359,0-15.556,2.881-21.84,8.001
			c-2.74,2.229-5.615,4.9-9.228,8.412c-1.795,1.742-53.852,52.255-53.852,52.255c2.728,0.389,6.482,0.505,9.828,0.527
			c3.136,0.019,62.945,0.013,65.45,0.013c5.038,0,8.318-0.006,11.843-0.264c8.076-0.59,15.71-3.553,21.881-9.611
			C152.39,84.571,152.597,62.735,139.225,49.068 M129.219,88.344c-2.655,2.627-7.392,5.612-15.167,5.876
			c-3.594,0.122-7.79,0.135-9.711,0.135H62.567c15.198-14.762,28.456-27.637,29.96-29.097c1.378-1.34,4.479-4.303,7.15-6.711
			c5.866-5.283,11.149-6.347,14.884-6.312c5.854,0.053,11.177,2.445,14.985,6.303C137.684,66.859,137.493,80.155,129.219,88.344"/>
		<path class="st1" d="M55.236,45.82c-6.121-4.579-12.969-7.138-20.735-7.128c-9.674,0-18.371,4.011-24.614,10.377
			C-3.484,62.735-3.28,84.572,10.421,98.025c5.502,5.402,12.166,8.34,19.272,9.332l13.403-13.004
			c-2.169-0.009-5.276-0.041-8.038-0.132c-7.772-0.267-12.508-3.249-15.164-5.876c-8.274-8.189-8.465-21.485-0.326-29.806
			c3.804-3.858,9.128-6.246,14.981-6.303c3.669-0.016,8.647,1.048,14.272,5.713c2.684,2.225,8.647,7.467,11.262,9.824
			c0.135,0.119,0.295,0.132,0.449,0.003l9.231-9.005c0.157-0.154,0.148-0.364-0.009-0.505C65.315,54.254,59.025,48.639,55.236,45.82
			"/>
		<path class="st2" d="M118.241,30.876C111.872,12.888,94.725,0,74.555,0C51.422,0,32.247,17.012,28.776,39.172
			c1.861-0.314,3.773-0.48,5.725-0.48c2.715-0.003,5.317,0.314,7.816,0.913c0.05,0.013,0.1,0.019,0.148,0.028
			C45.6,24.671,58.827,13.56,74.555,13.56c13.101,0,24.596,7.9,29.775,19.096c0.082,0.179,0.22,0.235,0.361,0.198
			c3.898-1.07,8.572-1.695,13.082-1.362C118.213,31.526,118.382,31.278,118.241,30.876"/>
	</g>
</g>
</svg>
