<?xml version="1.0" encoding="utf-8"?>
<!-- Generator: Adobe Illustrator 21.0.0, SVG Export Plug-In . SVG Version: 6.00 Build 0)  -->
<svg version="1.1" id="图层_1" xmlns="http://www.w3.org/2000/svg" xmlns:xlink="http://www.w3.org/1999/xlink" x="0px" y="0px"
	 viewBox="0 0 164.781 190.675" style="enable-background:new 0 0 164.781 190.675;" xml:space="preserve">
<style type="text/css">
	.st0{fill:#00A3FF;}
	.st1{fill:#00C8DC;}
	.st2{fill:#006EFF;}
</style>
<g>
	<g>
		<path d="M99.628,150.697H76.134v3.4h7.073v12.394h-8.106v3.4h8.106v20.785h3.74V169.89h8.942v20.349h7.061v-3.401h-3.322V150.697z
			 M86.947,166.491v-12.394h8.942v12.394H86.947z"/>
		<rect x="34.458" y="181.169" width="18.535" height="3.4"/>
		<path d="M21.829,174.877c0,6.182-0.5,10.874-1.529,15.032c-0.108,0.385,0.008,0.488,0.21,0.488c0.07,0,2.832,0,3.408,0
			c1.138-5.711,1.287-10.45,1.306-13.888h4.764v10.569h-3.383c-0.165,0-0.292,0.107-0.205,0.343l0.932,3.057h6.05v-39.695H21.829
			V174.877z M25.228,173.449v-8.136h4.761v8.136H25.228z M29.989,154.182v8.072h-4.761v-8.072H29.989z"/>
		<path d="M54.306,164.563h4.564v-3.06H45.571c0.401-0.978,0.762-2.026,1.091-3.162h11.373v-3.06h-3.332
			c0.555-1.89,1.209-4.121,1.247-4.25c0.066-0.226-0.053-0.314-0.199-0.314h-2.894l-1.342,4.564h-4.091
			c0.381-1.769,0.714-3.728,1.016-5.926c0.035-0.255-0.102-0.305-0.271-0.305c-0.136,0-2.375,0-3.295,0
			c-0.337,2.336-0.689,4.35-1.14,6.232h-2.007l-1.341-4.564h-2.894c-0.146,0-0.266,0.088-0.199,0.314
			c0.038,0.129,0.693,2.36,1.247,4.25h-3.244v3.06h7.577c-0.308,0.967-0.761,2.104-1.245,3.162h-7.166v3.06h5.382
			c-2.17,3.081-4.49,4.499-5.415,5.065c0,0.434,0,3.399,0,3.5c0,0.176,0.139,0.363,0.693,0.049c1.006-0.571,2.08-1.216,3.168-2.02
			h12.661l-0.107,4.582h-9.996l0.152-2.74c0-0.118-0.086-0.207-0.207-0.207c-0.189,0-3.197,0-3.197,0l-0.322,5.799
			c0,0.118,0.086,0.207,0.207,0.207c0.19,0,17.246,0,17.246,0v8.273h-7.773c-0.165,0-0.292,0.107-0.205,0.343l0.932,3.057h10.786
			V175.74h-4.222l0.139-5.949c1.579,1.468,3.181,2.56,4.638,3.387c0.553,0.314,0.693,0.127,0.693-0.049c0-0.101,0-3.066,0-3.5
			C58.791,169.062,56.475,167.64,54.306,164.563z M50.144,164.563c0.814,1.34,1.691,2.509,2.596,3.535H41.612
			c0.864-0.997,1.7-2.16,2.48-3.535H50.144z"/>
		<path d="M78.505,178.805c-0.063,0.048-3.235,2.451-6.305,4.777v-22.1h-8.736v3.74h5.022v21.174
			c-1.197,0.907-2.008,1.522-2.008,1.522l2.052,2.711l10.313-7.814c0,0,0-3.754,0-3.85
			C78.842,178.781,78.639,178.704,78.505,178.805z"/>
		<path d="M68.979,158.135c0,0,3.994,0,4.086,0c0.181,0,0.255-0.197,0.175-0.319c-0.074-0.114-5.155-7.872-5.155-7.872
			s-3.932,0-4.087,0s-0.267,0.178-0.181,0.309C63.903,150.383,68.979,158.135,68.979,158.135z"/>
		<rect x="110.856" y="151.605" width="29.511" height="3.74"/>
		<path d="M121.559,169.476h22.964v-3.74h-37.824v3.74h10.494c-2.168,5.691-7.607,19.973-7.644,20.076
			c-0.059,0.166,0.049,0.289,0.193,0.289c0.09,0,32.547,0,32.624,0c0.154,0,0.243-0.152,0.188-0.297
			c-0.034-0.09-4.864-12.789-4.864-12.789s-3.907,0-4.061,0c-0.154,0-0.246,0.149-0.195,0.284c0.051,0.135,3.442,9.062,3.442,9.062
			h-21.631L121.559,169.476z"/>
	</g>
	<g>
		<path class="st0" d="M142.798,97.63c-2.934,2.904-8.168,6.201-16.759,6.493c-3.973,0.135-8.612,0.15-10.734,0.15
			c-2.317,0-22.745,0-46.162,0c16.795-16.313,31.446-30.542,33.108-32.156c1.523-1.479,4.947-4.755,7.901-7.415
			c6.484-5.839,12.322-7.014,16.45-6.975c6.469,0.061,12.352,2.702,16.557,6.967C152.154,73.888,151.941,88.582,142.798,97.63
			 M153.856,54.227c-6.897-7.033-16.512-11.466-27.199-11.466c-9.239-0.001-17.193,3.185-24.137,8.84
			c-3.027,2.465-6.203,5.416-10.198,9.297c-1.984,1.927-59.511,57.747-59.511,57.747c3.016,0.429,7.163,0.558,10.861,0.581
			c3.465,0.022,69.561,0.015,72.328,0.015c5.569,0,9.193-0.006,13.086-0.29c8.928-0.652,17.362-3.926,24.18-10.621
			C168.405,93.46,168.633,69.329,153.856,54.227z"/>
		<path class="st1" d="M61.041,50.637c-6.762-5.061-14.333-7.889-22.916-7.877c-10.688,0.001-20.302,4.433-27.2,11.467
			C-3.851,69.329-3.624,93.46,11.516,108.328c6.079,5.969,13.443,9.217,21.295,10.314l14.812-14.373
			c-2.395-0.01-5.832-0.043-8.882-0.146c-8.591-0.292-13.824-3.589-16.759-6.493c-9.142-9.048-9.355-23.742-0.359-32.937
			c4.205-4.264,10.088-6.905,16.557-6.966c4.053-0.016,9.554,1.161,15.77,6.314c2.968,2.46,9.556,8.251,12.446,10.858
			c0.147,0.133,0.324,0.145,0.497,0.003l10.199-9.951c0.176-0.171,0.166-0.402-0.008-0.56C72.18,59.957,65.226,53.754,61.041,50.637
			"/>
		<path class="st2" d="M130.666,34.123C123.629,14.245,104.679,0,82.39,0C56.824,0,35.637,18.8,31.8,43.29
			c2.056-0.346,4.168-0.53,6.325-0.53c3.002-0.004,5.877,0.346,8.639,1.011c0.054,0.011,0.108,0.018,0.161,0.031
			C50.39,27.267,65.007,14.985,82.39,14.985c14.478,0,27.179,8.732,32.904,21.106c0.09,0.195,0.243,0.259,0.399,0.216
			c4.306-1.183,9.47-1.871,14.457-1.504C130.636,34.84,130.823,34.566,130.666,34.123"/>
	</g>
</g>
</svg>
