<?xml version="1.0" encoding="utf-8"?>
<!-- Generator: Adobe Illustrator 21.0.0, SVG Export Plug-In . SVG Version: 6.00 Build 0)  -->
<svg version="1.1" id="图层_1" xmlns="http://www.w3.org/2000/svg" xmlns:xlink="http://www.w3.org/1999/xlink" x="0px" y="0px"
	 viewBox="0 0 422.458 112.995" style="enable-background:new 0 0 422.458 112.995;" xml:space="preserve">
<style type="text/css">
	.st0{fill:#00A4FF;}
	.st1{fill:#00C7D9;}
	.st2{fill:#006EFF;}
</style>
<g>
	<g>
		<path d="M309.568,25.764H327.1v24.301h-17.532V25.764z M334.432,19.099h-46.064v6.665h13.868v24.301h-15.893v6.665h15.893v40.753
			h7.332V56.731h17.531V96.63h13.846v-6.669h-6.514V19.099z"/>
		<rect x="206.653" y="78.845" width="36.342" height="6.665"/>
		<path d="M197.89,41.758h-9.335V25.931h9.335V41.758z M188.555,47.757h9.335v15.952h-9.335V47.757z M181.89,66.509
			c0,12.12-0.98,21.321-2.997,29.473c-0.213,0.754,0.017,0.957,0.412,0.957h6.683c2.232-11.199,2.523-20.49,2.561-27.231h9.341
			v20.723h-6.634c-0.322,0-0.573,0.211-0.402,0.672l1.827,5.994h11.861V19.266H181.89V66.509z"/>
		<path d="M237.408,46.286c1.597,2.627,3.316,4.918,5.091,6.931h-21.82c1.694-1.954,3.334-4.235,4.862-6.931H237.408z
			 M245.568,46.286h8.949v-5.999h-26.075c0.787-1.917,1.495-3.972,2.14-6.198h22.3v-5.999h-6.532
			c1.087-3.706,2.371-8.081,2.446-8.334c0.129-0.444-0.104-0.615-0.391-0.615h-5.676l-2.63,8.949h-8.021
			c0.747-3.469,1.4-7.31,1.992-11.62c0.069-0.5-0.2-0.599-0.531-0.599h-6.459c-0.661,4.58-1.352,8.528-2.237,12.219h-3.934
			l-2.63-8.949h-5.675c-0.287,0-0.521,0.172-0.391,0.615c0.074,0.253,1.358,4.627,2.445,8.334h-6.362v5.999h14.857
			c-0.604,1.894-1.492,4.125-2.44,6.198h-14.051v5.999h10.554c-4.256,6.041-8.803,8.821-10.618,9.932v6.862
			c0,0.346,0.273,0.713,1.358,0.098c1.973-1.119,4.078-2.385,6.211-3.96h24.825l-0.209,8.983h-19.599l0.298-5.371
			c0-0.232-0.168-0.406-0.406-0.406h-6.269l-0.631,11.371c0,0.232,0.168,0.406,0.407,0.406h33.815v16.22h-15.242
			c-0.322,0-0.572,0.211-0.401,0.672l1.826,5.994h21.148V68.199h-8.278l0.273-11.665c3.096,2.879,6.237,5.02,9.093,6.642
			c1.085,0.615,1.358,0.248,1.358-0.098v-6.862C254.362,55.106,249.821,52.319,245.568,46.286"/>
		<path d="M293.016,74.21c-0.124,0.094-6.343,4.806-12.362,9.367v-43.33h-17.13v7.331h9.847v41.517
			c-2.346,1.778-3.937,2.984-3.937,2.984l4.023,5.315l20.221-15.321v-7.549C293.677,74.162,293.278,74.011,293.016,74.21"/>
		<path d="M274.338,33.683h8.013c0.355,0,0.5-0.386,0.342-0.625c-0.145-0.222-10.107-15.436-10.107-15.436h-8.013
			c-0.304,0-0.522,0.351-0.355,0.606C264.385,18.484,274.338,33.683,274.338,33.683"/>
		<rect x="356.446" y="20.878" width="57.863" height="7.332"/>
		<path d="M377.433,55.919h45.025v-7.332h-74.161v7.332h20.575c-4.25,11.159-14.914,39.161-14.987,39.364
			c-0.118,0.325,0.095,0.566,0.376,0.566h63.967c0.302,0,0.475-0.299,0.368-0.581c-0.068-0.177-9.538-25.075-9.538-25.075h-7.963
			c-0.302,0-0.482,0.293-0.382,0.558c0.101,0.265,6.749,17.766,6.749,17.766H365.05L377.433,55.919z"/>
		<path class="st0" d="M145.797,51.386c-6.537-6.665-15.647-10.865-25.775-10.866c-8.755,0-16.292,3.018-22.873,8.377
			c-2.868,2.336-5.878,5.132-9.663,8.809c-1.88,1.826-56.395,54.723-56.395,54.723c2.858,0.406,6.789,0.528,10.293,0.549
			c3.283,0.021,65.918,0.015,68.54,0.015c5.277,0,8.711-0.006,12.4-0.275c8.461-0.618,16.453-3.72,22.914-10.066
			C159.585,88.565,159.8,65.698,145.797,51.386 M135.319,92.516c-2.78,2.752-7.74,5.876-15.882,6.152
			c-3.764,0.128-8.161,0.142-10.172,0.142c-2.196,0-21.554,0-43.744,0c15.916-15.458,29.799-28.943,31.374-30.471
			c1.443-1.403,4.688-4.506,7.487-7.027c6.144-5.533,11.676-6.647,15.589-6.61c6.13,0.058,11.705,2.56,15.69,6.602
			C144.184,70.017,143.983,83.942,135.319,92.516"/>
		<path class="st1" d="M57.844,47.985c-6.408-4.796-13.581-7.476-21.715-7.464c-10.128,0-19.238,4.2-25.775,10.866
			c-14.003,14.311-13.787,37.178,0.56,51.267c5.761,5.656,12.739,8.734,20.18,9.774l14.037-13.62
			c-2.27-0.009-5.526-0.041-8.417-0.139c-8.141-0.277-13.1-3.402-15.88-6.152c-8.664-8.574-8.866-22.499-0.341-31.211
			c3.985-4.042,9.56-6.544,15.69-6.602c3.84-0.015,9.054,1.1,14.944,5.983c2.812,2.331,9.056,7.818,11.795,10.289
			c0.139,0.125,0.307,0.136,0.471,0.002l9.664-9.429c0.167-0.162,0.156-0.381-0.008-0.531C68.399,56.816,61.81,50.938,57.844,47.985
			"/>
		<path class="st2" d="M123.822,32.335C117.154,13.498,99.196,0,78.074,0C53.847,0,33.77,17.815,30.135,41.023
			c1.948-0.329,3.95-0.502,5.994-0.502c2.845-0.005,5.569,0.328,8.187,0.958c0.052,0.011,0.102,0.016,0.153,0.029
			C47.75,25.839,61.602,14.2,78.074,14.2c13.72,0,25.755,8.275,31.182,20c0.085,0.185,0.229,0.246,0.378,0.206
			c4.08-1.121,8.974-1.774,13.699-1.426C123.794,33.014,123.971,32.755,123.822,32.335"/>
	</g>
</g>
</svg>
