<?xml version="1.0" encoding="UTF-8"?>
<svg width="32px" height="32px" viewBox="0 0 32 32" version="1.1" xmlns="http://www.w3.org/2000/svg" xmlns:xlink="http://www.w3.org/1999/xlink">
    <title>数据备份-32px</title>
    <g id="数据备份-32px" stroke="none" stroke-width="1" fill="none" fill-rule="evenodd">
        <g id="编组">
            <rect id="Rectangle-Copy" fill="#0052D9" opacity="0" x="0" y="0" width="32" height="32"></rect>
            <path d="M14,2 C20.6,2 26,4.2 26,7 L26,7 L26,14.4 L24,13.5 L24,9.8 C21.9,11.1 18.2,12 14,12 C9.8,12 6.1,11.1 4,9.8 L4,9.8 L4,16.1 C4,17.5 7.5,18.7 12.1,19 L12.1,19 L12.1,21 C8.7,20.7 5.8,19.9 4,18.8 L4,18.8 L4,25 C4,26.5 7.5,27.7 12.1,27.9 L12.1,27.9 L15.7,29.9 C15.1,30 14.6,30 14,30 C7.4,30 2,27.8 2,25 L2,25 L2,7 C2,4.2 7.4,2 14,2 Z M26.8635144,16.112351 L30.5187402,19.1875121 L30.5187402,30 L17.3758831,30 L17.3758831,16.112351 L26.8635144,16.112351 Z M20.8908831,18.111351 L19.375,18.112 L19.375,28 L28.518,28 L28.518,20.118 L26.7318831,18.614351 L26.7321441,22.9 L20.8912166,22.9 L20.8908831,18.111351 Z M24.7318831,18.111351 L22.8908831,18.111351 L22.891,20.899 L24.732,20.899 L24.7318831,18.111351 Z M14.1,4 C8.5,4 4.1,5.3 4.1,7 C4.1,8.7 8.6,10 14.1,10 C19.2,10 24.1,8.7 24.1,7 C24.1,5.3 19.7,4 14.1,4 Z" id="形状结合" fill="#0052D9"></path>
        </g>
    </g>
</svg>