<?xml version="1.0" encoding="UTF-8"?>
<svg width="32px" height="32px" viewBox="0 0 32 32" version="1.1" xmlns="http://www.w3.org/2000/svg" xmlns:xlink="http://www.w3.org/1999/xlink">
    <title>DMC-32px-blue</title>
    <g id="DMC-32px-blue" stroke="none" stroke-width="1" fill="none" fill-rule="evenodd">
        <rect id="Rectangle-Copy" fill="#0052D9" opacity="0" x="0" y="0" width="32" height="32"></rect>
        <path d="M23,20 C24.6568542,20 26,21.3431458 26,23 C26,24.6568542 24.6568542,26 23,26 C22.5445208,26 22.1127496,25.898494 21.7260735,25.7168692 L19.9432822,27.5251195 C19.9803504,27.6773363 20,27.8363735 20,28 C20,29.1045695 19.1045695,30 18,30 C16.8954305,30 16,29.1045695 16,28 C16,26.8954305 16.8954305,26 18,26 C18.1939679,26 18.3814865,26.0276125 18.5588396,26.0791211 L20.3015596,24.312443 C20.1083858,23.9160088 20,23.4706618 20,23 C20,21.3431458 21.3431458,20 23,20 Z M24.9957682,16 C27.6845229,16 29.8775863,18.1223067 29.9911487,20.7831104 L29.9957682,21 L29.9957682,25 C29.9957682,27.6887547 27.8734615,29.8818181 25.2126579,29.9953805 L24.9957682,30 L21,30 L22,28 L24.9957682,28 C26.5934491,28 27.8994291,26.75108 27.9906755,25.1762728 L27.9957682,25 L27.9957682,21 C27.9957682,19.4023191 26.7468483,18.0963391 25.172041,18.0050927 L24.9957682,18 L17.999,17.999 L18,24 L16,25 L16,16 L24.9957682,16 Z M14,2 C20.4842105,2 25.810157,4.12348415 25.9950365,6.85319424 L26,7 L26,13 L24,13 L24,9.8 C21.9,11.1 18.2,12 14,12 C9.95,12 6.36492347,11.1631378 4.23107234,9.93773233 L4,9.8 L4,16 C4,17.4659091 7.43822314,18.6452996 11.9812793,18.9781579 L12.3,19 L12.3,21 C9.04782609,20.8086957 6.16162571,20.068431 4.25400674,18.9542369 L4,18.8 L4,25 L4.00554916,25.1018008 C4.16051489,26.5203066 7.54387561,27.6530405 11.9812793,27.9781579 L12.3,28 L12.3,29.9 C6.61153846,29.6057692 2.17355769,27.5801036 2.00496985,25.143777 L2,25 L2,7 C2,4.2 7.4,2 14,2 Z M14,4 C8.5,4 4,5.3 4,7 C4,8.7 8.5,10 14,10 C19.5,10 24,8.7 24,7 C24,5.3 19.5,4 14,4 Z" id="形状结合" fill="#0052D9"></path>
    </g>
</svg>