<?xml version="1.0" encoding="UTF-8"?>
<svg width="32px" height="32px" viewBox="0 0 32 32" version="1.1" xmlns="http://www.w3.org/2000/svg" xmlns:xlink="http://www.w3.org/1999/xlink">
    <title>TDSQLH-32px</title>
    <g id="TDSQLH-32px" stroke="none" stroke-width="1" fill="none" fill-rule="evenodd">
        <rect id="Rectangle-Copy" opacity="0" fill-rule="nonzero" x="0" y="0" width="32" height="32"></rect>
        <path d="M22,15 C26.4,15 30,18.6 30,23 C30,27.4 26.4,31 22,31 C17.6,31 14,27.4 14,23 C14,18.6 17.6,15 22,15 Z M14,2 C20.4842105,2 25.810157,4.12348415 25.9950365,6.85319424 L26,7 L26,12.5 C25.5,12.3333333 24.9305556,12.2361111 24.349537,12.150463 L24,12.1 L24,9.8 C21.9,11.1 18.2,12 14,12 C9.95,12 6.36492347,11.1631378 4.23107234,9.93773233 L4,9.8 L4,16 L4.00536081,16.0975333 C4.11943988,17.1346665 6.04510767,18.0655451 8.90707857,18.5871856 L9.45445673,18.6801235 L9.45445673,18.6801235 L10.0224973,18.763026 L10.0224973,18.763026 L10.6099182,18.8354494 C10.7093655,18.846622 10.8095669,18.8573395 10.9104956,18.8675927 L11.5245829,18.9234651 C11.6283143,18.9318238 11.7327197,18.9396996 11.8377723,18.9470833 L12.4756411,18.9854062 C12.5831758,18.9907845 12.6913043,18.9956522 12.8,19 C12.5,19.7 12.3,20.3 12.2,21 C8.94166667,20.8083333 6.05069444,20.065625 4.23119213,18.9479022 L4,18.8 L4,25 L4.00553827,25.1017116 C4.11600512,26.1145796 5.87003843,26.9974187 8.46145844,27.5161766 L8.99066874,27.6150044 L8.99066874,27.6150044 L9.54077613,27.7037073 C9.6341225,27.7176242 9.72827986,27.731102 9.82321836,27.7441319 L10.4019841,27.8168672 C10.5978714,27.8392745 10.7966443,27.8598211 10.998064,27.8784374 L11.6100248,27.9284263 L11.6100248,27.9284263 L12.2364332,27.9664179 C12.3419589,27.9717269 12.4480269,27.9765187 12.5546074,27.9807846 L13.2,28 L13.2,28 C13.5333333,28.5833333 13.8666667,29.1666667 14.2578704,29.6921296 L14.5,30 L14,30 C7.51578947,30 2.18984303,27.8765159 2.00496347,25.1468058 L2,25 L2,7 C2,4.2 7.4,2 14,2 Z M22,17 C18.7,17 16,19.7 16,23 C16,26.3 18.7,29 22,29 C25.3,29 28,26.3 28,23 C28,19.7 25.3,17 22,17 Z M21,20 L21,22 L23,22 L23,20 L25,20 L25,26 L23,26 L23,24 L21,24 L21,26 L19,26 L19,20 L21,20 Z M14.328772,4.0015528 L13.671228,4.0015528 L13.671228,4.0015528 L13.021556,4.0138456 C12.914208,4.0169008 12.807344,4.0204544 12.700992,4.0244992 L12.069248,4.0546048 C11.965056,4.0605856 11.861432,4.0670432 11.758404,4.0739704 L11.147612,4.1211112 C11.04708,4.129888 10.9472,4.13912 10.848,4.1488 L10.261184,4.2121984 C10.164816,4.2236416 10.069184,4.2355184 9.974316,4.2478216 L9.4145,4.3267 C8.6809,4.43854 7.99978,4.576748 7.385476,4.7376376 L6.9375,4.8625 L6.9375,4.8625 L6.515924,4.9955224 C4.9522,5.52064 4,6.218 4,7 C4,7.782 4.9522,8.47936 6.515924,9.0044776 L6.9375,9.1375 L6.9375,9.1375 L7.385476,9.2623624 C7.99978,9.423252 8.6809,9.56146 9.4145,9.6733 L9.974316,9.7521784 L9.974316,9.7521784 L10.552468,9.8208232 C10.65028,9.831392 10.7488,9.84152 10.848,9.8512 L11.451136,9.9038464 C11.654752,9.9195648 11.860864,9.9334336 12.069248,9.9453952 L12.700992,9.9755008 C12.807344,9.9795456 12.914208,9.9830992 13.021556,9.9861544 L13.671228,9.9984472 C13.7804,9.99948 13.89,10 14,10 L14.328772,9.9984472 L14.328772,9.9984472 L14.978444,9.9861544 C15.085792,9.9830992 15.192656,9.9795456 15.299008,9.9755008 L15.930752,9.9453952 C16.034944,9.9394144 16.138568,9.9329568 16.241596,9.9260296 L16.852388,9.8788888 C16.95292,9.870112 17.0528,9.86088 17.152,9.8512 L17.738816,9.7878016 C17.835184,9.7763584 17.930816,9.7644816 18.025684,9.7521784 L18.5855,9.6733 C19.3191,9.56146 20.00022,9.423252 20.614524,9.2623624 L21.0625,9.1375 L21.0625,9.1375 L21.484076,9.0044776 C23.0478,8.47936 24,7.782 24,7 C24,6.218 23.0478,5.52064 21.484076,4.9955224 L21.0625,4.8625 L21.0625,4.8625 L20.614524,4.7376376 C20.00022,4.576748 19.3191,4.43854 18.5855,4.3267 L18.025684,4.2478216 L18.025684,4.2478216 L17.447532,4.1791768 C17.34972,4.168608 17.2512,4.15848 17.152,4.1488 L16.548864,4.0961536 C16.345248,4.0804352 16.139136,4.0665664 15.930752,4.0546048 L15.299008,4.0244992 C15.192656,4.0204544 15.085792,4.0169008 14.978444,4.0138456 L14.328772,4.0015528 L14.328772,4.0015528 Z" id="形状" fill="#0052D9"></path>
    </g>
</svg>