<?xml version="1.0" encoding="UTF-8"?>
<svg width="32px" height="32px" viewBox="0 0 32 32" version="1.1" xmlns="http://www.w3.org/2000/svg" xmlns:xlink="http://www.w3.org/1999/xlink">
    <title>TDSQLHTLightning-32px</title>
    <g id="TDSQLHTLightning-32px" stroke="none" stroke-width="1" fill="none" fill-rule="evenodd">
        <rect id="Rectangle-Copy" opacity="0" fill-rule="nonzero" x="0" y="0" width="32" height="32"></rect>
        <path d="M24,18 L24,29.999 L26,28.0320375 L25.0105291,26.0316761 L28.999,24 L27.0395728,26.0316761 L27.9998984,28 L24,30 L22,30 L22,18 L24,18 Z M20,28 L20,30 L18,30 L18,28 L20,28 Z M16,2 C22.6,2 28,4.2 28,7 L28,16 L26,16 L26,9.8 C23.9,11.1 20.2,12 16,12 C11.8,12 8.1,11.1 6,9.8 L6,16 L6.00536081,16.0975333 C6.11943988,17.1346665 8.04510767,18.0655451 10.9070786,18.5871856 L11.4544567,18.6801235 L12.0224973,18.763026 L12.6099182,18.8354494 L12.9104956,18.8675927 L13.5245829,18.9234651 L13.8377723,18.9470833 L14.4756411,18.9854062 C14.5831758,18.9907845 15.8913043,18.9956522 16,19 L16,21 L14.8,21 C11.4,20.8 7.8,20 6,18.8 L6,25 L6.00553827,25.1017116 C6.12151824,26.1651292 7.95192412,27.0852152 10.6969775,27.5910966 L11.277708,27.6897626 C11.3765842,27.7051923 11.4764823,27.7201073 11.5773696,27.7344965 L12.1573823,27.8100892 L12.7571125,27.8740586 L13.0639616,27.9015455 L13.6908075,27.9472464 C13.9025685,27.9603823 14.1170689,27.9713957 14.3340901,27.9802127 L14.9924972,28 L16,28.0320375 L16,30 L15,29.983 L14.6937657,29.9710426 C14.2499445,29.9512017 13.8131983,29.9213608 13.3849141,29.8820482 L12.7490076,29.8160416 L12.1268346,29.7362238 L11.8212231,29.6912595 L11.2216007,29.5914679 C6.98159482,28.8298817 4,27.080585 4,25 L4,7 C4,4.2 9.4,2 16,2 Z M20,18 L20,26.0327026 L18,26.0327026 L18,18 L20,18 Z M28,18 L27.998873,23.0379734 L25.998873,24 L26,18 L28,18 Z M16.328772,4.0015528 L15.671228,4.0015528 L15.021556,4.0138456 L14.700992,4.0244992 L14.069248,4.0546048 C13.965056,4.0605856 13.861432,4.0670432 13.758404,4.0739704 L13.147612,4.1211112 C13.04708,4.129888 12.9472,4.13912 12.848,4.1488 L12.261184,4.2121984 C12.164816,4.2236416 12.069184,4.2355184 11.974316,4.2478216 L11.4145,4.3267 C10.6809,4.43854 9.99978,4.576748 9.385476,4.7376376 L8.9375,4.8625 L8.515924,4.9955224 C6.9522,5.52064 6,6.218 6,7 C6,7.782 6.9522,8.47936 8.515924,9.0044776 L8.9375,9.1375 L9.385476,9.2623624 C9.99978,9.423252 10.6809,9.56146 11.4145,9.6733 L11.974316,9.7521784 L12.552468,9.8208232 C12.65028,9.831392 12.7488,9.84152 12.848,9.8512 L13.451136,9.9038464 C13.654752,9.9195648 13.860864,9.9334336 14.069248,9.9453952 L14.700992,9.9755008 C14.807344,9.9795456 14.914208,9.9830992 15.021556,9.9861544 L15.671228,9.9984472 L16,10 L16.328772,9.9984472 L16.978444,9.9861544 L17.299008,9.9755008 L17.930752,9.9453952 C18.034944,9.9394144 18.138568,9.9329568 18.241596,9.9260296 L18.852388,9.8788888 C18.95292,9.870112 19.0528,9.86088 19.152,9.8512 L19.738816,9.7878016 C19.835184,9.7763584 19.930816,9.7644816 20.025684,9.7521784 L20.5855,9.6733 C21.3191,9.56146 22.00022,9.423252 22.614524,9.2623624 L23.0625,9.1375 L23.484076,9.0044776 C25.0478,8.47936 26,7.782 26,7 C26,6.218 25.0478,5.52064 23.484076,4.9955224 L23.0625,4.8625 L22.614524,4.7376376 C22.00022,4.576748 21.3191,4.43854 20.5855,4.3267 L20.025684,4.2478216 L19.447532,4.1791768 C19.34972,4.168608 19.2512,4.15848 19.152,4.1488 L18.548864,4.0961536 C18.345248,4.0804352 18.139136,4.0665664 17.930752,4.0546048 L17.299008,4.0244992 C17.192656,4.0204544 17.085792,4.0169008 16.978444,4.0138456 L16.328772,4.0015528 Z" id="形状" fill="#0052D9"></path>
    </g>
</svg>