<svg xmlns="http://www.w3.org/2000/svg" xmlns:xlink="http://www.w3.org/1999/xlink" fill="none" version="1.1" width="32" height="32" viewBox="0 0 32 32"><defs><clipPath id="master_svg0_23_03213"><rect x="0" y="0" width="32" height="32" rx="0"/></clipPath></defs><g clip-path="url(#master_svg0_23_03213)"><g><path d="M21.6999,4L20.3333,4Q20.2348,4,20.138199999999998,4.019215Q20.041600000000003,4.03843,19.950699999999998,4.076121Q19.8597,4.113812,19.7778,4.16853Q19.6959,4.223249,19.6262,4.292893Q19.5566,4.362537,19.5019,4.44443Q19.4471,4.526322,19.4095,4.617317Q19.3718,4.708311,19.3525,4.80491Q19.3333,4.9015086,19.3333,5L19.3333,6L12,6L12,5Q12,4.9015086,11.98078,4.80491Q11.96157,4.708311,11.92388,4.617317Q11.88619,4.526322,11.83147,4.44443Q11.77675,4.362537,11.70711,4.292893Q11.63746,4.223249,11.55557,4.16853Q11.47368,4.113812,11.38268,4.076121Q11.29169,4.03843,11.19509,4.019215Q11.09849,4,11,4L10.33333,4L6.33333,4Q5.366835,4,4.683417,4.683418Q4,5.366835,4,6.33333L4,28.3333Q4,29.2998,4.68342,29.9833Q5.366835,30.6667,6.33333,30.6667L25,30.6667Q25.9665,30.6667,26.6499,29.9833Q27.3333,29.2998,27.3333,28.3333L27.3333,6.33333Q27.3333,5.366834,26.6499,4.683421Q25.9665,4,25,4L21.6999,4ZM10,6L6.33333,6Q6,6,6,6.33333L6,28.3333Q6,28.4714,6.0976300000000005,28.569Q6.19526,28.6667,6.33333,28.6667L25,28.6667Q25.3333,28.6667,25.3333,28.3333L25.3333,6.33333Q25.3333,6,25,6L21.3333,6L21.3333,7Q21.3333,7.09849,21.3141,7.19509Q21.2949,7.29169,21.2572,7.382680000000001Q21.2195,7.47368,21.1648,7.5555699999999995Q21.1101,7.63746,21.0404,7.70711Q20.9708,7.77675,20.8889,7.8314699999999995Q20.807000000000002,7.88619,20.716,7.9238800000000005Q20.625,7.96157,20.528399999999998,7.98078Q20.431800000000003,8,20.3333,8L11,8Q10.90151,8,10.80491,7.98078Q10.70831,7.96157,10.61732,7.9238800000000005Q10.52632,7.88619,10.44443,7.8314699999999995Q10.36254,7.77675,10.29289,7.70711Q10.22325,7.63746,10.16853,7.5555699999999995Q10.11381,7.47368,10.07612,7.382680000000001Q10.03843,7.29169,10.019210000000001,7.19509Q10,7.09849,10,7L10,6Z" fill-rule="evenodd" fill="#0052D9" fill-opacity="1"/></g><g><path d="M10,7L10,3Q10,2.9015086,10.019214999999999,2.80491Q10.03843,2.708311,10.076121,2.617317Q10.113812,2.526322,10.16853,2.44443Q10.223249,2.362537,10.292893,2.292893Q10.362537,2.223249,10.44443,2.16853Q10.526322,2.1138120000000002,10.617317,2.076121Q10.708311,2.03843,10.80491,2.019215Q10.9015086,2,11,2L20.33333,2Q20.431820000000002,2,20.52842,2.019215Q20.62502,2.03843,20.71602,2.076121Q20.80701,2.1138120000000002,20.8889,2.16853Q20.97079,2.223249,21.040399999999998,2.292893Q21.1101,2.362537,21.1648,2.44443Q21.2195,2.526322,21.257199999999997,2.617317Q21.2949,2.708311,21.3141,2.80491Q21.3333,2.9015086,21.3333,3L21.3333,7Q21.3333,7.09849,21.3141,7.19509Q21.2949,7.29169,21.257199999999997,7.38268Q21.2195,7.47368,21.1648,7.55557Q21.1101,7.63746,21.040399999999998,7.70711Q20.97079,7.77675,20.8889,7.83147Q20.80701,7.88619,20.71602,7.92388Q20.62502,7.96157,20.52842,7.98078Q20.431820000000002,8,20.33333,8L11,8Q10.9015086,8,10.80491,7.98078Q10.708311,7.96157,10.617317,7.92388Q10.526322,7.88619,10.44443,7.83147Q10.362537,7.77675,10.292893,7.70711Q10.223249,7.63746,10.16853,7.55557Q10.113812,7.47368,10.076121,7.38268Q10.03843,7.29169,10.019214999999999,7.19509Q10,7.09849,10,7ZM12,4L12,6L19.33333,6L19.33333,4L12,4Z" fill="#0052D9" fill-opacity="1"/></g><g><path d="M10.66650390625,19L19.99983390625,19Q20.098323906250002,19,20.19492390625,18.980785Q20.29152390625,18.961570000000002,20.38252390625,18.923879Q20.47351390625,18.886188,20.55540390625,18.83147Q20.63729390625,18.776751,20.706903906249998,18.707107Q20.77660390625,18.637463,20.83130390625,18.55557Q20.88600390625,18.473678,20.923703906249997,18.382683Q20.96140390625,18.291689,20.98060390625,18.19509Q20.99980390625,18.0984914,20.99980390625,18Q20.99980390625,17.9015086,20.98060390625,17.80491Q20.96140390625,17.708311,20.923703906249997,17.617317Q20.88600390625,17.526322,20.83130390625,17.44443Q20.77660390625,17.362537,20.706903906249998,17.292893Q20.63729390625,17.223249,20.55540390625,17.16853Q20.47351390625,17.113812,20.38252390625,17.076121Q20.29152390625,17.038429999999998,20.19492390625,17.019215Q20.098323906250002,17,19.99983390625,17L10.66650390625,17Q10.56801250625,17,10.47141390625,17.019215Q10.37481490625,17.038429999999998,10.28382090625,17.076121Q10.19282590625,17.113812,10.11093390625,17.16853Q10.02904090625,17.223249,9.95939690625,17.292893Q9.88975290625,17.362537,9.83503390625,17.44443Q9.78031590625,17.526322,9.74262490625,17.617317Q9.70493390625,17.708311,9.685718906249999,17.80491Q9.66650390625,17.9015086,9.66650390625,18Q9.66650390625,18.0984914,9.685718906249999,18.19509Q9.70493390625,18.291689,9.74262490625,18.382683Q9.78031590625,18.473678,9.83503390625,18.55557Q9.88975290625,18.637463,9.95939690625,18.707107Q10.02904090625,18.776751,10.11093390625,18.83147Q10.19282590625,18.886188,10.28382090625,18.923879Q10.37481490625,18.961570000000002,10.47141390625,18.980785Q10.56801250625,19,10.66650390625,19Z" fill-rule="evenodd" fill="#0052D9" fill-opacity="1"/></g><g><path d="M10.66650390625,14L19.99983390625,14Q20.098323906250002,14,20.19492390625,13.980785000000001Q20.29152390625,13.96157,20.38252390625,13.923879Q20.47351390625,13.886188,20.55540390625,13.83147Q20.63729390625,13.776751,20.706903906249998,13.707107Q20.77660390625,13.637463,20.83130390625,13.55557Q20.88600390625,13.473678,20.923703906249997,13.382683Q20.96140390625,13.291689,20.98060390625,13.19509Q20.99980390625,13.0984914,20.99980390625,13Q20.99980390625,12.9015086,20.98060390625,12.80491Q20.96140390625,12.708311,20.923703906249997,12.617317Q20.88600390625,12.526322,20.83130390625,12.44443Q20.77660390625,12.362537,20.706903906249998,12.292893Q20.63729390625,12.223249,20.55540390625,12.16853Q20.47351390625,12.113812,20.38252390625,12.076121Q20.29152390625,12.03843,20.19492390625,12.019214999999999Q20.098323906250002,12,19.99983390625,12L10.66650390625,12Q10.56801250625,12,10.47141390625,12.019214999999999Q10.37481490625,12.03843,10.28382090625,12.076121Q10.19282590625,12.113812,10.11093390625,12.16853Q10.02904090625,12.223249,9.95939690625,12.292893Q9.88975290625,12.362537,9.83503390625,12.44443Q9.78031590625,12.526322,9.74262490625,12.617317Q9.70493390625,12.708311,9.685718906249999,12.80491Q9.66650390625,12.9015086,9.66650390625,13Q9.66650390625,13.0984914,9.685718906249999,13.19509Q9.70493390625,13.291689,9.74262490625,13.382683Q9.78031590625,13.473678,9.83503390625,13.55557Q9.88975290625,13.637463,9.95939690625,13.707107Q10.02904090625,13.776751,10.11093390625,13.83147Q10.19282590625,13.886188,10.28382090625,13.923879Q10.37481490625,13.96157,10.47141390625,13.980785000000001Q10.56801250625,14,10.66650390625,14Z" fill-rule="evenodd" fill="#0052D9" fill-opacity="1"/></g><g><path d="M10.66650390625,24.333343505859375L15.99983390625,24.333343505859375Q16.098323906250002,24.333343505859375,16.19492390625,24.314128505859376Q16.29152390625,24.294913505859377,16.38252390625,24.257222505859374Q16.47351390625,24.219531505859376,16.55540390625,24.164813505859374Q16.63730390625,24.110094505859376,16.70694390625,24.040450505859376Q16.77658390625,23.970806505859375,16.83130390625,23.888913505859374Q16.88602390625,23.807021505859375,16.92371390625,23.716026505859375Q16.96140390625,23.625032505859377,16.98062390625,23.528433505859375Q16.99983390625,23.431834905859375,16.99983390625,23.333343505859375Q16.99983390625,23.234852105859375,16.98062390625,23.138253505859375Q16.96140390625,23.041654505859373,16.92371390625,22.950660505859375Q16.88602390625,22.859665505859375,16.83130390625,22.777773505859376Q16.77658390625,22.695880505859375,16.70694390625,22.626236505859374Q16.63730390625,22.556592505859374,16.55540390625,22.501873505859376Q16.47351390625,22.447155505859374,16.38252390625,22.409464505859376Q16.29152390625,22.371773505859373,16.19492390625,22.352558505859374Q16.098323906250002,22.333343505859375,15.99983390625,22.333343505859375L10.66650390625,22.333343505859375Q10.56801250625,22.333343505859375,10.47141390625,22.352558505859374Q10.37481490625,22.371773505859373,10.28382090625,22.409464505859376Q10.19282590625,22.447155505859374,10.11093390625,22.501873505859376Q10.02904090625,22.556592505859374,9.95939690625,22.626236505859374Q9.88975290625,22.695880505859375,9.83503390625,22.777773505859376Q9.78031590625,22.859665505859375,9.74262490625,22.950660505859375Q9.70493390625,23.041654505859373,9.685718906249999,23.138253505859375Q9.66650390625,23.234852105859375,9.66650390625,23.333343505859375Q9.66650390625,23.431834905859375,9.685718906249999,23.528433505859375Q9.70493390625,23.625032505859377,9.74262490625,23.716026505859375Q9.78031590625,23.807021505859375,9.83503390625,23.888913505859374Q9.88975290625,23.970806505859375,9.95939690625,24.040450505859376Q10.02904090625,24.110094505859376,10.11093390625,24.164813505859374Q10.19282590625,24.219531505859376,10.28382090625,24.257222505859374Q10.37481490625,24.294913505859377,10.47141390625,24.314128505859376Q10.56801250625,24.333343505859375,10.66650390625,24.333343505859375Z" fill-rule="evenodd" fill="#0052D9" fill-opacity="1"/></g></g></svg>