<svg width="32" height="32" viewBox="0 0 32 32" fill="none" xmlns="http://www.w3.org/2000/svg">
<path fill-rule="evenodd" clip-rule="evenodd" d="M11 1H12H23H23.4142L23.7071 1.29289L28.7071 6.29289L29 6.58579V7V21V22H28H23V20H27V9H22H21V8V3H13V8H11V2V1ZM23 3.41421V7H26.5858L23 3.41421ZM4 10H3V11V30V31H4H20H21V30V15.3182V14.8955L20.6968 14.601L16.2524 10.2828L15.9614 10H15.5556H4ZM5 29V12H15.1498L19 15.7409V29H5ZM8.79412 19.7059C8.79412 18.2114 10.0056 17 11.5 17C12.9944 17 14.2059 18.2114 14.2059 19.7059C14.2059 21.2003 12.9944 22.4117 11.5 22.4117C10.0056 22.4117 8.79412 21.2003 8.79412 19.7059ZM11.5 15C8.90101 15 6.79412 17.1069 6.79412 19.7059C6.79412 22.3048 8.90101 24.4117 11.5 24.4117C12.4376 24.4117 13.3112 24.1375 14.0449 23.6649L16.087 25.7071L17.5012 24.2929L15.4591 22.2507C15.9317 21.517 16.2059 20.6435 16.2059 19.7059C16.2059 17.1069 14.099 15 11.5 15Z" fill="#0052D9"/>
</svg>
