<svg   width="32px"   height="32px"  viewBox="0 0 32 32" version="1.1" xmlns="http://www.w3.org/2000/svg" xmlns:xlink="http://www.w3.org/1999/xlink">
    <title>腾讯文档企业版 TDE-32px</title>
    <g id="腾讯文档企业版-TDE-32px" stroke="none" stroke-width="1" fill="none" fill-rule="evenodd">
        <g id="编组" fill-rule="nonzero">
            <path d="M27.8319245,13.8650607 L28.8415763,8 L24.5857404,8 C23.6176954,8 23.0272855,7 23.0272855,6.18349363 L23.0272855,4 L17.6245185,4 L27.8319245,13.8650607 Z M27.6365482,15 L21.1026555,15 L18.948123,27 L25.5707858,27 L27.6365482,15 Z M12.4836681,27 L14.6357356,15 L10.5669808,15 L6.15362011,10.2433527 L3.26891016,27 L12.4836681,27 Z M6.36766722,9 L15.5116206,9 L16.4101165,4 L7.22843307,4 L6.36766722,9 Z M25.0145874,4 L25.0145874,6 L27.0095825,6 L25.0145874,4 Z M25.256294,2 L31,7.25060786 L27.3356575,28.5367487 C27.28943,28.8045899 27.0621655,29 26.7965447,29 L1.54757675,29 C1.2072423,29 0.949367745,28.6853218 1.008464,28.3419784 L5.46354688,2.46337926 C5.50964945,2.19528217 5.73703884,2 6.00265964,2 L25.256294,2 Z M17.8953078,7.04310771 L17.1842575,11 L9.58393355,11 L11.4395938,13 L17.0263215,13 L14.5155761,27 L16.9161425,27 L19.4297637,13 L21.1026555,13 L24.05913,13.000202 L17.8953078,7.04310771 Z" id="形状结合" fill="#0052D9"></path>
            <rect id="Rectangle-Copy" fill="#0052D9" opacity="0" x="0" y="0" width="32" height="32"></rect>
        </g>
    </g>
</svg>