<svg xmlns="http://www.w3.org/2000/svg" xmlns:xlink="http://www.w3.org/1999/xlink" fill="none" version="1.1" width="32" height="32" viewBox="0 0 32 32"><defs><clipPath id="master_svg0_23_02375"><rect x="0" y="0" width="32" height="32" rx="0"/></clipPath></defs><g clip-path="url(#master_svg0_23_02375)"><g><path d="M1,16Q1,13.1388,2.0531755,10.47858Q3.1967,7.5901,5.3934,5.3934Q7.5901,3.1967,10.47858,2.0531755Q13.1388,1,16,1Q18.8612,1,21.5214,2.0531755Q24.4099,3.1967,26.6066,5.3934Q28.8033,7.59009,29.9468,10.47858Q31,13.1388,31,16Q31,18.8612,29.9468,21.5214Q28.8033,24.4099,26.6066,26.6066Q24.4099,28.8033,21.5214,29.9468Q18.8612,31,16,31Q13.1388,31,10.47858,29.9468Q7.59009,28.8033,5.3934,26.6066Q3.1967,24.4099,2.0531755,21.5214Q1,18.8612,1,16ZM3,16Q3,18.4797,3.91275,20.7852Q4.9038,23.2886,6.80761,25.1924Q8.71141,27.0962,11.21477,28.0872Q13.5203,29,16,29Q18.4797,29,20.7852,28.0872Q23.2886,27.0962,25.1924,25.1924Q27.0962,23.2886,28.0872,20.7852Q29,18.4797,29,16Q29,13.5203,28.0872,11.21477Q27.0962,8.71141,25.1924,6.80761Q23.2886,4.9038,20.7852,3.91275Q18.4797,3,16,3Q13.5203,3,11.21477,3.91275Q8.71142,4.90381,6.80761,6.80761Q4.90381,8.71142,3.91275,11.21477Q3,13.5203,3,16Z" fill="#0052D9" fill-opacity="1"/></g><g><path d="M11.98992,9.641653L11.98995,9.641421Q11.990359999999999,9.63856,11.99075,9.635695Q12,9.5681629,12,9.5Q12,9.4104556,11.98409,9.322336Q11.96818,9.234216,11.936869999999999,9.150325Q11.90556,9.066433,11.85984,8.989439Q11.814119999999999,8.912445,11.75545,8.844798Q11.69678,8.777152,11.62703,8.721005Q11.55728,8.664858,11.47866,8.621997Q11.40004,8.579136,11.31505,8.550925Q11.23007,8.522714,11.14142,8.510051Q11.13856,8.509642,11.1357,8.509249Q11.06816,8.5,11,8.5Q10.91046,8.5,10.82234,8.515909Q10.73422,8.531818,10.65032,8.563129Q10.56643,8.594441,10.48944,8.640158Q10.41245,8.685876,10.3448,8.744546Q10.27715,8.803216,10.221,8.87297Q10.164860000000001,8.942725,10.122,9.021345Q10.07914,9.099966,10.05092,9.18495Q10.02271,9.269934,10.01005,9.358579L10.01002,9.35881L8.010087,23.3583L8.010051,23.3586Q8,23.4289,8,23.5L8.000005999999999,23.5034Q8.00056,23.6648,8.051861,23.8179Q8.103162,23.9709,8.2,24.1Q8.319347,24.2591,8.490506,24.360500000000002Q8.661665,24.4618,8.858579,24.4899Q8.9289322,24.5,9,24.5Q9.0205456,24.5,9.0410738,24.499200000000002Q9.127957,24.4956,9.21292,24.4771Q9.297882,24.4586,9.378374,24.4257Q9.458865,24.3928,9.53247,24.3464Q9.606074,24.3001,9.670581,24.241799999999998Q9.735089,24.183500000000002,9.788563,24.115000000000002Q9.842037,24.0464,9.882873,23.9696Q9.923709,23.8928,9.95068,23.810200000000002Q9.977651999999999,23.7275,9.989949,23.6414L9.989986,23.641199999999998L11.98992,9.641653Z" fill-rule="evenodd" fill="#0052D9" fill-opacity="1"/></g><g><path d="M17.99781,6.0865216Q16.29629,5.392607,14.441278,5.501726Q14.346657,5.507292,14.254766,5.530536Q14.162876,5.55378,14.076989,5.593876Q13.991102,5.633971,13.914278,5.689488Q13.837453,5.745006,13.772428,5.813969Q13.707403,5.882931,13.656492,5.9628833Q13.605582,6.042835,13.570599,6.130928Q13.535617,6.219021,13.517808,6.312118Q13.5,6.405215,13.5,6.5L13.500004,6.5028880000000004Q13.500085,6.530829,13.501726,6.558722Q13.507291,6.653343,13.530536,6.745234Q13.55378,6.837124,13.593876,6.923011Q13.633971,7.0089,13.689488,7.08572Q13.745006,7.1625499999999995,13.813969,7.22757Q13.882931,7.2926,13.962883,7.34351Q14.042835,7.39442,14.130928,7.4294Q14.219021,7.46438,14.312118,7.48219Q14.4052151,7.5,14.5,7.5L14.50288828,7.5Q14.5308292,7.4999199999999995,14.558722,7.49827Q15.96099,7.41579,17.24256,7.93844Q18.47298,8.44023,19.39371,9.41308Q20.31444,10.38594,20.747790000000002,11.64209Q21.19915,12.950479999999999,21.03965,14.34608L20.0065,23.3862L20.00647,23.3865Q20,23.443,20,23.5Q20,23.5158,20.0005,23.5315Q20.005589999999998,23.6928,20.06117,23.8444Q20.11675,23.9959,20.21718,24.1222Q20.34095,24.278,20.51489,24.3745Q20.68883,24.4709,20.88645,24.4935Q20.94304,24.5,21,24.5Q21.03461,24.5,21.06914,24.4976Q21.15588,24.4916,21.24029,24.4707Q21.3247,24.4498,21.40424,24.4147Q21.48377,24.3795,21.55605,24.3312Q21.628320000000002,24.2828,21.69116,24.2227Q21.75401,24.1626,21.80553,24.0926Q21.85706,24.0225,21.89572,23.9446Q21.93438,23.8667,21.95902,23.7833Q21.98366,23.6999,21.99353,23.6135L21.993560000000002,23.6133L23.026719999999997,14.57317Q23.23771,12.72697,22.63845,10.98986Q22.064140000000002,9.325099999999999,20.8463,8.03831Q19.62846,6.75153,17.99781,6.0865216Z" fill-rule="evenodd" fill="#0052D9" fill-opacity="1"/></g><g><path d="M11,15L21,15Q21.0985,15,21.1951,15.019214999999999Q21.2917,15.03843,21.3827,15.076121Q21.4737,15.113812,21.5556,15.16853Q21.6375,15.223249,21.7071,15.292893Q21.776699999999998,15.362537,21.8315,15.44443Q21.886200000000002,15.526322,21.9239,15.617317Q21.9616,15.708311,21.980800000000002,15.80491Q22,15.9015086,22,16Q22,16.0984914,21.980800000000002,16.19509Q21.9616,16.291689,21.9239,16.382683Q21.886200000000002,16.473678,21.8315,16.55557Q21.776699999999998,16.637463,21.7071,16.707107Q21.6375,16.776751,21.5556,16.83147Q21.4737,16.886188,21.3827,16.923879Q21.2917,16.961570000000002,21.1951,16.980785Q21.0985,17,21,17L11,17Q10.9015086,17,10.80491,16.980785Q10.708311,16.961570000000002,10.617317,16.923879Q10.526322,16.886188,10.44443,16.83147Q10.362537,16.776751,10.292893,16.707107Q10.223249,16.637463,10.16853,16.55557Q10.113812,16.473678,10.076121,16.382683Q10.03843,16.291689,10.019214999999999,16.19509Q10,16.0984914,10,16Q10,15.9015086,10.019214999999999,15.80491Q10.03843,15.708311,10.076121,15.617317Q10.113812,15.526322,10.16853,15.44443Q10.223249,15.362537,10.292893,15.292893Q10.362537,15.223249,10.44443,15.16853Q10.526322,15.113812,10.617317,15.076121Q10.708311,15.03843,10.80491,15.019214999999999Q10.9015086,15,11,15Z" fill-rule="evenodd" fill="#0052D9" fill-opacity="1"/></g></g></svg>