<?xml version="1.0" encoding="UTF-8"?>
<svg width="32px" height="32px" viewBox="0 0 32 32" version="1.1" xmlns="http://www.w3.org/2000/svg" xmlns:xlink="http://www.w3.org/1999/xlink">
    <title>一键登录 蓝色-32px</title>
    <g id="一键登录-蓝色-32px" stroke="none" stroke-width="1" fill="none" fill-rule="evenodd">
        <g id="一键登录" transform="translate(5.000000, 1.000000)" fill="#0052D9" fill-rule="nonzero">
            <path d="M22,0 L22,24 L20,24 L20,2 L2,2 L2,28 L22,28 L22,30 L0,30 L0,0 L22,0 Z M13,22 L13,24 L9,24 L9,22 L13,22 Z M9.82842712,9.82842712 L18.3137085,12.6568542 L14.0710678,14.0710678 L12.6568542,18.3137085 L9.82842712,9.82842712 Z M11,4 C14.7551223,4 17.8196406,6.95682698 17.9923239,10.6692498 L15.8937731,9.96989074 C15.4189378,7.70266835 13.4083086,6 11,6 C8.23857625,6 6,8.23857625 6,11 C6,13.4083086 7.70266835,15.4189378 9.96989074,15.8937731 L10.6692498,17.9923239 C6.95682698,17.8196406 4,14.7551223 4,11 C4,7.13400675 7.13400675,4 11,4 Z" id="形状结合"></path>
        </g>
        <rect id="Rectangle-Copy" fill="#0052D9" fill-rule="nonzero" opacity="0" x="0" y="0" width="32" height="32"></rect>
    </g>
</svg>