<svg xmlns="http://www.w3.org/2000/svg" xmlns:xlink="http://www.w3.org/1999/xlink" fill="none" version="1.1" width="32" height="32" viewBox="0 0 32 32"><defs><clipPath id="master_svg0_23_03385"><rect x="0" y="0" width="32" height="32" rx="0"/></clipPath></defs><g clip-path="url(#master_svg0_23_03385)"><g></g><g></g><g><path d="M27,15L27,20Q27,20.0985,27.0192,20.1951Q27.0384,20.2917,27.0761,20.3827Q27.1138,20.4737,27.1685,20.5556Q27.2232,20.6375,27.2929,20.7071Q27.3625,20.7767,27.4444,20.8315Q27.5263,20.8862,27.6173,20.9239Q27.7083,20.9616,27.8049,20.9808Q27.9015,21,28,21Q28.0985,21,28.1951,20.9808Q28.2917,20.9616,28.3827,20.9239Q28.4737,20.8862,28.5556,20.8315Q28.6375,20.7767,28.7071,20.7071Q28.7767,20.6375,28.8315,20.5556Q28.8862,20.4737,28.9239,20.3827Q28.9616,20.2917,28.9808,20.1951Q29,20.0985,29,20L29,15Q29,12.35583,27.978,9.93951Q26.9912,7.60638,25.1924,5.80761Q23.3936,4.00884,21.0605,3.0220153Q18.644199999999998,2.000002,16,2.000002Q13.35582,2,10.93951,3.022015Q8.60638,4.00884,6.80761,5.80761Q5.00884,7.60638,4.0220153,9.93951Q3.000002,12.35582,3.000002,15L3,19Q3,19.0985,3.019215,19.1951Q3.03843,19.2917,3.076121,19.3827Q3.1138120000000002,19.4737,3.16853,19.5556Q3.223249,19.6375,3.292893,19.7071Q3.362537,19.7767,3.44443,19.8315Q3.526322,19.8862,3.617317,19.9239Q3.708311,19.9616,3.80491,19.9808Q3.9015086,20,4,20Q4.0984914,20,4.19509,19.9808Q4.291689,19.9616,4.382683,19.9239Q4.473678,19.8862,4.55557,19.8315Q4.637463,19.7767,4.707107,19.7071Q4.776751,19.6375,4.83147,19.5556Q4.886188,19.4737,4.923879,19.3827Q4.96157,19.2917,4.980785,19.1951Q5,19.0985,5,19L5,15Q5,12.76139,5.86402,10.71861Q6.6988900000000005,8.74476,8.22183,7.22183Q9.74476,5.6988900000000005,11.71861,4.86402Q13.76139,4,16,4Q18.238599999999998,4,20.2814,4.86402Q22.2552,5.6988900000000005,23.7782,7.22183Q25.3011,8.74475,26.136,10.71861Q27,12.7614,27,15Z" fill-rule="evenodd" fill="#0052D9" fill-opacity="1"/></g><g><path d="M3,21L3,17Q3,15.34315,4.171573,14.171573Q5.34315,13,7,13Q8.65685,13,9.82843,14.171573Q11,15.34315,11,17L11,21Q11,22.65685,9.82843,23.82843Q8.65685,25,7,25Q5.34315,25,4.171573,23.82843Q3,22.65685,3,21ZM5,21Q5,21.82843,5.58579,22.41421Q6.17157,23,7,23Q7.82843,23,8.41421,22.41421Q9,21.82843,9,21L9,17Q9,16.17157,8.41421,15.58579Q7.82843,15,7,15Q6.17157,15,5.58579,15.58579Q5,16.17157,5,17L5,21Z" fill="#0052D9" fill-opacity="1"/></g><g><path d="M21,21L21,17Q21,15.34315,22.171573,14.171573Q23.34315,13,25,13Q26.65685,13,27.82843,14.171573Q29,15.34315,29,17L29,21Q29,22.65685,27.82843,23.82843Q26.65685,25,25,25Q23.34315,25,22.171573,23.82843Q21,22.65685,21,21ZM23,21Q23,21.82843,23.58579,22.41421Q24.17157,23,25,23Q25.82843,23,26.41421,22.41421Q27,21.82843,27,21L27,17Q27,16.17157,26.41421,15.58579Q25.82843,15,25,15Q24.17157,15,23.58579,15.58579Q23,16.17157,23,17L23,21Z" fill="#0052D9" fill-opacity="1"/></g><g><path d="M16,26Q15.9015086,26,15.80491,26.019215Q15.708311,26.038429999999998,15.617317,26.076121Q15.526322,26.113812,15.44443,26.16853Q15.362537,26.223249,15.292893,26.292893Q15.223249,26.362537,15.16853,26.44443Q15.113812,26.526322,15.076121,26.617317Q15.03843,26.708311,15.019214999999999,26.80491Q15,26.9015086,15,27L15,29Q15,29.098489999999998,15.019214999999999,29.19509Q15.03843,29.29169,15.076121,29.38268Q15.113812,29.47368,15.16853,29.55557Q15.223249,29.63746,15.292893,29.70711Q15.362537,29.77675,15.44443,29.83147Q15.526322,29.88619,15.617317,29.92388Q15.708311,29.961570000000002,15.80491,29.98078Q15.9015086,30,16,30Q16.0984914,30,16.19509,29.98078Q16.291689,29.961570000000002,16.382683,29.92388Q16.473678,29.88619,16.55557,29.83147Q16.637463,29.77675,16.707107,29.70711Q16.776751,29.63746,16.83147,29.55557Q16.886188,29.47368,16.923879,29.38268Q16.961570000000002,29.29169,16.980785,29.19509Q17,29.098489999999998,17,29L17,27Q17,26.9015086,16.980785,26.80491Q16.961570000000002,26.708311,16.923879,26.617317Q16.886188,26.526322,16.83147,26.44443Q16.776751,26.362537,16.707107,26.292893Q16.637463,26.223249,16.55557,26.16853Q16.473678,26.113812,16.382683,26.076121Q16.291689,26.038429999999998,16.19509,26.019215Q16.0984914,26,16,26Z" fill-rule="evenodd" fill="#0052D9" fill-opacity="1"/></g><g><path d="M18.94737,28L16,28Q15.9015086,28,15.80491,28.01921Q15.708311,28.038429999999998,15.617317,28.07612Q15.526322,28.11381,15.44443,28.16853Q15.362537,28.22325,15.292893,28.29289Q15.223249,28.36254,15.16853,28.44443Q15.113812,28.52632,15.076121,28.61732Q15.03843,28.70831,15.019214999999999,28.80491Q15,28.901510000000002,15,29Q15,29.098489999999998,15.019214999999999,29.19509Q15.03843,29.29169,15.076121,29.38268Q15.113812,29.47368,15.16853,29.55557Q15.223249,29.63746,15.292893,29.70711Q15.362537,29.77675,15.44443,29.83147Q15.526322,29.88619,15.617317,29.92388Q15.708311,29.961570000000002,15.80491,29.98078Q15.9015086,30,16,30L18.94737,30Q21.45139,30,23.22351,28.24633Q25,26.48835,25,24Q25,23.9015086,24.98078,23.80491Q24.961570000000002,23.708311,24.92388,23.617317Q24.88619,23.526322,24.83147,23.44443Q24.77675,23.362537,24.70711,23.292893Q24.63746,23.223249,24.55557,23.16853Q24.47368,23.113812,24.38268,23.076121Q24.29169,23.038429999999998,24.19509,23.019215Q24.098489999999998,23,24,23Q23.901510000000002,23,23.80491,23.019215Q23.70831,23.038429999999998,23.61732,23.076121Q23.52632,23.113812,23.44443,23.16853Q23.36254,23.223249,23.29289,23.292893Q23.22325,23.362537,23.16853,23.44443Q23.11381,23.526322,23.07612,23.617317Q23.038429999999998,23.708311,23.01921,23.80491Q23,23.9015086,23,24Q23,25.65378,21.81672,26.82473Q20.629089999999998,28,18.94737,28Z" fill-rule="evenodd" fill="#0052D9" fill-opacity="1"/></g></g></svg>