<svg xmlns="http://www.w3.org/2000/svg" xmlns:xlink="http://www.w3.org/1999/xlink" fill="none" version="1.1" width="32" height="32" viewBox="0 0 32 32"><defs><clipPath id="master_svg0_23_02757"><rect x="0" y="0" width="32" height="32" rx="0"/></clipPath></defs><g clip-path="url(#master_svg0_23_02757)"><g><path d="M1,16Q1,13.1388,2.0531755,10.47858Q3.1967,7.5901,5.3934,5.3934Q7.5901,3.1967,10.47858,2.0531755Q13.1388,1,16,1Q18.8612,1,21.5214,2.0531755Q24.4099,3.1967,26.6066,5.3934Q28.8033,7.59009,29.9468,10.47858Q31,13.1388,31,16Q31,18.8612,29.9468,21.5214Q28.8033,24.4099,26.6066,26.6066Q24.4099,28.8033,21.5214,29.9468Q18.8612,31,16,31Q13.1388,31,10.47858,29.9468Q7.59009,28.8033,5.3934,26.6066Q3.1967,24.4099,2.0531755,21.5214Q1,18.8612,1,16ZM3,16Q3,18.4797,3.91275,20.7852Q4.9038,23.2886,6.80761,25.1924Q8.71141,27.0962,11.21477,28.0872Q13.5203,29,16,29Q18.4797,29,20.7852,28.0872Q23.2886,27.0962,25.1924,25.1924Q27.0962,23.2886,28.0872,20.7852Q29,18.4797,29,16Q29,13.5203,28.0872,11.21477Q27.0962,8.71141,25.1924,6.80761Q23.2886,4.9038,20.7852,3.91275Q18.4797,3,16,3Q13.5203,3,11.21477,3.91275Q8.71142,4.90381,6.80761,6.80761Q4.90381,8.71142,3.91275,11.21477Q3,13.5203,3,16Z" fill="#0052D9" fill-opacity="1"/></g><g><path d="M9.875,24L15,24Q15.09849,24,15.19509,23.980800000000002Q15.29169,23.9616,15.38268,23.9239Q15.47368,23.886200000000002,15.55557,23.8315Q15.63746,23.776699999999998,15.70711,23.7071Q15.77675,23.6375,15.83147,23.5556Q15.88619,23.4737,15.92388,23.3827Q15.96157,23.2917,15.98078,23.1951Q16,23.0985,16,23Q16,22.9015,15.98078,22.8049Q15.96157,22.7083,15.92388,22.6173Q15.88619,22.5263,15.83147,22.4444Q15.77675,22.3625,15.70711,22.2929Q15.63746,22.2232,15.55557,22.1685Q15.47368,22.113799999999998,15.38268,22.0761Q15.29169,22.0384,15.19509,22.019199999999998Q15.09849,22,15,22L10,22L10,10L15,10Q15.09849,10,15.19509,9.980785000000001Q15.29169,9.96157,15.38268,9.923879Q15.47368,9.886188,15.55557,9.83147Q15.63746,9.776751,15.70711,9.707107Q15.77675,9.637463,15.83147,9.55557Q15.88619,9.473678,15.92388,9.382683Q15.96157,9.291689,15.98078,9.19509Q16,9.0984914,16,9Q16,8.9015086,15.98078,8.80491Q15.96157,8.708311,15.92388,8.617317Q15.88619,8.526322,15.83147,8.44443Q15.77675,8.362537,15.70711,8.292893Q15.63746,8.223249,15.55557,8.16853Q15.47368,8.113812,15.38268,8.076121Q15.29169,8.03843,15.19509,8.019214999999999Q15.09849,8,15,8L9.875,8Q9.0983496,8,8.549175,8.549175Q8,9.0983496,8,9.875L8,22.125Q8,22.901699999999998,8.549175,23.4508Q9.0983497,24,9.875,24Z" fill-rule="evenodd" fill="#0052D9" fill-opacity="1"/></g><g><path d="M9,17L15,17Q15.09849,17,15.19509,16.980785Q15.29169,16.961570000000002,15.38268,16.923879Q15.47368,16.886188,15.55557,16.83147Q15.63746,16.776751,15.70711,16.707107Q15.77675,16.637463,15.83147,16.55557Q15.88619,16.473678,15.92388,16.382683Q15.96157,16.291689,15.98078,16.19509Q16,16.0984914,16,16Q16,15.9015086,15.98078,15.80491Q15.96157,15.708311,15.92388,15.617317Q15.88619,15.526322,15.83147,15.44443Q15.77675,15.362537,15.70711,15.292893Q15.63746,15.223249,15.55557,15.16853Q15.47368,15.113812,15.38268,15.076121Q15.29169,15.03843,15.19509,15.019214999999999Q15.09849,15,15,15L9,15Q8.9015086,15,8.80491,15.019214999999999Q8.708311,15.03843,8.617317,15.076121Q8.526322,15.113812,8.44443,15.16853Q8.362537,15.223249,8.292893,15.292893Q8.223249,15.362537,8.16853,15.44443Q8.113812,15.526322,8.076121,15.617317Q8.03843,15.708311,8.019214999999999,15.80491Q8,15.9015086,8,16Q8,16.0984914,8.019214999999999,16.19509Q8.03843,16.291689,8.076121,16.382683Q8.113812,16.473678,8.16853,16.55557Q8.223249,16.637463,8.292893,16.707107Q8.362537,16.776751,8.44443,16.83147Q8.526322,16.886188,8.617317,16.923879Q8.708311,16.961570000000002,8.80491,16.980785Q8.9015086,17,9,17Z" fill-rule="evenodd" fill="#0052D9" fill-opacity="1"/></g><g><path d="M22,21.235300000000002L21.33333,21.235300000000002Q21.24159,21.235300000000002,21.15137,21.252000000000002Q21.06587,21.2678,20.98438,21.2982Q20.90288,21.3285,20.82786,21.372500000000002Q20.75283,21.4164,20.68651,21.4727Q20.62019,21.5289,20.56458,21.5957Q20.50897,21.662599999999998,20.46573,21.738Q20.42249,21.813499999999998,20.39292,21.8953Q20.36335,21.977,20.34834,22.0627Q20.33333,22.1483,20.33333,22.235300000000002Q20.33333,22.3338,20.35255,22.4304Q20.371760000000002,22.527,20.40945,22.618000000000002Q20.44714,22.709,20.50186,22.7909Q20.55658,22.872799999999998,20.62623,22.9424Q20.69587,23.012,20.77776,23.0668Q20.859659999999998,23.121499999999997,20.95065,23.1592Q21.04164,23.1969,21.13824,23.2161Q21.23484,23.235300000000002,21.33333,23.235300000000002L22.125,23.235300000000002Q22.90165,23.235300000000002,23.45083,22.6861Q24,22.1369,24,21.360300000000002L24,9.875Q24,9.0983493,23.45083,8.549175Q22.90165,8,22.125,8L18.875,8Q18.0983497,8,17.549175,8.549175Q17,9.0983497,17,9.875L17,24Q17,24.0985,17.019215,24.1951Q17.038429999999998,24.2917,17.076121,24.3827Q17.113812,24.4737,17.16853,24.5556Q17.223249,24.6375,17.292893,24.7071Q17.362537,24.776699999999998,17.44443,24.8315Q17.526322,24.886200000000002,17.617317,24.9239Q17.708311,24.9616,17.80491,24.980800000000002Q17.9015086,25,18,25Q18.0984914,25,18.19509,24.980800000000002Q18.291689,24.9616,18.382683,24.9239Q18.473678,24.886200000000002,18.55557,24.8315Q18.637463,24.776699999999998,18.707107,24.7071Q18.776751,24.6375,18.83147,24.5556Q18.886188,24.4737,18.923879,24.3827Q18.961570000000002,24.2917,18.980785,24.1951Q19,24.0985,19,24L19,10L22,10L22,21.235300000000002Z" fill-rule="evenodd" fill="#0052D9" fill-opacity="1"/></g></g></svg>