<?xml version="1.0" encoding="UTF-8"?>
<svg width="32px" height="32px" viewBox="0 0 32 32" version="1.1" xmlns="http://www.w3.org/2000/svg" xmlns:xlink="http://www.w3.org/1999/xlink">
    <title>腾讯电子签-32px</title>
    <g id="腾讯电子签-32px" stroke="none" stroke-width="1" fill="none" fill-rule="evenodd">
        <g id="group" fill-rule="nonzero">
            <rect id="Rectangle-Copy" fill="#0052D9" opacity="0" x="0" y="0" width="32" height="32"></rect>
            <path d="M21.7821127,18 L23,22 L21.1735046,22 L19.9562883,20 L12.0437117,20 L10.8264954,22 L9,22 L10.2178873,18 L21.7821127,18 Z M22,15 L22,17 L10,17 L10,15 L22,15 Z M10.8264954,10 L12.0437117,12 L19.9562883,12 L21.1735046,10 L23,10 L21.7821127,14 L10.2178873,14 L9,10 L10.8264954,10 Z" id="形状结合" fill="#0052D9"></path>
            <path d="M28.8,18 C27.8,24.2 22.5,29 16,29 C8.8,29 3,23.2 3,16 C3,8.8 8.8,3 16,3 C22.5,3 27.9,7.8 28.8,14 L30.8,14 C29.9,6.7 23.6,1 16,1 C7.7,1 1,7.7 1,16 C1,24.3 7.7,31 16,31 C23.6,31 29.9,25.3 30.9,18 L28.8,18 Z" id="路径" fill="#0052D9"></path>
        </g>
    </g>
</svg>