<?xml version="1.0" encoding="utf-8"?>
<!-- Generator: Adobe Illustrator 23.0.3, SVG Export Plug-In . SVG Version: 6.00 Build 0)  -->
<svg version="1.1" id="图层_1" xmlns="http://www.w3.org/2000/svg" xmlns:xlink="http://www.w3.org/1999/xlink" x="0px" y="0px"
	 width="32px" height="32px" viewBox="0 0 32 32" style="enable-background:new 0 0 32 32;" xml:space="preserve">
<g>
	<defs>
		<path id="SVGID_1_" d="M16,0c7.811,0,14.315,5.598,15.719,13l-2.041,0C28.305,6.71,22.702,2,16,2C8.268,2,2,8.268,2,16
			s6.268,14,14,14c7.053,0,12.887-5.215,13.858-11.999l2.018,0C30.892,25.893,24.159,32,16,32C7.163,32,0,24.837,0,16S7.163,0,16,0z
			"/>
	</defs>
	<use xlink:href="#SVGID_1_"  style="overflow:visible;fill:#0052D9;"/>
	<clipPath id="SVGID_2_">
		<use xlink:href="#SVGID_1_"  style="overflow:visible;"/>
	</clipPath>
</g>
<path style="fill:#0052D9;" d="M16,8.288l7,3.889v7.646l-7,3.889l-7-3.889v-7.646L16,8.288 M16,6l-9,5v10l9,5l9-5V11L16,6L16,6z"/>
<g>
	<rect x="19" y="13" style="fill:#0052D9;" width="2" height="6"/>
</g>
<g>
	<rect x="15" y="15" style="fill:#0052D9;" width="2" height="4"/>
</g>
<g>
	<rect x="11" y="17" style="fill:#0052D9;" width="2" height="2"/>
</g>
</svg>
