<?xml version="1.0" encoding="utf-8"?>
<!-- Generator: Adobe Illustrator 22.1.0, SVG Export Plug-In . SVG Version: 6.00 Build 0)  -->
<svg version="1.1" id="图层_1" xmlns="http://www.w3.org/2000/svg" xmlns:xlink="http://www.w3.org/1999/xlink" x="0px" y="0px"
	 width="32px" height="32px" viewBox="0 0 32 32" style="enable-background:new 0 0 32 32;" xml:space="preserve">
<g>
	<defs>
		<path id="SVGID_1_" d="M31.8,13h-2c-1.4-6.3-7-11-13.7-11C8.3,2,2,8.3,2,16s6.3,14,14.1,14C23.1,30,29,24.8,30,18h2
			c-1,7.9-7.7,14-15.9,14C7.2,32,0,24.8,0,16S7.2,0,16.1,0C23.9,0,30.4,5.6,31.8,13z"/>
	</defs>
	<use xlink:href="#SVGID_1_"  style="overflow:visible;fill:#0052D9;"/>
	<clipPath id="SVGID_2_">
		<use xlink:href="#SVGID_1_"  style="overflow:visible;"/>
	</clipPath>
</g>
<g>
	<g>
		<path style="fill:#0052D9;stroke:#0052D9;stroke-width:0.5;stroke-miterlimit:10;" d="M12,11.7h1.3v8.7H12V11.7z"/>
		<path style="fill:#0052D9;stroke:#0052D9;stroke-width:0.5;stroke-miterlimit:10;" d="M15.1,11.7h3.1c0.3,0,0.6,0,1,0.1
			c0.3,0.1,0.7,0.3,0.9,0.5c0.3,0.2,0.5,0.5,0.6,0.8c0.2,0.4,0.3,0.8,0.3,1.2c0,0.6-0.2,1.3-0.7,1.8c-0.5,0.6-1.2,0.9-2,0.9h-1.9
			v3.4h-1.3V11.7z M16.4,15.7h1.9c0.4,0,0.8-0.1,1.1-0.5c0.2-0.3,0.3-0.6,0.3-1c0-0.3,0-0.5-0.1-0.7c-0.1-0.2-0.2-0.3-0.4-0.4
			c-0.3-0.2-0.6-0.3-0.9-0.2h-1.8V15.7z"/>
	</g>
</g>
<g>
	<polygon style="fill:#0052D9;" points="16.2,6.9 18.3,9 19.7,7.6 17.6,5.5 16.2,4.1 14.8,5.5 12.6,7.6 14.1,9 	"/>
	<polygon style="fill:#0052D9;" points="15.8,25.1 13.7,23 12.3,24.4 14.4,26.5 15.8,27.9 17.2,26.5 19.4,24.4 17.9,23 	"/>
	<polygon style="fill:#0052D9;" points="25.1,15.8 23,13.7 24.4,12.3 26.5,14.4 27.9,15.8 26.5,17.2 24.4,19.4 23,17.9 	"/>
	<polygon style="fill:#0052D9;" points="6.9,16.2 9,18.3 7.6,19.7 5.5,17.6 4.1,16.2 5.5,14.8 7.6,12.6 9,14.1 	"/>
</g>
</svg>
