<?xml version="1.0" encoding="UTF-8"?>
<svg width="32px" height="32px" viewBox="0 0 32 32" version="1.1" xmlns="http://www.w3.org/2000/svg" xmlns:xlink="http://www.w3.org/1999/xlink">
    <title>私有连接-32px</title>
    <g id="私有连接-32px" stroke="none" stroke-width="1" fill="none" fill-rule="evenodd">
        <g id="编组" transform="translate(0.000000, 0.000000)">
            <rect id="Rectangle-Copy" fill="#0052D9" opacity="0" x="2.27373675e-13" y="0" width="32" height="32"></rect>
            <path d="M16,0 C23.811235,0 30.3151005,5.59751424 31.7192447,13.000191 L29.677892,13.0003278 C28.3046747,6.70979962 22.7023537,2 16,2 C8.2680135,2 2,8.2680135 2,16 C2,23.7319865 8.2680135,30 16,30 C23.052652,30 28.8872801,24.7850199 29.8581018,18.0008423 L31.8761139,18.0007904 C30.8915668,25.8930309 24.1589629,32 16,32 C7.163444,32 2.48689958e-14,24.836556 2.48689958e-14,16 C2.48689958e-14,7.163444 7.163444,0 16,0 Z" id="Combined-Shape" fill="#0052D9" fill-rule="nonzero"></path>
            <g id="编组-3" transform="translate(8.899835, 8.491718)" fill="#0052D9" fill-rule="nonzero">
                <path d="M9.47291785,9.56393676 L9.63079788,9.41383828 C8.64111266,10.4035235 7.20496497,10.6746382 5.97067159,10.2271824 C7.14895139,9.12747717 7.86316896,8.41602921 8.11502576,8.09134705 L8.21658432,7.99962472 L10.2140273,6.0036034 C10.607312,7.35352743 10.3602755,8.54030522 9.47291785,9.56393676 Z M13.0861297,1.02231808 C14.4492205,2.38540886 14.4492205,4.59541566 13.0861297,5.95850643 L12.0324868,7.01135684 C12.0264448,6.02973579 11.8856126,5.22768736 11.6099904,4.60521156 L11.6719162,4.54429287 C12.2175807,3.99862832 12.2516848,3.13512081 11.7742283,2.54972588 L11.6719162,2.43653164 C11.1262516,1.89086709 10.2627441,1.85676305 9.67734917,2.33421954 L9.56415494,2.43653164 L6.10882309,5.89186349 C5.5267809,6.47390568 5.5267809,7.41758253 6.10882309,7.99962472 L6.21529145,8.096 L4.77193988,9.48886222 C4.74587444,9.4643307 4.72009397,9.43932272 4.69460953,9.41383828 C3.33151875,8.05074751 3.33151875,5.8407407 4.69460953,4.47764993 L8.14994137,1.02231808 C9.51303215,-0.340772694 11.723039,-0.340772694 13.0861297,1.02231808 Z" id="形状结合"></path>
                <path d="M9.509,4.79629145 L9.55466781,4.84381856 C10.7751904,6.21447768 10.7282472,8.31638892 9.41383828,9.63079788 L5.95850643,13.0861297 C4.59541566,14.4492205 2.38540886,14.4492205 1.02231808,13.0861297 C-0.340772694,11.723039 -0.340772694,9.51303215 1.02231808,8.14994137 L2.09987112,7.07279853 C2.21437467,8.03656814 2.42073907,8.77250957 2.71896433,9.28062283 L2.43653164,9.56415494 C1.85448945,10.1461971 1.85448945,11.089874 2.43653164,11.6719162 C2.9821962,12.2175807 3.84570371,12.2516848 4.43109863,11.7742283 L4.54429287,11.6719162 L7.99962472,8.21658432 C8.54528927,7.67091976 8.57939331,6.80741225 8.10193682,6.22201733 L8.085,6.20329145 L9.509,4.79629145 Z M8.13877696,3.88162836 L8.209,3.81327451 L8.06149686,3.95743044 C6.99897592,4.98996926 6.32939085,5.66145669 6.05274165,5.97189273 L6.00505773,6.00651099 L5.89186349,6.10882309 L3.877,8.12227451 L3.82899811,7.90914901 C3.58578071,6.68407641 3.86162757,5.55649584 4.65653871,4.52640728 C5.63644771,3.67517853 6.97710579,3.46009671 8.13877696,3.88162836 Z" id="形状结合"></path>
            </g>
        </g>
    </g>
</svg>