<?xml version="1.0" encoding="UTF-8"?>
<svg width="32px" height="32px" viewBox="0 0 32 32" version="1.1" xmlns="http://www.w3.org/2000/svg" xmlns:xlink="http://www.w3.org/1999/xlink">
    <title>AI临床助手-32px</title>
    <g id="AI临床助手-32px" stroke="none" stroke-width="1" fill="none" fill-rule="evenodd">
        <path d="M4,11 L4,26 L27.2676063,25.9999275 C27.5899708,25.4427094 28.1734563,25.0554537 28.8507377,25.0054857 L29,25 L29.1605892,25.005666 C30.0623625,25.0736038 30.8155084,25.7434327 30.9775978,26.6467426 C31.1492218,27.6031884 30.6085401,28.5445959 29.6959246,28.8783268 C29.5672812,28.9253699 29.4364953,28.9584194 29.3053662,28.9781285 C29.2970109,28.9781166 29.2883502,28.9793866 29.2796716,28.980601 C29.2396195,28.9872995 29.1998819,28.9915146 29.1601736,28.9945287 C29.1484295,28.9946114 29.136437,28.9954554 29.1244158,28.9961932 C29.0887458,28.9989767 29.0533816,29.0000673 29.0180884,29.0002195 L29,29 L29,29 L28.9229446,28.9983574 C28.903934,28.9975311 28.8849534,28.9964335 28.8660086,28.9950666 L29,29 C28.2601625,29 27.6141507,28.5982846 27.2681881,28.0010775 L2,28 L2,11 L4,11 Z M15,18 L15,20 L12,20 C10.346,20 9,21.346 9,23 L7,23 C7,20.239 9.239,18 12,18 L15,18 Z M25,14 L25,23 L23,23 L23,14 L25,14 Z M17,23 L15,23 L18,14 L20,14 L23,23 L21,23 L20.3329492,20.9999671 L17.6669492,20.9999671 L17,23 Z M3,3 L3.04962367,3.00067894 C3.08325981,3.00166737 3.11679855,3.00350567 3.15020999,3.00618145 L3,3 C3.74025244,3 4.38657394,3.40216612 4.73239368,3.99992752 L30,4 L30,21 L28,21 L28,6 L4.73181186,6.0010775 C4.40932745,6.55775626 3.82613645,6.94457634 3.14926234,6.99451426 L3.13307668,6.99511643 C3.12414794,6.99575412 3.11521051,6.99633201 3.10626493,6.99684985 L3,7 L2.98580782,7.00017379 C2.94918855,7.00007655 2.91247681,6.99896942 2.8757108,6.99683658 L3,7 C2.94738508,7 2.89524469,6.99796828 2.84365301,6.99397902 C2.80462953,6.99182109 2.76559935,6.98777133 2.72656614,6.9825463 C2.71460089,6.97982628 2.70294255,6.97812535 2.69131731,6.9763243 C2.61870925,6.96647949 2.54584382,6.95128673 2.4733111,6.93185165 L2.56548618,6.95266745 C2.56281501,6.9520757 2.56014585,6.9514786 2.5574787,6.95087618 L2.4733111,6.93185165 C1.59894407,6.69756571 0.990949192,5.90521136 0.990949192,5 C0.990949192,4.09478864 1.59894407,3.30243429 2.4733111,3.06814835 C2.50130151,3.06064834 2.52934146,3.0537801 2.55741396,3.04753658 C2.56014585,3.0485214 2.56281501,3.0479243 2.56548618,3.04733255 C2.6020869,3.037601 2.64684224,3.02924743 2.69161143,3.0224475 C2.70294255,3.02187465 2.71460089,3.02017372 2.7262914,3.01857382 C2.76425961,3.01240801 2.80195025,3.00845829 2.83959717,3.00558761 C2.85741997,3.00492446 2.87529792,3.00374441 2.89323853,3.00280079 C2.91814184,3.00100578 2.94250198,3.00026344 2.9668243,2.99996707 L3,3 L3,3 Z M18.9999492,16.9999671 L18.3329492,18.9999671 L19.6669492,18.9999671 L18.9999492,16.9999671 Z M13,9 C15.209,9 17,10.791 17,13 C17,15.209 15.209,17 13,17 C10.791,17 9,15.209 9,13 C9,10.791 10.791,9 13,9 Z M13,11 C11.895,11 11,11.895 11,13 C11,14.105 11.895,15 13,15 C14.105,15 15,14.105 15,13 C15,11.895 14.105,11 13,11 Z" id="形状结合" fill="#0052D9" fill-rule="nonzero"></path>
        <rect id="矩形" x="0" y="0" width="32" height="32"></rect>
    </g>
</svg>