<svg width="32" height="32" viewBox="0 0 32 32" fill="none" xmlns="http://www.w3.org/2000/svg">
<path fill-rule="evenodd" clip-rule="evenodd" d="M12 4H2.66667V12.6667C2.66667 15.244 4.756 17.3333 7.33333 17.3333C9.91066 17.3333 12 15.244 12 12.6667V4ZM9.33333 6.66667H5.33333V12.6667C5.33333 13.7712 6.22876 14.6667 7.33333 14.6667C8.4379 14.6667 9.33333 13.7712 9.33333 12.6667V6.66667Z" fill="#0052D9"/>
<path d="M4.66667 8H11.3333V10.6667H4.66667V8Z" fill="#0052D9"/>
<path fill-rule="evenodd" clip-rule="evenodd" d="M16 18.6667H0V28H16V25.3333H2.66667V21.3333H16V18.6667Z" fill="#0052D9"/>
<path fill-rule="evenodd" clip-rule="evenodd" d="M32 9.33333H13.3333V28H32V9.33333ZM29.3333 12H16V25.3333H29.3333V12Z" fill="#0052D9"/>
<path d="M17.3333 17.3333H20V20H17.3333V17.3333Z" fill="#0052D9"/>
<path d="M21.3333 17.3333H24V20H21.3333V17.3333Z" fill="#0052D9"/>
<path d="M25.3333 17.3333H28V20H25.3333V17.3333Z" fill="#0052D9"/>
</svg>
