<?xml version="1.0" encoding="UTF-8"?>
<svg width="32px" height="32px" viewBox="0 0 32 32" version="1.1" xmlns="http://www.w3.org/2000/svg" xmlns:xlink="http://www.w3.org/1999/xlink">
    <title>编组 232</title>
    <g id="页面-1" stroke="none" stroke-width="1" fill="none" fill-rule="evenodd">
        <g id="编组-2">
            <rect id="Rectangle-Copy" fill="#0052D9" fill-rule="nonzero" opacity="0" x="3.41060513e-13" y="0" width="32" height="32"></rect>
            <g id="Group" fill="#0052D9" fill-rule="nonzero">
                <path d="M31.7193022,13.0004945 L29.6779284,13.0004945 C28.3047737,6.70988283 22.7024129,2 16,2 C8.2680135,2 2,8.2680135 2,16 C2,23.7319865 8.2680135,30 16,30 C23.0527724,30 28.8874794,24.7848417 29.8581515,18.0004945 L31.8761508,18.0004945 C30.8917351,25.8928783 24.1590649,32 16,32 C7.163444,32 0,24.836556 0,16 C0,7.163444 7.163444,0 16,0 C23.8113418,0 30.3152783,5.59766728 31.7193022,13.0004945 Z" id="Combined-Shape"></path>
            </g>
            <g id="编组" transform="translate(17.500000, 16.000000) rotate(-270.000000) translate(-17.500000, -16.000000) translate(7.500000, 7.500000)" stroke="#0052D9" stroke-width="2">
                <path d="M9.65333333,3.5694864 C8.63111111,3.5694864 7.80444444,2.76485398 7.80444444,1.78046324 C7.80444444,0.796072508 8.63111111,0 9.65333333,0 C10.6755556,0 11.5022222,0.796072508 11.5022222,1.78046324 C11.5022222,2.76485398 10.6755556,3.5694864 9.65333333,3.5694864 Z" id="椭圆形"></path>
                <path d="M18.1511111,17 C17.1288889,17 16.2933333,16.2039275 16.2933333,15.2195368 C16.2933333,14.235146 17.1288889,13.4390735 18.1511111,13.4390735 C19.1733333,13.4390735 20,14.235146 20,15.2195368 C20,16.2039275 19.1733333,17 18.1511111,17 Z" id="椭圆形"></path>
                <line x1="4.23111111" y1="15.2195368" x2="16.2933333" y2="15.2195368" id="路径-2"></line>
                <line x1="2.59555556" y1="13.9269889" x2="8.44444444" y2="3.76636455" id="路径-2"></line>
                <line x1="17.2622222" y1="13.6102719" x2="10.5866667" y2="3.00453172" id="路径-2"></line>
                <path d="M1.84888889,17 C0.826666667,17 0,16.2039275 0,15.2195368 C0,14.235146 0.826666667,13.4390735 1.84888889,13.4390735 C2.87111111,13.4390735 3.70666667,14.235146 3.70666667,15.2195368 C3.70666667,16.2039275 2.87111111,17 1.84888889,17 Z" id="椭圆形"></path>
            </g>
        </g>
    </g>
</svg>