<?xml version="1.0" encoding="UTF-8"?>
<svg width="32px" height="32px" viewBox="0 0 32 32" version="1.1" xmlns="http://www.w3.org/2000/svg" xmlns:xlink="http://www.w3.org/1999/xlink">
    <title>医疗报告结构化-32PX</title>
    <g id="医疗报告结构化-32PX" stroke="none" stroke-width="1" fill="none" fill-rule="evenodd">
        <path d="M4.723,6 L28,6 L28,21 L30,21 L30,4 L4.723,4 C4.27039432,3.21606397 3.34767813,2.83386241 2.4733111,3.06814835 C1.59894407,3.30243429 0.990949192,4.09478864 0.990949192,5 C0.990949192,5.90521136 1.59894407,6.69756571 2.4733111,6.93185165 C3.34767813,7.16613759 4.27039432,6.78393603 4.723,6 Z M4,11 L4,26 L27.277,26 C27.63144,25.3827895 28.2882598,25.0015824 29,25 C29.9717119,24.9956083 30.8059737,25.6902968 30.9775978,26.6467426 C31.1492218,27.6031884 30.6085401,28.5445959 29.6959246,28.8783268 C28.7833091,29.2120576 27.7628709,28.8415301 27.277,28 L27.277,28 L2,28 L2,11 L4,11 Z M10,23 L10,24 L8,24 L8,23 L10,23 Z M24,13 L24,24 L12,24 L12,22 L22,22 L22,13 L24,13 Z M10,20 L10,22 L8,22 L8,20 L10,20 Z M19,19 L19,21 L13,21 L13,19 L19,19 Z M20,8 L20,10 L10,10 L10,19 L8,19 L8,8 L20,8 Z M17,11 L17,13 L19,13 L19,15 L17,15 L17,17 L15,17 L15,15 L13,15 L13,13 L15,13 L15,11 L17,11 Z M24,10 L24,12 L22,12 L22,10 L24,10 Z M24,8 L24,9 L22,9 L22,8 L24,8 Z" id="Shape" fill="#0052D9" fill-rule="nonzero"></path>
        <rect id="矩形" x="0" y="0" width="32" height="31"></rect>
    </g>
</svg>