<svg width="32" height="33" viewBox="0 0 32 33" fill="none" xmlns="http://www.w3.org/2000/svg">
<path fill-rule="evenodd" clip-rule="evenodd" d="M29.0814 13.3414L16.039 3.44434L2.92139 13.3397L4.12583 14.9363L5.4634 13.9273L5.4634 29.0037L6.42557 29.0037L7.4634 29.0037H23.1918V27.0037L7.4634 27.0037L7.4634 12.4186L16.0354 5.95227L27.8724 14.9346L29.0814 13.3414ZM27.6294 23.7928H23.2966L19.297 26.013L18.6304 23.7928H15.6307V16.0142H27.6294V23.7928ZM22.7786 21.7928L20.4982 23.0587L20.1181 21.7928H17.6307V18.0142H25.6294V21.7928H22.7786ZM20.359 21.0137C20.9113 21.0137 21.359 20.566 21.359 20.0137C21.359 19.4614 20.9113 19.0137 20.359 19.0137C19.8067 19.0137 19.359 19.4614 19.359 20.0137C19.359 20.566 19.8067 21.0137 20.359 21.0137ZM24.0252 20.0137C24.0252 20.566 23.5775 21.0137 23.0252 21.0137C22.4729 21.0137 22.0252 20.566 22.0252 20.0137C22.0252 19.4614 22.4729 19.0137 23.0252 19.0137C23.5775 19.0137 24.0252 19.4614 24.0252 20.0137ZM12.8502 15.1536V16.9797H10.8502V15.1536H9.02426V13.1536H10.8502V11.3274H12.8502V13.1536H14.6766V15.1536H12.8502Z" fill="#0052D9"/>
</svg>
