<svg width="33" height="33" viewBox="0 0 33 33" fill="none" xmlns="http://www.w3.org/2000/svg">
<circle cx="16.5311" cy="19.5877" r="0.984333" fill="#0052D9"/>
<circle cx="29.5514" cy="13.0451" r="0.5" fill="#0052D9"/>
<circle cx="29.0505" cy="17.9103" r="1" fill="#0052D9"/>
<circle cx="27.3085" cy="15.0461" r="1.5" fill="#0052D9"/>
<circle cx="17.2025" cy="19.8487" r="1.5" fill="#0052D9"/>
<circle cx="11.6496" cy="23.7124" r="1.5" fill="#0052D9"/>
<circle cx="11.5878" cy="13.8489" r="1.5" fill="#0052D9"/>
<circle cx="23.1855" cy="13.8489" r="1.5" fill="#0052D9"/>
<path d="M10.1494 13.9995H13.1494C13.1494 13.9995 12.6451 16.9075 12.6451 18.7781C12.6451 20.6487 13.1494 23.5567 13.1494 23.5567H10.1494C10.1494 23.5567 10.6447 20.6486 10.6447 18.7781C10.6447 16.9076 10.1494 13.9995 10.1494 13.9995Z" fill="#0052D9"/>
<path d="M10.2416 14.665L12.4429 12.6268C12.4429 12.6268 13.9758 15.0245 15.1999 16.3465C16.424 17.6685 18.1894 18.8732 18.1894 18.8732L15.9881 20.9115C15.9881 20.9115 14.8314 18.9028 13.7321 17.7055C12.6329 16.5082 10.2416 14.665 10.2416 14.665Z" fill="#0052D9"/>
<path d="M24.3496 14.8236L22.2232 12.7073C22.2232 12.7073 20.6049 15.0483 19.334 16.3253C18.0631 17.6023 16.2135 18.7491 16.2135 18.7491L18.3399 20.8653C18.3399 20.8653 19.481 19.0133 20.7518 17.7364C22.0227 16.4594 24.3496 14.8236 24.3496 14.8236Z" fill="#0052D9"/>
<path fill-rule="evenodd" clip-rule="evenodd" d="M3.50952 17.0037C3.50952 10.8236 8.51943 5.81372 14.6995 5.81372C18.1037 5.81372 21.1523 7.33274 23.2062 9.73346C23.5485 9.15261 24.0833 8.69075 24.7368 8.44605C22.319 5.61278 18.7189 3.81372 14.6995 3.81372C7.41486 3.81372 1.50952 9.71906 1.50952 17.0037C1.50952 24.2883 7.41486 30.1936 14.6995 30.1936C18.5398 30.1936 21.998 28.5511 24.4072 25.9332L24.6713 25.6461V14.0386C24.653 14.0312 24.6347 14.0236 24.6164 14.0158H22.6713V24.8563C20.6407 26.9176 17.8198 28.1936 14.6995 28.1936C8.51943 28.1936 3.50952 23.1837 3.50952 17.0037Z" fill="#0052D9"/>
</svg>
