<svg width="32" height="32" viewBox="0 0 32 32" fill="none" xmlns="http://www.w3.org/2000/svg">
<g clip-path="url(#clip0_35_79850)">
<path fill-rule="evenodd" clip-rule="evenodd" d="M5.62983 11.3539C5.99528 11.5692 6.38808 11.7335 6.79715 11.8426C7.18651 11.9464 7.59059 12.0001 7.99981 12H23.9998L24.2558 11.9933C24.5773 11.9757 24.894 11.925 25.2011 11.8432C25.611 11.7341 26.004 11.5696 26.3692 11.3545C26.6743 11.1748 26.9599 10.9597 27.2198 10.7121C27.4538 10.4891 27.6625 10.2439 27.8435 9.98116C27.8716 9.94039 27.899 9.8992 27.9258 9.8576C28.1402 9.52413 28.3113 9.16452 28.435 8.78753C28.4972 8.59766 28.5474 8.40339 28.585 8.20582C28.6204 8.01972 28.443 7.87082 28.2574 7.90832C28.0051 7.95929 27.7492 7.98924 27.4925 7.998C27.2167 8.0074 26.9399 7.99236 26.6653 7.95264C26.6444 7.94962 26.6235 7.94645 26.6027 7.94314C26.6007 7.94284 26.5988 7.94253 26.5968 7.94222C25.9602 7.84046 25.3513 7.60786 24.8087 7.2588C24.2466 6.89724 23.7688 6.41918 23.4075 5.85695C23.1505 5.4571 22.9568 5.0213 22.832 4.56499C22.7446 4.24529 22.4685 4 22.137 4H9.86259C9.53115 4 9.25506 4.24529 9.16764 4.56499C9.04285 5.0213 8.8491 5.4571 8.59214 5.85695C8.23084 6.41918 7.753 6.89724 7.19094 7.2588C6.64832 7.60785 6.03943 7.84045 5.40283 7.94221C5.40088 7.94252 5.39894 7.94283 5.39699 7.94314C5.37612 7.94645 5.35522 7.94962 5.3343 7.95264C5.05965 7.99237 4.78279 8.00741 4.50698 7.99799C4.25029 7.98923 3.99452 7.95928 3.7423 7.90833C3.5566 7.87082 3.37926 8.01975 3.41468 8.20585C3.45228 8.40343 3.50248 8.59767 3.56472 8.78746C3.68841 9.16464 3.85965 9.52424 4.07401 9.85758C4.10077 9.89919 4.12821 9.9404 4.15631 9.98118C4.36128 10.2787 4.60157 10.5535 4.87382 10.799C5.10815 11.0103 5.36162 11.1958 5.62983 11.3539ZM24.1711 9.99486L23.9738 10H7.99981C7.55081 10.0001 7.11231 9.88686 6.72373 9.67527C7.26811 9.49864 7.78898 9.25216 8.27295 8.94083C9.07589 8.42432 9.75852 7.74138 10.2747 6.9382C10.4672 6.63854 10.635 6.32474 10.7767 6H21.223C21.3647 6.32474 21.5324 6.63854 21.725 6.9382C22.2411 7.74138 22.9237 8.42432 23.7267 8.94083C24.2108 9.25223 24.7317 9.49875 25.2762 9.67538C24.9378 9.85975 24.561 9.96988 24.1711 9.99486ZM6.79715 13.3333C6.6982 13.5049 6.58727 13.6679 6.46561 13.8213C5.93908 14.485 5.21154 14.9686 4.38435 15.194C4.03838 15.2883 3.68451 15.3348 3.33203 15.3347C3.33134 15.3347 3.33065 15.3347 3.32996 15.3347C3.05095 15.3345 2.77283 15.305 2.5002 15.247C2.23416 15.1904 1.97336 15.1065 1.72207 14.9958C1.54695 14.9187 1.33833 15.0263 1.33351 15.2176C1.3284 15.4204 1.33654 15.6228 1.35767 15.8236C1.39891 16.2154 1.48965 16.6008 1.62799 16.9705C1.64451 17.0147 1.66171 17.0586 1.67959 17.1023C1.74993 17.2742 1.83072 17.4424 1.92179 17.6059C2.39485 18.4552 3.12134 19.1356 3.99981 19.552V26.6667C3.99981 27.403 4.59677 28 5.33315 28H11.9998C12.7362 28 13.3331 27.403 13.3331 26.6667V25.3333L13.3398 25.1333C13.3903 24.4625 13.6924 23.8355 14.1857 23.378C14.6791 22.9205 15.327 22.6665 15.9998 22.6667L16.1998 22.6733C16.8707 22.7238 17.4977 23.026 17.9552 23.5193C18.4126 24.0126 18.6667 24.6606 18.6665 25.3333V26.6667C18.6665 27.403 19.2634 28 19.9998 28H26.6667C27.403 28 27.9999 27.4032 28 26.6669L28.0011 19.5507C28.8779 19.1337 29.6028 18.4536 30.0748 17.6051C30.1653 17.4425 30.2456 17.2752 30.3156 17.1042C30.3335 17.0607 30.3506 17.0169 30.3671 16.9729C30.5054 16.6034 30.5962 16.2183 30.6376 15.8267C30.6588 15.6258 30.6671 15.4231 30.662 15.22C30.6572 15.0288 30.4488 14.9211 30.2736 14.9981C30.0213 15.1089 29.7595 15.1928 29.4924 15.2492C29.2206 15.3066 28.9435 15.3356 28.6654 15.3356C28.6648 15.3356 28.6641 15.3356 28.6634 15.3356C28.3113 15.3354 27.9578 15.2887 27.6122 15.1943C26.7858 14.9685 26.059 14.4851 25.5329 13.8218C25.4112 13.6683 25.3002 13.5051 25.2011 13.3333H6.79715ZM7.80581 15.3333H24.1922C24.9578 16.1903 25.96 16.8163 27.0852 17.1236C27.3301 17.1905 27.5776 17.2414 27.8262 17.2765C27.6252 17.4661 27.3947 17.6244 27.1421 17.7445L26.0013 18.2871L26.0001 26H20.6665V25.334C20.6665 25.3342 20.6665 25.3338 20.6665 25.334C20.6667 24.1568 20.2221 23.0225 19.4217 22.1594C18.6211 21.2961 17.5238 20.7673 16.3498 20.679L16.3082 20.6758L16.0334 20.6667L16.0004 20.6667C14.8231 20.6663 13.6891 21.1109 12.8258 21.9115C11.9625 22.712 11.4337 23.8093 11.3454 24.9833L11.3423 25.025L11.3331 25.3V26H5.99981V18.2867L4.85648 17.7448C4.60305 17.6246 4.37176 17.4661 4.17006 17.276C4.41842 17.241 4.66562 17.1903 4.91019 17.1236C6.03641 16.8167 7.03952 16.1908 7.80581 15.3333Z" fill="#0052D9"/>
</g>
<defs>
<clipPath id="clip0_35_79850">
<rect width="32" height="32" fill="white"/>
</clipPath>
</defs>
</svg>
