<svg width="32" height="32" viewBox="0 0 32 32" fill="none" xmlns="http://www.w3.org/2000/svg">
<path fill-rule="evenodd" clip-rule="evenodd" d="M20.88 12.21H20.89H22.88V19.8H20.88V12.21Z" fill="#0052D9"/>
<path fill-rule="evenodd" clip-rule="evenodd" d="M26.66 15.39V15.4V16.8V17.39H21.25V15.39H26.66Z" fill="#0052D9"/>
<path fill-rule="evenodd" clip-rule="evenodd" d="M26.23 12.21H26.24V14.21H21.25V12.21H26.23Z" fill="#0052D9"/>
<path fill-rule="evenodd" clip-rule="evenodd" d="M24.66 12.21H24.67H26.08H26.66V17.02H24.66V13.49V12.21Z" fill="#0052D9"/>
<path fill-rule="evenodd" clip-rule="evenodd" d="M13.79 12.21H13.8H15.79V19.8H13.79V12.21Z" fill="#0052D9"/>
<path fill-rule="evenodd" clip-rule="evenodd" d="M19.56 15.39H19.57V15.4V16.8V17.39H14.15V15.39H19.56Z" fill="#0052D9"/>
<path fill-rule="evenodd" clip-rule="evenodd" d="M19.14 12.21V14.21H14.15V12.21H19.14Z" fill="#0052D9"/>
<path fill-rule="evenodd" clip-rule="evenodd" d="M17.57 12.21H17.58H18.98H18.99H19.57V17.02H17.57V13.49V12.21Z" fill="#0052D9"/>
<path fill-rule="evenodd" clip-rule="evenodd" d="M16.59 17.39L16.6 17.38H18H18.01H18.59L20.31 19.8H18.31L16.59 17.39Z" fill="#0052D9"/>
<path fill-rule="evenodd" clip-rule="evenodd" d="M10.52 12.21H10.53H12.52V19.79H10.52V12.21Z" fill="#0052D9"/>
<path fill-rule="evenodd" clip-rule="evenodd" d="M5.34 12.21H5.35H7.34V19.79H5.34V12.21Z" fill="#0052D9"/>
<path fill-rule="evenodd" clip-rule="evenodd" d="M12.17 13.35L10.16 16.23L9.89999 16.6L8.93999 17.98L7.96999 16.6L7.70999 16.23L8.67999 14.86L8.93999 14.49L10.53 12.21H10.54L12.17 13.35Z" fill="#0052D9"/>
<path fill-rule="evenodd" clip-rule="evenodd" d="M10.16 16.23L9.9 16.6L8.94 17.98L7.97 16.6L7.71 16.23L5.7 13.35L7.33 12.21H7.34L8.94 14.49L9.2 14.86L10.16 16.23Z" fill="#0052D9"/>
<path fill-rule="evenodd" clip-rule="evenodd" d="M32 16L24 2.14001H12.54V4.14001H22.84L29.69 16L23.41 26.87C23.0627 26.8739 22.7223 26.9681 22.4225 27.1434C22.1227 27.3188 21.8736 27.5692 21.7 27.87C21.5096 28.1687 21.4089 28.5158 21.41 28.87C21.4067 29.2218 21.5001 29.5677 21.68 29.87C21.8554 30.1737 22.1075 30.426 22.4112 30.6015C22.7148 30.7771 23.0593 30.8696 23.41 30.87C23.9404 30.87 24.4491 30.6593 24.8242 30.2842C25.1993 29.9091 25.41 29.4004 25.41 28.87C25.4137 28.522 25.3312 28.1784 25.17 27.87L32 16Z" fill="#0052D9"/>
<path fill-rule="evenodd" clip-rule="evenodd" d="M2.31 16L8.59 5.12C9.11172 5.10696 9.60767 4.8905 9.972 4.51683C10.3363 4.14316 10.5402 3.64189 10.54 3.12C10.5469 2.76911 10.4569 2.42312 10.28 2.12C10.1038 1.81479 9.85006 1.56157 9.54451 1.38596C9.23895 1.21035 8.89242 1.1186 8.54 1.12C8.00957 1.12 7.50086 1.33072 7.12579 1.70579C6.75071 2.08086 6.54 2.58957 6.54 3.12C6.54668 3.47309 6.64674 3.81812 6.83 4.12L0 16L8 29.85H19.37V27.85H9.15L2.31 16Z" fill="#0052D9"/>
</svg>
