<?xml version="1.0" encoding="UTF-8"?>
<svg width="32px" height="32px" viewBox="0 0 32 32" version="1.1" xmlns="http://www.w3.org/2000/svg" xmlns:xlink="http://www.w3.org/1999/xlink">
    <title>精准预约-32px备份</title>
    <g id="精准预约-32px备份" stroke="none" stroke-width="1" fill="none" fill-rule="evenodd">
        <path d="M4.723,6 L28,6 L28,21 L30,21 L30,4 L4.723,4 C4.27039432,3.21606397 3.34767813,2.83386241 2.4733111,3.06814835 C1.59894407,3.30243429 0.990949192,4.09478864 0.990949192,5 C0.990949192,5.90521136 1.59894407,6.69756571 2.4733111,6.93185165 C3.34767813,7.16613759 4.27039432,6.78393603 4.723,6 Z M4,11 L4,26 L27.277,26 C27.63144,25.3827895 28.2882598,25.0015824 29,25 C29.9717119,24.9956083 30.8059737,25.6902968 30.9775978,26.6467426 C31.1492218,27.6031884 30.6085401,28.5445959 29.6959246,28.8783268 C28.7833091,29.2120576 27.7628709,28.8415301 27.277,28 L27.277,28 L2,28 L2,11 L4,11 Z M13,7 L12.9999492,7.99981918 L17.9999492,7.99981918 L18,7 L20,7 L19.9999492,7.99981918 L26,8 L26,13.5 L6.99994919,13.4998192 L7,23 L16.0000914,23 L16.0000914,25 L5,25 L5,8 L10.9999492,7.99981918 L11,7 L13,7 Z M21.5,14 C24.5375661,14 27,16.4624339 27,19.5 C27,22.5375661 24.5375661,25 21.5,25 C18.4624339,25 16,22.5375661 16,19.5 C16,16.4624339 18.4624339,14 21.5,14 Z M21.5,16 C19.5670034,16 18,17.5670034 18,19.5 C18,21.4329966 19.5670034,23 21.5,23 C23.4329966,23 25,21.4329966 25,19.5 C25,17.5670034 23.4329966,16 21.5,16 Z M23.0678128,17.6783456 L24.4781898,19.0963854 L21.1506811,22.4059127 L18.7210268,20.0201949 L20.1222785,18.5931372 L21.141,19.593 L23.0678128,17.6783456 Z M12,15 L11.9999492,16.9998192 L14,17 L14,19 L11.9999492,18.9998192 L12,21 L10,21 L9.99994919,18.9998192 L8,19 L8,17 L9.99994919,16.9998192 L10,15 L12,15 Z M24,10 L7,10 L6.99994919,11.4998192 L23.9999492,11.4998192 L24,10 Z" id="Shape" fill="#0052D9" fill-rule="nonzero"></path>
        <rect id="矩形" x="0" y="0" width="32" height="32"></rect>
    </g>
</svg>