<svg width="33" height="32" viewBox="0 0 33 32" fill="none" xmlns="http://www.w3.org/2000/svg">
<g clip-path="url(#clip0_441_1880)">
<path fill-rule="evenodd" clip-rule="evenodd" d="M16.8488 7.43302C19.5124 5.4909 21.1698 3.77593 21.1698 1.5H23.1698C23.1698 4.87929 20.6556 7.1326 18.0271 9.04907C17.8173 9.20202 17.6026 9.35546 17.3848 9.5111L17.3847 9.51122L17.3846 9.51125L17.3846 9.51126L17.3846 9.51127C16.7129 9.99133 16.0117 10.4924 15.3347 11.0652C14.4459 11.8171 13.6825 12.6269 13.2008 13.5289C12.9547 13.9898 12.7794 14.4792 12.7018 15.0079H19.8477V17.0079H12.8632C13.1793 18.1037 13.8947 19.4069 15.24 20.9443L13.7348 22.2613C12.0523 20.3385 11.1162 18.5783 10.7899 16.9414C10.4588 15.2805 10.7727 13.83 11.4366 12.5868C12.088 11.367 13.065 10.3657 14.0429 9.53833C14.7889 8.90724 15.5845 8.33885 16.2678 7.85077L16.2678 7.85074L16.2678 7.85073C16.4731 7.70408 16.6682 7.56469 16.8488 7.43302ZM17.0431 24.567C14.3795 26.5091 12.7222 28.2241 12.7222 30.5L10.7222 30.5C10.7222 27.1207 13.2364 24.8674 15.8648 22.9509C16.0747 22.7979 16.2894 22.6444 16.5073 22.4887C17.179 22.0087 17.8802 21.5076 18.5572 20.9348C18.9476 20.6045 19.3138 20.2631 19.6425 19.9076H15.4967V17.9076H20.9492C21.2293 17.1755 21.3238 16.3686 21.1406 15.4496C21.0579 15.0345 20.9165 14.5868 20.7016 14.1048H15.4617V12.1048H19.5018C19.2515 11.7679 18.9693 11.4183 18.652 11.0557L20.1571 9.73866C21.8396 11.6615 22.7757 13.4217 23.102 15.0586C23.4331 16.7195 23.1192 18.17 22.4553 19.4132C21.8039 20.633 20.8269 21.6343 19.849 22.4617C19.103 23.0928 18.3073 23.6612 17.6241 24.1493L17.624 24.1494C17.4188 24.296 17.2237 24.4353 17.0431 24.567ZM10.6571 1.5C10.6571 3.01372 11.2445 4.33782 11.9138 5.40852C12.4315 6.2367 13.0482 6.98456 13.523 7.56042L13.523 7.56043C13.6525 7.71749 13.7714 7.86175 13.8749 7.99135L15.4377 6.74322C15.3027 6.57423 15.1616 6.40281 15.0171 6.22732L15.0169 6.22706L15.0168 6.22703L15.0168 6.22696L15.0166 6.2268C14.8014 5.96534 14.5786 5.69484 14.3578 5.40991H18.4045V3.40991H13.1031C12.8254 2.79155 12.6571 2.15469 12.6571 1.5H10.6571ZM21.9781 26.5915C22.6474 27.6622 23.2348 28.9863 23.2348 30.5H21.2348C21.2348 29.8553 21.0716 29.228 20.8015 28.6185H15.4957V26.6185H19.5561C19.3281 26.3231 19.0976 26.0433 18.8752 25.7731L18.8751 25.773L18.8751 25.773C18.7305 25.5974 18.5893 25.4259 18.4542 25.2568L20.017 24.0086C20.1205 24.1382 20.2394 24.2825 20.3689 24.4395L20.3689 24.4396L20.369 24.4396C20.8438 25.0154 21.4604 25.7633 21.9781 26.5915ZM28.279 15.9972C28.2782 13.9126 27.7594 11.8593 26.7672 10.0171L28.5281 9.06881C29.6766 11.2013 30.278 13.5799 30.279 15.9963C30.28 18.4127 29.6806 20.7919 28.5339 22.9253L26.7722 21.9784C27.7628 20.1354 28.2799 18.0818 28.279 15.9972ZM7.01177 21.9757C6.01965 20.1335 5.50084 18.0802 5.49997 15.9956C5.4991 13.911 6.01621 11.8574 7.0068 10.0144L5.24514 9.06751C4.09846 11.2009 3.49897 13.5801 3.49997 15.9965C3.50097 18.4129 4.10244 20.7915 5.25089 22.924L7.01177 21.9757Z" fill="#0052D9"/>
</g>
<defs>
<clipPath id="clip0_441_1880">
<rect width="32" height="32" fill="white" transform="translate(0.833344)"/>
</clipPath>
</defs>
</svg>
