<svg version="1.2" baseProfile="tiny-ps" xmlns="http://www.w3.org/2000/svg" viewBox="0 0 33 33" width="32" height="32">
	<title>32_32 2px 蓝-svg</title>
	<style>
		tspan { white-space:pre }
		.shp0 { fill: #0052D9 } 
		.shp1 { fill: none;stroke: #0052D9;stroke-width: 2 } 
	</style>
	<g id="页面-1">
		<g id="编组-3备份-2">
			<g id="32*32-2px-蓝">
				<path id="Combined-Shape" class="shp0" d="M16.56 0.5C24.4 0.5 30.93 6.1 32.34 13.5L30.29 13.5C28.91 7.21 23.29 2.5 16.56 2.5C8.8 2.5 2.51 8.77 2.51 16.5C2.51 24.23 8.8 30.5 16.56 30.5C23.64 30.5 29.5 25.29 30.47 18.5L32.5 18.5C31.51 26.39 24.75 32.5 16.56 32.5C7.69 32.5 0.5 25.34 0.5 16.5C0.5 7.66 7.69 0.5 16.56 0.5Z" />
				<path id="矩形" class="shp0" d="M18.02 14.36L19.52 14.36L19.52 19.5L18.02 19.5L18.02 14.36Z" />
				<path id="形状结合" fill-rule="evenodd" class="shp0" d="M15.66 14.36L17.55 19.5L16.13 19.5L15.8 18.59L13.95 18.59L13.61 19.5L12.14 19.5L14.03 14.36L15.66 14.36ZM14.87 16.06L14.49 17.09L15.25 17.09L14.87 16.06Z" />
				<path id="椭圆形" class="shp1" d="M16.5 8.17C15.35 8.17 14.42 7.23 14.42 6.08C14.42 4.93 15.35 4 16.5 4C17.65 4 18.58 4.93 18.58 6.08C18.58 7.23 17.65 8.17 16.5 8.17Z" />
				<path id="椭圆形" class="shp1" d="M26.06 23.86C24.91 23.86 23.97 22.93 23.97 21.78C23.97 20.63 24.91 19.7 26.06 19.7C27.21 19.7 28.14 20.63 28.14 21.78C28.14 22.93 27.21 23.86 26.06 23.86Z" />
				<path id="路径-2" class="shp1" d="M10.4 21.78L23.97 21.78" />
				<path id="路径-2" class="shp1" d="M8.56 20.27L15.14 8.4" />
				<path id="路径-2" class="shp1" d="M25.06 19.9L17.55 7.51" />
				<path id="椭圆形" class="shp1" d="M7.72 23.86C6.57 23.86 5.64 22.93 5.64 21.78C5.64 20.63 6.57 19.7 7.72 19.7C8.87 19.7 9.81 20.63 9.81 21.78C9.81 22.93 8.87 23.86 7.72 23.86Z" />
			</g>
		</g>
	</g>
</svg>