<svg width="32" height="32" viewBox="0 0 32 32" fill="none" xmlns="http://www.w3.org/2000/svg">
<g clip-path="url(#clip0_51_1059)">
<path d="M14 1.15V8.59L7 4.56V11.49L12.58 14.71L16 11.29V0L14 1.15ZM12.25 12.2L9 10.32V8.01L13.71 10.73L12.25 12.19V12.2ZM1.15 18H8.59L4.55 25H11.48L14.7 19.42L11.28 16H0L1.15 18ZM12.2 19.75L10.32 23H8.01L10.73 18.29L12.19 19.75H12.2ZM17.99 30.85V23.41L24.99 27.45V20.52L19.41 17.3L15.99 20.72V32.01L17.99 30.86V30.85ZM19.74 19.8L22.99 21.68V23.99L18.28 21.27L19.74 19.81V19.8ZM30.84 14.01H23.4L27.44 7.01H20.51L17.29 12.59L20.71 16.01H32L30.85 14.01H30.84ZM19.79 12.26L21.67 9.01H23.98L21.26 13.72L19.8 12.26H19.79Z" fill="#0052D9" style="fill:#0052D9;fill:color(display-p3 0.0000 0.3216 0.8510);fill-opacity:1;"/>
</g>
<defs>
<clipPath id="clip0_51_1059">
<rect width="32" height="32" fill="white" style="fill:white;fill:white;fill-opacity:1;"/>
</clipPath>
</defs>
</svg>
