<svg width="32" height="32" viewBox="0 0 32 32" fill="none" xmlns="http://www.w3.org/2000/svg">
<path fill-rule="evenodd" clip-rule="evenodd" d="M8.00004 11.3333C10.5774 11.3333 12.6667 9.244 12.6667 6.66667C12.6667 4.08934 10.5774 2 8.00004 2C5.42271 2 3.33337 4.08934 3.33337 6.66667C3.33337 9.244 5.42271 11.3333 8.00004 11.3333ZM8.00004 8.66667C9.10461 8.66667 10 7.77124 10 6.66667C10 5.5621 9.10461 4.66667 8.00004 4.66667C6.89547 4.66667 6.00004 5.5621 6.00004 6.66667C6.00004 7.77124 6.89547 8.66667 8.00004 8.66667ZM12.6667 12.6667V16.1144L16.1619 19.6096L19.3334 16.4381V12.6667H28.6667V27.3333H19.3334V20.2093L16.1617 23.381L14.276 21.4954L14.2762 21.4952L12.6667 19.8857V27.3333H3.33337V12.6667H12.6667ZM10 15.3333V24.6667H6.00004V15.3333H10ZM22 24.6667V15.3333H26V24.6667H22ZM28.6667 6.66667C28.6667 9.244 26.5774 11.3333 24 11.3333C21.4227 11.3333 19.3334 9.244 19.3334 6.66667C19.3334 4.08934 21.4227 2 24 2C26.5774 2 28.6667 4.08934 28.6667 6.66667ZM26 6.66667C26 7.77124 25.1046 8.66667 24 8.66667C22.8955 8.66667 22 7.77124 22 6.66667C22 5.5621 22.8955 4.66667 24 4.66667C25.1046 4.66667 26 5.5621 26 6.66667Z" fill="#0052D9"/>
</svg>
