<svg width="32" height="32" viewBox="0 0 32 32" fill="none" xmlns="http://www.w3.org/2000/svg">
<path fill-rule="evenodd" clip-rule="evenodd" d="M4.66667 11.3333C7.244 11.3333 9.33333 9.244 9.33333 6.66667C9.33333 4.08934 7.244 2 4.66667 2C2.08934 2 0 4.08934 0 6.66667C0 9.244 2.08934 11.3333 4.66667 11.3333ZM4.66667 8.66667C5.77124 8.66667 6.66667 7.77124 6.66667 6.66667C6.66667 5.5621 5.77124 4.66667 4.66667 4.66667C3.5621 4.66667 2.66667 5.5621 2.66667 6.66667C2.66667 7.77124 3.5621 8.66667 4.66667 8.66667ZM12 4H32V20H12V4ZM14.6667 6.66667H29.3333V17.3333H14.6667V6.66667ZM9.33333 12.6667V27.3333H0V12.6667H9.33333ZM2.66667 15.3333H6.66667V24.6667H2.66667V15.3333ZM32 21.3333H12V24H13.7714L12 25.7714L13.8857 27.657L17.5426 24H26.1143L29.7712 27.6569L31.6568 25.7712L29.8856 24H32V21.3333Z" fill="#0052D9"/>
<path fill-rule="evenodd" clip-rule="evenodd" d="M20.9743 12.7812L18.5522 15.2032L16.6666 13.3176L21.3176 8.66667L23.0729 10.422L25.495 8L27.3806 9.88562L22.7297 14.5366L20.9743 12.7812Z" fill="#0052D9"/>
</svg>
