<?xml version="1.0" encoding="UTF-8"?>
<svg width="32px" height="32px" viewBox="0 0 32 32" version="1.1" xmlns="http://www.w3.org/2000/svg" xmlns:xlink="http://www.w3.org/1999/xlink">
    <title>区块链跨链-32px</title>
    <g id="页面-1" stroke="none" stroke-width="1" fill="none" fill-rule="evenodd">
        <g id="区块链跨链-32px" fill-rule="nonzero">
            <rect id="Rectangle-Copy" fill="#0052D9" opacity="0" x="2.0250468e-13" y="0" width="32" height="32"></rect>
            <path d="M16,0 C23.811235,0 30.3151005,5.59751424 31.7192447,13.000191 L29.677892,13.0003278 C28.3046747,6.70979962 22.7023537,2 16,2 C8.2680135,2 2,8.2680135 2,16 C2,23.7319865 8.2680135,30 16,30 C23.052652,30 28.8872801,24.7850199 29.8581018,18.0008423 L31.8761139,18.0007904 C30.8915668,25.8930309 24.1589629,32 16,32 C7.163444,32 0,24.836556 0,16 C0,7.163444 7.163444,0 16,0 Z M10.4849927,18.1272141 L17.4819503,22.0856225 C17.9649894,22.3588936 18.1395134,22.9800742 17.8717604,23.4730683 C17.6040074,23.9660623 16.9953702,24.144183 16.5123311,23.8709119 L9.51537342,19.9125035 C9.03233429,19.6392324 8.85781037,19.0180518 9.12556333,18.5250577 C9.39331629,18.0320637 10.0019535,17.853943 10.4849927,18.1272141 Z M16.189,17.998063 L19.858,19.998063 L15.813,19.998063 L12.144,17.998063 L16.189,17.998063 Z M11.5483244,12.1275481 L22.4672449,18.0806356 C22.9697743,18.3546189 23.1513401,18.9774184 22.8727835,19.4716974 C22.5942269,19.9659763 21.9610315,20.1445612 21.4585021,19.8705779 L10.5395817,13.9174904 C10.0370522,13.6435071 9.85548637,13.0207075 10.134043,12.5264286 C10.4125996,12.0321497 11.045795,11.8535648 11.5483244,12.1275481 Z M16.189,11.998063 L19.858,13.998063 L16.813,13.998063 L13.144,11.998063 L16.189,11.998063 Z M15.4859821,8.12584563 L22.4842832,12.1209823 C22.9676442,12.3893372 23.1422844,12.9993428 22.874353,13.4834679 C22.6064216,13.967593 21.9973789,14.1425093 21.5140179,13.8741544 L14.5157168,9.87901772 C14.0323558,9.61066279 13.8577156,9.0006572 14.125647,8.5165321 C14.3935784,8.03240699 15.0026211,7.8574907 15.4859821,8.12584563 Z" id="形状" fill="#0052D9"></path>
        </g>
    </g>
</svg>