<?xml version="1.0" encoding="UTF-8"?>
<svg width="32px" height="32px" viewBox="0 0 32 32" version="1.1" xmlns="http://www.w3.org/2000/svg" xmlns:xlink="http://www.w3.org/1999/xlink">
    <title>金融专有云开发测试平台 32_blue</title>
    <g id="最新的文档" stroke="none" stroke-width="1" fill="none" fill-rule="evenodd">
        <g id="金融专有云开发测试平台-32_blue" transform="translate(0.000000, 0.000000)" fill-rule="nonzero">
            <g id="金融专有云开发测试平台">
                <path d="M16,0 C23.8113418,0 30.3152783,5.59766728 31.7193022,13.0004945 L29.6779284,13.0004945 C28.3047737,6.70988283 22.7024129,2 16,2 C8.2680135,2 2,8.2680135 2,16 C2,23.7319865 8.2680135,30 16,30 C23.0527724,30 28.8874794,24.7848417 29.8581515,18.0004945 L31.8761508,18.0004945 C30.8917351,25.8928783 24.1590649,32 16,32 C7.163444,32 0,24.836556 0,16 C0,7.163444 7.163444,0 16,0 Z M16.1213203,6.87867967 C16.3956062,7.15296555 16.605677,7.46714963 16.7515325,7.80255016 L22.3615088,9.22967773 L23.878548,14.2874622 L23.8242504,14.274308 C24.3516941,14.3969047 24.85241,14.663749 25.2635019,15.0748409 C26.4350748,16.2464138 26.4350747,18.1459087 25.2635019,19.3174816 C24.6609451,19.9200384 23.8658389,20.2126916 23.0762452,20.1954411 L22.88,20.184 L18.440525,24.6247091 L12.8880365,23.1369242 L12.9060651,23.1104209 C12.7993703,23.2690931 12.6758752,23.4198269 12.5355798,23.5601223 C11.364007,24.7316952 9.46451202,24.7316952 8.29293911,23.5601223 C7.12136627,22.3885495 7.12136627,20.4890545 8.29293911,19.3174816 C8.43405019,19.1763705 8.58572139,19.0522557 8.74540885,18.9451371 L8.71613728,18.965025 L7.22835246,13.4125365 L11.0568518,9.58288331 C10.8699472,8.63459296 11.1438899,7.61346944 11.8786797,6.87867967 C13.0502525,5.70710679 14.9497475,5.70710679 16.1213203,6.87867967 Z M9.70715267,20.7316952 C9.31662842,21.1222194 9.31662842,21.7553845 9.70715267,22.1459088 C10.097677,22.5364331 10.730842,22.536433 11.1213662,22.1459088 C11.5118906,21.7553844 11.5118906,21.1222195 11.1213662,20.7316952 C10.730842,20.3411709 10.097677,20.3411709 9.70715267,20.7316952 Z M18.3250001,17.463058 C18.2948437,17.4960003 18.2638191,17.5284325 18.2319262,17.5603253 C17.3082901,18.4839615 15.9322273,18.6794281 14.8170995,18.1467249 L13.1219794,20.1452956 C13.289535,20.4960461 13.3850496,20.8726121 13.4085231,21.2527946 L13.405187,21.2049419 L17.8428081,22.3939989 L20.9706892,19.2661177 L20.9955911,19.2919123 L21.0208612,19.3174816 C20.627108,18.9237284 20.3656911,18.447752 20.2366104,17.9448211 L18.3250001,17.463058 Z M12.1263096,11.3432591 L9.45906265,14.0102535 L10.6481196,18.4478745 L10.5779853,18.4432453 C10.9657291,18.4643081 11.3501644,18.5602537 11.7077659,18.731082 L13.4028859,16.7325114 C12.8701828,15.6173836 13.0656494,14.2413208 13.9892856,13.3176846 C14.0520894,13.2548808 14.116985,13.1954437 14.1837481,13.1393733 L13.6878104,11.9838106 C13.1307088,11.9258616 12.5867273,11.7123445 12.1263096,11.3432591 Z M22.4350747,16.4890545 C22.0445505,16.8795788 22.0445505,17.5127438 22.4350747,17.9032681 C22.8255991,18.2937924 23.458764,18.2937923 23.8492883,17.9032681 C24.2398126,17.5127437 24.2398126,16.8795788 23.8492883,16.4890545 C23.458764,16.0985302 22.8255991,16.0985302 22.4350747,16.4890545 Z M15.5072662,14.734256 C15.116742,15.1247802 15.116742,15.7579453 15.5072662,16.1484695 C15.8977906,16.5389939 16.5309555,16.5389938 16.9214798,16.1484695 C17.3120041,15.7579452 17.3120041,15.1247803 16.9214798,14.734256 C16.5309555,14.3437317 15.8977906,14.3437317 15.5072662,14.734256 Z M16.8642927,9.89413878 C16.7245535,10.3431172 16.476896,10.7657447 16.1213203,11.1213204 C15.958168,11.2844727 15.7808989,11.4249046 15.5934449,11.542616 L15.9228321,12.4448509 C16.1647385,12.4297725 16.408123,12.4438628 16.6472666,12.4871216 C17.227736,12.592123 17.783219,12.8689774 18.2319262,13.3176846 C18.8485302,13.9342886 19.1406128,14.7525241 19.108174,15.5601521 L20.4286613,15.9148681 C20.5721554,15.6109453 20.7695554,15.3261467 21.0208612,15.0748409 C21.2841205,14.8115816 21.5841346,14.6074782 21.9043854,14.4625307 L21.8603604,14.4828902 L20.7285156,10.8626709 L16.8642927,9.89413878 Z M13.2928932,8.29289322 C12.902369,8.68341748 12.9023689,9.31658249 13.2928932,9.70710678 C13.6834175,10.0976311 14.3165825,10.097631 14.7071068,9.70710678 C15.0976311,9.31658245 15.0976311,8.68341751 14.7071068,8.29289322 C14.3165825,7.90236893 13.6834175,7.90236889 13.2928932,8.29289322 Z" id="形状结合" fill="#0052D9"></path>
                <rect id="Rectangle-Copy" fill="#0052D9" opacity="0" x="0" y="0" width="32" height="32"></rect>
            </g>
        </g>
    </g>
</svg>