<?xml version="1.0" encoding="UTF-8"?>
<svg width="32px" height="32px" viewBox="0 0 32 32" version="1.1" xmlns="http://www.w3.org/2000/svg" xmlns:xlink="http://www.w3.org/1999/xlink">
    <title>智能问答-32px</title>
    <g id="智能问答-32px" stroke="none" stroke-width="1" fill="none" fill-rule="evenodd">
        <path d="M4,11 L4,26 L27.277,26 C27.63144,25.3827895 28.2882598,25.0015824 29,25 C29.9717119,24.9956083 30.8059737,25.6902968 30.9775978,26.6467426 C31.1492218,27.6031884 30.6085401,28.5445959 29.6959246,28.8783268 C28.7833091,29.2120576 27.7628709,28.8415301 27.277,28 L27.277,28 L2,28 L2,11 L4,11 Z M15,7 L15,9 L14,9 L13.9999492,9.99981918 L20,10 L19.9999492,12.9998192 L26,13 L26,25 L23.3333333,23 L12,23 L11.9999492,19.9998192 L6,20 L6,10 L11.9999492,9.99981918 L12,9 L11,9 L11,7 L15,7 Z M19.9999492,14.9988192 L20,20 L13.9999492,19.9998192 L14,21 L23.2156863,21 L24,21.6153846 L24,15 L19.9999492,14.9988192 Z M2.4733111,3.06814835 C3.34767813,2.83386241 4.27039432,3.21606397 4.723,4 L4.723,4 L30,4 L30,21 L28,21 L28,6 L4.723,6 C4.27039432,6.78393603 3.34767813,7.16613759 2.4733111,6.93185165 C1.59894407,6.69756571 0.990949192,5.90521136 0.990949192,5 C0.990949192,4.09478864 1.59894407,3.30243429 2.4733111,3.06814835 Z M22,17 C22.5522847,17 23,17.4477153 23,18 C23,18.5522847 22.5522847,19 22,19 C21.4477153,19 21,18.5522847 21,18 C21,17.4477153 21.4477153,17 22,17 Z M18,12 L8,12 L8,18 L18,18 L18,12 Z M12,14 L12,16 L10,16 L10,14 L12,14 Z M16,14 L16,16 L14,16 L14,14 L16,14 Z" id="形状结合" fill="#0052D9" fill-rule="nonzero"></path>
        <rect id="矩形" fill="#0052D9" opacity="0" x="0" y="0" width="32" height="32"></rect>
    </g>
</svg>