<svg width="32" height="32" viewBox="0 0 32 32" fill="none" xmlns="http://www.w3.org/2000/svg">
<path fill-rule="evenodd" clip-rule="evenodd" d="M25 12.8288L24.9998 18.5598C25.0091 21.0367 23.3072 21.8991 22.1076 22.2934C21.6879 22.4313 20.6487 22.62 19.4306 22.7842L19.1309 20.8068L19.1471 20.8044L19.1633 20.8022C20.4084 20.6343 21.2661 20.4647 21.4832 20.3934C21.9662 20.2346 22.3438 20.0425 22.5926 19.7937C22.7808 19.6054 23.0025 19.2862 22.9998 18.5674L22.9997 18.5598L23 12.8291V12.8289V12.8287V12.8282V12.8252L23 12.8133L23 12.7664L22.9999 12.5831L22.9997 11.8875C22.9995 11.2881 22.9991 10.4318 22.9984 9.40424C22.9974 7.81088 22.9958 5.80586 22.9932 3.70844C20.3471 4.85586 17.1979 5.61887 14.4822 6.02578C13.8838 6.11544 12.983 6.24983 11.7801 6.42891L11.7775 6.4293L4.88429 7.446L4.88257 7.44626C4.70324 7.47364 4.4507 7.58253 4.26456 7.76634C4.11299 7.91601 3.99932 8.11464 4.00022 8.44467L4.00024 8.45012L4.00024 15H4.00164L4.00109 17.9293L4.00031 23.2526C5.0093 22.9629 6.20128 22.7406 7.5341 22.5472C8.84043 22.3577 11.7366 21.9231 14.3126 21.5348C15.5992 21.3409 16.8038 21.1589 17.6868 21.0254L18.7401 20.866L19.0295 20.8222L19.1051 20.8107L19.1244 20.8078L19.1293 20.8071L19.1305 20.8069L19.1308 20.8068C19.1309 20.8068 19.1309 20.8068 19.4306 22.7842C19.4306 22.7842 10.4472 24.1455 7.82127 24.5265C6.21025 24.7603 4.94141 25.0206 4.00023 25.3492L4.00016 25.3493L4.00013 25.9081L4.00022 26.4873L4.0003 26.6489L4.00035 26.6941L4.00037 26.7073V26.7074V26.7075C4.00038 26.7086 4.00038 26.7087 4.00037 26.7079C4.00377 27.2756 4.31015 27.8583 5.07112 28.3404C5.84373 28.8299 6.93517 29.0939 8.0258 28.9695L8.0758 28.9622L8.30288 28.9292L9.16422 28.8042C9.90616 28.6968 10.9659 28.5436 12.2376 28.3607C14.7808 27.9951 18.1726 27.5107 21.5651 27.0359C22.0572 26.967 22.6611 26.9682 22.9607 26.9687L23.0278 26.9688C24.8337 26.9688 26.4337 27.2438 27.9751 27.7661L28.0001 12.9978V12.996C28 12.9178 27.9948 12.8397 27.9847 12.7619C27.8531 11.7583 26.819 10.8699 25.5193 11.0151L25.0001 11.0886V9.06865L25.2637 9.03129C27.5612 8.75746 29.6805 10.3113 29.9677 12.5019C29.9892 12.6664 30.0001 12.832 30.0001 12.9978L29.9721 29.5619C29.9704 29.9663 29.6277 30.2784 29.2699 30.3186C29.0039 30.3485 28.8214 30.2603 28.7321 30.2172L28.7128 30.2079L28.7051 30.2043C26.9128 29.3934 25.1435 28.9688 23.0278 28.9688L22.9782 28.9688H22.9782C22.654 28.9687 22.1862 28.9685 21.8423 29.0166C15.0639 29.9652 8.28599 30.9527 8.28599 30.9527C5.29405 31.3093 2.16669 29.6196 2.00675 26.9153C2.00288 26.9415 2.00079 26.9692 2.00023 27V26.7816V26.5252C2.00007 26.119 2.0001 25.1132 2.00023 23.7798V8.45012C1.99529 6.63445 3.43366 5.64141 4.5873 5.46818L11.4856 4.45071C12.6884 4.27166 13.5884 4.13737 14.1858 4.04786C17.4177 3.56361 21.1494 2.57095 23.7586 1.1058C23.8657 1.04569 23.9973 1.01732 24.0478 1.00896C24.4979 0.942508 24.9167 1.2527 24.9833 1.70181C24.9833 1.70181 24.9905 1.78397 24.9907 1.86633C24.9989 7.34745 25 12.8288 25 12.8288ZM9.50168 13.7559C9.50072 13.6085 9.60697 13.4823 9.75236 13.458L18.153 12.0579C18.3351 12.0276 18.5011 12.1673 18.5023 12.3519L18.5116 13.7644C18.5125 13.9118 18.4063 14.0381 18.2609 14.0623L15 14.6058V17.7657C15 17.9033 14.9063 18.0233 14.7728 18.0567L13.3728 18.4067C13.1834 18.454 13 18.3108 13 18.1157V14.9391L9.86025 15.4624C9.67817 15.4928 9.51214 15.3531 9.51093 15.1685L9.50168 13.7559ZM13 9.73413V11.8727L15 11.5743V9.38413C15 9.18896 14.8166 9.04575 14.6272 9.09309L13.2272 9.44309C13.0937 9.47648 13 9.59647 13 9.73413Z" fill="#0052D9"/>
</svg>
