<svg width="32" height="32" viewBox="0 0 32 32" fill="none" xmlns="http://www.w3.org/2000/svg">
<path fill-rule="evenodd" clip-rule="evenodd" d="M16.8572 22.2137L26.106 7.5765C26.4686 7.00274 27.0973 6.65199 27.776 6.64495L28.8506 6.63379L18.5579 23.2662C17.3828 25.1651 14.6189 25.1603 13.4504 23.2573L12.1046 21.0656L13.1562 19.2188L15.1547 22.2108C15.5442 22.8451 16.4655 22.8467 16.8572 22.2137ZM4.7907 6.76753C5.48411 6.75681 6.13357 7.10606 6.50696 7.69044L10.9315 14.6152L9.24291 15.6869L3.59326 6.78604L4.7907 6.76753Z" fill="#0052D9"/>
<path fill-rule="evenodd" clip-rule="evenodd" d="M16.8834 9.1713C16.485 8.54826 15.5716 8.55814 15.1869 9.18966L5.8735 24.1722C5.50563 24.764 4.85625 25.1217 4.15945 25.1163L3.146 25.1085L13.4789 8.14905C14.6332 6.25451 17.3734 6.22486 18.5684 8.09398L20.2338 10.6988L19.125 12.4062L16.8834 9.1713Z" fill="#0052D9"/>
<path fill-rule="evenodd" clip-rule="evenodd" d="M27.5196 25.0491C26.8105 25.0574 26.15 24.6896 25.7837 24.0824L21.2236 16.5248L22.9503 15.5156L28.5155 25.0374L27.5196 25.0491Z" fill="#0052D9"/>
</svg>
