<svg   width="32px"   height="32px"  viewBox="0 0 32 32" version="1.1" xmlns="http://www.w3.org/2000/svg" xmlns:xlink="http://www.w3.org/1999/xlink">
    <title>至信链元商品协议-灰色-32px</title>
    <g id="至信链元商品协议-灰色-32px" stroke="none" stroke-width="1" fill="none" fill-rule="evenodd">
        <path d="M25,14.7352717 C24.9940598,14.9356282 24.9918997,15.1354358 24.9816394,15.3352435 C24.9761312,15.4455768 24.9677069,15.5559101 24.9586995,15.6661249 L24.9405981,15.8863612 C24.938006,15.9201747 24.9347227,15.9539883 24.9285362,15.9869588 L24.9233175,16.0115154 C24.9000967,16.1097724 24.8925365,16.2091273 24.8882164,16.3090311 C24.8849762,16.3770974 24.878496,16.4446148 24.8552753,16.5104855 C24.8437035,16.5438913 24.8396699,16.5805234 24.8367132,16.6165795 L24.8311948,16.6849065 C24.8255959,16.7519892 24.8183381,16.8186503 24.7958733,16.8832035 C24.7916612,16.8950602 24.7893931,16.9075098 24.7875527,16.9200779 L24.783993,16.9452317 C24.7645523,17.069837 24.7456517,17.1944423 24.725671,17.3190476 C24.723079,17.3357348 24.7191044,17.352422 24.713471,17.3679851 L24.7089305,17.379429 C24.6923925,17.4178535 24.6824696,17.4575389 24.677715,17.4988528 L24.6759894,17.5166595 C24.6726818,17.5579659 24.6660666,17.598852 24.6503555,17.6374792 L24.6430484,17.65389 C24.6338681,17.6725534 24.6268478,17.6934124 24.6241477,17.7137225 C24.6063272,17.8388767 24.570686,17.9596396 24.5285646,18.0782067 C24.5249195,18.0893224 24.5218819,18.1010556 24.5201353,18.1127116 L24.5188443,18.1243162 C24.5145242,18.1781105 24.4934635,18.2247689 24.4718628,18.273074 C24.464775,18.2889242 24.4609527,18.3062409 24.4578613,18.3238665 L24.4519022,18.3591862 C24.4486589,18.3767088 24.4444569,18.3937683 24.4367616,18.4092067 C24.419211,18.4448866 24.4067906,18.4820761 24.3954503,18.51954 L24.3787435,18.5757874 C24.373107,18.5945022 24.3672344,18.6131312 24.3606191,18.6315201 C24.2909569,18.8285831 24.2212946,19.0256461 24.1381319,19.216671 C24.0691446,19.3751722 23.9968498,19.5319924 23.9176296,19.6856605 L23.8544201,19.806447 L23.8544201,19.806447 L23.7975833,19.9173699 C23.7690298,19.972811 23.7398689,20.0279777 23.7082779,20.081772 L23.6416532,20.1958106 C23.619445,20.2338234 23.5970342,20.2716991 23.5738135,20.3090258 L23.5180318,20.3988557 C23.4899595,20.4437532 23.4613818,20.4884135 23.4312488,20.5318881 L23.3927631,20.5880079 L23.3927631,20.5880079 L23.3163231,20.7005819 C23.2525705,20.7943329 23.1881059,20.8875209 23.1185786,20.9770638 L23.1018337,20.9995082 L23.1018337,20.9995082 L23.0692772,21.0451609 C23.0582694,21.0602145 23.0468643,21.0748817 23.0343359,21.088495 C22.9959946,21.130762 22.9581934,21.173029 22.9241723,21.2185895 C22.8289942,21.3478607 22.7216657,21.4663249 22.6122108,21.5827821 L22.5024185,21.6988963 L22.5024185,21.6988963 C22.2567105,21.9585364 21.9991221,22.2050024 21.7242531,22.432805 C21.6486506,22.4951077 21.5723732,22.5565869 21.4958257,22.6177917 L21.2657782,22.8011317 L21.2657782,22.8011317 C21.1043129,22.9295794 20.9255671,23.0333257 20.7657218,23.1639691 C20.695047,23.2039032 20.6265745,23.2473881 20.558681,23.2918476 L20.4231851,23.3813026 C20.3553422,23.4259164 20.2869962,23.4697873 20.2165239,23.5103389 C20.1063603,23.5740139 19.9979248,23.6422558 19.8881759,23.7074766 L19.8055705,23.755707 L19.6884964,23.8228642 C19.5712704,23.8898155 19.453209,23.9553774 19.330895,24.0126025 C19.3030301,24.0255571 19.2756836,24.0399169 19.2484754,24.0547334 L19.1668852,24.0996045 C19.1532292,24.1069952 19.1395128,24.1142629 19.1256883,24.1212891 L19.0901101,24.1390258 L19.0901101,24.1390258 L19.0184814,24.1732991 C18.9707584,24.1960881 18.9234132,24.2193893 18.8783603,24.2469922 C18.8027578,24.2931017 18.717435,24.3178032 18.6434526,24.3661083 C18.6311093,24.3741069 18.6174436,24.3793272 18.6034126,24.3837794 L18.5716302,24.3933486 C18.5470594,24.4011021 18.5235687,24.4111199 18.5062881,24.4341746 C18.4620067,24.4484466 18.4182652,24.4632675 18.3772239,24.4868712 C18.3592953,24.4969713 18.3405027,24.5055784 18.3214336,24.5136761 L18.2639844,24.5374247 C18.2544671,24.541456 18.2450276,24.5456058 18.2357393,24.5499972 C18.2184587,24.5583094 18.2007373,24.5657703 18.1829152,24.5729687 L18.1294865,24.5943654 C18.1118029,24.6016279 18.0943586,24.6092167 18.0774937,24.617721 L18.0526733,24.6312376 C18.0377983,24.6399206 18.0222003,24.6466846 18.0063941,24.6527656 L17.958866,24.6701958 C17.9326868,24.6801144 17.9073595,24.6915692 17.8852678,24.7102824 C17.8481866,24.7238225 17.8118255,24.7394363 17.7755643,24.7553957 L17.7029915,24.7872633 C17.6544537,24.8081328 17.6053587,24.8275687 17.554237,24.8414748 C17.5333204,24.8650418 17.5069939,24.8762959 17.4794287,24.884944 L17.4436334,24.8953911 C17.4277129,24.9000752 17.4119716,24.9052668 17.3971878,24.9127771 L17.3862916,24.9188728 C17.3506504,24.9406924 17.3101491,24.9554104 17.269344,24.9690477 L17.2138772,24.9873015 L17.2138772,24.9873015 L17.1847985,24.9965002 C17.1608089,25.0044446 17.1374784,25.0138363 17.1152027,25.0303039 C17.0882018,25.0506141 17.0412203,25.0434781 17.0136794,25.0632393 C16.9806892,25.0871922 16.9440037,25.1015096 16.9068655,25.1144758 L16.8696963,25.1272986 C16.8511564,25.1337916 16.8327735,25.1406373 16.8149529,25.1488711 C16.7593311,25.1746704 16.7026293,25.2010187 16.6421473,25.2174863 C16.5892256,25.2323072 16.5444041,25.2745742 16.4855422,25.2789656 C16.4473255,25.3097052 16.4027693,25.3261014 16.3576625,25.3413303 L16.3238196,25.352739 C16.3069369,25.3585398 16.2901804,25.3646397 16.2738553,25.3717334 C16.0891692,25.452425 15.9017831,25.5254316 15.715477,25.6017317 C15.6952264,25.6195717 15.6712256,25.6291207 15.6465217,25.6368907 L15.6167345,25.6457777 C15.5969113,25.6516887 15.5774182,25.6581284 15.5598151,25.6684309 L15.5469916,25.6769341 C15.5258709,25.6927918 15.5026168,25.7023607 15.4789834,25.7107971 L15.4434682,25.7232468 C15.4257876,25.7296916 15.408387,25.7369495 15.3920065,25.7471961 C15.3723634,25.759341 15.3508977,25.7683982 15.3289763,25.7766545 L15.2849311,25.792777 C15.2684901,25.7989306 15.2523054,25.8054914 15.2369537,25.8134239 L15.2219009,25.8218495 C15.2039004,25.8326449 15.1848197,25.8407568 15.1655391,25.8481367 L15.1269719,25.8624991 C15.1065387,25.8702554 15.0865454,25.8786593 15.06806,25.8900797 L15.0544955,25.8992475 C15.0336148,25.9148613 15.0106007,25.9250536 14.9870651,25.9339207 L14.9515721,25.9467394 C14.9338315,25.9531638 14.916251,25.9599948 14.8995104,25.9689606 L14.8833315,25.9777214 L14.8833315,25.9777214 L14.8509088,25.9958358 C14.8128808,26.0169693 14.7737943,26.0370269 14.7299449,26.0447118 C14.7107923,26.0690473 14.6851714,26.0808309 14.6581864,26.0905503 L14.6231414,26.1027349 C14.6037008,26.1097896 14.5846802,26.1180844 14.5679396,26.1314415 C14.5256982,26.1655966 14.4706564,26.1819694 14.4213985,26.2075466 L14.4032342,26.2176222 C14.388801,26.2261555 14.3736047,26.2333005 14.3582038,26.240093 L14.327295,26.2535146 C14.2964446,26.2670797 14.2662661,26.2819958 14.2412289,26.3065476 C14.2104479,26.3139581 14.1838521,26.3294651 14.1577962,26.3462072 L14.1265551,26.3664515 C14.1108309,26.3764309 14.0947762,26.3858668 14.0776036,26.3932773 C14.058883,26.4013281 14.0411224,26.4116357 14.0235018,26.4224311 L13.9882044,26.4441486 C13.9644732,26.4583618 13.9400191,26.4713462 13.9128982,26.4789091 C13.8966977,26.5004668 13.8747132,26.5127155 13.8518523,26.5235834 L13.8288811,26.5342847 C13.8174312,26.5396988 13.8061711,26.5454285 13.7957144,26.5524647 C13.7568331,26.578264 13.7168718,26.6035144 13.6774505,26.6282159 L13.6603306,26.6385142 L13.6603306,26.6385142 L13.6254483,26.6582466 C13.6080292,26.6681128 13.5908793,26.678267 13.5750613,26.6900056 L13.5597267,26.7023204 C13.5240855,26.7336089 13.4814242,26.7517234 13.444703,26.7802673 C13.3917812,26.8214364 13.3366994,26.8604099 13.2816176,26.8982855 C12.8550037,27.1925077 12.4688911,27.5350351 12.1200397,27.9203783 L12.0166431,28.0350905 L12.0166431,28.0350905 L11.9687873,28.0888578 L11.9687873,28.0888578 L11.9229735,28.1409301 L11.9229735,28.1409301 L11.8788119,28.1918304 C11.8715676,28.2002452 11.864376,28.2086329 11.8572288,28.2170045 L11.8148147,28.2671275 C11.807813,28.2754781 11.8008396,28.2838344 11.7938862,28.2922072 L11.7523426,28.3427298 L11.7523426,28.3427298 L11.7108921,28.3941726 L11.7108921,28.3941726 L11.669145,28.4470588 L11.669145,28.4470588 L11.6267115,28.5019113 L11.6267115,28.5019113 L11.5832017,28.5592533 C11.5758388,28.5690468 11.5684147,28.5789658 11.5609215,28.5890212 L11.5150666,28.651078 L11.5150666,28.651078 L11.4671611,28.7169319 L11.4671611,28.7169319 L11.4044414,28.8035964 L11.4044414,28.8035964 L11.3276989,28.9071342 C11.2893576,28.9589387 11.2514214,29.0110863 11.2155102,29.0648807 L11.1093883,29.2236478 C11.0211081,29.355968 10.9336189,29.4886635 10.8499531,29.6242805 L10.8002367,29.7060216 C10.7708057,29.7551501 10.7406997,29.8037297 10.7103237,29.8521035 L10.6187907,29.9969503 L10.6187907,29.9969503 C10.6171707,29.9999973 10.6096104,29.9999973 10.6052903,29.9999973 C10.6009702,29.9991459 10.59611,29.9969503 10.5934099,29.9936567 C10.5901698,29.9898143 10.5880097,29.9837761 10.5880097,29.9788358 C10.5858497,29.8685025 10.5853097,29.7581692 10.6198708,29.6511294 C10.627971,29.6264279 10.6360713,29.6000796 10.6366113,29.5742803 C10.6403915,29.4474793 10.6792727,29.3256186 10.6911531,29.1999155 L10.693149,29.1807252 C10.6943284,29.1711739 10.6960133,29.1618203 10.6992534,29.1532571 C10.7294944,29.0736634 10.7435348,28.9913251 10.7532551,28.9073401 C10.7554152,28.88703 10.7662156,28.8678177 10.7732358,28.8480565 L10.7773484,28.8382547 L10.7773484,28.8382547 L10.7862637,28.818895 C10.7905163,28.8092203 10.7940265,28.7994769 10.7948365,28.7893218 C10.8013887,28.7150344 10.8219358,28.6445723 10.8445135,28.5747 L10.864084,28.5148784 C10.8835938,28.4550503 10.902084,28.3949763 10.9120203,28.3326187 C10.9344696,28.3006244 10.9451157,28.2640931 10.9542456,28.2270001 L10.9632511,28.189867 C10.9725133,28.1528412 10.9836884,28.1165787 11.0070634,28.0850549 C11.0188456,28.0254719 11.0404285,27.9696452 11.0635742,27.9144569 L11.0869357,27.8593659 C11.0985719,27.8318113 11.1099122,27.8041565 11.1199271,27.7760118 C11.1723088,27.6283518 11.2371109,27.486181 11.3046131,27.345108 C11.4261171,27.0909572 11.5659817,26.8477847 11.7101664,26.606259 C11.7518249,26.5360754 11.7981672,26.4692526 11.8450606,26.4029898 L11.9013326,26.3235642 C12.0174364,26.1588876 12.1357002,25.9953088 12.2663845,25.8421596 L12.3098199,25.7912609 L12.3098199,25.7912609 L12.3970827,25.6898115 C12.5577213,25.5044269 12.7226223,25.3230362 12.9025253,25.156556 C13.0888313,24.9841945 13.2756774,24.8123819 13.4733239,24.6526456 C13.6056282,24.5450569 13.7390126,24.4391149 13.875637,24.3370154 L13.9780463,24.2601578 C14.08054,24.1832487 14.1837171,24.1068799 14.2914506,24.037304 C14.5085377,23.8973289 14.7213046,23.7518646 14.9405518,23.615183 C15.0175943,23.5670608 15.0958368,23.5209514 15.1743594,23.4753095 L15.3315053,23.3841915 C15.4361546,23.3232514 15.5402113,23.2613113 15.6414946,23.1947087 C15.6703856,23.1897684 15.6941464,23.1750848 15.7174346,23.159166 L15.7407379,23.1431507 C15.7524833,23.1352524 15.7644986,23.1277542 15.7773663,23.1217199 L15.7905395,23.1162129 C15.8103851,23.1090083 15.8290158,23.098716 15.8473141,23.087536 L15.8837295,23.0646443 C15.8958946,23.0570537 15.9081737,23.0497204 15.9208282,23.0432963 L15.9401244,23.0344235 C15.9544103,23.0284353 15.9678126,23.0207322 15.9809117,23.0124724 L16.006878,22.9955536 C16.0327843,22.9785786 16.0590264,22.9624648 16.0902493,22.9564766 C16.143171,22.9243647 16.1974428,22.8945856 16.2520521,22.8653555 L16.3614206,22.8070987 C16.3796237,22.797335 16.3977893,22.7875001 16.4158799,22.777528 C16.5379239,22.7105595 16.6615879,22.6468846 16.7836319,22.580465 L16.980943,22.4736653 C17.0684857,22.4259491 17.1555498,22.3772855 17.2410268,22.3252163 C17.33769,22.2664816 17.4327331,22.2044534 17.5299363,22.1468166 L17.5993201,22.1042838 L17.5993201,22.1042838 L17.7362652,22.0167479 L17.7362652,22.0167479 L17.8053452,21.9739062 C17.8707645,21.9346975 17.9335388,21.891187 17.9958849,21.8468572 L18.0893599,21.7801831 L18.0893599,21.7801831 L18.136376,21.7472014 C18.2168387,21.6912114 18.2962213,21.6335746 18.3734438,21.5731931 L18.4286268,21.5308747 L18.4286268,21.5308747 L18.540208,21.4470612 C18.5587373,21.4329436 18.5771654,21.4186716 18.595391,21.4041252 C18.870584,21.1843368 19.1321349,20.9492469 19.3765314,20.6948389 L19.514231,20.5497967 C19.5427169,20.5196746 19.5709329,20.4893466 19.5982037,20.4583325 C19.7456286,20.2909113 19.8854931,20.1169031 20.0194175,19.9379545 C20.1533419,19.758457 20.2775459,19.5718235 20.3882495,19.3775051 C20.5038133,19.173855 20.6139769,18.9669115 20.70902,18.751734 C20.7194153,18.7279931 20.7292031,18.7039778 20.7388053,18.6798681 L20.7674769,18.6074362 C20.7867825,18.5591996 20.8070332,18.5113062 20.831604,18.4651967 C20.8434844,18.4426909 20.8510446,18.417715 20.8573898,18.3921215 L20.8709261,18.3342756 C20.8724934,18.3279062 20.8741304,18.321585 20.8758854,18.315341 C20.8813687,18.2955798 20.8881748,18.2762279 20.8954477,18.2570221 L20.9178107,18.1995802 C20.9349614,18.1548349 20.9499925,18.1094531 20.9520279,18.0600923 C20.9822689,18.0117872 20.9959205,17.9580172 21.0074832,17.9033625 L21.01599,17.8622771 C21.0217022,17.8348716 21.0277984,17.8075312 21.0360911,17.7808284 L21.0427509,17.7609298 C21.0613515,17.7093921 21.0726185,17.6551437 21.0824781,17.6003494 L21.0940133,17.5344727 C21.0959496,17.5234958 21.0979245,17.5125317 21.0999853,17.5015977 L21.106473,17.4689033 L21.108633,17.4535335 C21.1404941,17.3097159 21.1664149,17.1653494 21.1745152,17.0176894 C21.1756724,16.997693 21.1796068,16.9778982 21.184363,16.9581322 L21.1943919,16.9185874 C21.1977139,16.9053844 21.2008217,16.8921431 21.2031361,16.8788121 C21.2057282,16.8636619 21.2065706,16.8479188 21.2068298,16.8321757 L21.2069162,16.8008652 L21.2069162,16.8008652 C21.2069162,16.7975717 21.2020561,16.7926314 21.198816,16.7915335 C21.1944958,16.7898868 21.1869356,16.7887889 21.1842355,16.7915335 L21.1443433,16.8310384 C21.1244231,16.8509049 21.1048529,16.8711272 21.0870323,16.8925352 L20.8796319,17.1432371 L20.8796319,17.1432371 L20.8440097,17.1859721 L20.8440097,17.1859721 L20.7916477,17.2479337 L20.7916477,17.2479337 L20.7566482,17.288588 L20.7566482,17.288588 L20.7209308,17.3293388 L20.7209308,17.3293388 L20.6839431,17.3707166 L20.6839431,17.3707166 L20.6451326,17.4132522 C20.6384815,17.4204674 20.6317315,17.4277529 20.6248711,17.4351199 L20.5822903,17.480387 L20.5822903,17.480387 L20.5365055,17.5281386 C20.528577,17.5363337 20.5204919,17.5446544 20.5122388,17.5531118 L20.4606119,17.6055849 C20.3542284,17.7126247 20.251085,17.8218601 20.1414615,17.9256064 L20.0702213,17.991357 L20.0702213,17.991357 L19.925716,18.1205938 C19.9016936,18.1422591 19.8777979,18.164113 19.8541721,18.1863444 L19.7998377,18.2369286 C19.7269655,18.3040113 19.6518815,18.3689158 19.5685028,18.4229297 C19.4220037,18.5552592 19.265462,18.6737507 19.1066248,18.789196 L19.0004782,18.8658266 L19.0004782,18.8658266 L18.8941617,18.9422652 L18.841099,18.9806345 C18.7579363,19.0410159 18.6709935,19.0981038 18.5829706,19.1513492 C18.5724943,19.1577167 18.5623203,19.1646112 18.5522717,19.1717296 L18.5073006,19.2042516 C18.4821223,19.222023 18.4560665,19.2383534 18.4263655,19.2485084 C18.4091831,19.2694673 18.3873146,19.2832811 18.364513,19.295672 L18.3369433,19.3102244 C18.3231747,19.3175254 18.3096105,19.3251381 18.2970615,19.3342986 L18.2848809,19.3440209 C18.2692204,19.3577439 18.2513998,19.3680515 18.2330392,19.3774848 L18.1915,19.3983067 C18.1686758,19.410246 18.1469064,19.4237975 18.1293558,19.4439247 C18.0920946,19.4562754 18.0584785,19.4756249 18.0255374,19.4962781 L17.9861421,19.5213232 C17.9729916,19.5296372 17.959759,19.5377953 17.9462542,19.545433 L17.9257692,19.5564537 C17.8985523,19.5702865 17.8719402,19.5854368 17.8455182,19.6010262 L17.7664078,19.6482334 C17.7531795,19.6560281 17.7398951,19.663713 17.7265027,19.6711784 L17.6856169,19.6930255 L17.6856169,19.6930255 L17.6027825,19.7354023 C17.5752113,19.7496742 17.5478648,19.7643853 17.521296,19.7804139 C17.3668509,19.8737306 17.2048456,19.9538732 17.0428404,20.0318201 C17.0158395,20.0447747 16.9890546,20.0581904 16.9623475,20.0717685 L16.8823212,20.1126917 C16.8022517,20.1535052 16.7216379,20.1930934 16.6367471,20.2233939 C16.6023824,20.2358694 16.5773898,20.2683057 16.5394547,20.276987 L16.5276636,20.278835 C16.5058174,20.2805816 16.4878763,20.291061 16.4703409,20.302953 L16.4492693,20.3174328 C16.4350528,20.3269134 16.4202,20.3354239 16.4029195,20.3392165 C16.3782812,20.3443626 16.3546976,20.355727 16.3313777,20.3678151 L16.3034698,20.3823165 C16.2988226,20.3846741 16.2941734,20.3869727 16.2895158,20.3891684 C16.1356108,20.4616261 15.9795457,20.5291435 15.8256406,20.6005033 C15.8105202,20.6075021 15.7951634,20.6140549 15.7797645,20.6205133 L15.7336351,20.6399571 C15.7030566,20.6531999 15.6730857,20.6674718 15.6452748,20.6855863 C15.592893,20.7196194 15.530791,20.7300489 15.4789493,20.7673756 C15.4451982,20.791734 15.4072282,20.8100886 15.3688627,20.8276659 L15.322879,20.8487201 C15.3152649,20.8522784 15.3076962,20.8558893 15.3002035,20.8595945 L15.2520238,20.8838243 L15.2520238,20.8838243 L15.1566769,20.9339306 C15.1407295,20.9421387 15.1246978,20.9501667 15.1084972,20.9578516 C15.0935118,20.9649876 15.0787963,20.972844 15.0641567,20.9809663 L15.0202719,21.0056764 C14.9909084,21.0220754 14.9610724,21.0377197 14.9292114,21.0489726 C14.9116608,21.074223 14.886685,21.0865738 14.8606292,21.0974836 L14.8381791,21.1067493 C14.8232333,21.1130475 14.8085269,21.1199442 14.7952437,21.1295775 L14.7855667,21.1373491 C14.7666661,21.1540912 14.7442554,21.1667164 14.7210346,21.1785182 L14.6859335,21.1960151 C14.6742556,21.201916 14.6627127,21.2080228 14.6516423,21.2147471 C14.4755966,21.3217869 14.3000909,21.4299245 14.1299853,21.5451981 C13.9698026,21.6542278 13.8121006,21.7678803 13.6590499,21.8876268 L13.4378402,22.0629756 C13.3687368,22.1181047 13.300364,22.1740275 13.2346361,22.2329974 C12.9910882,22.4509194 12.7502403,22.6726839 12.5309931,22.9164053 L12.490357,22.9612595 L12.490357,22.9612595 L12.4087292,23.0504846 C12.3271665,23.1396946 12.2464039,23.2294738 12.1718814,23.3253522 L12.1045002,23.4113222 L12.1045002,23.4113222 L11.9692711,23.5826824 C11.9244021,23.6399723 11.8799479,23.6976311 11.8365305,23.756256 C11.7031461,23.9363024 11.5794821,24.1223869 11.4595982,24.311765 C11.3764355,24.4435063 11.2938128,24.5752476 11.2171303,24.7108313 C11.1528682,24.8244582 11.0934662,24.9402807 11.0281241,25.0528097 C11.0117436,25.0811707 10.9966831,25.1103246 10.9821026,25.1397834 L10.9389612,25.2285868 C10.931731,25.2433772 10.9244107,25.2581218 10.9168955,25.2727597 L10.8936597,25.3162923 C10.8744351,25.3507646 10.8564201,25.3859395 10.8387507,25.4213252 L10.7859154,25.5276229 C10.7769943,25.5452806 10.7679436,25.5628681 10.7586553,25.5803238 C10.7343545,25.6258843 10.7136988,25.6736405 10.6938532,25.7219457 L10.6643379,25.7946092 C10.6544657,25.8188304 10.6444416,25.842983 10.6339112,25.8668611 C10.6319826,25.8719582 10.6242681,25.8750949 10.6166716,25.8772714 L10.6079904,25.8794863 L10.6079904,25.8794863 C10.59557,25.8827798 10.5869297,25.8761928 10.5858497,25.8635675 C10.5836896,25.8377682 10.5793695,25.81142 10.5799095,25.7856206 C10.5820695,25.6857168 10.5858497,25.585813 10.5890898,25.4859092 C10.5907098,25.4491314 10.5923299,25.4123537 10.59449,25.3755759 L10.5952676,25.3499566 C10.5956564,25.3372172 10.596434,25.3246359 10.5993501,25.3124498 C10.6175757,25.2399464 10.627176,25.1661088 10.63487,25.0919694 L10.6481117,24.9584155 C10.6543719,24.8991116 10.6619922,24.840011 10.6744126,24.7816423 C10.6778687,24.7653942 10.6801151,24.7487948 10.6819123,24.7320549 L10.6867163,24.6816243 C10.6875458,24.6732192 10.688453,24.6648317 10.6895331,24.6564881 C10.6938532,24.6251995 10.6938532,24.5922642 10.7041135,24.5631713 C10.7281143,24.4968127 10.7418748,24.4282856 10.7480498,24.3583609 L10.750015,24.3320751 C10.750555,24.3271348 10.750555,24.3216456 10.7521751,24.3167053 C10.7719757,24.2648627 10.7846095,24.2111564 10.7959099,24.1570925 L10.8092036,24.0921405 C10.8136704,24.0704969 10.8182973,24.0488924 10.8234574,24.0274234 C10.8439781,23.9412427 10.8769192,23.8578065 10.8995999,23.7716258 L10.9037356,23.7545964 L10.9037356,23.7545964 L10.9115403,23.7205964 C10.9194606,23.6867258 10.9285809,23.6534246 10.9465814,23.622319 C10.9536788,23.6100859 10.9565442,23.5953434 10.958805,23.58014 L10.9621963,23.5572453 L10.9621963,23.5572453 L10.9659831,23.5380434 L10.9695997,23.5135638 C10.9714223,23.5029285 10.9741223,23.4930479 10.9800625,23.4856374 C11.0039064,23.4551934 11.0138152,23.4199746 11.0224354,23.3843519 L11.0298034,23.3538212 C11.0348983,23.3335373 11.0407522,23.3135292 11.0497248,23.2946126 C11.0788858,23.2331333 11.0977864,23.1672626 11.1210071,23.1030388 C11.178249,22.9460471 11.2430511,22.7928978 11.3105533,22.6402975 C11.3405243,22.5725743 11.373381,22.5062405 11.4068452,22.4401962 L11.4739086,22.3081675 C11.5071704,22.2420203 11.5395208,22.1754292 11.5686817,22.1072943 C11.6286237,22.0287984 11.6653449,21.9354817 11.7166466,21.8514966 C11.7652482,21.7719029 11.8133097,21.6923092 11.8635314,21.6138134 C11.8899922,21.5723698 11.9173981,21.5316123 11.9451415,21.4910607 L12.0287768,21.3695431 L12.0287768,21.3695431 L12.0624579,21.319952 L12.0624579,21.319952 L12.12895,21.2203735 C12.1622961,21.1706961 12.1961822,21.1214303 12.2323634,21.0736741 C12.4764514,20.7498101 12.7345798,20.4391203 13.0143089,20.1465448 C13.2475965,19.9028235 13.4916845,19.6717273 13.7460328,19.4510607 L13.8142438,19.3934582 L13.8142438,19.3934582 L13.9516782,19.2803116 C13.9744265,19.2613395 13.997006,19.2421958 14.0192817,19.2227091 C14.1056845,19.1480557 14.1942474,19.0777937 14.2849704,19.0086295 L14.358926,18.9519769 L14.358926,18.9519769 L14.506724,18.8382973 C14.6054323,18.7626901 14.7047955,18.6879022 14.8066274,18.6166992 C15.009674,18.4750773 15.2105606,18.3307108 15.4109071,18.1863444 C15.6571551,18.0090426 15.897463,17.822958 16.1329107,17.6302864 C16.1971728,17.5775899 16.264135,17.5281869 16.326777,17.4743925 L16.411404,17.401913 L16.411404,17.401913 L16.5808819,17.2573275 C16.8067723,17.0645292 17.0315982,16.870728 17.246427,16.6647326 C17.4111324,16.5071919 17.5742177,16.3480046 17.736763,16.1882683 C17.8771676,16.0499399 18.0108519,15.9050245 18.1432563,15.7590519 L18.3415827,15.5399914 L18.3415827,15.5399914 C18.4366258,15.4353302 18.5249487,15.324326 18.6124716,15.2125086 L18.699947,15.1006249 L18.7438959,15.0448637 C18.9539627,14.7791855 19.1494491,14.5025288 19.3335951,14.2181872 C19.4151978,14.092545 19.4914669,13.9635145 19.5665694,13.8337309 L19.7013938,13.5998766 C19.7164343,13.5739289 19.7315281,13.5480144 19.7467086,13.5221541 C19.7617751,13.4618824 19.8035238,13.4158389 19.8286509,13.3604136 L19.8363515,13.3415587 C19.8579522,13.2828241 19.8919733,13.2290297 19.9178942,13.1719418 L19.9809762,13.0351383 C20.0227776,12.9437732 20.0636989,12.8519203 20.1015002,12.7586036 L20.1098679,12.7364205 L20.1098679,12.7364205 L20.1249234,12.6915665 C20.1324162,12.6692665 20.1403814,12.6474469 20.1511818,12.6274112 C20.1700824,12.5926461 20.1814828,12.5559751 20.1953832,12.5199394 L20.2041035,12.4984145 C20.2466878,12.3991381 20.2741956,12.2950221 20.311112,12.1943629 L20.3304676,12.1443598 C20.3666488,12.0565323 20.3698889,11.9719983 20.3293876,11.8852686 C20.3239874,11.8734668 20.3193973,11.8612533 20.3151446,11.8489026 L20.3029267,11.8117131 L20.3029267,11.8117131 L20.2949335,11.7859282 L20.2949335,11.7859282 L20.2799295,11.7339646 C20.2698975,11.6993521 20.2591853,11.6650725 20.2440648,11.6327645 C20.2359646,11.615199 20.2292443,11.5971456 20.2230041,11.5789905 L20.2048235,11.5246066 C20.1986433,11.5066344 20.1920431,11.488947 20.1841229,11.4719304 C20.1614421,11.4232331 20.1419354,11.3732252 20.1232221,11.3229004 L20.0861482,11.2221228 C20.0736727,11.1885858 20.0608446,11.1552024 20.0469584,11.1222671 C20.0429706,11.1128087 20.0385865,11.1034673 20.0340009,11.0941748 L20.0126622,11.05246 C19.9936532,11.0152662 19.9760915,10.977225 19.972436,10.9339868 C19.9472351,10.9022866 19.9334272,10.8653563 19.9210433,10.8277723 L19.9105449,10.7955041 C19.9052375,10.7793966 19.8996686,10.7634093 19.8930534,10.7479022 C19.8877612,10.7353868 19.8818858,10.7231349 19.8757642,10.7109971 L19.8476919,10.656644 C19.8324364,10.626316 19.8188009,10.5953019 19.8120507,10.5612688 C19.7916773,10.5375653 19.7791141,10.5098924 19.7677681,10.4814462 L19.7543151,10.4471441 C19.7474588,10.4300121 19.7400912,10.4130619 19.7307884,10.396984 L19.7207877,10.3812223 C19.7032372,10.3559719 19.6896017,10.3278397 19.6770463,10.2989527 L19.6494231,10.2335806 C19.6462906,10.2263749 19.6430927,10.2192217 19.6397851,10.2121544 C19.6135042,10.1554324 19.5844033,10.1002353 19.5545223,10.0454651 L19.4943248,9.93616858 C19.4543057,9.86325005 19.4153178,9.78978938 19.3821967,9.71318426 C19.359786,9.69067846 19.3442605,9.66364405 19.32968,9.63599211 L19.3122569,9.60276366 C19.3063469,9.59175558 19.300208,9.580899 19.2934599,9.57044423 L19.2828335,9.55509473 C19.2532096,9.51604285 19.2346947,9.47013504 19.2075648,9.42877865 L19.1931905,9.40853255 C19.1807701,9.39224786 19.1697898,9.37480434 19.1593294,9.35693388 L19.1285884,9.30277358 C19.1182481,9.28478113 19.1075077,9.26709365 19.0954473,9.25044301 C19.0665564,9.21050894 19.0383742,9.17009455 19.0104283,9.12951721 L18.9268268,9.00761364 C18.870935,8.9264418 18.8140982,8.84588749 18.7525361,8.76848949 C18.6391324,8.62631869 18.5230287,8.4868925 18.4031447,8.35075984 C18.2832608,8.21462719 18.1482564,8.09386434 18.011092,7.97474827 C17.9171289,7.89295889 17.8226258,7.8133652 17.7216425,7.74145642 L17.6794357,7.71172358 C17.664913,7.70160258 17.6499742,7.69130091 17.6347322,7.68090678 L17.5882094,7.64953518 C17.5803416,7.64428975 17.5724262,7.63904325 17.5644774,7.63380671 L17.5164956,7.60259515 C17.4282067,7.54591642 17.3392827,7.49311055 17.2685059,7.45885138 L17.2496671,7.44997883 C17.2345466,7.4431173 17.2197974,7.43532947 17.2051072,7.4273701 L17.1757131,7.41144628 C17.1412961,7.39312347 17.1060674,7.37660625 17.0660611,7.37148298 C17.0417603,7.34376242 17.0097643,7.33415629 16.9770932,7.3261283 L16.952573,7.32014484 C16.9281457,7.31394052 16.9043258,7.30629849 16.8840752,7.29024253 L16.8424904,7.27928982 C16.6899876,7.23990562 16.5370689,7.21101478 16.3791587,7.25730721 C16.3206706,7.26068519 16.2662727,7.27903023 16.2125668,7.29942204 L16.1723642,7.31489779 C16.1522746,7.32262568 16.132163,7.33018716 16.11185,7.3369009 C16.0857491,7.34543968 16.061815,7.36092471 16.0382883,7.37770862 L16.0101393,7.39811135 C16.0007464,7.40487913 15.991306,7.4114933 15.9817057,7.41759243 C15.8850426,7.47962062 15.8040399,7.56031215 15.7251974,7.64319938 C15.6153938,7.75883895 15.5055902,7.87423455 15.3961066,7.98987412 L15.2321613,8.16357744 C15.0264146,8.3820484 14.8190478,8.59942151 14.610601,8.81514786 C14.5153419,8.91395382 14.420774,9.0134624 14.3264826,9.1132169 L14.0440232,9.41276144 C13.9969466,9.46265626 13.9498354,9.51249838 13.9026379,9.56223071 C13.6709703,9.80595208 13.4393028,10.0496735 13.2065552,10.2928459 C13.138513,10.3636568 13.0753309,10.4394081 13.0062086,10.5085723 C12.679498,10.8357298 12.3711479,11.1810017 12.0498374,11.5136484 C11.913213,11.6547214 11.7771285,11.7963433 11.6415841,11.9385141 C11.5271004,12.0581791 11.4153167,12.1800398 11.2992129,12.298058 C11.2581716,12.3397761 11.2344108,12.3930215 11.1971496,12.4363863 C11.1339676,12.5845953 11.0983264,12.7328042 11.1577283,12.8936384 C11.1949895,12.9940911 11.238731,13.0857611 11.3245938,13.1521806 C11.5135999,13.3591242 11.7053062,13.5627743 11.8970125,13.7669733 C11.9167231,13.7878323 11.9371088,13.807868 11.9576969,13.8276978 L12.0195965,13.8871872 L12.0195965,13.8871872 C12.0529875,13.9198481 12.0926263,13.9414885 12.1332605,13.9614791 L12.1856394,13.9870097 C12.1972172,13.9928089 12.2086926,13.9988013 12.219943,14.0052054 C12.2329034,14.0128903 12.249644,14.0161839 12.2647645,14.0161839 C12.342527,14.0172817 12.4197495,14.0183796 12.497512,14.0172817 C12.5174927,14.0167328 12.5407135,14.0123414 12.556914,14.001363 C12.5852649,13.9816018 12.6164509,13.9691138 12.648312,13.9584098 L12.7059243,13.9398837 C12.7186817,13.935668 12.7313397,13.9312107 12.7437601,13.9261607 C12.7579667,13.9203336 12.7719145,13.9136297 12.7858225,13.9067098 L12.8136502,13.8927781 C12.8508561,13.8743411 12.8888171,13.8575032 12.9316862,13.8548008 C12.9620934,13.8299726 12.9968718,13.8154343 13.0326766,13.8029828 L13.0867357,13.7848451 C13.1107324,13.776568 13.1344421,13.7673955 13.1568736,13.754897 C13.215938,13.7222361 13.2836849,13.706386 13.3467288,13.6812375 L13.3734206,13.6698141 C13.3912412,13.6615803 13.4097045,13.6549796 13.4283503,13.648854 L13.465749,13.6368932 C13.5031186,13.6248796 13.5399915,13.6116783 13.5726871,13.5880247 C13.6163304,13.5831343 13.6555999,13.5657956 13.6942532,13.5473253 L13.7273212,13.5314804 C13.738352,13.5262823 13.7494202,13.5212558 13.7606133,13.5166648 C13.7760038,13.5103522 13.791833,13.5050003 13.8077804,13.4998541 L13.8397377,13.4896126 C13.8769833,13.4774627 13.9137083,13.4636939 13.9458393,13.4387179 C13.9802654,13.4339149 14.011879,13.4215832 14.0429065,13.4073614 L14.0986043,13.3809388 C14.1172799,13.3722628 14.1362255,13.3641243 14.1559221,13.3577411 L14.1758868,13.3519882 C14.2504092,13.3333249 14.3179114,13.2883133 14.3913538,13.2652586 C14.4064743,13.2605012 14.4206948,13.2542191 14.4345553,13.2474288 L14.4755966,13.2265494 C14.489277,13.219759 14.5031375,13.2134769 14.517718,13.2087196 L14.5507012,13.1984102 C14.5834314,13.1881693 14.6153262,13.1771566 14.6457021,13.156572 C14.6620227,13.1453496 14.6811166,13.1384644 14.7010877,13.1327839 L14.7467025,13.1207144 C14.7568124,13.1178967 14.7667861,13.1147929 14.7763864,13.1110115 C14.793667,13.104125 14.8111261,13.0976015 14.8286598,13.0912066 L14.8813811,13.0721737 C14.9429082,13.0498725 15.0040775,13.0262779 15.0604357,12.9913465 C15.1002006,12.9846097 15.1372878,12.9703876 15.1737258,12.9542994 L15.2390513,12.9245388 C15.2608849,12.914756 15.2829229,12.905515 15.3056037,12.8980297 C15.3213992,12.8926778 15.3369584,12.8863308 15.3524249,12.8796066 L15.3986892,12.8589191 C15.4218256,12.8486268 15.4450759,12.8388748 15.4689242,12.8317474 L15.4929898,12.825572 C15.5190906,12.8200828 15.5417226,12.8078274 15.5639327,12.794881 L15.5905773,12.7794026 C15.6129375,12.7668755 15.6360945,12.7560877 15.6630953,12.7531143 C15.6783958,12.7515896 15.6925296,12.7419326 15.7067005,12.7310144 L15.7238003,12.7177469 C15.7266789,12.7155813 15.7295783,12.7134752 15.732508,12.7114836 L15.7413979,12.705907 C15.7869255,12.6798966 15.8220235,12.6432845 15.8552494,12.6047695 L15.8922902,12.5610961 C15.9005465,12.5514164 15.9088864,12.5418216 15.9174436,12.5324477 C15.9231138,12.516529 15.9299653,12.5010562 15.9371543,12.4857121 L15.9517323,12.4551015 C15.9686816,12.4193698 15.9844058,12.3831866 15.9881859,12.3425207 C15.9917861,12.3040961 15.9983863,12.2660985 16.0057465,12.2282026 L16.0208166,12.1524498 C16.030654,12.1019099 16.0391876,12.0511651 16.0411077,11.9994444 C16.0420334,11.9790559 16.0468385,11.9586674 16.0523992,11.9382788 L16.0609167,11.907696 L16.0609167,11.907696 L16.0648684,11.8924046 C16.0718887,11.861665 16.0864692,11.8314743 16.0864692,11.8007347 C16.0873586,11.7220774 16.1208434,11.657939 16.1606836,11.5972825 L16.1780706,11.5714678 C16.1810077,11.5671902 16.1839582,11.5629223 16.1869124,11.55866 C16.2376741,11.4851045 16.3057163,11.4313101 16.3856389,11.3884942 C16.4515211,11.3528143 16.5174032,11.3303085 16.5913856,11.3314063 C16.6534877,11.3325042 16.7155897,11.3341509 16.7776917,11.3363466 C16.8098228,11.3373073 16.8386462,11.347934 16.8681415,11.3608723 L16.8808351,11.3665373 C16.940129,11.393215 17.0002006,11.4181141 17.0604665,11.4426575 L17.1810849,11.4916916 L17.1810849,11.4916916 C17.2156875,11.4937606 17.2451233,11.5088803 17.2741134,11.52531 L17.2989631,11.5394395 C17.3156036,11.548708 17.332539,11.5573089 17.3506504,11.5630514 C17.3608336,11.5661881 17.3697825,11.5736266 17.3783031,11.5820893 L17.3970919,11.601476 C17.4554138,11.6591128 17.4856548,11.7299237 17.4888949,11.812262 C17.491595,11.8808773 17.4932151,11.9489436 17.4953751,12.0175588 L17.49783,12.1086679 C17.5009153,12.2149336 17.5058155,12.3210517 17.523456,12.4265057 C17.5416966,12.5328746 17.5467101,12.6401109 17.5498747,12.7478292 L17.5509969,12.7882453 C17.5553171,12.9617047 17.5639574,13.1351641 17.5812379,13.3080745 C17.5914211,13.4097035 17.5970197,13.5116909 17.6017617,13.613832 L17.6086985,13.7671333 C17.6099029,13.7926942 17.6111703,13.8182583 17.612559,13.8438224 L17.613279,13.8701706 L17.613279,13.8701706 L17.612559,13.9228671 L17.612559,13.9228671 C17.6114789,14.0869948 17.5320963,14.2116001 17.4159925,14.3158953 C17.3657709,14.3614558 17.3106891,14.3998804 17.2399468,14.409212 C17.2275264,14.4108588 17.215511,14.4153874 17.2036306,14.4206708 L17.1799698,14.4316136 C17.1760297,14.4333951 17.1720846,14.4351029 17.1681244,14.4366581 C17.153544,14.4426963 17.1395035,14.4525769 17.124923,14.4536747 C17.0412203,14.4591639 16.9656178,14.4953928 16.8862353,14.5146051 C16.7991574,14.5356013 16.7129908,14.5581414 16.6270521,14.5819938 L16.541164,14.606275 C16.5168632,14.6139599 16.4909424,14.6183513 16.4655615,14.6227427 L16.4553412,14.6241582 L16.4553412,14.6241582 L16.4342405,14.6255559 C16.4237102,14.6263107 16.4134498,14.627683 16.4045395,14.6320744 C16.3645782,14.6515611 16.3220518,14.6622651 16.2793229,14.6718026 L16.2281023,14.6831752 C16.2110971,14.6871043 16.1942108,14.6913343 16.1775944,14.6963526 L16.1528913,14.7045321 C16.0774431,14.7318213 15.998821,14.745802 15.9221259,14.7679062 L15.8839625,14.7797344 C15.8705971,14.784263 15.8569954,14.7879682 15.8432925,14.7913732 L15.8020149,14.801211 C15.774474,14.8078666 15.7470681,14.8154143 15.7208772,14.8280395 C15.7054482,14.8355676 15.6880794,14.8387939 15.6702825,14.8412008 L15.6434548,14.844632 L15.6434548,14.844632 L15.6213345,14.8479736 L15.6213345,14.8479736 L15.602892,14.8493531 C15.5905677,14.8502429 15.5786212,14.8517216 15.5696723,14.8576813 C15.5270109,14.8864997 15.4796244,14.8981643 15.4314278,14.9071529 L15.3770714,14.9168996 C15.3529446,14.9214084 15.3289824,14.9266055 15.3056741,14.9343006 L15.2883231,14.9405685 C15.2379215,14.9603907 15.1848531,14.9734361 15.1313402,14.9852579 L15.0670537,14.9992121 C15.0456485,15.0039046 15.0243145,15.0087568 15.0031938,15.0141241 C14.9907734,15.0174176 14.978488,15.0215345 14.9662701,15.0259259 L14.9297514,15.0393745 C14.9103108,15.0459616 14.8914102,15.0563911 14.8714295,15.0591357 C14.8175628,15.0657228 14.7658223,15.0794115 14.71393,15.0948757 L14.6619027,15.1107344 L14.6619027,15.1107344 C14.5933204,15.1315934 14.5225781,15.1491589 14.4518358,15.1639798 C14.4222595,15.1702291 14.3932966,15.1790248 14.3644439,15.1882883 L14.3211845,15.2022744 C14.2706647,15.2183945 14.2197113,15.2327639 14.1656265,15.2342418 C14.1548261,15.2345555 14.1440258,15.2393501 14.1332254,15.2449386 L14.1170249,15.2534557 C14.1143248,15.2548208 14.1116247,15.2561203 14.1089246,15.2572965 L14.1034683,15.2602519 L14.1034683,15.2602519 L14.0926334,15.2667424 C14.0889872,15.2687361 14.0852719,15.2703609 14.0813837,15.2710196 L14.0540027,15.2758545 L14.0540027,15.2758545 L13.9987999,15.2845758 C13.980422,15.2876409 13.9621478,15.2911101 13.9442193,15.2957211 C13.9315674,15.2990146 13.9190919,15.3034732 13.9066794,15.3083159 L13.8695173,15.3232152 C13.8509174,15.33046 13.8322042,15.3368118 13.812995,15.3396348 C13.7583932,15.3475637 13.7057915,15.3627777 13.6535231,15.3788764 L13.5908544,15.3982099 C13.569947,15.4045228 13.5489864,15.4105678 13.5278657,15.415935 C13.477644,15.4291091 13.4290424,15.4499682 13.3772008,15.4499682 C13.3541273,15.4502177 13.3347357,15.4587464 13.3160846,15.4686464 L13.2938705,15.4807424 C13.279047,15.4886558 13.2639443,15.4956784 13.2470565,15.4982733 C13.2368562,15.4998591 13.2264692,15.500984 13.2160259,15.5019734 L13.1846574,15.5048604 C13.1585936,15.5074694 13.1329928,15.5112644 13.109892,15.521328 C13.0360896,15.5535314 12.9591671,15.5713409 12.8820046,15.5877679 L12.8241327,15.6000323 C12.8048571,15.6041695 12.7856114,15.6084236 12.7664408,15.612998 C12.7416,15.6190361 12.7162192,15.6261721 12.6929984,15.6371506 C12.6594498,15.653481 12.6246609,15.6618263 12.5886316,15.6662316 L12.5731145,15.6678902 C12.5356733,15.6713057 12.4999388,15.6777572 12.4678074,15.6968829 L12.4559307,15.704668 C12.4478304,15.7101572 12.4370301,15.7150975 12.4273098,15.7161953 C12.3485503,15.7248092 12.2727816,15.7462853 12.1973493,15.7691287 L12.1219307,15.792002 C12.0715952,15.8069871 12.0210159,15.8208768 11.9694063,15.8302652 L11.9304935,15.8364092 C11.9250934,15.8369582 11.9202332,15.838056 11.9153731,15.8402517 C11.8294785,15.8797095 11.7391629,15.8870677 11.64829,15.8888368 L11.5853364,15.8894945 C11.5783423,15.8895407 11.5713501,15.8895901 11.5643616,15.8896547 C11.4865991,15.8902036 11.4088365,15.8891058 11.331074,15.8863612 C11.268972,15.8841655 11.20795,15.8770295 11.149088,15.8517791 C11.1069667,15.8336646 11.0572851,15.8331157 11.0140836,15.817197 C10.9706122,15.8010038 10.9275458,15.7835755 10.8846144,15.7658042 L10.7559552,15.7123529 L10.7559552,15.7123529 C10.7249942,15.6878344 10.6918731,15.6664264 10.658252,15.6457097 L10.6076529,15.6148506 C10.5570937,15.5839051 10.5072771,15.5517932 10.4638057,15.5103496 C10.4152041,15.4642401 10.3644424,15.4197774 10.3185409,15.3714723 L10.1045212,15.146142 C9.99759768,15.0332924 9.891063,14.9199291 9.78608358,14.8049848 C9.70637697,14.7175964 9.62580635,14.6310863 9.54495923,14.5448572 L9.30217595,14.286416 L9.18126384,14.1567079 L9.07697564,14.0456149 L9.07697564,14.0456149 L8.86671438,13.824957 C8.79668489,13.75134 8.72700102,13.6773892 8.65852678,13.6022967 C8.59210462,13.5292901 8.52487242,13.4571068 8.45743772,13.385198 L8.25513362,13.1697461 L8.25513362,13.1697461 L8.17649106,13.0867979 C8.16345063,13.0728919 8.15055021,13.0588639 8.1379498,13.0445919 C8.052087,12.9479816 8.00834557,12.8354526 8.00078532,12.7042603 C7.99563715,12.6143469 8.01644823,12.5318549 8.04423586,12.4503524 L8.05748717,12.4127827 L8.05748717,12.4127827 C8.09150828,12.3814941 8.10878885,12.3370315 8.14010987,12.3019004 C8.23018481,12.2021064 8.32142618,12.1034981 8.41313414,12.005364 L8.59696478,11.8095174 L8.59696478,11.8095174 C8.93447579,11.4505224 9.27090677,11.0915274 9.60841778,10.7330814 C9.95672914,10.362559 10.3072006,9.99423233 10.6522718,9.62096537 C10.778636,9.48428379 10.9066201,9.34924897 11.0329843,9.21256739 C11.0852888,9.15610684 11.138431,9.10040806 11.1918691,9.04497174 L11.3525298,8.87895084 C11.4327626,8.79583477 11.5124428,8.71218578 11.5897424,8.62631869 C11.7047662,8.49841986 11.82087,8.37271672 11.9380538,8.24701358 C12.036607,8.14107164 12.1359703,8.03581584 12.2356035,7.93083451 L12.5347733,7.6163022 L12.5347733,7.6163022 L12.6360688,7.50816456 L12.6360688,7.50816456 L12.8366347,7.29024253 C12.8701242,7.25401367 12.9037403,7.21792205 12.9376264,7.18210489 L13.0871438,7.02374089 L13.0871438,7.02374089 L13.2362562,6.86537689 C13.2470565,6.85384953 13.2578569,6.84287109 13.2681172,6.83079481 C13.3728806,6.70728735 13.3728806,6.50034376 13.2562368,6.38507014 C13.1973749,6.32633548 13.1331128,6.27473681 13.0672306,6.22643168 C12.9775877,6.16028658 12.8895648,6.09208302 12.8018795,6.02346776 L12.6265788,5.88617627 C12.5973103,5.86336551 12.5679843,5.84063099 12.5385534,5.8180337 L12.4748763,5.76944394 L12.4748763,5.76944394 L12.3469821,5.67284383 C12.2831251,5.62440147 12.219673,5.57541018 12.157841,5.52436043 C12.0726725,5.45425525 11.9854211,5.38697309 11.8977445,5.32026707 L11.722316,5.18695744 C11.6931471,5.16464528 11.6640539,5.1422307 11.6350976,5.11963047 L11.5487011,5.05118966 C11.4070005,4.93701388 11.2608069,4.82881038 11.1167561,4.7181477 L11.0092235,4.63455786 C10.8871795,4.53849651 10.7608154,4.44902222 10.6430915,4.34747165 C10.5885498,4.30026436 10.5291478,4.25799736 10.4702859,4.21573037 C10.3929862,4.15997557 10.3176703,4.1015994 10.2428503,4.04258948 L10.0934307,3.92431359 C10.0435508,3.88499926 9.99345034,3.84599219 9.94268869,3.80788132 C9.86862913,3.75220494 9.79523081,3.69558756 9.72207811,3.63861809 L9.50294116,3.4672424 C9.39332545,3.38161537 9.28332717,3.29652126 9.17154352,3.2139477 C9.15771907,3.20384754 9.14700512,3.19269344 9.13663678,3.18020437 L9.12888213,3.17058287 C9.12442699,3.16491067 9.12033935,3.1596273 9.11662173,3.15466921 L9.1065814,3.14070728 C9.08129308,3.10355339 9.08291876,3.08531126 9.1129938,3.04696391 L9.12479231,3.0325312 C9.12695644,3.02996544 9.12921964,3.02731422 9.13158222,3.02456961 C9.14130254,3.01414009 9.15588301,3.00316165 9.16938345,3.00206381 C9.22122514,2.99712351 9.27306684,2.99999733 9.31950835,3.02237392 L9.3434124,3.03500553 C9.35416867,3.04060037 9.36510127,3.04535023 9.3762102,3.04597757 C9.43335388,3.04867228 9.48808757,3.06214582 9.54251453,3.0768665 L9.59691715,3.09164986 C9.61506921,3.09648087 9.63326508,3.10109742 9.65158267,3.1051465 L9.67916009,3.11075037 C9.70670099,3.11585534 9.73385307,3.12273882 9.76090795,3.12999283 L9.81497452,3.14457769 C9.86006599,3.15644812 9.90542747,3.16674041 9.952409,3.1689361 C10.0209497,3.20237812 10.0941301,3.2142043 10.1680242,3.22270497 L10.2083774,3.22712183 L10.2083774,3.22712183 C10.380103,3.28805218 10.5631689,3.30067738 10.7343545,3.3610588 C10.7537952,3.36764587 10.7746182,3.37071983 10.7951648,3.37337222 L10.8526099,3.38033969 C10.8946047,3.38558875 10.9359161,3.39330797 10.9735823,3.41924453 C10.9825312,3.42551793 10.994125,3.42802729 11.0062479,3.42953802 L11.0335243,3.43241866 L11.0335243,3.43241866 L11.0488859,3.43430129 L11.0488859,3.43430129 L11.0951359,3.43925058 C11.1413329,3.44444947 11.1869724,3.45213763 11.2284706,3.47797919 C11.2371109,3.48291949 11.2479113,3.48621302 11.2581716,3.48676194 C11.3076732,3.48981151 11.3553414,3.50065441 11.4026578,3.51298445 L11.4593634,3.52809072 C11.4782721,3.53309502 11.4972194,3.53793367 11.5163,3.54220306 C11.5616615,3.55263258 11.605943,3.56635563 11.6513044,3.57733407 C11.6815454,3.58447006 11.7117864,3.59215497 11.7425674,3.59599742 L11.7818026,3.60053971 C11.8252572,3.60567664 11.8678515,3.61288733 11.9056527,3.63991118 C11.9121329,3.64430256 11.9206868,3.64658607 11.9291025,3.64788592 L11.9353537,3.64869393 C12.0228366,3.65912345 12.1076193,3.67504219 12.1918621,3.70468398 C12.2401637,3.72176155 12.2909653,3.73172347 12.3422299,3.74012296 L12.4345663,3.7547541 C12.4447837,3.75645884 12.4549707,3.75823437 12.465111,3.7601251 L12.4754813,3.76166005 L12.4754813,3.76166005 L12.496432,3.76369309 C12.5068274,3.76479094 12.5169527,3.7664377 12.526133,3.77055462 C12.6028155,3.80623455 12.6843581,3.81831083 12.7669808,3.82654466 C12.7769712,3.82736805 12.7866915,3.83079881 12.7963443,3.83484711 L12.8156199,3.84317751 L12.8156199,3.84317751 L12.8374556,3.8515384 L12.8374556,3.8515384 L12.8618214,3.8613326 C12.8740393,3.86592982 12.8863247,3.86963504 12.8987451,3.87045842 C12.959061,3.87375196 13.0170761,3.88768613 13.0746488,3.90362611 L13.1609083,3.92796107 C13.1993049,3.93848578 13.2379177,3.9479831 13.2772975,3.95389457 C13.3002482,3.95746256 13.323064,3.96226563 13.3458122,3.96748039 L13.413922,3.98353636 L13.413922,3.98353636 L13.4506431,3.99101926 C13.4690469,3.99486611 13.4872563,3.99934531 13.5041049,4.00659108 C13.5478463,4.02525443 13.5926678,4.03513503 13.6396493,4.03897748 C13.6814467,4.04243569 13.723244,4.04633852 13.7611047,4.06669255 L13.7735737,4.07410849 C13.78351,4.08069555 13.7958656,4.08517476 13.8081521,4.0875461 L13.8173151,4.08892938 C13.9099821,4.10012739 14.0003163,4.12258928 14.0904171,4.14611827 L14.180518,4.16962531 C14.2105775,4.17732778 14.2406889,4.18477117 14.2709299,4.1915778 C14.2860504,4.19498111 14.3012573,4.19787942 14.3164901,4.20060208 L14.3622059,4.20857242 C14.4078784,4.21667451 14.4532399,4.22615988 14.4966573,4.24592108 C14.5099263,4.2518808 14.5246059,4.25389725 14.5395879,4.25514553 L14.562149,4.2568387 C14.5659008,4.25715717 14.5696368,4.25752686 14.5733398,4.25799736 L14.5845589,4.25929685 L14.5845589,4.25929685 L14.6072617,4.26082039 C14.6223381,4.26180621 14.6370619,4.26332975 14.6500223,4.2689758 C14.7364251,4.30685142 14.8303882,4.31343848 14.9200311,4.33704213 C15.010214,4.36064578 15.099857,4.38589619 15.1900399,4.40840199 C15.2127206,4.41375398 15.2360089,4.41601828 15.2592212,4.41866855 L15.2920769,4.42277474 L15.2920769,4.42277474 L15.3220067,4.42541857 C15.3351696,4.42692811 15.347725,4.42953549 15.3579854,4.43584809 C15.3998575,4.4624497 15.4450944,4.47142408 15.4910082,4.47716041 L15.5523917,4.48415323 L15.5523917,4.48415323 L15.5679847,4.48559415 C15.5731824,4.48621169 15.5783126,4.4871723 15.5831727,4.48909353 C15.65405,4.51585347 15.7272712,4.53336942 15.8009611,4.54914617 L15.889494,4.56772374 C15.9632589,4.58330989 16.0367425,4.60015875 16.1080699,4.62577511 C16.1226503,4.63098986 16.1379058,4.63373447 16.1533638,4.63579293 L16.1844099,4.63952357 L16.1844099,4.63952357 L16.1998729,4.64169384 C16.2063531,4.64279169 16.2130695,4.64337492 16.2198198,4.64382949 L16.2399692,4.64519322 C16.2531996,4.64635968 16.265755,4.64855537 16.2760153,4.65486797 C16.3158936,4.67918944 16.3590438,4.68854385 16.4026975,4.69572356 L16.4518743,4.70355788 C16.4627847,4.70539478 16.4736618,4.70739559 16.4844621,4.70976017 C16.5600646,4.72677675 16.634047,4.75092932 16.7085695,4.77178836 L16.7311563,4.77765067 L16.7311563,4.77765067 L16.7993599,4.79374524 C16.8295334,4.80115569 16.8592344,4.80966398 16.8873153,4.82228918 C16.9207289,4.83738454 16.9545644,4.84690491 16.9888217,4.85500472 L17.0509406,4.86894755 L17.0509406,4.86894755 C17.0801016,4.87553462 17.1054824,4.90188287 17.1346434,4.90682317 C17.1937753,4.91725269 17.2503421,4.93536712 17.306369,4.95505969 L17.3734715,4.97905747 C17.4070228,4.99104428 17.4406713,5.00271985 17.4748545,5.01276512 C17.5299363,5.02923278 17.5812379,5.05393427 17.6346997,5.07095085 C17.6437,5.07378695 17.6527903,5.07631809 17.6619056,5.07873741 L17.6892615,5.08585307 C17.7256626,5.09540838 17.7614238,5.10626484 17.7923848,5.13078335 C17.8436865,5.13993205 17.8918943,5.15842005 17.9396256,5.17834547 L17.9968418,5.20244023 C18.0446105,5.22225129 18.0929496,5.24033904 18.1444763,5.24880158 C18.1728895,5.272363 18.205674,5.28563457 18.2393788,5.29698129 L18.2901948,5.31360336 C18.3070759,5.31935992 18.3237558,5.3256809 18.3398029,5.33361191 L18.3556232,5.34211832 C18.3787089,5.35570414 18.4035413,5.36635666 18.4288958,5.37618901 L18.479938,5.39538627 C18.5054443,5.40506424 18.5306564,5.4153308 18.5543497,5.42829908 C18.5682101,5.43598399 18.5829706,5.44129023 18.5978511,5.44598657 L18.627541,5.45509009 C18.6471327,5.46131572 18.6660133,5.46855336 18.6823339,5.48099559 C18.7042721,5.49780633 18.7276869,5.50732669 18.7516555,5.51558733 L18.7806244,5.52528138 C18.7854772,5.52692493 18.7903374,5.52861458 18.7951975,5.53039857 C18.8146382,5.5372601 18.8331338,5.54645454 18.8513594,5.55626652 L18.8876506,5.57620561 L18.9059012,5.5858397 C18.9484275,5.60752211 18.9912914,5.62844977 19.0342735,5.64910296 L19.1633546,5.71071945 C19.2493524,5.7518886 19.3349452,5.79388114 19.4183779,5.84053951 L19.4857198,5.87754886 L19.4857198,5.87754886 L19.6218211,5.94930326 C19.6444765,5.96133666 19.667056,5.97351586 19.6894667,5.98600384 C19.7120125,5.99849181 19.7342544,6.01156302 19.7564036,6.02482292 L19.8227836,6.06477415 C19.8671325,6.09125963 19.911954,6.11692174 19.9589355,6.13860416 C19.9802662,6.16303119 20.0078071,6.17730316 20.0358205,6.19061452 L20.0637789,6.20394621 C20.0776244,6.21079248 20.0911098,6.21816481 20.103518,6.22721249 L20.1155406,6.2368612 C20.1299411,6.24966938 20.1465016,6.25887907 20.1635422,6.26723488 L20.189253,6.27947127 C20.2149039,6.2917534 20.2397447,6.30520198 20.2581053,6.32908009 C20.2911064,6.34127836 20.3196073,6.3607617 20.3474971,6.3811298 L20.3809204,6.40558657 C20.3921296,6.4136073 20.40349,6.42135998 20.4152504,6.42843498 C20.4575878,6.45390496 20.4992339,6.48078018 20.5396359,6.50934169 L20.5696954,6.53108339 C20.6150569,6.56456763 20.6614984,6.59585619 20.70848,6.62769366 L20.7308631,6.64246175 L20.7308631,6.64246175 L20.7760263,6.67113372 C20.8060468,6.69024837 20.8355384,6.70987513 20.862385,6.73308669 C20.9077465,6.77213857 20.9549925,6.80866989 21.0027203,6.84458187 L21.0984026,6.91614338 C21.1302337,6.9400975 21.1618633,6.96433969 21.1928758,6.98943327 C21.2976392,7.07396726 21.3997025,7.16124585 21.506086,7.24358416 C21.62885,7.33909658 21.7429737,7.44485556 21.8554974,7.55240361 L21.9817828,7.67370394 L22.0239629,7.71401032 C22.2599506,7.93851942 22.4818978,8.17839833 22.6930447,8.42760892 C22.85451,8.61753594 23.008955,8.81350109 23.1558398,9.01550439 C23.345926,9.27624235 23.5192717,9.54795874 23.6882972,9.82241974 C23.7509392,9.92397031 23.8017009,10.0332058 23.8616429,10.1369521 C23.8771954,10.163959 23.8916246,10.1915808 23.9057256,10.2193957 L23.9478383,10.3029988 C23.9549579,10.3168887 23.9621941,10.3307215 23.9696464,10.3444446 C23.9773266,10.3587165 23.9843935,10.3732867 23.9912204,10.3879683 L24.0113544,10.4321607 C24.028155,10.468955 24.0457889,10.5052787 24.0700897,10.538214 C24.0899353,10.5933807 24.113502,10.6469263 24.1380275,10.7000956 L24.1875382,10.8063013 C24.2121143,10.8595221 24.2358076,10.9131964 24.2558557,10.9685689 C24.2707602,11.0096283 24.2868743,11.0503363 24.3034032,11.090939 L24.3534391,11.2126767 L24.3778997,11.2737695 C24.382837,11.2861595 24.3870249,11.2989527 24.391005,11.3118548 L24.4028633,11.350593 C24.4069693,11.3634183 24.4114091,11.3760579 24.4167243,11.3882174 L24.4254213,11.4060597 C24.449182,11.4488756 24.4524221,11.4966319 24.4702427,11.5388989 C24.5048038,11.6194074 24.5314447,11.7023556 24.5564055,11.7857918 L24.5933667,11.911068 L24.5933667,11.911068 C24.6091044,11.9628235 24.6192876,12.0165954 24.6378591,12.0665073 L24.6479085,12.0911144 C24.664109,12.1277092 24.6714293,12.1650359 24.6778695,12.2026066 L24.6843127,12.2402405 C24.6854364,12.2465203 24.6866098,12.2528024 24.6878698,12.2590845 C24.6895979,12.2672086 24.6922764,12.2750691 24.6953177,12.2828419 L24.704943,12.3060723 L24.704943,12.3060723 L24.7133156,12.3276617 L24.7133156,12.3276617 L24.7217559,12.3472551 C24.7258061,12.3570671 24.7291812,12.3669477 24.7299912,12.3771028 C24.7335013,12.4221144 24.7421416,12.4658909 24.7520644,12.509393 L24.7674296,12.5745603 C24.7699905,12.5854272 24.7725112,12.596307 24.7749318,12.6072147 L24.7818329,12.6400364 C24.7883131,12.6744355 24.7964734,12.7083467 24.8043936,12.7424205 L24.815854,12.7937346 L24.82503,12.8372092 C24.8294624,12.8589465 24.8333506,12.8806838 24.8352946,12.9024211 C24.8417748,12.9759767 24.8514952,13.0478855 24.877416,13.1181475 C24.8861913,13.1421628 24.889482,13.1685368 24.8913752,13.1951252 L24.8941565,13.2427528 L24.8941565,13.2427528 C24.8995567,13.3267378 24.908737,13.410174 24.9281777,13.4925123 C24.937178,13.529839 24.9418581,13.5681415 24.9455782,13.6066067 L24.9508584,13.6643249 C24.9616587,13.7795985 24.9724591,13.8948721 24.9805594,14.0101457 C24.9875796,14.1100495 24.9945998,14.2099533 24.9967599,14.3098571 C24.9981099,14.3809425 24.9982449,14.4520279 24.9980424,14.5231133 L24.9972706,14.7352362 L24.9918997,14.7352717 L24.9972999,14.7363695 L24.9972706,14.7352362 L25,14.7352717 Z M15.7751628,9.30782813 C15.9421063,9.29309469 16.1085232,9.30206287 16.27494,9.31103105 C16.3986994,9.3174369 16.5124527,9.3706054 16.6183065,9.4404291 C16.7157341,9.50448754 16.78525,9.61082454 16.8410734,9.72805149 C16.8484463,9.7440661 16.8526594,9.76264304 16.8605589,9.77801707 C16.9390276,9.93752258 16.9574599,10.1104804 16.9427141,10.2917657 C16.9348145,10.3859316 16.9011098,10.4666453 16.8642453,10.5473589 C16.8021023,10.6825222 16.7109944,10.7862969 16.6177799,10.8868686 C16.5350981,10.9759099 16.439777,11.0438118 16.33287,11.0803251 C16.2096372,11.1226037 16.0953573,11.0963397 15.9895035,11.0053767 C15.9431596,10.9656605 15.9068217,10.920179 15.8836498,10.8561206 L15.8655101,10.8055381 L15.8655101,10.8055381 L15.8299329,10.7049427 L15.8299329,10.7049427 C15.826305,10.6951204 15.8221309,10.6855828 15.8177863,10.6761331 L15.8046168,10.6478507 C15.7938421,10.6241737 15.7843497,10.5998157 15.7820091,10.5717011 C15.7560535,10.5085578 15.7334834,10.4435319 15.7116042,10.3781867 L15.6679687,10.2475337 C15.6531983,10.2041495 15.6379366,10.1610865 15.6213852,10.118808 L15.5957303,10.0534089 C15.5482763,9.93354262 15.4975448,9.81462893 15.4275833,9.70947454 C15.3738664,9.62812032 15.3148832,9.55381253 15.2422075,9.49936286 C15.2330792,9.49252996 15.2252967,9.48448707 15.2180408,9.4760883 L15.1970339,9.45067845 C15.1900121,9.44242203 15.1826977,9.43466384 15.1742715,9.428258 C15.160579,9.41800865 15.154786,9.40263462 15.1595257,9.38213592 C15.1653187,9.35587196 15.1811178,9.33985735 15.2006033,9.33281092 C15.2195622,9.32576449 15.2406276,9.32512391 15.2606398,9.32384274 C15.3764996,9.31807748 15.4928861,9.31231222 15.6087459,9.30782813 L15.6641792,9.30697402 L15.6641792,9.30697402 L15.7751628,9.30782813 L15.7751628,9.30782813 Z" id="形状" fill="#0052D9" fill-rule="nonzero"></path>
        <rect id="矩形" x="0" y="0" width="32" height="32"></rect>
    </g>
</svg>