<?xml version="1.0" encoding="UTF-8"?>
<svg width="32px" height="32px" viewBox="0 0 32 32" version="1.1" xmlns="http://www.w3.org/2000/svg" xmlns:xlink="http://www.w3.org/1999/xlink">
    <title>云数据仓库 Doris-32px-A</title>
    <g id="云数据仓库-Doris-32px-A" stroke="none" stroke-width="1" fill="none" fill-rule="evenodd">
        <path d="M4.0081,11.0078 L4.0081,26.0078 L27.3081,26.0078 C27.6071,25.4078 28.3081,25.0078 29.0081,25.0078 C29.7081,25.0078 30.3081,25.4078 30.7081,26.0078 C31.3081,27.0078 31.0081,28.2078 30.0081,28.7078 C29.1500048,29.2792286 28.0216147,29.0343306 27.3977923,28.1458736 L27.3081,28.0078 L2.0081,28.0078 L2.0081,11.0078 L4.0081,11.0078 Z M13,8.03902339 L23.365,15.5590234 L24.0735206,16.0079 L22.371726,17.3092619 L15,11.961 L15,13.2604805 C15,13.8534825 15.2629238,14.4129137 15.7126303,14.7910773 L15.8398513,14.8896076 L21.1128467,18.6446605 L13,24.7284936 L12.999046,20.2010234 L11.338046,21.275802 L11.338046,16.3721477 L15,18.9081312 L15,20.728 L17.723,18.686 L14.6797027,16.5187347 C13.6877962,15.8123693 13.0751051,14.6955134 13.006456,13.4878946 L13,13.2604805 L13,8.03902339 Z M4.6348722,3.87599399 L4.7079,4.008 L30.0079,4.008 L30.0079,21.008 L28.0079,21.008 L28.0079,6.008 L4.7079,6.008 C4.5079,6.308 4.3079,6.608 4.0079,6.708 C3.0079,7.308 1.9079,7.008 1.3079,6.008 C0.7079,5.008 1.0079,3.808 2.0079,3.308 C2.86699091,2.73527273 4.09054463,2.98258678 4.6348722,3.87599399 Z" id="形状结合" fill="#0052D9"></path>
    </g>
</svg>