<svg xmlns="http://www.w3.org/2000/svg" width="32" height="32" viewBox="0 0 32 32">
  <g fill="#0052D9">
    <path d="M28.6160321 6L28.7848985 6.22543897C33.5454934 12.5809002 32.9768356 21.5951986 27.3615345 27.2927007 22.5099983 32.2152572 15.1700322 33.3487586 9.1765189 30.3543067 8.73377509 30.7553953 8.14545279 31 7.5 31 6.11928813 31 5 29.8807119 5 28.5 5 27.1192881 6.11928813 26 7.5 26 8.88071188 26 10 27.1192881 10 28.5 10 28.53637 9.99922336 28.5725585 9.99768575 28.60855 15.2780711 31.2588587 21.744721 30.2588704 26.0148154 25.9262672 30.8216841 21.0490321 31.4293534 13.4010606 27.5852312 7.83522773L27.3824259 7.54922154 27.2578509 7.37806337 28.6160321 6zM22.8234811 1.64569333L22.9023716 1.57700622C23.3355852 1.21669418 23.8924868.999999998 24.5.999999998 25.8807119.999999998 27 2.11928812 27 3.5 27 4.88071187 25.8807119 6 24.5 6 23.1192881 6 22 4.88071187 22 3.5 22 3.46363003 22.0007766 3.42744145 22.0023143 3.39144995 16.7219289.741141313 10.255279 1.74112964 5.9851847 6.07373277 1.17831595 10.9509679.570646642 18.5989393 4.41476881 24.1647723L4.6175741 24.4507785 4.7421492 24.6219366 3.3839679 26 3.2151015 25.774561C-1.5454934 19.4190998-.976835596 10.4048014 4.6384655 4.70729932 9.49000168-.215257237 16.8299678-1.34875864 22.8234811 1.64569333z"/>
    <path d="M16,7 C19.7279108,7 22.8602692,9.54986283 23.7481308,13.000644 L21.6587023,13.0003218 C20.8351204,10.669769 18.6125579,9 16,9 C12.6862915,9 10,11.6862915 10,15 L10,15 L10,17 C10,20.3137085 12.6862915,23 16,23 C18.6121813,23 20.8344797,21.3307123 21.6583461,19.0006859 L23.7478729,19.0003581 C22.8596627,22.4506308 19.7275499,25 16,25 C11.581722,25 8,21.418278 8,17 L8,17 L8,15 C8,10.581722 11.581722,7 16,7 Z"/>
  </g>
</svg>
