<?xml version="1.0" encoding="UTF-8"?>
<svg width="32px" height="32px" viewBox="0 0 32 32" version="1.1" xmlns="http://www.w3.org/2000/svg" xmlns:xlink="http://www.w3.org/1999/xlink">
    <!-- Generator: Sketch 56.3 (81716) - https://sketch.com -->
    <title>32x32备份 3</title>
    <desc>Created with Sketch.</desc>
    <g id="32x32备份-3" stroke="none" stroke-width="1" fill="none" fill-rule="evenodd">
        <g id="编组-2">
            <path d="M31.7193022,13.0004945 L29.6779284,13.0004945 C28.3047737,6.70988283 22.7024129,2 16,2 C8.2680135,2 2,8.2680135 2,16 C2,23.7319865 8.2680135,30 16,30 C23.0527724,30 28.8874794,24.7848417 29.8581515,18.0004945 L31.8761508,18.0004945 C30.8917351,25.8928783 24.1590649,32 16,32 C7.163444,32 -3.55271368e-15,24.836556 -3.55271368e-15,16 C-3.55271368e-15,7.163444 7.163444,0 16,0 C23.8113418,0 30.3152783,5.59766728 31.7193022,13.0004945 Z" id="Combined-Shape" fill="#0052D9" fill-rule="nonzero"></path>
            <g id="编组" transform="translate(8.000000, 5.000000)">
                <path d="M1,5.30352969 L1,19 L9,19 L9,1.57019636 L1,5.30352969 Z" id="矩形" stroke="#0052D9" stroke-width="2"></path>
                <polyline id="路径" stroke="#0052D9" stroke-width="2" transform="translate(12.000000, 12.500000) scale(-1, 1) translate(-12.000000, -12.500000) " points="14.4545455 19 9 19 9 8.54666667 15 6"></polyline>
                <rect id="矩形" fill="#0052D9" x="4" y="14" width="2" height="2"></rect>
            </g>
        </g>
    </g>
</svg>