<?xml version="1.0" encoding="UTF-8"?>
<svg width="32px" height="32px" viewBox="0 0 32 32" version="1.1" xmlns="http://www.w3.org/2000/svg" xmlns:xlink="http://www.w3.org/1999/xlink">
    <title>至信链版权存证 32_blue</title>
    <g id="最新的文档" stroke="none" stroke-width="1" fill="none" fill-rule="evenodd">
        <g id="至信链版权存证-32_blue" fill-rule="nonzero">
            <rect id="Rectangle-Copy" fill="#0052D9" opacity="0" x="0" y="0" width="32" height="32"></rect>
            <path d="M27,25 L27,1 L5,1 L5,31 L27,31 L27,29 L25.006,29 L25.006,29.009 L6.994,29.009 L6.994,2.991 L25.006,2.991 L25.006,25 L27,25 Z M18,23 L18,25 L14,25 L14,23 L18,23 Z M16,4.91909734 C19.9110186,4.91909734 23.0809027,8.08898143 23.0809027,12 C23.0809027,15.9110186 19.9110186,19.0809027 16,19.0809027 C12.0889814,19.0809027 8.91909734,15.9110186 8.91909734,12 C8.91909734,8.08898143 12.0889814,4.91909734 16,4.91909734 Z M16,7.04336814 C13.2667716,7.04336814 11.0433681,9.26677157 11.0433681,12 C11.0433681,14.7332284 13.2667716,16.9566319 16,16.9566319 C18.7332284,16.9566319 20.9566319,14.7332284 20.9566319,12 C20.9566319,9.26677157 18.7332284,7.04336814 16,7.04336814 Z M16,8.45954867 C17.1562698,8.45954867 18.1818654,9.01465224 18.8278605,9.8729812 L18.9444754,10.0374098 L17.1565474,11.2293618 C16.9016349,10.8493533 16.4897624,10.5838195 16,10.5838195 C15.2187404,10.5838195 14.5838195,11.2187404 14.5838195,12 C14.5838195,12.7812596 15.2187404,13.4161805 16,13.4161805 C16.4407862,13.4161805 16.8184815,13.2010981 17.075444,12.8810555 L17.1565474,12.7706382 L18.9444754,13.9625902 C18.3095544,14.9137914 17.2285366,15.5404513 16,15.5404513 C14.0444907,15.5404513 12.4595487,13.9555093 12.4595487,12 C12.4595487,10.0444907 14.0444907,8.45954867 16,8.45954867 Z" id="com" fill="#0052D9"></path>
        </g>
    </g>
</svg>