<?xml version="1.0" encoding="utf-8"?>
<!-- Generator: Adobe Illustrator 24.0.1, SVG Export Plug-In . SVG Version: 6.00 Build 0)  -->
<svg version="1.1" id="图层_1" xmlns="http://www.w3.org/2000/svg" xmlns:xlink="http://www.w3.org/1999/xlink" x="0px" y="0px"
	 width="32px" height="32px" viewBox="0 0 32 32" style="enable-background:new 0 0 32 32;" xml:space="preserve">
<style type="text/css">
	.st0{fill:#0052D9;}
</style>
<title>画板</title>
<path class="st0" d="M14,25h4v-2h-4V25z M21.8,13.5l-2,1.2l0,0L16,16.8l-3.5-2l1-0.6l0-2.3l-1.2,0.7l-2,1.2l0,2l5.8,3.3l5.8-3.3
	V13.5z M27,25V1H5v30h22v-2H7V3h18v22H27z M21.8,9.2L16,5.8l-5.8,3.3l0,2.3l2.1-1.2l0,0L16,8.2l3.5,2l-1,0.6l0,2.3l0.1,0l0,0
	l3.1-1.8V9.2z M17.5,12.5c0-0.8-0.7-1.5-1.5-1.5s-1.5,0.7-1.5,1.5S15.2,14,16,14S17.5,13.3,17.5,12.5z"/>
</svg>
