<?xml version="1.0" encoding="UTF-8"?>
<svg width="32px" height="32px" viewBox="0 0 32 32" version="1.1" xmlns="http://www.w3.org/2000/svg" xmlns:xlink="http://www.w3.org/1999/xlink">
    <title>移动金融开发平台 32_blue</title>
    <g id="最新的文档" stroke="none" stroke-width="1" fill="none" fill-rule="evenodd">
        <g id="移动金融开发平台-32_blue" fill-rule="nonzero">
            <g id="移动金融开发平台">
                <rect id="Rectangle-Copy" fill="#0052D9" opacity="0" x="0" y="0" width="32" height="32"></rect>
                <path d="M5.0004,0.9999 L27.0004,0.9999 L27.0004,24.9999 L25.0004,24.9999 L25.0004,2.9999 L7.0004,2.9999 L7.0004,28.9999 L27.0004,28.9999 L27.0004,30.9999 L5.0004,30.9999 L5.0004,0.9999 Z M14.0004,24.9999 L14.0004,22.9999 L18.0004,22.9999 L18.0004,24.9999 L14.0004,24.9999 Z M14.4937,7.9961 L15.0877,7.0001 L13.9257,7.0001 C13.5667,7.0001 13.1847,7.2181 12.9977,7.5311 L12.4587,8.4821 L13.6607,8.4671 C14.0097,8.4671 14.3197,8.2861 14.4937,7.9961 Z M13.9487,5.0001 L18.6117,5.0001 L16.2087,9.0251 C15.6677,9.9261 14.7067,10.4671 13.6857,10.4671 L8.9997,10.5261 L11.2827,6.5021 C11.8237,5.6001 12.8447,5.0001 13.9257,5.0001 L13.9487,5.0001 Z M13.0776,15.27 C13.2566,15.568 13.5816,15.767 13.9256,15.767 L15.3276,15.767 L14.5966,14.502 C14.4136,14.198 14.0896,14 13.7456,14 L13.6856,14 L12.3786,14.051 L13.0776,15.27 Z M18.7916,17.767 L13.9256,17.767 C12.8446,17.767 11.8836,17.166 11.3426,16.265 L8.9996,12.18 L13.6856,12 L13.7456,12 C14.8276,12 15.7876,12.601 16.3286,13.502 L18.7916,17.767 Z M20.5273,12.0962 C20.7173,11.7772 20.7073,11.3972 20.5203,11.0662 L19.8523,9.9002 L19.1573,11.0202 C18.8983,11.4342 19.0063,11.8062 19.1413,12.0472 L19.8513,13.2782 L20.5273,12.0962 Z M19.9213,6.0002 L22.2633,10.0852 C22.8043,11.0462 22.8043,12.1872 22.2633,13.0882 L19.8613,17.2942 L17.3983,13.0282 C16.8573,12.0672 16.8573,10.9262 17.4583,9.9652 L19.9213,6.0002 Z" id="Combined-Shape" fill="#0052D9"></path>
            </g>
        </g>
    </g>
</svg>