<svg width="32" height="32" viewBox="0 0 32 32" fill="none" xmlns="http://www.w3.org/2000/svg">
<path d="M7.57031 13.8034L7.92366 14.7388L7.57031 13.8034ZM20.4018 14.6005L19.7332 13.8569L20.4018 14.6005ZM24.5453 13.847L24.8986 12.9115L24.5453 13.847ZM12.2881 15.0921L11.5438 15.7599L12.2881 15.0921ZM10.3474 13.6641C10.6883 11.079 13.0488 9 16 9V7C12.1214 7 8.84635 9.74897 8.36458 13.4027L10.3474 13.6641ZM6 17.6913V17.3883H4V17.6913H6ZM11.5438 15.7599L13.2557 17.6678L14.7443 16.3322L13.0324 14.4242L11.5438 15.7599ZM7.92366 14.7388C8.73594 14.432 9.63755 14.4635 10.4099 14.8023L11.2133 12.9707C9.96717 12.4241 8.52358 12.3743 7.21697 12.8679L7.92366 14.7388ZM4 17.6913C4 20.6765 6.5454 23 9.56292 23V21C7.54039 21 6 19.4654 6 17.6913H4ZM6 17.3883C6 16.253 6.73401 15.1882 7.92366 14.7388L7.21697 12.8679C5.30186 13.5912 4 15.3659 4 17.3883H6ZM28 17.6913V17.2707H26V17.6913H28ZM19.7332 13.8569L11.5052 21.2565L12.8426 22.7435L21.0705 15.344L19.7332 13.8569ZM24.8986 12.9115C23.139 12.2469 21.124 12.6061 19.7332 13.8569L21.0705 15.344C21.892 14.6052 23.1149 14.3757 24.1919 14.7825L24.8986 12.9115ZM26 17.6913C26 19.4654 24.4596 21 22.4371 21V23C25.4546 23 28 20.6765 28 17.6913H26ZM28 17.2707C28 15.3194 26.7439 13.6085 24.8986 12.9115L24.1919 14.7825C25.3118 15.2055 26 16.2064 26 17.2707H28ZM22.4371 21H9.56292V23H22.4371V21ZM16 9C17.9753 9 19.6988 9.93726 20.7165 11.3384L22.3347 10.163C20.9393 8.24197 18.6133 7 16 7V9ZM13.0324 14.4242C12.6032 13.9458 12.0187 13.324 11.2133 12.9707L10.4099 14.8023C10.781 14.965 11.1152 15.2822 11.5438 15.7599L13.0324 14.4242Z" fill="#0052D9"/>
<circle cx="2" cy="3" r="2" fill="#0052D9"/>
<circle cx="30" cy="29" r="2" fill="#0052D9"/>
<path d="M2 3L30 3L30 16L30 24M30 29L2 29L2 16L2 9" stroke="#0052D9" stroke-width="2"/>
</svg>
