<svg width="32" height="32" viewBox="0 0 32 32" fill="none" xmlns="http://www.w3.org/2000/svg">
<path d="M26 12.4927V3H23.2115L17.5866 12.3108H22.8038L22.6757 14.7108C22.6757 20.7831 20.0408 25.1736 14 27.8169C14.4472 28.3261 16.2287 29.6747 16.8284 30C22.4297 28.3912 26 21.969 26 15.7193V12.4927Z" fill="#0052D9"/>
<path d="M21 14.3356V13.9662H17.6423V14.306C17.6423 17.6127 15.8175 20.7474 12.8978 21.9816C10.5876 20.5581 9.34854 17.2101 9.34854 14.3445L9.21606 6.43859L17.7215 6.3876V8.90012L21 3.86829V3H6V14.3114C6 19.105 8.68285 23.675 12.9613 26C17.8467 23.9346 21 19.8667 21 14.3356Z" fill="#0052D9"/>
</svg>
