<svg id="图层_1" data-name="图层 1" xmlns="http://www.w3.org/2000/svg" width="32" height="32" viewBox="0 0 32 32">
  <defs>
    <style>
      .cls-1, .cls-3 {
        fill: #0052D9;
      }

      .cls-2 {
        fill: none;
        stroke: #0052D9;
        stroke-miterlimit: 10;
        stroke-width: 2px;
      }

      .cls-3 {
        opacity: 0.38;
      }
    </style>
  </defs>
  <title>#</title>
  <g>
    <path class="cls-1" d="M16,2A23.71,23.71,0,0,1,29,6.07,29.16,29.16,0,0,1,16,29.63,29.16,29.16,0,0,1,3,6.07,23.71,23.71,0,0,1,16,2m0-2A26,26,0,0,0,1,5S0,22.21,16,32h0C32,22.21,31,5,31,5A26,26,0,0,0,16,0Z"/>
    <g>
      <path class="cls-1" d="M14.41,19.84a2.8,2.8,0,0,0-1.14,1.68A14.75,14.75,0,0,1,8.36,13a15.14,15.14,0,0,1-.22-1.5l2-.18a14,14,0,0,0,.24,1.54A12.72,12.72,0,0,0,14.41,19.84Z"/>
      <path class="cls-1" d="M22.52,8.66l-1,1.72a11.55,11.55,0,0,0-1.41-.7A10.6,10.6,0,0,0,16,8.83a11.41,11.41,0,0,0-4.1.83A2.81,2.81,0,0,0,10.75,8,13.28,13.28,0,0,1,16,6.83,12.69,12.69,0,0,1,21.22,8,13.31,13.31,0,0,1,22.52,8.66Z"/>
      <path class="cls-1" d="M23.65,13a14.76,14.76,0,0,1-4.92,8.56,12.18,12.18,0,0,1-1.17.92L16.41,20.8a12.7,12.7,0,0,0,1.19-.95,12.79,12.79,0,0,0,4-7,2.77,2.77,0,0,0,1.19.27A2.53,2.53,0,0,0,23.65,13Z"/>
    </g>
    <circle class="cls-2" cx="16" cy="14.1" r="2.45"/>
    <g>
      <circle class="cls-1" cx="16" cy="22.14" r="0.99"/>
      <path class="cls-1" d="M16,24a1.89,1.89,0,1,1,1.89-1.89A1.89,1.89,0,0,1,16,24Zm0-2a.09.09,0,0,0-.08.08c0,.09.16.09.16,0A.09.09,0,0,0,16,22.06Z"/>
    </g>
    <g>
      <circle class="cls-1" cx="22.82" cy="10.28" r="0.99"/>
      <path class="cls-1" d="M22.82,12.17a1.89,1.89,0,1,1,1.9-1.89A1.89,1.89,0,0,1,22.82,12.17Zm0-2a.09.09,0,0,0-.08.08c0,.09.16.09.16,0A.08.08,0,0,0,22.82,10.2Z"/>
    </g>
    <g>
      <circle class="cls-1" cx="9.18" cy="10.28" r="0.99"/>
      <path class="cls-1" d="M9.18,12.17a1.89,1.89,0,1,1,1.89-1.89A1.89,1.89,0,0,1,9.18,12.17Zm0-2a.08.08,0,0,0-.08.08c0,.09.16.09.16,0A.09.09,0,0,0,9.18,10.2Z"/>
    </g>
    <path class="cls-3" d="M18.73,21.51a12.18,12.18,0,0,1-1.17.92L16.41,20.8a12.7,12.7,0,0,0,1.19-.95A2.81,2.81,0,0,1,18.73,21.51Z"/>
    <path class="cls-3" d="M22.52,8.66l-1,1.72a11.55,11.55,0,0,0-1.41-.7A2.79,2.79,0,0,1,21.22,8,13.31,13.31,0,0,1,22.52,8.66Z"/>
    <path class="cls-3" d="M10.37,12.81a2.77,2.77,0,0,1-1.19.27A2.47,2.47,0,0,1,8.36,13a15.14,15.14,0,0,1-.22-1.5l2-.18A14,14,0,0,0,10.37,12.81Z"/>
  </g>
</svg>
