<?xml version="1.0" encoding="UTF-8"?>
<svg width="33px" height="33px" viewBox="0 0 33 33" version="1.1" xmlns="http://www.w3.org/2000/svg" xmlns:xlink="http://www.w3.org/1999/xlink">
    <title>TDCP 32 蓝</title>
    <g id="页面-1" stroke="none" stroke-width="1" fill="none" fill-rule="evenodd">
        <g id="画板" transform="translate(-593.000000, -778.000000)">
            <g id="TDCP-32-蓝" transform="translate(593.817718, 778.746336)">
                <rect id="矩形" x="0" y="0" width="32" height="32"></rect>
                <path d="M22.7617317,4.2530471 L22.7617317,22.5858388 L9.2382683,22.5858388 L9.2382683,4.2530471 L22.7617317,4.2530471 Z M20.7612584,6.253 L11.2382584,6.253 L11.2382584,20.585 L20.7612584,20.585 L20.7612584,6.253 Z" id="路径备份-3" fill="#0052D9" fill-rule="nonzero" transform="translate(16.000000, 13.419443) rotate(-90.000000) translate(-16.000000, -13.419443) "></path>
                <polygon id="矩形" fill="#0052D9" fill-rule="nonzero" points="22.2159363 10.2256275 22.2159363 15.5589608 19.6770447 14.176086 16.882603 15.5589608 16.882603 10.2256275"></polygon>
                <polygon id="路径-2" fill="#0052D9" fill-rule="nonzero" points="15.858056 10.2401799 15.858056 12.2401799 9.85805604 12.2401799 9.85805604 10.2401799"></polygon>
                <polygon id="路径-2备份-2" fill="#0052D9" fill-rule="nonzero" points="13.858056 13.5626956 13.858056 15.5626956 9.85805604 15.5626956 9.85805604 13.5626956"></polygon>
                <path d="M30.3007735,0.606317843 L30.3007735,2.60631784 L3.69917292,2.606 L3.69879429,17.0414544 L3.71041963,17.291419 L3.71903244,17.4035944 L3.74276462,17.6402339 C3.79677307,18.1269168 3.89005379,18.6525863 4.02227573,19.200367 C4.43399645,20.8957608 5.14836743,22.4974934 6.1707775,23.9500917 C8.24040687,26.890643 11.3800175,28.9529544 15.6231147,30.032798 L15.9991729,30.124 L16.240137,30.0674088 C20.4048027,29.0333252 23.5180783,27.062895 25.609677,24.2542112 L25.8298688,23.9500777 C26.8524585,22.4972242 27.5667034,20.8954393 27.9778631,19.1997959 C28.1103108,18.655794 28.2033668,18.1313908 28.2578869,17.6400979 L28.2912632,17.2759323 L28.3007735,17.0784903 L28.3007735,4.78832106 L30.3007735,4.78832106 L30.3002389,17.1111831 L30.295165,17.2627015 C30.2868939,17.4347401 30.2705183,17.6371851 30.2456695,17.8608249 C30.181656,18.437665 30.073638,19.0463844 29.921318,19.6720057 C29.4521777,21.606766 28.6349149,23.4395817 27.4654079,25.1011692 C25.1670176,28.3670891 21.7263844,30.6676512 17.1865835,31.8882624 L16.7130297,32.0106755 L16.0035344,32.1798267 L15.6280774,32.0925488 C10.6887941,30.9388193 6.97207447,28.5634657 4.53526679,25.1012236 C3.36600553,23.4399852 2.54869951,21.6074559 2.07843748,19.6709952 C1.96442126,19.1986423 1.87516646,18.7382024 1.81043936,18.2919626 L1.7538795,17.8505409 L1.72758794,17.5876952 L1.70654625,17.2879346 L1.69922653,17.0708535 L1.69922653,0.606317843 L30.3007735,0.606317843 Z" id="路径" fill="#0052D9" fill-rule="nonzero"></path>
            </g>
        </g>
    </g>
</svg>