<?xml version="1.0" encoding="UTF-8"?>
<svg width="32px" height="32px" viewBox="0 0 32 32" version="1.1" xmlns="http://www.w3.org/2000/svg" xmlns:xlink="http://www.w3.org/1999/xlink">
    <title>代码签名证书-32px-蓝</title>
    <g id="代码签名证书-32px-蓝" stroke="none" stroke-width="1" fill="none" fill-rule="evenodd">
        <g id="编组">
            <rect id="Rectangle-Copy" fill="#0052D9" opacity="0" x="0" y="0" width="32" height="32"></rect>
            <path d="M31,4 L31,22.021 L29,22.021 L29,11 L3,11 L3,26 L29,26 L29,25.992 L31,25.992 L31,28 L1,28 L1,4 L31,4 Z M20.97828,14 L22.4499963,14.6279977 L23.7692006,15.1958862 L25,15.7342929 L24.8370884,16.9658389 L24.7231162,17.7392405 L24.667554,18.0873303 L24.5460097,18.7764181 L24.4676499,19.1634143 L24.429271,19.3351937 L24.3664926,19.589317 L24.2810947,19.8775202 C24.0316793,20.6167182 23.3572143,21.344414 22.4058979,22.0606076 L22.2448071,22.1798667 C22.0539365,22.3188781 21.8529098,22.4574545 21.6428166,22.5955961 L21.3210129,22.8024824 L21,23 L20.6030133,22.7504026 L20.4110436,22.6249741 C19.0830803,21.7455044 18.0916618,20.8351701 17.7027806,19.8939712 C17.4527856,19.2889148 17.3111678,18.5426131 17.2072607,17.7274151 L17.1739248,17.45323 L17.0989892,16.7493473 L17,15.7342929 L17.6082522,15.4620493 L18.2607597,15.1745427 L19.3298275,14.7092798 L20.97828,14 Z M12,20 L12,22 L7,22 L7,20 L12,20 Z M20.981,16.175 L20.1279302,16.543137 L19.133,16.975 L19.1593046,17.2118439 L19.1912094,17.4745364 C19.2897416,18.2475664 19.4058614,18.7784411 19.5512168,19.1302411 C19.6942153,19.4763367 20.1446746,19.9607626 20.8904644,20.5190847 L21.008,20.605 L21.2029908,20.4627921 C21.8568022,19.9705735 22.2362685,19.5585445 22.3560332,19.3124105 L22.384137,19.2446868 L22.4296808,19.0905587 L22.4773932,18.8991052 L22.5440953,18.5915122 L22.6040247,18.2814279 L22.6925559,17.7720804 L22.7860185,17.1749141 L22.816,16.962 L20.981,16.175 Z M15,17 L15,19 L7,19 L7,17 L15,17 Z M15,14 L15,16 L7,16 L7,14 L15,14 Z M29,6 L3,6 L3,9 L29,9 L29,6 Z" id="形状结合" fill="#0052D9"></path>
        </g>
    </g>
</svg>