<svg id="图层_1" data-name="图层 1" xmlns="http://www.w3.org/2000/svg" width="32" height="32" viewBox="0 0 32 32"><defs><style>.cls-1{fill:#0052D9;}</style></defs><title>32px，00A4FF，描边2px 副本 7</title><path class="cls-1" d="M24,19.94H8.31V5.54H24Zm-13.7-2H22V7.54H10.31Z"/><path class="cls-1" d="M13.44,11.4A1.45,1.45,0,1,1,14.88,10,1.45,1.45,0,0,1,13.44,11.4Z"/><polygon class="cls-1" points="9.91 17.87 8.49 16.46 12.46 12.5 15.93 15.97 14.52 17.39 12.46 15.32 9.91 17.87"/><polygon class="cls-1" points="13.57 19.74 12.16 18.33 19.27 11.21 23.72 15.66 22.3 17.07 19.27 14.04 13.57 19.74"/><path class="cls-1" d="M16.21,2.15a22.37,22.37,0,0,1,12.86,4v.13A27.56,27.56,0,0,1,16.2,29.52,27.6,27.6,0,0,1,3.34,6.33V6.18a22.36,22.36,0,0,1,12.87-4m0-2A24.47,24.47,0,0,0,1.51,5l-.15.11v.18c0,.33,0,.66,0,1A29.5,29.5,0,0,0,16,31.74l.19.11.19-.11A29.49,29.49,0,0,0,31.07,6.32c0-.33,0-.66,0-1V5.15L30.91,5A24.51,24.51,0,0,0,16.21.15Z"/></svg>