<svg id="图层_1" data-name="图层 1" xmlns="http://www.w3.org/2000/svg" width="32" height="32" viewBox="0 0 32 32">
  <defs>
    <style>
      .cls-1 {
        fill: #0052D9;
      }
    </style>
  </defs>
  <title>#</title>
  <path class="cls-1" d="M16,2A23.79,23.79,0,0,1,29,6,29,29,0,0,1,16,29.49,29,29,0,0,1,3,6,23.79,23.79,0,0,1,16,2m0-2A26.06,26.06,0,0,0,1,5,31.21,31.21,0,0,0,16,31.85h0A31.21,31.21,0,0,0,31,5,26.06,26.06,0,0,0,16,0Z"/>
  <g>
    <g id="形状结合">
      <path class="cls-1" d="M20.75,18.54h-9.5a4,4,0,0,1-.93-7.89,5.5,5.5,0,0,1,10.84-.09,4,4,0,0,1-.41,8Zm-9.5-6a2,2,0,0,0,0,4h9.5a2,2,0,0,0,.09-4H19.25v-1a3.5,3.5,0,0,0-7-.1l0,1.1Z"/>
    </g>
    <g id="路径-6">
      <polygon class="cls-1" points="16.39 16.01 14.35 14.12 13.08 15.28 11.73 13.8 14.36 11.41 16.38 13.27 17.88 11.84 19.25 13.3 16.39 16.01"/>
    </g>
  </g>
</svg>
