<svg width="32" height="32" viewBox="0 0 32 32" fill="none" xmlns="http://www.w3.org/2000/svg">
<path d="M16.0845 0C21.0129 0 26.1149 1.35358 30.0021 4.47722L30.8351 5.24078C31.1127 15.2017 25.9067 26.2733 17.5075 31.1323L16.0845 31.9653C7.44244 27.5922 1.81988 17.423 1.36869 7.42733L1.33398 5.24078L2.20166 4.47722C6.05416 1.35358 11.1561 0 16.0845 0ZM16.0845 2.88069C11.885 2.88069 7.58127 3.99132 4.21468 6.52495V7.42733C4.66587 15.7223 9.1778 24.6768 16.0845 28.6681C22.9913 24.7115 27.5032 15.7223 27.9544 7.42733V6.52495L22.6442 10.2733C25.5249 15.0976 21.7418 21.6573 16.0845 21.5184C2.47932 20.269 9.629 0.451193 20.9088 8.19089L24.4837 4.51193C21.8112 3.43601 18.9652 2.81128 16.0845 2.88069ZM16.5704 14.577C15.9457 14.9241 15.2516 14.0911 15.7027 13.5358L18.8958 10.2733C14.0368 6.66377 8.48366 14.0217 13.308 17.7007C17.0216 20.6855 22.4706 16.1388 20.2841 11.9393C20.2494 11.974 16.5704 14.5423 16.5704 14.577Z" fill="#0052D9"/>
</svg>
