<svg width="32" height="32" viewBox="0 0 32 32" fill="none" xmlns="http://www.w3.org/2000/svg">
<path fill-rule="evenodd" clip-rule="evenodd" d="M2.01095 5.92832C5.77166 3.2893 10.6296 1.33337 16.0004 1.33337C21.3704 1.33337 26.2292 3.2893 29.989 5.92832C29.989 5.92832 30.9052 21.6929 16.0004 30.6667H15.9995C1.09569 21.6929 2.01095 5.92832 2.01095 5.92832ZM28.1722 6.90903C25.3716 5.09321 21.1766 3.16476 16.0004 3.16476C10.8243 3.16476 6.62931 5.09413 3.82867 6.90995C3.88993 10.124 4.9332 21.2781 15.9995 28.5066C27.0649 21.2799 28.1091 10.1295 28.1722 6.90903Z" fill="#0052D9" style="fill:#0052D9;fill:color(display-p3 0.0000 0.3216 0.8510);fill-opacity:1;"/>
<path fill-rule="evenodd" clip-rule="evenodd" d="M20.331 12.402C20.3587 12.405 20.3862 12.4081 20.4135 12.4114C21.3631 12.5268 21.6993 12.7716 21.7982 12.8614C21.7748 12.9929 21.6587 13.3922 20.9779 14.0643C20.0981 14.9329 18.6388 15.8397 16.7902 16.4709C14.9416 17.1021 13.2324 17.2773 12.0051 17.1282C11.0555 17.0129 10.7193 16.768 10.6204 16.6782C10.6438 16.5467 10.7599 16.1474 11.4407 15.4753C11.5115 15.4054 11.5861 15.3352 11.6643 15.265V12.7677C9.50167 14.1777 8.29648 15.9288 8.76834 17.3107C9.44608 19.2954 13.3269 19.7669 17.4365 18.3636C21.546 16.9603 24.328 14.2138 23.6503 12.229C23.2921 11.1801 22.0393 10.5538 20.331 10.4036V12.402Z" fill="#0052D9" style="fill:#0052D9;fill:color(display-p3 0.0000 0.3216 0.8510);fill-opacity:1;"/>
<path fill-rule="evenodd" clip-rule="evenodd" d="M16.6667 7.33337H19.3333V14.0443C18.6481 14.5057 17.7329 14.9739 16.6667 15.3722V7.33337ZM15.3333 15.807V10H12.6667V16.2685C13.4143 16.2367 14.3334 16.0863 15.3333 15.807ZM12.6667 18.2699C13.466 18.2431 14.376 18.109 15.3333 17.8744V20.6667H12.6667V18.2699ZM16.6667 17.4914C16.7334 17.4694 16.8002 17.447 16.867 17.4242C17.7598 17.1194 18.5952 16.7593 19.3333 16.3683V20.6667H16.6667V17.4914Z" fill="#0052D9" style="fill:#0052D9;fill:color(display-p3 0.0000 0.3216 0.8510);fill-opacity:1;"/>
</svg>
