<svg width="32" height="32" viewBox="0 0 32 32" fill="none" xmlns="http://www.w3.org/2000/svg">
<path d="M1.15 4.89002C9.86554 -1.63001 21.8345 -1.63001 30.55 4.89002L30.69 5.00002V5.18002C30.7 5.51002 30.71 5.84002 30.71 6.17002C30.6769 16.654 25.0802 26.3321 16.01 31.59L15.82 31.7L15.63 31.59C6.58983 26.3162 1.02214 16.646 1 6.18002V5.00002L1.15 4.89002ZM28.71 6.03002C20.9749 0.656829 10.7151 0.656829 2.98 6.03002V6.18002C3.02934 15.5978 7.87753 24.3404 15.84 29.37C23.8179 24.3443 28.6728 15.5889 28.71 6.16002V6.03002Z" fill="#0052D9"/>
<path fill-rule="evenodd" clip-rule="evenodd" d="M23.8891 6L22.6291 6.13999L19.3508 6.50425L19.0131 6.54177L18.7682 6.7773L16.1909 9.25544L13.6136 6.7773L13.3687 6.54177L13.0309 6.50425L9.75267 6.13999L8.49272 6L8.64996 7.25791L9.01421 10.1719L9.05677 10.5124L9.29938 10.755L11.9131 13.3687L10.0055 15.2029L9.40787 14.6053L8 16.0131L8.57004 16.5832L8.56247 16.5905L9.28357 17.3116L9.86137 17.8894L8.18522 19.5655L9.59943 20.9797L11.2756 19.3036L12.1976 20.2256L12.9047 20.9327L12.9121 20.9253L13.4799 21.4931L14.8878 20.0852L14.32 19.5174L16.1909 17.6465L18.0635 19.5191L17.4957 20.0869L18.9038 21.495L19.4715 20.9272L19.4771 20.9327L20.1842 20.2256L20.9365 19.4733L22.4429 20.9797L23.8571 19.5655L22.3507 18.0591L23.0982 17.3116L23.8193 16.5905L23.8137 16.585L24.3837 16.015L22.9756 14.607L22.378 15.2046L20.4687 13.3687L23.0824 10.755L23.325 10.5124L23.3676 10.1719L23.7318 7.25791L23.8891 6ZM19.0268 11.9822L21.4256 9.58341L21.59 8.26776L19.9094 8.45449L17.6337 10.6427L19.0268 11.9822ZM14.7767 16.2323L13.3276 14.7832L11.42 16.6174L12.9058 18.1032L14.7767 16.2323ZM10.9562 9.58341L10.7918 8.26776L12.4724 8.45449L20.9629 16.6185L20.227 17.3544L19.4771 18.1043L10.9562 9.58341Z" fill="#0052D9"/>
</svg>
