<svg width="32" height="32" viewBox="0 0 32 32" fill="none" xmlns="http://www.w3.org/2000/svg">
<path d="M16.0123 0C21.4102 0.0690612 26.6527 1.81656 31.0123 5C31.0123 5 32.0123 22.21 16.0123 32L15.5374 31.7041C0.0322447 21.8675 1.01235 5 1.01235 5C5.37204 1.81656 10.6145 0.0690612 16.0123 0ZM16.0123 2C11.3734 2.06055 6.85393 3.47898 3.01235 6.08C3.24151 15.5842 8.09409 24.3785 16.0123 29.64C23.928 24.3762 28.7798 15.5833 29.0123 6.08C25.1708 3.47898 20.6513 2.06055 16.0123 2Z" fill="#0052D9"/>
<path d="M16 21L17.732 22V24L16 25L14.2679 24V22L16 21Z" fill="#0052D9"/>
<path d="M25 13L26.732 14V16L25 17L23.2679 16V14L25 13Z" fill="#0052D9"/>
<path d="M7 13L8.73205 14V16L7 17L5.26794 16V14L7 13Z" fill="#0052D9"/>
<path d="M16 3L17.732 4V6L16 7L14.2679 6V4L16 3Z" fill="#0052D9"/>
<path d="M18 13C18 14.1046 17.1046 15 16 15C14.8954 15 14 14.1046 14 13C14 11.8954 14.8954 11 16 11C17.1046 11 18 11.8954 18 13Z" fill="#0052D9"/>
<path fill-rule="evenodd" clip-rule="evenodd" d="M16 10C13.7909 10 12 11.7909 12 14C12 16.2091 13.7909 18 16 18C18.2091 18 20 16.2091 20 14C20 11.7909 18.2091 10 16 10ZM10 14C10 10.6863 12.6863 8 16 8C19.3137 8 22 10.6863 22 14C22 17.3137 19.3137 20 16 20C12.6863 20 10 17.3137 10 14Z" fill="#0052D9"/>
<path fill-rule="evenodd" clip-rule="evenodd" d="M6.20004 12C6.92641 8.42165 9.5635 5.53715 13 4.45781V6.58152C10.6712 7.52418 8.88738 9.53155 8.25204 12H6.20004ZM13 23.5422V21.4185C11.2962 20.7288 9.88404 19.4692 9 17.876V18H6.83209C7.98188 20.6316 10.2315 22.6727 13 23.5422ZM19 23.5422V21.4185C20.6594 20.7468 22.0421 19.5345 22.9298 18H25.1679C24.0181 20.6316 21.7685 22.6727 19 23.5422ZM19 4.45781C22.4365 5.53715 25.0736 8.42165 25.8 12H23.748C23.1126 9.53155 21.3288 7.52418 19 6.58152V4.45781Z" fill="#0052D9"/>
<path fill-rule="evenodd" clip-rule="evenodd" d="M13.895 18.5741C13.7965 18.6503 13.6988 18.7259 13.6 18.8L12.4 17.2C12.4593 17.1555 12.5298 17.1008 12.6096 17.039C12.9062 16.8091 13.3304 16.4802 13.7825 16.2068C14.3622 15.8562 15.133 15.5 16 15.5C16.8551 15.5 17.6614 15.847 18.2651 16.198C18.883 16.5572 19.4009 16.9867 19.7071 17.2929L18.2929 18.7071C18.0991 18.5133 17.717 18.1928 17.2599 17.927C16.7886 17.653 16.3449 17.5 16 17.5C15.667 17.5 15.2712 17.6438 14.8175 17.9182C14.4752 18.1252 14.182 18.3521 13.895 18.5741Z" fill="#0052D9"/>
</svg>
