<?xml version="1.0" encoding="UTF-8"?>
<svg width="32px" height="32px" viewBox="0 0 32 32" version="1.1" xmlns="http://www.w3.org/2000/svg" xmlns:xlink="http://www.w3.org/1999/xlink">
    <title>32px，00A4FF，描边2px</title>
    <defs>
        <polygon id="path-1" points="0 0 30 0 30 32 0 32"></polygon>
    </defs>
    <g id="32px，00A4FF，描边2px" stroke="none" stroke-width="1" fill="none" fill-rule="evenodd">
        <g id="编组备份-6" transform="translate(1.000000, 0.000000)">
            <mask id="mask-2" fill="white">
                <use xlink:href="#path-1"></use>
            </mask>
            <g id="Clip-22"></g>
            <path d="M15.0004742,0 C9.24597345,0 4.04105989,2.13373291 0.0117338039,5.01267403 C0.0117338039,5.01267403 -0.968902084,22.2104014 14.9994945,32 L15.0004742,32 C30.9698504,22.2104014 29.9882349,5.01267403 29.9882349,5.01267403 C25.9598884,2.13373291 20.7539952,0 15.0004742,0 M15.0004742,1.99787726 C20.5463081,1.99787726 25.0409709,4.10164201 28.0416579,6.0825373 C27.9740616,9.59580446 26.8552942,21.7598801 14.9994945,29.6435038 C3.14271512,21.7578823 2.02492736,9.58981083 1.95929039,6.08353624 C4.95997743,4.10264094 9.45464023,1.99787726 15.0004742,1.99787726" id="Fill-21" fill="#0052D9" mask="url(#mask-2)"></path>
        </g>
        <g id="编组" transform="translate(8.000000, 6.000000)" stroke="#0052D9" stroke-width="2">
            <polygon id="多边形备份-2" points="8 0 14.9282032 4 14.9282032 12 8 16 1.07179677 12 1.07179677 4"></polygon>
            <polyline id="路径备份-2" points="15 4 8 8 1 4"></polyline>
        </g>
    </g>
</svg>