<svg width="32" height="32" viewBox="0 0 32 32" fill="none" xmlns="http://www.w3.org/2000/svg">
<path d="M13.4941 14.1613L15.9571 9.08513H18.4201L16.5729 12.2577H19.0358L14.1099 17.9684L15.3414 14.1613H13.4941Z" fill="#0052D9"/>
<path fill-rule="evenodd" clip-rule="evenodd" d="M16.003 21.5521C20.594 21.5521 24.3156 17.8235 24.3156 13.2241C24.3156 8.62462 20.594 4.89603 16.003 4.89603C11.4121 4.89603 7.69041 8.62462 7.69041 13.2241C7.69041 17.8235 11.4121 21.5521 16.003 21.5521ZM16.003 19.5332C19.481 19.5332 22.3005 16.7085 22.3005 13.2241C22.3005 9.73964 19.481 6.91495 16.003 6.91495C12.525 6.91495 9.70559 9.73964 9.70559 13.2241C9.70559 16.7085 12.525 19.5332 16.003 19.5332Z" fill="#0052D9"/>
<path fill-rule="evenodd" clip-rule="evenodd" d="M15.9627 8.20456e-05C21.2982 -0.0136791 26.4946 1.70397 30.7743 4.89604L30.9355 5.04746V6.22852C30.9042 16.8095 25.2691 26.5787 16.134 31.889L15.9426 32L15.7511 31.889C6.62755 26.559 1.01215 16.7792 1 6.19824V5.00708L1.15114 4.89604C5.43323 1.71216 10.6302 0.00494571 15.9627 0.0304488V8.20456e-05ZM15.9627 2.01888V2.04937C11.3285 2.02711 6.8002 3.43712 2.99503 6.0872V6.23862C3.04474 15.7455 7.92973 24.5708 15.9526 29.648C24.0001 24.5689 28.8932 15.717 28.9203 6.18815V6.05692C25.1177 3.40941 20.5934 1.99956 15.9627 2.01888Z" fill="#0052D9"/>
</svg>
