<?xml version="1.0" encoding="UTF-8"?>
<svg width="32px" height="32px" viewBox="0 0 32 32" version="1.1" xmlns="http://www.w3.org/2000/svg" xmlns:xlink="http://www.w3.org/1999/xlink">
    <title>安全测试系统-32px</title>
    <g id="安全测试系统-32px" stroke="none" stroke-width="1" fill="none" fill-rule="evenodd">
        <g id="编组" fill-rule="nonzero">
            <rect id="Rectangle-Copy" fill="#0052D9" opacity="0" x="0" y="0" width="32" height="32"></rect>
            <path d="M15.84,1.99980584 C20.4328628,1.9794972 24.9202391,3.37634585 28.69,6.00002898 L28.69,6.13002898 C28.6602607,15.5609702 23.8084705,24.3213566 15.83,29.350029 C7.87451436,24.3245189 3.03024623,15.5897568 2.98,6.18002898 L2.98,6.03002898 C6.75342404,3.40615418 11.2440211,2.00938993 15.84,2.03002898 M15.84,0.0300289772 C10.5464443,0.0177633235 5.39176708,1.72312284 1.15,4.89002898 L1,5.00002898 L1,5.18002898 C1,5.50002898 1,5.83002898 1,6.18002898 C1.01958608,16.6440993 6.588423,26.3124833 15.63,31.580029 L15.81,31.680029 L16,31.580029 C25.0708174,26.3240419 30.6650826,16.643564 30.69,6.16002898 C30.69,5.83002898 30.69,5.50002898 30.69,5.16002898 L30.69,5.00002898 L30.54,4.89002898 C26.2992497,1.71036271 21.1403969,-0.00574548696 15.84,1.44521861e-05 L15.84,0.0300289772 Z" id="形状结合" fill="#0052D9"></path>
        </g>
        <g id="编组" transform="translate(11.000000, 9.000000)" stroke="#0052D9" stroke-width="2">
            <path d="M3.87209011,-1 L6.1649158,2.83725095 L1.88503006,10 L-1.57363507,10 L1.61838462,4.65811264 L-1.76243109,-1 L3.87209011,-1 Z M8.11496994,-1 L11.5736351,-1 L8.38161538,4.34188736 L11.7624311,10 L6.12790989,10 L3.8350842,6.16274905 L8.11496994,-1 Z" id="形状结合备份-4"></path>
        </g>
    </g>
</svg>