<svg version="1.2" baseProfile="tiny-ps" xmlns="http://www.w3.org/2000/svg" viewBox="0 0 32 32" width="32" height="32">
	<title>蓝色-32px-svg</title>
	<style>
		tspan { white-space:pre }
		.shp0 { fill: none } 
		.shp1 { fill: #0052D9 } 
	</style>
	<g id="图层_2">
		<g id="图层_2-2">
			<path id="Layer" class="shp0" d="M0 0L32 0L32 32L0 32L0 0Z" />
			<path id="Layer" fill-rule="evenodd" class="shp1" d="M16 0C17.33 0 18.65 0.1 19.96 0.31C21.28 0.52 22.57 0.84 23.83 1.26C25.09 1.68 26.31 2.2 27.49 2.82C28.66 3.43 29.79 4.14 30.85 4.94L31 5.05L31 6.23C30.99 8.82 30.65 11.39 29.98 13.89C29.3 16.39 28.31 18.79 27.01 21.03C25.72 23.27 24.14 25.34 22.31 27.17C20.49 29 18.43 30.59 16.19 31.89L16 32L15.81 31.89C13.57 30.59 11.52 29 9.69 27.17C7.86 25.34 6.28 23.28 4.99 21.04C3.7 18.8 2.7 16.4 2.03 13.9C1.35 11.4 1.01 8.83 1 6.24L1 5.05L1.15 4.94C2.21 4.14 3.34 3.43 4.51 2.82C5.69 2.2 6.91 1.68 8.17 1.26C9.43 0.84 10.72 0.52 12.04 0.31C13.35 0.1 14.67 0 16 0ZM16 2C14.85 2 13.7 2.09 12.56 2.26C11.42 2.44 10.29 2.7 9.19 3.04C8.09 3.39 7.02 3.82 5.98 4.32C4.94 4.83 3.95 5.41 3 6.07L3 6.24C3.01 8.57 3.32 10.89 3.91 13.15C4.5 15.41 5.37 17.58 6.5 19.62C7.63 21.66 9.01 23.55 10.62 25.24C12.22 26.94 14.03 28.43 16 29.67C17.97 28.42 19.78 26.94 21.38 25.24C22.99 23.55 24.37 21.66 25.5 19.61C26.63 17.57 27.5 15.4 28.09 13.14C28.68 10.89 28.99 8.56 29 6.23L29 6.07C28.05 5.41 27.06 4.83 26.02 4.32C24.98 3.81 23.91 3.39 22.81 3.04C21.71 2.7 20.58 2.44 19.44 2.26C18.3 2.09 17.15 2 16 2Z" />
			<path id="Layer" class="shp1" d="M22.77 8.99L22.77 12.81L22.61 12.9L19.31 14.81L16 16.73L12.69 14.81L14.69 13.66L16 14.42L17.31 13.66L18.62 12.9L19.26 12.53L19.31 12.51L20.77 11.66L20.77 10.14L16 7.39L11.23 10.14L9.23 11.3L9.23 8.99L16 5.08L18 6.24L22.77 8.99L22.77 8.99Z" />
			<path id="Layer" class="shp1" d="M19.31 12.53L19.26 12.53L19.31 12.51L19.31 12.53L19.31 12.53Z" />
			<path id="Layer" class="shp1" d="M20.77 15.66L16 18.42L11.23 15.66L11.23 14.14L13.37 12.9L14.69 12.14L16 11.39L17.31 12.14L19.31 10.99L16 9.09L12.69 10.99L9.38 12.9L9.23 12.99L9.23 16.81L14 19.57L16 20.73L22.77 16.81L22.77 14.51L20.77 15.66L20.77 15.66Z" />
		</g>
	</g>
</svg>