<?xml version="1.0" encoding="UTF-8"?>
<svg width="32px" height="32px" viewBox="0 0 32 32" version="1.1" xmlns="http://www.w3.org/2000/svg" xmlns:xlink="http://www.w3.org/1999/xlink">
    <title>蓝32</title>
    <g id="蓝32" stroke="none" stroke-width="1" fill="none" fill-rule="evenodd">
        <g id="编组" transform="translate(1.246654, -0.021000)" fill="#0052D9" fill-rule="nonzero">
            <g transform="translate(0.000000, 0.000000)">
                <g>
                    <path d="M15.0123457,2 C10.3723457,2.055 5.85134568,3.474 2.01234568,6.08 C2.24934568,15.579 7.10034568,24.367 15.0123457,29.63 C22.9253457,24.368 27.7763457,15.58 28.0123457,6.08 C24.1743457,3.473 19.6533457,2.054 15.0123457,2 Z M15.0123457,0 C20.4103457,0.069 25.6523457,1.817 30.0123457,5 L30.0123457,5.6 C29.8803457,16.393 24.2163457,26.362 15.0123457,32 C-0.987654321,22.21 0.012345679,5 0.012345679,5 C4.37234568,1.817 9.61434568,0.07 15.0123457,0 Z" id="SVGID_12_"></path>
                    <g id="SVGID_7_-link">
                        <path d="M15.0123457,2 C10.3723457,2.055 5.85134568,3.474 2.01234568,6.08 C2.24934568,15.579 7.10034568,24.367 15.0123457,29.63 C22.9253457,24.368 27.7763457,15.58 28.0123457,6.08 C24.1743457,3.473 19.6533457,2.054 15.0123457,2 Z M15.0123457,0 C20.4103457,0.069 25.6523457,1.817 30.0123457,5 L30.0123457,5.6 C29.8803457,16.393 24.2163457,26.362 15.0123457,32 C-0.987654321,22.21 0.012345679,5 0.012345679,5 C4.37234568,1.817 9.61434568,0.07 15.0123457,0 Z" id="SVGID_7_"></path>
                    </g>
                </g>
                <polygon id="路径" points="21.5053457 12.512 20.5413457 11.955 20.5413457 13.068 19.5823457 13.623 20.5413457 14.177 20.8793457 14.373 20.8793457 17.208 18.4243457 18.625 15.9683457 17.208 15.9683457 14.373 15.9703457 14.372 15.9683457 14.371 19.3873457 12.398 19.3873457 7.341 15.0073457 4.812 10.6273457 7.342 10.6273457 8.841 10.6273457 9.952 11.5883457 9.396 12.5513457 9.952 12.5513457 8.841 12.5513457 8.452 15.0073457 7.035 17.4623457 8.452 17.4623457 11.288 17.0493457 11.526 15.0073457 12.705 15.0073457 12.705 15.0053457 12.705 11.5903457 10.734 7.20834568 13.264 7.20834568 18.319 11.5883457 20.848 12.8933457 20.095 13.8453457 19.546 12.8933457 18.996 12.8933457 17.873 11.9193457 18.434 11.5883457 18.625 9.13434568 17.208 9.13434568 14.373 11.5883457 12.955 14.0443457 14.373 14.0483457 14.373 14.0483457 18.321 15.0053457 18.875 15.0073457 18.875 18.4243457 20.848 22.8043457 18.319 22.8043457 13.262"></polygon>
            </g>
            <g transform="translate(0.000000, 0.000000)">
                <g>
                    <path d="M15.0123457,2 C10.3723457,2.055 5.85134568,3.474 2.01234568,6.08 C2.24934568,15.579 7.10034568,24.367 15.0123457,29.63 C22.9253457,24.368 27.7763457,15.58 28.0123457,6.08 C24.1743457,3.473 19.6533457,2.054 15.0123457,2 Z M15.0123457,0 C20.4103457,0.069 25.6523457,1.817 30.0123457,5 L30.0123457,5.6 C29.8803457,16.393 24.2163457,26.362 15.0123457,32 C-0.987654321,22.21 0.012345679,5 0.012345679,5 C4.37234568,1.817 9.61434568,0.07 15.0123457,0 Z" id="SVGID_35_"></path>
                    <g id="SVGID_9_-link">
                        <path d="M15.0123457,2 C10.3723457,2.055 5.85134568,3.474 2.01234568,6.08 C2.24934568,15.579 7.10034568,24.367 15.0123457,29.63 C22.9253457,24.368 27.7763457,15.58 28.0123457,6.08 C24.1743457,3.473 19.6533457,2.054 15.0123457,2 Z M15.0123457,0 C20.4103457,0.069 25.6523457,1.817 30.0123457,5 L30.0123457,5.6 C29.8803457,16.393 24.2163457,26.362 15.0123457,32 C-0.987654321,22.21 0.012345679,5 0.012345679,5 C4.37234568,1.817 9.61434568,0.07 15.0123457,0 Z" id="SVGID_9_"></path>
                    </g>
                </g>
                <polygon id="路径" points="21.5053457 12.512 20.5413457 11.955 20.5413457 13.068 19.5823457 13.623 20.5413457 14.177 20.8793457 14.373 20.8793457 17.208 18.4243457 18.625 15.9683457 17.208 15.9683457 14.373 15.9703457 14.372 15.9683457 14.371 19.3873457 12.398 19.3873457 7.341 15.0073457 4.812 10.6273457 7.342 10.6273457 8.841 10.6273457 9.952 11.5883457 9.396 12.5513457 9.952 12.5513457 8.841 12.5513457 8.452 15.0073457 7.035 17.4623457 8.452 17.4623457 11.288 17.0493457 11.526 15.0073457 12.705 15.0073457 12.705 15.0053457 12.705 11.5903457 10.734 7.20834568 13.264 7.20834568 18.319 11.5883457 20.848 12.8933457 20.095 13.8453457 19.546 12.8933457 18.996 12.8933457 17.873 11.9193457 18.434 11.5883457 18.625 9.13434568 17.208 9.13434568 14.373 11.5883457 12.955 14.0443457 14.373 14.0483457 14.373 14.0483457 18.321 15.0053457 18.875 15.0073457 18.875 18.4243457 20.848 22.8043457 18.319 22.8043457 13.262"></polygon>
            </g>
        </g>
    </g>
</svg>