<?xml version="1.0" encoding="UTF-8"?>
<svg width="32px" height="32px" viewBox="0 0 32 32" version="1.1" xmlns="http://www.w3.org/2000/svg" xmlns:xlink="http://www.w3.org/1999/xlink">
    <!-- Generator: Sketch 52.6 (67491) - http://www.bohemiancoding.com/sketch -->
    <title>手游安全测试-32px</title>
    <desc>Created with Sketch.</desc>
    <g id="手游安全测试-32px" stroke="none" stroke-width="1" fill="none" fill-rule="evenodd">
        <rect id="Rectangle-Copy" fill="#0052D9" opacity="0" x="0" y="0" width="32" height="32"></rect>
        <g id="Group-2" transform="translate(3.000000, 2.000000)">
            <g id="Group">
                <path d="M24,6 L24,15.2 C24,15.2 24,17.5 22.6,20 C20.8,23.4 17.5,25.7 13,26.9 C2.3,24.3 2,15.6 2,15.2 L2,2 L22,2 L24,2 L26,2 L26,0 L0,0 L0,15.2 C0,15.2 0.1,26 13,29 C25.9,26 26,15.2 26,15.2 L26,6 L24,6 Z" id="Shape" fill="#0052D9" fill-rule="nonzero"></path>
                <circle id="Oval-48" stroke="#0052D9" stroke-width="2" cx="13" cy="13" r="6"></circle>
                <rect id="Rectangle-118" fill="#0052D9" x="12" y="4" width="2" height="18"></rect>
                <rect id="Rectangle-118-Copy-3" fill="#0052D9" transform="translate(13.000000, 13.000000) rotate(90.000000) translate(-13.000000, -13.000000) " x="12" y="4" width="2" height="18"></rect>
            </g>
        </g>
    </g>
</svg>