<?xml version="1.0" encoding="UTF-8"?>
<svg width="32px" height="32px" viewBox="0 0 32 32" version="1.1" xmlns="http://www.w3.org/2000/svg" xmlns:xlink="http://www.w3.org/1999/xlink">
    <title>EIAM-32px-00A4FF</title>
    <g id="EIAM-32px-00A4FF" stroke="none" stroke-width="1" fill="none" fill-rule="evenodd">
        <rect id="Rectangle-" fill="#0052D9" opacity="0" x="0" y="0" width="32" height="32"></rect>
        <g id="group" transform="translate(3.000000, 0.000000)" fill="#0052D9">
            <circle id="椭圆形" cx="2" cy="2" r="2"></circle>
            <circle id="椭圆形备份" transform="translate(24.000000, 30.000000) rotate(-180.000000) translate(-24.000000, -30.000000) " cx="24" cy="30" r="2"></circle>
            <rect id="XMLID_174_" x="2" y="1" width="21" height="2"></rect>
            <rect id="XMLID_174_备份-2" transform="translate(12.500000, 30.000000) rotate(-180.000000) translate(-12.500000, -30.000000) " x="2" y="29" width="21" height="2"></rect>
            <rect id="XMLID_174_备份" transform="translate(24.000000, 11.000000) rotate(-270.000000) translate(-24.000000, -11.000000) " x="14" y="10" width="20" height="2"></rect>
            <rect id="XMLID_174_备份-3" transform="translate(2.000000, 21.000000) rotate(-90.000000) translate(-2.000000, -21.000000) " x="-8" y="20" width="20" height="2"></rect>
        </g>
        <circle id="Oval" stroke="#0052D9" stroke-width="2" fill-rule="nonzero" cx="16" cy="9.5" r="2.5"></circle>
        <path d="M11.0171478,19.0347525 L9.0171478,19.0347525 C9.0171478,16.2737525 11.2561478,14.0347525 14.0171478,14.0347525 L14.0171478,16.0347525 C12.3631478,16.0347525 11.0171478,17.3807525 11.0171478,19.0347525 Z M23.0171478,19.0347525 L21.0171478,19.0347525 C21.0171478,17.3807525 19.6711478,16.0347525 18.0171478,16.0347525 L18.0171478,14.0347525 C20.7781478,14.0347525 23.0171478,16.2727525 23.0171478,19.0347525 Z M18.0171478,16.0347525 L14.0171478,16.0347525 L14.0171478,14.0347525 L18.0171478,14.0347525 L18.0171478,16.0347525 Z" id="XMLID_2_" fill="#0052D9"></path>
        <rect id="Rectangle-173" fill="#0052D9" fill-rule="nonzero" x="9" y="24" width="10" height="2"></rect>
        <rect id="Rectangle-173备份-2" fill="#0052D9" fill-rule="nonzero" x="9" y="21" width="14" height="2"></rect>
    </g>
</svg>