<svg width="32" height="32" viewBox="0 0 32 32" fill="none" xmlns="http://www.w3.org/2000/svg">
<path fill-rule="evenodd" clip-rule="evenodd" d="M31.0123 5C26.6527 1.81656 21.4102 0.0690612 16.0123 0C10.6145 0.0690612 5.37204 1.81656 1.01235 5C1.01235 5 0.0322447 21.8675 15.5374 31.7041L16.0123 32C32.0123 22.21 31.0123 5 31.0123 5ZM3.01235 6.08C6.85393 3.47898 11.3734 2.06055 16.0123 2C20.6513 2.06055 25.1708 3.47898 29.0123 6.08C28.7798 15.5833 23.928 24.3762 16.0123 29.64C8.09409 24.3785 3.24151 15.5842 3.01235 6.08ZM16 7C16 5.89543 15.1046 5 14 5C12.8954 5 12 5.89543 12 7H16ZM14 3C11.7909 3 10 4.79086 10 7H9C7.89543 7 7 7.89543 7 9V18C7 19.1046 7.89543 20 9 20H17.7851C17.303 19.6393 17.0216 19.2049 17.0216 18.7373V18H9L9 9H10H18H19V10.3087C19.5844 10.1493 20.2656 10.0443 21 10.0112V9C21 7.89543 20.1046 7 19 7H18C18 4.79086 16.2091 3 14 3ZM16 13C16 13.7532 15.5837 14.4091 14.9686 14.7502C14.9891 14.8301 15 14.9138 15 15V16.5C15 17.0523 14.5523 17.5 14 17.5C13.4477 17.5 13 17.0523 13 16.5V15C13 14.9138 13.0109 14.8301 13.0314 14.7502C12.4163 14.4091 12 13.7532 12 13C12 11.8954 12.8954 11 14 11C15.1046 11 16 11.8954 16 13ZM19.9678 12.9061C19.5912 13.1213 19.5629 13.3002 19.5629 13.3302C19.5629 13.3601 19.5912 13.539 19.9678 13.7542C20.3224 13.9569 20.8642 14.1069 21.5047 14.1069C22.1453 14.1069 22.6871 13.9569 23.0417 13.7542C23.4183 13.539 23.4465 13.3601 23.4465 13.3302C23.4465 13.3002 23.4183 13.1213 23.0417 12.9061C22.6871 12.7035 22.1453 12.5534 21.5047 12.5534C20.8642 12.5534 20.3224 12.7035 19.9678 12.9061ZM19.1971 11.5573C19.8264 11.1977 20.6439 11 21.5047 11C22.3656 11 23.1831 11.1977 23.8124 11.5573C24.4197 11.9044 25 12.5022 25 13.3302V18.1847C25 19.0127 24.3489 19.5533 23.7744 19.8406C23.1534 20.1511 22.3499 20.3207 21.5047 20.3207C20.6596 20.3207 19.8561 20.1511 19.2351 19.8406C18.6606 19.5533 18.0095 19.0128 18.0095 18.1847V15.8183C18.0032 15.7584 18 15.6971 18 15.6345C18 15.572 18.0032 15.5107 18.0095 15.4508V13.3302C18.0095 12.5022 18.5897 11.9044 19.1971 11.5573ZM19.5629 17.6154V18.1655C19.5711 18.1835 19.626 18.2992 19.9298 18.4511C20.2927 18.6326 20.8485 18.7673 21.5047 18.7673C22.161 18.7673 22.7167 18.6326 23.0797 18.4511C23.3835 18.2992 23.4384 18.1835 23.4465 18.1655V17.6071C22.8787 17.856 22.2016 17.9905 21.4953 17.9905C20.7968 17.9905 20.1268 17.859 19.5629 17.6154ZM23.4465 15.6345H23.443C23.443 15.6628 23.4158 15.844 23.0372 16.0625C22.6813 16.2679 22.1377 16.4199 21.4953 16.4199C20.8528 16.4199 20.3093 16.2679 19.9533 16.0625C19.6864 15.9085 19.5942 15.773 19.5629 15.6966V15.285C20.1289 15.5287 20.8024 15.6603 21.5047 15.6603C22.2071 15.6603 22.8806 15.5287 23.4465 15.285V15.6345Z" fill="#0052D9"/>
</svg>
