<svg id="图层_1" data-name="图层 1" xmlns="http://www.w3.org/2000/svg" width="32" height="32" viewBox="0 0 32 32">
  <defs>
    <style>
      .cls-1 {
        fill: #0052D9;
      }

      .cls-2 {
        fill: none;
        stroke: #0052D9;
        stroke-miterlimit: 10;
        stroke-width: 2px;
      }
    </style>
  </defs>
  <title>#</title>
  <path class="cls-1" d="M16,2A23.62,23.62,0,0,1,29,6.07,29.54,29.54,0,0,1,16,29.63,29.16,29.16,0,0,1,3,6.07,23.71,23.71,0,0,1,16,2m0-2A26,26,0,0,0,1,5S0,22.21,16,32h0C32,22.21,31,5,31,5A26,26,0,0,0,16,0Z"/>
  <g>
    <polygon class="cls-1" points="12.07 10.08 10.07 10.08 10.07 16.04 12.07 16.04 12.07 10.08 12.07 10.08"/>
    <polygon class="cls-1" points="17 6.18 15 6.18 15 16.04 17 16.04 17 6.18 17 6.18"/>
    <polygon class="cls-1" points="21.93 8.21 19.93 8.21 19.93 16.04 21.93 16.04 21.93 8.21 21.93 8.21"/>
  </g>
  <line class="cls-2" x1="9.22" y1="18.3" x2="22.78" y2="18.3"/>
</svg>
