<svg id="图层_1" data-name="图层 1" xmlns="http://www.w3.org/2000/svg" width="32" height="32" viewBox="0 0 32 32">
  <defs>
    <style>
      .cls-1 {
        fill: #0052D9;
      }
    </style>
  </defs>
  <title>#</title>
  <path class="cls-1" d="M31,5A26,26,0,0,0,16,0,26,26,0,0,0,1,5S0,22.21,16,32A31.41,31.41,0,0,0,31,5.6C31,5.23,31,5,31,5ZM16,29.63A29.16,29.16,0,0,1,3,6.08,23.65,23.65,0,0,1,16,2,23.62,23.62,0,0,1,29,6.08,29.15,29.15,0,0,1,16,29.63Z"/>
  <g>
    <path class="cls-1" d="M19,12.6a3,3,0,0,0-.7-1.11,2.93,2.93,0,0,0-1.81-.87l-.32,0a2.89,2.89,0,0,0-1.35.32,3.08,3.08,0,0,0-1.39,1.44,3,3,0,0,0-.26,1.24,3.07,3.07,0,0,0,0,.53,3,3,0,0,0,2.95,2.47,2.88,2.88,0,0,0,.59-.06,3,3,0,0,0,1.73-1A3.29,3.29,0,0,0,19,14.6a3,3,0,0,0,0-2Zm-2.83,2.34a1,1,0,0,1-.41-.08,1.31,1.31,0,0,1-.93-1.26,1.34,1.34,0,0,1,2.23-1,1.31,1.31,0,0,1,.45,1,1,1,0,0,1,0,.24,1.28,1.28,0,0,1-.42.76A1.35,1.35,0,0,1,16.15,14.94Z"/>
    <rect class="cls-1" x="12.06" y="7.83" width="2" height="5.69" transform="translate(-3.64 13.02) rotate(-47.28)"/>
    <circle class="cls-1" cx="11" cy="8.77" r="2"/>
    <circle class="cls-1" cx="18.77" cy="7.44" r="2"/>
    <circle class="cls-1" cx="22.15" cy="13.6" r="2"/>
    <circle class="cls-1" cx="11.26" cy="17.23" r="2"/>
    <circle class="cls-1" cx="19.38" cy="18.94" r="2"/>
    <rect class="cls-1" x="15.13" y="8.91" width="5.36" height="2" transform="translate(2.15 22.96) rotate(-68.88)"/>
    <path class="cls-1" d="M21.15,12.6v2H17a1.28,1.28,0,0,0,.42-.76,1,1,0,0,0,0-.24,1.31,1.31,0,0,0-.45-1Z"/>
    <rect class="cls-1" x="10.53" y="15.1" width="4.24" height="2" transform="translate(-7.68 13.66) rotate(-45)"/>
    <path class="cls-1" d="M20,18.09l-1.72,1L17.62,18l-.88-1.46-1-1.68a1,1,0,0,0,.41.08A1.35,1.35,0,0,0,17,14.6a1.28,1.28,0,0,0,.42-.76l.46.76.55.92.85,1.42Z"/>
  </g>
</svg>
