<svg id="图层_1" data-name="图层 1" xmlns="http://www.w3.org/2000/svg" width="32" height="32" viewBox="0 0 32 32">
  <defs>
    <style>
      .cls-1 {
        fill: #0052D9;
      }

      .cls-2 {
        fill: none;
        stroke: #0052D9;
        stroke-miterlimit: 10;
        stroke-width: 2px;
      }
    </style>
  </defs>
  <title>#</title>
  <path class="cls-1" d="M16,2A23.71,23.71,0,0,1,29,6.07,29.16,29.16,0,0,1,16,29.63,29.16,29.16,0,0,1,3,6.07,23.71,23.71,0,0,1,16,2m0-2A26,26,0,0,0,1,5S0,22.21,16,32h0C32,22.21,31,5,31,5A26,26,0,0,0,16,0Z"/>
  <g>
    <path class="cls-1" d="M17.27,17.15a7.69,7.69,0,0,1-1.27.11,8.22,8.22,0,0,1-7-4A8.63,8.63,0,0,1,11.07,11L9.66,9.54A10.63,10.63,0,0,0,7.3,12.21l-.65,1,.65,1.05a10,10,0,0,0,11.63,4.5Z"/>
    <path class="cls-1" d="M24.7,12.21a10,10,0,0,0-11.63-4.5l1.66,1.66A7.69,7.69,0,0,1,16,9.26a8.24,8.24,0,0,1,7,4,8.48,8.48,0,0,1-2.07,2.31L22.35,17a10.79,10.79,0,0,0,2.35-2.67l.65-1.05Z"/>
  </g>
  <g>
    <path class="cls-1" d="M19,13.6c0-.11,0-.22,0-.34a3,3,0,0,0-3-3,1.86,1.86,0,0,0-.34,0Z"/>
    <path class="cls-1" d="M13,12.92c0,.11,0,.22,0,.34a3,3,0,0,0,3,3c.12,0,.23,0,.34,0Z"/>
  </g>
  <line class="cls-2" x1="22.1" y1="19.36" x2="9.9" y2="7.16"/>
</svg>
