<svg id="图层_1" data-name="图层 1" xmlns="http://www.w3.org/2000/svg" width="32" height="32" viewBox="0 0 32 32"><defs><style>.cls-1{fill:#0052D9;}</style></defs><title>32px，00A4FF，描边2px 副本 4</title><rect class="cls-1" x="8.51" y="6.79" width="10.05" height="2"/><rect class="cls-1" x="12.53" y="7.54" width="2" height="8.67"/><rect class="cls-1" x="20.42" y="6.79" width="3.49" height="2"/><rect class="cls-1" x="19.12" y="10.81" width="4.79" height="2"/><rect class="cls-1" x="17.87" y="14.83" width="6.04" height="2"/><rect class="cls-1" x="8.6" y="18.65" width="15.3" height="2"/><path class="cls-1" d="M16.21,2.15a22.28,22.28,0,0,1,12.85,4v.13A27.55,27.55,0,0,1,16.2,29.51,27.59,27.59,0,0,1,3.35,6.33V6.19a22.29,22.29,0,0,1,12.86-4m0-2a24.46,24.46,0,0,0-14.7,4.9l-.14.1v.18c0,.33,0,.66,0,1A29.48,29.48,0,0,0,16,31.73l.19.11.19-.11A29.45,29.45,0,0,0,31.06,6.32c0-.33,0-.66,0-1V5.15l-.14-.1A24.45,24.45,0,0,0,16.21.15Z"/></svg>