<svg width="32" height="32" viewBox="0 0 32 32" fill="none" xmlns="http://www.w3.org/2000/svg">
<path fill-rule="evenodd" clip-rule="evenodd" d="M16.0123 0C21.4102 0.0690612 26.6527 1.81656 31.0123 5C31.0123 5 32.0123 22.21 16.0123 32L15.5374 31.7041C0.0322447 21.8675 1.01235 5 1.01235 5C5.37204 1.81656 10.6145 0.0690612 16.0123 0ZM16.0123 2C11.3734 2.06055 6.85393 3.47898 3.01235 6.08C3.24151 15.5842 8.09409 24.3785 16.0123 29.64C23.928 24.3762 28.7798 15.5833 29.0123 6.08C25.1708 3.47898 20.6513 2.06055 16.0123 2ZM22.5826 11.7913C22.5826 8.38029 20.0679 5.55664 16.7913 5.0731V6.94623C19.2262 7.41351 21.066 9.55507 21.066 12.1263C21.066 13.3216 20.6685 14.424 19.9984 15.3085L18.2444 14.2958C18.7557 13.7181 19.066 12.9585 19.066 12.1263C19.066 10.6665 18.1108 9.42974 16.7913 9.00706V10.2676C17.3891 10.6134 17.7913 11.2597 17.7913 12C17.7913 13.1046 16.8958 14 15.7913 14C14.6867 14 13.7913 13.1046 13.7913 12C13.7913 11.2597 14.1935 10.6134 14.7913 10.2676V3H15.7913H16.7913V3.05625C21.1757 3.55267 24.5826 7.27412 24.5826 11.7913C24.5826 13.8215 23.8944 15.691 22.7385 17.1792L20.9853 16.1669C21.9819 14.9851 22.5826 13.4583 22.5826 11.7913ZM10.4121 15.9375C9.52672 14.7904 9 13.3524 9 11.7913C9 9.90761 9.76689 8.20305 11.0055 6.97281C11.098 6.99065 11.1935 7 11.2913 7C12.1197 7 12.7913 6.32843 12.7913 5.5C12.7913 4.67157 12.1197 4 11.2913 4C10.5101 4 9.86845 4.59708 9.79773 5.35975C8.07638 6.96458 7 9.25223 7 11.7913C7 13.7162 7.61863 15.4966 8.66793 16.9445L10.4121 15.9375ZM12.5165 12.1263C12.5165 13.0356 12.8871 13.8584 13.4855 14.4518L11.7148 15.4741C10.966 14.5634 10.5165 13.3973 10.5165 12.1263C10.5165 11.41 10.6593 10.727 10.918 10.1043C10.8365 9.91941 10.7913 9.71499 10.7913 9.5C10.7913 8.67157 11.4628 8 12.2913 8C13.1197 8 13.7913 8.67157 13.7913 9.5C13.7913 10.1716 13.3499 10.7401 12.7414 10.9313C12.5962 11.3015 12.5165 11.7046 12.5165 12.1263ZM16 27.1547L21.3302 24.0773V17.9226L16 14.8453L10.6699 17.9226V24.0773L16 27.1547ZM16 24.8453L12.6699 22.9226V19.0773L16 17.1547L19.3302 19.0773V22.9226L16 24.8453ZM17.732 22L16 23L14.2679 22V20L16 19L17.732 20V22Z" fill="#0052D9"/>
</svg>
