<svg width="32" height="32" viewBox="0 0 32 32" fill="none" xmlns="http://www.w3.org/2000/svg">
<path fill-rule="evenodd" clip-rule="evenodd" d="M31.0123 5C26.6527 1.81656 21.4102 0.0690612 16.0123 0C10.6145 0.0690612 5.37204 1.81656 1.01235 5C1.01235 5 0.0322447 21.8675 15.5374 31.7041L16.0123 32C32.0123 22.21 31.0123 5 31.0123 5ZM3.01235 6.08C6.85393 3.47898 11.3734 2.06055 16.0123 2C20.6513 2.06055 25.1708 3.47898 29.0123 6.08C28.8523 12.6202 26.5045 18.8239 22.4759 23.7724L22.4938 23.6116L22.4939 23.6104L22.4946 23.6044L22.4998 23.5642C22.505 23.5261 22.5136 23.4658 22.5266 23.384C22.5527 23.2205 22.5965 22.9716 22.6657 22.645C22.8043 21.9919 23.0447 21.0283 23.4487 19.8162C23.6263 19.2834 23.8803 18.7873 24.1837 18.2487C24.2586 18.1159 24.3383 17.9773 24.4208 17.8341L24.4208 17.834C24.6586 17.4211 24.9187 16.9692 25.1476 16.5034C25.799 15.1773 26.2711 13.6062 25.9923 11.376C25.6529 8.66123 24.4072 6.39435 22.416 4.9542C20.424 3.51349 17.7915 2.97606 14.8211 3.51614C12.2763 3.97884 10.6004 5.53048 9.56173 7.21196C8.60861 8.75491 8.16188 10.4475 8.02822 11.6549L5.5396 15.3878L8 16.618L8 18.001L8 18.002L8.00001 18.0042L8.00004 18.009L8.00017 18.0204L8.00091 18.0499C8.00166 18.0726 8.00299 18.1012 8.00535 18.135C8.01007 18.2026 8.01894 18.2921 8.03567 18.3982C8.06882 18.6081 8.13473 18.8946 8.26835 19.2064C8.54334 19.848 9.10783 20.59 10.1838 20.9487L16 22.8874V17.159L17.1872 17.2129C17.2626 17.4501 17.3595 17.6776 17.4756 17.8933L16.4 18.7L17.6 20.3L18.842 19.3685C19.4109 19.7337 20.0784 19.9588 20.7957 19.9949C20.9998 19.2974 21.2305 18.5694 21.5056 17.9355C21.3441 17.9776 21.1747 18 21 18C19.8954 18 19 17.1046 19 16C19 14.8954 19.8954 14 21 14C21.9187 14 22.6927 14.6194 22.9272 15.4633C23.1119 15.0285 23.2779 14.4626 23.5 13.5C23.5386 13.3326 23.5651 13.1441 23.5824 12.9452C22.8856 12.3555 21.9843 12 21 12C20.0547 12 19.1861 12.3279 18.5015 12.8761L17.6 12.2L16.4 13.8L17.3007 14.4756C17.2046 14.7087 17.1298 14.953 17.0788 15.2059L16.0453 15.159L15.9845 16.5H13.5V9.5H18.3819C18.6566 9.80688 19.0557 10 19.5 10C20.3284 10 21 9.32844 21 8.50001C21 7.67158 20.3284 7.00001 19.5 7.00001C19.0558 7.00001 18.6566 7.19313 18.382 7.5H11.8046C12.6015 6.52293 13.6932 5.754 15.1789 5.48388C17.7085 5.02395 19.7659 5.50583 21.2439 6.57477C22.7226 7.64427 23.7269 9.37739 24.0077 11.624C24.2289 13.3938 23.8677 14.5727 23.3524 15.6216C23.1549 16.0237 22.9438 16.3905 22.7166 16.7851L22.7166 16.7851C22.6273 16.9402 22.5356 17.0995 22.4413 17.267C22.1197 17.8377 21.7904 18.4666 21.5513 19.1838C21.1497 20.3886 20.8966 21.3734 20.7402 22.0864L19.742 21.6586C19.4722 21.2611 19.0166 21 18.5 21C17.6716 21 17 21.6716 17 22.5C17 23.3284 17.6716 24 18.5 24C18.8423 24 19.1578 23.8854 19.4102 23.6924L21.7082 24.6772C20.0518 26.5505 18.1431 28.2231 16.0123 29.64C8.09409 24.3785 3.24151 15.5842 3.01235 6.08ZM8 18.001L9 18C8 18 8 18.0005 8 18.001ZM10 17.9877L10.0005 17.9958C10.0017 18.0123 10.0045 18.0438 10.0112 18.0862C10.0249 18.1732 10.0528 18.2929 10.1066 18.4186C10.2067 18.652 10.3922 18.91 10.8162 19.0513L14 20.1126V18.5H11.5V7.90313C11.4174 8.02102 11.3386 8.14114 11.2633 8.26305C10.431 9.61034 10.0702 11.1258 9.99705 12.0767L9.97701 12.3373L8.4604 14.6122L10 15.382V17.9877ZM17 12H14V10L17 10V12ZM14 15H16V13H14V15ZM21 11.5C20.2715 11.5 19.5885 11.6647 19.0002 11.9747C19.0137 10.8818 19.9039 10 21 10C22.0961 10 22.9863 10.8818 22.9998 11.9747C22.4115 11.6647 21.7285 11.5 21 11.5Z" fill="#0052D9"/>
</svg>
