<svg id="图层_1" data-name="图层 1" xmlns="http://www.w3.org/2000/svg" xmlns:xlink="http://www.w3.org/1999/xlink" width="32" height="32" viewBox="0 0 32 32">
  <defs>
    <style>
      .cls-1, .cls-2 {
        fill: none;
      }

      .cls-2 {
        clip-rule: evenodd;
      }

      .cls-3 {
        isolation: isolate;
      }

      .cls-4 {
        clip-path: url(#clip-path);
      }

      .cls-5 {
        clip-path: url(#clip-path-2);
      }

      .cls-6 {
        clip-path: url(#clip-path-3);
      }

      .cls-7 {
        fill: #0052D9;
      }
    </style>
    <clipPath id="clip-path">
      <rect class="cls-1" width="32" height="32"/>
    </clipPath>
    <clipPath id="clip-path-2">
      <path class="cls-2" d="M16,2A23.74,23.74,0,0,1,29,6.08,29.15,29.15,0,0,1,16,29.64,29.13,29.13,0,0,1,3,6.08,23.74,23.74,0,0,1,16,2m0-2A26,26,0,0,0,1,5S0,22.21,16,32h0C32,22.21,31,5,31,5A26,26,0,0,0,16,0"/>
    </clipPath>
    <clipPath id="clip-path-3">
      <rect class="cls-1" x="1" width="30" height="32"/>
    </clipPath>
  </defs>
  <title> </title>
  <g class="cls-3">
    <g class="cls-4">
      <g class="cls-5">
        <g class="cls-6">
          <rect class="cls-7" x="-4" y="-5" width="40" height="42"/>
        </g>
      </g>
    </g>
  </g>
  <path class="cls-7" d="M23.14,16.6h0l.09-.25c.05-.11.09-.23.13-.34s.09-.28.13-.42.07-.26.1-.39.05-.31.08-.46,0-.24,0-.36a7.89,7.89,0,0,0,.05-.84,7.58,7.58,0,0,0-.05-.84c0-.12,0-.24,0-.36s-.05-.31-.08-.46-.07-.26-.1-.39-.08-.28-.13-.42-.08-.23-.13-.34l-.09-.25v0h0c1.37-2.58,1-3.85.4-4.45-.86-.85-2.4-.7-4.47.4l-.31-.12-.26-.09A4.13,4.13,0,0,0,18,6l-.33-.09-.51-.09-.32,0a7.73,7.73,0,0,0-.84,0,7.92,7.92,0,0,0-.85,0l-.31,0-.51.09L14,6a4.13,4.13,0,0,0-.5.15l-.26.09a2.52,2.52,0,0,0-.29.12h0C10.85,5.29,9.31,5.14,8.46,6c-.59.6-1,1.87.41,4.46a2,2,0,0,0-.1.26c0,.12-.09.24-.13.36s-.09.27-.13.4-.07.27-.1.4-.05.3-.08.46,0,.23-.05.36a7.58,7.58,0,0,0,0,.84,7.89,7.89,0,0,0,0,.84c0,.12,0,.25.05.37s.05.3.08.44.07.28.11.41.07.26.11.39.09.25.14.37a2.77,2.77,0,0,0,.1.26c-1.38,2.59-1,3.86-.41,4.45a2,2,0,0,0,1.48.56,6.7,6.7,0,0,0,3-1h0l.29.11.26.1L14,21l.33.08a4.54,4.54,0,0,0,.51.09l.31.05a7.92,7.92,0,0,0,.85.05,7.73,7.73,0,0,0,.84-.05l.32-.05a4.54,4.54,0,0,0,.51-.09L18,21l.48-.15.27-.1a2.85,2.85,0,0,0,.31-.12,6.83,6.83,0,0,0,3,1,2,2,0,0,0,1.48-.56c.59-.59,1-1.86-.4-4.44Zm-5.82,2.95-.4.07-.25,0c-.22,0-.44,0-.67,0s-.43,0-.64,0L15,19.62l-.28-.05h0c.38-.26.76-.55,1.15-.85l.33-.27c.31-.25.62-.5.92-.77l.37-.32c.4-.37.8-.74,1.2-1.14s.52-.54.78-.81a1.76,1.76,0,0,0,.46.06,1.51,1.51,0,0,0,.53-.09l.22.29.33.51c.1.16.2.31.29.47l-.17.28a3.62,3.62,0,0,1-.22.32,3.91,3.91,0,0,1-.37.44l-.26.28a4.31,4.31,0,0,1-.46.39c-.09.07-.18.15-.27.21a4.61,4.61,0,0,1-.77.46l0,0,0,0-.53.23-.18.06-.41.13ZM14.75,7.49l.28,0,.33-.05c.21,0,.42,0,.64,0a4.92,4.92,0,0,1,.67,0l.24,0,.42.08a2.1,2.1,0,0,1,.24.06L18,7.7l.17.06a5.38,5.38,0,0,1,.55.24h0a5.63,5.63,0,0,1,.81.49l.24.19a6.26,6.26,0,0,1,.49.41l.25.27c.13.15.26.29.37.44l.22.33a2.61,2.61,0,0,1,.17.28l-.29.47c-.11.16-.21.33-.33.5s-.26.36-.39.53l-.36,0-.23,0c-.32-.36-.66-.72-1-1.07s-.8-.77-1.2-1.13l-.37-.32c-.3-.27-.61-.53-.92-.77l-.33-.28c-.39-.3-.77-.58-1.15-.85Zm1.59,8.74-.43.37-.81.68-.48.37c-.25.19-.5.38-.75.55l-.48.32-.49.31-.29-.17a3.62,3.62,0,0,1-.32-.22,5.07,5.07,0,0,1-.44-.37l-.28-.25c-.14-.15-.26-.31-.39-.47L11,17.12l0-.05a6.87,6.87,0,0,1-.44-.74h0c0-.06-.05-.11-.07-.16s-.12-.27-.18-.4-.07-.18-.1-.28l-.09-.32L10,14.84l-.06-.35c0-.1,0-.19,0-.29a5,5,0,0,1,0-.67,4.92,4.92,0,0,1,0-.67c0-.1,0-.19,0-.29l.06-.36a2.81,2.81,0,0,0,.08-.31c0-.11.07-.22.1-.33l.1-.27.18-.41a1,1,0,0,0,.07-.15A7.09,7.09,0,0,1,11,10L11,9.92l.15-.19a4.93,4.93,0,0,1,.42-.49A3.2,3.2,0,0,1,11.85,9l.44-.38.32-.21a1.69,1.69,0,0,1,.29-.17l.49.31.49.32.74.55.48.37c.27.21.54.45.81.68l.43.36c.41.37.81.75,1.21,1.15s.55.58.82.86a1.76,1.76,0,0,0-.1,1.49c-.24.26-.47.51-.72.76C17.15,15.48,16.75,15.87,16.34,16.23Zm5.8-2.07c0,.18-.05.36-.08.53s0,.06,0,.08v0c-.13-.19-.28-.38-.42-.57a1.78,1.78,0,0,0,.1-.56,1.73,1.73,0,0,0-.17-.76c.16-.23.33-.45.49-.67v0s0,.06,0,.08c0,.18.06.36.08.54s0,.42,0,.63S22.16,14,22.14,14.16Zm.26-7c.13.13.16.67-.24,1.67l-.09-.09a6.93,6.93,0,0,0-.5-.58.46.46,0,0,1-.07-.07l0,0L21.4,8a7.17,7.17,0,0,0-.58-.52l-.09-.07C21.74,7,22.28,7,22.4,7.12Zm-12.8,0A.55.55,0,0,1,9.94,7a3.7,3.7,0,0,1,1.33.33l-.09.07A7.17,7.17,0,0,0,10.6,8l-.06,0,0,0s0,.06-.08.08a6.8,6.8,0,0,0-.5.57l-.09.1C9.43,7.79,9.47,7.25,9.6,7.12Zm0,12.81c-.13-.12-.17-.66.24-1.67l.09.1a6.8,6.8,0,0,0,.5.57.73.73,0,0,0,.08.09h0a.27.27,0,0,0,.08.07,7,7,0,0,0,.58.51l.09.08C10.26,20.1,9.72,20.06,9.6,19.93Zm12.8,0c-.12.12-.66.17-1.67-.24l.09-.08a7,7,0,0,0,.58-.51l.09-.07h0s.05-.06.08-.08c.18-.19.34-.38.5-.58l.09-.1C22.56,19.27,22.53,19.81,22.4,19.93Z"/>
</svg>
