<svg id="图层_1" data-name="图层 1" xmlns="http://www.w3.org/2000/svg" width="32" height="32" viewBox="0 0 32 32">
  <defs>
    <style>
      .cls-1 {
        fill: #0052D9;
      }

      .cls-2, .cls-3 {
        fill: none;
        stroke: #0052D9;
        stroke-miterlimit: 10;
      }

      .cls-2 {
        stroke-width: 2px;
      }

      .cls-3 {
        stroke-width: 1.7px;
      }
    </style>
  </defs>
  <title>#</title>
  <path class="cls-1" d="M16,2A23.71,23.71,0,0,1,29,6.07,29.16,29.16,0,0,1,16,29.63,29.16,29.16,0,0,1,3,6.07,23.71,23.71,0,0,1,16,2m0-2A26,26,0,0,0,1,5S0,22.21,16,32h0C32,22.21,31,5,31,5A26,26,0,0,0,16,0Z"/>
  <path class="cls-2" d="M21.2,8H17a1,1,0,0,0-1,1,1,1,0,0,0-1-1H10.77A1,1,0,0,0,9.82,9v9.17H15a1,1,0,0,1,.79.4.23.23,0,0,0,.38,0,1,1,0,0,1,.79-.4h5.2V9A1,1,0,0,0,21.2,8Z"/>
  <line class="cls-2" x1="16" y1="14.62" x2="16" y2="8.98"/>
  <line class="cls-3" x1="11.68" y1="10.77" x2="14.14" y2="10.77"/>
  <line class="cls-3" x1="11.68" y1="13.31" x2="14.14" y2="13.31"/>
</svg>
