<?xml version="1.0" encoding="UTF-8"?>
<svg width="31px" height="32px" viewBox="0 0 31 32" version="1.1" xmlns="http://www.w3.org/2000/svg" xmlns:xlink="http://www.w3.org/1999/xlink">
    <!-- Generator: Sketch 62 (91390) - https://sketch.com -->
    <title>32px，7C848E，描边2px备份</title>
    <desc>Created with Sketch.</desc>
    <g id="页面-1" stroke="none" stroke-width="1" fill="none" fill-rule="evenodd">
        <g id="32px，7C848E，描边2px备份" transform="translate(-1.000000, 0.000000)">
            <rect id="矩形" x="0" y="0" width="32" height="32"></rect>
            <g id="编组" transform="translate(1.000000, 0.000000)" fill="#0052D9" fill-rule="nonzero">
                <path d="M28.06,6.16 L28.06,6.29 C28.0302607,15.7209412 23.1784705,24.4813276 15.2,29.51 C7.24451436,24.4844899 2.40024623,15.7497279 2.35,6.34 L2.35,6.19 C6.12342404,3.5661252 10.6090211,2.13936095 15.205,2.15977686 C19.8028628,2.13946822 24.2902391,3.53631687 28.06,6.16 Z M0.52,5.05 L0.37,5.16 L0.37,5.34 C0.37,5.66 0.37,5.99 0.37,6.34 C0.38958608,16.8040703 5.958423,26.4724543 15,31.74 L15.18,31.84 L15.37,31.74 C24.4408174,26.484013 30.0350826,16.8035351 30.06,6.32 C30.06,5.99 30.06,5.66 30.06,5.32 L30.06,5.16 L29.91,5.05 C25.6692497,1.87033374 20.5103969,0.154225536 15.21,0.159745701 C9.9164443,0.147734346 4.76176708,1.88309386 0.52,5.05 Z" id="形状"></path>
                <path d="M23,7 L23,19 L8,19 L8,7 L23,7 Z M21,9 L10,9 L10,17 L21,17 L21,9 Z" id="形状"></path>
                <polygon id="路径" points="13.97 15.15 17.56 12.96 13.97 10.76"></polygon>
            </g>
        </g>
    </g>
</svg>