<svg width="32" height="32" viewBox="0 0 32 32" fill="none" xmlns="http://www.w3.org/2000/svg">
<path d="M15.84 1.44522e-05C21.1404 -0.00574549 26.2992 1.71036 30.54 4.89003L30.69 5.00003V6.16003C30.6651 16.6436 25.0708 26.324 16 31.58L15.81 31.68L15.63 31.58C6.58842 26.3125 1.01959 16.6441 1 6.18003V5.00003L1.15 4.89003C5.39177 1.72312 10.5464 0.0177633 15.84 0.030029V1.44522e-05ZM15.84 1.99981V2.03003C11.244 2.00939 6.75342 3.40615 2.98 6.03003V6.18003C3.03025 15.5898 7.87452 24.3245 15.83 29.35C23.8085 24.3214 28.6603 15.561 28.69 6.13003V6.00003C24.9202 3.37635 20.4329 1.9795 15.84 1.99981Z" fill="#0052D9"/>
<path d="M14.1852 12.9136C14.1852 11.959 14.959 11.1852 15.9136 11.1852C16.8681 11.1852 17.642 11.959 17.642 12.9136C17.642 13.8681 16.8681 14.642 15.9136 14.642C14.959 14.642 14.1852 13.8681 14.1852 12.9136Z" fill="#0052D9"/>
<path fill-rule="evenodd" clip-rule="evenodd" d="M11.0354 14.4715L12.1048 12.9742C11.5568 12.1296 11.1696 11.3012 10.9481 10.5528C10.5118 9.07863 10.8089 8.34601 11.0774 8.07742C11.346 7.80887 12.0786 7.51182 13.5528 7.94806C14.3067 8.17118 15.1415 8.56234 15.9926 9.11673L16 9.09777L16.0074 9.11673C16.8585 8.56234 17.6934 8.17118 18.4472 7.94806C19.9214 7.51182 20.654 7.80887 20.9225 8.07742C21.1911 8.34601 21.4882 9.07863 21.0519 10.5528C20.7075 11.7164 19.9629 13.0728 18.8356 14.3839C18.0279 14.4151 17.3827 15.0798 17.3827 15.895C17.3827 16.7303 18.0598 17.4074 18.895 17.4074C19.7303 17.4074 20.4074 16.7303 20.4074 15.895C20.4074 15.6956 20.3688 15.5051 20.2986 15.3306C22.9618 12.1369 23.811 8.52154 22.1448 6.85526C20.8768 5.58735 18.4805 5.77591 16 7.11185C13.5196 5.77591 11.1232 5.58735 9.85526 6.85526C8.33693 8.37359 8.9072 11.5102 11.0354 14.4715Z" fill="#0052D9"/>
<path fill-rule="evenodd" clip-rule="evenodd" d="M13.1644 11.6162C12.037 12.9273 11.2924 14.2837 10.9481 15.4472C10.5118 16.9214 10.8088 17.654 11.0774 17.9225C11.346 18.1911 12.0786 18.4882 13.5528 18.0519C14.3067 17.8288 15.1415 17.4376 15.9926 16.8833L16 16.9023L16.0075 16.8833C16.8585 17.4376 17.6933 17.8288 18.4472 18.0519C19.9214 18.4882 20.654 18.1911 20.9225 17.9225C21.1911 17.654 21.4882 16.9214 21.0519 15.4472C20.8304 14.6987 20.4433 13.8705 19.8952 13.0257L20.9646 11.5284C23.0928 14.4898 23.6631 17.6264 22.1448 19.1448C20.8768 20.4126 18.4804 20.2241 16 18.8881C13.5196 20.2241 11.1232 20.4126 9.85526 19.1448C8.18896 17.4784 9.0382 13.8631 11.7014 10.6693C11.6312 10.4949 11.5926 10.3044 11.5926 10.1049C11.5926 9.26969 12.2697 8.59259 13.1049 8.59259C13.9402 8.59259 14.6173 9.26969 14.6173 10.1049C14.6173 10.9203 13.9721 11.585 13.1644 11.6162Z" fill="#0052D9"/>
<path fill-rule="evenodd" clip-rule="evenodd" d="M20.2198 13.604C20.5851 14.2464 20.8541 14.8705 21.0248 15.4472C21.461 16.9214 21.164 17.654 20.8954 17.9225C20.6268 18.1911 19.8942 18.4882 18.4201 18.0519C17.2635 17.7097 15.9165 16.9719 14.6128 15.856L12.8296 16.5722C16.2001 19.7972 20.3081 20.9542 22.1175 19.1448C23.3932 17.8691 23.1946 15.4513 21.8364 12.9547L20.2198 13.604Z" fill="#0052D9"/>
<path fill-rule="evenodd" clip-rule="evenodd" d="M11.753 12.396C11.3877 11.7536 11.1187 11.1294 10.9481 10.5528C10.5118 9.07861 10.8088 8.34599 11.0774 8.07742C11.346 7.80885 12.0786 7.51181 13.5528 7.94806C14.7093 8.29034 16.0563 9.02809 17.3601 10.144L19.1432 9.42779C15.7727 6.20274 11.6647 5.04576 9.85526 6.85526C8.57964 8.13088 8.77825 10.5487 10.1364 13.0453L11.753 12.396Z" fill="#0052D9"/>
</svg>
