<?xml version="1.0" encoding="UTF-8"?>
<svg width="32px" height="33px" viewBox="0 0 32 33" version="1.1" xmlns="http://www.w3.org/2000/svg" xmlns:xlink="http://www.w3.org/1999/xlink">
    <!-- Generator: Sketch 64 (93537) - https://sketch.com -->
    <title>音频内容安全-32</title>
    <desc>Created with Sketch.</desc>
    <g id="页面1" stroke="none" stroke-width="1" fill="none" fill-rule="evenodd">
        <g id="音频内容安全" transform="translate(-515.000000, -284.000000)">
            <g id="音频内容安全-32" transform="translate(515.000000, 284.000000)">
                <rect id="矩形" fill-opacity="0.01" fill="#0052D9" x="0" y="0" width="32" height="32"></rect>
                <path d="M15.9993934,31.2427209 L15.6812254,31.0581834 C7.22047117,26.1431483 2.01005595,17.1012603 2,7.31648489 C2,7.01104358 2,6.71408675 2,6.4256144 L2,6.09471965 L2.24817106,5.91018219 C10.3906791,-0.192282953 21.5826542,-0.192282953 29.7251623,5.91018219 L29.9733333,6.09471965 L29.9733333,6.4256144 C29.9733333,6.73105571 29.9733333,7.03649702 29.9733333,7.34193833 C29.9478285,17.1059116 24.7450147,26.1236377 16.3048347,31.03273 L15.9993934,31.2427209 Z" id="形状" stroke="#0052D9" stroke-width="2" fill-rule="nonzero"></path>
                <rect id="矩形" fill="#0052D9" x="15.0037842" y="20" width="2" height="4"></rect>
                <rect id="矩形" stroke="#0052D9" stroke-width="2" fill-rule="nonzero" x="12.2735386" y="6.66666667" width="7.45098039" height="10.4533333" rx="3.7254902"></rect>
                <path d="M10,16.3930131 C10.3014915,16.995986 10.6908456,17.5471916 11.1512368,18.0297692 C12.3721748,19.3095443 14.0927084,20.1066667 15.9990288,20.1066667 C17.9129664,20.1066667 19.6396295,19.3031614 20.8614325,18.0144051 C21.3189494,17.5318168 21.7056745,16.9811863 22.0049323,16.3792243" id="路径" stroke="#0052D9" stroke-width="2" fill-rule="nonzero"></path>
            </g>
        </g>
    </g>
</svg>