<?xml version="1.0" encoding="UTF-8"?>
<svg width="32px" height="32px" viewBox="0 0 32 32" version="1.1" xmlns="http://www.w3.org/2000/svg" xmlns:xlink="http://www.w3.org/1999/xlink">
    <title>应用云渲染-云应用-32px</title>
    <g id="应用云渲染-云应用-32px" stroke="none" stroke-width="1" fill="none" fill-rule="evenodd">
        <g id="共享流量包-32px备份">
            <rect id="应用云渲染-云应用-32px" x="2.27373675e-13" y="0" width="32" height="32"></rect>
            <path d="M16,0 C23.811,0 30.315,5.598 31.719,13 L29.678,13 C28.305,6.71 22.702,2 16,2 C8.268,2 2,8.268 2,16 C2,23.732 8.268,30 16,30 C23.053,30 28.887,24.785 29.858,18.001 L31.876,18.001 C30.892,25.893 24.159,32 16,32 C7.163,32 0,24.837 0,16 C0,7.163 7.163,0 16,0 Z M16,6.8560411 L24.2,11.4115967 L24.2,20.5884033 L16,25.1439589 L7.8,20.5884033 L7.8,11.4115967 L16,6.8560411 Z M16,9.144 L10.743,12.0630411 L12.899,13.3080411 L12.899,15.6180411 L9.799,13.8280411 L9.8,19.411 L14.999,22.2990411 L14.999,19.8010411 L16.999,18.4820411 L16.999,22.2990411 L22.2,19.411 L22.199,13.8280411 L20.115,15.0310411 L18.136,13.8630411 L21.255,12.0630411 L16,9.144 Z M14.4,13.4 L18.4,15.7611111 L14.4,18.4 L14.4,13.4 Z" id="形状" fill="#0052D9" fill-rule="nonzero"></path>
        </g>
    </g>
</svg>