<?xml version="1.0" encoding="UTF-8"?>
<svg width="32px" height="32px" viewBox="0 0 32 32" version="1.1" xmlns="http://www.w3.org/2000/svg" xmlns:xlink="http://www.w3.org/1999/xlink">
    <title>云创产品icon 32 蓝色</title>
    <g id="云创产品icon-32-蓝色" stroke="none" stroke-width="1" fill="none" fill-rule="evenodd">
        <g id="编组-2">
            <g id="编组" transform="translate(4.999974, 1.000000)" fill="#0052D9" fill-rule="nonzero">
                <path d="M15.7499072,6.97746348 L15.7963766,6.97821474 C16.0678741,6.98584244 16.3353497,7.0447328 16.6418022,7.17825803 L16.6418022,7.17825803 L16.8267561,7.2739799 L22.9518207,10.8715938 L23.122274,10.9839306 C23.9381561,11.5789816 24.2301396,12.6738751 23.7821752,13.6461015 L23.7821752,13.6461015 L23.691846,13.8130452 L23.6676353,13.852249 C23.53116,14.067454 23.3573021,14.2564591 23.1061462,14.4450093 L23.1061462,14.4450093 L22.9429548,14.5522297 L18.9526328,16.8954912 C19.8123975,17.7213912 20.0519194,19.0322182 19.4896011,20.1281318 L19.4020062,20.286156 L19.3772591,20.326552 C19.1812212,20.6399271 18.924226,20.9100978 18.6222055,21.1216634 L18.4357176,21.2414469 L4.12667619,29.6410589 C2.87151176,30.3508747 1.28746812,29.9758651 0.477726536,28.7947406 L0.380621463,28.6429217 L0.356287202,28.6009143 C0.155513429,28.2465251 0.036554958,27.8527837 0.00718391839,27.4484841 L1.81188398e-13,27.2455878 L0.0272851444,10.4463369 C0.0531170793,9.0043174 1.19120744,7.83894789 2.62716329,7.75149705 L2.85300968,7.74689944 C3.25804714,7.75626029 3.65538536,7.85410056 4.01696954,8.03266774 L4.19465224,8.12864269 L13.588,13.653 L13.5880756,9.11689231 C13.5880756,7.98509996 14.4693776,7.06103975 15.5949638,6.98282618 L15.7499072,6.97746348 Z M2.81830565,9.74656521 L2.7892565,9.74616097 C2.40663609,9.74616097 2.09106754,10.0230612 2.03560839,10.3760054 L2.02684159,10.4947582 L2,27.2489278 C1.99983041,27.3449088 2.01845575,27.4398519 2.0522874,27.5246351 L2.10442276,27.6288272 C2.29656266,27.9513526 2.69695822,28.081384 3.03566084,27.9511181 L3.13515089,27.9041616 L17.4231851,19.5166924 C17.5024071,19.4701833 17.5720657,19.4101209 17.6267123,19.3434469 L17.6761532,19.274826 L17.6899619,19.2523303 C17.8800122,18.9338578 17.8042003,18.531985 17.5299402,18.3035681 L17.4237414,18.2296624 L17.052,18.011 L16.8178539,18.1496708 L16.6373179,18.2435725 C15.7236338,18.6652654 14.6255062,18.3943828 13.9860753,17.5410519 L13.9860753,17.5410519 L13.8818409,17.3815433 L13.8587233,17.3412678 C13.7260006,17.1034702 13.6400791,16.8427854 13.5993337,16.5095667 L13.5993337,16.5095667 L13.5880756,16.3015911 L13.588,15.973 L3.18060315,9.85250592 C3.09586724,9.80265319 3.00222283,9.76959163 2.90986164,9.75497385 L2.81830565,9.74656521 Z M15.7402089,8.97742588 L15.690767,8.98466738 C15.6294075,9.0034628 15.5880756,9.05656243 15.5880756,9.11689231 L15.5880756,9.11689231 L15.5860366,16.2377658 L15.5891458,16.3183381 C15.5912974,16.3350886 15.5966774,16.3514113 15.5981313,16.3542222 L15.5981313,16.3542222 L15.616072,16.3833638 C15.6591162,16.4406547 15.744579,16.458797 15.8016934,16.4268803 L15.8016934,16.4268803 L21.8799221,12.8591687 L21.9447202,12.8178721 L21.9711733,12.7930897 L21.9883584,12.7632995 C22.0158335,12.7034691 21.9935997,12.6299306 21.9420019,12.5981092 L21.9420019,12.5981092 L15.8691521,9.02869516 L15.7966724,8.98982518 C15.7788844,8.9822004 15.7596841,8.97797304 15.7402089,8.97742588 L15.7402089,8.97742588 Z M8.87990935,1.31450406e-13 C9.13404684,1.31450406e-13 9.38456165,0.054323248 9.61468697,0.158471546 L9.78319595,0.245854681 L14.3704784,2.94394331 C15.2174129,3.4421324 15.4984335,4.53208893 14.9947202,5.37607317 C14.8725495,5.58073228 14.7106116,5.75814546 14.519289,5.89817345 L14.3704495,5.9960263 L9.78334531,8.6940744 C8.94069508,9.18989009 7.85333094,8.91368424 7.35204951,8.07382045 C7.22134714,7.85464695 7.13990174,7.61061051 7.11255168,7.35845355 L7.1022576,7.16807483 L7.1022576,1.77194212 L7.10816212,1.6263867 C7.18246589,0.71445217 7.94878173,1.31450406e-13 8.87990935,1.31450406e-13 Z M9.102,2.165 L9.102,6.774 L13.019,4.469 L9.102,2.165 Z" id="形状结合"></path>
            </g>
            <rect id="矩形" x="0" y="0" width="32" height="32"></rect>
        </g>
    </g>
</svg>