<?xml version="1.0" encoding="UTF-8"?>
<svg width="32px" height="32px" viewBox="0 0 32 32" version="1.1" xmlns="http://www.w3.org/2000/svg" xmlns:xlink="http://www.w3.org/1999/xlink">
    <title>云游戏-32px--蓝</title>
    <g id="云游戏-32px--蓝" stroke="none" stroke-width="1" fill="none" fill-rule="evenodd">
        <g id="云游戏-32px-蓝色">
            <path d="M16,3 C20.7042826,3 24.5655736,6.60927591 24.965,11.216 L24.965,11.216 L25.1562518,11.2601854 C29.0303886,12.2110402 31.8767317,15.6540585 31.9960989,19.7330933 L31.9960989,19.7330933 L32,20 C32,24.9705627 27.9705627,29 23,29 L23,29 L9,29 C4.02943725,29 0,24.9705627 0,20 C0,15.8046435 2.88580785,12.2311659 6.84451466,11.2597038 L6.84451466,11.2597038 L7.034,11.216 C7.42687524,6.69607706 11.1512404,3.13655195 15.7346377,3.00383711 L15.7346377,3.00383711 L16,3 Z M16,5 C12.1340068,5 9,8.13400675 8.99985482,11.9829605 L8.99985482,11.9829605 L9.01621644,12.9430382 L8.124661,13.0540936 C4.64337448,13.4877356 2,16.4596048 2,20 C2,23.8659932 5.13400675,27 9,27 L9,27 L23,27 C26.8659932,27 30,23.8659932 30,20 C30,16.4598748 27.3570596,13.4882778 23.8761164,13.0545423 L23.8761164,13.0545423 L22.9930137,12.9445052 L22.9997921,12.0545993 L22.995941,11.7593502 C22.8690987,8.00478338 19.7854517,5 16,5 Z M11,16 L11,19 L14,19 L14,21 L11,21 L11,24 L9,24 L9,21 L6,21 L6,19 L9,19 L9,16 L11,16 Z M23,22 L23,24 L21,24 L21,22 L23,22 Z M26,19 L26,21 L24,21 L24,19 L26,19 Z M20,19 L20,21 L18,21 L18,19 L20,19 Z M23,16 L23,18 L21,18 L21,16 L23,16 Z" id="形状结合" fill="#0052D9" fill-rule="nonzero"></path>
            <rect id="矩形" x="0" y="0" width="32" height="32"></rect>
        </g>
    </g>
</svg>