<?xml version="1.0" encoding="UTF-8"?>
<svg width="32px" height="32px" viewBox="0 0 32 32" version="1.1" xmlns="http://www.w3.org/2000/svg" xmlns:xlink="http://www.w3.org/1999/xlink">
    <title>画板备份 10</title>
    <g id="画板备份-10" stroke="none" stroke-width="1" fill="none" fill-rule="evenodd">
        <rect id="矩形" x="0" y="0" width="32" height="32"></rect>
        <path d="M3,25 L3,27 L29,27 L29,25 L31,25 L31,29 L1,29 L1,25 L3,25 Z M25,8 L25,20 L19.712,20 L22.021,23.9998857 L19.711,23.9998857 L17.401,20 L14.597,20 L12.288,23.9998857 L9.979,23.9998857 L12.287,20 L7,20 L7,8 L25,8 Z M23,10 L9,10 L9,18 L23,18 L23,10 Z M16,13 C16.5522847,13 17,13.4477153 17,14 C17,14.5522847 16.5522847,15 16,15 C15.4477153,15 15,14.5522847 15,14 C15,13.4477153 15.4477153,13 16,13 Z M13,13 C13.5522847,13 14,13.4477153 14,14 C14,14.5522847 13.5522847,15 13,15 C12.4477153,15 12,14.5522847 12,14 C12,13.4477153 12.4477153,13 13,13 Z M19,13 C19.5522847,13 20,13.4477153 20,14 C20,14.5522847 19.5522847,15 19,15 C18.4477153,15 18,14.5522847 18,14 C18,13.4477153 18.4477153,13 19,13 Z M31,3 L31,7 L29,7 L29,5 L3,5 L3,7 L1,7 L1,3 L31,3 Z" id="形状结合" fill="#0052D9" fill-rule="nonzero"></path>
    </g>
</svg>