<svg width="32" height="32" viewBox="0 0 32 32" fill="none" xmlns="http://www.w3.org/2000/svg">
<g clip-path="url(#clip0_1204_2970)">
<path d="M28.616 6L28.7849 6.22544C33.5455 12.5809 32.9768 21.5952 27.3615 27.2927C22.2212 32.5083 14.2874 33.4703 8.1213 29.7756C7.97294 29.8189 7.81834 29.8412 7.66094 29.8412C6.74363 29.8412 6 29.0867 6 28.156C6 27.2252 6.74363 26.4707 7.66094 26.4707C8.57826 26.4707 9.32189 27.2252 9.32189 28.156C9.32189 28.1863 9.3211 28.2162 9.31948 28.2457C14.7157 31.339 21.5604 30.4459 26.0148 25.9263C30.8217 21.049 31.4294 13.4011 27.5852 7.83523L27.3824 7.54922L27.2579 7.37806L28.616 6ZM23.8787 2.22441C24.0271 2.18106 24.1817 2.15877 24.3391 2.15877C25.2564 2.15877 26 2.91329 26 3.84403C26 4.77477 25.2564 5.52929 24.3391 5.52929C23.4217 5.52929 22.6781 4.77477 22.6781 3.84403C22.6781 3.8137 22.6789 3.7838 22.6805 3.75427C17.2843 0.661025 10.4396 1.55412 5.98518 6.07373C1.17832 10.951 0.570647 18.5989 4.41477 24.1648L4.61757 24.4508L4.74215 24.6219L3.38397 26L3.2151 25.7746C-1.54549 19.4191 -0.976836 10.4048 4.63847 4.7073C9.7788 -0.508286 17.7126 -1.47028 23.8787 2.22441Z" fill="#0052D9"/>
<path d="M14.2327 21.7589C13.9534 21.9174 13.6419 21.9999 13.3253 21.9999C13.0085 21.9999 12.6968 21.9172 12.4179 21.7586C11.8481 21.4342 11.5 20.8393 11.5 20.1847V11.8151C11.5 11.1602 11.848 10.5656 12.4174 10.2414C12.9822 9.91946 13.6667 9.91966 14.2327 10.2412L21.583 14.4266C22.1522 14.7514 22.5 15.3454 22.5 16C22.5 16.6547 22.1522 17.2491 21.5825 17.5739L14.2327 21.7589ZM20.3045 16.0001L13.5 12.1255V19.8746L20.3045 16.0001Z" fill="#0052D9"/>
</g>
<defs>
<clipPath id="clip0_1204_2970">
<rect width="32" height="32" fill="white"/>
</clipPath>
</defs>
</svg>
