<?xml version="1.0" encoding="UTF-8"?>
<svg width="32px" height="32px" viewBox="0 0 32 32" version="1.1" xmlns="http://www.w3.org/2000/svg" xmlns:xlink="http://www.w3.org/1999/xlink">
    <title>播放器sdk 32_blue</title>
    <g id="最新的文档" stroke="none" stroke-width="1" fill="none" fill-rule="evenodd">
        <g id="播放器sdk-32_blue" fill-rule="nonzero">
            <g id="播放器sdk-">
                <path d="M23,23 L23,21 L25,21 L25,23 L29,23 L29,6 L31,6 L31,28 L31,30 L1,30 L1,28 L1,4 L1,2 L31,2 L31,4 L3,4 L3,23 L23,23 Z M23,25 L3,25 L3,28 L29,28 L29,25 L25,25 L25,27 L23,27 L23,25 Z M13.7327056,19.7589562 C13.4533959,19.9174808 13.141918,20 12.8252641,20 C12.5084626,20 12.1967508,19.9172358 11.9178561,19.7586497 C11.3480975,19.4342582 11,18.8393919 11,18.1847532 L11,9.81512475 C11,9.16022247 11.3480416,8.56565151 11.9173785,8.24150033 C12.482171,7.91952512 13.1667293,7.91972168 13.7327223,8.24125686 L21.0829699,12.4266761 C21.6522211,12.7514957 22,13.345418 22,14.0001018 C22,14.6547387 21.6522284,15.2491946 21.0825075,15.5739792 L13.7327056,19.7589562 Z M13,17.8746668 L19.8044872,14.0001921 L13,10.1255428 L13,17.8746668 Z" id="Combined-Shape" fill="#0052D9"></path>
                <rect id="Rectangle-Copy" fill="#0052D9" opacity="0" x="0" y="0" width="32" height="32"></rect>
            </g>
        </g>
    </g>
</svg>