<?xml version="1.0" encoding="UTF-8"?>
<svg width="32px" height="32px" viewBox="0 0 32 32" version="1.1" xmlns="http://www.w3.org/2000/svg" xmlns:xlink="http://www.w3.org/1999/xlink">
    <!-- Generator: Sketch 57.1 (83088) - https://sketch.com -->
    <title>智绘泰山-32px蓝色</title>
    <desc>Created with Sketch.</desc>
    <g id="智绘泰山-32px蓝色" stroke="none" stroke-width="1" fill="none" fill-rule="evenodd">
        <rect id="Rectangle-Copy" fill="#0052D9" opacity="0" x="0" y="-1" width="32" height="32"></rect>
        <g id="彩logo黑字(横)备份" transform="translate(1.000000, 1.000000)">
            <g id="编组-3备份-2">
                <g id="编组备份-3" transform="translate(0.937500, 0.937500)" stroke="#0052D9" stroke-width="2">
                    <path d="M23.9446284,24.0430607 C21.4109803,26.5521007 17.9245072,28.1024099 14.0758032,28.1024099 C10.2271976,28.1024099 6.74072456,26.5521007 4.20697801,24.0430607 L12.7430295,15.5070092 C13.4793033,14.7707354 14.6724015,14.7707354 15.4085769,15.5070092 L23.9446284,24.0430607 Z" id="Stroke-9"></path>
                    <path d="M14.0758229,21.2121667 C10.1345925,21.2121667 6.93947911,18.0170533 6.93947911,14.0758229 C6.93947911,10.1345925 10.1345925,6.93947911 14.0758229,6.93947911 C18.0170533,6.93947911 21.2121667,10.1345925 21.2121667,14.0758229 C21.2121667,18.0170533 18.0170533,21.2121667 14.0758229,21.2121667 Z M14.0758229,0.0492161639 C6.32919868,0.0492161639 0.0492161639,6.32919868 0.0492161639,14.0758229 C0.0492161639,21.8224471 6.32919868,28.1024296 14.0758229,28.1024296 C21.8224471,28.1024296 28.1024296,21.8224471 28.1024296,14.0758229 C28.1024296,6.32919868 21.8224471,0.0492161639 14.0758229,0.0492161639 Z" id="Stroke-1"></path>
                </g>
                <g id="编组备份-2" opacity="0.5" transform="translate(0.101713, 0.000000)"></g>
            </g>
        </g>
    </g>
</svg>