<?xml version="1.0" encoding="UTF-8"?>
<svg width="32px" height="32px" viewBox="0 0 32 32" version="1.1" xmlns="http://www.w3.org/2000/svg" xmlns:xlink="http://www.w3.org/1999/xlink">
    <!-- Generator: Sketch 63.1 (92452) - https://sketch.com -->
    <title>32</title>
    <desc>Created with Sketch.</desc>
    <g id="页面-1" stroke="none" stroke-width="1" fill="none" fill-rule="evenodd">
        <g id="编组-9备份" transform="translate(0.000000, 2.000000)" fill="#0052D9">
            <g id="b2d772970f9a5c11b1e47de44819ceea" fill-rule="nonzero">
                <g id="XMLID_84_">
                    <g id="XMLID_11_">
                        <circle id="XMLID_16_" cx="2" cy="2.01866667" r="2"></circle>
                    </g>
                </g>
                <g id="XMLID_83_" transform="translate(26.333333, 23.333333)">
                    <g id="XMLID_2_" transform="translate(0.666667, 0.000000)">
                        <circle id="XMLID_15_" cx="2" cy="2.66666667" r="2"></circle>
                    </g>
                </g>
                <g id="XMLID_82_" transform="translate(1.000000, 0.333333)">
                    <g id="XMLID_13_">
                        <polygon id="XMLID_14_" points="30 18.6666667 28 18.6666667 28 2.66666667 0.666666667 2.66666667 1 0.666666667 30 0.666666667"></polygon>
                    </g>
                </g>
                <g id="XMLID_81_" transform="translate(0.333333, 7.666667)">
                    <g id="XMLID_12_">
                        <polygon id="XMLID_1_" points="29.6666667 19.3333333 0.666666667 19.3333333 0.666666667 0.333333333 2.66666667 0.333333333 2.66666667 17.3333333 29.6666667 17.3333333"></polygon>
                    </g>
                </g>
            </g>
            <rect id="矩形" x="7" y="10" width="4" height="2"></rect>
            <rect id="矩形备份-32" x="15" y="10" width="4" height="2"></rect>
            <rect id="矩形备份-46" x="23" y="10" width="4" height="2"></rect>
            <rect id="矩形备份-2" x="5" y="10" width="2" height="8"></rect>
            <rect id="矩形备份-44" x="13" y="10" width="2" height="8"></rect>
            <rect id="矩形备份-47" x="21" y="10" width="2" height="8"></rect>
            <rect id="矩形备份" x="7" y="16" width="4" height="2"></rect>
            <rect id="矩形备份-45" x="15" y="16" width="4" height="2"></rect>
            <rect id="矩形备份-48" x="23" y="16" width="4" height="2"></rect>
        </g>
    </g>
</svg>