<?xml version="1.0" encoding="UTF-8"?>
<svg width="32px" height="32px" viewBox="0 0 32 32" version="1.1" xmlns="http://www.w3.org/2000/svg" xmlns:xlink="http://www.w3.org/1999/xlink">
    <title>极速高清 32_blue</title>
    <g id="最新的文档" stroke="none" stroke-width="1" fill="none" fill-rule="evenodd">
        <g id="极速高清-32_blue" fill-rule="nonzero">
            <g id="极速高清">
                <path d="M23,7 L23,26 L1.42108547e-14,26 L1.42108547e-14,7 L23,7 Z M21,9 L2,9 L2,24 L21,24 L21,9 Z M32,10 L32,23.6699768 L24,19.9382369 L24,13.7317909 L32,10 Z M11.7692307,11 L11.7692307,15.9090909 L16,15.9090909 L11.2307693,23 L11.2307693,18.0909091 L7,18.0909091 L11.7692307,11 Z M30,13.1423536 L26,15.0064586 L26,18.6625093 L30,20.5255743 L30,13.1423536 Z" id="形状结合" fill="#0052D9"></path>
                <rect id="Rectangle-Copy" fill="#0052D9" opacity="0" x="0" y="0" width="32" height="32"></rect>
            </g>
        </g>
    </g>
</svg>