<?xml version="1.0" encoding="UTF-8"?>
<svg width="32px" height="32px" viewBox="0 0 32 32" version="1.1" xmlns="http://www.w3.org/2000/svg" xmlns:xlink="http://www.w3.org/1999/xlink">
    <title>短视频sdk 32_blue</title>
    <g id="最新的文档" stroke="none" stroke-width="1" fill="none" fill-rule="evenodd">
        <g id="短视频sdk-32_blue" fill-rule="nonzero">
            <g id="短视频sdk">
                <path d="M4.7,6 C4.4,6.6 3.7,7 3,7 C1.9,7 1,6.1 1,5 C1,3.9 1.9,3 3,3 C3.7,3 4.4,3.4 4.7,4 L30,4 L30,21 L28,21 L28,6 L4.7,6 Z M29,25 C30.1,25 31,25.9 31,27 C31,28.1 30.1,29 29,29 C28.3,29 27.6,28.6 27.3,28 L2,28 L2,11 L4,11 L4,26 L27.3,26 C27.6,25.4 28.3,25 29,25 Z M13.7327056,21.7589562 C13.4533959,21.9174808 13.141918,22 12.8252641,22 C12.5084626,22 12.1967508,21.9172358 11.9178561,21.7586497 C11.3480975,21.4342582 11,20.8393919 11,20.1847532 L11,11.8151248 C11,11.1602225 11.3480416,10.5656515 11.9173785,10.2415003 C12.482171,9.91952512 13.1667293,9.91972168 13.7327223,10.2412569 L21.0829699,14.4266761 C21.6522211,14.7514957 22,15.345418 22,16.0001018 C22,16.6547387 21.6522284,17.2491946 21.0825075,17.5739792 L13.7327056,21.7589562 Z M19.8044872,16.0001921 L13,12.1255428 L13,19.8746668 L19.8044872,16.0001921 Z" id="Combined-Shape" fill="#0052D9"></path>
                <rect id="Rectangle-Copy" fill="#0052D9" opacity="0" x="0" y="0" width="32" height="32"></rect>
            </g>
        </g>
    </g>
</svg>