<?xml version="1.0" encoding="UTF-8"?>
<svg width="32px" height="32px" viewBox="0 0 32 32" version="1.1" xmlns="http://www.w3.org/2000/svg" xmlns:xlink="http://www.w3.org/1999/xlink">
    <title>32-多云管理-蓝色</title>
    <g id="32-多云管理-蓝色" stroke="none" stroke-width="1" fill="none" fill-rule="evenodd">
        <rect id="矩形" x="0" y="0" width="32" height="32"></rect>
        <path d="M14.9309443,0.0362659853 C23.3337119,-0.52643061 30.7342617,5.52078476 31.8571399,13.8671777 L31.8571399,13.8671777 L29.7238066,13.8671777 C28.5879415,6.5719854 21.9351469,1.44607653 14.5914625,2.2078646 C7.24777821,2.96965266 1.78877455,9.35196404 2.17449712,16.7249714 C2.56021969,24.0979789 8.65538823,29.8758279 16.0384733,29.8671777 C22.8669894,29.8591758 28.6732697,24.881071 29.7238066,18.1338444 L29.7238066,18.1338444 L31.8571399,18.1338444 C30.7342617,26.4802373 23.3337119,32.5274527 14.9309443,31.9647561 C6.52817674,31.4020595 1.13686838e-13,24.4220982 1.13686838e-13,16.000511 C1.13686838e-13,7.57892385 6.52817674,0.59896258 14.9309443,0.0362659853 Z" id="形状结合" fill="#0052D9" fill-rule="nonzero"></path>
        <g id="logo" transform="translate(7.000000, 7.000000)" fill="#0052D9" fill-rule="nonzero">
            <polygon id="矩形备份-3" points="18 6 18 18 6 18 6 11.1817902 7.89266156 11.1817902 7.89266156 16.1094092 16.1073384 16.1094092 16.1073384 7.89059081 11.0794428 7.89059081 11.0794428 6"></polygon>
            <path d="M0.457081801,12.2975904 L0.457081801,4.54747351e-13 L12.9292314,4.54747351e-13 L12.9292314,6.29759043 L12.9220818,6.297 L12.9226669,6.33154335 L12.920231,6.36540878 C12.7870093,8.21755274 11.6334746,9.34359731 9.71272108,9.5443822 L9.68791749,9.54701959 L9.63886601,9.55250237 L9.59055303,9.55825999 C9.42274653,9.57888908 9.26845566,9.60451281 9.12711164,9.63454944 L9.08707944,9.64325091 C9.08046596,9.644721 9.07388171,9.64620097 9.06732664,9.64769076 L9.02834579,9.65674682 C9.00902992,9.66133325 8.98997551,9.66600691 8.97118089,9.67076611 L8.93393757,9.68039806 L8.8973841,9.69025509 C8.87927934,9.69523937 8.86143216,9.70030693 8.84384091,9.70545606 L8.80899917,9.71586261 C8.7284957,9.74039599 8.65354174,9.76668135 8.58396877,9.79454633 L8.55448073,9.80658467 C8.49130167,9.8328751 8.43274156,9.86050632 8.37866549,9.8893403 L8.3540252,9.90273319 C8.24862606,9.96113479 8.16108,10.0242625 8.09030753,10.0910124 C7.938875,10.2338377 7.87711435,10.3853513 7.87460672,10.556953 L7.87452683,12.2975904 L0.457081801,12.2975904 Z M11.0380818,5.286 L11.0386406,1.89059081 L2.34767261,1.89059081 L2.34767261,10.4069996 L5.9890818,10.406 L5.99038248,10.3839231 C6.0334392,9.77282349 6.29298442,9.18735246 6.79311661,8.71564723 C7.39298463,8.14987504 8.28625907,7.79780536 9.47989746,7.66790551 L9.51616026,7.66403716 C10.0564491,7.60755837 10.4240493,7.45763152 10.6516893,7.23541646 C10.8593472,7.03270736 10.9891717,6.73040516 11.0296906,6.28877528 L11.0320761,6.26090771 L11.0320761,5.28664951 L11.0380818,5.286 Z" id="形状结合"></path>
        </g>
    </g>
</svg>