<?xml version="1.0" encoding="UTF-8"?>
<svg width="32px" height="33px" viewBox="0 0 32 33" version="1.1" xmlns="http://www.w3.org/2000/svg" xmlns:xlink="http://www.w3.org/1999/xlink">
    <title>32-蓝</title>
    <defs>
        <rect id="path-1" x="0" y="0" width="32" height="32"></rect>
    </defs>
    <g id="WeCard-logo" stroke="none" stroke-width="1" fill="none" fill-rule="evenodd">
        <g id="画板" transform="translate(-676.000000, -502.000000)">
            <g id="32-蓝" transform="translate(676.000000, 502.477201)">
                <mask id="mask-2" fill="white">
                    <use xlink:href="#path-1"></use>
                </mask>
                <use id="蒙版" fill="#0052D9" opacity="0" xlink:href="#path-1"></use>
                <path d="M32,9.14887884 L32,20.2622116 C32,20.6458194 31.6808365,21.1117737 31.2871284,21.3029496 L15.6039536,28.9183526 C15.2102455,29.1095285 14.891082,28.9535317 14.891082,28.569924 L14.891082,17.4565912 C14.891082,17.0729834 15.2102455,16.6070291 15.6039536,16.4158532 L31.2871284,8.80045022 C31.6808365,8.60927427 32,8.76527107 32,9.14887884 Z M29.7319987,11.4350325 L29.7103844,11.4460331 L17.1806977,17.4915957 C17.0280179,17.5754887 16.9029324,17.7744805 16.8918764,17.9457788 L16.891082,26.1125893 C16.891082,26.2809263 17.0092275,26.3539218 17.1590833,26.2837703 L17.1806977,26.2727697 L29.7103844,20.0675494 C29.8630642,19.9836564 29.9881497,19.7846646 29.9992056,19.6133663 L30,19.5890989 L30,11.6062135 C30,11.4378765 29.8818545,11.364881 29.7319987,11.4350325 Z M7.111,14.2541103 L9.111,15.3121103 L9.11199922,20.8385502 C9.11199922,20.8926434 9.1243111,20.9460271 9.148002,20.9946565 C9.22344021,21.1495055 9.39621906,21.2251898 9.55679131,21.183934 L9.62454126,21.1589832 L13.7219992,19.162648 L13.7219992,20.918648 L8.1370833,23.6404865 C7.78314277,23.8129167 7.35643499,23.6657735 7.18400478,23.311833 C7.13662297,23.2145743 7.11199922,23.1078069 7.11199922,22.9996205 L7.111,14.2541103 Z M0,10.491904 L1.999,11.5491103 L2,16.4094013 C2,16.4642691 2.01266685,16.5183961 2.03701383,16.5675661 C2.11344681,16.7219265 2.28670905,16.7964976 2.44701252,16.7542095 L2.51460053,16.7288233 L6.279,14.8641103 L6.279,16.6561103 L1.02834879,19.2478327 C0.675292361,19.4220659 0.247839615,19.2771011 0.0736063622,18.9240447 C0.0251856919,18.8259278 5.685109e-16,18.7179818 0,18.6085675 L0,10.491904 Z M22.3667326,6.56146877 C22.4141145,6.65872751 22.4387382,6.76549486 22.4387382,6.87368127 L22.4379992,12.132648 L20.4379992,13.104648 L20.4387382,9.20839737 C20.4387382,9.15430417 20.4264263,9.10092049 20.4027354,9.05229112 C20.3272972,8.89744214 20.1545184,8.82175777 19.9939461,8.86301357 L19.9261962,8.88796436 L9.31232876,14.058752 C9.26899415,14.0798634 9.23125955,14.1090609 9.20058234,14.1440132 L7.30870747,13.1541514 C7.36629466,13.0936815 7.43497782,13.0428462 7.5126583,13.0050024 L21.4136541,6.23281525 C21.7675947,6.06038505 22.1943024,6.20752824 22.3667326,6.56146877 Z M13.6491716,3.39566371 C13.6975922,3.49378063 13.7227779,3.60172662 13.7227779,3.71114092 L13.722,8.97511034 L11.722,9.94611034 L11.7227779,5.91030705 C11.7227779,5.85543934 11.7101111,5.80131232 11.6857641,5.75214231 C11.6093311,5.59778192 11.4360689,5.5232108 11.2757654,5.56549889 L11.2081774,5.59088509 L2.19827105,10.0522235 C2.10112329,10.1003272 2.03251847,10.189171 2.00896246,10.2921636 L2,10.3716455 L1.999,10.3821103 L0.11201306,9.39611631 C0.180734513,9.28847113 0.278387422,9.19918892 0.39739437,9.14045902 L12.6944291,3.0718757 C13.0474856,2.89764245 13.4749383,3.04260728 13.6491716,3.39566371 Z" id="形状结合备份-9" fill="#0052D9" mask="url(#mask-2)"></path>
            </g>
        </g>
    </g>
</svg>