<?xml version="1.0" encoding="UTF-8"?>
<svg width="32px" height="32px" viewBox="0 0 32 32" version="1.1" xmlns="http://www.w3.org/2000/svg" xmlns:xlink="http://www.w3.org/1999/xlink">
    <title>腾讯HR助手 32_blue</title>
    <g id="最新的文档" stroke="none" stroke-width="1" fill="none" fill-rule="evenodd">
        <g id="腾讯HR助手-32_blue" fill-rule="nonzero">
            <g id="腾讯HR助手">
                <path d="M14.9977603,1.03399936 C22.8753549,0.506471303 29.8133703,6.17573571 30.8660687,14.0004791 L30.8660687,14.0004791 L28.8660687,14.0004791 C27.8011952,7.16123631 21.5642002,2.35569675 14.6794961,3.06987306 C7.79479207,3.78404937 2.67697614,9.76746629 3.03859105,16.6796607 C3.40020596,23.5918552 9.11442647,29.0085887 16.0360687,29.0004791 C22.4378026,28.9929773 27.8811903,24.3260041 28.8660687,18.0004791 L28.8660687,18.0004791 L30.8660687,18.0004791 C29.8133703,25.8252225 22.8753549,31.4944869 14.9977603,30.9669588 C7.12016569,30.4394308 1,23.8957171 1,16.0004791 C1,8.10524111 7.12016569,1.56152742 14.9977603,1.03399936 Z M21,9.99999133 L21.0272934,10.0003702 C21.0425877,10.0007852 21.0578743,10.0015491 21.0731402,10.0026619 L21,9.99999133 C21.8154162,9.99999133 22.7468584,10.3207462 23.5519716,10.8094017 C25.974004,12.2640801 26.7592124,15.4652305 25.1822759,17.7439337 C24.4151854,18.8725787 23.3737211,19.653541 22.192654,19.9348778 L21.9546191,19.9844385 L21.7788897,19.9999913 L21.2583618,19.9999913 C20.8560974,19.9999913 20.4712383,19.8456448 20.1813821,19.5721458 L20.0772909,19.4640675 L17.218,16.196 L13.7071068,19.7071068 C13.3165825,20.0976311 12.6834175,20.0976311 12.2928932,19.7071068 C11.9324093,19.3466228 11.9046797,18.7793918 12.2097046,18.3871006 L12.2928932,18.2928932 L15.897,14.687 L13.951,12.463 L6.70710678,19.7071068 C6.31658249,20.0976311 5.68341751,20.0976311 5.29289322,19.7071068 C4.93240926,19.3466228 4.90467972,18.7793918 5.20970461,18.3871006 L5.29289322,18.2928932 L13.2928932,10.2928932 L13.3213212,10.265555 C13.3279451,10.2594402 13.3346699,10.2533956 13.3414954,10.2474233 L13.362,10.231 L13.3871006,10.2097046 C13.3968107,10.2021545 13.4066281,10.1948082 13.4165469,10.1876659 L13.3414954,10.2474233 C13.3804708,10.2133198 13.4213468,10.1827846 13.4637239,10.1557912 C13.4819455,10.1441103 13.5002897,10.1332587 13.5188901,10.1230433 C13.5354336,10.1140069 13.5519023,10.1055519 13.5685356,10.0975879 C13.5887491,10.0878799 13.6100797,10.0785704 13.631647,10.0700401 C13.6486882,10.0632886 13.6650305,10.057327 13.6814803,10.0518086 C13.7020045,10.0449565 13.7234216,10.0385587 13.7449911,10.0328929 C13.7608778,10.0286621 13.776563,10.0249496 13.7923075,10.0216224 C13.8175108,10.0163578 13.8429824,10.0119967 13.8685595,10.0086245 C13.880669,10.0069712 13.8930353,10.0055745 13.9054163,10.0044087 C13.9329501,10.0018637 13.9602659,10.0004135 13.9875929,9.99999133 C13.9998265,9.99999133 14.0121778,9.99999133 14.0245216,10.0002952 C14.0476693,10.0008583 14.0710061,10.0022361 14.0942807,10.0044273 C14.1138785,10.0063079 14.1332504,10.0087125 14.152545,10.0116804 C14.1709822,10.0144642 14.1894319,10.0178257 14.2077935,10.0217078 C14.2285752,10.0261624 14.2493272,10.0312471 14.2699216,10.0369988 C14.2861541,10.0414682 14.3022364,10.0464007 14.3182104,10.0517475 C14.3390559,10.0587808 14.3597825,10.0664835 14.380275,10.0748886 C14.3981247,10.0821729 14.4158135,10.0900431 14.4333083,10.0984519 C14.4519569,10.1074241 14.4702835,10.1169336 14.4883511,10.1270405 C14.5052877,10.1365368 14.5223573,10.146769 14.5391746,10.1575551 C14.5557363,10.1681089 14.5720019,10.1792213 14.5879872,10.1908599 C14.605399,10.2036508 14.6220913,10.2166501 14.6384517,10.2302521 C14.6467883,10.237067 14.6555029,10.2445595 14.6641116,10.2522245 L14.6830965,10.2696573 C14.6911967,10.2772425 14.6992014,10.2849879 14.7071068,10.2928932 L14.733,10.322 L14.7525767,10.3414954 L17.314,13.27 L20.2928932,10.2928932 L20.3169277,10.2696445 C20.3381871,10.2497532 20.3603155,10.2307793 20.3832499,10.212786 L20.2928932,10.2928932 C20.331559,10.2542274 20.3726034,10.21939 20.4155553,10.1883808 C20.4364104,10.1734391 20.4576018,10.1593499 20.4793398,10.1460674 C20.4923514,10.1380178 20.5055549,10.1303671 20.5188901,10.1230433 C20.5377416,10.1127568 20.5571453,10.1028918 20.5769009,10.0936538 C20.5939015,10.085679 20.6112044,10.0781964 20.628664,10.0712255 C20.6484208,10.0633157 20.6682023,10.0561225 20.6882636,10.0495467 C20.7031487,10.0447287 20.7185367,10.0400977 20.734007,10.0358451 C20.7555635,10.0298336 20.7772539,10.0246398 20.7992059,10.0201652 C20.8166247,10.0167022 20.834051,10.0136281 20.8515331,10.0110178 C20.8705042,10.0081122 20.890153,10.0057661 20.909968,10.003998 C20.9343349,10.0018656 20.9579802,10.0005993 20.9816379,10.0001675 C20.9872016,9.99999133 20.9935938,9.99999133 21,9.99999133 Z M21.3680061,12.0441891 L18.635,14.779 L21.453,18 L21.671,18 L21.7807247,17.9762844 C22.3698719,17.8206502 22.9295498,17.4189914 23.3958778,16.8037268 L23.5329118,16.6127717 C24.4420251,15.2990499 23.9754028,13.3967163 22.5182544,12.521537 C22.1393649,12.2915796 21.721969,12.1205992 21.3680061,12.0441891 Z" id="形状结合" fill="#0052D9"></path>
                <rect id="Rectangle-Copy" fill="#0052D9" opacity="0" x="0" y="0" width="32" height="32"></rect>
            </g>
        </g>
    </g>
</svg>