<?xml version="1.0" encoding="UTF-8"?>
<svg width="32px" height="32px" viewBox="0 0 32 32" version="1.1" xmlns="http://www.w3.org/2000/svg" xmlns:xlink="http://www.w3.org/1999/xlink">
    <!-- Generator: Sketch 61.1 (89650) - https://sketch.com -->
    <title>画板备份 23</title>
    <desc>Created with Sketch.</desc>
    <g id="页面-1" stroke="none" stroke-width="1" fill="none" fill-rule="evenodd">
        <g id="编组备份-4" transform="translate(1.000000, 1.000000)" fill="#0052D9">
            <path d="M28.8519599,16.9837638 C27.8900301,24.2361474 22.1375713,29.0095344 15.1640748,29.0095344 C7.51742526,29.0095344 1.3186152,22.8898413 1.3186152,15.2431917 C1.3186152,7.59654217 7.51742526,1.27905674 15.1640748,1.27905674 C22.1375713,1.27905674 27.8900301,6.43484218 28.8519599,13.0279182 L30.1949695,13.0279182 C29.2257873,5.77553458 22.8680841,1.68647841e-13 15.1640748,1.68647841e-13 C6.78889036,1.68647841e-13 -3.06845378e-13,6.86800727 -3.06845378e-13,15.2431917 C-3.06845378e-13,23.6183762 6.78889036,30.2885911 15.1640748,30.2885911 C22.8680841,30.2885911 29.2257873,24.895455 30.1956288,16.9837638 L28.8519599,16.9837638 Z" id="Path"></path>
            <polygon id="路径-5" fill-rule="nonzero" points="7.56736527 17.7648434 10.8510255 16.3468807 12.1629308 17.2205677 9.15472835 18.7375878"></polygon>
            <polygon id="路径-6" fill-rule="nonzero" points="23.3907477 17.7648434 18.5434785 14.9457028 16.9929139 15.9645737 23.3907477 19.6603528"></polygon>
            <polygon id="Path" fill-rule="nonzero" points="15.4790565 24.3579194 7.56736527 19.6603528 7.56736527 17.7648434 15.4790565 22.4624101 23.3907477 17.7648434 23.3907477 19.6603528"></polygon>
            <polygon id="Path" fill-rule="nonzero" transform="translate(15.474970, 10.649812) rotate(120.000000) translate(-15.474970, -10.649812) " points="9.54528816 5.5868388 19.3817474 10.5566606 18.6701109 16.7209339 20.754616 15.5174443 21.4046518 9.38873622 11.2914516 4.5786909"></polygon>
        </g>
    </g>
</svg>