<?xml version="1.0" encoding="UTF-8"?>
<svg width="32px" height="32px" viewBox="0 0 32 32" version="1.1" xmlns="http://www.w3.org/2000/svg" xmlns:xlink="http://www.w3.org/1999/xlink">
    <title>32-蓝@1x</title>
    <g id="32-蓝" stroke="none" stroke-width="1" fill="none" fill-rule="evenodd">
        <g id="32-32（蓝）" fill="#0052D9">
            <path d="M3.73244,3 C3.38663,3.5978 2.74028,4 2,4 C0.895431,4 0,3.10457 0,2 C0,0.895431 0.895431,0 2,0 C2.74028,0 3.38663,0.402199 3.73244,1 L31,1 L32,1 L32,2 L32,24 L30,24 L30,3 L3.73244,3 Z M2,29 L28.2676,29 C28.6134,28.4022 29.2597,28 30,28 C31.1046,28 32,28.8954 32,30 C32,31.1046 31.1046,32 30,32 C29.2597,32 28.6134,31.5978 28.2676,31 L1,31 L0,31 L0,30 L0,8 L2,8 L2,29 Z M8.32227,4.86499 L7.32227,4.86499 L7.32227,5.86499 L7.32227,21.2842 L7.32227,21.7408 L7.66734,22.0398 L12.5096,26.2365 L14.1646,27.6708 L14.1646,25.4808 L14.1646,11.7074 L17.2207,11.7077 L17.2208,11.7077 C17.3836,11.7077 17.5397,11.7724 17.6548,11.8875 C17.7698,12.0026 17.8345,12.1587 17.8345,12.3214 C17.8345,12.4842 17.7698,12.6403 17.6548,12.7554 C17.5397,12.8704 17.3836,12.9351 17.2208,12.9351 L16.2519,12.9351 L15.2516,12.9351 L15.2519,13.9354 L15.2523,15.2368 L15.2523,15.2372 L15.2519,23.3166 L15.2519,23.7429 L15.5595,24.0381 L18.4965,26.8567 L18.7867,27.1352 L19.1889,27.1352 L23.6772,27.1352 L24.6789,27.1352 L24.6772,26.1335 L24.6699,21.6452 L24.6691,21.1847 L24.3187,20.8859 L21.4646,18.4524 C21.8301,18.1994 22.1747,17.9125 22.4933,17.5939 C23.8916,16.1956 24.6772,14.299 24.6772,12.3214 C24.6772,10.3439 23.8916,8.44729 22.4933,7.04894 C21.0949,5.65059 19.1984,4.86499 17.2208,4.86499 L13.1646,4.86499 L8.32227,4.86499 Z M17.2519,22.8903 L17.2522,17.4441 L19.0756,19.0436 L19.0756,19.0437 L19.0863,19.0528 L20.9558,20.6468 L19.1889,20.6468 L18.1889,20.6468 L18.1889,21.6468 L18.1889,23.7895 L17.2519,22.8903 Z M20.1889,22.6468 L22.6715,22.6468 L22.6756,25.1352 L20.1889,25.1352 L20.1889,22.6468 Z M19.8781,17.0871 L17.4164,14.9278 C18.0381,14.8811 18.6251,14.6134 19.069,14.1696 C19.5591,13.6794 19.8345,13.0146 19.8345,12.3214 C19.8345,11.6282 19.5591,10.9634 19.069,10.4733 C18.5788,9.98313 17.9141,9.70777 17.2209,9.70774 L17.2208,9.70774 L13.1647,9.7073 L12.1646,9.7072 L12.1646,10.7073 L12.1646,23.2909 L9.32227,20.8275 L9.32227,6.86499 L13.1646,6.86499 L17.2208,6.86499 C18.6679,6.86499 20.0558,7.43987 21.0791,8.46315 C22.1024,9.48643 22.6772,10.8743 22.6772,12.3214 C22.6772,13.7686 22.1024,15.1564 21.0791,16.1797 C20.7193,16.5394 20.3146,16.8437 19.8781,17.0871 Z" id="形状"></path>
        </g>
    </g>
</svg>