<svg xmlns="http://www.w3.org/2000/svg" xmlns:xlink="http://www.w3.org/1999/xlink" fill="none" version="1.1" width="32" height="32" viewBox="0 0 32 32"><defs><clipPath id="master_svg0_23_04858"><rect x="0" y="0" width="32" height="32" rx="0"/></clipPath></defs><g clip-path="url(#master_svg0_23_04858)"><g><path d="M8.38632727394104,9.461413603515625Q9.065457273941039,8.782283603515625,9.83668727394104,8.243363603515625Q9.539937273941039,7.298283603515625,9.539937273941039,6.3076996035156245Q9.539937273941039,6.090320603515625,9.55454727394104,5.873432677815625Q8.08480727394104,6.716940603515625,6.8633272739410405,7.938413603515626Q4.97078727394104,9.830953603515624,3.98560027394104,12.319493603515625Q3.11726757394104,14.512853603515625,3.07992732444104,16.864743603515628Q4.10678727394104,16.272243603515626,5.27708727394104,16.082943603515623Q5.41652727394104,14.556393603515625,5.98821727394104,13.112313603515625Q6.80921727394104,11.038523603515625,8.38632727394104,9.461413603515625ZM22.46297727394104,6.3076996035156245Q22.46297727394104,7.298373603515625,22.16617727394104,8.243533603515624Q22.93727727394104,8.782393603515626,23.61627727394104,9.461413603515625Q25.19347727394104,11.038523603515625,26.01447727394104,13.112313603515625Q26.58607727394104,14.556373603515626,26.72557727394104,16.082843603515627Q27.89587727394104,16.272143603515623,28.92267727394104,16.864543603515624Q28.88537727394104,14.512783603515626,28.01707727394104,12.319493603515625Q27.03187727394104,9.830943603515625,25.13927727394104,7.938413603515626Q23.91797727394104,6.717067603515625,22.44837727394104,5.873610518515625Q22.46297727394104,6.090409603515625,22.46297727394104,6.3076996035156245ZM22.64987727394104,28.161143603515626Q21.60287727394104,27.601943603515625,20.82297727394104,26.707143603515625Q20.40537727394104,26.915343603515623,19.96537727394104,27.089543603515626Q18.05547727394104,27.845643603515626,16.001277273941042,27.845643603515626Q13.94717727394104,27.845643603515626,12.03722727394104,27.089543603515626Q11.59741727394104,26.915443603515627,11.17992727394104,26.707243603515625Q10.39997727394104,27.602043603515625,9.352937273941041,28.161243603515626Q10.251207273941041,28.698943603515627,11.24440727394104,29.092143603515623Q13.53637727394104,29.999443603515626,16.001277273941042,29.999443603515626Q18.46627727394104,29.999443603515626,20.75827727394104,29.092143603515623Q21.75157727394104,28.698943603515627,22.64987727394104,28.161143603515626Z" fill-rule="evenodd" fill="#0052D9" fill-opacity="1"/></g><g><ellipse cx="16.001051902770996" cy="6.307692527770996" rx="4.307692527770996" ry="4.307692527770996" fill-opacity="0" stroke-opacity="1" stroke="#0052D9" fill="none" stroke-width="2" stroke-linecap="ROUND" stroke-linejoin="round"/></g><g><ellipse cx="6.307692527770996" cy="22.461562156677246" rx="4.307692527770996" ry="4.307692527770996" fill-opacity="0" stroke-opacity="1" stroke="#0052D9" fill="none" stroke-width="2" stroke-linecap="ROUND" stroke-linejoin="round"/></g><g><ellipse cx="25.692458152770996" cy="22.461562156677246" rx="4.307692527770996" ry="4.307692527770996" fill-opacity="0" stroke-opacity="1" stroke="#0052D9" fill="none" stroke-width="2" stroke-linecap="ROUND" stroke-linejoin="round"/></g></g></svg>