<svg xmlns="http://www.w3.org/2000/svg" xmlns:xlink="http://www.w3.org/1999/xlink" fill="none" version="1.1" width="32" height="32" viewBox="0 0 32 32"><defs><clipPath id="master_svg0_23_03052"><rect x="0" y="0" width="32" height="32" rx="0"/></clipPath></defs><g clip-path="url(#master_svg0_23_03052)"><g><path d="M3,3L3,29Q3,29.0985,3.019215,29.1951Q3.03843,29.2917,3.076121,29.3827Q3.1138120000000002,29.4737,3.16853,29.5556Q3.223249,29.6375,3.292893,29.7071Q3.362537,29.7767,3.44443,29.8315Q3.526322,29.8862,3.617317,29.9239Q3.708311,29.9616,3.80491,29.9808Q3.9015086,30,4,30L29,30Q29.0985,30,29.1951,29.9808Q29.2917,29.9616,29.3827,29.9239Q29.4737,29.8862,29.5556,29.8315Q29.6375,29.7767,29.7071,29.7071Q29.7767,29.6375,29.8315,29.5556Q29.8862,29.4737,29.9239,29.3827Q29.9616,29.2917,29.9808,29.1951Q30,29.0985,30,29L30,12Q30,9.96617,29.2137,8.107240000000001Q28.4546,6.31249,27.0711,4.92893Q25.6875,3.545376,23.8928,2.78626Q22.0338,2,20,2L4,2Q3.9015086,2,3.80491,2.019215Q3.708311,2.03843,3.617317,2.076121Q3.526322,2.1138120000000002,3.44443,2.16853Q3.362537,2.223249,3.292893,2.292893Q3.223249,2.362537,3.16853,2.44443Q3.1138120000000002,2.526322,3.076121,2.617317Q3.03843,2.708311,3.019215,2.80491Q3,2.9015086,3,3ZM5,28L28,28L28,12Q28,8.68629,25.6569,6.34315Q23.3137,4,20,4L5,4L5,28Z" fill-rule="evenodd" fill="#0052D9" fill-opacity="1"/></g><g><path d="M2,9L6,9Q6.09849,9,6.19509,9.019214999999999Q6.29169,9.03843,6.38268,9.076121Q6.47368,9.113812,6.55557,9.16853Q6.63746,9.223249,6.70711,9.292893Q6.77675,9.362537,6.83147,9.44443Q6.88619,9.526322,6.92388,9.617317Q6.96157,9.708311,6.98078,9.80491Q7,9.9015086,7,10Q7,10.0984914,6.98078,10.19509Q6.96157,10.291689,6.92388,10.382683Q6.88619,10.473678,6.83147,10.55557Q6.77675,10.637463,6.70711,10.707107Q6.63746,10.776751,6.55557,10.83147Q6.47368,10.886188,6.38268,10.923879Q6.29169,10.96157,6.19509,10.980785000000001Q6.09849,11,6,11L2,11Q1.9015086,11,1.80491,10.980785000000001Q1.7083110000000001,10.96157,1.617317,10.923879Q1.526322,10.886188,1.44443,10.83147Q1.362537,10.776751,1.2928929999999998,10.707107Q1.223249,10.637463,1.16853,10.55557Q1.113812,10.473678,1.076121,10.382683Q1.03843,10.291689,1.019215,10.19509Q1,10.0984914,1,10Q1,9.9015086,1.019215,9.80491Q1.03843,9.708311,1.076121,9.617317Q1.113812,9.526322,1.16853,9.44443Q1.223249,9.362537,1.2928929999999998,9.292893Q1.362537,9.223249,1.44443,9.16853Q1.526322,9.113812,1.617317,9.076121Q1.7083110000000001,9.03843,1.80491,9.019214999999999Q1.9015086,9,2,9Z" fill-rule="evenodd" fill="#0052D9" fill-opacity="1"/></g><g><path d="M2,15L6,15Q6.09849,15,6.19509,15.019214999999999Q6.29169,15.03843,6.38268,15.076121Q6.47368,15.113812,6.55557,15.16853Q6.63746,15.223249,6.70711,15.292893Q6.77675,15.362537,6.83147,15.44443Q6.88619,15.526322,6.92388,15.617317Q6.96157,15.708311,6.98078,15.80491Q7,15.9015086,7,16Q7,16.0984914,6.98078,16.19509Q6.96157,16.291689,6.92388,16.382683Q6.88619,16.473678,6.83147,16.55557Q6.77675,16.637463,6.70711,16.707107Q6.63746,16.776751,6.55557,16.83147Q6.47368,16.886188,6.38268,16.923879Q6.29169,16.961570000000002,6.19509,16.980785Q6.09849,17,6,17L2,17Q1.9015086,17,1.80491,16.980785Q1.7083110000000001,16.961570000000002,1.617317,16.923879Q1.526322,16.886188,1.44443,16.83147Q1.362537,16.776751,1.2928929999999998,16.707107Q1.223249,16.637463,1.16853,16.55557Q1.113812,16.473678,1.076121,16.382683Q1.03843,16.291689,1.019215,16.19509Q1,16.0984914,1,16Q1,15.9015086,1.019215,15.80491Q1.03843,15.708311,1.076121,15.617317Q1.113812,15.526322,1.16853,15.44443Q1.223249,15.362537,1.2928929999999998,15.292893Q1.362537,15.223249,1.44443,15.16853Q1.526322,15.113812,1.617317,15.076121Q1.7083110000000001,15.03843,1.80491,15.019214999999999Q1.9015086,15,2,15Z" fill-rule="evenodd" fill="#0052D9" fill-opacity="1"/></g><g><path d="M2,21L6,21Q6.09849,21,6.19509,21.019215Q6.29169,21.038429999999998,6.38268,21.076121Q6.47368,21.113812,6.55557,21.16853Q6.63746,21.223249,6.70711,21.292893Q6.77675,21.362537,6.83147,21.44443Q6.88619,21.526322,6.92388,21.617317Q6.96157,21.708311,6.98078,21.80491Q7,21.9015086,7,22Q7,22.0984914,6.98078,22.19509Q6.96157,22.291689,6.92388,22.382683Q6.88619,22.473678,6.83147,22.55557Q6.77675,22.637463,6.70711,22.707107Q6.63746,22.776751,6.55557,22.83147Q6.47368,22.886188,6.38268,22.923879Q6.29169,22.961570000000002,6.19509,22.980785Q6.09849,23,6,23L2,23Q1.9015086,23,1.80491,22.980785Q1.7083110000000001,22.961570000000002,1.617317,22.923879Q1.526322,22.886188,1.44443,22.83147Q1.362537,22.776751,1.2928929999999998,22.707107Q1.223249,22.637463,1.16853,22.55557Q1.113812,22.473678,1.076121,22.382683Q1.03843,22.291689,1.019215,22.19509Q1,22.0984914,1,22Q1,21.9015086,1.019215,21.80491Q1.03843,21.708311,1.076121,21.617317Q1.113812,21.526322,1.16853,21.44443Q1.223249,21.362537,1.2928929999999998,21.292893Q1.362537,21.223249,1.44443,21.16853Q1.526322,21.113812,1.617317,21.076121Q1.7083110000000001,21.038429999999998,1.80491,21.019215Q1.9015086,21,2,21Z" fill-rule="evenodd" fill="#0052D9" fill-opacity="1"/></g><g><ellipse cx="17" cy="12" rx="4" ry="4" fill-opacity="0" stroke-opacity="1" stroke="#0052D9" fill="none" stroke-width="2" stroke-linecap="ROUND" stroke-linejoin="round"/></g><g><path d="M9,23L9,24Q9,24.098489999999998,9.019214999999999,24.19509Q9.03843,24.29169,9.076121,24.38268Q9.113812,24.47368,9.16853,24.55557Q9.223249,24.63746,9.292893,24.70711Q9.362537,24.77675,9.44443,24.83147Q9.526322,24.88619,9.617317,24.92388Q9.708311,24.961570000000002,9.80491,24.98078Q9.9015086,25,10,25L24,25Q24.0985,25,24.1951,24.98078Q24.2917,24.961570000000002,24.3827,24.92388Q24.4737,24.88619,24.5556,24.83147Q24.6375,24.77675,24.7071,24.70711Q24.776699999999998,24.63746,24.8315,24.55557Q24.886200000000002,24.47368,24.9239,24.38268Q24.9616,24.29169,24.980800000000002,24.19509Q25,24.098489999999998,25,24L25,23Q25,19.68629,22.6569,17.34315Q20.3137,15,17,15Q13.68629,15,11.34315,17.34315Q9,19.68629,9,23ZM11,23L23,23Q23,20.51472,21.2426,18.75736Q19.48528,17,17,17Q14.51472,17,12.75736,18.75736Q11,20.51472,11,23Z" fill-rule="evenodd" fill="#0052D9" fill-opacity="1"/></g></g></svg>