<svg xmlns="http://www.w3.org/2000/svg" xmlns:xlink="http://www.w3.org/1999/xlink" fill="none" version="1.1" width="32" height="32" viewBox="0 0 32 32"><defs><clipPath id="master_svg0_23_04953"><rect x="0" y="0" width="32" height="32" rx="0"/></clipPath></defs><g clip-path="url(#master_svg0_23_04953)"><g><path d="M10.333984375,5L10.333984375,27Q10.333984375,27.0985,10.353199374999999,27.1951Q10.372414375,27.2917,10.410105375,27.3827Q10.447796375,27.4737,10.502514375,27.5556Q10.557233375,27.6375,10.626877375,27.7071Q10.696521375,27.7768,10.778414375,27.8315Q10.860306375,27.8862,10.951301375,27.9239Q11.042295375,27.9616,11.138894375,27.9808Q11.235492975,28,11.333984375,28L29.333984375,28Q29.432484375,28,29.529084375,27.9808Q29.625684375,27.9616,29.716684375,27.9239Q29.807684375,27.8862,29.889584375,27.8315Q29.971484375,27.7768,30.041084375,27.7071Q30.110684375,27.6375,30.165484375,27.5556Q30.220184375,27.4737,30.257884375,27.3827Q30.295584375,27.2917,30.314784375,27.1951Q30.333984375,27.0985,30.333984375,27L30.333984375,13.66667Q30.333984375,13.52548,30.294884375,13.38981Q30.255784375,13.25415,30.180684375,13.1346Q30.105584375,13.01506,30.000284375,12.92099Q29.894984375,12.82691,29.767784375,12.76567L11.767800375,4.098998Q11.562188375,4,11.333984375,4Q11.235492975,4,11.138894375,4.019215Q11.042295375,4.03843,10.951301375,4.076121Q10.860306375,4.113812,10.778414375,4.16853Q10.696521375,4.223249,10.626877375,4.292893Q10.557233375,4.362537,10.502514375,4.44443Q10.447796375,4.526322,10.410105375,4.617317Q10.372414375,4.708311,10.353199374999999,4.80491Q10.333984375,4.9015086,10.333984375,5ZM12.333984375,26L28.333984375,26L28.333984375,14.29506L12.333984375,6.59136L12.333984375,26Z" fill-rule="evenodd" fill="#0052D9" fill-opacity="1"/></g><g><path d="M12.038925625,5.707316L12.039165625,5.70708Q12.041435625,5.704805,12.043695625,5.702516Q12.182255625,5.562153,12.257145625,5.379692Q12.332035625,5.197231,12.332035625,4.999999999999969Q12.332035625,4.801078,12.255905625,4.617299Q12.179775625,4.43352,12.039115625,4.292866L12.038565625,4.292322Q12.034555625,4.28832,12.030505625,4.284365L12.029925625,4.2838Q11.889875625,4.147326,11.708725625,4.073663Q11.527585625,4,11.332035625,4L11.331995625,4Q11.286995625,4.000002,11.242175625,4.004045Q11.067245625,4.019827,10.908165625,4.094273Q10.749085625,4.16872,10.624895625,4.29292L10.624665624999999,4.293156L1.958882625,12.95959Q1.818242625,13.10024,1.7421286249999999,13.284Q1.666015625,13.46776,1.666015625,13.66667L1.666015625,27Q1.666015625,27.0985,1.685230625,27.1951Q1.704445625,27.2917,1.742136625,27.3827Q1.779827625,27.4737,1.834545625,27.5556Q1.889264625,27.6375,1.9589086249999998,27.7071Q2.028552625,27.7768,2.110445625,27.8315Q2.192337625,27.8862,2.283332625,27.9239Q2.374326625,27.9616,2.470925625,27.9808Q2.567524225,28,2.666015625,28L11.332685625,28Q11.431175625,28,11.527775625,27.9808Q11.624375625,27.9616,11.715365625,27.9239Q11.806355625,27.8862,11.888255625,27.8315Q11.970145625,27.7768,12.039785625,27.7071Q12.109435625,27.6375,12.164155625,27.5556Q12.218865625,27.4737,12.256565625,27.3827Q12.294255625,27.2917,12.313465625,27.1951Q12.332685625,27.0985,12.332685625,27Q12.332685625,26.9015,12.313465625,26.8049Q12.294255625,26.7083,12.256565625,26.6173Q12.218875625,26.5263,12.164155625,26.4444Q12.109435625,26.3625,12.039785625,26.2929Q11.970145625,26.2232,11.888255625,26.1685Q11.806355625,26.1138,11.715365625,26.0761Q11.624375625,26.0384,11.527775625,26.0192Q11.431175625,26,11.332685625,26L3.666015625,26L3.666015625,14.08086L12.038925625,5.707316Z" fill-rule="evenodd" fill="#0052D9" fill-opacity="1"/></g><g><path d="M16.333984375,17L16.333984375,27Q16.333984375,27.0985,16.353199375,27.1951Q16.372414374999998,27.2917,16.410105375,27.3827Q16.447796375,27.4737,16.502514375,27.5556Q16.557233375,27.6375,16.626877375,27.7071Q16.696521375,27.776699999999998,16.778414375,27.8315Q16.860306375,27.886200000000002,16.951301375,27.9239Q17.042295375,27.9616,17.138894375,27.980800000000002Q17.235492975,28,17.333984375,28Q17.432475775,28,17.529074375,27.980800000000002Q17.625673375,27.9616,17.716667375,27.9239Q17.807662375,27.886200000000002,17.889554375,27.8315Q17.971447375,27.776699999999998,18.041091375,27.7071Q18.110735375,27.6375,18.165454375,27.5556Q18.220172375,27.4737,18.257863375,27.3827Q18.295554375000002,27.2917,18.314769375,27.1951Q18.333984375,27.0985,18.333984375,27L18.333984375,18.38743L22.333984375,19.72076L22.333984375,27Q22.333984375,27.0985,22.353194375,27.1951Q22.372414374999998,27.2917,22.410104375,27.3827Q22.447794375,27.4737,22.502514375,27.5556Q22.557234375,27.6375,22.626874375,27.7071Q22.696524375,27.776699999999998,22.778414375,27.8315Q22.860304375,27.886200000000002,22.951304375,27.9239Q23.042294375,27.9616,23.138894375,27.980800000000002Q23.235494375000002,28,23.333984375,28Q23.432474374999998,28,23.529074375,27.980800000000002Q23.625674375,27.9616,23.716664375,27.9239Q23.807664375,27.886200000000002,23.889554375,27.8315Q23.971444375,27.776699999999998,24.041094375,27.7071Q24.110734375,27.6375,24.165454375,27.5556Q24.220174375,27.4737,24.257864375,27.3827Q24.295554375000002,27.2917,24.314764375,27.1951Q24.333984375,27.0985,24.333984375,27L24.333984375,19Q24.333984375,18.92178,24.321824375,18.8445Q24.309654375,18.76723,24.285624375,18.69279Q24.261594375,18.61835,24.226274375,18.54855Q24.190964375,18.47875,24.145224374999998,18.41529Q24.099484375,18.35183,24.044434375,18.29626Q23.989384375,18.24068,23.926364375,18.19434Q23.863344375,18.148,23.793884375,18.11203Q23.724424374999998,18.07605,23.650214375,18.05132L17.650212375,16.051317Q17.496262375,16,17.333984375,16Q17.235492975,16,17.138894375,16.019215Q17.042295375,16.038429999999998,16.951301375,16.076121Q16.860306375,16.113812,16.778414375,16.16853Q16.696521375,16.223249,16.626877375,16.292893Q16.557233375,16.362537,16.502514375,16.44443Q16.447796375,16.526322,16.410105375,16.617317Q16.372414374999998,16.708311,16.353199375,16.80491Q16.333984375,16.9015086,16.333984375,17Z" fill-rule="evenodd" fill="#0052D9" fill-opacity="1"/></g><g><path d="M29.333984375,26L11.333984375,26Q11.235492975,26,11.138894375,26.019215Q11.042295375,26.038429999999998,10.951301375,26.076121Q10.860306375,26.113812,10.778414375,26.16853Q10.696521375,26.223249,10.626877375,26.292893Q10.557233375,26.362537,10.502514375,26.44443Q10.447796375,26.526322,10.410105375,26.617317Q10.372414375,26.708311,10.353199374999999,26.80491Q10.333984375,26.9015086,10.333984375,27Q10.333984375,27.0984914,10.353199374999999,27.19509Q10.372414375,27.291689,10.410105375,27.382683Q10.447796375,27.473678,10.502514375,27.55557Q10.557233375,27.637463,10.626877375,27.707107Q10.696521375,27.776751,10.778414375,27.83147Q10.860306375,27.886188,10.951301375,27.923879Q11.042295375,27.961570000000002,11.138894375,27.980785Q11.235492975,28,11.333984375,28L29.333984375,28Q29.432484375,28,29.529084375,27.980785Q29.625684375,27.961570000000002,29.716684375,27.923879Q29.807684375,27.886188,29.889584375,27.83147Q29.971484375,27.776751,30.041084375,27.707107Q30.110684375,27.637463,30.165484375,27.55557Q30.220184375,27.473678,30.257884375,27.382683Q30.295584375,27.291689,30.314784375,27.19509Q30.333984375,27.0984914,30.333984375,27Q30.333984375,26.9015086,30.314784375,26.80491Q30.295584375,26.708311,30.257884375,26.617317Q30.220184375,26.526322,30.165484375,26.44443Q30.110684375,26.362537,30.041084375,26.292893Q29.971484375,26.223249,29.889584375,26.16853Q29.807684375,26.113812,29.716684375,26.076121Q29.625684375,26.038429999999998,29.529084375,26.019215Q29.432484375,26,29.333984375,26Z" fill-rule="evenodd" fill="#0052D9" fill-opacity="1"/></g></g></svg>