<svg xmlns="http://www.w3.org/2000/svg" xmlns:xlink="http://www.w3.org/1999/xlink" fill="none" version="1.1" width="32" height="32" viewBox="0 0 32 32"><defs><clipPath id="master_svg0_23_03291"><rect x="0" y="0" width="32" height="32" rx="0"/></clipPath></defs><g clip-path="url(#master_svg0_23_03291)"><g><ellipse cx="16" cy="5" rx="2" ry="2" fill-opacity="0" stroke-opacity="1" stroke="#0052D9" fill="none" stroke-width="2" stroke-linecap="ROUND" stroke-linejoin="round"/></g><g><path d="M5,28L5,12Q5,11.9015086,5.019215,11.80491Q5.03843,11.708311,5.076121,11.617317Q5.113812,11.526322,5.16853,11.44443Q5.223249,11.362537,5.292893,11.292893Q5.362537,11.223249,5.44443,11.16853Q5.526322,11.113812,5.617317,11.076121Q5.708311,11.03843,5.80491,11.019214999999999Q5.9015086,11,6,11L26,11Q26.0985,11,26.1951,11.019214999999999Q26.2917,11.03843,26.3827,11.076121Q26.4737,11.113812,26.5556,11.16853Q26.6375,11.223249,26.7071,11.292893Q26.7767,11.362537,26.8315,11.44443Q26.8862,11.526322,26.9239,11.617317Q26.9616,11.708311,26.9808,11.80491Q27,11.9015086,27,12L27,28Q27,28.0985,26.9808,28.1951Q26.9616,28.2917,26.9239,28.3827Q26.8862,28.4737,26.8315,28.5556Q26.7767,28.6375,26.7071,28.7071Q26.6375,28.7767,26.5556,28.8315Q26.4737,28.8862,26.3827,28.9239Q26.2917,28.9616,26.1951,28.9808Q26.0985,29,26,29L6,29Q5.9015086,29,5.80491,28.9808Q5.708311,28.9616,5.617317,28.9239Q5.526322,28.8862,5.44443,28.8315Q5.362537,28.7767,5.292893,28.7071Q5.223249,28.6375,5.16853,28.5556Q5.113812,28.4737,5.076121,28.3827Q5.03843,28.2917,5.019215,28.1951Q5,28.0985,5,28ZM7,13L7,27L25,27L25,13L7,13Z" fill="#0052D9" fill-opacity="1"/></g><g><ellipse cx="11.25" cy="17.25" rx="1.25" ry="1.25" fill="#0052D9" fill-opacity="1"/></g><g><ellipse cx="20.25" cy="17.25" rx="1.25" ry="1.25" fill="#0052D9" fill-opacity="1"/></g><g><path d="M15,7L15,12Q15,12.09849,15.019214999999999,12.19509Q15.03843,12.29169,15.076121,12.38268Q15.113812,12.47368,15.16853,12.55557Q15.223249,12.63746,15.292893,12.70711Q15.362537,12.77675,15.44443,12.83147Q15.526322,12.88619,15.617317,12.92388Q15.708311,12.96157,15.80491,12.98078Q15.9015086,13,16,13Q16.0984914,13,16.19509,12.98078Q16.291689,12.96157,16.382683,12.92388Q16.473678,12.88619,16.55557,12.83147Q16.637463,12.77675,16.707107,12.70711Q16.776751,12.63746,16.83147,12.55557Q16.886188,12.47368,16.923879,12.38268Q16.961570000000002,12.29169,16.980785,12.19509Q17,12.09849,17,12L17,7Q17,6.9015086,16.980785,6.80491Q16.961570000000002,6.708311,16.923879,6.617317Q16.886188,6.526322,16.83147,6.44443Q16.776751,6.362537,16.707107,6.292893Q16.637463,6.223249,16.55557,6.16853Q16.473678,6.113812,16.382683,6.076121Q16.291689,6.03843,16.19509,6.019215Q16.0984914,6,16,6Q15.9015086,6,15.80491,6.019215Q15.708311,6.03843,15.617317,6.076121Q15.526322,6.113812,15.44443,6.16853Q15.362537,6.223249,15.292893,6.292893Q15.223249,6.362537,15.16853,6.44443Q15.113812,6.526322,15.076121,6.617317Q15.03843,6.708311,15.019214999999999,6.80491Q15,6.9015086,15,7Z" fill-rule="evenodd" fill="#0052D9" fill-opacity="1"/></g><g><path d="M1.5,18L1.5,23Q1.5,23.098489999999998,1.519215,23.19509Q1.53843,23.29169,1.576121,23.38268Q1.613812,23.47368,1.66853,23.55557Q1.723249,23.63746,1.7928929999999998,23.70711Q1.862537,23.77675,1.94443,23.83147Q2.026322,23.88619,2.117317,23.92388Q2.208311,23.961570000000002,2.30491,23.98078Q2.4015086,24,2.5,24Q2.5984914,24,2.69509,23.98078Q2.791689,23.961570000000002,2.882683,23.92388Q2.973678,23.88619,3.05557,23.83147Q3.137463,23.77675,3.207107,23.70711Q3.276751,23.63746,3.33147,23.55557Q3.3861879999999998,23.47368,3.423879,23.38268Q3.46157,23.29169,3.480785,23.19509Q3.5,23.098489999999998,3.5,23L3.5,18Q3.5,17.9015086,3.480785,17.80491Q3.46157,17.708311,3.423879,17.617317Q3.3861879999999998,17.526322,3.33147,17.44443Q3.276751,17.362537,3.207107,17.292893Q3.137463,17.223249,3.05557,17.16853Q2.973678,17.113812,2.882683,17.076121Q2.791689,17.038429999999998,2.69509,17.019215Q2.5984914,17,2.5,17Q2.4015086,17,2.30491,17.019215Q2.208311,17.038429999999998,2.117317,17.076121Q2.026322,17.113812,1.94443,17.16853Q1.862537,17.223249,1.7928929999999998,17.292893Q1.723249,17.362537,1.66853,17.44443Q1.613812,17.526322,1.576121,17.617317Q1.53843,17.708311,1.519215,17.80491Q1.5,17.9015086,1.5,18Z" fill-rule="evenodd" fill="#0052D9" fill-opacity="1"/></g><g><path d="M28.5,18L28.5,23Q28.5,23.098489999999998,28.519215,23.19509Q28.538429999999998,23.29169,28.576121,23.38268Q28.613812,23.47368,28.66853,23.55557Q28.723249,23.63746,28.792893,23.70711Q28.862537,23.77675,28.94443,23.83147Q29.026322,23.88619,29.117317,23.92388Q29.208311,23.961570000000002,29.30491,23.98078Q29.4015086,24,29.5,24Q29.5984914,24,29.69509,23.98078Q29.791689,23.961570000000002,29.882683,23.92388Q29.973678,23.88619,30.05557,23.83147Q30.137463,23.77675,30.207107,23.70711Q30.276751,23.63746,30.33147,23.55557Q30.386188,23.47368,30.423879,23.38268Q30.461570000000002,23.29169,30.480785,23.19509Q30.5,23.098489999999998,30.5,23L30.5,18Q30.5,17.9015086,30.480785,17.80491Q30.461570000000002,17.708311,30.423879,17.617317Q30.386188,17.526322,30.33147,17.44443Q30.276751,17.362537,30.207107,17.292893Q30.137463,17.223249,30.05557,17.16853Q29.973678,17.113812,29.882683,17.076121Q29.791689,17.038429999999998,29.69509,17.019215Q29.5984914,17,29.5,17Q29.4015086,17,29.30491,17.019215Q29.208311,17.038429999999998,29.117317,17.076121Q29.026322,17.113812,28.94443,17.16853Q28.862537,17.223249,28.792893,17.292893Q28.723249,17.362537,28.66853,17.44443Q28.613812,17.526322,28.576121,17.617317Q28.538429999999998,17.708311,28.519215,17.80491Q28.5,17.9015086,28.5,18Z" fill-rule="evenodd" fill="#0052D9" fill-opacity="1"/></g><g><path d="M13,24L19,24Q19.098489999999998,24,19.19509,23.980785Q19.29169,23.961570000000002,19.38268,23.923879Q19.47368,23.886188,19.55557,23.83147Q19.63746,23.776751,19.70711,23.707107Q19.77675,23.637463,19.83147,23.55557Q19.88619,23.473678,19.92388,23.382683Q19.961570000000002,23.291689,19.98078,23.19509Q20,23.0984914,20,23Q20,22.9015086,19.98078,22.80491Q19.961570000000002,22.708311,19.92388,22.617317Q19.88619,22.526322,19.83147,22.44443Q19.77675,22.362537,19.70711,22.292893Q19.63746,22.223249,19.55557,22.16853Q19.47368,22.113812,19.38268,22.076121Q19.29169,22.038429999999998,19.19509,22.019215Q19.098489999999998,22,19,22L13,22Q12.9015086,22,12.80491,22.019215Q12.708311,22.038429999999998,12.617317,22.076121Q12.526322,22.113812,12.44443,22.16853Q12.362537,22.223249,12.292893,22.292893Q12.223249,22.362537,12.16853,22.44443Q12.113812,22.526322,12.076121,22.617317Q12.03843,22.708311,12.019214999999999,22.80491Q12,22.9015086,12,23Q12,23.0984914,12.019214999999999,23.19509Q12.03843,23.291689,12.076121,23.382683Q12.113812,23.473678,12.16853,23.55557Q12.223249,23.637463,12.292893,23.707107Q12.362537,23.776751,12.44443,23.83147Q12.526322,23.886188,12.617317,23.923879Q12.708311,23.961570000000002,12.80491,23.980785Q12.9015086,24,13,24Z" fill-rule="evenodd" fill="#0052D9" fill-opacity="1"/></g></g></svg>