<svg xmlns="http://www.w3.org/2000/svg" xmlns:xlink="http://www.w3.org/1999/xlink" fill="none" version="1.1" width="32" height="32" viewBox="0 0 32 32"><defs><clipPath id="master_svg0_23_03063"><rect x="0" y="0" width="32" height="32" rx="0"/></clipPath></defs><g clip-path="url(#master_svg0_23_03063)"><g><g><path d="M7,14Q7,11.96617,7.78626,10.107240000000001Q8.54538,8.31249,9.92893,6.928929999999999Q11.31249,5.54538,13.107240000000001,4.78626Q14.96617,4,17,4Q19.0338,4,20.8928,4.78626Q22.6875,5.54538,24.0711,6.928929999999999Q24.2117,7.06958,24.2878,7.25335Q24.364,7.43713,24.364,7.6360399999999995Q24.364,7.83495,24.2878,8.01872Q24.2117,8.202490000000001,24.0711,8.34315Q23.9304,8.483799999999999,23.7466,8.55992Q23.5629,8.636040000000001,23.364,8.636040000000001Q23.165,8.636040000000001,22.981299999999997,8.55992Q22.7975,8.483799999999999,22.6569,8.34315Q20.3137,6,17,6Q13.68629,6,11.34315,8.34315Q9,10.68629,9,14Q9,14.0866,8.98511,14.1719Q8.2525,14,7.5,14Q7.249722,14,7.000185202,14.0192Q7,14.0096,7,14Z" fill-rule="evenodd" fill="#0052D9" fill-opacity="1"/></g><g><path d="M7.5,28L10.5,28Q10.59849,28,10.69509,27.980800000000002Q10.79169,27.9616,10.88268,27.9239Q10.97368,27.886200000000002,11.0556,27.8315Q11.1375,27.776699999999998,11.2071,27.7071Q11.2767,27.6375,11.3315,27.5556Q11.3862,27.4737,11.4239,27.3827Q11.4616,27.2917,11.4808,27.1951Q11.5,27.0985,11.5,27Q11.5,26.9015,11.4808,26.8049Q11.4616,26.7083,11.4239,26.6173Q11.3862,26.5263,11.3315,26.4444Q11.2767,26.3625,11.2071,26.2929Q11.1375,26.2232,11.0556,26.1685Q10.97368,26.113799999999998,10.88268,26.0761Q10.79169,26.0384,10.69509,26.019199999999998Q10.59849,26,10.5,26L7.5,26Q5.22182,26,3.61091,24.3891Q2,22.77818,2,20.5Q2,18.22183,3.61091,16.61091Q5.22183,15,7.5,15Q7.71534,15,7.92882,15.01642Q7.96711,15.01937,8.005510000000001,15.01937Q8.05867,15.01937,8.11153,15.01373Q8.19799,15.00451,8.28157,14.980508Q8.36515,14.956503,8.44333,14.918432Q8.52151,14.880361,8.591940000000001,14.829367Q8.662379999999999,14.778374,8.72295,14.715988Q8.783529999999999,14.653602,8.832429999999999,14.581696Q8.881319999999999,14.50979,8.91708,14.430524Q8.952829999999999,14.351257,8.97437,14.267009Q8.995899999999999,14.182762,9.00257,14.0960611Q9.00551,14.0577704,9.00551,14.0193666Q9.00551,13.9850742,9.00317,13.9508624Q8.99211,13.789844,8.930959999999999,13.64048Q8.869810000000001,13.491116,8.76477,13.368574Q8.63532,13.217549,8.457930000000001,13.127558Q8.28054,13.037568,8.08221,13.022312Q7.79214,13,7.5,13Q4.3934,13,2.1967,15.1967Q0,17.3934,0,20.5Q0,23.6066,2.1967,25.8033Q4.3934,28,7.5,28Z" fill-rule="evenodd" fill="#0052D9" fill-opacity="1"/></g><g><path d="M26.5,16L29,16Q29.0985,16,29.1951,15.98078Q29.2917,15.96157,29.3827,15.92388Q29.4737,15.88619,29.5556,15.83147Q29.6375,15.77675,29.7071,15.70711Q29.776699999999998,15.63746,29.8315,15.55557Q29.886200000000002,15.47368,29.9239,15.38268Q29.9616,15.29169,29.980800000000002,15.19509Q30,15.09849,30,15Q30,14.90151,29.980800000000002,14.80491Q29.9616,14.70831,29.9239,14.61732Q29.886200000000002,14.52632,29.8315,14.44443Q29.776699999999998,14.36254,29.7071,14.29289Q29.6375,14.22325,29.5556,14.16853Q29.4737,14.11381,29.3827,14.07612Q29.2917,14.03843,29.1951,14.019210000000001Q29.0985,14,29,14L26.84311,14L22.61394,10.710647999999999Q22.48229,10.608254,22.32454,10.554127Q22.16678,10.5,22,10.5L18,10.5Q17.9015086,10.5,17.80491,10.519214999999999Q17.708311,10.53843,17.617317,10.576121Q17.526322,10.613812,17.44443,10.66853Q17.362537,10.723249,17.292893,10.792893Q17.223249,10.862537,17.16853,10.94443Q17.113812,11.026322,17.076121,11.117317Q17.038429999999998,11.208311,17.019215,11.30491Q17,11.4015086,17,11.5Q17,11.5984914,17.019215,11.69509Q17.038429999999998,11.791689,17.076121,11.882683Q17.113812,11.973678,17.16853,12.05557Q17.223249,12.137463,17.292893,12.207107Q17.362537,12.276751,17.44443,12.33147Q17.526322,12.386188,17.617317,12.423879Q17.708311,12.46157,17.80491,12.480785000000001Q17.9015086,12.5,18,12.5L21.65689,12.5L25.88606,15.789349999999999Q26.01771,15.89175,26.17546,15.94587Q26.33322,16,26.5,16Z" fill-rule="evenodd" fill="#0052D9" fill-opacity="1"/></g><g transform="matrix(1,0,0,-1,0,49)"><path d="M25.5,29L30,29Q30.0985,29,30.1951,28.98078Q30.2917,28.961570000000002,30.3827,28.92388Q30.4737,28.88619,30.5556,28.83147Q30.6375,28.77675,30.7071,28.70711Q30.776699999999998,28.63746,30.8315,28.55557Q30.886200000000002,28.47368,30.9239,28.38268Q30.9616,28.29169,30.980800000000002,28.19509Q31,28.098489999999998,31,28Q31,27.901510000000002,30.980800000000002,27.80491Q30.9616,27.70831,30.9239,27.61732Q30.886200000000002,27.52632,30.8315,27.44443Q30.776699999999998,27.36254,30.7071,27.29289Q30.6375,27.22325,30.5556,27.16853Q30.4737,27.11381,30.3827,27.07612Q30.2917,27.038429999999998,30.1951,27.01921Q30.0985,27,30,27L25.84311,27L21.61394,23.710648Q21.48229,23.608254,21.32454,23.554127Q21.16678,23.5,21,23.5L17,23.5Q16.9015086,23.5,16.80491,23.519215Q16.708311,23.538429999999998,16.617317,23.576121Q16.526322,23.613812,16.44443,23.66853Q16.362537,23.723249,16.292893,23.792893Q16.223249,23.862537,16.16853,23.94443Q16.113812,24.026322,16.076121,24.117317Q16.038429999999998,24.208311,16.019215,24.30491Q16,24.4015086,16,24.5Q16,24.5984914,16.019215,24.69509Q16.038429999999998,24.791689,16.076121,24.882683Q16.113812,24.973678,16.16853,25.05557Q16.223249,25.137463,16.292893,25.207107Q16.362537,25.276751,16.44443,25.33147Q16.526322,25.386188,16.617317,25.423879Q16.708311,25.461570000000002,16.80491,25.480785Q16.9015086,25.5,17,25.5L20.65689,25.5L24.88606,28.78935Q25.01771,28.891750000000002,25.17546,28.94587Q25.33322,29,25.5,29Z" fill-rule="evenodd" fill="#0052D9" fill-opacity="1"/></g><g><ellipse cx="17.5" cy="11.5" rx="1.5" ry="1.5" fill="#0052D9" fill-opacity="1"/></g><g transform="matrix(1,0,0,-1,0,52)"><ellipse cx="16.5" cy="27.5" rx="1.5" ry="1.5" fill="#0052D9" fill-opacity="1"/></g><g><ellipse cx="29.5" cy="15" rx="1.5" ry="1.5" fill="#0052D9" fill-opacity="1"/></g><g transform="matrix(1,0,0,-1,0,45)"><ellipse cx="30.5" cy="24" rx="1.5" ry="1.5" fill="#0052D9" fill-opacity="1"/></g><g><ellipse cx="13.5" cy="18.5" rx="1.5" ry="1.5" fill="#0052D9" fill-opacity="1"/></g><g><ellipse cx="21.5" cy="18.5" rx="1.5" ry="1.5" fill="#0052D9" fill-opacity="1"/></g><g><path d="M14,19.5L21.5,19.5Q21.598489999999998,19.5,21.69509,19.480785Q21.79169,19.461570000000002,21.88268,19.423879Q21.97368,19.386188,22.05557,19.33147Q22.13746,19.276751,22.20711,19.207107Q22.27675,19.137463,22.33147,19.05557Q22.38619,18.973678,22.42388,18.882683Q22.461570000000002,18.791689,22.48078,18.69509Q22.5,18.5984914,22.5,18.5Q22.5,18.4015086,22.48078,18.30491Q22.461570000000002,18.208311,22.42388,18.117317Q22.38619,18.026322,22.33147,17.94443Q22.27675,17.862537,22.20711,17.792893Q22.13746,17.723249,22.05557,17.66853Q21.97368,17.613812,21.88268,17.576121Q21.79169,17.538429999999998,21.69509,17.519215Q21.598489999999998,17.5,21.5,17.5L14,17.5Q13.9015086,17.5,13.80491,17.519215Q13.708311,17.538429999999998,13.617317,17.576121Q13.526322,17.613812,13.44443,17.66853Q13.362537,17.723249,13.292893,17.792893Q13.223249,17.862537,13.16853,17.94443Q13.113812,18.026322,13.076121,18.117317Q13.03843,18.208311,13.019214999999999,18.30491Q13,18.4015086,13,18.5Q13,18.5984914,13.019214999999999,18.69509Q13.03843,18.791689,13.076121,18.882683Q13.113812,18.973678,13.16853,19.05557Q13.223249,19.137463,13.292893,19.207107Q13.362537,19.276751,13.44443,19.33147Q13.526322,19.386188,13.617317,19.423879Q13.708311,19.461570000000002,13.80491,19.480785Q13.9015086,19.5,14,19.5Z" fill-rule="evenodd" fill="#0052D9" fill-opacity="1"/></g></g></g></svg>