<svg xmlns="http://www.w3.org/2000/svg" xmlns:xlink="http://www.w3.org/1999/xlink" fill="none" version="1.1" width="32" height="32" viewBox="0 0 32 32"><defs><clipPath id="master_svg0_23_02833"><rect x="0" y="0" width="32" height="32" rx="0"/></clipPath></defs><g clip-path="url(#master_svg0_23_02833)"><g><path d="M1,16Q1,13.1388,2.0531755,10.47858Q3.1967,7.5901,5.3934,5.3934Q7.5901,3.1967,10.47858,2.0531755Q13.1388,1,16,1Q18.8612,1,21.5214,2.0531755Q24.4099,3.1967,26.6066,5.3934Q28.8033,7.59009,29.9468,10.47858Q31,13.1388,31,16Q31,18.8612,29.9468,21.5214Q28.8033,24.4099,26.6066,26.6066Q24.4099,28.8033,21.5214,29.9468Q18.8612,31,16,31Q13.1388,31,10.47858,29.9468Q7.59009,28.8033,5.3934,26.6066Q3.1967,24.4099,2.0531755,21.5214Q1,18.8612,1,16ZM3,16Q3,18.4797,3.91275,20.7852Q4.9038,23.2886,6.80761,25.1924Q8.71141,27.0962,11.21477,28.0872Q13.5203,29,16,29Q18.4797,29,20.7852,28.0872Q23.2886,27.0962,25.1924,25.1924Q27.0962,23.2886,28.0872,20.7852Q29,18.4797,29,16Q29,13.5203,28.0872,11.21477Q27.0962,8.71141,25.1924,6.80761Q23.2886,4.9038,20.7852,3.91275Q18.4797,3,16,3Q13.5203,3,11.21477,3.91275Q8.71142,4.90381,6.80761,6.80761Q4.90381,8.71142,3.91275,11.21477Q3,13.5203,3,16Z" fill="#0052D9" fill-opacity="1"/></g><g><path d="M21.3096,13.5Q21.4312,13.5,21.5492,13.5291396Q21.6448,13.5527427,21.734,13.5945471Q21.8232,13.636351,21.9025,13.694751Q21.9818,13.75315,22.0482,13.825899Q22.1146,13.898649,22.1655,13.982953Q22.2165,14.067258,22.25,14.159877Q22.2834,14.252497,22.2982,14.349872Q22.313000000000002,14.447247,22.308500000000002,14.54564Q22.304000000000002,14.64402,22.2804,14.73965L20.9646,20.07024Q20.4969,20,20,20Q19.43047,20,18.899160000000002,20.09229L20.0327,15.5L16.29168,15.5L12.154679999999999,18.13781L13.4499,23L14.78681,23Q14.24398,23.9224,14.07566,25L12.68142,25Q12.59933,25,12.51834,24.9866Q12.43735,24.9732,12.35963,24.9468Q12.28191,24.9204,12.20954,24.881700000000002Q12.13716,24.8429,12.07208,24.7929Q12.00699,24.7429,11.95093,24.6829Q11.894870000000001,24.622999999999998,11.84934,24.5547Q11.80381,24.4864,11.77003,24.4115Q11.73624,24.3367,11.71511,24.2574L10.0336978,17.94548Q10.0133278,17.86902,10.00523843,17.790300000000002Q9.9971491,17.711579999999998,10.00154184,17.632559999999998Q10.00593458,17.55355,10.0227,17.476210000000002Q10.0394655,17.39887,10.0681863,17.32514Q10.0969072,17.2514,10.136868,17.18309Q10.17683,17.11479,10.227037,17.05362Q10.277243,16.992449999999998,10.336446,16.93994Q10.395649,16.887430000000002,10.462374,16.84489L15.46237,13.656817Q15.70832,13.5,16,13.5L21.3096,13.5ZM20.4819,22.02589L19.93546,24.2396Q19.915509999999998,24.3205,19.88248,24.396900000000002Q19.84944,24.473300000000002,19.80423,24.5432Q19.75902,24.6131,19.70287,24.674500000000002Q19.646720000000002,24.736,19.58119,24.787300000000002Q19.51565,24.8386,19.442529999999998,24.8784Q19.369410000000002,24.9182,19.29072,24.9453Q19.21203,24.9725,19.129939999999998,24.9862Q19.04784,25,18.9646,25L16.11732,25Q16.370730000000002,23.9724,17.17157,23.17157Q17.26075,23.08239,17.35275,23L18.18143,23L18.3429,22.34582Q19.09983,22,20,22Q20.246299999999998,22,20.4819,22.02589Z" fill-rule="evenodd" fill="#0052D9" fill-opacity="1"/></g><g><path d="M11.35477,15L18,15Q18.0985,15,18.1951,14.98078Q18.2917,14.96157,18.3827,14.92388Q18.4737,14.88619,18.5556,14.83147Q18.6375,14.77675,18.7071,14.70711Q18.776699999999998,14.63746,18.8315,14.55557Q18.886200000000002,14.47368,18.9239,14.38268Q18.9616,14.29169,18.980800000000002,14.19509Q19,14.09849,19,14Q19,13.90151,18.980800000000002,13.80491Q18.9616,13.70831,18.9239,13.61732Q18.886200000000002,13.52632,18.8315,13.44443Q18.776699999999998,13.36254,18.7071,13.29289Q18.6375,13.22325,18.5556,13.16853Q18.4737,13.11381,18.3827,13.07612Q18.2917,13.03843,18.1951,13.019210000000001Q18.0985,13,18,13L11.35477,13Q9.94407,13,9.14477,11.83759Q8.34547,10.67517,8.85041,9.357936Q8.91667,9.1851,8.91667,8.9999999852901L8.91661,8.9890978Q8.91579,8.9143486,8.90387,8.840551Q8.89195,8.766754,8.86919,8.695549Q8.84644,8.624344,8.81334,8.557315Q8.78025,8.490285,8.73756,8.42892Q8.69487,8.367555,8.64353,8.313219Q8.59219,8.258884,8.533339999999999,8.212785Q8.474499999999999,8.166686,8.40945,8.129847999999999Q8.3444,8.093011,8.2746,8.066254Q8.10177,8,7.91667,8Q7.90334,8,7.89003,8.000355Q7.69119,8.005654,7.50951,8.086643Q7.3278300000000005,8.167632,7.19097,8.311981Q7.05412,8.45633,6.982921,8.642064L6.982661,8.642742Q6.554239,9.76084,6.709517,10.9301Q6.856949,12.04028,7.49678,12.97078Q8.136610000000001,13.90128,9.120470000000001,14.43632Q10.157,15,11.35477,15Z" fill-rule="evenodd" fill="#0052D9" fill-opacity="1"/></g><g transform="matrix(-1,0,0,1,52,0)"><path d="M31.354770000000002,15L38,15Q38.0985,15,38.1951,14.98078Q38.2917,14.96157,38.3827,14.92388Q38.4737,14.88619,38.5556,14.83147Q38.6375,14.77675,38.7071,14.70711Q38.7767,14.63746,38.8315,14.55557Q38.8862,14.47368,38.9239,14.38268Q38.961600000000004,14.29169,38.9808,14.19509Q39,14.09849,39,14Q39,13.90151,38.9808,13.80491Q38.961600000000004,13.70831,38.9239,13.61732Q38.8862,13.52632,38.8315,13.44443Q38.7767,13.36254,38.7071,13.29289Q38.6375,13.22325,38.5556,13.16853Q38.4737,13.11381,38.3827,13.07612Q38.2917,13.03843,38.1951,13.019210000000001Q38.0985,13,38,13L31.354770000000002,13Q29.94407,13,29.14477,11.83759Q28.34547,10.67517,28.85041,9.357936Q28.91667,9.1851,28.91667,8.9999999852901L28.91661,8.9890978Q28.91579,8.9143486,28.90387,8.840551Q28.89195,8.766754,28.86919,8.695549Q28.84644,8.624344,28.81334,8.557315Q28.78025,8.490285,28.737560000000002,8.42892Q28.69487,8.367555,28.64353,8.313219Q28.59219,8.258884,28.53334,8.212785Q28.4745,8.166686,28.40945,8.129847999999999Q28.3444,8.093011,28.2746,8.066254Q28.101770000000002,8,27.91667,8Q27.90334,8,27.89003,8.000355Q27.69119,8.005654,27.50951,8.086643Q27.32783,8.167632,27.19097,8.311981Q27.05412,8.45633,26.982921,8.642064L26.982661,8.642742Q26.554239,9.76084,26.709516999999998,10.9301Q26.856949,12.04028,27.49678,12.97078Q28.13661,13.90128,29.12047,14.43632Q30.157,15,31.354770000000002,15Z" fill-rule="evenodd" fill="#0052D9" fill-opacity="1"/></g></g></svg>