<svg xmlns="http://www.w3.org/2000/svg" xmlns:xlink="http://www.w3.org/1999/xlink" fill="none" version="1.1" width="32" height="32" viewBox="0 0 32 32"><defs><clipPath id="master_svg0_23_03444"><rect x="0" y="0" width="32" height="32" rx="0"/></clipPath></defs><g clip-path="url(#master_svg0_23_03444)"><g><path d="M26,4L26,14Q26,14.0985,26.0192,14.1951Q26.0384,14.2917,26.0761,14.3827Q26.1138,14.4737,26.1685,14.5556Q26.2232,14.6375,26.2929,14.7071Q26.3625,14.7767,26.4444,14.8315Q26.5263,14.8862,26.6173,14.9239Q26.7083,14.9616,26.8049,14.9808Q26.9015,15,27,15Q27.0985,15,27.1951,14.9808Q27.2917,14.9616,27.3827,14.9239Q27.4737,14.8862,27.5556,14.8315Q27.6375,14.7767,27.7071,14.7071Q27.7767,14.6375,27.8315,14.5556Q27.8862,14.4737,27.9239,14.3827Q27.9616,14.2917,27.9808,14.1951Q28,14.0985,28,14L28,3Q28,2.9015086,27.9808,2.80491Q27.9616,2.708311,27.9239,2.617317Q27.8862,2.526322,27.8315,2.44443Q27.7767,2.362537,27.7071,2.292893Q27.6375,2.223249,27.5556,2.16853Q27.4737,2.1138120000000002,27.3827,2.076121Q27.2917,2.03843,27.1951,2.019215Q27.0985,2,27,2L3,2Q2.9015086,2,2.80491,2.019215Q2.708311,2.03843,2.617317,2.076121Q2.526322,2.1138120000000002,2.44443,2.16853Q2.362537,2.223249,2.292893,2.292893Q2.223249,2.362537,2.16853,2.44443Q2.1138120000000002,2.526322,2.076121,2.617317Q2.03843,2.708311,2.019215,2.80491Q2,2.9015086,2,3L2,28Q2,28.0985,2.019215,28.1951Q2.03843,28.2917,2.076121,28.3827Q2.1138120000000002,28.4737,2.16853,28.5556Q2.223249,28.6375,2.292893,28.7071Q2.362537,28.7767,2.44443,28.8315Q2.526322,28.8862,2.617317,28.9239Q2.708311,28.9616,2.80491,28.9808Q2.9015086,29,3,29L14,29Q14.0985,29,14.1951,28.9808Q14.2917,28.9616,14.3827,28.9239Q14.4737,28.8862,14.5556,28.8315Q14.6375,28.7767,14.7071,28.7071Q14.7767,28.6375,14.8315,28.5556Q14.8862,28.4737,14.9239,28.3827Q14.9616,28.2917,14.9808,28.1951Q15,28.0985,15,28Q15,27.9015,14.9808,27.8049Q14.9616,27.7083,14.9239,27.6173Q14.8862,27.5263,14.8315,27.4444Q14.7767,27.3625,14.7071,27.2929Q14.6375,27.2232,14.5556,27.1685Q14.4737,27.1138,14.3827,27.0761Q14.2917,27.0384,14.1951,27.0192Q14.0985,27,14,27L4,27L4,4L26,4Z" fill-rule="evenodd" fill="#0052D9" fill-opacity="1"/></g><g><path d="M9,11L21,11Q21.0985,11,21.1951,10.980785000000001Q21.2917,10.96157,21.3827,10.923879Q21.4737,10.886188,21.5556,10.83147Q21.6375,10.776751,21.7071,10.707107Q21.776699999999998,10.637463,21.8315,10.55557Q21.886200000000002,10.473678,21.9239,10.382683Q21.9616,10.291689,21.980800000000002,10.19509Q22,10.0984914,22,10Q22,9.9015086,21.980800000000002,9.80491Q21.9616,9.708311,21.9239,9.617317Q21.886200000000002,9.526322,21.8315,9.44443Q21.776699999999998,9.362537,21.7071,9.292893Q21.6375,9.223249,21.5556,9.16853Q21.4737,9.113812,21.3827,9.076121Q21.2917,9.03843,21.1951,9.019214999999999Q21.0985,9,21,9L9,9Q8.9015086,9,8.80491,9.019214999999999Q8.708311,9.03843,8.617317,9.076121Q8.526322,9.113812,8.44443,9.16853Q8.362537,9.223249,8.292893,9.292893Q8.223249,9.362537,8.16853,9.44443Q8.113812,9.526322,8.076121,9.617317Q8.03843,9.708311,8.019214999999999,9.80491Q8,9.9015086,8,10Q8,10.0984914,8.019214999999999,10.19509Q8.03843,10.291689,8.076121,10.382683Q8.113812,10.473678,8.16853,10.55557Q8.223249,10.637463,8.292893,10.707107Q8.362537,10.776751,8.44443,10.83147Q8.526322,10.886188,8.617317,10.923879Q8.708311,10.96157,8.80491,10.980785000000001Q8.9015086,11,9,11Z" fill-rule="evenodd" fill="#0052D9" fill-opacity="1"/></g><g><path d="M9,17L15,17Q15.09849,17,15.19509,16.980785Q15.29169,16.961570000000002,15.38268,16.923879Q15.47368,16.886188,15.55557,16.83147Q15.63746,16.776751,15.70711,16.707107Q15.77675,16.637463,15.83147,16.55557Q15.88619,16.473678,15.92388,16.382683Q15.96157,16.291689,15.98078,16.19509Q16,16.0984914,16,16Q16,15.9015086,15.98078,15.80491Q15.96157,15.708311,15.92388,15.617317Q15.88619,15.526322,15.83147,15.44443Q15.77675,15.362537,15.70711,15.292893Q15.63746,15.223249,15.55557,15.16853Q15.47368,15.113812,15.38268,15.076121Q15.29169,15.03843,15.19509,15.019214999999999Q15.09849,15,15,15L9,15Q8.9015086,15,8.80491,15.019214999999999Q8.708311,15.03843,8.617317,15.076121Q8.526322,15.113812,8.44443,15.16853Q8.362537,15.223249,8.292893,15.292893Q8.223249,15.362537,8.16853,15.44443Q8.113812,15.526322,8.076121,15.617317Q8.03843,15.708311,8.019214999999999,15.80491Q8,15.9015086,8,16Q8,16.0984914,8.019214999999999,16.19509Q8.03843,16.291689,8.076121,16.382683Q8.113812,16.473678,8.16853,16.55557Q8.223249,16.637463,8.292893,16.707107Q8.362537,16.776751,8.44443,16.83147Q8.526322,16.886188,8.617317,16.923879Q8.708311,16.961570000000002,8.80491,16.980785Q8.9015086,17,9,17Z" fill-rule="evenodd" fill="#0052D9" fill-opacity="1"/></g><g><path d="M17.903811,17.903811Q16,19.80762,16,22.5Q16,25.19238,17.903811,27.0962Q19.80762,29,22.5,29Q25.19238,29,27.0962,27.0962Q29,25.19238,29,22.5Q29,19.80762,27.0962,17.903811Q25.19238,16,22.5,16Q19.80762,16,17.903811,17.903811ZM19.31802,25.68198Q18,24.36395,18,22.5Q18,20.63605,19.31802,19.31802Q20.63605,18,22.5,18Q24.36395,18,25.68198,19.31802Q27,20.63605,27,22.5Q27,24.36395,25.68198,25.68198Q24.36395,27,22.5,27Q20.63605,27,19.31802,25.68198Z" fill-rule="evenodd" fill="#0052D9" fill-opacity="1"/></g><g><path d="M25.793012,27.207226L27.79289,29.20711Q27.93355,29.34776,28.11732,29.42388Q28.30109,29.5,28.5,29.5Q28.69891,29.5,28.88268,29.42388Q29.06645,29.34776,29.20711,29.20711Q29.34776,29.06645,29.42388,28.88268Q29.5,28.69891,29.5,28.5Q29.5,28.30109,29.42388,28.11732Q29.34776,27.93355,29.20711,27.79289L27.207226,25.793012L27.207107,25.792893Q27.066455,25.652241,26.882683,25.57612Q26.698912,25.5,26.5,25.5Q26.301088,25.5,26.117317,25.57612Q25.933545,25.652241,25.792893,25.792893Q25.652241,25.933545,25.57612,26.117317Q25.5,26.301088,25.5,26.5Q25.5,26.698912,25.57612,26.882683Q25.652241,27.066455,25.792893,27.207107L25.793012,27.207226Z" fill-rule="evenodd" fill="#0052D9" fill-opacity="1"/></g></g></svg>