<svg xmlns="http://www.w3.org/2000/svg" xmlns:xlink="http://www.w3.org/1999/xlink" fill="none" version="1.1" width="32" height="32" viewBox="0 0 32 32"><defs><clipPath id="master_svg0_23_03309"><rect x="0" y="0" width="32" height="32" rx="0"/></clipPath></defs><g clip-path="url(#master_svg0_23_03309)"><g><g><path d="M27.99983787536621,22Q27.99983787536621,21.9015086,28.019047875366212,21.80491Q28.03826787536621,21.708311,28.07595787536621,21.617317Q28.113647875366212,21.526322,28.16836787536621,21.44443Q28.22308787536621,21.362537,28.29272787536621,21.292893Q28.36237787536621,21.223249,28.44426787536621,21.16853Q28.52615787536621,21.113812,28.61715787536621,21.076121Q28.708147875366212,21.038429999999998,28.80474787536621,21.019215Q28.901347875366213,21,28.99983787536621,21Q29.09832787536621,21,29.19492787536621,21.019215Q29.29152787536621,21.038429999999998,29.38251787536621,21.076121Q29.473517875366213,21.113812,29.55540787536621,21.16853Q29.63729787536621,21.223249,29.70694787536621,21.292893Q29.77658787536621,21.362537,29.83130787536621,21.44443Q29.88602787536621,21.526322,29.92371787536621,21.617317Q29.961407875366213,21.708311,29.98061787536621,21.80491Q29.99983787536621,21.9015086,29.99983787536621,22L29.99983787536621,25.72727Q29.99983787536621,25.80636,29.98740787536621,25.88446Q29.97497787536621,25.96256,29.950417875366213,26.03774Q29.92586787536621,26.11292,29.88980787536621,26.1833Q29.85373787536621,26.25369,29.807057875366212,26.317529999999998Q29.76037787536621,26.38136,29.70423787536621,26.43707Q29.64810787536621,26.49278,29.58390787536621,26.53897Q29.51971787536621,26.585169999999998,29.44905787536621,26.62069Q29.37840787536621,26.65622,29.30303787536621,26.6802L25.303460875366213,27.95279L25.303041875366212,27.952930000000002Q25.155093875366212,28,24.99983787536621,28Q24.90134647536621,28,24.80474787536621,27.98078Q24.70814887536621,27.961570000000002,24.61715487536621,27.92388Q24.52615987536621,27.88619,24.44426787536621,27.83147Q24.36237487536621,27.77675,24.29273087536621,27.70711Q24.22308687536621,27.63746,24.16836787536621,27.55557Q24.11364987536621,27.47368,24.07595887536621,27.38268Q24.03826787536621,27.29169,24.01905287536621,27.19509Q23.99983787536621,27.098489999999998,23.99983787536621,27Q23.99983787536621,26.92091,24.01226887536621,26.84281Q24.02470087536621,26.76471,24.04925387536621,26.68953Q24.07380787536621,26.61435,24.10987287536621,26.54397Q24.145938875366213,26.47359,24.19261887536621,26.40975Q24.23929987536621,26.34591,24.29543487536621,26.2902Q24.35156987536621,26.23449,24.41576387536621,26.188299999999998Q24.47995787536621,26.14211,24.55061487536621,26.10658Q24.62127087536621,26.07105,24.69663387536621,26.047069999999998L24.69705287536621,26.04694L27.99983787536621,24.99605L27.99983787536621,22Z" fill-rule="evenodd" fill="#0052D9" fill-opacity="1"/></g><g transform="matrix(1,0,-0.2079116851091385,0.978147566318512,1.0395552530651457,0.10926183496576414)"><path d="M27.051857102203368,24.21458474121094L27.05205710220337,24.21448474121094Q27.19555710220337,24.073484741210937,27.27335710220337,23.887884741210936Q27.35115710220337,23.70238474121094,27.35115710220337,23.50118474121094Q27.35115710220337,23.47968474121094,27.35015710220337,23.45818474121094Q27.34215710220337,23.272884741210937,27.268257102203368,23.102684741210936Q27.19435710220337,22.93258474121094,27.06435710220337,22.800284741210938Q26.92335710220337,22.656784741210938,26.737857102203368,22.578984741210938Q26.55225710220337,22.50118474121094,26.35115710220337,22.50118474121094Q26.32955710220337,22.50118474121094,26.30805710220337,22.502184741210936Q26.12275710220337,22.51018474121094,25.952657102203368,22.584084741210937Q25.78245710220337,22.65798474121094,25.65015710220337,22.787984741210938Q24.115657102203368,24.296084741210937,22.06335710220337,25.131684741210936Q19.93085710220337,25.999984741210938,17.57405710220337,25.999984741210938Q15.31973710220337,25.999984741210938,13.264617102203369,25.203184741210936Q11.28660710220337,24.436284741210937,9.764497102203368,23.040984741210938Q8.251757102203369,21.654284741210937,7.425077102203369,19.862684741210938Q6.574056102203369,18.018384741210937,6.574056102203369,15.999984741210938Q6.574057102203369,13.981624741210938,7.425077102203369,12.137254741210938Q8.251757102203369,10.345644741210936,9.764497102203368,8.958964741210938Q11.28660710220337,7.5637047412109375,13.264617102203369,6.796794741210937Q15.31973710220337,5.9999847412109375,17.57405710220337,5.9999847412109375Q19.82835710220337,5.9999847412109375,21.88345710220337,6.796794741210937Q23.86155710220337,7.5637047412109375,25.38365710220337,8.958964741210938Q26.896357102203368,10.345644741210936,27.72305710220337,12.137254741210938Q28.57405710220337,13.981624741210938,28.57405710220337,15.999984741210938Q28.57405710220337,17.146284741210938,28.29395710220337,18.252084741210936Q28.24515710220337,18.444884741210938,28.27385710220337,18.641784741210937Q28.30245710220337,18.838584741210937,28.40425710220337,19.009484741210937Q28.506157102203368,19.180384741210936,28.66555710220337,19.29928474121094Q28.82505710220337,19.418184741210936,29.01785710220337,19.466984741210936Q29.11335710220337,19.491184741210937,29.211657102203368,19.496284741210935Q29.31005710220337,19.501384741210938,29.40755710220337,19.48718474121094Q29.50495710220337,19.472984741210936,29.59775710220337,19.44008474121094Q29.690657102203367,19.407084741210937,29.77525710220337,19.356684741210938Q29.859857102203367,19.306284741210938,29.932957102203368,19.24038474121094Q30.006157102203368,19.174384741210936,30.06505710220337,19.095384741210935Q30.12385710220337,19.016484741210938,30.166257102203367,18.927584741210936Q30.20855710220337,18.838584741210937,30.23275710220337,18.74318474121094Q30.57405710220337,17.395684741210935,30.57405710220337,15.999984741210938Q30.57405710220337,13.542464741210937,29.53905710220337,11.299324741210938Q28.544057102203368,9.142864741210937,26.73505710220337,7.484654741210937Q24.93545710220337,5.8350297412109375,22.60645710220337,4.932046141210938Q20.20255710220337,3.9999847412109375,17.57405710220337,3.9999857412109376Q14.945587102203369,3.9999857412109376,12.541617102203368,4.932046741210938Q10.21264710220337,5.835031741210938,8.413047102203368,7.484654741210937Q6.604097102203369,9.142864741210937,5.609074702203369,11.299324741210938Q4.574057102203369,13.542454741210937,4.574057102203369,15.999984741210938Q4.574057102203369,18.457484741210937,5.609074202203369,20.700684741210935Q6.604097102203369,22.857084741210937,8.413047102203368,24.515284741210937Q10.21263710220337,26.164984741210937,12.541617102203368,27.06788474121094Q14.945587102203369,27.999984741210938,17.57405710220337,27.999984741210938Q20.32235710220337,27.999984741210938,22.81755710220337,26.98408474121094Q25.234557102203368,25.999984741210938,27.050157102203368,24.216284741210938Q27.05105710220337,24.215484741210936,27.051857102203368,24.21458474121094Z" fill-rule="evenodd" fill="#0052D9" fill-opacity="1"/></g></g></g></svg>