<svg width="32" height="32" viewBox="0 0 32 32" fill="none" xmlns="http://www.w3.org/2000/svg">
<g clip-path="url(#clip0_109_535)">
<path fill-rule="evenodd" clip-rule="evenodd" d="M7.99902 14.0033C7.99902 9.5845 11.5812 6.00235 16 6.00235C19.6975 6.00235 22.8093 8.51055 23.7266 11.9183H25.7833C24.8242 7.39573 20.8084 4.00235 16 4.00235C10.4766 4.00235 5.99902 8.47993 5.99902 14.0033H7.99902Z" fill="#0052D9"/>
<path fill-rule="evenodd" clip-rule="evenodd" d="M2 20.9421C2 24.2884 4.71276 27.0012 8.05911 27.0012L8.05911 29.0012C3.60819 29.0012 -1.57719e-07 25.393 -3.52275e-07 20.9421C-5.46831e-07 16.4911 3.60819 12.883 8.05911 12.883L8.05911 14.883C4.71276 14.883 2 17.5957 2 20.9421Z" fill="#0052D9"/>
<path d="M19.5117 14.0033H10.4889V16.0033H19.5117V14.0033Z" fill="#0052D9"/>
<path d="M12.4889 15.0619H10.4889V21.9821H12.4889V15.0619Z" fill="#0052D9"/>
<path d="M11.4659 25.2081C11.8083 26.1476 12.4711 26.9364 13.3377 27.4355C14.2042 27.9347 15.219 28.1123 16.2035 27.9371C17.1881 27.7619 18.0793 27.2451 18.7205 26.4777C19.3617 25.7102 19.7117 24.7413 19.709 23.7413C19.7063 22.7413 19.351 21.7742 18.7057 21.0103C18.0604 20.2463 17.1664 19.7344 16.1809 19.5646C15.1954 19.3947 14.1816 19.5778 13.3177 20.0816C12.4539 20.5854 11.7954 21.3777 11.4581 22.3191" stroke="#0052D9" stroke-width="2"/>
<path d="M30.9877 18.4251V17.5797C30.9877 15.9228 29.6446 14.5797 27.9877 14.5797H25.7914C24.1345 14.5797 22.7914 15.9228 22.7914 17.5797V25.0028C22.7914 26.6596 24.1345 28.0028 25.7914 28.0028H27.9877C29.6446 28.0028 30.9877 26.6596 30.9877 25.0028V22.0529H26.8895" stroke="#0052D9" stroke-width="2"/>
</g>
<defs>
<clipPath id="clip0_109_535">
<rect width="32" height="32" fill="white"/>
</clipPath>
</defs>
</svg>
