<svg width="32" height="32" viewBox="0 0 32 32" fill="none" xmlns="http://www.w3.org/2000/svg">
<path d="M18.9 16.3333C18.9 18.6155 18.471 20.633 17.8205 22.0425C17.1307 23.537 16.3794 24 15.9 24C15.4206 24 14.6693 23.537 13.9795 22.0425C13.329 20.633 12.9 18.6155 12.9 16.3333C12.9 14.0511 13.329 12.0336 13.9795 10.6241C14.6693 9.12969 15.4206 8.66667 15.9 8.66667C16.3794 8.66667 17.1307 9.12969 17.8205 10.6241C18.471 12.0336 18.9 14.0511 18.9 16.3333Z" stroke="#0052D9" stroke-width="2"/>
<path d="M16.0667 13.3333C18.3489 13.3333 20.3664 13.7623 21.7759 14.4129C23.2703 15.1026 23.7333 15.8539 23.7333 16.3333C23.7333 16.8127 23.2703 17.564 21.7759 18.2538C20.3664 18.9043 18.3489 19.3333 16.0667 19.3333C13.7845 19.3333 11.767 18.9043 10.3575 18.2538C8.86301 17.564 8.4 16.8127 8.4 16.3333C8.4 15.8539 8.86301 15.1026 10.3575 14.4129C11.767 13.7623 13.7845 13.3333 16.0667 13.3333Z" stroke="#0052D9" stroke-width="2"/>
<circle cx="16.0333" cy="16.3333" r="8.33333" stroke="#0052D9" stroke-width="2"/>
<path fill-rule="evenodd" clip-rule="evenodd" d="M11.5 3.5C11.5 4.88071 10.3807 6 9 6C8.90551 6 8.81225 5.99476 8.72049 5.98455L2.73747 16.3474L9.44855 27.9714H18.9141V29.9714H8.8712H8.29385L8.00517 29.4714L0.716741 16.8474L0.428066 16.3474L0.716741 15.8474L6.98838 4.98465C6.68146 4.56948 6.5 4.05593 6.5 3.5C6.5 2.11929 7.61929 1 9 1C10.3807 1 11.5 2.11929 11.5 3.5ZM22.8707 4.72351L13.4937 4.72351V2.72351L23.4481 2.72351L24.0254 2.72351L24.3141 3.22351L31.6025 15.8474L31.8912 16.3474L31.6025 16.8474L25.6305 27.1913C25.8648 27.572 26 28.0202 26 28.5C26 29.8807 24.8807 31 23.5 31C22.1193 31 21 29.8807 21 28.5C21 27.1193 22.1193 26 23.5 26C23.6649 26 23.8261 26.016 23.9821 26.0464L29.5818 16.3474L22.8707 4.72351Z" fill="#0052D9"/>
</svg>
