<?xml version="1.0" encoding="UTF-8"?>
<svg width="32px" height="32px" viewBox="0 0 32 32" version="1.1" xmlns="http://www.w3.org/2000/svg" xmlns:xlink="http://www.w3.org/1999/xlink">
    <title>Private DNS-32px</title>
    <g id="Private-DNS-32px" stroke="none" stroke-width="1" fill="none" fill-rule="evenodd">
        <g id="编组">
            <rect id="Rectangle-Copy" fill="#0052D9" opacity="0" x="0" y="0" width="32" height="32"></rect>
            <path d="M31,4 L31,22.021 L29,22.021 L29,11 L3,11 L3,26 L29,26 L29,25.992 L31,25.992 L31,28 L1,28 L1,4 L31,4 Z M16,13 C18.209139,13 20,14.790861 20,17 L21,17 L21,24 L11,24 L11,17 L12,17 C12,14.790861 13.790861,13 16,13 Z M19,19 L13,19 L13,22 L19,22 L19,19 Z M16,15 C14.9456382,15 14.0818349,15.8158778 14.0054857,16.8507377 L14,17 L18,17 C18,15.9456382 17.1841222,15.0818349 16.1492623,15.0054857 L16,15 Z M29,6 L3,6 L3,9 L29,9 L29,6 Z" id="形状结合" fill="#0052D9"></path>
        </g>
    </g>
</svg>