<?xml version="1.0" encoding="utf-8"?>
<!-- Generator: Adobe Illustrator 23.0.3, SVG Export Plug-In . SVG Version: 6.00 Build 0)  -->
<svg version="1.1" id="图层_1" xmlns="http://www.w3.org/2000/svg" xmlns:xlink="http://www.w3.org/1999/xlink" x="0px" y="0px"
	 width="32px" height="32px" viewBox="0 0 32 32" style="enable-background:new 0 0 32 32;" xml:space="preserve">
<g>
	<polygon style="fill-rule:evenodd;clip-rule:evenodd;fill:#0052D9;" points="26,9 26,7 21,7 21,5 19,5 19,7 13,7 13,5 11,5 11,7 
		6,7 6,9 6,11 8,11 8,9 24,9 24,11 26,11 	"/>
	<path style="fill-rule:evenodd;clip-rule:evenodd;fill:#0052D9;" d="M21,14L21,14L21,14l0-2h0c0-1.105-0.895-2-2-2h-3v2h0v4h0v0h3
		C20.105,16,21,15.105,21,14z M18,14v-2h1v2H18z"/>
	<polygon style="fill-rule:evenodd;clip-rule:evenodd;fill:#0052D9;" points="15,12.182 12.5,12.182 12.5,11.636 15,11.636 15,10 
		11,10 11,13.818 13.5,13.818 13.5,14.364 11,14.364 11,16 15,16 	"/>
	<path style="fill-rule:evenodd;clip-rule:evenodd;fill:#0052D9;" d="M29.858,18.001c-0.431,3.014-1.826,5.715-3.858,7.79V24H6
		v1.789C3.528,23.264,2,19.812,2,16C2,8.268,8.268,2,16,2c6.702,0,12.305,4.71,13.678,11l2.041,0C30.315,5.598,23.811,0,16,0
		C7.163,0,0,7.163,0,16s7.163,16,16,16c8.159,0,14.892-6.107,15.876-13.999L29.858,18.001z M6.211,26h19.569
		c-2.524,2.469-5.97,4-9.781,4C12.188,30,8.736,28.472,6.211,26z"/>
	<path style="fill-rule:evenodd;clip-rule:evenodd;fill:#0052D9;" d="M20,23v-4c0-1.105-0.895-2-2-2h-1c-1.105,0-2,0.895-2,2v4h2v-1
		h1v1H20z M17,20v-1h1v1H17z"/>
	<path style="fill-rule:evenodd;clip-rule:evenodd;fill:#0052D9;" d="M12,23L12,23c1.105,0,2-0.895,2-2v-4h-2v2v2h-1v-4H9v4H8v-2v-2
		H6v4c0,1.105,0.895,2,2,2c0,0,0,0,0,0v0H12z M10,21L10,21L10,21L10,21z"/>
	<path style="fill-rule:evenodd;clip-rule:evenodd;fill:#0052D9;" d="M24,23h2v-4c0-1.105-0.895-2-2-2h-3v2v4h2v-4h1v2V23z"/>
</g>
</svg>
