<svg width="33" height="33" viewBox="0 0 33 33" fill="none" xmlns="http://www.w3.org/2000/svg">
<path fill-rule="evenodd" clip-rule="evenodd" d="M30.0005 6.71277H3V4.71277H32V21.7126H30.0005V6.71277Z" fill="#0052D9"/>
<path fill-rule="evenodd" clip-rule="evenodd" d="M0 5.70435C0 4.59978 0.89543 3.70435 2 3.70435C3.10457 3.70435 4 4.59978 4 5.70435C4 6.80892 3.10457 7.70435 2 7.70435C0.89543 7.70435 0 6.80892 0 5.70435Z" fill="#0052D9"/>
<path fill-rule="evenodd" clip-rule="evenodd" d="M2.99954 26.2999H30V28.2999H1V11.3H2.99954V26.2999Z" fill="#0052D9"/>
<path fill-rule="evenodd" clip-rule="evenodd" d="M33 27.3C33 28.4046 32.1046 29.3 31 29.3C29.8954 29.3 29 28.4046 29 27.3C29 26.1954 29.8954 25.3 31 25.3C32.1046 25.3 33 26.1954 33 27.3Z" fill="#0052D9"/>
<path fill-rule="evenodd" clip-rule="evenodd" d="M10.2255 16C10.5016 16 10.7255 15.7761 10.7255 15.5C10.7255 15.2238 10.5016 15 10.2255 15C9.94936 15 9.72546 15.2238 9.72546 15.5C9.72546 15.7761 9.94936 16 10.2255 16ZM10.2255 18C11.6062 18 12.7255 16.8807 12.7255 15.5C12.7255 14.1193 11.6062 13 10.2255 13C8.84475 13 7.72546 14.1193 7.72546 15.5C7.72546 16.8807 8.84475 18 10.2255 18Z" fill="#0052D9"/>
<path fill-rule="evenodd" clip-rule="evenodd" d="M23.2324 16C22.9563 16 22.7324 15.7761 22.7324 15.5C22.7324 15.2238 22.9563 15 23.2324 15C23.5086 15 23.7324 15.2238 23.7324 15.5C23.7324 15.7761 23.5086 16 23.2324 16ZM23.2324 18C21.8517 18 20.7324 16.8807 20.7324 15.5C20.7324 14.1193 21.8517 13 23.2324 13C24.6132 13 25.7324 14.1193 25.7324 15.5C25.7324 16.8807 24.6132 18 23.2324 18Z" fill="#0052D9"/>
<path fill-rule="evenodd" clip-rule="evenodd" d="M16.728 15C17.2803 15 17.728 14.5523 17.728 14C17.728 13.4477 17.2803 13 16.728 13C16.1757 13 15.728 13.4477 15.728 14C15.728 14.5523 16.1757 15 16.728 15ZM16.728 17C18.3848 17 19.728 15.6568 19.728 14C19.728 12.3431 18.3848 11 16.728 11C15.0711 11 13.728 12.3431 13.728 14C13.728 15.6568 15.0711 17 16.728 17Z" fill="#0052D9"/>
<path fill-rule="evenodd" clip-rule="evenodd" d="M11.7255 22.0013C11.7255 19.8107 13.5014 18.0348 15.692 18.0348H17.7659C19.9566 18.0348 21.7324 19.8107 21.7324 22.0013H19.7324C19.7324 20.9152 18.852 20.0348 17.7659 20.0348H15.692C14.6059 20.0348 13.7255 20.9152 13.7255 22.0013H11.7255Z" fill="#0052D9"/>
<path fill-rule="evenodd" clip-rule="evenodd" d="M9.3245 21.0096C8.44243 21.0096 8 21.593 8 22.0013H6C6 20.2097 7.63899 19.0096 9.3245 19.0096H11.649V21.0096H9.3245Z" fill="#0052D9"/>
<path fill-rule="evenodd" clip-rule="evenodd" d="M24.1334 21.0096C25.0155 21.0096 25.4579 21.593 25.4579 22.0013H27.4579C27.4579 20.2097 25.8189 19.0096 24.1334 19.0096H21.8089V21.0096H24.1334Z" fill="#0052D9"/>
</svg>
