<?xml version="1.0" encoding="UTF-8"?>
<svg width="32px" height="32px" viewBox="0 0 32 32" version="1.1" xmlns="http://www.w3.org/2000/svg" xmlns:xlink="http://www.w3.org/1999/xlink">
    <title>腾讯云无界-32px</title>
    <g id="腾讯云无界-32px" stroke="none" stroke-width="1" fill="none" fill-rule="evenodd">
        <g id="腾讯云无界-32px@1x">
            <path d="M16,22 C19.5681236,22 22.7725186,23.5573073 24.9705763,26.0293132 L23.5540698,27.4472059 C21.7205912,25.3353922 19.0162444,24 16,24 C12.9842284,24 10.2802565,25.3349736 8.44679242,27.446213 L7.02942375,26.0293132 C9.22748136,23.5573073 12.4318764,22 16,22 Z M26.3213681,7.32118074 L27.802925,8.80236412 C27.585085,9.04039024 27.3600665,9.27175014 27.1282816,9.49616327 C25.7900163,11.3181332 25,13.5668075 25,16 C25,18.4331925 25.7900163,20.6818668 27.1275367,22.5035108 C27.3596495,22.7280674 27.5848516,22.9595077 27.802925,23.1975236 L26.3216158,24.6791215 C26.0787756,24.4087847 25.8471862,24.128016 25.6275012,23.8377382 C23.1198655,21.4589403 19.7303096,20 16,20 C12.2696904,20 8.88013453,21.4589403 6.37080335,23.8373499 C6.15206861,24.1276579 5.92103683,24.4083743 5.67863186,24.6788193 L4.19707499,23.1976359 C4.41491501,22.9596098 4.63993352,22.7282499 4.87171837,22.5038367 C6.20998372,20.6818668 7,18.4331925 7,16 C7,13.5668075 6.20998372,11.3181332 4.87246332,9.49648921 C4.64067832,9.27224974 4.41578456,9.04114612 4.19805295,8.80348487 L5.67928353,7.32187979 C5.92179617,7.59190854 6.15308502,7.87234233 6.37249877,8.16226178 C8.88013453,10.5410597 12.2696904,12 16,12 C19.7303096,12 23.1198655,10.5410597 25.6291967,8.16265015 C25.8479314,7.87234211 26.0789632,7.59162566 26.3213681,7.32118074 Z M5,16 C5,18.2309313 4.18828105,20.2722756 2.84407379,21.844802 L1.42429572,20.4249333 C2.40923755,19.2189908 3,17.6784854 3,16 C3,14.3219748 2.40956148,12.781854 1.42510583,11.5760588 L2.84493631,10.1562071 C4.18862827,11.7285977 5,13.7695459 5,16 Z M29.1559262,10.155198 L30.5757043,11.5750667 C29.5907624,12.7810092 29,14.3215146 29,16 C29,17.6784854 29.5907624,19.2189908 30.5757043,20.4249333 L29.1559262,21.844802 C27.811719,20.2722756 27,18.2309313 27,16 C27,13.7690687 27.811719,11.7277244 29.1559262,10.155198 Z M23.6010963,12.0810962 L23.5616861,12.1039289 C21.3099565,13.3137063 18.7351245,14 16,14 C13.2486289,14 10.6594601,13.3055289 8.39822227,12.0823152 C8.78939999,13.31774 9,14.6342759 9,16 C9,17.3657241 8.78939999,18.68226 8.39890374,19.9189038 C10.6594601,18.6944711 13.2486289,18 16,18 C18.7513711,18 21.3405399,18.6944711 23.6017777,19.9176848 C23.2106,18.68226 23,17.3657241 23,16 C23,14.6342759 23.2106,13.31774 23.6010963,12.0810962 Z M23.5532076,4.55378702 L24.9705763,5.97068682 C22.7725186,8.44269268 19.5681236,10 16,10 C12.4323619,10 9.22835343,8.44311646 7.03032109,5.97169589 L8.44679242,4.55378702 C10.2802565,6.66502637 12.9842284,8 16,8 C19.0157716,8 21.7197435,6.66502637 23.5532076,4.55378702 Z" id="形状" fill="#0052D9" fill-rule="nonzero"></path>
            <rect id="矩形" x="0" y="0" width="32" height="32"></rect>
        </g>
    </g>
</svg>