<?xml version="1.0" encoding="UTF-8"?>
<svg width="32px" height="32px" viewBox="0 0 32 32" version="1.1" xmlns="http://www.w3.org/2000/svg" xmlns:xlink="http://www.w3.org/1999/xlink">
    <title>智能识别 32_blue</title>
    <g id="最新的文档" stroke="none" stroke-width="1" fill="none" fill-rule="evenodd">
        <g id="智能识别-32_blue" fill-rule="nonzero">
            <g id="智能识别">
                <rect id="Rectangle-Copy" fill="#0052D9" opacity="0" x="0" y="0" width="32" height="32"></rect>
                <path d="M23,7 L23,26 L9.9475983e-14,26 L9.9475983e-14,7 L23,7 Z M21,9 L2,9 L2,24 L21,24 L21,9 Z M32,10 L32,23.6699768 L24,19.9382369 L24,13.7317909 L32,10 Z M7,18 L7,19.9711914 L10,19.9711914 L10,21.9711914 L5,21.9711914 L5,18 L7,18 Z M18,18.0204468 L18,21.9711914 L13,21.9711914 L13,19.9711914 L16,19.9711914 L16,18.0204468 L18,18.0204468 Z M30,13.1423536 L26,15.0064586 L26,18.6625093 L30,20.5255743 L30,13.1423536 Z M14,15 L14,18 L9,18 L9,15 L14,15 Z M10,11 L10,13 L7,13 L7,14.9997559 L5,14.9997559 L5,11 L10,11 Z M18,11 L18,14.9657593 L16,14.9657593 L16,13 L13,13 L13,11 L18,11 Z" id="形状结合" fill="#0052D9"></path>
            </g>
        </g>
    </g>
</svg>