<?xml version="1.0" encoding="UTF-8"?>
<svg width="32px" height="32px" viewBox="0 0 32 32" version="1.1" xmlns="http://www.w3.org/2000/svg" xmlns:xlink="http://www.w3.org/1999/xlink">
    <!-- Generator: Sketch 52.2 (67145) - http://www.bohemiancoding.com/sketch -->
    <title>智能审核-32px </title>
    <desc>Created with Sketch.</desc>
    <g id="智能审核-32px-" stroke="none" stroke-width="1" fill="none" fill-rule="evenodd">
        <rect id="Rectangle-Copy" fill="#0052D9" opacity="0" x="0" y="0" width="32" height="32"></rect>
        <path d="M2,26 L3.19744231e-14,26 L3.19744231e-14,7 L2,7 L21,7 L23,7 L23,26 L21,26 L2,26 Z M2,24 L21,24 L21,9 L2,9 L2,24 Z M26,18.6625093 L30,20.5255743 L30,13.1423536 L26,15.0064586 L26,18.6625093 Z M24,19.9382369 L24,17.7309768 L24,15.9385111 L24,13.7317909 L32,10 L32,12.2103011 L32,21.4571068 L32,23.6699768 L24,19.9382369 Z" id="Combined-Shape" fill="#0052D9"></path>
        <g id="分组" transform="translate(11.656854, 16.656854) rotate(-45.000000) translate(-11.656854, -16.656854) translate(8.656854, 11.656854)">
            <circle id="椭圆形" stroke="#0052D9" stroke-width="2" cx="3" cy="3" r="3"></circle>
            <rect id="矩形" fill="#0052D9" x="2" y="5" width="2" height="5"></rect>
        </g>
    </g>
</svg>