<?xml version="1.0" encoding="utf-8"?>
<!-- Generator: Adobe Illustrator 23.0.3, SVG Export Plug-In . SVG Version: 6.00 Build 0)  -->
<svg version="1.1" id="图层_1" xmlns="http://www.w3.org/2000/svg" xmlns:xlink="http://www.w3.org/1999/xlink" x="0px" y="0px"
	 width="32px" height="32px" viewBox="0 0 32 32" style="enable-background:new 0 0 32 32;" xml:space="preserve">
<style type="text/css">
	.st0{fill:#0052D9;}
</style>
<path class="st0" d="M23,8v3v3l2.8-1.2l4.2-1.8v9.1l-4.5-1.1L23,18.5V21v3H2V8H23 M25,6H0v20h25v-5l7,1.7V8.1L25,11V6L25,6z"/>
<path id="XMLID_88_" class="st0" d="M11,14.1l2.2,1.4L11,16.9V14.1 M9.5,10.9c-0.3,0-0.5,0.2-0.5,0.5v8.2c0,0.3,0.2,0.5,0.5,0.5
	c0.1,0,0.2,0,0.3-0.1l6.5-4.1c0.3-0.2,0.3-0.7,0-0.9L9.8,11C9.7,10.9,9.6,10.9,9.5,10.9L9.5,10.9z"/>
</svg>
