<?xml version="1.0" encoding="utf-8"?>
<!-- Generator: Adobe Illustrator 22.1.0, SVG Export Plug-In . SVG Version: 6.00 Build 0)  -->
<svg version="1.1" id="图层_1" xmlns="http://www.w3.org/2000/svg" xmlns:xlink="http://www.w3.org/1999/xlink" x="0px" y="0px"
	 width="32px" height="32px" viewBox="0 0 32 32" style="enable-background:new 0 0 32 32;" xml:space="preserve">
<style type="text/css">
	.st0{fill:#0052D9;}
</style>
<polygon id="XMLID_282_" class="st0" points="28,22.8 16,29.7 4,22.8 4,9.2 16,2.3 28,9.2 28,9.1 30,8 16,0 2,8 2,24 16,32 30,24 
	30,12 28,13.1 "/>
<g id="XMLID_846_">
	<path class="st0" d="M16,25c-4.4,0-8-3.6-8-8h2c0,3.3,2.7,6,6,6s6-2.7,6-6h2C24,21.4,20.4,25,16,25z"/>
</g>
<rect id="XMLID_847_" x="13" y="12" class="st0" width="2" height="2"/>
<rect id="XMLID_69_" x="13" y="15" class="st0" width="2" height="2"/>
<path class="st0" d="M16,20c-1.7,0-3-1.3-3-3v-5c0-1.7,1.3-3,3-3h4c-0.9-1.2-2.3-2-4-2c-2.8,0-5,2.2-5,5v5c0,2.8,2.2,5,5,5
	s5-2.2,5-5h-2C19,18.7,17.7,20,16,20z"/>
<g id="XMLID_382_">
	<rect id="XMLID_683_" x="19" y="10" class="st0" width="2" height="6"/>
	<rect id="XMLID_681_" x="17" y="12" class="st0" width="6" height="2"/>
</g>
</svg>
