<svg width="32" height="32" viewBox="0 0 32 32" fill="none" xmlns="http://www.w3.org/2000/svg">
<g clip-path="url(#clip0_2732_3079)">
<path fill-rule="evenodd" clip-rule="evenodd" d="M11.166 14.4369C11.1997 11.1524 13.873 8.5 17.1657 8.5C20.4794 8.5 23.1657 11.1863 23.1657 14.5C23.1657 16.7065 21.9743 18.6352 20.2 19.6774V21.9043C23.1139 20.709 25.1657 17.8444 25.1657 14.5C25.1657 10.0817 21.584 6.5 17.1657 6.5C12.8807 6.5 9.38265 9.86876 9.17539 14.1025L6.71131 17.6866L7.53103 18.2502L6.71131 17.6866C6.22664 18.3916 6.61427 19.3628 7.45116 19.5403L9.66568 20.0101V22.6345C9.66568 24.4678 11.5735 25.6776 13.2317 24.8958L18.0921 22.6045L18.2 22.5537V20.4113V18V17.3328C19.3704 16.9238 20.21 15.81 20.21 14.5C20.21 12.8431 18.8669 11.5 17.21 11.5C15.5531 11.5 14.21 12.8431 14.21 14.5C14.21 15.8025 15.04 16.9111 16.2 17.3257V21.2854L12.3789 23.0868C12.0472 23.2431 11.6657 23.0012 11.6657 22.6345V19.2V18.3898L10.8732 18.2217L9.03811 17.8325L10.9901 14.9932L11.1629 14.7419L11.166 14.4369ZM7.53103 18.2502L7.53319 18.2517L9.17539 14.1025L7.53103 18.2502ZM18.21 14.5C18.21 15.0523 17.7623 15.5 17.21 15.5C16.6577 15.5 16.21 15.0523 16.21 14.5C16.21 13.9477 16.6577 13.5 17.21 13.5C17.7623 13.5 18.21 13.9477 18.21 14.5Z" fill="#0052D9"/>
<path d="M16 0C23.8112 0 30.3151 5.59751 31.7192 13.0002L29.6779 13.0003C28.3047 6.7098 22.7024 2 16 2C8.26801 2 2 8.26801 2 16C2 23.732 8.26801 30 16 30C23.0527 30 28.8873 24.785 29.8581 18.0008L31.8761 18.0008C30.8916 25.893 24.159 32 16 32C7.16344 32 0 24.8366 0 16C0 7.16344 7.16344 0 16 0Z" fill="#0052D9"/>
</g>
<defs>
<clipPath id="clip0_2732_3079">
<rect width="32" height="32" fill="white"/>
</clipPath>
</defs>
</svg>
