<svg width="32" height="32" viewBox="0 0 32 32" fill="none" xmlns="http://www.w3.org/2000/svg">
<path fill-rule="evenodd" clip-rule="evenodd" d="M2.66667 26.6668V9.3335H0V29.3335L27.0243 29.3349C27.4855 30.1312 28.3469 30.6668 29.3333 30.6668C30.8061 30.6668 32 29.4729 32 28.0002C32 26.5274 30.8061 25.3335 29.3333 25.3335C28.3463 25.3335 27.4846 25.8697 27.0235 26.6667L2.66667 26.6668ZM4.97653 2.66673C4.51543 1.86972 3.65367 1.3335 2.66667 1.3335C1.19391 1.3335 0 2.5274 0 4.00016C0 5.47292 1.19391 6.66683 2.66667 6.66683C3.65312 6.66683 4.51447 6.13121 4.97575 5.33493L29.3333 5.3335V22.6668H32V2.66683L4.97653 2.66673ZM14.6667 14.6667C14.6667 15.4031 15.2636 16.0001 16 16.0001C16.7364 16.0001 17.3333 15.4031 17.3333 14.6667C17.3333 13.9304 16.7364 13.3334 16 13.3334C15.2636 13.3334 14.6667 13.9304 14.6667 14.6667ZM12 14.6667C12 16.8759 13.7909 18.6667 16 18.6667C18.2091 18.6667 20 16.8759 20 14.6667C20 12.4576 18.2091 10.6667 16 10.6667C13.7909 10.6667 12 12.4576 12 14.6667ZM22.2791 22.6667C21.4879 20.7122 19.5717 19.3335 17.3334 19.3335H14.6668C12.4286 19.3335 10.5124 20.7122 9.72115 22.6667H8.00004V20.0001H5.33337V22.6667V25.3334V25.3335H8.00004V25.3334H16H16H26.6667L26.6667 22.6667V6.66675H26.6666H24H18.6666V9.33342H24V22.6667H22.2791ZM16 22.6667H19.0972C18.6272 22.2519 18.0097 22.0002 17.3334 22.0002H14.6668C13.9905 22.0002 13.3731 22.2519 12.903 22.6667H16H16ZM8.00004 14.6667H5.33337V17.3334H8.00004V14.6667ZM13.3334 6.66675H16V9.33342H13.3334V6.66675ZM8 9.3335H5.33329V12.0002H8V12.0002H10.6667V6.66687H8V9.3335Z" fill="#0052D9"/>
</svg>
