<?xml version="1.0" encoding="UTF-8"?>
<svg width="32px" height="32px" viewBox="0 0 32 32" version="1.1" xmlns="http://www.w3.org/2000/svg" xmlns:xlink="http://www.w3.org/1999/xlink">
    <title>蓝-32</title>
    <g id="蓝-32" stroke="none" stroke-width="1" fill="none" fill-rule="evenodd">
        <g id="实时音视频-32px-(2)备份" transform="translate(0.000000, 7.000000)" fill="#0052D9">
            <path d="M23,0 L23,19 L0,19 L0,0 L23,0 Z M21,2 L2,2 L2,17 L21,17 L21,2 Z M32,3 L32,5.2103011 L31.999,14.457 L32,14.4571068 L32,16.6699768 L32,16.6699768 L31.253,16.321 L24,12.9382369 L24,6.7317909 L30,3.9331904 L32,3 L32,3 Z M29.999,6.142 L25.999,8.006 L25.999,11.661 L29.999,13.525 L29.999,6.142 Z" id="Combined-Shape" fill-rule="nonzero"></path>
            <g id="声纹识别VPR-32px" transform="translate(5.000000, 4.000000)">
                <path d="M5.8,7 C8.1056856,7 10,8.7759197 10,11 L8,11 C8,9.9103718 7.0289368,9 5.8,9 L4.2,9 C2.97106322,9 2,9.9103718 2,11 L0,11 C0,8.7759197 1.89431438,7 4.2,7 L5.8,7 Z M11.6145159,0 C13.461828,1.80969736 13.461828,4.74379654 11.6145159,6.55349387 L10.4995644,5.46124493 C11.7311058,4.25478 11.7311058,2.2987139 10.4995644,1.09224897 L11.6145159,0 Z M5,0 C6.6568542,0 8,1.3431458 8,3 C8,4.6568542 6.6568542,6 5,6 C3.34314575,6 2,4.6568542 2,3 C2,1.3431458 3.34314575,0 5,0 Z M9.94208872,1.63837347 C10.8657447,2.54322217 10.8657447,4.01027173 9.94208872,4.91512043 L8.82713721,3.82287142 C9.13502256,3.52125518 9.13502256,3.03223872 8.82713721,2.73062248 L9.94208872,1.63837347 Z M5,2 C4.44771525,2 4,2.4477153 4,3 C4,3.5522847 4.44771525,4 5,4 C5.55228475,4 6,3.5522847 6,3 C6,2.4477153 5.55228475,2 5,2 Z" id="形状结合"></path>
            </g>
        </g>
    </g>
</svg>