<?xml version="1.0" encoding="UTF-8"?>
<svg width="32px" height="32px" viewBox="0 0 32 32" version="1.1" xmlns="http://www.w3.org/2000/svg" xmlns:xlink="http://www.w3.org/1999/xlink">
    <title>音视频终端引擎 蓝色-32px</title>
    <g id="音视频终端引擎-蓝色-32px" stroke="none" stroke-width="1" fill="none" fill-rule="evenodd">
        <g fill-rule="nonzero">
            <path d="M16,0 C23.811235,0 30.3151005,5.59751424 31.7192447,13.000191 L29.677892,13.0003278 C28.3046747,6.70979962 22.7023537,2 16,2 C8.2680135,2 2,8.2680135 2,16 C2,23.7319865 8.2680135,30 16,30 C23.052652,30 28.8872801,24.7850199 29.8581018,18.0008423 L31.8761139,18.0007904 C30.8915668,25.8930309 24.1589629,32 16,32 C7.163444,32 1.38555833e-13,24.836556 1.38555833e-13,16 C1.38555833e-13,7.163444 7.163444,0 16,0 Z M13.5012177,13.7379558 L13.5172986,19.4086866 L18.4196155,22.2575502 L13.4856774,25.1061892 L8.58339533,22.2572653 L8.56727962,16.5865947 L13.5012177,13.7379558 Z M11.511,17.196 L10.57,17.739 L10.58,21.104 L13.489,22.794 L14.429,22.251 L11.5205598,20.5615158 L11.511,17.196 Z M19.4584623,10.1775291 L24.3607941,13.0263669 L24.376875,18.6970977 L19.4429223,21.5456824 L14.5406403,18.6967585 L19.4745784,15.8481196 L19.4584623,10.1775291 Z M21.468,13.658 L21.4778627,17.0009181 L18.53,18.702 L19.445,19.234 L22.373,17.544 L22.363,14.179 L21.468,13.658 Z M13.4337046,6.7 L18.3362695,9.548106 L18.3523504,15.2188369 L13.4500684,12.369913 L8.51613062,15.2184718 L8.5,9.54782703 L13.4337046,6.7 Z M13.43,9.011 L10.502,10.7 L10.506,11.76 L13.4533588,10.0586227 L16.342,11.737 L16.339,10.701 L13.43,9.011 Z" id="形状结合" fill="#0052D9"></path>
            <rect id="Rectangle-Copy" fill="#0052D9" opacity="0" x="0" y="0" width="32" height="32"></rect>
        </g>
    </g>
</svg>