<svg id="图层_1" data-name="图层 1" xmlns="http://www.w3.org/2000/svg" width="32" height="32" viewBox="0 0 32 32">
  <defs>
    <style>
      .cls-1 {
        fill: #0052D9;
      }
    </style>
  </defs>
  <title> </title>
  <path class="cls-1" d="M16,2.19a24.26,24.26,0,0,1,13.16,4A28.67,28.67,0,0,1,16,29.56,28.67,28.67,0,0,1,2.84,6.23,24.26,24.26,0,0,1,16,2.19m0-2a26.58,26.58,0,0,0-15.13,5A30.89,30.89,0,0,0,16,31.89h0A30.89,30.89,0,0,0,31.13,5.17,26.58,26.58,0,0,0,16,.21Z"/>
  <polygon class="cls-1" points="21.86 22.16 9.82 22.16 9.82 5.42 11.5 5.42 11.5 20.48 20.18 20.48 20.18 7.12 12.42 7.12 12.42 5.44 21.86 5.44 21.86 22.16"/>
  <rect class="cls-1" x="10.98" y="17.54" width="8.29" height="1.68"/>
  <path class="cls-1" d="M15.84,16.86l-3.72-2.15v-4.3l3.72-2.15,3.72,2.15v4.3Zm-2.19-3,2.19,1.27L18,13.82V11.3L15.84,10,13.65,11.3Z"/>
  <polygon class="cls-1" points="18.02 14.79 15.84 13.53 13.67 14.79 12.83 13.33 15.84 11.59 18.86 13.33 18.02 14.79"/>
  <rect class="cls-1" x="14.48" y="10.36" width="2.71" height="1.68" transform="translate(4.29 26.8) rotate(-88.75)"/>
</svg>
