<svg width="32" height="32" viewBox="0 0 32 32" fill="none" xmlns="http://www.w3.org/2000/svg">
<path d="M4.07314 6.25321C2.73993 6.53498 2.01467 7.63543 2 8.83261V8.8999C2.00267 9.1256 2.02933 9.34989 2.08399 9.57559L6.55557 27.3272C6.95286 28.8903 7.49814 30.4183 11.4684 29.8954C20.7382 28.8496 26.011 25.8973 27.0389 25.2384C27.8909 24.6903 29.984 23.5436 30 21.2796V21.225C29.9947 20.7651 29.9053 20.2535 29.7 19.6969L24.6952 4.16165C24.2992 2.85232 23.7659 2 22.4501 2C22.1474 2 21.8034 2.04486 21.4128 2.13878C19.2184 2.66728 13.2416 4.30043 4.07314 6.25321Z" stroke="#0052D9" stroke-width="2"/>
<path d="M22.0341 11.5013L20.8844 9.07626C20.8844 9.07626 15.7714 8.55232 11.7822 10.251C7.74652 11.9705 7.75271 14.6438 8.19171 15.7409C8.67203 16.9463 9.72252 18.2097 15.8179 17.4451C18.6657 17.0502 18.9239 17.9701 18.9239 17.9701C18.9239 17.9701 19.5623 18.9918 15.7476 20.1403C13.2531 20.8436 9.87747 20.417 9.87747 20.417L10.6635 22.853C10.6635 22.853 15.2859 23.5115 19.3102 22.0414C19.3102 22.0414 24.9243 20.1611 23.8676 16.4333C23.0433 13.9405 19.6542 13.8825 17.0285 14.1352C17.0285 14.1352 13.1632 14.6898 13.1333 13.3608C13.0982 11.7922 17.5966 11.2234 22.0341 11.5013Z" stroke="#0052D9" stroke-width="2"/>
</svg>
