<svg width="32" height="32" viewBox="0 0 32 32" fill="none" xmlns="http://www.w3.org/2000/svg">
<path fill-rule="evenodd" clip-rule="evenodd" d="M16 26.7415L4 20.2877V23.2753L16 29.7291L28 23.2753V20.2877L16 26.7415ZM30 16.9412V24.4706L16 32L2 24.4706V16.9412L16 24.4706L30 16.9412Z" fill="#0052D9"/>
<path fill-rule="evenodd" clip-rule="evenodd" d="M16 17.3297L4 10.8759V13.8636L16 20.3174L28 13.8636V10.8759L16 17.3297ZM30 7.52942V15.0588L16 22.5882L2 15.0588V7.52942L16 15.0588L30 7.52942Z" fill="#0052D9"/>
<path fill-rule="evenodd" clip-rule="evenodd" d="M16.0001 5.25852L21.4845 8.20814L24.2621 6.71433L16.0001 2.2709L7.73808 6.71433L10.5156 8.20814L16.0001 5.25852ZM10.5156 10.479L3.51562 6.71433L16.0001 0L28.4845 6.71433L21.4845 10.479L16.0001 7.52942L10.5156 10.479Z" fill="#0052D9"/>
</svg>
