<?xml version="1.0" encoding="UTF-8"?>
<svg width="32px" height="32px" viewBox="0 0 32 32" version="1.1" xmlns="http://www.w3.org/2000/svg" xmlns:xlink="http://www.w3.org/1999/xlink">
    <title>TDSQLC-32px</title>
    <g id="TDSQLC-32px" stroke="none" stroke-width="1" fill="none" fill-rule="evenodd">
        <rect id="Rectangle-Copy" opacity="0" x="0" y="0" width="32" height="32"></rect>
        <path d="M22.4969853,16 C25.1841189,16 27.37586,18.1210271 27.4893539,20.7802265 L27.4939706,20.9969853 L27.4939706,26.7469853 C27.4939706,27.3957549 27.9870316,27.929364 28.6188718,27.9935308 L28.7469853,28 L29,28 C29.5128358,28 29.9355072,27.6139598 29.9932723,27.1166211 L30,27 L30,26.8118042 C30,26.3979454 29.6903087,26.0564188 29.2900268,26.0063251 L29.1881958,26 L29.1881958,24 C30.6835969,24 31.9063457,25.1673636 31.9948684,26.640517 L32,26.8118042 L32,27 C32,28.5976809 30.75108,29.9036609 29.1762728,29.9949073 L29,30 L28.7469853,30 C27.0123463,30 25.5948182,28.642287 25.4991202,26.9315803 L25.4939706,26.7469853 L25.4939706,20.9969853 C25.4939706,19.341796 24.1521746,18 22.4969853,18 C20.9009099,18 19.5962423,19.2476649 19.5050876,20.8208897 L19.5,21.01381 C19.5,22.6188455 20.7546691,23.9308373 22.3367257,24.0225038 L22.51381,24.0276199 L23.5,24.0276199 L23.5,26.0276199 L22.51381,26.0276199 C20.8892928,26.0276199 19.4452268,25.2550167 18.5290094,24.0572077 C17.6522858,24.2668515 17,25.057251 17,26 C17,27.0543618 17.8158778,27.9181651 18.8507377,27.9945143 L19,28 L23.5,28 L23.5,30 L19,30 C16.790861,30 15,28.209139 15,26 C15,24.2646211 16.1051072,22.7873538 17.6499682,22.2335516 C17.5688558,21.9116659 17.5193435,21.5759882 17.5046323,21.2312986 L17.5,20.9969853 C17.5,18.2372265 19.7372265,16 22.4969853,16 Z M15,2 C21.4842105,2 26.810157,4.12348415 26.9950365,6.85319424 L27,7 L27,15.1 C26.5,14.85 25.9305556,14.6 25.349537,14.4078704 L25,14.3 L25,9.8 C22.9,11.1 19.2,12 15,12 C10.95,12 7.36492347,11.1631378 5.23107234,9.93773233 L5,9.8 L5,16 C5,16.782 5.9522,17.47936 7.515924,18.0044776 L7.9375,18.1375 L7.9375,18.1375 L8.385476,18.2623624 C8.99978,18.423252 9.6809,18.56146 10.4145,18.6733 L10.974316,18.7521784 L10.974316,18.7521784 L11.552468,18.8208232 C11.65028,18.831392 11.7488,18.84152 11.848,18.8512 L12.451136,18.9038464 C12.654752,18.9195648 12.860864,18.9334336 13.069248,18.9453952 L13.700992,18.9755008 C13.807344,18.9795456 13.914208,18.9830992 14.021556,18.9861544 L14.671228,18.9984472 L14.671228,18.9984472 L15.6,19 L15.5430556,19.1925926 L15.5430556,19.1925926 L15.4125,19.55 C15.35,19.725 15.3,19.9 15.3,20.1 C14.9,20.4 14.5,20.7 14.2,21 C10.45,20.9038462 7.25473373,20.160503 5.23649863,18.9477697 L5,18.8 L5,25 L5.00577969,25.1044297 C5.10436213,25.9926338 6.45685285,26.7522584 8.50900609,27.2513401 L9.01467262,27.3660497 C9.53320512,27.4756217 10.0894842,27.5695784 10.675848,27.6460955 L11.2719563,27.7167318 C11.5747407,27.7490758 11.8844079,27.7769079 12.2,27.8 C12.5,28.6 12.8,29.3 13.2,29.9 C11.9730769,29.8365385 10.8088018,29.6925296 9.73557266,29.4812258 L9.159375,29.359375 C5.56947115,28.5463942 3.1277182,26.9590791 3.00486032,25.143777 L3,25 L3,7 C3,4.2 8.4,2 15,2 Z M22.5,20 C23.0522847,20 23.5,20.4477153 23.5,21 C23.5,21.5522847 23.0522847,22 22.5,22 C21.9477153,22 21.5,21.5522847 21.5,21 C21.5,20.4477153 21.9477153,20 22.5,20 Z M15.328772,4.0015528 L14.671228,4.0015528 L14.671228,4.0015528 L14.021556,4.0138456 C13.914208,4.0169008 13.807344,4.0204544 13.700992,4.0244992 L13.069248,4.0546048 C12.965056,4.0605856 12.861432,4.0670432 12.758404,4.0739704 L12.147612,4.1211112 C12.04708,4.129888 11.9472,4.13912 11.848,4.1488 L11.261184,4.2121984 C11.164816,4.2236416 11.069184,4.2355184 10.974316,4.2478216 L10.4145,4.3267 C9.6809,4.43854 8.99978,4.576748 8.385476,4.7376376 L7.9375,4.8625 L7.9375,4.8625 L7.515924,4.9955224 C5.9522,5.52064 5,6.218 5,7 C5,7.782 5.9522,8.47936 7.515924,9.0044776 L7.9375,9.1375 L7.9375,9.1375 L8.385476,9.2623624 C8.99978,9.423252 9.6809,9.56146 10.4145,9.6733 L10.974316,9.7521784 L10.974316,9.7521784 L11.552468,9.8208232 C11.65028,9.831392 11.7488,9.84152 11.848,9.8512 L12.451136,9.9038464 C12.654752,9.9195648 12.860864,9.9334336 13.069248,9.9453952 L13.700992,9.9755008 C13.807344,9.9795456 13.914208,9.9830992 14.021556,9.9861544 L14.671228,9.9984472 C14.7804,9.99948 14.89,10 15,10 L15.328772,9.9984472 L15.328772,9.9984472 L15.978444,9.9861544 C16.085792,9.9830992 16.192656,9.9795456 16.299008,9.9755008 L16.930752,9.9453952 C17.034944,9.9394144 17.138568,9.9329568 17.241596,9.9260296 L17.852388,9.8788888 C17.95292,9.870112 18.0528,9.86088 18.152,9.8512 L18.738816,9.7878016 C18.835184,9.7763584 18.930816,9.7644816 19.025684,9.7521784 L19.5855,9.6733 C20.3191,9.56146 21.00022,9.423252 21.614524,9.2623624 L22.0625,9.1375 L22.0625,9.1375 L22.484076,9.0044776 C24.0478,8.47936 25,7.782 25,7 C25,6.218 24.0478,5.52064 22.484076,4.9955224 L22.0625,4.8625 L22.0625,4.8625 L21.614524,4.7376376 C21.00022,4.576748 20.3191,4.43854 19.5855,4.3267 L19.025684,4.2478216 L19.025684,4.2478216 L18.447532,4.1791768 C18.34972,4.168608 18.2512,4.15848 18.152,4.1488 L17.548864,4.0961536 C17.345248,4.0804352 17.139136,4.0665664 16.930752,4.0546048 L16.299008,4.0244992 C16.192656,4.0204544 16.085792,4.0169008 15.978444,4.0138456 L15.328772,4.0015528 L15.328772,4.0015528 Z" id="形状" fill="#0052D9" fill-rule="nonzero"></path>
    </g>
</svg>