<?xml version="1.0" encoding="UTF-8"?>
<svg width="32px" height="32px" viewBox="0 0 32 32" version="1.1" xmlns="http://www.w3.org/2000/svg" xmlns:xlink="http://www.w3.org/1999/xlink">
    <title>独享集群 -32px</title>
    <g id="独享集群--32px" stroke="none" stroke-width="1" fill="none" fill-rule="evenodd">
        <path d="M23.5,15 L30.8612159,19.25 L30.8612159,27.75 L23.5,32 L16.1387841,27.75 L16.1387841,19.25 L23.5,15 Z M14,2 C20.4842105,2 25.810157,4.12348415 25.9950365,6.85319424 L26,7 L26,13.7481197 L24,13.7481197 L24,9.8 C21.9,11.1 18.2,12 14,12 C9.95,12 6.36492347,11.1631378 4.23107234,9.93773233 L4,9.8 L4,16 C4,17.4659091 7.43822314,18.6452996 11.9812793,18.9781579 L12.3,19 L12.3,21 C9.04782609,20.8086957 6.16162571,20.068431 4.25400674,18.9542369 L4,18.8 L4,25 L4.00554916,25.1018008 C4.16051489,26.5203066 7.54387561,27.6530405 11.9812793,27.9781579 L12.3,28 L12.3,29.9 C6.61153846,29.6057692 2.17355769,27.5801036 2.00496985,25.143777 L2,25 L2,7 C2,4.2 7.4,2 14,2 Z M23.5,17.309 L18.138,20.405 L18.138,26.594 L23.5,29.69 L28.861,26.594 L28.861,20.405 L23.5,17.309 Z M20.4684269,22.864 L23.4994583,24.6449037 L26.5304269,22.871 L26.5310889,25.25 L23.5,27 L20.4689111,25.25 L20.4684269,22.864 Z M23.5,20 L26.4984269,21.731 L24.5094269,22.893 L23.5,22.309 L22.4904269,22.892 L20.5084269,21.727 L23.5,20 Z M14,4 C8.5,4 4,5.3 4,7 C4,8.7 8.5,10 14,10 C19.5,10 24,8.7 24,7 C24,5.3 19.5,4 14,4 Z" id="形状结合" fill="#0052D9" fill-rule="nonzero"></path>
    </g>
</svg>