<?xml version="1.0" encoding="UTF-8"?>
<svg width="32px" height="32px" viewBox="0 0 32 32" version="1.1" xmlns="http://www.w3.org/2000/svg" xmlns:xlink="http://www.w3.org/1999/xlink">
    <title>keewi-32px</title>
    <g id="keewi-32px" stroke="none" stroke-width="1" fill="none" fill-rule="evenodd">
        <rect id="Rectangle-Copy" fill="#0052D9" opacity="0" x="0" y="0" width="32" height="32"></rect>
        <path d="M14,2 C20.4842105,2 25.810157,4.12348415 25.9950365,6.85319424 L26,7 L26,12.5 C25.5,12.3333333 24.9305556,12.2361111 24.349537,12.150463 L24,12.1 L24,9.8 C21.9,11.1 18.2,12 14,12 C9.95,12 6.36492347,11.1631378 4.23107234,9.93773233 L4,9.8 L4,16 L4.00536081,16.0975333 C4.11943988,17.1346665 6.04510767,18.0655451 8.90707857,18.5871856 L9.45445673,18.6801235 L9.45445673,18.6801235 L10.0224973,18.763026 L10.0224973,18.763026 L10.6099182,18.8354494 C10.7093655,18.846622 10.8095669,18.8573395 10.9104956,18.8675927 L11.5245829,18.9234651 C11.6283143,18.9318238 11.7327197,18.9396996 11.8377723,18.9470833 L12.4756411,18.9854062 C12.5831758,18.9907845 12.6913043,18.9956522 12.8,19 C12.5,19.7 12.3,20.3 12.2,21 C8.94166667,20.8083333 6.05069444,20.065625 4.23119213,18.9479022 L4,18.8 L4,25 L4.00553827,25.1017116 C4.11600512,26.1145796 5.87003843,26.9974187 8.46145844,27.5161766 L8.99066873,27.6150044 L8.99066873,27.6150044 L9.54077613,27.7037073 C9.6341225,27.7176242 9.72827986,27.731102 9.82321836,27.7441318 L10.4019841,27.8168672 C10.5978714,27.8392745 10.7966443,27.859821 10.998064,27.8784373 L11.6100248,27.9284263 L11.6100248,27.9284263 L12.2364332,27.9664178 C12.3419589,27.9717269 12.4480269,27.9765187 12.5546074,27.9807846 L13.2,28 L13.2,28 C13.5333333,28.5833333 13.8666667,29.1666667 14.2578704,29.6921296 L14.5,30 L14,30 C7.51578947,30 2.18984303,27.8765159 2.00496347,25.1468058 L2,25 L2,7 C2,4.2 7.4,2 14,2 Z M24,18 C25.1045695,18 26,18.8954305 26,20 C26,21.1045695 25.1045695,22 24,22 C23.2601625,22 22.6141507,21.5982846 22.2681881,21.0010775 L16.7184742,20.9999802 C16.2542901,21.7213838 16,22.5665254 16,23.4545455 C16,25.9649307 18.0350693,28 20.5454545,28 C21.5969276,28 22.5886163,27.6443643 23.3901184,27.0001243 L26.268,27 L26.0965754,27.1753204 L25.5553833,27.7140889 L25.1082293,28.1450938 L24.8530868,28.3795655 L24.7082165,28.505399 C24.6859682,28.5240941 24.6647113,28.5416016 24.6445104,28.557848 C23.5226592,29.4600843 22.0971089,30 20.5454545,30 C19.7580763,30 19.0031697,29.8609718 18.3039442,29.6061246 C18.2787675,29.6025468 18.246788,29.5929956 18.2089087,29.5782322 L18.0748298,29.5228036 L18.0748298,29.5228036 L17.9524057,29.4664338 C17.6616662,29.3408205 17.3799863,29.1937484 17.1112139,29.0277775 C16.9429438,28.9618051 16.7486581,28.9164306 16.4896785,28.9031383 L16.326218,28.8991047 L14.9944972,28.8991047 L14.9944972,27.5763605 C14.9944972,27.2315941 14.9658737,26.9875294 14.9189583,26.7978801 L14.8569452,26.6946957 C14.311608,25.7393447 14,24.633335 14,23.4545455 C14,21.733557 14.6641893,20.1676983 15.7502175,18.9993197 L22.2676063,18.9999275 C22.6134261,18.4021661 23.2597476,18 24,18 Z M23.4545455,14 C24.2442016,14 25.0011978,14.1398338 25.7021229,14.39609 C25.7281918,14.3991163 25.7614605,14.4088714 25.8012338,14.424373 L25.9507475,14.4866006 L25.9507475,14.4866006 L26.0858866,14.5499238 C26.3620511,14.6717036 26.629751,14.8124579 26.8857552,14.9703521 C27.056551,15.0382795 27.2532215,15.0854587 27.5171589,15.0992982 L27.6839245,15.1035005 L29.0156453,15.1035005 L29.0156453,16.4262447 C29.0156453,16.787611 29.0470915,17.0383449 29.0980869,17.2317456 C29.2582102,17.4997803 29.3983193,17.7821639 29.5178097,18.0751487 L29.5564098,18.159157 C29.5815105,18.2156699 29.5967722,18.2611364 29.6030115,18.2963708 C29.8598972,18.9973464 30,19.7550391 30,20.5454545 C30,22.2669319 29.3354332,23.8331915 28.2488567,25.0016761 L21.7318119,25.0010775 C21.3858493,25.5982846 20.7398375,26 20,26 C18.8954305,26 18,25.1045695 18,24 C18,22.8954305 18.8954305,22 20,22 C20.7402524,22 21.3865739,22.4021661 21.7323937,22.9999275 L27.2805713,23.0016402 C27.744588,22.2808962 28,21.43479 28,20.5454545 C28,18.0350693 25.9649307,16 23.4545455,16 C22.4014271,16 21.4085133,16.3574171 20.6098604,16.9998027 L17.727,17 L18.452387,16.2787597 L19.0015801,15.74812 L19.0015801,15.74812 C20.1697493,14.6633196 21.7346841,14 23.4545455,14 Z M14.328772,4.0015528 L13.671228,4.0015528 L13.671228,4.0015528 L13.021556,4.0138456 C12.914208,4.0169008 12.807344,4.0204544 12.700992,4.0244992 L12.069248,4.0546048 C11.965056,4.0605856 11.861432,4.0670432 11.758404,4.0739704 L11.147612,4.1211112 C11.04708,4.129888 10.9472,4.13912 10.848,4.1488 L10.261184,4.2121984 C10.164816,4.2236416 10.069184,4.2355184 9.974316,4.2478216 L9.4145,4.3267 C8.6809,4.43854 7.99978,4.576748 7.385476,4.7376376 L6.9375,4.8625 L6.9375,4.8625 L6.515924,4.9955224 C4.9522,5.52064 4,6.218 4,7 C4,7.782 4.9522,8.47936 6.515924,9.0044776 L6.9375,9.1375 L6.9375,9.1375 L7.385476,9.2623624 C7.99978,9.423252 8.6809,9.56146 9.4145,9.6733 L9.974316,9.7521784 L9.974316,9.7521784 L10.552468,9.8208232 C10.65028,9.831392 10.7488,9.84152 10.848,9.8512 L11.451136,9.9038464 C11.654752,9.9195648 11.860864,9.9334336 12.069248,9.9453952 L12.700992,9.9755008 C12.807344,9.9795456 12.914208,9.9830992 13.021556,9.9861544 L13.671228,9.9984472 C13.7804,9.99948 13.89,10 14,10 L14.328772,9.9984472 L14.328772,9.9984472 L14.978444,9.9861544 C15.085792,9.9830992 15.192656,9.9795456 15.299008,9.9755008 L15.930752,9.9453952 C16.034944,9.9394144 16.138568,9.9329568 16.241596,9.9260296 L16.852388,9.8788888 C16.95292,9.870112 17.0528,9.86088 17.152,9.8512 L17.738816,9.7878016 C17.835184,9.7763584 17.930816,9.7644816 18.025684,9.7521784 L18.5855,9.6733 C19.3191,9.56146 20.00022,9.423252 20.614524,9.2623624 L21.0625,9.1375 L21.0625,9.1375 L21.484076,9.0044776 C23.0478,8.47936 24,7.782 24,7 C24,6.218 23.0478,5.52064 21.484076,4.9955224 L21.0625,4.8625 L21.0625,4.8625 L20.614524,4.7376376 C20.00022,4.576748 19.3191,4.43854 18.5855,4.3267 L18.025684,4.2478216 L18.025684,4.2478216 L17.447532,4.1791768 C17.34972,4.168608 17.2512,4.15848 17.152,4.1488 L16.548864,4.0961536 C16.345248,4.0804352 16.139136,4.0665664 15.930752,4.0546048 L15.299008,4.0244992 C15.192656,4.0204544 15.085792,4.0169008 14.978444,4.0138456 L14.328772,4.0015528 L14.328772,4.0015528 Z" id="形状" fill="#0052D9"></path>
    </g>
</svg>