<?xml version="1.0" encoding="UTF-8"?>
<svg width="32px" height="32px" viewBox="0 0 32 32" version="1.1" xmlns="http://www.w3.org/2000/svg" xmlns:xlink="http://www.w3.org/1999/xlink">
    <title>向量数据库-蓝色-32px</title>
    <g id="向量数据库-蓝色-32px" stroke="none" stroke-width="1" fill="none" fill-rule="evenodd">
        <rect id="矩形" x="0" y="0" width="32" height="32"></rect>
        <path d="M21.7321161,18.0005522 L21.7063913,18.0434843 L21.6053791,18.1929039 L21.6053791,18.1929039 L21.524176,18.2949723 L21.524176,18.2949723 L21.465277,18.361243 L21.465277,18.361243 L21.3801197,18.4475095 L21.2781838,18.5383276 L21.2781838,18.5383276 L21.1406664,18.6430431 L21.1406664,18.6430431 L21.0000725,18.7323937 L21.0000725,18.7323937 L20.999,22.586 L25.0677426,18.5180407 C25.0359397,18.399118 25.0148234,18.2758279 25.0054857,18.1492623 L25,18 L25.0054857,17.8507377 L25.0133708,17.7674874 L25.0133708,17.7674874 L25.0338028,17.6318936 L25.0338028,17.6318936 L25.0713457,17.4686708 L25.0713457,17.4686708 L25.114966,17.3300544 L25.114966,17.3300544 L25.1968595,17.1336666 L25.1968595,17.1336666 L25.2416806,17.046145 L25.2416806,17.046145 C25.290658,16.9560616 25.3463285,16.870193 25.4080335,16.7891869 L25.5255765,16.648659 L25.5255765,16.648659 L25.6460972,16.5279298 L25.6460972,16.5279298 L25.7708911,16.4221366 L25.7708911,16.4221366 L25.8592919,16.3569853 L25.8592919,16.3569853 L25.9999275,16.2676063 L25.9999275,16.2676063 C26.2933392,16.0976323 26.635268,16 27,16 C28.1045695,16 29,16.8954305 29,18 C29,19.1045695 28.1045695,20 27,20 C26.8208416,20 26.6471852,19.976443 26.4819593,19.9322574 L22.413,24 L26.2676063,23.9999275 C26.5899708,23.4427094 27.1734563,23.0554537 27.8507377,23.0054857 L28,23 C29.1045695,23 30,23.8954305 30,25 C30,26.1045695 29.1045695,27 28,27 C27.2601625,27 26.6141507,26.5982846 26.2681881,26.0010775 L21,26 L21.0000725,27.2676063 C21.0660668,27.3057857 21.129677,27.3476277 21.1906253,27.3928545 L21.291294,27.4726734 L21.291294,27.4726734 L21.4132634,27.5848368 L21.4132634,27.5848368 L21.543906,27.7285523 L21.543906,27.7285523 L21.6591669,27.8828704 L21.6591669,27.8828704 L21.7210632,27.9805966 L21.7210632,27.9805966 L21.7721193,28.07198 L21.7721193,28.07198 L21.8311265,28.1944012 L21.8311265,28.1944012 L21.8710619,28.2919803 L21.8710619,28.2919803 L21.9210691,28.4418157 L21.9210691,28.4418157 L21.9608261,28.6041278 L21.9608261,28.6041278 L21.9845352,28.7500697 L21.9845352,28.7500697 L21.9945143,28.8507377 L21.9945143,28.8507377 L22,29 C22,30.1045695 21.1045695,31 20,31 C19.1917473,31 18.4954754,30.5205536 18.1800718,29.8305484 L18.1262849,29.698713 C18.1008002,29.6310888 18.0789513,29.5617169 18.0609421,29.4908292 L18.028244,29.33635 L18.028244,29.33635 L18.0074231,29.1733981 L18.0074231,29.1733981 C18.0025083,29.1163362 18,29.058461 18,29 L18.0077843,28.8223237 L18.0393234,28.6033839 L18.0393234,28.6033839 L18.0735474,28.4607224 L18.0735474,28.4607224 L18.1286861,28.2926438 L18.1286861,28.2926438 L18.1937305,28.1402009 L18.1937305,28.1402009 L18.2669537,28.0010588 L18.2669537,28.0010588 L18.3089542,27.9316364 L18.3089542,27.9316364 L18.4016284,27.7976398 L18.4016284,27.7976398 L18.5047956,27.6716741 L18.5047956,27.6716741 L18.558,27.613 C18.6889258,27.47826 18.8367131,27.3621562 18.9989225,27.2681881 L18.999,26 L17.7318119,26.0010775 C17.3858493,26.5982846 16.7398375,27 16,27 C14.8954305,27 14,26.1045695 14,25 C14,23.8954305 14.8954305,23 16,23 C16.7402524,23 17.3865739,23.4021661 17.7323937,23.9999275 L18.999,24 L18.9989225,18.7318119 C18.946009,18.701159 18.8946302,18.6681508 18.8449295,18.6329305 C18.3717513,18.297614 18.050677,17.7617982 18.0054857,17.1492623 L18,17 C18,15.8954305 18.8954305,15 20,15 C21.1045695,15 22,15.8954305 22,17 C22,17.2584557 21.950975,17.5054609 21.8617169,17.7322237 L21.7787984,17.9151789 L21.7321161,18.0005522 L21.7321161,18.0005522 Z M14,2 C20.4842105,2 25.810157,4.12348415 25.9950365,6.85319424 L26,7 L25.9997073,14.1260928 C25.2138759,14.3284156 24.5215179,14.7635415 24.0005413,15.3535625 L24,9.8 L23.7689277,9.93773233 C21.7141081,11.1177524 18.3135705,11.9374772 14.4480366,11.9965789 L14,12 C9.95,12 6.36492347,11.1631378 4.23107234,9.93773233 L4,9.8 L4,16 C4,16.782 4.9522,17.47936 6.515924,18.0044776 L6.9375,18.1375 L7.385476,18.2623624 C7.99978,18.423252 8.6809,18.56146 9.4145,18.6733 L9.974316,18.7521784 L10.848,18.8512 L11.758404,18.9260296 L12.069248,18.9453952 L12.700992,18.9755008 C12.807344,18.9795456 12.914208,18.9830992 13.021556,18.9861544 L13.671228,18.9984472 L14.328772,18.9984472 L14.978444,18.9861544 L15.299008,18.9755008 L15.930752,18.9453952 L16.241596,18.9260296 L16.4894747,18.9063174 C16.6197782,19.1488153 16.7737771,19.3756346 16.9489894,19.5839836 L16.998,19.639 L16.9993454,20.8639845 C16.292282,20.9347511 15.5574574,20.980578 14.8,21 L14.7891187,20.989367 L14.4480366,20.9965789 L14,21 C13.7352144,21 13.4724162,20.9964229 13.2118808,20.989394 L13.2,21 C9.45,20.9038462 6.25473373,20.160503 4.23649863,18.9477697 L4,18.8 L4,25 C4,25.07514 4.00879138,25.1494985 4.02607191,25.2229979 C4.22674134,26.0600607 5.54863493,26.7745797 7.50900609,27.2513401 L8.01467262,27.3660497 C8.53320512,27.4756217 9.08948421,27.5695784 9.67584801,27.6460955 L10.2719563,27.7167318 C10.5747407,27.7490758 10.8844079,27.7769079 11.2,27.8 L11.232,27.883 L11.758404,27.9260296 L12.069248,27.9453952 L12.8609005,27.9811987 L13.3461616,27.9929077 C14.0058626,28.578301 14.8604687,28.9489067 15.8003597,28.9951047 L16,29 C16,29.317626 16.037021,29.6266054 16.1069834,29.9228584 C15.5665311,29.9631225 15.0122368,29.9879526 14.4480366,29.9965789 L14,30 C9.95,30 6.36492347,29.1631378 4.23107234,27.9377323 L4,27.8 L3.99971807,27.7690131 C2.79434459,27.0138028 2.07033205,26.1111628 2.00486032,25.143777 L2,25 L2,7 C2,4.2 7.4,2 14,2 Z M14.328772,4.0015528 L13.671228,4.0015528 L13.021556,4.0138456 L12.700992,4.0244992 L12.069248,4.0546048 L11.758404,4.0739704 L10.848,4.1488 L10.404,4.196 L9.974316,4.2478216 L9.4145,4.3267 C8.6809,4.43854 7.99978,4.576748 7.385476,4.7376376 L6.9375,4.8625 L6.515924,4.9955224 C4.9522,5.52064 4,6.218 4,7 C4,7.782 4.9522,8.47936 6.515924,9.0044776 L6.9375,9.1375 L7.385476,9.2623624 C7.99978,9.423252 8.6809,9.56146 9.4145,9.6733 L9.974316,9.7521784 L10.848,9.8512 L11.758404,9.9260296 L12.069248,9.9453952 L12.8609005,9.9811987 L13.021556,9.9861544 L13.671228,9.9984472 L14,10 L14.328772,9.9984472 L14.978444,9.9861544 L15.299008,9.9755008 L15.930752,9.9453952 L16.241596,9.9260296 L17.152,9.8512 L18.025684,9.7521784 L18.5855,9.6733 C19.17238,9.583828 19.7256728,9.47748048 20.2380384,9.35614488 L20.614524,9.2623624 L21.0625,9.1375 L21.484076,9.0044776 C23.0478,8.47936 24,7.782 24,7 C24,6.2571 23.1406395,5.5905876 21.7140056,5.07557091 L21.484076,4.9955224 L21.0625,4.8625 L20.614524,4.7376376 C20.1230808,4.60892592 19.5888754,4.49473046 19.0192477,4.39693867 L18.5855,4.3267 L18.025684,4.2478216 L17.595,4.196 L17.141012,4.14772989 L16.241596,4.0739704 L15.930752,4.0546048 L15.299008,4.0244992 C15.192656,4.0204544 15.085792,4.0169008 14.978444,4.0138456 L14.328772,4.0015528 Z" id="形状" fill="#0052D9" fill-rule="nonzero"></path>
    </g>
</svg>