<?xml version="1.0" encoding="UTF-8"?>
<svg width="32px" height="32px" viewBox="0 0 32 32" version="1.1" xmlns="http://www.w3.org/2000/svg" xmlns:xlink="http://www.w3.org/1999/xlink">
    <title>分布式云数据库-蓝色-32px</title>
    <g id="分布式云数据库-蓝色-32px" stroke="none" stroke-width="1" fill="none" fill-rule="evenodd">
        <rect id="Rectangle-Copy" fill="#0052D9" fill-rule="nonzero" opacity="0" x="0" y="0" width="32" height="32"></rect>
        <path d="M22,17 C24.4188915,17 26.4366008,18.7176654 26.8999437,20.999812 L24.8293257,21.0000889 C24.4175144,19.8348501 23.3062521,19 22,19 C21.5594298,19 21.1410409,19.0949696 20.7641884,19.265554 L20.6929603,19.2989563 L20.525778,19.3866241 L20.3580728,19.4888145 L20.2070564,19.5945074 L20.1301309,19.653882 L19.9928021,19.7703566 L19.9065043,19.8512142 L19.7815798,19.980408 L19.6958378,20.0787202 C19.3002011,20.5526678 19.0480544,21.1505572 19.0061539,21.8056321 L19,22 L19.0009555,23.9991007 L18,24 C17.8730961,24 17.7489528,24.0118194 17.6286108,24.0344174 L17.451079,24.0762684 C17.3534556,24.095871 17.2619956,24.1293877 17.1739272,24.1690946 L17.1824638,24.1775191 L17.1824638,24.1775191 C16.4849357,24.4875299 16,25.1871336 16,26 C16,27.0543618 16.8158778,27.9181651 17.8507377,27.9945143 L18,28 L19.196,28 L18.209,26.9995841 L21,26.9995841 L24,29.9995841 L18,30 L17.8003597,29.9951047 C15.7522392,29.8944345 14.1090931,28.253315 14.0052149,26.2060394 L14,25.996 L13.9951047,25.9932769 L14,25.7936366 C14.0873858,24.0157835 15.3354935,22.5430769 17.0024212,22.1174187 L16.9999555,22.0000445 L16.9999555,22.0000445 C16.9999555,21.7429493 17.0193596,21.4903863 17.0567832,21.2437399 L17.1000563,20.999812 L17.1270739,20.8749852 L17.1270739,20.8749852 L17.1718602,20.695468 L17.1718602,20.695468 L17.2675011,20.382253 L17.2675011,20.382253 L17.3556137,20.1444726 L17.3556137,20.1444726 L17.4258143,19.9777776 L17.4258143,19.9777776 L17.5464817,19.7247487 L17.5464817,19.7247487 L17.6968052,19.4523574 L17.6968052,19.4523574 L17.8323927,19.2365836 L17.8323927,19.2365836 L17.9553629,19.0598549 L17.9553629,19.0598549 L18.1031358,18.8669178 L18.1031358,18.8669178 L18.2419322,18.7018827 L18.2419322,18.7018827 L18.4293985,18.4998818 L18.4293985,18.4998818 L18.614661,18.3203638 L18.614661,18.3203638 L18.7667956,18.1858986 L18.7667956,18.1858986 L18.9718265,18.0209528 L18.9718265,18.0209528 L19.1898662,17.8638131 L19.1898662,17.8638131 L19.4238785,17.713866 L19.4238785,17.713866 L19.6858198,17.5666295 L19.6858198,17.5666295 L19.9684829,17.4299664 L19.9684829,17.4299664 L20.3048752,17.2946656 L20.3048752,17.2946656 L20.5786065,17.2049539 L20.5786065,17.2049539 L20.8223117,17.1395215 L20.8223117,17.1395215 L20.9997676,17.1001007 L20.9997676,17.1001007 C21.3227909,17.0344631 21.6573708,17 22,17 Z M23.9621855,25.0009161 L21,21.9995841 L26.4033593,22 L26.6029996,22.0048953 C28.7193908,22.1089211 30.4033593,23.8578046 30.4033593,26 C30.4033593,28.1421954 28.7193908,29.8910789 26.6029996,29.9951047 L26.403,29.999 L25.9884211,30.0009161 L24.0016093,28 L26.4033593,28 L26.5526216,27.9945143 C27.5874815,27.9181651 28.4033593,27.0543618 28.4033593,26 C28.4033593,24.9456382 27.5874815,24.0818349 26.5526216,24.0054857 L26.4033593,24 L25.792,24 L26.791,24.9995841 L23.9621855,25.0009161 Z M14,2 C20.4842105,2 25.810157,4.12348415 25.9950365,6.85319424 L26,7 L26,15.1 C25.5,14.85 24.9305556,14.6 24.349537,14.4078704 L24,14.3 L24,9.8 C21.9,11.1 18.2,12 14,12 C9.95,12 6.36492347,11.1631378 4.23107234,9.93773233 L4,9.8 L4,16 C4,16.782 4.9522,17.47936 6.515924,18.0044776 L6.9375,18.1375 L6.9375,18.1375 L7.385476,18.2623624 C7.99978,18.423252 8.6809,18.56146 9.4145,18.6733 L9.974316,18.7521784 L9.974316,18.7521784 L10.552468,18.8208232 C10.65028,18.831392 10.7488,18.84152 10.848,18.8512 L11.451136,18.9038464 C11.654752,18.9195648 11.860864,18.9334336 12.069248,18.9453952 L12.700992,18.9755008 C12.807344,18.9795456 12.914208,18.9830992 13.021556,18.9861544 L13.671228,18.9984472 L13.671228,18.9984472 L14.6,19 L14.5430556,19.1925926 L14.5430556,19.1925926 L14.4125,19.55 C14.35,19.725 14.3,19.9 14.3,20.1 C13.9,20.4 13.5,20.7 13.2,21 C9.45,20.9038462 6.25473373,20.160503 4.23649863,18.9477697 L4,18.8 L4,25 L4.00577969,25.1044297 C4.10436213,25.9926338 5.45685285,26.7522584 7.50900609,27.2513401 L8.01467262,27.3660497 C8.53320512,27.4756217 9.08948421,27.5695784 9.67584801,27.6460955 L10.2719563,27.7167318 C10.5747407,27.7490758 10.8844079,27.7769079 11.2,27.8 C11.5,28.6 11.8,29.3 12.2,29.9 C10.9730769,29.8365385 9.80880178,29.6925296 8.73557266,29.4812258 L8.159375,29.359375 C4.56947115,28.5463942 2.1277182,26.9590791 2.00486032,25.143777 L2,25 L2,7 C2,4.2 7.4,2 14,2 Z M14.328772,4.0015528 L13.671228,4.0015528 L13.671228,4.0015528 L13.021556,4.0138456 C12.914208,4.0169008 12.807344,4.0204544 12.700992,4.0244992 L12.069248,4.0546048 C11.965056,4.0605856 11.861432,4.0670432 11.758404,4.0739704 L11.147612,4.1211112 C11.04708,4.129888 10.9472,4.13912 10.848,4.1488 L10.261184,4.2121984 C10.164816,4.2236416 10.069184,4.2355184 9.974316,4.2478216 L9.4145,4.3267 C8.6809,4.43854 7.99978,4.576748 7.385476,4.7376376 L6.9375,4.8625 L6.9375,4.8625 L6.515924,4.9955224 C4.9522,5.52064 4,6.218 4,7 C4,7.782 4.9522,8.47936 6.515924,9.0044776 L6.9375,9.1375 L6.9375,9.1375 L7.385476,9.2623624 C7.99978,9.423252 8.6809,9.56146 9.4145,9.6733 L9.974316,9.7521784 L9.974316,9.7521784 L10.552468,9.8208232 C10.65028,9.831392 10.7488,9.84152 10.848,9.8512 L11.451136,9.9038464 C11.654752,9.9195648 11.860864,9.9334336 12.069248,9.9453952 L12.700992,9.9755008 C12.807344,9.9795456 12.914208,9.9830992 13.021556,9.9861544 L13.671228,9.9984472 C13.7804,9.99948 13.89,10 14,10 L14.328772,9.9984472 L14.328772,9.9984472 L14.978444,9.9861544 C15.085792,9.9830992 15.192656,9.9795456 15.299008,9.9755008 L15.930752,9.9453952 C16.034944,9.9394144 16.138568,9.9329568 16.241596,9.9260296 L16.852388,9.8788888 C16.95292,9.870112 17.0528,9.86088 17.152,9.8512 L17.738816,9.7878016 C17.835184,9.7763584 17.930816,9.7644816 18.025684,9.7521784 L18.5855,9.6733 C19.3191,9.56146 20.00022,9.423252 20.614524,9.2623624 L21.0625,9.1375 L21.0625,9.1375 L21.484076,9.0044776 C23.0478,8.47936 24,7.782 24,7 C24,6.218 23.0478,5.52064 21.484076,4.9955224 L21.0625,4.8625 L21.0625,4.8625 L20.614524,4.7376376 C20.00022,4.576748 19.3191,4.43854 18.5855,4.3267 L18.025684,4.2478216 L18.025684,4.2478216 L17.447532,4.1791768 C17.34972,4.168608 17.2512,4.15848 17.152,4.1488 L16.548864,4.0961536 C16.345248,4.0804352 16.139136,4.0665664 15.930752,4.0546048 L15.299008,4.0244992 C15.192656,4.0204544 15.085792,4.0169008 14.978444,4.0138456 L14.328772,4.0015528 L14.328772,4.0015528 Z" id="形状" fill="#0052D9" fill-rule="nonzero"></path>
    </g>
</svg>