<?xml version="1.0" encoding="UTF-8"?>
<svg width="32px" height="32px" viewBox="0 0 32 32" version="1.1" xmlns="http://www.w3.org/2000/svg" xmlns:xlink="http://www.w3.org/1999/xlink">
    <title>云原生网关-32px</title>
    <g id="云原生网关-32px" stroke="none" stroke-width="1" fill="none" fill-rule="evenodd">
        <rect id="Rectangle-Copy" fill="#0052D9" fill-rule="nonzero" opacity="0" x="0" y="0" width="32" height="32"></rect>
        <path d="M30,2 L30,4 L7,4 L4,7 L4,25 L7,28 L25,28 L28,25 L28,7 L30,7 L30,26 L26,30 L6,30 L2,26 L2,6 L6,2 L30,2 Z M16,9 C18.6229194,9 20.7523349,10.8613376 21.1602133,13.3559799 L21.195,13.616 L21.2950633,13.6635711 C22.7190224,14.376284 23.6860088,15.7716377 23.7641189,17.4015007 L23.7692308,17.6153846 C23.7692308,19.958213 21.9126627,21.8836878 19.5964112,21.9949244 L19.3846154,22 L18.537216,22 L18.537216,20 L19.3846154,20 C20.6938691,20 21.7692308,18.9246383 21.7692308,17.6153846 C21.7692308,16.5809864 21.1107872,15.6966373 20.1257548,15.3333712 L19.9486029,15.2747501 L19.2307692,15.0636226 L19.2307692,14.2307692 C19.2307692,12.4138232 17.816946,11 16,11 C14.2457073,11 12.8672152,12.3179993 12.7742327,14.0442888 L12.7692308,14.2307692 L12.7692308,15.1073993 L11.9982701,15.2888018 C10.9886325,15.5263636 10.2307692,16.4957235 10.2307692,17.6153846 C10.2307692,18.8700861 11.2183844,19.9099805 12.453007,19.99446 L12.5317692,19.997 L17.0788036,15.4511319 L18.4930171,16.8653454 L13.5432697,21.8150929 L13.5387692,21.811 L13.5391905,22 L12.6153846,22 C10.2015614,22 8.23076923,20.0292078 8.23076923,17.6153846 C8.23076923,15.8545286 9.26468307,14.289204 10.7788024,13.6017372 L10.807,13.589 C11.1106417,11.0463585 13.1812032,9.10726519 15.7820608,9.00430334 L16,9 Z" id="形状" fill="#0052D9" fill-rule="nonzero"></path>
    </g>
</svg>