<svg width="32" height="32" viewBox="0 0 32 32" fill="none" xmlns="http://www.w3.org/2000/svg">
<path fill-rule="evenodd" clip-rule="evenodd" d="M19.738 7.82015L18.705 9.54515L18.706 9.54615L16.031 14.0041C16.021 14.0031 16.01 14.0001 16 14.0001C14.895 14.0001 14 14.8951 14 16.0001C14 17.1041 14.895 18.0001 16 18.0001C17.104 18.0001 18 17.1041 18 16.0001C18 15.6491 17.902 15.3251 17.743 15.0381L20.419 10.5781C21.992 11.8631 23 13.8151 23 16.0001C23 19.8601 19.86 23.0001 16 23.0001C12.14 23.0001 9 19.8601 9 16.0001C9 13.4651 10.359 11.2471 12.383 10.0181L11.357 8.30015C8.749 9.87715 7 12.7301 7 16.0001C7 20.9701 11.029 25.0001 16 25.0001C20.97 25.0001 25 20.9701 25 16.0001C25 12.3651 22.84 9.24115 19.738 7.82015ZM23.709 3.15015L22.681 4.86415C26.462 7.13715 28.999 11.2671 28.999 16.0001C28.999 20.7331 26.462 24.8631 22.681 27.1361L23.709 28.8491C28.071 26.2261 31 21.4611 31 16.0001C31 10.5391 28.071 5.77415 23.709 3.15015ZM2.999 16.0001C2.999 11.2701 5.533 7.14315 9.309 4.86915L8.285 3.15315C3.925 5.77715 1 10.5411 1 16.0001C1 21.4611 3.927 26.2261 8.29 28.8491L9.318 27.1361C5.537 24.8631 2.999 20.7331 2.999 16.0001Z" fill="#0052D9"/>
</svg>
