<?xml version="1.0" encoding="UTF-8"?>
<svg width="32px" height="32px" viewBox="0 0 32 32" version="1.1" xmlns="http://www.w3.org/2000/svg" xmlns:xlink="http://www.w3.org/1999/xlink">
    <title>EventBridge-32</title>
    <g id="EventBridge-32" stroke="none" stroke-width="1" fill="none" fill-rule="evenodd">
        <rect id="Rectangle-Copy" fill="#0052D9" opacity="0" x="0" y="0" width="32" height="32"></rect>
        <g id="Group" fill="#0052D9" fill-rule="nonzero">
            <path d="M31.842542,13.0004945 L29.7932368,13.0004945 C28.4147469,6.70988283 22.7906191,2 16.0621652,2 C8.30013742,2 2.00777065,8.2680135 2.00777065,16 C2.00777065,23.7319865 8.30013742,30 16.0621652,30 C23.1423399,30 28.9997166,24.7848417 29.9741601,18.0004945 L32,18.0004945 C31.0117595,25.8928783 24.2529307,32 16.0621652,32 C7.19127631,32 0,24.836556 0,16 C0,7.163444 7.19127631,0 16.0621652,0 C23.9038566,0 30.433063,5.59766728 31.842542,13.0004945 Z" id="Combined-Shape"></path>
        </g>
        <path d="M9.177,12.0224919 L10.331,14.0214919 L9.059,16.227 L12.655,22.454 L15.199,22.4534919 L16.354,24.4534919 L11.5,24.4544827 L6.75,16.2272413 L9.177,12.0224919 Z M21,8 L25.75,16.2272413 L23.296,20.4764919 L22.14,18.4754919 L23.44,16.227 L19.844,10 L17.247,9.99949192 L16.092,7.99949192 L21,8 Z" id="形状结合" fill="#0052D9" fill-rule="nonzero"></path>
        <g id="编组-2" transform="translate(16.183013, 15.316987) rotate(-30.000000) translate(-16.183013, -15.316987) translate(11.683013, 4.816987)" fill="#0052D9">
            <path d="M2.9999873,12.996 L5,13.235 L5,19 L2.9999873,19 L2.9999873,12.996 Z M5,3 L5,8.401 L2.9999873,8.401 L2.9999873,3 L5,3 Z" id="形状" fill-rule="nonzero"></path>
            <path d="M4,7 L7.46410162,9 L7.46410162,13 L4,15 L0.535898385,13 L0.535898385,9 L4,7 Z M4,9.309 L2.535,10.155 L2.535,11.844 L4,12.69 L5.464,11.844 L5.464,10.155 L4,9.309 Z" id="多边形备份" fill-rule="nonzero"></path>
            <circle id="椭圆形" cx="4" cy="3" r="2"></circle>
            <circle id="椭圆形备份-2" cx="4" cy="19" r="2"></circle>
        </g>
    </g>
</svg>