<?xml version="1.0" encoding="UTF-8"?>
<svg width="32px" height="32px" viewBox="0 0 32 32" version="1.1" xmlns="http://www.w3.org/2000/svg" xmlns:xlink="http://www.w3.org/1999/xlink">
    <title>32-前端性能监控-蓝色</title>
    <g id="32-前端性能监控-蓝色" stroke="none" stroke-width="1" fill="none" fill-rule="evenodd">
        <path d="M16,0 C21.3978215,0.0690612452 26.640306,1.81655607 31,5 C31,5 31.9801,21.867521 16.474918,31.7040986 L16,32 L15.525082,31.7040986 C0.0199,21.867521 1,5 1,5 C5.35969398,1.81655607 10.6021785,0.0690612452 16,0 Z M16,2 C11.3618405,2.05583499 6.84192683,3.47091564 3,6.07 C3.23422272,15.5728003 8.08559993,24.3649886 16,29.63 C23.8662999,24.3208632 28.7028008,15.5556355 29,6.07 C25.1604012,3.46608872 20.6389998,2.05054228 16,2 Z M15.7189933,8.31997432 L15.2518226,14.4117434 L15.2407184,14.6044027 C15.2064834,15.5448311 15.466763,15.9020056 16.0732023,15.9020056 C16.4019359,15.9020056 16.6076772,15.8138152 16.7447904,15.6414375 C16.8940229,15.4538236 17.0076656,15.1070792 17.0638227,14.605261 L17.0821442,14.4098181 L17.5490715,8.31997432 L19.510009,8.31997432 L19.0364266,14.49545 L19.0110374,14.7600027 C18.9033374,15.6925119 18.6214583,16.4145599 18.1433229,16.9140724 C17.6077103,17.4736319 16.858373,17.7457556 15.9318363,17.7457556 C14.1096874,17.7457556 13.1903576,16.6767766 13.2704718,14.7294069 L13.2834912,14.5094274 L13.7580558,8.31997432 L15.7189933,8.31997432 Z M7.42355063,8.31997432 L10.2738129,8.32012769 L10.5168356,8.32632698 C11.2932369,8.36579422 11.9231531,8.59037033 12.3899538,9.00782804 C12.9264846,9.48764517 13.1633491,10.1597449 13.1002978,10.9820837 C13.0525467,11.604872 12.8010964,12.1673458 12.3561551,12.6496962 C12.1605162,12.8617837 11.9382267,13.0430405 11.6906961,13.1934301 L11.5003375,13.3004342 L11.3205476,13.3855524 L13.8019154,17.5875524 L11.3938155,17.5875524 L9.25535144,13.8315524 L8.96135144,13.8315524 L8.67391412,17.5875524 L6.71297662,17.5875524 L7.42355063,8.31997432 Z M26.1316235,8.31997432 L25.4210495,17.5875524 L23.4952683,17.5875524 L23.8609414,12.8065524 L23.0944399,17.5875524 L21.4885926,17.5875524 L21.4566543,12.806 L21.0909714,17.5875524 L19.1651902,17.5875524 L19.8757642,8.31997432 L22.1986795,8.32632698 L22.5601962,14.1335524 L23.8045268,8.32632698 L26.1316235,8.31997432 Z M9.97989947,10.1578649 L9.24304843,10.1575524 L9.10227661,11.9935524 L9.81569494,11.9938024 C10.2085109,11.9938024 10.51112,11.8952192 10.7460143,11.7035641 C10.9672716,11.5230357 11.0787659,11.3138575 11.0997115,11.0406774 C11.1443719,10.458199 10.8843078,10.1919582 10.1361033,10.1609534 L9.97989947,10.1578649 Z" id="形状结合" fill="#0052D9" fill-rule="nonzero"></path>
    </g>
</svg>