<?xml version="1.0" encoding="UTF-8"?>
<svg width="32px" height="32px" viewBox="0 0 32 32" version="1.1" xmlns="http://www.w3.org/2000/svg" xmlns:xlink="http://www.w3.org/1999/xlink">
    <title>服务治理-32px</title>
    <g id="服务治理-32px" stroke="none" stroke-width="1" fill="none" fill-rule="evenodd">
        <rect id="矩形" opacity="0" x="0" y="0" width="32" height="32"></rect>
        <path d="M30,2 L30,4 L7,4 L4,7 L4,25 L7,28 L25,28 L28,25 L28,7 L30,7 L30,26 L26,30 L6,30 L2,26 L2,6 L6,2 L30,2 Z M11,15 L11,17 L9,17 L9,21 L20,21 L20,23 L18,25 L17,25 L17,23 L7,23 L7,15 L11,15 Z M23,20 C24.1045695,20 25,20.8954305 25,22 C25,23.1045695 24.1045695,24 23,24 C21.8954305,24 21,23.1045695 21,22 C21,20.8954305 21.8954305,20 23,20 Z M25,9 L25,17 L20,17 L20,19 L19,19 L17,17 L17,15 L23,15 L23,11 L12,11 L12,9 L25,9 Z M14,14 C15.1045695,14 16,14.8954305 16,16 C16,17.1045695 15.1045695,18 14,18 C12.8954305,18 12,17.1045695 12,16 C12,14.8954305 12.8954305,14 14,14 Z M9,8 C10.1045695,8 11,8.8954305 11,10 C11,11.1045695 10.1045695,12 9,12 C7.8954305,12 7,11.1045695 7,10 C7,8.8954305 7.8954305,8 9,8 Z" id="形状结合" fill="#0052D9" fill-rule="nonzero"></path>
    </g>
</svg>