<?xml version="1.0" encoding="UTF-8"?>
<svg width="32px" height="32px" viewBox="0 0 32 32" version="1.1" xmlns="http://www.w3.org/2000/svg" xmlns:xlink="http://www.w3.org/1999/xlink">
    <title>服务注册中心-32px</title>
    <g id="服务注册中心-32px" stroke="none" stroke-width="1" fill="none" fill-rule="evenodd">
        <rect id="矩形" opacity="0" x="0" y="0" width="32" height="32"></rect>
        <path d="M30,2 L30,4 L7,4 L4,7 L4,25 L7,28 L25,28 L28,25 L28,7 L30,7 L30,26 L26,30 L6,30 L2,26 L2,6 L6,2 L30,2 Z M10,20 L10,24 L8,24 L8,20 L10,20 Z M17,20 L17,22 L22,22 L22,20 L24,20 L24,24 L15,24 L15,20 L17,20 Z M16,8 C20.3228972,8 23.8615316,11.290954 23.9960342,15.4226731 L24,15.6666667 L24,18 L22,18 L22,15.6666667 C22,12.5482604 19.3243266,10 16,10 C12.7512263,10 10.1219566,12.4337466 10.0041224,15.4549548 L10,15.6666667 L10,18 L8,18 L8,15.6666667 C8,11.4212763 11.5923401,8 16,8 Z" id="形状" fill="#0052D9"></path>
    </g>
</svg>