<svg version="1.2" baseProfile="tiny-ps" xmlns="http://www.w3.org/2000/svg" viewBox="0 0 24 24" width="32" height="32">
	<title>24blue-svg</title>
	<style>
		tspan { white-space:pre }
		.shp0 { fill: none } 
		.shp1 { fill: #0052D9 } 
	</style>
	<g id="24-蓝">
		<g id="编组">
			<path id="矩形" class="shp0" d="M0 0L24 0L24 24L0 24L0 0Z" />
			<path id="路径" class="shp1" d="M12 0C18.12 0 23.22 4.6 23.92 10.6L23.95 10.91L21.96 11.09C21.5 5.96 17.18 2 12 2C6.48 2 2 6.48 2 12C2 17.52 6.48 22 12 22C16.74 22 20.79 18.68 21.77 14.13L21.83 13.86L23.79 14.22C22.74 19.86 17.8 24 12 24C5.37 24 0 18.63 0 12C0 5.37 5.37 0 12 0Z" />
		</g>
		<g id="grafana-logo备份-3">
			<path id="路径" class="shp1" d="M18.98 10.5C18.95 10.22 18.9 9.89 18.81 9.52C18.72 9.16 18.59 8.77 18.39 8.35C18.19 7.94 17.94 7.51 17.61 7.1C17.48 6.93 17.33 6.77 17.18 6.62C17.41 5.67 16.9 4.85 16.9 4.85C16.03 4.79 15.47 5.13 15.26 5.29C15.23 5.27 15.19 5.25 15.16 5.24C15.01 5.18 14.86 5.12 14.7 5.07C14.54 5.01 14.38 4.97 14.21 4.92C14.05 4.88 13.88 4.85 13.71 4.82C13.68 4.82 13.65 4.81 13.62 4.81C13.24 3.53 12.14 3 12.14 3C10.92 3.81 10.69 4.94 10.69 4.94C10.69 4.94 10.68 4.97 10.67 5.01C10.61 5.03 10.54 5.05 10.47 5.07C10.38 5.1 10.28 5.14 10.19 5.17C10.1 5.21 10.01 5.25 9.91 5.29C9.73 5.37 9.55 5.47 9.37 5.57C9.19 5.67 9.02 5.79 8.85 5.9L8.81 5.88C7.11 5.21 5.61 6.02 5.61 6.02C5.47 7.9 6.29 9.09 6.45 9.3C6.41 9.42 6.37 9.54 6.34 9.65C6.21 10.08 6.12 10.52 6.06 10.97C6.05 11.04 6.04 11.1 6.03 11.17C4.46 11.98 4 13.63 4 13.63C5.31 15.2 6.83 15.3 6.83 15.3L6.84 15.29C7.03 15.65 7.26 16 7.51 16.32C7.61 16.45 7.72 16.58 7.84 16.71C7.36 18.13 7.91 19.31 7.91 19.31C9.36 19.37 10.32 18.65 10.52 18.48C10.66 18.53 10.81 18.58 10.96 18.62C11.41 18.74 11.87 18.81 12.33 18.83C12.44 18.83 12.55 18.84 12.67 18.83L12.83 18.83L12.9 18.83L12.9 18.83C13.59 19.85 14.79 20 14.79 20C15.65 19.06 15.7 18.12 15.7 17.92L15.7 17.91L15.7 17.88L15.7 17.84C15.88 17.71 16.05 17.56 16.21 17.41C16.55 17.09 16.85 16.72 17.1 16.32L17.17 16.21C18.14 16.26 18.83 15.58 18.83 15.58C18.67 14.53 18.09 14.01 17.97 13.91C17.85 13.81 17.97 13.91 17.96 13.9C17.95 13.9 17.95 13.89 17.95 13.89C17.94 13.89 17.93 13.88 17.93 13.88C17.93 13.81 17.93 13.75 17.94 13.69C17.95 13.57 17.95 13.46 17.95 13.35L17.95 13.2L17.95 13.17L17.94 13.1L17.94 13C17.94 12.97 17.93 12.94 17.93 12.91C17.93 12.89 17.93 12.85 17.92 12.83L17.91 12.74L17.9 12.65C17.88 12.53 17.86 12.42 17.84 12.3C17.73 11.85 17.56 11.42 17.34 11.03C17.12 10.64 16.84 10.3 16.52 10.01C16.21 9.72 15.85 9.48 15.48 9.31C15.11 9.13 14.72 9.02 14.34 8.97C14.14 8.94 13.95 8.93 13.76 8.94L13.61 8.94L13.54 8.94C13.52 8.94 13.49 8.95 13.47 8.95C13.37 8.96 13.27 8.97 13.17 8.99C12.79 9.06 12.42 9.21 12.11 9.41C11.79 9.61 11.51 9.86 11.28 10.14C11.06 10.42 10.88 10.74 10.76 11.06C10.64 11.38 10.57 11.72 10.56 12.04C10.55 12.12 10.55 12.21 10.55 12.29L10.55 12.35L10.56 12.41C10.56 12.45 10.56 12.49 10.57 12.53C10.58 12.69 10.61 12.85 10.65 13C10.74 13.31 10.87 13.58 11.04 13.82C11.2 14.05 11.4 14.24 11.62 14.4C11.83 14.55 12.06 14.66 12.28 14.73C12.51 14.8 12.73 14.83 12.94 14.83L13.06 14.83C13.07 14.83 13.08 14.83 13.1 14.82C13.12 14.82 13.14 14.82 13.17 14.82C13.17 14.82 13.18 14.82 13.18 14.81L13.21 14.81C13.22 14.81 13.23 14.8 13.25 14.8C13.27 14.8 13.3 14.79 13.32 14.79C13.35 14.78 13.37 14.78 13.39 14.77C13.44 14.76 13.49 14.74 13.53 14.73C13.62 14.69 13.71 14.66 13.79 14.61C13.87 14.57 13.94 14.52 14.01 14.47C14.03 14.46 14.05 14.45 14.07 14.43C14.14 14.37 14.16 14.25 14.1 14.18C14.05 14.11 13.96 14.09 13.89 14.14L13.83 14.16C13.77 14.2 13.71 14.23 13.64 14.25C13.57 14.27 13.5 14.29 13.43 14.31C13.39 14.31 13.36 14.31 13.32 14.32C13.3 14.32 13.28 14.32 13.26 14.32L13.15 14.32C13.13 14.32 13.11 14.32 13.08 14.32L13.06 14.32C13.05 14.32 13.03 14.32 13.03 14.31C13 14.31 12.99 14.31 12.96 14.31C12.8 14.28 12.63 14.23 12.47 14.16C12.31 14.08 12.16 13.98 12.02 13.85C11.88 13.72 11.76 13.56 11.67 13.38C11.57 13.2 11.5 13.01 11.47 12.8C11.46 12.7 11.45 12.59 11.45 12.49C11.45 12.46 11.46 12.43 11.46 12.4L11.46 12.37C11.46 12.35 11.46 12.34 11.46 12.32C11.47 12.27 11.48 12.21 11.49 12.16C11.56 11.71 11.78 11.27 12.11 10.93C12.2 10.85 12.29 10.77 12.38 10.7C12.47 10.63 12.58 10.57 12.68 10.52C12.79 10.47 12.9 10.43 13.02 10.39C13.13 10.36 13.25 10.34 13.37 10.33C13.43 10.32 13.48 10.32 13.55 10.32L13.69 10.32L13.74 10.32C13.87 10.33 13.99 10.35 14.12 10.39C14.37 10.44 14.62 10.54 14.84 10.67C15.3 10.94 15.69 11.35 15.93 11.85C16.05 12.09 16.14 12.36 16.18 12.64C16.19 12.71 16.2 12.78 16.2 12.85L16.21 12.9L16.21 12.95L16.21 13.15C16.21 13.19 16.21 13.24 16.21 13.27C16.2 13.35 16.19 13.43 16.18 13.5C16.17 13.58 16.16 13.65 16.15 13.73C16.13 13.8 16.12 13.88 16.1 13.95C16.06 14.09 16.02 14.24 15.96 14.38C15.86 14.67 15.71 14.94 15.54 15.19C15.19 15.68 14.72 16.08 14.18 16.34C13.92 16.47 13.63 16.56 13.34 16.61C13.2 16.64 13.05 16.65 12.9 16.66L12.68 16.66C12.59 16.66 12.52 16.65 12.44 16.64C12.12 16.62 11.81 16.56 11.51 16.47C11.21 16.38 10.92 16.25 10.64 16.1C10.08 15.79 9.59 15.37 9.2 14.86C9.01 14.61 8.84 14.33 8.7 14.05C8.56 13.76 8.45 13.46 8.36 13.15C8.28 12.84 8.23 12.53 8.21 12.21L8.21 12.15L8.21 11.88L8.21 11.85L8.21 11.73C8.21 11.58 8.23 11.42 8.24 11.26C8.26 11.1 8.29 10.93 8.32 10.77C8.35 10.61 8.39 10.46 8.43 10.3C8.52 9.98 8.63 9.68 8.75 9.39C9.01 8.82 9.34 8.31 9.74 7.9C9.84 7.8 9.94 7.71 10.05 7.61C10.16 7.52 10.27 7.44 10.39 7.36C10.5 7.28 10.62 7.21 10.74 7.14C10.8 7.11 10.86 7.08 10.92 7.05L11.02 7.01L11.11 6.97C11.24 6.91 11.37 6.86 11.5 6.82C11.54 6.81 11.57 6.8 11.6 6.79C11.63 6.78 11.67 6.77 11.7 6.76C11.77 6.74 11.84 6.72 11.9 6.71C11.93 6.7 11.97 6.7 12.01 6.69C12.04 6.68 12.07 6.67 12.11 6.66C12.15 6.66 12.18 6.65 12.21 6.64L12.26 6.63L12.32 6.62C12.35 6.62 12.38 6.62 12.42 6.61C12.46 6.61 12.5 6.6 12.54 6.6C12.57 6.59 12.62 6.59 12.65 6.58C12.68 6.58 12.7 6.58 12.73 6.57L12.77 6.57L12.8 6.56L12.82 6.56C12.86 6.56 12.9 6.56 12.94 6.55L13 6.55L13.04 6.55C13.08 6.55 13.11 6.55 13.14 6.55C13.27 6.54 13.41 6.54 13.54 6.55C13.8 6.55 14.05 6.59 14.3 6.63C14.8 6.73 15.27 6.9 15.69 7.12C16.12 7.33 16.5 7.6 16.83 7.89C16.85 7.91 16.87 7.93 16.89 7.95C16.91 7.96 16.93 7.98 16.95 8C16.99 8.04 17.03 8.08 17.07 8.11C17.11 8.15 17.14 8.19 17.18 8.23C17.22 8.26 17.25 8.3 17.29 8.34C17.43 8.5 17.56 8.65 17.67 8.81C17.91 9.13 18.1 9.44 18.24 9.74L18.27 9.8L18.3 9.86C18.32 9.89 18.33 9.93 18.35 9.97C18.37 10.01 18.38 10.04 18.4 10.08C18.41 10.11 18.43 10.15 18.44 10.18C18.5 10.32 18.55 10.46 18.59 10.59C18.66 10.79 18.71 10.98 18.75 11.13C18.76 11.2 18.82 11.24 18.88 11.23C18.95 11.23 19 11.17 19 11.1C19 10.93 19 10.73 18.98 10.5Z" />
			<path id="路径 copy" class="shp1" d="M18.98 10.5C18.95 10.22 18.9 9.89 18.81 9.52C18.72 9.16 18.59 8.77 18.39 8.35C18.19 7.94 17.94 7.51 17.61 7.1C17.48 6.93 17.33 6.77 17.18 6.62C17.41 5.67 16.9 4.85 16.9 4.85C16.03 4.79 15.47 5.13 15.26 5.29C15.23 5.27 15.19 5.25 15.16 5.24C15.01 5.18 14.86 5.12 14.7 5.07C14.54 5.01 14.38 4.97 14.21 4.92C14.05 4.88 13.88 4.85 13.71 4.82C13.68 4.82 13.65 4.81 13.62 4.81C13.24 3.53 12.14 3 12.14 3C10.92 3.81 10.69 4.94 10.69 4.94C10.69 4.94 10.68 4.97 10.67 5.01C10.61 5.03 10.54 5.05 10.47 5.07C10.38 5.1 10.28 5.14 10.19 5.17C10.1 5.21 10.01 5.25 9.91 5.29C9.73 5.37 9.55 5.47 9.37 5.57C9.19 5.67 9.02 5.79 8.85 5.9L8.81 5.88C7.11 5.21 5.61 6.02 5.61 6.02C5.47 7.9 6.29 9.09 6.45 9.3C6.41 9.42 6.37 9.54 6.34 9.65C6.21 10.08 6.12 10.52 6.06 10.97C6.05 11.04 6.04 11.1 6.03 11.17C4.46 11.98 4 13.63 4 13.63C5.31 15.2 6.83 15.3 6.83 15.3L6.84 15.29C7.03 15.65 7.26 16 7.51 16.32C7.61 16.45 7.72 16.58 7.84 16.71C7.36 18.13 7.91 19.31 7.91 19.31C9.36 19.37 10.32 18.65 10.52 18.48C10.66 18.53 10.81 18.58 10.96 18.62C11.41 18.74 11.87 18.81 12.33 18.83C12.44 18.83 12.55 18.84 12.67 18.83L12.83 18.83L12.9 18.83L12.9 18.83C13.59 19.85 14.79 20 14.79 20C15.65 19.06 15.7 18.12 15.7 17.92L15.7 17.91L15.7 17.88L15.7 17.84C15.88 17.71 16.05 17.56 16.21 17.41C16.55 17.09 16.85 16.72 17.1 16.32L17.17 16.21C18.14 16.26 18.83 15.58 18.83 15.58C18.67 14.53 18.09 14.01 17.97 13.91C17.85 13.81 17.97 13.91 17.96 13.9C17.95 13.9 17.95 13.89 17.95 13.89C17.94 13.89 17.93 13.88 17.93 13.88C17.93 13.81 17.93 13.75 17.94 13.69C17.95 13.57 17.95 13.46 17.95 13.35L17.95 13.2L17.95 13.17L17.94 13.1L17.94 13C17.94 12.97 17.93 12.94 17.93 12.91C17.93 12.89 17.93 12.85 17.92 12.83L17.91 12.74L17.9 12.65C17.88 12.53 17.86 12.42 17.84 12.3C17.73 11.85 17.56 11.42 17.34 11.03C17.12 10.64 16.84 10.3 16.52 10.01C16.21 9.72 15.85 9.48 15.48 9.31C15.11 9.13 14.72 9.02 14.34 8.97C14.14 8.94 13.95 8.93 13.76 8.94L13.61 8.94L13.54 8.94C13.52 8.94 13.49 8.95 13.47 8.95C13.37 8.96 13.27 8.97 13.17 8.99C12.79 9.06 12.42 9.21 12.11 9.41C11.79 9.61 11.51 9.86 11.28 10.14C11.06 10.42 10.88 10.74 10.76 11.06C10.64 11.38 10.57 11.72 10.56 12.04C10.55 12.12 10.55 12.21 10.55 12.29L10.55 12.35L10.56 12.41C10.56 12.45 10.56 12.49 10.57 12.53C10.58 12.69 10.61 12.85 10.65 13C10.74 13.31 10.87 13.58 11.04 13.82C11.2 14.05 11.4 14.24 11.62 14.4C11.83 14.55 12.06 14.66 12.28 14.73C12.51 14.8 12.73 14.83 12.94 14.83L13.06 14.83C13.07 14.83 13.08 14.83 13.1 14.82C13.12 14.82 13.14 14.82 13.17 14.82C13.17 14.82 13.18 14.82 13.18 14.81L13.21 14.81C13.22 14.81 13.23 14.8 13.25 14.8C13.27 14.8 13.3 14.79 13.32 14.79C13.35 14.78 13.37 14.78 13.39 14.77C13.44 14.76 13.49 14.74 13.53 14.73C13.62 14.69 13.71 14.66 13.79 14.61C13.87 14.57 13.94 14.52 14.01 14.47C14.03 14.46 14.05 14.45 14.07 14.43C14.14 14.37 14.16 14.25 14.1 14.18C14.05 14.11 13.96 14.09 13.89 14.14L13.83 14.16C13.77 14.2 13.71 14.23 13.64 14.25C13.57 14.27 13.5 14.29 13.43 14.31C13.39 14.31 13.36 14.31 13.32 14.32C13.3 14.32 13.28 14.32 13.26 14.32L13.15 14.32C13.13 14.32 13.11 14.32 13.08 14.32L13.06 14.32C13.05 14.32 13.03 14.32 13.03 14.31C13 14.31 12.99 14.31 12.96 14.31C12.8 14.28 12.63 14.23 12.47 14.16C12.31 14.08 12.16 13.98 12.02 13.85C11.88 13.72 11.76 13.56 11.67 13.38C11.57 13.2 11.5 13.01 11.47 12.8C11.46 12.7 11.45 12.59 11.45 12.49C11.45 12.46 11.46 12.43 11.46 12.4L11.46 12.37C11.46 12.35 11.46 12.34 11.46 12.32C11.47 12.27 11.48 12.21 11.49 12.16C11.56 11.71 11.78 11.27 12.11 10.93C12.2 10.85 12.29 10.77 12.38 10.7C12.47 10.63 12.58 10.57 12.68 10.52C12.79 10.47 12.9 10.43 13.02 10.39C13.13 10.36 13.25 10.34 13.37 10.33C13.43 10.32 13.48 10.32 13.55 10.32L13.69 10.32L13.74 10.32C13.87 10.33 13.99 10.35 14.12 10.39C14.37 10.44 14.62 10.54 14.84 10.67C15.3 10.94 15.69 11.35 15.93 11.85C16.05 12.09 16.14 12.36 16.18 12.64C16.19 12.71 16.2 12.78 16.2 12.85L16.21 12.9L16.21 12.95L16.21 13.15C16.21 13.19 16.21 13.24 16.21 13.27C16.2 13.35 16.19 13.43 16.18 13.5C16.17 13.58 16.16 13.65 16.15 13.73C16.13 13.8 16.12 13.88 16.1 13.95C16.06 14.09 16.02 14.24 15.96 14.38C15.86 14.67 15.71 14.94 15.54 15.19C15.19 15.68 14.72 16.08 14.18 16.34C13.92 16.47 13.63 16.56 13.34 16.61C13.2 16.64 13.05 16.65 12.9 16.66L12.68 16.66C12.59 16.66 12.52 16.65 12.44 16.64C12.12 16.62 11.81 16.56 11.51 16.47C11.21 16.38 10.92 16.25 10.64 16.1C10.08 15.79 9.59 15.37 9.2 14.86C9.01 14.61 8.84 14.33 8.7 14.05C8.56 13.76 8.45 13.46 8.36 13.15C8.28 12.84 8.23 12.53 8.21 12.21L8.21 12.15L8.21 11.88L8.21 11.85L8.21 11.73C8.21 11.58 8.23 11.42 8.24 11.26C8.26 11.1 8.29 10.93 8.32 10.77C8.35 10.61 8.39 10.46 8.43 10.3C8.52 9.98 8.63 9.68 8.75 9.39C9.01 8.82 9.34 8.31 9.74 7.9C9.84 7.8 9.94 7.71 10.05 7.61C10.16 7.52 10.27 7.44 10.39 7.36C10.5 7.28 10.62 7.21 10.74 7.14C10.8 7.11 10.86 7.08 10.92 7.05L11.02 7.01L11.11 6.97C11.24 6.91 11.37 6.86 11.5 6.82C11.54 6.81 11.57 6.8 11.6 6.79C11.63 6.78 11.67 6.77 11.7 6.76C11.77 6.74 11.84 6.72 11.9 6.71C11.93 6.7 11.97 6.7 12.01 6.69C12.04 6.68 12.07 6.67 12.11 6.66C12.15 6.66 12.18 6.65 12.21 6.64L12.26 6.63L12.32 6.62C12.35 6.62 12.38 6.62 12.42 6.61C12.46 6.61 12.5 6.6 12.54 6.6C12.57 6.59 12.62 6.59 12.65 6.58C12.68 6.58 12.7 6.58 12.73 6.57L12.77 6.57L12.8 6.56L12.82 6.56C12.86 6.56 12.9 6.56 12.94 6.55L13 6.55L13.04 6.55C13.08 6.55 13.11 6.55 13.14 6.55C13.27 6.54 13.41 6.54 13.54 6.55C13.8 6.55 14.05 6.59 14.3 6.63C14.8 6.73 15.27 6.9 15.69 7.12C16.12 7.33 16.5 7.6 16.83 7.89C16.85 7.91 16.87 7.93 16.89 7.95C16.91 7.96 16.93 7.98 16.95 8C16.99 8.04 17.03 8.08 17.07 8.11C17.11 8.15 17.14 8.19 17.18 8.23C17.22 8.26 17.25 8.3 17.29 8.34C17.43 8.5 17.56 8.65 17.67 8.81C17.91 9.13 18.1 9.44 18.24 9.74L18.27 9.8L18.3 9.86C18.32 9.89 18.33 9.93 18.35 9.97C18.37 10.01 18.38 10.04 18.4 10.08C18.41 10.11 18.43 10.15 18.44 10.18C18.5 10.32 18.55 10.46 18.59 10.59C18.66 10.79 18.71 10.98 18.75 11.13C18.76 11.2 18.82 11.24 18.88 11.23C18.95 11.23 19 11.17 19 11.1C19 10.93 19 10.73 18.98 10.5Z" />
		</g>
	</g>
</svg>