<?xml version="1.0" encoding="UTF-8"?>
<svg width="32px" height="32px" viewBox="0 0 32 32" version="1.1" xmlns="http://www.w3.org/2000/svg" xmlns:xlink="http://www.w3.org/1999/xlink">
    <title>TSE-32</title>
    <g id="TSE-32" stroke="none" stroke-width="1" fill="none" fill-rule="evenodd">
        <rect id="Rectangle-Copy" fill="#0052D9" opacity="0" x="0" y="0" width="32" height="32"></rect>
        <path d="M6,30 L2,26 L2,6 L6,2 L30,2 L30,4 L7,4 L4,7 L4,25 L7,28 L25,28 L28,25 L28,7 L30,7 L30,26 L26,30 L6,30 Z" id="Combined-Shape" fill="#0052D9"></path>
        <g id="Group" transform="translate(7.000000, 8.000000)" fill="#0052D9">
            <polygon id="XMLID_98_-path" fill-rule="nonzero" points="10 9 12 11 13 11 13 9 18 9 18 7 10 7"></polygon>
            <rect id="矩形" fill-rule="nonzero" x="16" y="1" width="2" height="7"></rect>
            <polygon id="矩形备份" fill-rule="nonzero" transform="translate(10.500000, 2.000000) rotate(-90.000000) translate(-10.500000, -2.000000) " points="9.5 -3.5 11.5 -3.5 11.5 7.5 9.5 7.5"></polygon>
            <polygon id="XMLID_98_-path" fill-rule="nonzero" transform="translate(7.500000, 15.000000) scale(-1, 1) translate(-7.500000, -15.000000) " points="2 15 4 17 5 17 5 15 13 15 13 13 2 13"></polygon>
            <polygon id="矩形" fill-rule="nonzero" transform="translate(1.000000, 11.000000) scale(-1, 1) translate(-1.000000, -11.000000) " points="0 7 2 7 2 15 0 15"></polygon>
            <polygon id="矩形备份" fill-rule="nonzero" transform="translate(2.000000, 8.000000) scale(-1, 1) rotate(-90.000000) translate(-2.000000, -8.000000) " points="1 6 3 6 3 10 1 10"></polygon>
            <path d="M2,4 C3.1045695,4 4,3.1045695 4,2 C4,0.8954305 3.1045695,0 2,0 C0.8954305,0 0,0.8954305 0,2 C0,3.1045695 0.8954305,4 2,4 Z" id="Oval"></path>
            <path d="M7,10 C8.1045695,10 9,9.1045695 9,8 C9,6.8954305 8.1045695,6 7,6 C5.8954305,6 5,6.8954305 5,8 C5,9.1045695 5.8954305,10 7,10 Z" id="Oval备份"></path>
            <path d="M16,16 C17.1045695,16 18,15.1045695 18,14 C18,12.8954305 17.1045695,12 16,12 C14.8954305,12 14,12.8954305 14,14 C14,15.1045695 14.8954305,16 16,16 Z" id="Oval备份-2"></path>
        </g>
    </g>
</svg>