<svg width="32" height="32" viewBox="0 0 32 32" fill="none" xmlns="http://www.w3.org/2000/svg">
<path d="M16.0621 30C22.7904 30 28.4144 25.2904 29.7931 19H31.8424C30.4327 26.4026 23.9036 32 16.0621 32C7.19126 32 0 24.8366 0 16C0 7.16344 7.19126 0 16.0621 0C24.2531 0 31.012 6.10738 32 14H29.9742C28.9999 7.21541 23.1425 2 16.0621 2C8.30012 2 2.00777 8.26801 2.00777 16C2.00777 23.732 8.30012 30 16.0621 30Z" fill="#0052D9"/>
<path d="M15 9H11.6893L9 13.034L11.0129 15.6384C11.0724 14.8052 11.3361 14.0284 11.7543 13.3579L11.449 12.966L12.7597 11H15V9Z" fill="#0052D9"/>
<path d="M11.5 21L12.5417 19.6111C13.025 20.0741 13.601 20.441 14.2392 20.6811L12.5 23H9V21H11.5Z" fill="#0052D9"/>
<path fill-rule="evenodd" clip-rule="evenodd" d="M23 9H19.5L17.1289 12.1615C16.7709 12.0564 16.392 12 16 12C13.7909 12 12 13.7909 12 16C12 18.2091 13.7909 20 16 20C16.392 20 16.7709 19.9436 17.1289 19.8385L19.5 23H23V21H20.5L18.8528 18.8038C19.338 18.3102 19.6961 17.6913 19.874 17H23V15H19.874C19.6961 14.3087 19.338 13.6898 18.8528 13.1962L20.5 11H23V9ZM16 18C17.1046 18 18 17.1046 18 16C18 14.8954 17.1046 14 16 14C14.8954 14 14 14.8954 14 16C14 17.1046 14.8954 18 16 18Z" fill="#0052D9"/>
</svg>
