<?xml version="1.0" encoding="utf-8"?>
<!-- Generator: Adobe Illustrator 23.0.3, SVG Export Plug-In . SVG Version: 6.00 Build 0)  -->
<svg version="1.1" id="图层_1" xmlns="http://www.w3.org/2000/svg" xmlns:xlink="http://www.w3.org/1999/xlink" x="0px" y="0px"
	 width="32px" height="32px" viewBox="0 0 32 32" style="enable-background:new 0 0 32 32;" xml:space="preserve">
<g>
	<rect x="2" y="21" style="fill:#0052D9;" width="2" height="5"/>
	<g>
		<rect x="6" y="2" style="fill:#0052D9;" width="24" height="2"/>
		<rect x="2" y="6" style="fill:#0052D9;" width="2" height="15"/>
		<polygon style="fill:#0052D9;" points="6,2 2,6 4,7 7,4 		"/>
		<rect x="6" y="28" style="fill:#0052D9;" width="20" height="2"/>
		<rect x="28" y="7" style="fill:#0052D9;" width="2" height="19"/>
		<polygon style="fill:#0052D9;" points="6,30 2,26 4,25 7,28 		"/>
		<polygon style="fill:#0052D9;" points="26,30 30,26 28,25 25,28 		"/>
	</g>
</g>
<g>
	<circle style="fill:#0052D9;" cx="16" cy="7" r="2"/>
	<circle style="fill:#0052D9;" cx="16" cy="17" r="2"/>
	<circle style="fill:#0052D9;" cx="16" cy="25" r="2"/>
	<circle style="fill:#0052D9;" cx="8" cy="12" r="2"/>
	<circle style="fill:#0052D9;" cx="24" cy="12" r="2"/>
	<circle style="fill:#0052D9;" cx="8" cy="21" r="2"/>
	<circle style="fill:#0052D9;" cx="24" cy="21" r="2"/>
	
		<polygon style="fill:none;stroke:#0052D9;stroke-width:2;stroke-linecap:round;stroke-linejoin:round;stroke-miterlimit:10;" points="
		7,12 16,7 25,12 16,17 	"/>
	<g>
		<line style="fill:none;stroke:#0052D9;stroke-width:2;stroke-linejoin:round;" x1="25" y1="20" x2="24.126" y2="20.486"/>
		
			<line style="fill:none;stroke:#0052D9;stroke-width:2;stroke-linejoin:round;stroke-dasharray:1.6591,1.6591;" x1="22.676" y1="21.291" x2="17.599" y2="24.111"/>
		<polyline style="fill:none;stroke:#0052D9;stroke-width:2;stroke-linejoin:round;" points="16.874,24.514 16,25 15.126,24.514 		
			"/>
		
			<line style="fill:none;stroke:#0052D9;stroke-width:2;stroke-linejoin:round;stroke-dasharray:1.6591,1.6591;" x1="13.676" y1="23.709" x2="8.599" y2="20.889"/>
		<line style="fill:none;stroke:#0052D9;stroke-width:2;stroke-linejoin:round;" x1="7.874" y1="20.486" x2="7" y2="20"/>
	</g>
	<rect x="7" y="12" style="fill:#0052D9;" width="2" height="9"/>
	<rect x="15" y="18" style="fill:#0052D9;" width="2" height="7"/>
	<rect x="23" y="12" style="fill:#0052D9;" width="2" height="9"/>
</g>
</svg>
