<?xml version="1.0" encoding="utf-8"?>
<!-- Generator: Adobe Illustrator 23.0.3, SVG Export Plug-In . SVG Version: 6.00 Build 0)  -->
<svg version="1.1" id="图层_1" xmlns="http://www.w3.org/2000/svg" xmlns:xlink="http://www.w3.org/1999/xlink" x="0px" y="0px"
	 width="32px" height="32px" viewBox="0 0 32 32" style="enable-background:new 0 0 32 32;" xml:space="preserve">
<g id="智能鉴黄-32px">
	<g id="Group" transform="translate(1.000000, 3.000000)">
		<g id="Group-15">
			<rect id="Rectangle-78" x="2" y="1" style="fill-rule:evenodd;clip-rule:evenodd;fill:#0052D9;" width="27" height="2"/>
			<rect id="Rectangle-78-Copy" x="1" y="23" style="fill-rule:evenodd;clip-rule:evenodd;fill:#0052D9;" width="27" height="2"/>
			<rect id="Rectangle-79" x="1" y="8" style="fill-rule:evenodd;clip-rule:evenodd;fill:#0052D9;" width="2" height="17"/>
			<rect id="Rectangle-79-Copy" x="27" y="1" style="fill-rule:evenodd;clip-rule:evenodd;fill:#0052D9;" width="2" height="17"/>
			<circle id="Oval-30" style="fill-rule:evenodd;clip-rule:evenodd;fill:#0052D9;" cx="2" cy="2" r="2"/>
			<circle id="Oval-30-Copy" style="fill-rule:evenodd;clip-rule:evenodd;fill:#0052D9;" cx="28" cy="24" r="2"/>
		</g>
	</g>
</g>
<rect x="7" y="19" style="fill:#0052D9;" width="5" height="2"/>
<rect x="7" y="15.05" style="fill:#0052D9;" width="8" height="2"/>
<rect x="7" y="11" style="fill:#0052D9;" width="8" height="2.1"/>
<path style="fill:#0052D9;" d="M17,11v10l4-2l4,2V11H17z M23,17.8l-1.1-0.6L21,16.8l-0.9,0.4L19,17.8V13h4V17.8z"/>
</svg>
