<svg version="1.2" xmlns="http://www.w3.org/2000/svg" viewBox="0 0 48 48" width="32" height="32">
	<title>blue-svg</title>
	<style>
		.s0 { fill: none;stroke: #0052D9;stroke-width: 2 } 
		.s1 { fill: #0052D9 } 
	</style>
	<path id="Layer" class="s0" d="m17.3 25.9c-1.7 0.1-3.1-1.3-3.1-2.9v-5.7c0-1.7 1.4-3 3-3 1.7 0 3 1.3 3 3v5.7c0 1.6-1.3 3-3 3z"/>
	<path id="Layer" class="s0" d="m24.9 22.9c0 4.3-3.4 7.7-7.6 7.7-4.2 0-7.7-3.5-7.7-7.6"/>
	<path id="Layer" class="s0" d="m17.3 30.6l-0.1 5.3"/>
	<path id="Layer" fill-rule="evenodd" class="s1" d="m0 8h34v11h-2v-9h-32zm0 32h34v-10h-2v8h-30v-23h-2z"/>
	<path id="Layer" class="s0" d="m33 16.5v2.5l14-5v21l-14-5v3"/>
</svg>