<?xml version="1.0" encoding="UTF-8"?>
<svg width="32px" height="32px" viewBox="0 0 32 32" version="1.1" xmlns="http://www.w3.org/2000/svg" xmlns:xlink="http://www.w3.org/1999/xlink">
    <title>视频处理 MPS 32_blue</title>
    <g id="最新的文档" stroke="none" stroke-width="1" fill="none" fill-rule="evenodd">
        <g id="视频处理-MPS-32_blue" fill-rule="nonzero">
            <g id="视频处理-MPS">
                <rect id="Rectangle-Copy" fill="#0052D9" opacity="0" x="0" y="0" width="32" height="32"></rect>
                <path d="M22,29 L22,25 L28,31 L23,31 L5,31 L5,7 L7,7 L7,29 L22,29 Z M9,1 L27,1 L27,25 L25,25 L25,3 L10,3 L10,7 L4,1 L9,1 Z M14,23 L18,23 L18,25 L14,25 L14,23 Z M15.1,10.5 L15.1,13.5 L17.5,12 L15.1,10.5 Z M13.5,7 C13.6,7 13.7,7 13.8,6.9 L20.7,11.4 C21,11.6 21,12.1 20.7,12.3 L13.8,16.8 C13.7,16.9 13.6,16.9 13.5,16.9 C13.3,16.9 13,16.7 13,16.4 L13,7.5 C13,7.2 13.3,7 13.5,7 Z" id="Combined-Shape" fill="#0052D9"></path>
            </g>
        </g>
    </g>
</svg>