<?xml version="1.0" encoding="UTF-8"?>
<svg width="32px" height="32px" viewBox="0 0 32 32" version="1.1" xmlns="http://www.w3.org/2000/svg" xmlns:xlink="http://www.w3.org/1999/xlink">
    <title>存储一体机TStor-32px</title>
    <g id="存储一体机TStor-32px" stroke="none" stroke-width="1" fill="none" fill-rule="evenodd">
        <rect id="Rectangle-Copy" fill="#0052D9" opacity="0" x="0" y="0" width="32" height="32"></rect>
        <g id="Group" transform="translate(2.000000, 0.000000)"></g>
        <path d="M16,0 L30,8 L28,9.2 L16,2.3 L4,9.2 L4,22.9 L16,29.7 L28,22.9 L28,13.2 L30,12 L30,24 L16,32 L2,24 L2,8 L16,0 Z M16.2230112,7.42772541 L23.6512446,11.716418 L23.6507777,12.8187254 L23.278152,13.051881 L20.153,15.004 L21.587438,15.8245108 L15.959628,18.7317405 L13.51,17.466 L10.7457777,19.1637254 L16.2230112,22.0413449 L21.7771786,19.1236399 L21.7767777,17.1267254 L23.6507777,15.9557254 L23.6512446,20.2061312 L16.2230112,24.2063276 L8.79477769,20.2061312 L8.79477769,18.1727254 L9.17377769,17.9437254 L9.16787035,17.9337304 L11.566,16.462 L10.331818,15.8245108 L15.959628,12.6055207 L18.306,13.947 L20.9297777,12.3087254 L16.2230112,9.59177121 L10.6679068,12.7979724 L10.6677777,14.0627254 L8.79477769,15.2337254 L8.79477769,11.716418 L16.2230112,7.42772541 Z M15.9588228,14.9302439 L14.534,15.744 L15.9588228,16.4807887 L17.383,15.745 L15.9588228,14.9302439 Z" id="形状结合" fill="#0052D9" fill-rule="nonzero"></path>
    </g>
</svg>