<?xml version="1.0" encoding="UTF-8"?>
<svg width="32px" height="32px" viewBox="0 0 32 32" version="1.1" xmlns="http://www.w3.org/2000/svg" xmlns:xlink="http://www.w3.org/1999/xlink">
    <title>产品图标一32px</title>
    <g id="页面-1" stroke="none" stroke-width="1" fill="none" fill-rule="evenodd">
        <g id="产品图标一32px" fill-rule="nonzero">
            <rect id="Rectangle-Copy" fill="#0052D9" opacity="0" x="0" y="0" width="32" height="32"></rect>
            <g id="_编组_" transform="translate(2.000000, 0.000000)" fill="#0052D9">
                <path d="M14,0 L28,8 L26,9.14 L26,9.16 L14,2.3 L2,9.16 L2,22.84 L14,29.7 L26,22.84 L26,13.14 L28,12 L28,24 L14,32 L0,24 L0,8 L14,0 Z M12.6158883,7.88358822 L13.0506499,11.5416786 L9.62,18.529 L11.662,20.342 L16.145,20.342 L18.667722,15 L23.938351,15 L19.1416,25.3977015 L9.9371295,25.3977015 L3.64158697,19.6066439 L7.063,12.703 L3.4511347,12.7038998 L6.650916,7.88358822 L12.6158883,7.88358822 Z M10.839,9.883 L7.723,9.883 L7.179,10.703 L10.2874711,10.7038998 L6.099,19.15 L10.717,23.397 L17.861,23.397 L20.813,16.999 L19.934,16.999 L17.4126568,22.3423491 L10.9035914,22.3423491 L7.15357128,19.0154522 L10.994,11.191 L10.839,9.883 Z M21.8519034,8.70276227 L20.205796,13.5644992 L18.421,13.564 L15.2765306,20.0748467 L10.7179348,18.080461 L15.3338065,8.70276227 L21.8519034,8.70276227 Z M19.063,10.702 L16.578,10.702 L13.436,17.086 L14.313,17.47 L17.1669325,11.5644992 L18.771,11.564 L19.063,10.702 Z" id="形状结合"></path>
            </g>
        </g>
    </g>
</svg>