<?xml version="1.0" encoding="UTF-8"?>
<svg width="32px" height="32px" viewBox="0 0 32 32" version="1.1" xmlns="http://www.w3.org/2000/svg" xmlns:xlink="http://www.w3.org/1999/xlink">
    <title>图片审核 IA-32px</title>
    <g id="图片审核-IA-32px" stroke="none" stroke-width="1" fill="none" fill-rule="evenodd">
        <g id="编组">
            <rect id="Rectangle-Copy" fill="#0052D9" opacity="0" x="2.27373675e-13" y="0" width="32" height="32"></rect>
            <path d="M16.08,0 C24.231,0 30.949,6.042 32,13.866 L32,13.866 L29.834,13.866 C28.8,7.223 23.046,2.133 16.08,2.133 C8.383,2.133 2.144,8.341 2.144,16 C2.144,23.659 8.383,29.867 16.08,29.867 C23.046,29.867 28.801,24.777 29.834,18.133 L29.834,18.133 L32,18.133 C30.95,25.958 24.231,32 16.08,32 C7.199,32 0,24.836 0,16 C0,7.164 7.199,0 16.08,0 Z M19.6906205,12.4666125 C22.7528667,12.4666125 25.2353076,14.9490534 25.2353076,18.0112996 C25.2353076,19.2856504 24.8053984,20.4595906 24.0827004,21.3959996 L25.7456996,23.0724961 L24.3260804,24.4812834 L22.5935956,22.7362272 C21.7492345,23.2561054 20.754948,23.5559866 19.6906205,23.5559866 C16.6283744,23.5559866 14.1459335,21.0735457 14.1459335,18.0112996 C14.1459335,14.9490534 16.6283744,12.4666125 19.6906205,12.4666125 Z M25.3587628,7.77688975 L25.3583998,13.9023725 C24.820303,13.1614149 24.1404558,12.5300687 23.3586811,12.0481569 L23.3585115,9.776 L8.99951145,9.776 L8.99951145,21.413 L13.5715604,21.4134883 C13.9988795,22.1804071 14.5661954,22.8586463 15.2389527,23.4136503 L7,23.4137926 L7,7.77688975 L25.3587628,7.77688975 Z M19.6906205,14.4666125 C17.7329439,14.4666125 16.1459335,16.0536229 16.1459335,18.0112996 C16.1459335,19.9689762 17.7329439,21.5559866 19.6906205,21.5559866 C21.6482972,21.5559866 23.2353076,19.9689762 23.2353076,18.0112996 C23.2353076,16.0536229 21.6482972,14.4666125 19.6906205,14.4666125 Z M13.1757147,17.1043431 C13.1353635,17.3971233 13.1145115,17.6961265 13.1145115,18 C13.1145115,18.5509785 13.1830653,19.0859454 13.3121087,19.5968364 L12.2542888,20.4817177 L10.9714696,18.9473204 L13.1757147,17.1043431 Z M12.4494754,11.0448978 C13.5540449,11.0448978 14.4494754,11.9403283 14.4494754,13.0448978 C14.4494754,14.1494673 13.5540449,15.0448978 12.4494754,15.0448978 C11.3449059,15.0448978 10.4494754,14.1494673 10.4494754,13.0448978 C10.4494754,11.9403283 11.3449059,11.0448978 12.4494754,11.0448978 Z M12.4494754,12.5448978 C12.173333,12.5448978 11.9494754,12.7687555 11.9494754,13.0448978 C11.9494754,13.3210402 12.173333,13.5448978 12.4494754,13.5448978 C12.7256178,13.5448978 12.9494754,13.3210402 12.9494754,13.0448978 C12.9494754,12.7687555 12.7256178,12.5448978 12.4494754,12.5448978 Z" id="形状结合" fill="#0052D9" fill-rule="nonzero"></path>
        </g>
    </g>
</svg>