<svg width="32" height="32" viewBox="0 0 32 32" fill="none" xmlns="http://www.w3.org/2000/svg">
<path d="M27.978 6.00006H4.71683C4.26459 6.78399 3.34262 7.1662 2.46896 6.93191C1.5953 6.69762 0.987793 5.90527 0.987793 5.00006C0.987793 4.09485 1.5953 3.30249 2.46896 3.06821C3.34262 2.83392 4.26459 3.21612 4.71683 4.00006H29.9764V21.0001H27.978V6.00006Z" fill="#0052D9"/>
<path d="M28.9772 29.0001C28.2675 28.9958 27.6134 28.6151 27.2586 28.0001H1.99903V11.0001H3.99741V26.0001H27.2586C27.7443 25.1582 28.7644 24.7878 29.6765 25.1221C30.5886 25.4564 31.1283 26.3987 30.9558 27.3553C30.7833 28.3119 29.9485 29.0059 28.9772 29.0001Z" fill="#0052D9"/>
<path d="M16.7446 21.2C19.43 20.8366 21.5 18.535 21.5 15.75C21.5 12.7124 19.0376 10.25 16 10.25C12.9624 10.25 10.5 12.7124 10.5 15.75C10.5 17.4036 11.2297 18.8867 12.3847 19.8949C12.0585 20.8321 12.1917 21.6925 12.5312 22.4013C10.1353 21.1493 8.5 18.6406 8.5 15.75C8.5 11.6079 11.8579 8.25 16 8.25C20.1421 8.25 23.5 11.6079 23.5 15.75C23.5 18.6503 21.8537 21.1661 19.4447 22.4139L17.0409 21.3416C16.9266 21.2933 16.8284 21.2456 16.7446 21.2Z" fill="#0052D9"/>
<path d="M14.4033 16.3077L13.2117 15.8478V15.0116C14.3336 14.5935 16.4132 13.2171 16.9368 11.1145C16.9368 11.1145 17.2506 11.3365 17.5182 13.4437C18.006 13.5831 19.0275 14.2297 19.2115 15.7015C18.7221 14.9012 18.5635 15.0116 18.5635 15.0116C18.6471 17.2903 18.2532 18.8163 16.1307 20.0232C16.0911 20.0458 16.0574 20.0704 16.0294 20.0969C15.2335 20.6022 15.1716 21.2207 15.7884 21.7548C15.9982 21.9364 19.8605 23.5957 20.2252 23.75H15.679C14.6198 23.5758 12.6409 22.0737 13.3479 20.1714C13.7165 19.1799 14.4467 18.7396 15.1571 18.3113C15.3822 18.1756 15.6052 18.0412 15.8141 17.8907H15.7927C16.123 17.6529 16.418 17.3753 16.6298 16.99C17.1288 16.0818 17.0423 15.3503 16.1307 15.2474C15.0938 15.1303 14.5427 15.8757 14.4033 16.3077Z" fill="#0052D9"/>
</svg>
