<?xml version="1.0" encoding="UTF-8"?>
<svg width="32px" height="32px" viewBox="0 0 32 32" version="1.1" xmlns="http://www.w3.org/2000/svg" xmlns:xlink="http://www.w3.org/1999/xlink">
    <title>数据湖-32px</title>
    <g id="数据湖-32px" stroke="none" stroke-width="1" fill="none" fill-rule="evenodd">
        <rect id="矩形" opacity="0" x="0" y="0" width="32" height="32"></rect>
        <path d="M4.01226,11.00026 L4.01226,26.00026 L27.29226,26.00026 C27.84426,25.04326 29.06826,24.71626 30.02426,25.26826 C30.98126,25.82026 31.30826,27.04426 30.75626,28.00026 C30.39726,28.62326 29.73126,29.00426 29.01226,29.0004401 C28.30226,28.99626 27.64726,28.61526 27.29226,28.00026 L2.01226,28.00026 L2.01226,11.00026 L4.01226,11.00026 Z M16,8 C20.418278,8 24,11.581722 24,16 C24,17.8486595 23.3729536,19.5508646 22.3199461,20.9055298 L20.8906459,19.4766776 C21.589169,18.4958324 22,17.2958935 22,16 C22,15.101308 21.8024185,14.2487636 21.448325,13.4834363 L21.1253971,13.5689179 C19.6286889,13.8168636 18.2604153,14.7131856 17.0077555,16.3069754 L16.8000472,16.5790734 C15.3164229,18.5791371 13.6094551,19.8252451 11.7666269,20.2533132 C12.1644911,20.6481001 12.6181265,20.9891005 13.1145391,21.2618972 C14.5149108,20.7856161 15.8119619,19.9202594 17.0081357,18.6550875 C17.0026299,18.6030687 17,18.5518415 17,18.5 C17,17.6715729 17.6715729,17 18.5,17 C19.3284271,17 20,17.6715729 20,18.5 C20,19.3284271 19.3284271,20 18.5,20 C18.4516051,20 18.4037454,19.9977082 18.3565237,19.9932271 C17.7262643,20.6682172 17.0695467,21.2598652 16.3858656,21.7591237 L16.044,21.999 L16.297293,21.9927632 C17.4792031,21.9350929 18.571282,21.5354365 19.4766776,20.8906459 L20.9055298,22.3199461 C19.5508646,23.3729536 17.8486595,24 16,24 C11.581722,24 8,20.418278 8,16 C8,14.1513405 8.62704639,12.4491354 9.68005389,11.0944702 L11.1093541,12.5233224 C10.410831,13.5041676 10,14.7041065 10,16 C10,16.8862695 10.192157,17.7276583 10.5370811,18.4847767 L10.915208,18.3853093 C12.3813584,18.1449003 13.7348094,17.2531368 14.9861288,15.6596236 L15.1937382,15.3875318 C16.660934,13.4096155 18.3593543,12.166189 20.2036207,11.7178213 C19.8166762,11.3386642 19.3779942,11.0104381 18.899296,10.7457295 C17.4943307,11.2422077 16.1941342,12.1326359 14.9960301,13.4283144 L15,13.5 C15,14.3284271 14.3284271,15 13.5,15 C12.6715729,15 12,14.3284271 12,13.5 C12,12.6715729 12.6715729,12 13.5,12 L13.590709,12.0026976 C14.2247749,11.323146 14.8894466,10.7351902 15.5817739,10.2408766 L15.929,10.002 L15.702707,10.0072368 C14.5207969,10.0649071 13.428718,10.4645635 12.5233224,11.1093541 L11.0944702,9.68005389 C12.4491354,8.62704639 14.1513405,8 16,8 Z M4.00026,3.26826 C4.30426,3.44326 4.55626,3.69626 4.73226,4.00026 L30.01226,4.00026 L30.01226,21.00026 L28.01226,21.00026 L28.01226,6.00026 L4.73226,6.00026 C4.17926,6.95726 2.95626,7.28426 2.00026,6.73226 C1.04326,6.18026 0.71626,4.95726 1.26826,4.00026 C1.82026,3.04326 3.04326,2.71626 4.00026,3.26826 Z" id="形状" fill="#0052D9"></path>
    </g>
</svg>