<?xml version="1.0" encoding="UTF-8"?>
<svg width="32px" height="32px" viewBox="0 0 32 32" version="1.1" xmlns="http://www.w3.org/2000/svg" xmlns:xlink="http://www.w3.org/1999/xlink">
    <title>云数据仓库-32px</title>
    <g id="云数据仓库-32px" stroke="none" stroke-width="1" fill="none" fill-rule="evenodd">
        <rect id="矩形" opacity="0" x="0" y="0" width="32" height="32"></rect>
        <path d="M4.01226,11.00026 L4.01226,26.00026 L27.29226,26.00026 C27.84426,25.04326 29.06826,24.71626 30.02426,25.26826 C30.98126,25.82026 31.30826,27.04426 30.75626,28.00026 C30.39726,28.62326 29.73126,29.00426 29.01226,29.0003521 C28.30226,28.99626 27.64726,28.61526 27.29226,28.00026 L2.01226,28.00026 L2.01226,11.00026 L4.01226,11.00026 Z M16,9 L22.9997473,15.1676833 L22.9997473,21.9955931 L20.9997473,21.9955931 L20.9991397,15.9955931 L15.9996962,11.8282136 L11,15.9955931 L11,21.9955931 L9,21.9955931 L9,15.1676833 L16,9 Z M15,15.9955931 L15,21.9955931 L13,21.9955931 L13,15.9955931 L15,15.9955931 Z M19,19.9955931 L19,21.9955931 L17,21.9955931 L17,19.9955931 L19,19.9955931 Z M4.00026,3.26826 C4.30426,3.44326 4.55626,3.69626 4.73226,4.00026 L30.01226,4.00026 L30.01226,21.00026 L28.01226,21.00026 L28.01226,6.00026 L4.73226,6.00026 C4.17926,6.95726 2.95626,7.28426 2.00026,6.73226 C1.04326,6.18026 0.71626,4.95726 1.26826,4.00026 C1.82026,3.04326 3.04326,2.71626 4.00026,3.26826 Z M19,15.9955931 L19,17.9955931 L17,17.9955931 L17,15.9955931 L19,15.9955931 Z" id="形状" fill="#0052D9" fill-rule="nonzero"></path>
    </g>
</svg>