<?xml version="1.0" encoding="UTF-8"?>
<svg width="32px" height="32px" viewBox="0 0 32 32" version="1.1" xmlns="http://www.w3.org/2000/svg" xmlns:xlink="http://www.w3.org/1999/xlink">
    <title>CIAM-32px</title>
    <g id="CIAM-32px" stroke="none" stroke-width="1" fill="none" fill-rule="evenodd">
        <rect id="Rectangle-Copy" fill="#0052D9" opacity="0" x="0.0543212891" y="0.0588531494" width="32" height="32"></rect>
        <g id="32px" transform="translate(1.000000, 3.000000)" fill-rule="nonzero">
            <g id="Group-15" fill="#0052D9">
                <rect id="Rectangle-79" x="1" y="8" width="2" height="17"></rect>
                <rect id="Rectangle-78" x="2" y="1" width="27" height="2"></rect>
                <rect id="Rectangle-78-Copy" x="1" y="23" width="28" height="2"></rect>
                <rect id="Rectangle-79-Copy" x="27" y="1" width="2" height="17"></rect>
                <circle id="Oval-30" cx="2" cy="2" r="2"></circle>
                <circle id="Oval-30-Copy" cx="28" cy="24" r="2"></circle>
            </g>
            <g id="编组" transform="translate(4.000000, 4.000000)">
                <g id="登录保护" transform="translate(9.000000, 9.000000) scale(-1, 1) translate(-9.000000, -9.000000) " fill="#0052D9">
                    <path d="M12.31,0.65 C14.9057383,0.65 17.01,2.75426168 17.01,5.35 C17.01,7.9457383 14.9057383,10.05 12.31,10.05 C12.295646,10.05 12.281307,10.0499357 12.2669833,10.0498072 C11.4379194,10.0363345 10.2656608,10.2030496 9.1395144,10.7085536 C7.3206849,11.524989 6.2391057,12.9858175 6.1641699,15.4070104 L6.16,15.68 L4.16,15.68 C4.16,12.271339 5.74417916,10.0403976 8.3204856,8.8839464 C8.5265352,8.7914549 8.7355373,8.7074786 8.9468219,8.6315585 C8.1196675,7.7859231 7.61,6.6274812 7.61,5.35 C7.61,2.75426168 9.7142617,0.65 12.31,0.65 Z M12.31,2.65 C10.8188312,2.65 9.61,3.85883118 9.61,5.35 C9.61,6.7838162 10.7276324,7.9565953 12.1392478,8.0446881 L12.308,8.0499778 L12.4773966,8.044509 C13.8374332,7.9585882 14.9201787,6.8749464 15.0046881,5.52075225 L15.01,5.35 C15.01,3.85883118 13.8011688,2.65 12.31,2.65 Z" id="形状结合" transform="translate(10.585000, 8.165000) scale(-1, 1) translate(-10.585000, -8.165000) "></path>
                    <path d="M8.82928483,0.646623529 C11.4250231,0.646623529 13.5292848,2.75088521 13.5292848,5.34662353 C13.5292848,7.94236183 11.4250231,10.0466235 8.82928483,10.0466235 C8.81493083,10.0466235 8.80059183,10.0465592 8.78626813,10.0464307 C7.95720423,10.032958 6.78494563,10.1996731 5.65879923,10.7051771 C3.83996973,11.5216125 2.75839053,12.982441 2.68345473,15.4036339 L2.67928483,15.6766235 L0.679284828,15.6766235 C0.679284828,12.2679625 2.26346399,10.0370211 4.83977043,8.88056993 C5.04582003,8.78807843 5.25482213,8.70410213 5.46610673,8.62818203 C4.63895233,7.78254663 4.12928483,6.62410473 4.12928483,5.34662353 C4.12928483,2.75088521 6.23354653,0.646623529 8.82928483,0.646623529 Z M8.82928483,2.64662353 C7.33811603,2.64662353 6.12928483,3.85545471 6.12928483,5.34662353 C6.12928483,6.78043973 7.24691723,7.95321883 8.65853263,8.04131163 L8.82728483,8.04660133 L8.99668143,8.04113253 C10.356718,7.95521173 11.4394635,6.87156993 11.5239729,5.51737578 L11.5292848,5.34662353 C11.5292848,3.85545471 10.3204536,2.64662353 8.82928483,2.64662353 Z" id="形状结合"></path>
                    <rect id="Rectangle-173-Copy" transform="translate(8.843160, 16.300000) scale(-1, 1) translate(-8.843160, -16.300000) " x="0.6831602" y="15.3" width="16.32" height="2"></rect>
                </g>
                <path d="M15.5,2 C16.0021315,2.25814011 16.4397173,2.61801346 16.8127577,3.07962005 C18.0783454,4.92531907 17.8553926,6.75661668 16.1438992,8.57351288 C18.3812997,9.81792414 19.5,11.8185672 19.5,14.575442 C19.5,15.7170526 19.5,16.1725163 19.5,15.9418331" id="路径-5" stroke="#0052D9" stroke-width="2"></path>
            </g>
        </g>
    </g>
</svg>