<?xml version="1.0" encoding="UTF-8"?>
<svg width="32px" height="32px" viewBox="0 0 32 32" version="1.1" xmlns="http://www.w3.org/2000/svg" xmlns:xlink="http://www.w3.org/1999/xlink">
    <title>Web应用托管-32px</title>
    <g id="Web应用托管-32px" stroke="none" stroke-width="1" fill="none" fill-rule="evenodd">
        <g id="编组">
            <rect id="Rectangle-Copy" fill="#0052D9" opacity="0" x="2.27373675e-13" y="0" width="32" height="32"></rect>
            <g id="编组-11">
                <g id="编组-4备份-2" transform="translate(7.000000, 7.500000)" fill="#0052D9" fill-rule="nonzero">
                    <polygon id="路径-2备份" points="17 -1 17 6 8.10259473 6 8.10259473 4 15 4 15 1 4 1 4 4.45920181 2 4.45920181 2 -1"></polygon>
                    <path d="M4.3641982,6 C5.74146718,6 6.53398322,6.24296306 7.51350722,6.84260868 L7.92912385,7.1073743 C8.62971947,7.55697644 9.12750559,7.75928674 10.0326506,7.85031325 L11.0933783,7.9364318 L11.555014,7.98011175 C11.6267652,7.98753712 11.6960076,7.99506798 11.762869,8.00275354 L12.1364891,8.05111674 C12.8885271,8.16163123 13.2814015,8.31491784 13.596022,8.61906804 C13.9933661,9.00318881 14.0735297,9.49491634 13.9433451,9.9910139 C13.9202021,10.0792052 13.8918165,10.1647891 13.8557459,10.2584979 L13.7735422,10.4574816 L13.6401364,10.7598929 C12.9356968,12.3714498 11.5922054,13.2772676 9.50885053,13.2772676 C8.16396079,13.2772676 6.67724687,12.8204009 5.03804465,11.9275052 L4.68444914,11.7295041 L5.68137633,9.99568283 C7.18215954,10.8586158 8.4623564,11.2772676 9.50885053,11.2772676 C10.7111163,11.2772676 11.3407437,10.9004383 11.7360982,10.1115897 L11.777,10.023 L11.5766684,9.99671025 L11.0798989,9.94372317 L10.5081575,9.89471857 L10.1443197,9.86716414 C8.81176923,9.76979771 7.99814467,9.49331707 7.06635281,8.92657402 L6.64293744,8.65761258 C5.86126364,8.15372987 5.41791136,8 4.3641982,8 C2.84704265,8 2.17646913,8.38050792 2.01122509,9.15940176 L2,9.222 L2,13 L0,13 L0,9.13946869 L0.00981420738,8.99971141 C0.291098311,7.00680248 1.87424047,6 4.3641982,6 Z" id="路径-3备份"></path>
                    <path d="M15.185998,8.83866522 L15.4240582,8.67364782 C17.978233,6.84934572 21.1714784,9.30126516 19.6595538,11.6154574 C17.8683766,14.357081 15.1985473,16.3423889 13.2511336,16.7589428 L13.1501454,16.779222 L12.9236749,16.8170819 L12.6644578,16.8513524 L12.372389,16.882044 L12.0473633,16.9091673 L11.4978008,16.9431846 L10.873494,16.9692322 L10.1740881,16.9873457 L9.66592045,16.9950311 L8.84056067,17 L7.93915547,16.9971294 L6.26685981,16.9750205 L3.97765753,16.9201068 L0.913898383,16.8172653 L-0.039793642,16.7802713 L0.039793642,14.7818555 L1.80474704,14.8484734 L2.91265018,14.8861015 L4.96247309,14.9451795 L6.35370758,14.9754215 L8.01238111,14.9971354 L9.2168901,14.9991284 L10.1305643,14.9892556 L10.9269532,14.9687129 L11.3923903,14.9491231 L11.8052051,14.9248407 L12.1651993,14.8958854 L12.4721749,14.8622772 L12.7259336,14.8240359 C12.763781,14.8172773 12.7994027,14.8103266 12.8327947,14.803184 C14.2352553,14.5031962 16.4692092,12.842009 17.9852166,10.5215675 C18.185003,10.2157692 17.4722592,9.66849198 16.5864888,10.3011475 C15.2471038,11.2577942 13.9551232,11.7825773 12.7088675,11.8456756 L12.4425119,11.8521191 L12.4473661,9.85212501 C13.2494127,9.85407164 14.1628413,9.5260408 15.185998,8.83866522 Z" id="路径-4备份"></path>
                </g>
                <rect id="Rectangle-Copy" fill="#0052D9" opacity="0" x="2.27373675e-13" y="0" width="32" height="32"></rect>
                <path d="M16,0 C23.811235,0 30.3151005,5.59751424 31.7192447,13.000191 L29.677892,13.0003278 C28.3046747,6.70979962 22.7023537,2 16,2 C8.2680135,2 2,8.2680135 2,16 C2,23.7319865 8.2680135,30 16,30 C23.052652,30 28.8872801,24.7850199 29.8581018,18.0008423 L31.8761139,18.0007904 C30.8915668,25.8930309 24.1589629,32 16,32 C7.163444,32 0,24.836556 0,16 C0,7.163444 7.163444,0 16,0 Z" id="Combined-Shape" fill="#0052D9" fill-rule="nonzero"></path>
            </g>
        </g>
    </g>
</svg>