<svg width="32" height="32" viewBox="0 0 32 32" fill="none" xmlns="http://www.w3.org/2000/svg">
<path fill-rule="evenodd" clip-rule="evenodd" d="M22.4117 3.91977V4.89303H23.385C24.9975 4.89303 26.3048 6.20026 26.3048 7.81281V17.5454L15.6194 14.6312C15.6058 14.6275 15.5918 14.6256 15.5777 14.6256C15.0519 14.6256 14.6256 15.0518 14.6256 15.5776C14.6256 15.5917 14.6275 15.6058 14.6312 15.6194L17.5454 26.3047H7.81282C6.20027 26.3047 4.89304 24.9975 4.89304 23.3849V22.4117H3.91978C2.30723 22.4117 1 21.1045 1 19.4919V3.91977C1 2.30723 2.30723 1 3.91978 1H19.4919C21.1045 1 22.4117 2.30723 22.4117 3.91977ZM3.91978 2.94652H19.4919C20.0295 2.94652 20.4652 3.38226 20.4652 3.91977V4.89303H7.81282C6.20027 4.89303 4.89304 6.20026 4.89304 7.81281V20.4652H3.91978C3.38226 20.4652 2.94652 20.0294 2.94652 19.4919V3.91977C2.94652 3.38226 3.38226 2.94652 3.91978 2.94652ZM7.81282 6.83955H23.385C23.9225 6.83955 24.3582 7.27529 24.3582 7.81281V14.9969L16.1316 12.7533C15.9511 12.704 15.7648 12.6791 15.5777 12.6791C13.9768 12.6791 12.6791 13.9768 12.6791 15.5776C12.6791 15.7647 12.7041 15.951 12.7533 16.1315L14.9969 24.3582H7.81282C7.2753 24.3582 6.83956 23.9225 6.83956 23.3849V7.81281C6.83956 7.27529 7.2753 6.83955 7.81282 6.83955Z" fill="#0052D9"/>
<path fill-rule="evenodd" clip-rule="evenodd" d="M18.183 16.7233C17.2869 16.4476 16.4475 17.2869 16.7233 18.183L20.4131 30.175C20.6719 31.0162 21.7329 31.2797 22.3552 30.6573L30.6573 22.3552C31.2797 21.7329 31.0162 20.672 30.175 20.4131L18.183 16.7233ZM19.6279 21.0043L21.8932 28.3665L24.4417 25.818L19.6279 21.0043ZM25.8181 24.4416L28.3665 21.8933L21.0045 19.628L25.8181 24.4416Z" fill="#0052D9"/>
</svg>
