<svg width="32" height="32" viewBox="0 0 32 32" fill="none" xmlns="http://www.w3.org/2000/svg">
<path d="M5.33398 4.6665H29.334V17.9998" stroke="#0052D9" stroke-width="2"/>
<path d="M10.898 22L8.324 8.68H11.042L12.086 15.178C12.302 16.582 12.5 18.004 12.716 19.444H12.788C13.058 18.004 13.346 16.582 13.634 15.178L15.164 8.68H17.45L18.998 15.178C19.286 16.564 19.538 18.004 19.844 19.444H19.934C20.114 18.004 20.33 16.582 20.51 15.178L21.59 8.68H24.11L21.644 22H18.314L16.838 15.412C16.604 14.386 16.424 13.342 16.262 12.334H16.19C16.01 13.342 15.812 14.386 15.614 15.412L14.156 22H10.898Z" fill="#0052D9"/>
<path d="M3.33398 12.6665V25.9998H26.6673" stroke="#0052D9" stroke-width="2"/>
<path d="M6 4.6665C6 5.77107 5.10457 6.6665 4 6.6665C2.89543 6.6665 2 5.77107 2 4.6665C2 3.56193 2.89543 2.6665 4 2.6665C5.10457 2.6665 6 3.56193 6 4.6665Z" fill="#0052D9"/>
<path d="M30 25.6665C30 26.7711 29.1046 27.6665 28 27.6665C26.8954 27.6665 26 26.7711 26 25.6665C26 24.5619 26.8954 23.6665 28 23.6665C29.1046 23.6665 30 24.5619 30 25.6665Z" fill="#0052D9"/>
</svg>
