<svg width="32" height="32" viewBox="0 0 32 32" fill="none" xmlns="http://www.w3.org/2000/svg">
<g clip-path="url(#clip0_1041_14433)">
<path fill-rule="evenodd" clip-rule="evenodd" d="M29.9818 18C29.0073 24.7793 23.1525 30 16.0621 30C8.28852 30 2 23.7247 2 16C2 8.27531 8.28852 2 16.0621 2C23.1525 2 29.0073 7.22066 29.9818 14H32C31.012 6.10738 24.2531 0 16.0621 0C7.19126 0 0 7.16344 0 16C0 24.8366 7.19126 32 16.0621 32C24.2531 32 31.012 25.8926 32 18H29.9818Z" fill="#0052D9"/>
<path fill-rule="evenodd" clip-rule="evenodd" d="M23.7943 11.5L16 7L8.20581 11.5L16 16L23.7943 11.5ZM19.7943 11.5L16 9.3094L12.2058 11.5L16 13.6906L19.7943 11.5Z" fill="#0052D9"/>
<path fill-rule="evenodd" clip-rule="evenodd" d="M8.20581 16.2V14L10 15.0359V17.2359L8.20581 16.2ZM15 20.1227L12 18.3906V16.1906L16 18.5L23.7942 14L23.7943 16.2L17 20.1227V22.2227L23.7942 18.3L23.7943 20.5L16 25L8.20581 20.5V18.3L15 22.2227V20.1227Z" fill="#0052D9"/>
</g>
<defs>
<clipPath id="clip0_1041_14433">
<rect width="32" height="32" fill="white"/>
</clipPath>
</defs>
</svg>
