<svg width="32" height="32" viewBox="0 0 32 32" fill="none" xmlns="http://www.w3.org/2000/svg">
<g clip-path="url(#clip0_332_1462)">
<path d="M14.9309 0.036266C23.3337 -0.526431 30.7343 5.52079 31.8571 13.8672H29.7238C28.5879 6.57199 21.9351 1.44608 14.5915 2.20786C7.24778 2.96965 1.78877 9.35196 2.1745 16.725C2.56022 24.098 8.65539 29.8758 16.0385 29.8672C22.867 29.8592 28.6733 24.8811 29.7238 18.1338H31.8571C30.7343 26.4802 23.3337 32.5275 14.9309 31.9648C6.52818 31.4021 0 24.4221 0 16.0005C0 7.57892 6.52818 0.598963 14.9309 0.036266ZM16.2069 6.8453L20.9476 9.58236L20.947 13.904L24.6839 16.0615V21.5356L19.9432 24.2727L16.207 22.115L12.4706 24.2727L7.72987 21.5356V16.0615L11.466 13.904L11.4662 9.58236L16.2069 6.8453ZM19.944 15.635L17.211 17.213V20.386L19.943 21.962L22.683 20.381V18.352V17.213L21.667 16.629L19.944 15.635ZM12.468 15.635L9.729 17.215V20.381L12.47 21.962L15.202 20.386V18.356V17.213L14.192 16.63L12.468 15.635ZM16.206 9.155L13.466 10.736V13.899L16.207 15.481L18.947 13.899V11.873V10.736L16.206 9.155Z" fill="#0052D9"/>
</g>
<defs>
<clipPath id="clip0_332_1462">
<rect width="32" height="32" fill="white"/>
</clipPath>
</defs>
</svg>
