<?xml version="1.0" encoding="UTF-8"?>
<svg width="32px" height="32px" viewBox="0 0 32 32" version="1.1" xmlns="http://www.w3.org/2000/svg" xmlns:xlink="http://www.w3.org/1999/xlink">
    <title>高性能计算 -32px</title>
    <g id="页面-1" stroke="none" stroke-width="1" fill="none" fill-rule="evenodd">
        <g id="高性能计算--32px" fill-rule="nonzero">
            <rect id="矩形" stroke="#0052D9" fill="#0052D9" opacity="0" x="0.5" y="0.5" width="31" height="31"></rect>
            <path d="M16.08,0 C24.231,0 30.949,6.042 32,13.866 L32,13.866 L29.834,13.866 C28.8,7.223 23.046,2.133 16.08,2.133 C8.383,2.133 2.144,8.341 2.144,16 C2.144,23.659 8.383,29.867 16.08,29.867 C23.046,29.867 28.801,24.777 29.834,18.133 L29.834,18.133 L32,18.133 C30.95,25.958 24.231,32 16.08,32 C7.199,32 0,24.836 0,16 C0,7.164 7.199,0 16.08,0 Z M16.1790301,4.1785297 C17.8358843,4.1785297 19.1790301,5.52167545 19.1790301,7.1785297 C19.1790301,8.48071358 18.349372,9.58912044 17.1898185,10.0039875 L17.1896802,11.8824918 C18.9930793,12.2702463 20.3448276,13.873816 20.3448276,15.7931034 C20.3448276,16.3979726 20.2105701,16.9714842 19.9702293,17.485464 L22.3450731,19.1154473 C22.7823586,18.8664032 23.2883585,18.7241379 23.8275862,18.7241379 C25.4844405,18.7241379 26.8275862,20.0672837 26.8275862,21.7241379 C26.8275862,23.3809922 25.4844405,24.7241379 23.8275862,24.7241379 C22.170732,24.7241379 20.8275862,23.3809922 20.8275862,21.7241379 C20.8275862,21.341787 20.8991147,20.9761423 21.0295204,20.6398554 L18.6922058,19.0322556 C18.0329189,19.5108618 17.2218338,19.7931034 16.3448276,19.7931034 C15.4024676,19.7931034 14.5362195,19.4672296 13.8526251,18.9220238 L11.7984538,20.6408563 C11.9286134,20.9768678 12,21.3421663 12,21.7241379 C12,23.3809922 10.6568542,24.7241379 9,24.7241379 C7.34314575,24.7241379 6,23.3809922 6,21.7241379 C6,20.0672837 7.34314575,18.7241379 9,18.7241379 C9.54422828,18.7241379 10.0546096,18.8690541 10.4946609,19.1224034 L12.6476728,17.3226215 C12.4525232,16.8514301 12.3448276,16.3348436 12.3448276,15.7931034 C12.3448276,13.9856261 13.5436684,12.458153 15.1895747,11.9624596 L15.1890242,10.0113364 C14.0186142,9.6023351 13.1790301,8.48848009 13.1790301,7.1785297 C13.1790301,5.52167545 14.5221759,4.1785297 16.1790301,4.1785297 Z M9,20.7241379 C8.44771525,20.7241379 8,21.1718532 8,21.7241379 C8,22.2764227 8.44771525,22.7241379 9,22.7241379 C9.55228475,22.7241379 10,22.2764227 10,21.7241379 C10,21.1718532 9.55228475,20.7241379 9,20.7241379 Z M23.8275862,20.7241379 C23.2753015,20.7241379 22.8275862,21.1718532 22.8275862,21.7241379 C22.8275862,22.2764227 23.2753015,22.7241379 23.8275862,22.7241379 C24.379871,22.7241379 24.8275862,22.2764227 24.8275862,21.7241379 C24.8275862,21.1718532 24.379871,20.7241379 23.8275862,20.7241379 Z M16.3448276,13.7931034 C15.2402581,13.7931034 14.3448276,14.6885339 14.3448276,15.7931034 C14.3448276,16.8976729 15.2402581,17.7931034 16.3448276,17.7931034 C17.4493971,17.7931034 18.3448276,16.8976729 18.3448276,15.7931034 C18.3448276,14.6885339 17.4493971,13.7931034 16.3448276,13.7931034 Z M16.1790301,6.1785297 C15.6267454,6.1785297 15.1790301,6.62624495 15.1790301,7.1785297 C15.1790301,7.73081445 15.6267454,8.1785297 16.1790301,8.1785297 C16.7313148,8.1785297 17.1790301,7.73081445 17.1790301,7.1785297 C17.1790301,6.62624495 16.7313148,6.1785297 16.1790301,6.1785297 Z" id="形状结合" fill="#0052D9"></path>
        </g>
    </g>
</svg>