<svg width="32" height="32" viewBox="0 0 32 32" fill="none" xmlns="http://www.w3.org/2000/svg">
<path d="M26.4248 18.2099L25.7176 17.5028C25.6025 17.618 25.5172 17.7596 25.4692 17.9153L26.4248 18.2099ZM10.5655 20.2678L10.894 19.3233C10.7116 19.2599 10.5148 19.2506 10.3273 19.2966L10.5655 20.2678ZM6.13649 25.3007L7.13647 25.3057C7.13658 25.2849 7.13603 25.2641 7.13484 25.2433L6.13649 25.3007ZM10.3194 30.8481L10.6024 29.889C10.5906 29.8855 10.5787 29.8823 10.5668 29.8792L10.3194 30.8481ZM19.8261 26.531L19.1731 25.7736L19.1716 25.7749L19.8261 26.531ZM26.1788 18.7691L25.3308 18.2391C25.3236 18.2505 25.3168 18.262 25.3101 18.2736L26.1788 18.7691ZM26.4472 18.1875L27.3959 18.5037C27.5425 18.0637 27.3674 17.5806 26.9729 17.3368C26.5783 17.093 26.0679 17.1525 25.74 17.4805L26.4472 18.1875ZM17.5076 17.028L16.6008 17.4496L17.1264 18.5803L18.116 17.8216L17.5076 17.028ZM7.47603 10.1345L6.6967 10.7612L6.71761 10.7872L6.7402 10.8117L7.47603 10.1345ZM6.93918 3.55818L7.77736 4.10357L7.797 4.07338L7.81442 4.04186L6.93918 3.55818ZM11.234 1.00816V2.00816H11.2705L11.3069 2.00549L11.234 1.00816ZM13.8287 1.67922L14.3357 0.817281L14.3228 0.809645L14.3095 0.802403L13.8287 1.67922ZM14.8353 2.55159L14.0353 3.15159L14.8353 2.55159ZM19.2306 9.79139L18.2955 10.1456L18.2988 10.1543L18.3022 10.163L19.2306 9.79139ZM19.9198 13.582L18.9218 13.5196L18.921 13.532L18.9205 13.5443L19.9198 13.582ZM10.5644 20.2877L10.8666 19.3345C10.3975 19.1857 9.89 19.4003 9.66994 19.8405L10.5644 20.2877ZM20.2276 21.6074L20.2276 20.6074C20.2188 20.6074 20.21 20.6075 20.2012 20.6078L20.2276 21.6074ZM23.5605 21.0706L23.1863 20.1432C23.1777 20.1467 23.1691 20.1503 23.1606 20.154L23.5605 21.0706ZM25.9763 19.214L26.8148 19.759C26.818 19.754 26.8212 19.749 26.8243 19.744L25.9763 19.214ZM26.5132 18.0732L27.4619 18.3894C27.4655 18.3785 27.4689 18.3676 27.4722 18.3565L26.5132 18.0732ZM24.4553 10.5573L23.6668 11.1724C23.6741 11.1818 23.6817 11.1911 23.6893 11.2003L24.4553 10.5573ZM21.5026 7.51521L20.853 8.27544L20.8531 8.27559L21.5026 7.51521ZM14.0614 1.86328L14.5901 1.0145C14.1669 0.750843 13.6141 0.839282 13.2942 1.22182C12.9744 1.60437 12.9852 2.1641 13.3196 2.53396L14.0614 1.86328ZM20.0263 13.8679L19.0337 13.7467C19.032 13.7605 19.0306 13.7743 19.0295 13.7882L20.0263 13.8679ZM10.542 20.3324L9.64757 19.8852C9.47079 20.2388 9.51886 20.6633 9.77022 20.9683C10.0216 21.2734 10.429 21.4018 10.8099 21.2959L10.542 20.3324ZM25.4692 17.9153C25.1523 18.9431 24.3702 19.6372 23.1571 20.0803C21.9205 20.5318 20.3306 20.68 18.6422 20.6299C15.2686 20.5299 11.8409 19.6527 10.894 19.3233L10.237 21.2123C11.3479 21.5987 14.9775 22.5221 18.5829 22.629C20.3841 22.6824 22.2641 22.5356 23.8432 21.9589C25.4457 21.3737 26.8249 20.3063 27.3804 18.5045L25.4692 17.9153ZM10.3273 19.2966C7.69805 19.9412 6.35142 21.4067 5.70161 22.7858C5.38584 23.456 5.24536 24.0812 5.18324 24.5408C5.15205 24.7716 5.14016 24.964 5.13634 25.1039C5.13442 25.174 5.13452 25.2313 5.13526 25.2742C5.13564 25.2956 5.13617 25.3135 5.13671 25.3275C5.13698 25.3345 5.13724 25.3406 5.13749 25.3457C5.13761 25.3483 5.13773 25.3506 5.13783 25.3526C5.13789 25.3537 5.13794 25.3546 5.13799 25.3556C5.13802 25.356 5.13805 25.3566 5.13806 25.3569C5.1381 25.3575 5.13813 25.3581 6.13649 25.3007C7.13484 25.2433 7.13487 25.2439 7.1349 25.2445C7.13491 25.2446 7.13494 25.2452 7.13496 25.2455C7.135 25.2462 7.13503 25.2468 7.13506 25.2474C7.13512 25.2485 7.13517 25.2494 7.1352 25.2501C7.13526 25.2514 7.13528 25.2519 7.13527 25.2515C7.13524 25.2508 7.13509 25.2466 7.13496 25.2393C7.1347 25.2245 7.13453 25.1971 7.13559 25.1586C7.1377 25.0812 7.14469 24.9606 7.16522 24.8087C7.20656 24.5028 7.30095 24.0837 7.51084 23.6383C7.91236 22.7861 8.78023 21.7351 10.8036 21.239L10.3273 19.2966ZM6.13649 25.3007C5.1365 25.2957 5.1365 25.2962 5.13649 25.2967C5.13649 25.2969 5.13649 25.2974 5.13649 25.2978C5.13649 25.2985 5.13649 25.2993 5.13649 25.3002C5.13648 25.302 5.13648 25.3041 5.13649 25.3064C5.1365 25.3111 5.13653 25.3169 5.1366 25.3237C5.13674 25.3374 5.13703 25.3553 5.1376 25.3773C5.13875 25.4213 5.14105 25.4815 5.1456 25.556C5.15469 25.7048 5.17285 25.9118 5.20917 26.1608C5.28139 26.6561 5.42768 27.3333 5.7274 28.0552C6.3347 29.518 7.58874 31.183 10.072 31.8171L10.5668 29.8792C8.8448 29.4396 8.00737 28.3309 7.57453 27.2883C7.35418 26.7576 7.24323 26.2493 7.18823 25.8722C7.16094 25.6851 7.14799 25.5342 7.14188 25.4341C7.13883 25.3841 7.1375 25.3472 7.13692 25.3251C7.13663 25.3141 7.13653 25.3068 7.1365 25.3035C7.13648 25.3018 7.13648 25.3011 7.13648 25.3015C7.13648 25.3017 7.13648 25.3021 7.13648 25.3028C7.13648 25.3032 7.13648 25.3036 7.13648 25.3041C7.13648 25.3043 7.13648 25.3047 7.13648 25.3049C7.13648 25.3053 7.13647 25.3057 6.13649 25.3007ZM10.0364 31.8072C11.7801 32.3218 13.7029 31.7433 15.43 30.8536C17.1922 29.9458 18.9553 28.6074 20.4806 27.2871L19.1716 25.7749C17.6994 27.0493 16.0737 28.2722 14.5141 29.0756C12.9195 29.8971 11.5877 30.1798 10.6024 29.889L10.0364 31.8072ZM20.479 27.2884C23.1639 24.9738 25.2712 22.3787 27.0474 19.2645L25.3101 18.2736C23.6416 21.199 21.6777 23.6145 19.1731 25.7736L20.479 27.2884ZM27.0268 19.2991C27.1882 19.0408 27.3088 18.7648 27.3959 18.5037L25.4985 17.8713C25.4513 18.0128 25.393 18.1395 25.3308 18.2391L27.0268 19.2991ZM25.74 17.4805L25.7176 17.5028L27.132 18.9169L27.1543 18.8945L25.74 17.4805ZM18.4144 16.6065C17.2829 14.1725 15.1646 13.0978 13.2299 12.268C11.2001 11.3974 9.44794 10.8005 8.21185 9.45738L6.7402 10.8117C8.34492 12.5554 10.6467 13.3362 12.4415 14.1061C14.3316 14.9167 15.8086 15.7454 16.6008 17.4496L18.4144 16.6065ZM8.25535 9.50793C7.13304 8.11211 7.03465 6.76804 7.19663 5.76421C7.27941 5.25122 7.43227 4.82215 7.56391 4.52326C7.62933 4.37473 7.68828 4.26112 7.72837 4.18855C7.74838 4.15234 7.76354 4.12661 7.77227 4.11213C7.77663 4.1049 7.77938 4.1005 7.78029 4.09904C7.78075 4.0983 7.78076 4.09831 7.78028 4.09906C7.78004 4.09943 7.77968 4.1 7.77919 4.10075C7.77895 4.10112 7.77868 4.10155 7.77837 4.10202C7.77822 4.10225 7.77797 4.10264 7.77789 4.10276C7.77763 4.10316 7.77736 4.10357 6.93918 3.55818C6.101 3.01279 6.10072 3.01322 6.10042 3.01367C6.10032 3.01384 6.10001 3.0143 6.0998 3.01464C6.09936 3.01531 6.0989 3.01603 6.0984 3.0168C6.0974 3.01835 6.09628 3.0201 6.09503 3.02206C6.09252 3.02597 6.08952 3.03071 6.08604 3.03626C6.07908 3.04735 6.07021 3.0617 6.05966 3.07919C6.03857 3.11417 6.01067 3.16184 5.97777 3.2214C5.91205 3.34035 5.82578 3.50775 5.73357 3.71712C5.54995 4.13403 5.33792 4.72832 5.22218 5.4456C4.98711 6.90232 5.15715 8.84644 6.6967 10.7612L8.25535 9.50793ZM6.93918 3.55818C7.81442 4.04186 7.81422 4.04223 7.81403 4.04258C7.81397 4.04268 7.81378 4.04302 7.81366 4.04323C7.81343 4.04365 7.81322 4.04403 7.81303 4.04438C7.81264 4.04507 7.81234 4.04561 7.81212 4.046C7.81168 4.04679 7.81156 4.047 7.81176 4.04664C7.81217 4.04593 7.81386 4.04297 7.81685 4.03791C7.82283 4.02779 7.83393 4.00933 7.85014 3.98373C7.88264 3.93243 7.93523 3.85316 8.00783 3.75522C8.15398 3.55804 8.37561 3.29278 8.67103 3.02864C9.26152 2.50067 10.108 2.00816 11.234 2.00816V0.00815689C9.47435 0.00815689 8.17346 0.790655 7.33795 1.5377C6.92037 1.91106 6.60934 2.2833 6.40109 2.56426C6.29649 2.70538 6.21644 2.82533 6.1606 2.91348C6.13264 2.95761 6.11065 2.99394 6.09458 3.02117C6.08654 3.03479 6.07997 3.04614 6.07486 3.05508C6.07231 3.05955 6.07013 3.06342 6.06831 3.06666C6.0674 3.06828 6.06658 3.06974 6.06585 3.07105C6.06549 3.0717 6.06515 3.07232 6.06483 3.07289C6.06467 3.07318 6.06445 3.07358 6.06437 3.07372C6.06415 3.07411 6.06394 3.07449 6.93918 3.55818ZM11.3069 2.00549C11.9508 1.95838 12.7347 2.21976 13.3479 2.55603L14.3095 0.802403C13.5359 0.378139 12.3513 -0.0762758 11.161 0.0108232L11.3069 2.00549ZM13.3217 2.54115C13.6172 2.71498 13.8644 2.92367 14.0353 3.15159L15.6353 1.95159C15.2694 1.46371 14.8008 1.09082 14.3357 0.817281L13.3217 2.54115ZM14.0353 3.15159C16.8476 6.9013 17.7809 8.7873 18.2955 10.1456L20.1658 9.43716C19.5619 7.84282 18.5137 5.78944 15.6353 1.95159L14.0353 3.15159ZM19.2306 9.79139C18.3022 10.163 18.3022 10.1629 18.3021 10.1627C18.3021 10.1627 18.302 10.1625 18.302 10.1625C18.302 10.1623 18.3019 10.1622 18.3019 10.1621C18.3018 10.1619 18.3018 10.1618 18.3018 10.1619C18.3018 10.1619 18.302 10.1625 18.3024 10.1635C18.3032 10.1656 18.3048 10.1695 18.307 10.1751C18.3113 10.1865 18.3184 10.2049 18.3277 10.2299C18.3464 10.28 18.374 10.3562 18.4073 10.4542C18.4742 10.6507 18.5631 10.932 18.6487 11.2648C18.8238 11.9454 18.9682 12.7764 18.9218 13.5196L20.9179 13.6444C20.9833 12.5982 20.7831 11.5338 20.5856 10.7665C20.485 10.3753 20.3806 10.0445 20.3007 9.8099C20.2607 9.69232 20.2266 9.59815 20.2019 9.53179C20.1896 9.4986 20.1795 9.47231 20.1722 9.45347C20.1686 9.44404 20.1656 9.43648 20.1634 9.43084C20.1623 9.42802 20.1614 9.42568 20.1606 9.42383C20.1603 9.42291 20.1599 9.42211 20.1597 9.42143C20.1595 9.42109 20.1594 9.42078 20.1593 9.4205C20.1592 9.42036 20.1592 9.42018 20.1591 9.42011C20.1591 9.41993 20.159 9.41976 19.2306 9.79139ZM18.9205 13.5443C18.9084 13.8655 18.7566 14.2788 18.3944 14.7716C18.0371 15.2578 17.521 15.7577 16.8992 16.2344L18.116 17.8216C18.8363 17.2694 19.504 16.6391 20.006 15.9559C20.5033 15.2793 20.8865 14.484 20.9191 13.6197L18.9205 13.5443ZM10.5644 20.2877C10.2621 21.2409 10.2623 21.241 10.2625 21.241C10.2626 21.2411 10.2628 21.2411 10.263 21.2412C10.2633 21.2413 10.2638 21.2414 10.2642 21.2416C10.2652 21.2419 10.2665 21.2423 10.2681 21.2428C10.2712 21.2438 10.2754 21.2451 10.2807 21.2467C10.2913 21.25 10.3063 21.2547 10.3255 21.2605C10.364 21.2723 10.4195 21.2889 10.4911 21.3098C10.6343 21.3516 10.8417 21.4103 11.1053 21.4798C11.6324 21.6187 12.3857 21.8013 13.3008 21.9795C15.1257 22.3347 17.6185 22.6767 20.254 22.6071L20.2012 20.6078C17.759 20.6723 15.4202 20.3545 13.6829 20.0163C12.8169 19.8477 12.1064 19.6753 11.615 19.5458C11.3695 19.4811 11.179 19.4272 11.0515 19.39C10.9878 19.3714 10.9399 19.3569 10.9087 19.3474C10.8931 19.3427 10.8817 19.3392 10.8747 19.337C10.8712 19.3359 10.8687 19.3351 10.8674 19.3347C10.8667 19.3345 10.8663 19.3344 10.8662 19.3343C10.8661 19.3343 10.8661 19.3343 10.8662 19.3343C10.8662 19.3343 10.8663 19.3344 10.8663 19.3344C10.8665 19.3344 10.8666 19.3345 10.5644 20.2877ZM20.2276 21.6074C20.2276 22.6074 20.2277 22.6074 20.2279 22.6074C20.2279 22.6074 20.2281 22.6074 20.2282 22.6074C20.2284 22.6074 20.2287 22.6074 20.229 22.6074C20.2296 22.6074 20.2303 22.6074 20.2311 22.6074C20.2328 22.6074 20.235 22.6074 20.2377 22.6074C20.2432 22.6074 20.2506 22.6073 20.2599 22.6073C20.2785 22.6071 20.3047 22.6068 20.3379 22.6062C20.4041 22.6051 20.4982 22.6028 20.6141 22.5983C20.8453 22.5893 21.1671 22.5714 21.531 22.5355C22.23 22.4664 23.1944 22.3214 23.9605 21.9871L23.1606 20.154C22.6964 20.3566 21.9943 20.48 21.3344 20.5452C21.0189 20.5763 20.7381 20.592 20.5366 20.5998C20.4362 20.6037 20.3564 20.6056 20.3028 20.6065C20.2761 20.607 20.256 20.6072 20.2432 20.6073C20.2368 20.6074 20.2322 20.6074 20.2296 20.6074C20.2283 20.6074 20.2274 20.6074 20.2271 20.6074C20.2269 20.6074 20.2269 20.6074 20.227 20.6074C20.227 20.6074 20.2271 20.6074 20.2272 20.6074C20.2272 20.6074 20.2273 20.6074 20.2274 20.6074C20.2275 20.6074 20.2276 20.6074 20.2276 21.6074ZM23.9347 21.9979C24.6132 21.7241 25.1662 21.443 25.6408 21.0755C26.1254 20.7002 26.4821 20.2708 26.8148 19.759L25.1379 18.669C24.889 19.0519 24.6753 19.2936 24.4162 19.4943C24.147 19.7027 23.7828 19.9025 23.1863 20.1432L23.9347 21.9979ZM26.8243 19.744C27.0901 19.3187 27.3028 18.8666 27.4619 18.3894L25.5645 17.757C25.4551 18.085 25.3099 18.3935 25.1283 18.684L26.8243 19.744ZM27.4722 18.3565C27.8002 17.2463 27.952 15.9622 27.6451 14.5184C27.3391 13.0786 26.5913 11.5466 25.2212 9.91441L23.6893 11.2003C24.8917 12.6326 25.4635 13.8742 25.6888 14.9342C25.9132 15.9901 25.8077 16.9316 25.5542 17.7898L27.4722 18.3565ZM25.2438 9.94231C24.3214 8.75983 23.265 7.70544 22.1521 6.75484L20.8531 8.27559C21.8876 9.15921 22.8444 10.118 23.6668 11.1724L25.2438 9.94231ZM22.1523 6.75498C20.9083 5.69198 16.0176 1.90375 14.5901 1.0145L13.5326 2.71206C14.8341 3.52283 19.6363 7.23579 20.853 8.27544L22.1523 6.75498ZM14.0614 1.86328C13.3196 2.53396 13.3195 2.53386 13.3195 2.53378C13.3195 2.53379 13.3194 2.53374 13.3194 2.53376C13.3195 2.5338 13.3196 2.53394 13.3198 2.5342C13.3203 2.53472 13.3212 2.53567 13.3224 2.53705C13.3249 2.53981 13.3289 2.54428 13.3344 2.55045C13.3454 2.56277 13.3624 2.58182 13.3848 2.6073C13.4298 2.65827 13.4968 2.73492 13.5826 2.83491C13.7543 3.03495 14.0007 3.32793 14.2954 3.695C14.8858 4.43047 15.6647 5.45676 16.4235 6.62396C17.1847 7.79479 17.9107 9.08467 18.4094 10.349C18.9136 11.6276 19.1501 12.7924 19.0337 13.7467L21.0189 13.9891C21.1932 12.5611 20.8295 11.0342 20.2699 9.61525C19.7046 8.18208 18.9031 6.76859 18.1003 5.53384C17.2952 4.29544 16.4739 3.21392 15.855 2.44298C15.545 2.05685 15.2845 1.74698 15.1004 1.53246C15.0084 1.42517 14.9353 1.34163 14.8847 1.28421C14.8593 1.2555 14.8396 1.23331 14.8259 1.21795C14.819 1.21026 14.8136 1.20428 14.8098 1.20005C14.8079 1.19793 14.8064 1.19625 14.8053 1.195C14.8047 1.19438 14.8043 1.19387 14.8039 1.19347C14.8037 1.19327 14.8035 1.19305 14.8034 1.19295C14.8033 1.19276 14.8031 1.1926 14.0614 1.86328ZM19.0295 13.7882C18.9818 14.3841 18.5794 15.0556 17.7544 15.7763C16.9463 16.4822 15.8602 17.1224 14.7316 17.6677C13.6114 18.209 12.4937 18.6359 11.6519 18.9281C11.2322 19.0738 10.8842 19.1851 10.6425 19.2595C10.5217 19.2966 10.4277 19.3245 10.3648 19.3429C10.3334 19.3521 10.3097 19.3589 10.2944 19.3632C10.2868 19.3654 10.2812 19.367 10.2778 19.3679C10.2761 19.3684 10.2749 19.3687 10.2743 19.3689C10.274 19.369 10.2738 19.3691 10.2738 19.3691C10.2738 19.3691 10.2739 19.369 10.2738 19.369C10.274 19.369 10.2741 19.369 10.542 20.3324C10.8099 21.2959 10.8101 21.2958 10.8103 21.2957C10.8105 21.2957 10.8108 21.2956 10.811 21.2956C10.8116 21.2954 10.8122 21.2952 10.813 21.295C10.8146 21.2946 10.8168 21.2939 10.8195 21.2932C10.8249 21.2917 10.8325 21.2895 10.8422 21.2868C10.8616 21.2812 10.8895 21.2732 10.9253 21.2628C10.9969 21.2419 11.1002 21.2112 11.2308 21.171C11.4919 21.0906 11.8628 20.972 12.3079 20.8175C13.1955 20.5093 14.3901 20.054 15.6018 19.4685C16.8052 18.887 18.0705 18.1557 19.0701 17.2825C20.0527 16.4242 20.9142 15.3089 21.0231 13.9476L19.0295 13.7882ZM11.4364 20.7796L11.4588 20.7349L9.66994 19.8405L9.64757 19.8852L11.4364 20.7796Z" fill="#0052D9"/>
</svg>
