<?xml version="1.0" encoding="UTF-8"?>
<svg width="32px" height="32px" viewBox="0 0 32 32" version="1.1" xmlns="http://www.w3.org/2000/svg" xmlns:xlink="http://www.w3.org/1999/xlink">
    <title>TencentOS Server-32</title>
    <g id="TencentOS-Server-32" stroke="none" stroke-width="1" fill="none" fill-rule="evenodd">
        <rect id="Rectangle-Copy" fill="#0052D9" opacity="0" x="0" y="0" width="32" height="32"></rect>
        <g id="Group" fill="#0052D9" fill-rule="nonzero">
            <path d="M31.842542,13.0004945 L29.7932368,13.0004945 C28.4147469,6.70988283 22.7906191,2 16.0621652,2 C8.30013742,2 2.00777065,8.2680135 2.00777065,16 C2.00777065,23.7319865 8.30013742,30 16.0621652,30 C23.1423399,30 28.9997166,24.7848417 29.9741601,18.0004945 L32,18.0004945 C31.0117595,25.8928783 24.2529307,32 16.0621652,32 C7.19127631,32 0,24.836556 0,16 C0,7.163444 7.19127631,0 16.0621652,0 C23.9038566,0 30.433063,5.59766728 31.842542,13.0004945 Z" id="Combined-Shape"></path>
        </g>
        <path d="M20.0622514,7.99937141 L21.2172514,9.99937141 L13.077,10 L9.624,15.997 L11.075,18.5 L16.9,18.5 L17.767,17 L12.5332514,16.9993714 L11.7532514,15.6493714 L14.1526053,11.5 L22.0420089,11.5 L24.6565598,16.0000473 L20.0076709,24 L11.9082514,23.9993714 L10.7532514,21.9993714 L18.856,22 L22.343,16 L20.89,13.5 L15.306,13.5 L14.439,15 L19.4332514,14.9993714 L20.3322514,16.5563714 L18.0562276,20.5 L9.92345038,20.5 L7.31525139,16.0017917 L11.9218198,8 L20.0622514,7.99937141 Z" id="形状结合" fill="#0052D9" fill-rule="nonzero"></path>
    </g>
</svg>