<?xml version="1.0" encoding="UTF-8"?>
<svg width="32px" height="32px" viewBox="0 0 32 32" version="1.1" xmlns="http://www.w3.org/2000/svg" xmlns:xlink="http://www.w3.org/1999/xlink">
    <title>32</title>
    <g id="32" stroke="none" stroke-width="1" fill="none" fill-rule="evenodd">
        <g id="blue-(1)备份" fill="#0052D9" fill-rule="nonzero">
            <path d="M16.0621838,0 C23.9037771,0 30.4329197,5.59751424 31.8425211,13.000191 L29.7932347,13.0003278 C28.4146804,6.70979962 22.7905861,2 16.0621838,2 C8.30014703,2 2.00777297,8.2680135 2.00777297,16 C2.00777297,23.7319865 8.30014703,30 16.0621838,30 C23.1422458,30 28.9995501,24.7850199 29.9741449,18.0008423 L32,18.0007904 C31.0116265,25.8930309 24.2528564,32 16.0621838,32 C7.19128463,32 0,24.836556 0,16 C0,7.163444 7.19128463,0 16.0621838,0 Z" id="Combined-Shape"></path>
        </g>
        <g id="编组备份" transform="translate(8.000000, 7.000000)" fill="#0052D9">
            <rect id="矩形" x="3" y="3" width="4" height="2"></rect>
            <path d="M15,0 L15,8 L0,8 L0,0 L15,0 Z M13,2 L2,2 L2,6 L13,6 L13,2 Z" id="形状结合"></path>
            <path d="M8.40447658,8.99865942 C7.97761073,9.5854317 7.6328409,10.2610933 7.39178163,10.9995858 L2,11 L2,16 L5.02750023,16.0003241 C5.10870389,16.7344179 5.36649033,17.4152832 5.75744,17.9995002 L0,18 L0,9 Z M6.6714796,11.9998812 C6.03139768,12.5177906 5.53622778,13.2077191 5.25628929,13.9993474 L3,14 L3,12 Z" id="形状结合"></path>
            <path d="M12,9 C13.5779564,9 14.8571429,10.2791864 14.8571429,11.8571429 L14.8578005,12.1244295 C16.0966721,12.4934467 17,13.6412316 17,15 C17,16.6568542 15.6568542,18 14,18 L10,18 C8.34314575,18 7,16.6568542 7,15 C7,13.6412316 7.90332789,12.4934467 9.14219948,12.1244295 L9.14285714,11.8571429 C9.14285714,10.2791864 10.4220436,9 12,9 Z M12,11 C11.1715729,11 10.5,11.6715729 10.5,12.5 L10.5,12.5 L10.5,13.5 L10.25,13.5 C9.55964406,13.5 9,14.0596441 9,14.75 C9,15.4403559 9.55964406,16 10.25,16 L10.25,16 L13.75,16 C14.4403559,16 15,15.4403559 15,14.75 C15,14.0596441 14.4403559,13.5 13.75,13.5 L13.75,13.5 L13.5,13.5 L13.5,12.5 C13.5,11.6715729 12.8284271,11 12,11 Z" id="形状结合"></path>
        </g>
    </g>
</svg>