<svg width="32" height="32" viewBox="0 0 32 32" fill="none" xmlns="http://www.w3.org/2000/svg">
<path d="M16.0463 29.0926C22.4128 29.0926 27.7142 24.5323 28.8622 18.5H30.8935C29.722 25.6427 23.5206 31.0926 16.0463 31.0926C7.73645 31.0926 1 24.3561 1 16.0463C1 7.73645 7.73645 1 16.0463 1C23.4882 1 29.6683 6.40281 30.878 13.5H28.8442C27.6599 7.5137 22.3802 3 16.0463 3C8.84102 3 3 8.84102 3 16.0463C3 23.2516 8.84102 29.0926 16.0463 29.0926Z" fill="#0052D9"/>
<path d="M6.58086 14.3094C5.99781 14.6463 5.60547 15.2764 5.60547 15.9982C5.60547 17.0746 6.47804 17.9471 7.55441 17.9471C8.63079 17.9471 9.50336 17.0746 9.50336 15.9982C9.50336 15.3894 9.22422 14.8458 8.78695 14.4884L11.9578 8.99637L20.0427 8.99637L22.5969 13.4203C23.1216 13.0564 23.7588 12.8432 24.4457 12.8432C24.4888 12.8432 24.5318 12.8441 24.5746 12.8457L21.1974 6.99637H10.8031L6.58086 14.3094Z" fill="#0052D9"/>
<path d="M22.4963 15.9982C22.4963 14.9218 23.3689 14.0492 24.4453 14.0492C25.5216 14.0492 26.3942 14.9218 26.3942 15.9982C26.3942 16.7195 26.0024 17.3492 25.42 17.6862L21.1974 24.9999L10.8031 24.9999L7.53509 19.3396L7.55483 19.3397C8.27537 19.3397 8.94113 19.1051 9.47986 18.7081L11.9578 22.9999L20.0427 22.9999L23.2133 17.5084C22.7757 17.151 22.4963 16.6072 22.4963 15.9982Z" fill="#0052D9"/>
<path d="M18.5 16C18.5 17.3807 17.3807 18.5 16 18.5C14.6193 18.5 13.5 17.3807 13.5 16C13.5 14.6193 14.6193 13.5 16 13.5C16.0936 13.5 16.186 13.5051 16.2769 13.5152L18.122 10.3195L19.854 11.3195L18.0101 14.5133C18.3179 14.9288 18.5 15.4431 18.5 16Z" fill="#0052D9"/>
</svg>
