<svg width="32" height="32" viewBox="0 0 32 32" fill="none" xmlns="http://www.w3.org/2000/svg">
<path fill-rule="evenodd" clip-rule="evenodd" d="M7.6699 6L6.94279 12.6053H13.2152L14.0675 6H7.6699ZM7.10403 4C6.40621 4 5.82017 4.52507 5.74382 5.21869L4.87767 13.0871C4.78849 13.8973 5.42284 14.6053 6.23787 14.6053H13.7705C14.4586 14.6053 15.0396 14.0944 15.1277 13.412L16.143 5.54354C16.2486 4.72504 15.6111 4 14.7858 4H7.10403ZM20.3278 6L19.6007 12.6053H25.8731L26.7254 6H20.3278ZM19.7619 4C19.0641 4 18.478 4.52507 18.4017 5.21869L17.5355 13.0871C17.4464 13.8973 18.0807 14.6053 18.8957 14.6053H26.4284C27.1164 14.6053 27.6975 14.0944 27.7856 13.412L28.8008 5.54354C28.9064 4.72504 28.2689 4 27.4437 4H19.7619ZM5.23225 25.2632L5.95935 18.6579H12.3569L11.5047 25.2632H5.23225ZM4.03328 17.8766C4.10963 17.183 4.69567 16.6579 5.39348 16.6579H13.0753C13.9005 16.6579 14.538 17.3829 14.4324 18.2014L13.4171 26.0699C13.3291 26.7523 12.748 27.2632 12.06 27.2632H4.52733C3.7123 27.2632 3.07795 26.5551 3.16713 25.745L4.03328 17.8766ZM22.9077 23.3895L22.5778 26.3474H25.4222L25.8088 23.3895H22.9077ZM22.7005 21.7895C22.0034 21.7895 21.4178 22.3135 21.3405 23.0062L20.959 26.4273C20.8686 27.2381 21.5032 27.9474 22.319 27.9474H25.6254C26.3126 27.9474 26.8932 27.4377 26.9823 26.7563L27.4295 23.3353C27.5366 22.516 26.8988 21.7895 26.0726 21.7895H22.7005ZM18.9594 18.6579L18.2323 25.2632H18.2432L18.0258 27.2632H17.5273C16.7123 27.2632 16.078 26.5551 16.1671 25.745L17.0333 17.8766C17.1096 17.183 17.6957 16.6579 18.3935 16.6579H26.0753C26.9005 16.6579 27.538 17.3829 27.4324 18.2014L27.3765 18.6352L25.3569 18.6582L18.9594 18.6579Z" fill="#0052D9"/>
</svg>
