<?xml version="1.0" encoding="UTF-8"?>
<svg width="32px" height="32px" viewBox="0 0 32 32" version="1.1" xmlns="http://www.w3.org/2000/svg" xmlns:xlink="http://www.w3.org/1999/xlink">
    <title>移动业务加速 MNA 蓝色-32px</title>
    <g id="移动业务加速-MNA-蓝色-32px" stroke="none" stroke-width="1" fill="none" fill-rule="evenodd">
        <rect id="Rectangle-Copy" fill="#0052D9" fill-rule="nonzero" opacity="0" x="0" y="0" width="32" height="32"></rect>
        <g id="编组" transform="translate(5.000000, 1.000000)">
            <g id="移动业务加速"></g>
        </g>
        <path d="M27,1 L27,25 L25,25 L25,3 L7,3 L7,29 L27,29 L27,31 L5,31 L5,1 L27,1 Z M18,23 L18,25 L14,25 L14,23 L18,23 Z M11,12 C11,14.7614237 13.2385763,17 16,17 L16,19 C12.1340068,19 9,15.8659932 9,12 L11,12 Z M23,12 C23,15.5261219 20.3928118,18.4433024 17.0010101,18.9289666 L17.0011864,16.8997409 C19.2828356,16.4360122 21,14.4185387 21,12 L23,12 Z M14,12 C14,13.1045695 14.8954305,14 16,14 L16,15.5 C14.0670034,15.5 12.5,13.9329966 12.5,12 L14,12 Z M20.3532531,6.06189167 L21.8647326,6.22983385 C21.9112174,6.23499882 21.9479129,6.27169432 21.9530779,6.31817907 L22.12102,7.82965863 C22.2327535,8.83525987 21.8813169,9.83712873 21.1658736,10.552572 L19.1158162,12.6026294 L19.2925929,13.8400663 L18.7622628,14.3703964 L16.9725194,12.5801749 C16.5890049,12.8068629 16.0866284,12.7554221 15.757059,12.4258527 C15.4274896,12.0962833 15.3760488,11.5939068 15.6027368,11.2103923 L13.8125153,9.42064888 L14.3428454,8.8903188 L15.5802823,9.06709549 L17.6303397,7.01703812 C18.345783,6.30159482 19.3476518,5.9501582 20.3532531,6.06189167 Z M18.8135369,7.96578531 L18.6909998,8.07769829 L16.6409425,10.1277557 L18.055156,11.5419692 L20.1052134,9.49191185 C20.4591222,9.13800305 20.6509739,8.65657656 20.6410355,8.1609028 L20.6301944,7.99530591 L20.5858912,7.59702049 L20.1876058,7.55271727 C19.6901644,7.49744601 19.1943846,7.64837972 18.8135369,7.96578531 Z M16,5 L16,7 C13.5811085,7 11.5633992,8.71766536 11.1000563,10.999812 L9.07089004,11 C9.55612324,7.60770164 12.4735309,5 16,5 Z M19.4693696,8.7135421 C19.5670007,8.81117318 19.5670007,8.96946442 19.4693696,9.06709549 L18.2319327,10.3045324 L17.8783793,9.95097897 L19.1158162,8.7135421 C19.2134473,8.61591103 19.3717385,8.61591103 19.4693696,8.7135421 Z" id="移动业务加速" fill="#0052D9" fill-rule="nonzero"></path>
        <rect id="矩形备份" x="0" y="0" width="32" height="32"></rect>
    </g>
</svg>