<svg width="32" height="32" viewBox="0 0 32 32" fill="none" xmlns="http://www.w3.org/2000/svg">
<path d="M29 1.5H3V16.7C3 16.7 3.1 27.5 16 30.5C28.9 27.5 29 16.7 29 16.7V7.5H27V16.7C26.8884 18.3828 26.4106 20.021 25.6 21.5C23.8 24.9 20.5 27.2 16 28.4C5.3 25.8 5 17.1 5 16.7V3.5H29V1.5Z" fill="#0052D9"/>
<path fill-rule="evenodd" clip-rule="evenodd" d="M18.3398 11.4992C18.8153 11.8156 19.3861 12 20 12C21.6569 12 23 10.6569 23 9C23 7.34315 21.6569 6 20 6C18.3431 6 17 7.34315 17 9C17 9.30631 17.0459 9.60189 17.1312 9.88025L14.4874 11.3223C13.9483 10.5245 13.0354 10 12 10C10.3431 10 9 11.3431 9 13C9 14.6569 10.3431 16 12 16C12.9252 16 13.7525 15.5812 14.3028 14.9229L16.8325 16.9466L14.1011 18.8586C13.5598 18.3275 12.8182 18 12 18C10.3431 18 9 19.3431 9 21C9 22.6569 10.3431 24 12 24C13.6569 24 15 22.6569 15 21C15 20.8927 14.9944 20.7867 14.9834 20.6823L17.625 18.8331C18.1737 19.5429 19.0335 20 20 20C21.6569 20 23 18.6569 23 17C23 15.3431 21.6569 14 20 14C19.0748 14 18.2475 14.4188 17.6972 15.0771L15.2984 13.1581L18.3398 11.4992ZM20 10C19.4477 10 19 9.55228 19 9C19 8.44772 19.4477 8 20 8C20.5523 8 21 8.44772 21 9C21 9.55228 20.5523 10 20 10ZM19.0866 17.4078L19.1146 16.5348C19.282 16.2168 19.6157 16 20 16C20.5523 16 21 16.4477 21 17C21 17.5523 20.5523 18 20 18C19.5929 18 19.2427 17.7568 19.0866 17.4078ZM12.9666 12.7427L12.9069 13.422C12.7477 13.7634 12.4015 14 12 14C11.4477 14 11 13.5523 11 13C11 12.4477 11.4477 12 12 12C12.4633 12 12.8531 12.3151 12.9666 12.7427ZM12 22C11.4477 22 11 21.5523 11 21C11 20.4477 11.4477 20 12 20C12.5523 20 13 20.4477 13 21C13 21.5523 12.5523 22 12 22Z" fill="#0052D9"/>
</svg>
