<svg width="32" height="32" viewBox="0 0 32 32" fill="none" xmlns="http://www.w3.org/2000/svg">
<path fill-rule="evenodd" clip-rule="evenodd" d="M4.58982 18.9814C5.00338 21.0662 6.9051 22.8355 9.14745 22.8355C11.3898 22.8355 13.2915 21.0662 13.7051 18.9814H18.2949C17.8479 23.5852 13.8685 27.1836 9.14745 27.1836C4.4264 27.1836 0.446985 23.5852 0 18.9814H4.58982Z" fill="#0052D9"/>
<path fill-rule="evenodd" clip-rule="evenodd" d="M18.2949 17.2026C18.7085 15.1179 20.6102 13.3486 22.8525 13.3486C25.0949 13.3486 26.9966 15.1179 27.4102 17.2026H32C31.553 12.5989 27.5736 9.00047 22.8525 9.00047C18.1315 9.00047 14.1521 12.5989 13.7051 17.2026H18.2949Z" fill="#0052D9"/>
<path fill-rule="evenodd" clip-rule="evenodd" d="M9.14745 9.00049C4.4264 9.00049 0.446985 12.5989 0 17.2027H4.58982C5.00338 15.1179 6.77502 13.3486 9.14745 13.3486V9.00049Z" fill="#0052D9"/>
</svg>
