<?xml version="1.0" encoding="UTF-8"?>
<svg width="32px" height="32px" viewBox="0 0 32 32" version="1.1" xmlns="http://www.w3.org/2000/svg" xmlns:xlink="http://www.w3.org/1999/xlink">
    <!-- Generator: Sketch 53 (72520) - https://sketchapp.com -->
    <title>产品图标-配置审计-32</title>
    <desc>Created with Sketch.</desc>
    <g id="产品图标-配置审计-32" stroke="none" stroke-width="1" fill="none" fill-rule="evenodd">
        <path d="M29.0120508,29.0001808 C28.3018287,28.9958939 27.6471554,28.6152699 27.2920508,28.0001808 L2.01205081,28.0001808 L2.01205081,11.0001808 L4.01205081,11.0001808 L4.01205081,26.0001808 L27.2920508,26.0001808 C27.7781164,25.1583311 28.7991156,24.7878966 29.711914,25.1222166 C30.6247123,25.4565366 31.1649322,26.3987805 30.9922853,27.3554224 C30.8196384,28.3120643 29.9841293,29.0060279 29.0120508,29.0001808 Z M28.0120508,6.00018082 L4.73205081,6.00018082 C4.27944513,6.78411685 3.35672894,7.16631841 2.48236191,6.93203247 C1.60799488,6.69774653 1,5.90539218 1,5.00018082 C1,4.09496946 1.60799488,3.30261511 2.48236191,3.06832917 C3.35672894,2.83404323 4.27944513,3.21624479 4.73205081,4.00018082 L30.0120508,4.00018082 L30.0120508,21.0001808 L28.0120508,21.0001808 L28.0120508,6.00018082 Z" id="_复合路径_" fill="#0052D9"></path>
        <rect id="矩形" fill="#0052D9" x="14" y="11" width="4" height="2"></rect>
        <rect id="矩形" fill="#0052D9" x="14" y="14" width="4" height="2"></rect>
        <rect id="矩形" fill="#0052D9" x="14" y="17" width="4" height="2"></rect>
        <path d="M13,10 L13,22 L19,22 L19,10 L13,10 Z M11,8 L21,8 L21,24 L11,24 L11,8 Z" id="矩形" fill="#0052D9" fill-rule="nonzero"></path>
        <rect id="矩形" fill="#0052D9" x="7" y="16" width="2" height="8"></rect>
        <rect id="矩形" fill="#0052D9" x="23" y="16" width="2" height="8"></rect>
    </g>
</svg>