<?xml version="1.0" encoding="UTF-8"?>
<svg width="30px" height="26px" viewBox="0 0 30 26" version="1.1" xmlns="http://www.w3.org/2000/svg" xmlns:xlink="http://www.w3.org/1999/xlink">
    <!-- Generator: Sketch 54.1 (76490) - https://sketchapp.com -->
    <title>编组 18复制 4</title>
    <desc>Created with Sketch.</desc>
    <defs>
        <path d="M19.266055,-1 L6.88073394,-1 C6.47477064,-1 6.14678899,-0.668543046 6.14678899,-0.258278146 L6.14678899,5.21192053 L0.733944954,5.21192053 C0.327981651,5.21192053 0,5.54337748 0,5.95364238 L0,12.2582781 C0,12.668543 0.327981651,13 0.733944954,13 L13.1192661,13 C13.5252294,13 13.853211,12.668543 13.853211,12.2582781 L13.853211,6.78807947 L19.266055,6.78807947 C19.6720183,6.78807947 20,6.45662252 20,6.04635762 L20,-0.258278146 C20,-0.668543046 19.6720183,-1 19.266055,-1 Z M8,1 L12,1 L12,5 L8,5 L8,1 Z M6,11 L2,11 L2,7 L6,7 L6,11 Z M12,11 L8,11 L8,7 L12,7 L12,11 Z M18,5 L14,5 L14,1 L18,1 L18,5 Z" id="path-1"></path>
    </defs>
    <g id="介绍页配图设计" stroke="none" stroke-width="1" fill="none" fill-rule="evenodd">
        <g id="icon" transform="translate(-321.000000, -1025.000000)">
            <g id="编组-18复制-4" transform="translate(320.000000, 1022.000000)">
                <g id="编组-24" transform="translate(1.000000, 3.000000)" fill="#0052D9">
                    <path d="M28,26 C27.2897779,25.9957131 26.6351046,25.6150891 26.28,25 L1,25 L1,8 L3,8 L3,23 L26.28,23 C26.7660656,22.1581503 27.7870648,21.7877158 28.6998631,22.1220358 C29.6126615,22.4563558 30.1528813,23.3985996 29.9802345,24.3552416 C29.8075876,25.3118835 28.9720785,26.0058471 28,26 Z" id="_复合路径_-path"></path>
                    <path d="M27.0120508,3.00018082 L3.73205081,3.00018082 C3.27944513,3.78411685 2.35672894,4.16631841 1.48236191,3.93203247 C0.607994882,3.69774653 1.11022302e-16,2.90539218 0,2.00018082 C-1.11022302e-16,1.09496946 0.607994882,0.302615105 1.48236191,0.0683291662 C2.35672894,-0.165956773 3.27944513,0.216244788 3.73205081,1.00018082 L29.0120508,1.00018082 L29.0120508,18.0001808 L27.0120508,18.0001808 L27.0120508,3.00018082 Z" id="_复合路径_-path"></path>
                </g>
                <g id="Projects/cubes" transform="translate(6.000000, 10.000000)">
                    <mask id="mask-2" fill="white">
                        <use xlink:href="#path-1"></use>
                    </mask>
                    <use id="Mask" fill="#0052D9" fill-rule="nonzero" xlink:href="#path-1"></use>
                </g>
            </g>
        </g>
    </g>
</svg>