<?xml version="1.0" encoding="UTF-8"?>
<svg width="32px" height="32px" viewBox="0 0 32 32" version="1.1" xmlns="http://www.w3.org/2000/svg" xmlns:xlink="http://www.w3.org/1999/xlink">
    <!-- Generator: Sketch 59.1 (86144) - https://sketch.com -->
    <title>持续部署 白色 32</title>
    <desc>Created with Sketch.</desc>
    <g id="持续集成" stroke="none" stroke-width="1" fill="none" fill-rule="evenodd">
        <g id="编辑-Job-配置持续集成备份-2" transform="translate(-922.000000, -201.000000)">
            <g id="编组-11" transform="translate(922.000000, 201.000000)">
                <rect id="矩形" fill="#0052D9" opacity="0" x="0" y="0" width="32" height="32"></rect>
                <g id="持续部署-白色-32" transform="translate(1.000000, 3.000000)">
                    <path d="M28,26.0000367 C27.2897779,25.9957131 26.6351046,25.6150891 26.28,25 L1,25 L1,8 L3,8 L3,23 L26.28,23 C26.7660656,22.1581503 27.7870648,21.7877158 28.6998631,22.1220358 C29.6126615,22.4563558 30.1528813,23.3985996 29.9802345,24.3552416 C29.8075876,25.3118835 28.9720785,26.0058471 28,26.0000367 Z M27.0120508,3.00018082 L3.73205081,3.00018082 C3.27944513,3.78411685 2.35672894,4.16631841 1.48236191,3.93203247 C0.607994882,3.69774653 0,2.90539218 0,2.00018082 C0,1.09496946 0.607994882,0.302615105 1.48236191,0.0683291662 C2.35672894,-0.165956773 3.27944513,0.216244788 3.73205081,1.00018082 L29.0120508,1.00018082 L29.0120508,18.0001808 L27.0120508,18.0001808 L27.0120508,3.00018082 Z" id="形状" fill="#0052D9" fill-rule="nonzero"></path>
                    <g id="编组" transform="translate(5.000000, 6.000000)">
                        <path d="M13.7439414,13 C13.1261868,14.7477886 11.4593282,16 9.5,16 C7.54067176,16 5.87381317,14.7477886 5.25605856,13 L7.49981691,13 C7.95592007,13.6072234 8.68209108,14 9.5,14 C10.3179089,14 11.0440799,13.6072234 11.5001831,13 L13.7439414,13 Z M5,7.89622655 L5,10.1374021 C4.5722808,10.3931109 4.20054154,10.683585 3.89739648,11 L5,11 L5,13 L0.800215323,13 L1.19338957,11.7087192 C1.69491119,10.0615991 3.10842983,8.72004923 5,7.89622655 Z M14,7.89622655 C15.8915702,8.72004923 17.3050888,10.0615991 17.8066104,11.7087192 L18.1997847,13 L14,13 L14,11 L15.1026035,11 C14.7994585,10.683585 14.4277192,10.3931109 14,10.1374021 L14,7.89622655 Z" id="形状" fill="#0052D9" fill-rule="nonzero"></path>
                        <polygon id="路径" stroke="#0052D9" stroke-width="2" points="6 3.79594747 6 12 13 12 13 3.79468231 9.50816801 0.39435007"></polygon>
                        <circle id="椭圆形" fill="#0052D9" fill-rule="nonzero" cx="9.5" cy="5.5" r="1.5"></circle>
                    </g>
                </g>
            </g>
        </g>
    </g>
</svg>