<?xml version="1.0" encoding="UTF-8"?>
<svg width="32px" height="32px" viewBox="0 0 32 32" version="1.1" xmlns="http://www.w3.org/2000/svg" xmlns:xlink="http://www.w3.org/1999/xlink">
    <title>腾讯云地域信息管理平台-32px</title>
    <g id="腾讯云地域信息管理平台-32px" stroke="none" stroke-width="1" fill="none" fill-rule="evenodd">
        <rect id="Rectangle-Copy" fill="#0052D9" fill-rule="nonzero" opacity="0" x="0" y="0" width="32" height="32"></rect>
        <path d="M30,2 L30,4 L7,4 L4,7 L4,25 L7,28 L25,28 L28,25 L28,7 L30,7 L30,26 L26,30 L6,30 L2,26 L2,6 L6,2 L30,2 Z M17,8 L17.0009007,11.1710242 C18.1656226,11.5831148 19,12.6941178 19,14 C19,14.5417972 18.8563756,15.0500492 18.6051232,15.4887597 L18.4418157,15.7226728 L16,19 L13.4486153,15.5788962 C13.1642067,15.1202867 13,14.5793196 13,14 C13,12.6937479 13.8348501,11.5824856 15.0000889,11.1706743 L15,10.3073287 L9,11.282455 L9,20.4077597 L17,19.1731774 L17,21.6929312 L23,20.7217171 L23,11.5905441 L20.2307414,11.9997301 L19.9322841,10.0655123 L25,9.3174796 L25,22.3820091 L15,24 L15,21.4611309 L7,22.696965 L7,9.6252786 L17,8 Z M16,13 C15.4477153,13 15,13.4477153 15,14 C15,14.142963 15.0289586,14.278877 15.0842845,14.4037639 L15.1546608,14.5338219 L15.9967564,15.6640997 L16.8657933,14.4998565 C16.9548855,14.3458818 17,14.1785762 17,14 C17,13.4477153 16.5522847,13 16,13 Z" id="形状" fill="#0052D9" fill-rule="nonzero"></path>
    </g>
</svg>