<svg width="32" height="32" viewBox="0 0 32 32" fill="none" xmlns="http://www.w3.org/2000/svg">
<g clip-path="url(#clip0_806_1659)">
<path d="M14.9309 0.036266C23.3337 -0.526431 30.7343 5.52079 31.8571 13.8672H29.7238C28.5879 6.57199 21.9351 1.44608 14.5915 2.20786C7.24778 2.96965 1.78877 9.35196 2.1745 16.725C2.56022 24.098 8.65539 29.8758 16.0385 29.8672C22.867 29.8592 28.6733 24.8811 29.7238 18.1338H31.8571C30.7343 26.4802 23.3337 32.5275 14.9309 31.9648C6.52818 31.4021 0 24.4221 0 16.0005C0 7.57892 6.52818 0.598963 14.9309 0.036266Z" fill="#0052D9"/>
<path d="M14.5355 19.0001L15.9497 20.4143L12.4142 23.9499L11 22.5356L14.5355 19.0001Z" fill="#0052D9"/>
<path d="M17.4142 19.0001L16 20.4143L19.5355 23.9499L20.9497 22.5356L17.4142 19.0001Z" fill="#0052D9"/>
<path fill-rule="evenodd" clip-rule="evenodd" d="M8 8V21H24V8H8ZM22 10H10V19H22V10Z" fill="#0052D9"/>
<path d="M12.5203 14.6402L13.9345 13.226L16.9916 16.2831L15.5774 17.6973L12.5203 14.6402Z" fill="#0052D9"/>
<path d="M19 11.5L20.4142 12.9142L15.6037 17.7248L14.1895 16.3105L19 11.5Z" fill="#0052D9"/>
</g>
<defs>
<clipPath id="clip0_806_1659">
<rect width="32" height="32" fill="white"/>
</clipPath>
</defs>
</svg>
