<?xml version="1.0" encoding="UTF-8"?>
<svg width="32px" height="32px" viewBox="0 0 32 32" version="1.1" xmlns="http://www.w3.org/2000/svg" xmlns:xlink="http://www.w3.org/1999/xlink">
    <title>TAT-32px</title>
    <g id="TAT-32px" stroke="none" stroke-width="1" fill="none" fill-rule="evenodd">
        <path d="M15.9950258,0 C23.8062608,0 30.3101263,5.59751424 31.7142705,13.000191 L29.6729178,13.0003278 C28.2997005,6.70979962 22.6973795,2 15.9950258,2 C8.26303931,2 1.99502581,8.2680135 1.99502581,16 C1.99502581,23.7319865 8.26303931,30 15.9950258,30 C23.0476778,30 28.8823059,24.7850199 29.8531276,18.0008423 L31.8711397,18.0007904 C30.8865926,25.8930309 24.1539888,32 15.9950258,32 C7.15846981,32 -0.00497419078,24.836556 -0.00497419078,16 C-0.00497419078,7.163444 7.15846981,0 15.9950258,0 Z" id="Combined-Shape" fill="#0052D9" fill-rule="nonzero"></path>
        <path d="M18.9812358,6.12137267 L22.9671646,8.42264973 L22.9671646,13.131963 L20.1433772,14.4823727 L20.144141,23.450353 L15.2013772,25.8603727 L15.1444719,25.9573994 L11.9644661,24.0929559 L11.9643772,18.3953727 L10.919306,18.8959338 L6.93337718,16.5946567 L6.93337718,11.8853434 L18.9812358,6.12137267 Z M15.1083772,16.8913727 L13.9643772,17.4383727 L13.964,22.947 L15.1083772,23.6173727 L15.1083772,16.8913727 Z M17.108,22.705 L18.144,22.2 L18.144,12.6252473 L18.1373772,12.6263727 L18.1380658,12.0863887 L11.9640658,15.1553887 L11.9643772,16.1793727 L15.8523772,14.3163727 L17.1073772,13.7043727 L17.108,22.705 Z M8.93237718,14.2273727 L8.93331735,15.4398119 L9.96337718,16.0343727 L9.96431735,14.8078119 L8.93237718,14.2273727 Z M15.7313772,9.89037267 L10.1003772,12.5883727 L11.2890658,13.2573887 L16.8260658,10.5063887 L15.7313772,9.89037267 Z M20.9663772,10.6813727 L20.1390658,11.0923887 L20.1383772,12.2263727 L20.144141,12.2253179 L20.1433772,12.2613727 L20.967,11.867 L20.9663772,10.6813727 Z M18.891,8.378 L17.9343772,8.83537267 L18.9910658,9.42938869 L19.9163772,8.96937267 L18.891,8.378 Z" id="形状结合" fill="#0052D9" fill-rule="nonzero"></path>
    </g>
</svg>