<svg   width="32px"   height="32px"  viewBox="0 0 28 28" version="1.1" xmlns="http://www.w3.org/2000/svg" xmlns:xlink="http://www.w3.org/1999/xlink">
    <title>TEM-32px</title>
    <g id="页面-1" stroke="none" stroke-width="1" fill="none" fill-rule="evenodd">
        <g id="TEM-32px" fill="#0052D9" fill-rule="nonzero">
            <path d="M28,0 L28,2 L5,2 L2,5 L2,23 L5,26 L23,26 L26,23 L26,5 L28,5 L28,24 L24,28 L4,28 L0,24 L0,4 L4,0 L28,0 Z M20.9902802,15.8311942 L20.9902802,18.0001113 L13.9795746,22.2237579 L6.98545834,18.0001113 L6.98545834,15.8781555 L14.019,19.925 L20.9902802,15.8311942 Z M14,5.84529946 L21.0621778,9.9226497 L21.0621778,14.5773503 L14,18.6547005 L6.93782217,14.5773503 L6.93782217,9.9226497 L14,5.84529946 Z M14,8.155 L8.937,11.077 L8.937,13.422 L13.999,16.344 L19.062,13.422 L19.062,11.077 L14,8.155 Z M14.0000877,10.7304595 L16.1396041,11.9451643 L14.0184152,13.1340998 L11.8969634,11.9451643 L14.0000877,10.7304595 Z" id="形状结合"></path>
        </g>
    </g>
</svg>