<svg width="32" height="32" viewBox="0 0 32 32" fill="none" xmlns="http://www.w3.org/2000/svg">
<path d="M2.66667 9.33334V26.6667L27.0235 26.6666C27.4846 25.8696 28.3463 25.3333 29.3333 25.3333C30.8061 25.3333 32 26.5272 32 28C32 29.4728 30.8061 30.6667 29.3333 30.6667C28.3469 30.6667 27.4855 30.1311 27.0243 29.3348L0 29.3333V9.33334H2.66667ZM2.66667 1.33334C3.65367 1.33334 4.51543 1.86956 4.97653 2.66657L32 2.66667V22.6667H29.3333V5.33334L4.97575 5.33477C4.51447 6.13105 3.65312 6.66667 2.66667 6.66667C1.19391 6.66667 0 5.47276 0 4C0 2.52724 1.19391 1.33334 2.66667 1.33334Z" fill="#0052D9" style="fill:#0052D9;fill:color(display-p3 0.0000 0.3216 0.8510);fill-opacity:1;"/>
<path d="M25.3333 20.6667V17.3333C25.3333 12.1787 21.1547 8 16 8C10.8453 8 6.66667 12.1787 6.66667 17.3333V20.6667" stroke="#0052D9" style="stroke:#0052D9;stroke:color(display-p3 0.0000 0.3216 0.8510);stroke-opacity:1;" stroke-width="2.66667"/>
<path d="M13.3333 22.6667V20L12 18L14 13.3333L16.6667 13.3333" stroke="#0052D9" style="stroke:#0052D9;stroke:color(display-p3 0.0000 0.3216 0.8510);stroke-opacity:1;" stroke-width="2.66667"/>
<path d="M18.6667 22.6667V20L20 18L18 13.3333L15.4217 13.3333" stroke="#0052D9" style="stroke:#0052D9;stroke:color(display-p3 0.0000 0.3216 0.8510);stroke-opacity:1;" stroke-width="2.66667"/>
<rect x="10.6667" y="22.6667" width="10.6667" height="2.66667" fill="#0052D9" style="fill:#0052D9;fill:color(display-p3 0.0000 0.3216 0.8510);fill-opacity:1;"/>
</svg>
