<?xml version="1.0" encoding="UTF-8"?>
<svg width="32px" height="32px" viewBox="0 0 32 32" version="1.1" xmlns="http://www.w3.org/2000/svg" xmlns:xlink="http://www.w3.org/1999/xlink">
    <title>视频智能标签-32px(蓝色)</title>
    <g id="视频智能标签-32px(蓝色)" stroke="none" stroke-width="1" fill="none" fill-rule="evenodd">
        <g id="视频智能标签-32px" fill="#0052D9">
            <path d="M23,6 L23,25 L0,25 L0,6 L23,6 Z M4,8 L2,8 L2,23 L21,23 L21,8 L11,8 L11,16 L7.5,13.7777778 L4,16 L4,8 Z M32,9 L32,22.6699768 L24,18.9382369 L24,12.7317909 L32,9 Z M30,12.1423536 L26,14.0064586 L26,17.6625093 L30,19.5255743 L30,12.1423536 Z M17,10 C18.1045695,10 19,10.8954305 19,12 C19,13.1045695 18.1045695,14 17,14 C15.8954305,14 15,13.1045695 15,12 C15,10.8954305 15.8954305,10 17,10 Z M9,8 L6,8 L6,12.36 L7.5,11.4087069 L9,12.361 L9,8 Z" id="形状" fill-rule="nonzero"></path>
            <rect id="矩形" fill-opacity="0" opacity="0" x="0" y="0" width="32" height="32"></rect>
        </g>
    </g>
</svg>