<?xml version="1.0" encoding="UTF-8"?>
<svg width="32px" height="32px" viewBox="0 0 32 32" version="1.1" xmlns="http://www.w3.org/2000/svg" xmlns:xlink="http://www.w3.org/1999/xlink">
    <title>32蓝色@x</title>
    <g id="页面-6" stroke="none" stroke-width="1" fill="none" fill-rule="evenodd">
        <g id="画板" transform="translate(-114.000000, -87.000000)">
            <path d="M130,88 C137.374162,88 143.505491,93.321204 144.763665,100.333291 L142.726265,100.333464 C141.496182,94.4328203 136.265761,90 130,90 C122.820298,90 117,95.8202983 117,103 C117,110.179702 122.820298,116 130,116 C136.265761,116 141.496182,111.56718 142.726265,105.666536 L144.763665,105.666709 C143.505491,112.678796 137.374162,118 130,118 C121.715729,118 115,111.284271 115,103 C115,94.7157288 121.715729,88 130,88 Z" id="形状结合" fill="#0052D9" fill-rule="nonzero"></path>
            <path d="M130,103.546763 C131.995351,103.546763 133.612903,101.923392 133.612903,99.9208633 C133.612903,99.0863309 133.612903,98.2517986 133.612903,97.4172662 C133.612903,96.0822469 132.534535,95 131.204301,95 L128.795699,95 C127.465465,95 126.387097,96.0822469 126.387097,97.4172662 C126.387097,97.7102442 126.387097,98.0032223 126.387097,98.2962004 C126.387097,98.8377547 126.387097,99.379309 126.387097,99.9208633 C126.387097,101.923392 128.004649,103.546763 130,103.546763 Z" id="椭圆形备份-3" stroke="#0052D9" stroke-width="2" transform="translate(130.000000, 99.273381) scale(-1, 1) translate(-130.000000, -99.273381) "></path>
            <path d="M130,103.546763 C131.995351,103.546763 133.612903,101.923392 133.612903,99.9208633 C133.612903,99.7636747 133.612903,99.3971469 133.612903,98.8212802 L126.387097,98.8212802 C126.387097,99.1932994 126.387097,99.5598271 126.387097,99.9208633 C126.387097,101.923392 128.004649,103.546763 130,103.546763 Z" id="椭圆形备份-14" stroke="#0052D9" stroke-width="2" transform="translate(130.000000, 101.184021) scale(-1, 1) translate(-130.000000, -101.184021) "></path>
            <path d="M124.759494,105.171683 L128.506329,103.273381 C129.004219,103.549788 129.50211,103.687991 130,103.687991 C130.49789,103.687991 130.995781,103.549788 131.493671,103.273381 L135.240506,105.171683 L136,110.273381 L134.481013,110.273381 L125.518987,110.273381 L124,110.273381 L124.759494,105.171683 Z" id="矩形" stroke="#0052D9" stroke-width="2" transform="translate(130.000000, 106.773381) scale(-1, 1) translate(-130.000000, -106.773381) "></path>
        </g>
    </g>
</svg>