<svg xmlns="http://www.w3.org/2000/svg" xmlns:xlink="http://www.w3.org/1999/xlink" fill="none" version="1.1" width="32" height="32" viewBox="0 0 32 32"><defs><clipPath id="master_svg0_23_02462"><rect x="0" y="0" width="32" height="32" rx="0"/></clipPath></defs><g clip-path="url(#master_svg0_23_02462)"><g><path d="M5,20L5,25Q5,25.0985,5.019215,25.1951Q5.03843,25.2917,5.076121,25.3827Q5.113812,25.4737,5.16853,25.5556Q5.223249,25.6375,5.292893,25.7071Q5.362537,25.776699999999998,5.44443,25.8315Q5.526322,25.886200000000002,5.617317,25.9239Q5.708311,25.9616,5.80491,25.980800000000002Q5.9015086,26,6,26L26,26Q26.0985,26,26.1951,25.980800000000002Q26.2917,25.9616,26.3827,25.9239Q26.4737,25.886200000000002,26.5556,25.8315Q26.6375,25.776699999999998,26.7071,25.7071Q26.7767,25.6375,26.8315,25.5556Q26.8862,25.4737,26.9239,25.3827Q26.9616,25.2917,26.9808,25.1951Q27,25.0985,27,25L27,20Q27,17.76272,26.1352,15.718Q25.3001,13.743780000000001,23.7782,12.22183Q22.2562,10.699866,20.282,9.864845Q18.237299999999998,9,16,9.000001Q13.76272,9.000001,11.718,9.864846Q9.743780000000001,10.699869,8.22183,12.22183Q6.699867,13.743780000000001,5.864845,15.718Q5,17.76272,5,20ZM7,24L25,24L25,20Q25,18.168300000000002,24.2931,16.4971Q23.6101,14.882159999999999,22.364,13.63604Q21.117800000000003,12.38991,19.5029,11.70685Q17.831699999999998,11,16,11Q14.16829,11,12.4971,11.70686Q10.882159999999999,12.38992,9.63604,13.63604Q8.38992,14.882159999999999,7.70685,16.4971Q7,18.16829,7,20L7,24Z" fill-rule="evenodd" fill="#0052D9" fill-opacity="1"/></g><g><path d="M25,17L25,25Q25,25.098489999999998,25.019215,25.19509Q25.038429999999998,25.29169,25.076121,25.38268Q25.113812,25.47368,25.16853,25.55557Q25.223249,25.63746,25.292893,25.70711Q25.362537,25.77675,25.44443,25.83147Q25.526322,25.88619,25.617317,25.92388Q25.708311,25.961570000000002,25.80491,25.98078Q25.9015086,26,26,26L28,26Q28.82843,26,29.41421,25.41421Q30,24.82843,30,24L30,18Q30,17.171573,29.41421,16.585786Q28.82843,16,28,16L26,16Q25.9015086,16,25.80491,16.019215Q25.708311,16.038429999999998,25.617317,16.076121Q25.526322,16.113812,25.44443,16.16853Q25.362537,16.223249,25.292893,16.292893Q25.223249,16.362537,25.16853,16.44443Q25.113812,16.526322,25.076121,16.617317Q25.038429999999998,16.708311,25.019215,16.80491Q25,16.9015086,25,17ZM27,24L28,24L28,18L27,18L27,24Z" fill-rule="evenodd" fill="#0052D9" fill-opacity="1"/></g><g><path d="M2,18L2,24Q2,24.82843,2.585786,25.41421Q3.171572,26,4,26L6,26Q6.09849,26,6.19509,25.98078Q6.29169,25.961570000000002,6.382680000000001,25.92388Q6.47368,25.88619,6.5555699999999995,25.83147Q6.63746,25.77675,6.70711,25.70711Q6.77675,25.63746,6.8314699999999995,25.55557Q6.88619,25.47368,6.9238800000000005,25.38268Q6.96157,25.29169,6.98078,25.19509Q7,25.098489999999998,7,25L7,17Q7,16.9015086,6.98078,16.80491Q6.96157,16.708311,6.9238800000000005,16.617317Q6.88619,16.526322,6.8314699999999995,16.44443Q6.77675,16.362537,6.70711,16.292893Q6.63746,16.223249,6.5555699999999995,16.16853Q6.47368,16.113812,6.382680000000001,16.076121Q6.29169,16.038429999999998,6.19509,16.019215Q6.09849,16,6,16L4,16Q3.171573,16,2.585786,16.585786Q2,17.171573,2,18ZM5,24L4,24L4,18L5,18L5,24Z" fill-rule="evenodd" fill="#0052D9" fill-opacity="1"/></g><g><ellipse cx="16" cy="5" rx="2" ry="2" fill-opacity="0" stroke-opacity="1" stroke="#0052D9" fill="none" stroke-width="2" stroke-linecap="ROUND" stroke-linejoin="round"/></g><g><path d="M15,7L15,9.5Q15,9.59849,15.019214999999999,9.69509Q15.03843,9.79169,15.076121,9.88268Q15.113812,9.97368,15.16853,10.05557Q15.223249,10.13746,15.292893,10.20711Q15.362537,10.27675,15.44443,10.33147Q15.526322,10.38619,15.617317,10.42388Q15.708311,10.46157,15.80491,10.48078Q15.9015086,10.5,16,10.5Q16.0984914,10.5,16.19509,10.48078Q16.291689,10.46157,16.382683,10.42388Q16.473678,10.38619,16.55557,10.33147Q16.637463,10.27675,16.707107,10.20711Q16.776751,10.13746,16.83147,10.05557Q16.886188,9.97368,16.923879,9.88268Q16.961570000000002,9.79169,16.980785,9.69509Q17,9.59849,17,9.5L17,7Q17,6.9015086,16.980785,6.80491Q16.961570000000002,6.708311,16.923879,6.617317Q16.886188,6.526322,16.83147,6.44443Q16.776751,6.362537,16.707107,6.292893Q16.637463,6.223249,16.55557,6.16853Q16.473678,6.113812,16.382683,6.076121Q16.291689,6.03843,16.19509,6.019215Q16.0984914,6,16,6Q15.9015086,6,15.80491,6.019215Q15.708311,6.03843,15.617317,6.076121Q15.526322,6.113812,15.44443,6.16853Q15.362537,6.223249,15.292893,6.292893Q15.223249,6.362537,15.16853,6.44443Q15.113812,6.526322,15.076121,6.617317Q15.03843,6.708311,15.019214999999999,6.80491Q15,6.9015086,15,7Z" fill-rule="evenodd" fill="#0052D9" fill-opacity="1"/></g><g><path d="M6,30L26,30Q26.0985,30,26.1951,29.980785Q26.2917,29.961570000000002,26.3827,29.923879Q26.4737,29.886188,26.5556,29.83147Q26.6375,29.776751,26.7071,29.707107Q26.7767,29.637463,26.8315,29.55557Q26.8862,29.473678,26.9239,29.382683Q26.9616,29.291689,26.9808,29.19509Q27,29.0984914,27,29Q27,28.9015086,26.9808,28.80491Q26.9616,28.708311,26.9239,28.617317Q26.8862,28.526322,26.8315,28.44443Q26.7767,28.362537,26.7071,28.292893Q26.6375,28.223249,26.5556,28.16853Q26.4737,28.113812,26.3827,28.076121Q26.2917,28.038429999999998,26.1951,28.019215Q26.0985,28,26,28L6,28Q5.9015086,28,5.80491,28.019215Q5.708311,28.038429999999998,5.617317,28.076121Q5.526322,28.113812,5.44443,28.16853Q5.362537,28.223249,5.292893,28.292893Q5.223249,28.362537,5.16853,28.44443Q5.113812,28.526322,5.076121,28.617317Q5.03843,28.708311,5.019215,28.80491Q5,28.9015086,5,29Q5,29.0984914,5.019215,29.19509Q5.03843,29.291689,5.076121,29.382683Q5.113812,29.473678,5.16853,29.55557Q5.223249,29.637463,5.292893,29.707107Q5.362537,29.776751,5.44443,29.83147Q5.526322,29.886188,5.617317,29.923879Q5.708311,29.961570000000002,5.80491,29.980785Q5.9015086,30,6,30Z" fill-rule="evenodd" fill="#0052D9" fill-opacity="1"/></g><g><path d="M15,16L15,21Q15,21.098489999999998,15.019214999999999,21.19509Q15.03843,21.29169,15.076121,21.38268Q15.113812,21.47368,15.16853,21.55557Q15.223249,21.63746,15.292893,21.70711Q15.362537,21.77675,15.44443,21.83147Q15.526322,21.88619,15.617317,21.92388Q15.708311,21.961570000000002,15.80491,21.98078Q15.9015086,22,16,22Q16.0984914,22,16.19509,21.98078Q16.291689,21.961570000000002,16.382683,21.92388Q16.473678,21.88619,16.55557,21.83147Q16.637463,21.77675,16.707107,21.70711Q16.776751,21.63746,16.83147,21.55557Q16.886188,21.47368,16.923879,21.38268Q16.961570000000002,21.29169,16.980785,21.19509Q17,21.098489999999998,17,21L17,16Q17,15.9015086,16.980785,15.80491Q16.961570000000002,15.708311,16.923879,15.617317Q16.886188,15.526322,16.83147,15.44443Q16.776751,15.362537,16.707107,15.292893Q16.637463,15.223249,16.55557,15.16853Q16.473678,15.113812,16.382683,15.076121Q16.291689,15.03843,16.19509,15.019214999999999Q16.0984914,15,16,15Q15.9015086,15,15.80491,15.019214999999999Q15.708311,15.03843,15.617317,15.076121Q15.526322,15.113812,15.44443,15.16853Q15.362537,15.223249,15.292893,15.292893Q15.223249,15.362537,15.16853,15.44443Q15.113812,15.526322,15.076121,15.617317Q15.03843,15.708311,15.019214999999999,15.80491Q15,15.9015086,15,16Z" fill-rule="evenodd" fill="#0052D9" fill-opacity="1"/></g><g><path d="M18,17L18,20Q18,20.098489999999998,18.019215,20.19509Q18.038429999999998,20.29169,18.076121,20.38268Q18.113812,20.47368,18.16853,20.55557Q18.223249,20.63746,18.292893,20.70711Q18.362537,20.77675,18.44443,20.83147Q18.526322,20.88619,18.617317,20.92388Q18.708311,20.961570000000002,18.80491,20.98078Q18.9015086,21,19,21Q19.0984914,21,19.19509,20.98078Q19.291689,20.961570000000002,19.382683,20.92388Q19.473678,20.88619,19.55557,20.83147Q19.637463,20.77675,19.707107,20.70711Q19.776751,20.63746,19.83147,20.55557Q19.886188,20.47368,19.923879,20.38268Q19.961570000000002,20.29169,19.980785,20.19509Q20,20.098489999999998,20,20L20,17Q20,16.9015086,19.980785,16.80491Q19.961570000000002,16.708311,19.923879,16.617317Q19.886188,16.526322,19.83147,16.44443Q19.776751,16.362537,19.707107,16.292893Q19.637463,16.223249,19.55557,16.16853Q19.473678,16.113812,19.382683,16.076121Q19.291689,16.038429999999998,19.19509,16.019215Q19.0984914,16,19,16Q18.9015086,16,18.80491,16.019215Q18.708311,16.038429999999998,18.617317,16.076121Q18.526322,16.113812,18.44443,16.16853Q18.362537,16.223249,18.292893,16.292893Q18.223249,16.362537,18.16853,16.44443Q18.113812,16.526322,18.076121,16.617317Q18.038429999999998,16.708311,18.019215,16.80491Q18,16.9015086,18,17Z" fill-rule="evenodd" fill="#0052D9" fill-opacity="1"/></g><g><path d="M9,19L9,20Q9,20.098489999999998,9.019214999999999,20.19509Q9.03843,20.29169,9.076121,20.38268Q9.113812,20.47368,9.16853,20.55557Q9.223249,20.63746,9.292893,20.70711Q9.362537,20.77675,9.44443,20.83147Q9.526322,20.88619,9.617317,20.92388Q9.708311,20.961570000000002,9.80491,20.98079Q9.9015086,21,10,21Q10.0984914,21,10.19509,20.98079Q10.291689,20.961570000000002,10.382683,20.92388Q10.473678,20.88619,10.55557,20.83147Q10.637463,20.77675,10.707107,20.70711Q10.776751,20.63746,10.83147,20.55557Q10.886188,20.47368,10.923879,20.38268Q10.96157,20.29169,10.980785000000001,20.19509Q11,20.098489999999998,11,20L11,19Q11,18.9015086,10.980785000000001,18.80491Q10.96157,18.708311,10.923879,18.617317Q10.886188,18.526322,10.83147,18.44443Q10.776751,18.362537,10.707107,18.292893Q10.637463,18.223249,10.55557,18.16853Q10.473678,18.113812,10.382683,18.076121Q10.291689,18.038429999999998,10.19509,18.019215Q10.0984914,18,10,18Q9.9015086,18,9.80491,18.019215Q9.708311,18.038429999999998,9.617317,18.076121Q9.526322,18.113812,9.44443,18.16853Q9.362537,18.223249,9.292893,18.292893Q9.223249,18.362537,9.16853,18.44443Q9.113812,18.526322,9.076121,18.617317Q9.03843,18.708311,9.019214999999999,18.80491Q9,18.9015086,9,19Z" fill-rule="evenodd" fill="#0052D9" fill-opacity="1"/></g><g><path d="M21,19L21,20Q21,20.098489999999998,21.019215,20.19509Q21.038429999999998,20.29169,21.076121,20.38268Q21.113812,20.47368,21.16853,20.55557Q21.223249,20.63746,21.292893,20.70711Q21.362537,20.77675,21.44443,20.83147Q21.526322,20.88619,21.617317,20.92388Q21.708311,20.961570000000002,21.80491,20.98079Q21.9015086,21,22,21Q22.0984914,21,22.19509,20.98079Q22.291689,20.961570000000002,22.382683,20.92388Q22.473678,20.88619,22.55557,20.83147Q22.637463,20.77675,22.707107,20.70711Q22.776751,20.63746,22.83147,20.55557Q22.886188,20.47368,22.923879,20.38268Q22.961570000000002,20.29169,22.980785,20.19509Q23,20.098489999999998,23,20L23,19Q23,18.9015086,22.980785,18.80491Q22.961570000000002,18.708311,22.923879,18.617317Q22.886188,18.526322,22.83147,18.44443Q22.776751,18.362537,22.707107,18.292893Q22.637463,18.223249,22.55557,18.16853Q22.473678,18.113812,22.382683,18.076121Q22.291689,18.038429999999998,22.19509,18.019215Q22.0984914,18,22,18Q21.9015086,18,21.80491,18.019215Q21.708311,18.038429999999998,21.617317,18.076121Q21.526322,18.113812,21.44443,18.16853Q21.362537,18.223249,21.292893,18.292893Q21.223249,18.362537,21.16853,18.44443Q21.113812,18.526322,21.076121,18.617317Q21.038429999999998,18.708311,21.019215,18.80491Q21,18.9015086,21,19Z" fill-rule="evenodd" fill="#0052D9" fill-opacity="1"/></g><g><path d="M12,17L12,20Q12,20.098489999999998,12.019214999999999,20.19509Q12.03843,20.29169,12.076121,20.38268Q12.113812,20.47368,12.16853,20.55557Q12.223249,20.63746,12.292893,20.70711Q12.362537,20.77675,12.44443,20.83147Q12.526322,20.88619,12.617317,20.92388Q12.708311,20.961570000000002,12.80491,20.98078Q12.9015086,21,13,21Q13.0984914,21,13.19509,20.98078Q13.291689,20.961570000000002,13.382683,20.92388Q13.473678,20.88619,13.55557,20.83147Q13.637463,20.77675,13.707107,20.70711Q13.776751,20.63746,13.83147,20.55557Q13.886188,20.47368,13.923879,20.38268Q13.96157,20.29169,13.980785000000001,20.19509Q14,20.098489999999998,14,20L14,17Q14,16.9015086,13.980785000000001,16.80491Q13.96157,16.708311,13.923879,16.617317Q13.886188,16.526322,13.83147,16.44443Q13.776751,16.362537,13.707107,16.292893Q13.637463,16.223249,13.55557,16.16853Q13.473678,16.113812,13.382683,16.076121Q13.291689,16.038429999999998,13.19509,16.019215Q13.0984914,16,13,16Q12.9015086,16,12.80491,16.019215Q12.708311,16.038429999999998,12.617317,16.076121Q12.526322,16.113812,12.44443,16.16853Q12.362537,16.223249,12.292893,16.292893Q12.223249,16.362537,12.16853,16.44443Q12.113812,16.526322,12.076121,16.617317Q12.03843,16.708311,12.019214999999999,16.80491Q12,16.9015086,12,17Z" fill-rule="evenodd" fill="#0052D9" fill-opacity="1"/></g></g></svg>