<svg xmlns="http://www.w3.org/2000/svg" xmlns:xlink="http://www.w3.org/1999/xlink" fill="none" version="1.1" width="32" height="32" viewBox="0 0 32 32"><defs><clipPath id="master_svg0_23_03154"><rect x="0" y="0" width="32" height="32" rx="0"/></clipPath></defs><g clip-path="url(#master_svg0_23_03154)"><g><path d="M27,8L27,9.33333Q27,9.43182,27.0192,9.52842Q27.0384,9.62502,27.0761,9.71602Q27.1138,9.80701,27.1685,9.8889Q27.2232,9.9708,27.2929,10.04044Q27.3625,10.11008,27.4444,10.1648Q27.5263,10.21952,27.6173,10.25721Q27.7083,10.2949,27.8049,10.314119999999999Q27.9015,10.33333,28,10.33333Q28.0985,10.33333,28.1951,10.314119999999999Q28.2917,10.2949,28.3827,10.25721Q28.4737,10.21952,28.5556,10.1648Q28.6375,10.11008,28.7071,10.04044Q28.7767,9.9708,28.8315,9.8889Q28.8862,9.80701,28.9239,9.71602Q28.9616,9.62502,28.9808,9.52842Q29,9.43182,29,9.33333L29,8Q29,5.92893,27.5355,4.464465Q26.0711,3,24,3L8,3Q5.92893,3,4.464465,4.464466Q3,5.92893,3,8L3,9.33333Q3,9.43182,3.019215,9.52842Q3.03843,9.62502,3.076121,9.71602Q3.1138120000000002,9.80701,3.16853,9.8889Q3.223249,9.9708,3.292893,10.04044Q3.362537,10.11008,3.44443,10.1648Q3.526322,10.21952,3.617317,10.25721Q3.708311,10.2949,3.80491,10.314119999999999Q3.9015086,10.33333,4,10.33333Q4.0984914,10.33333,4.19509,10.314119999999999Q4.291689,10.2949,4.382683,10.25721Q4.473678,10.21952,4.55557,10.1648Q4.637463,10.11008,4.707107,10.04044Q4.776751,9.9708,4.83147,9.8889Q4.886188,9.80701,4.923879,9.71602Q4.96157,9.62502,4.980785,9.52842Q5,9.43182,5,9.33333L5,8Q5,6.75736,5.87868,5.87868Q6.75736,5,8,5L24,5Q25.2426,5,26.1213,5.87868Q27,6.75736,27,8Z" fill-rule="evenodd" fill="#0052D9" fill-opacity="1"/></g><g><path d="M20.33349609375,12L20.33349609375,20Q20.33349609375,20.098489999999998,20.35271109375,20.19509Q20.371926093749998,20.29169,20.40961709375,20.38268Q20.44730809375,20.47368,20.50202609375,20.55557Q20.55674509375,20.63746,20.62638909375,20.70711Q20.69603309375,20.77675,20.77792609375,20.83147Q20.85981809375,20.88619,20.95081309375,20.92388Q21.04180709375,20.961570000000002,21.13840609375,20.98078Q21.23500469375,21,21.33349609375,21Q21.43198749375,21,21.52858609375,20.98078Q21.62518509375,20.961570000000002,21.71617909375,20.92388Q21.80717409375,20.88619,21.88906609375,20.83147Q21.97095909375,20.77675,22.04060309375,20.70711Q22.11024709375,20.63746,22.16496609375,20.55557Q22.21968409375,20.47368,22.25737509375,20.38268Q22.295066093750002,20.29169,22.31428109375,20.19509Q22.33349609375,20.098489999999998,22.33349609375,20L22.33349609375,12Q22.33349609375,11.9015086,22.31428109375,11.80491Q22.295066093750002,11.708311,22.25737509375,11.617317Q22.21968409375,11.526322,22.16496609375,11.44443Q22.11024709375,11.362537,22.04060309375,11.292893Q21.97095909375,11.223249,21.88906609375,11.16853Q21.80717409375,11.113812,21.71617909375,11.076121Q21.62518509375,11.03843,21.52858609375,11.019214999999999Q21.43198749375,11,21.33349609375,11Q21.23500469375,11,21.13840609375,11.019214999999999Q21.04180709375,11.03843,20.95081309375,11.076121Q20.85981809375,11.113812,20.77792609375,11.16853Q20.69603309375,11.223249,20.62638909375,11.292893Q20.55674509375,11.362537,20.50202609375,11.44443Q20.44730809375,11.526322,20.40961709375,11.617317Q20.371926093749998,11.708311,20.35271109375,11.80491Q20.33349609375,11.9015086,20.33349609375,12Z" fill-rule="evenodd" fill="#0052D9" fill-opacity="1"/></g><g><path d="M25.66650390625,13.333343505859375L25.66650390625,18.666673505859375Q25.66650390625,18.765163505859377,25.68571890625,18.861763505859376Q25.704933906249998,18.958363505859374,25.74262490625,19.049363505859375Q25.78031590625,19.140353505859373,25.83503390625,19.222243505859375Q25.88975290625,19.304143505859376,25.95939690625,19.373783505859375Q26.02904090625,19.443423505859375,26.11093390625,19.498143505859375Q26.19282590625,19.552863505859374,26.28382090625,19.590553505859376Q26.37481490625,19.628243505859373,26.47141390625,19.647463505859374Q26.56801250625,19.666673505859375,26.66650390625,19.666673505859375Q26.76499530625,19.666673505859375,26.86159390625,19.647463505859374Q26.95819290625,19.628243505859373,27.04918690625,19.590553505859376Q27.14018190625,19.552863505859374,27.22207390625,19.498143505859375Q27.30396690625,19.443423505859375,27.37361090625,19.373783505859375Q27.44325490625,19.304143505859376,27.49797390625,19.222243505859375Q27.55269190625,19.140353505859373,27.59038290625,19.049363505859375Q27.628073906250002,18.958363505859374,27.64728890625,18.861763505859376Q27.66650390625,18.765163505859377,27.66650390625,18.666673505859375L27.66650390625,13.333343505859375Q27.66650390625,13.234852105859375,27.64728890625,13.138253505859375Q27.628073906250002,13.041654505859375,27.59038290625,12.950660505859375Q27.55269190625,12.859665505859375,27.49797390625,12.777773505859376Q27.44325490625,12.695880505859375,27.37361090625,12.626236505859374Q27.30396690625,12.556592505859374,27.22207390625,12.501873505859376Q27.14018190625,12.447155505859374,27.04918690625,12.409464505859376Q26.95819290625,12.371773505859375,26.86159390625,12.352558505859374Q26.76499530625,12.333343505859375,26.66650390625,12.333343505859375Q26.56801250625,12.333343505859375,26.47141390625,12.352558505859374Q26.37481490625,12.371773505859375,26.28382090625,12.409464505859376Q26.19282590625,12.447155505859374,26.11093390625,12.501873505859376Q26.02904090625,12.556592505859374,25.95939690625,12.626236505859374Q25.88975290625,12.695880505859375,25.83503390625,12.777773505859376Q25.78031590625,12.859665505859375,25.74262490625,12.950660505859375Q25.704933906249998,13.041654505859375,25.68571890625,13.138253505859375Q25.66650390625,13.234852105859375,25.66650390625,13.333343505859375Z" fill-rule="evenodd" fill="#0052D9" fill-opacity="1"/></g><g><path d="M15,10L15,22Q15,22.0985,15.019214999999999,22.1951Q15.03843,22.2917,15.076121,22.3827Q15.113812,22.4737,15.16853,22.5556Q15.223249,22.6375,15.292893,22.7071Q15.362537,22.776699999999998,15.44443,22.8315Q15.526322,22.886200000000002,15.617317,22.9239Q15.708311,22.9616,15.80491,22.980800000000002Q15.9015086,23,16,23Q16.0984914,23,16.19509,22.980800000000002Q16.291689,22.9616,16.382683,22.9239Q16.473678,22.886200000000002,16.55557,22.8315Q16.637463,22.776699999999998,16.707107,22.7071Q16.776751,22.6375,16.83147,22.5556Q16.886188,22.4737,16.923879,22.3827Q16.961570000000002,22.2917,16.980785,22.1951Q17,22.0985,17,22L17,10Q17,9.9015086,16.980785,9.80491Q16.961570000000002,9.708311,16.923879,9.617317Q16.886188,9.526322,16.83147,9.44443Q16.776751,9.362537,16.707107,9.292893Q16.637463,9.223249,16.55557,9.16853Q16.473678,9.113812,16.382683,9.076121Q16.291689,9.03843,16.19509,9.019214999999999Q16.0984914,9,16,9Q15.9015086,9,15.80491,9.019214999999999Q15.708311,9.03843,15.617317,9.076121Q15.526322,9.113812,15.44443,9.16853Q15.362537,9.223249,15.292893,9.292893Q15.223249,9.362537,15.16853,9.44443Q15.113812,9.526322,15.076121,9.617317Q15.03843,9.708311,15.019214999999999,9.80491Q15,9.9015086,15,10Z" fill-rule="evenodd" fill="#0052D9" fill-opacity="1"/></g><g><path d="M9.66650390625,12L9.66650390625,20Q9.66650390625,20.098489999999998,9.685718906249999,20.19509Q9.70493390625,20.29169,9.74262490625,20.38268Q9.78031590625,20.47368,9.83503390625,20.55557Q9.88975290625,20.63746,9.95939690625,20.70711Q10.02904090625,20.77675,10.11093390625,20.83147Q10.19282590625,20.88619,10.28382090625,20.92388Q10.37481490625,20.961570000000002,10.47141390625,20.98078Q10.56801250625,21,10.66650390625,21Q10.76499530625,21,10.86159390625,20.98078Q10.95819290625,20.961570000000002,11.04918690625,20.92388Q11.14018190625,20.88619,11.22207390625,20.83147Q11.30396690625,20.77675,11.37361090625,20.70711Q11.44325490625,20.63746,11.49797390625,20.55557Q11.55269190625,20.47368,11.59038290625,20.38268Q11.62807390625,20.29169,11.647288906250001,20.19509Q11.66650390625,20.098489999999998,11.66650390625,20L11.66650390625,12Q11.66650390625,11.9015086,11.647288906250001,11.80491Q11.62807390625,11.708311,11.59038290625,11.617317Q11.55269190625,11.526322,11.49797390625,11.44443Q11.44325490625,11.362537,11.37361090625,11.292893Q11.30396690625,11.223249,11.22207390625,11.16853Q11.14018190625,11.113812,11.04918690625,11.076121Q10.95819290625,11.03843,10.86159390625,11.019214999999999Q10.76499530625,11,10.66650390625,11Q10.56801250625,11,10.47141390625,11.019214999999999Q10.37481490625,11.03843,10.28382090625,11.076121Q10.19282590625,11.113812,10.11093390625,11.16853Q10.02904090625,11.223249,9.95939690625,11.292893Q9.88975290625,11.362537,9.83503390625,11.44443Q9.78031590625,11.526322,9.74262490625,11.617317Q9.70493390625,11.708311,9.685718906249999,11.80491Q9.66650390625,11.9015086,9.66650390625,12Z" fill-rule="evenodd" fill="#0052D9" fill-opacity="1"/></g><g><path d="M4.33349609375,13.333343505859375L4.33349609375,18.666673505859375Q4.33349609375,18.765163505859377,4.35271109375,18.861763505859376Q4.37192609375,18.958363505859374,4.40961709375,19.049363505859375Q4.44730809375,19.140353505859373,4.50202609375,19.222243505859375Q4.55674509375,19.304143505859376,4.62638909375,19.373783505859375Q4.69603309375,19.443423505859375,4.77792609375,19.498143505859375Q4.85981809375,19.552863505859374,4.95081309375,19.590553505859376Q5.04180709375,19.628243505859373,5.13840609375,19.647463505859374Q5.23500469375,19.666673505859375,5.33349609375,19.666673505859375Q5.43198749375,19.666673505859375,5.52858609375,19.647463505859374Q5.62518509375,19.628243505859373,5.71617909375,19.590553505859376Q5.80717409375,19.552863505859374,5.88906609375,19.498143505859375Q5.97095909375,19.443423505859375,6.04060309375,19.373783505859375Q6.11024709375,19.304143505859376,6.16496609375,19.222243505859375Q6.21968409375,19.140353505859373,6.25737509375,19.049363505859375Q6.29506609375,18.958363505859374,6.31428109375,18.861763505859376Q6.33349609375,18.765163505859377,6.33349609375,18.666673505859375L6.33349609375,13.333343505859375Q6.33349609375,13.234852105859375,6.31428109375,13.138253505859375Q6.29506609375,13.041654505859375,6.25737509375,12.950660505859375Q6.21968409375,12.859665505859375,6.16496609375,12.777773505859376Q6.11024709375,12.695880505859375,6.04060309375,12.626236505859374Q5.97095909375,12.556592505859374,5.88906609375,12.501873505859376Q5.80717409375,12.447155505859374,5.71617909375,12.409464505859376Q5.62518509375,12.371773505859375,5.52858609375,12.352558505859374Q5.43198749375,12.333343505859375,5.33349609375,12.333343505859375Q5.23500469375,12.333343505859375,5.13840609375,12.352558505859374Q5.04180709375,12.371773505859375,4.95081309375,12.409464505859376Q4.85981809375,12.447155505859374,4.77792609375,12.501873505859376Q4.69603309375,12.556592505859374,4.62638909375,12.626236505859374Q4.55674509375,12.695880505859375,4.50202609375,12.777773505859376Q4.44730809375,12.859665505859375,4.40961709375,12.950660505859375Q4.37192609375,13.041654505859375,4.35271109375,13.138253505859375Q4.33349609375,13.234852105859375,4.33349609375,13.333343505859375Z" fill-rule="evenodd" fill="#0052D9" fill-opacity="1"/></g><g><path d="M29,23.999986494140625L29,22.666656494140625Q29,22.568165094140625,28.9808,22.471566494140625Q28.9616,22.374967494140623,28.9239,22.283973494140625Q28.8862,22.192978494140625,28.8315,22.111086494140626Q28.7767,22.029193494140625,28.7071,21.959549494140624Q28.6375,21.889905494140624,28.5556,21.835186494140626Q28.4737,21.780468494140624,28.3827,21.742777494140626Q28.2917,21.705086494140623,28.1951,21.685871494140624Q28.0985,21.666656494140625,28,21.666656494140625Q27.9015,21.666656494140625,27.8049,21.685871494140624Q27.7083,21.705086494140623,27.6173,21.742777494140626Q27.5263,21.780468494140624,27.4444,21.835186494140626Q27.3625,21.889905494140624,27.2929,21.959549494140624Q27.2232,22.029193494140625,27.1685,22.111086494140626Q27.1138,22.192978494140625,27.0761,22.283973494140625Q27.0384,22.374967494140623,27.0192,22.471566494140625Q27,22.568165094140625,27,22.666656494140625L27,23.999986494140625Q27,25.242626494140623,26.1213,26.121306494140626Q25.2426,26.999986494140625,24,26.999986494140625L8,26.999986494140625Q6.75736,26.999986494140625,5.87868,26.121306494140626Q5,25.242626494140623,5,23.999986494140625L5,22.666656494140625Q5,22.568165094140625,4.980785,22.471566494140625Q4.96157,22.374967494140623,4.923879,22.283973494140625Q4.886188,22.192978494140625,4.83147,22.111086494140626Q4.776751,22.029193494140625,4.707107,21.959549494140624Q4.637463,21.889905494140624,4.55557,21.835186494140626Q4.473678,21.780468494140624,4.382683,21.742777494140626Q4.291689,21.705086494140623,4.19509,21.685871494140624Q4.0984914,21.666656494140625,4,21.666656494140625Q3.9015086,21.666656494140625,3.80491,21.685871494140624Q3.708311,21.705086494140623,3.617317,21.742777494140626Q3.526322,21.780468494140624,3.44443,21.835186494140626Q3.362537,21.889905494140624,3.292893,21.959549494140624Q3.223249,22.029193494140625,3.16853,22.111086494140626Q3.1138120000000002,22.192978494140625,3.076121,22.283973494140625Q3.03843,22.374967494140623,3.019215,22.471566494140625Q3,22.568165094140625,3,22.666656494140625L3,23.999986494140625Q3,26.071056494140624,4.464465,27.535526494140626Q5.92893,28.999986494140625,8,28.999986494140625L24,28.999986494140625Q26.0711,28.999986494140625,27.5355,27.535526494140626Q29,26.071056494140624,29,23.999986494140625Z" fill-rule="evenodd" fill="#0052D9" fill-opacity="1"/></g></g></svg>