<?xml version="1.0" encoding="UTF-8"?>
<svg width="32px" height="32px" viewBox="0 0 32 32" version="1.1" xmlns="http://www.w3.org/2000/svg" xmlns:xlink="http://www.w3.org/1999/xlink">
    <title>蓝色32*32</title>
    <g id="页面-6" stroke="none" stroke-width="1" fill="none" fill-rule="evenodd">
        <circle id="椭圆形备份-7" fill="#0052D9" cx="25.8994949" cy="6.10050506" r="1.33333333"></circle>
        <circle id="椭圆形备份-2" fill="#0052D9" transform="translate(21.704233, 18.100505) rotate(-360.000000) translate(-21.704233, -18.100505) " cx="21.7042328" cy="18.1005051" r="1.33333333"></circle>
        <path d="M15.1111111,9.33333333 L18,9.33333333 L18,13.6666667 C18,16.0599006 16.0599006,18 13.6666667,18 C11.2734328,18 9.33333333,16.0599006 9.33333333,13.6666667 L9.33333333,9.33333333 L9.33333333,9.33333333 L12.2222222,9.33333333" id="路径" stroke="#0052D9" stroke-width="1.33333333"></path>
        <path d="M21.6666667,18.3615013 L21.6666667,19.6948346 C21.6666667,21.9039736 19.8758057,23.6948346 17.6666667,23.6948346 C15.4575277,23.6948346 13.6666667,21.9039736 13.6666667,19.6948346 L13.6666667,18.3615013" id="路径" stroke="#0052D9" stroke-width="1.33333333"></path>
        <circle id="椭圆形备份-8" fill="#0052D9" transform="translate(6.100505, 25.899495) rotate(-360.000000) translate(-6.100505, -25.899495) " cx="6.10050506" cy="25.8994949" r="1.33333333"></circle>
        <path d="M25.5823811,5.79317947 C23.0777855,3.44088991 19.7071617,2 16,2 C8.2680135,2 2,8.2680135 2,16 C2,17.5049797 2.23747016,18.9544953 2.67698421,20.3131205 M6.20470087,26.0026121 C8.72954297,28.4754477 12.1867323,30 16,30 C23.7319865,30 30,23.7319865 30,16 C30,14.4891351 29.760669,13.034169 29.3178504,11.6709452" id="形状" stroke="#0052D9" stroke-width="1.33333333" stroke-linecap="round"></path>
    </g>
</svg>