<svg width="32" height="32" viewBox="0 0 32 32" fill="none" xmlns="http://www.w3.org/2000/svg">
<g clip-path="url(#clip0_2_732)">
<path d="M28.62 6.00001L28.79 6.23001C33.55 12.59 32.98 21.6 27.37 27.3C22.23 32.52 14.3 33.48 8.13 29.78C7.98 29.82 7.83 29.85 7.67 29.85C6.75 29.85 6.01 29.1 6.01 28.16C6.01 27.22 6.75 26.47 7.67 26.47C8.59 26.47 9.33 27.22 9.33 28.16C9.33 28.19 9.33 28.22 9.33 28.25C14.73 31.34 21.57 30.45 26.03 25.93C30.92 20.97 31.46 13.14 27.4 7.55001L27.28 7.38001L28.64 6.00001H28.62ZM4.64 4.71001C9.78 -0.509994 17.71 -1.46999 23.88 2.22001C24.03 2.18001 24.18 2.15001 24.34 2.15001C25.26 2.15001 26 2.90001 26 3.84001C26 4.78001 25.26 5.53001 24.34 5.53001C23.42 5.53001 22.68 4.78001 22.68 3.84001C22.68 3.81001 22.68 3.78001 22.68 3.75001C17.28 0.660006 10.44 1.55001 5.99 6.07001C1.1 11.04 0.549999 18.86 4.62 24.45L4.74 24.62L3.38 26L3.21 25.77C-1.55 19.42 -0.98 10.4 4.64 4.71001Z" fill="#0052D9"/>
<path d="M16 8.47C20.15 8.47 23.53 11.85 23.53 16C23.53 20.15 20.15 23.53 16 23.53C11.85 23.53 8.47 20.15 8.47 16C8.47 11.85 11.85 8.47 16 8.47ZM16 6.47C10.74 6.47 6.47 10.74 6.47 16C6.47 21.26 10.74 25.53 16 25.53C21.26 25.53 25.53 21.26 25.53 16C25.53 10.74 21.26 6.47 16 6.47Z" fill="#0052D9"/>
<path d="M13.81 25.24C12.44 24.94 11.27 24.12 10.51 22.94C9.75 21.76 9.5 20.35 9.8 18.98C10.1 17.61 10.92 16.44 12.1 15.68C13.28 14.92 14.69 14.67 16.06 14.97L15.63 16.92C14.78 16.73 13.91 16.89 13.18 17.36C12.45 17.83 11.94 18.56 11.75 19.4C11.56 20.25 11.72 21.12 12.19 21.85C12.66 22.58 13.38 23.09 14.23 23.27L13.8 25.22L13.81 25.24Z" fill="#0052D9"/>
<path d="M16.77 17.05C16.39 17.05 16.01 17.01 15.63 16.93L16.06 14.98C16.91 15.17 17.78 15.01 18.51 14.54C19.24 14.07 19.75 13.35 19.93 12.5C20.11 11.65 19.96 10.78 19.49 10.05C19.02 9.31999 18.3 8.80999 17.45 8.62999L17.88 6.67999C19.25 6.97999 20.42 7.79999 21.18 8.97999C21.94 10.16 22.19 11.57 21.89 12.94C21.59 14.31 20.77 15.48 19.59 16.24C18.73 16.79 17.76 17.07 16.77 17.07V17.05Z" fill="#0052D9"/>
<path fill-rule="evenodd" clip-rule="evenodd" d="M17.7358 19.8717C17.6161 19.3325 17.9562 18.7984 18.4954 18.6787L18.5026 18.6772L18.5 18.666C20.5213 18.1952 21.788 16.1709 21.3171 14.1496L21.3106 14.142L21.3366 14.136L21.068 13.497L22.1901 11.0493L23.5649 13.6203L23.2849 13.8092C23.9229 16.8169 22.0696 19.8006 19.0989 20.5773C19.0448 20.5999 18.988 20.6181 18.9288 20.6312C18.3896 20.7509 17.8555 20.4108 17.7358 19.8717Z" fill="#0052D9"/>
<path fill-rule="evenodd" clip-rule="evenodd" d="M10.5843 16.7237C10.6368 15.0425 11.8245 13.5566 13.5173 13.1728C13.5599 13.1708 13.6028 13.1661 13.6459 13.1585C14.1898 13.0626 14.5529 12.5439 14.457 12C14.3612 11.4564 13.843 11.0933 13.2994 11.1887L13.2973 11.177C10.1763 11.7622 8.10673 14.7672 8.68405 17.8879L8.64235 17.9134L9.5 20.5L11.1315 18.1462L10.6017 16.713L10.5843 16.7237Z" fill="#0052D9"/>
</g>
<defs>
<clipPath id="clip0_2_732">
<rect width="32" height="32" fill="white"/>
</clipPath>
</defs>
</svg>
