<svg width="32" height="32" viewBox="0 0 32 32" fill="none" xmlns="http://www.w3.org/2000/svg">
<rect width="32" height="32" fill="white"/>
<path fill-rule="evenodd" clip-rule="evenodd" d="M24.7159 15.5748C23.7258 16.6834 21.8194 17.0678 20.6108 16.083C20.4369 15.9427 20.2648 15.8006 20.0924 15.6583L20.0923 15.6582L20.0923 15.6582C19.9671 15.5549 19.8418 15.4514 19.7155 15.3484C19.6047 15.2569 19.4943 15.1648 19.3839 15.0726L19.3835 15.0723L19.3835 15.0723C19.119 14.8515 18.8544 14.6306 18.5832 14.4189C17.8324 13.8363 16.9066 13.5248 15.9563 13.5348C15.0059 13.5448 14.0869 13.8759 13.3485 14.4742C12.9834 14.7691 12.6192 15.0658 12.2558 15.3642L11.3658 16.0909C10.5916 16.715 9.4462 16.7808 8.53776 16.4385C8.10585 16.277 7.71415 16.0236 7.38971 15.696C7.31364 15.6199 7.24157 15.5399 7.17379 15.4563C7.16226 15.4423 7.14902 15.4271 7.13509 15.4112L7.13508 15.4112C7.07584 15.3433 7.00426 15.2612 7 15.193C7.00232 15.0717 7.01643 14.9509 7.04213 14.8323C7.05793 14.7191 7.07373 14.6058 7.09479 14.4952C7.25054 13.5845 7.54632 12.7034 7.97163 11.8831C8.78405 10.3156 10.0374 9.01997 11.5771 8.156C13.1169 7.29202 14.8758 6.89745 16.637 7.02089C18.3983 7.14434 20.0849 7.78041 21.4891 8.85072C22.8933 9.92103 23.9536 11.3788 24.5394 13.0444C24.6687 13.4049 24.7743 13.7734 24.8554 14.1477C24.9055 14.3846 24.9476 14.6216 24.9765 14.8586C25.0011 14.9657 25.0065 15.0762 24.9923 15.1851C24.9839 15.2189 24.9697 15.251 24.9502 15.2799C24.8773 15.3822 24.7991 15.4807 24.7159 15.5748ZM21.3825 14.1298C21.2596 14.0283 21.1315 13.9224 20.9843 13.8023C20.8929 13.7269 20.7949 13.6451 20.6924 13.5595L20.6923 13.5594L20.6923 13.5594C20.4186 13.331 20.1127 13.0756 19.8141 12.8425L19.8141 12.8425L19.8092 12.8387C18.7019 11.9796 17.3366 11.5201 15.9351 11.5349C14.5347 11.5497 13.1804 12.0372 12.0919 12.9183C11.7233 13.216 11.3555 13.5155 10.9887 13.8167L10.1084 14.5356C10.0088 14.6133 9.65219 14.7212 9.24298 14.567L9.23832 14.5652C9.20054 14.5511 9.16358 14.5351 9.12758 14.5172C9.25795 13.9218 9.46614 13.3457 9.74713 12.8038L9.74733 12.8034C10.3802 11.5824 11.3564 10.5732 12.5558 9.90018C13.7552 9.22719 15.1253 8.91984 16.4972 9.016C17.8691 9.11215 19.1829 9.60762 20.2767 10.4413C21.3705 11.275 22.1964 12.4106 22.6527 13.708L22.6527 13.708L22.6568 13.7194C22.748 13.9737 22.8239 14.2331 22.8841 14.4963C22.7548 14.5624 22.6071 14.6125 22.4515 14.6356C22.1403 14.6818 21.9594 14.602 21.8741 14.5326L21.8741 14.5325L21.8668 14.5266C21.6938 14.387 21.5426 14.2621 21.3826 14.1299L21.3825 14.1298ZM18.9519 17.3179C19.0836 17.4285 19.2126 17.5365 19.3469 17.6418C19.4487 17.7289 19.5551 17.8107 19.6655 17.8867C20.2173 18.2553 20.8493 18.4864 21.5087 18.5608C21.8607 18.6016 22.2152 18.5978 22.5639 18.5502C22.6875 18.5333 22.8104 18.511 22.9322 18.4832L22.9423 18.4808C23.1266 18.4383 23.3083 18.3833 23.4862 18.3159C23.6722 18.2453 23.8527 18.1615 24.0263 18.0652L24.0352 18.0602C24.1578 17.9918 24.2768 17.9172 24.392 17.8367C24.4152 17.8219 24.4383 17.8068 24.4611 17.7915L24.4851 17.7752C24.6398 17.6692 24.7849 17.5496 24.9186 17.418C24.9075 17.571 24.882 17.7227 24.8423 17.8709C24.8159 17.9973 24.787 18.121 24.7554 18.2474C24.7486 18.2737 24.7416 18.3 24.7346 18.3263L24.7252 18.3611C24.6639 18.5865 24.5947 18.8119 24.5158 19.0374C24.4012 19.3613 24.2687 19.6772 24.1193 19.9838L24.1184 19.9856C24.0727 20.0793 24.0254 20.1722 23.9765 20.2642C23.3203 21.4997 22.3832 22.5718 21.2335 23.3902C19.7179 24.469 17.9063 25.0542 16.046 25.066C14.1856 25.0778 12.3668 24.5156 10.8375 23.4561C9.65247 22.6351 8.68597 21.5464 8.0119 20.2854C7.85276 19.9877 7.70992 19.6804 7.58435 19.3648L7.58211 19.3592C7.55398 19.2883 7.52671 19.217 7.50032 19.1453C7.39108 18.8513 7.2979 18.5516 7.22121 18.2474C7.2111 18.2083 7.20145 18.1691 7.19215 18.1299L7.18725 18.1092C7.15975 17.9918 7.13518 17.8741 7.11061 17.755C7.08329 17.6553 7.06739 17.5529 7.06322 17.4496C7.15129 17.536 7.2447 17.6168 7.34289 17.6914L7.35926 17.7037C7.38747 17.7248 7.41606 17.7455 7.44502 17.7656C7.594 17.8773 7.7504 17.9787 7.9131 18.0689L7.91816 18.0717C7.99179 18.1124 8.06671 18.1508 8.14281 18.1869C8.47077 18.3437 8.81712 18.4568 9.17298 18.5239L9.18355 18.5258C9.26127 18.5403 9.33945 18.5525 9.41798 18.5625C9.5025 18.5733 9.58744 18.5815 9.67267 18.5871C10.7364 18.658 11.7874 18.323 12.6139 17.6497L14.4124 16.183C14.7141 15.9113 15.0746 15.7131 15.4656 15.6037C15.795 15.5245 16.1382 15.522 16.4688 15.5964C16.7993 15.6708 17.1083 15.8202 17.372 16.033C17.688 16.2857 18.004 16.5442 18.3199 16.8027L18.3206 16.8032C18.531 16.9753 18.7415 17.1475 18.9519 17.3179ZM18.5547 19.5498C19.371 20.0951 20.306 20.4373 21.2815 20.5478C21.3137 20.5515 21.3459 20.555 21.3781 20.5582C20.9979 21.0099 20.5603 21.4145 20.0738 21.7608C18.8932 22.601 17.4823 23.0568 16.0333 23.066C14.5842 23.0752 13.1676 22.6374 11.9765 21.8121C11.4624 21.456 11.0011 21.0351 10.6026 20.5624C11.7957 20.4369 12.9353 19.9676 13.8771 19.2003L13.8779 19.1996L15.6764 17.733L15.7143 17.702L15.7507 17.6692C15.8122 17.6139 15.8837 17.5712 15.9613 17.5435C15.984 17.5412 16.0071 17.5425 16.0295 17.5476C16.0612 17.5547 16.0908 17.569 16.116 17.5894L16.116 17.5894L16.1226 17.5947C16.4345 17.8442 16.7314 18.0871 17.0375 18.3376L17.0377 18.3377C17.2448 18.5072 17.4561 18.6801 17.6792 18.8608C17.798 18.9606 17.9346 19.0749 18.0809 19.1906C18.2254 19.3122 18.3756 19.4268 18.5312 19.5339L18.5429 19.542L18.5547 19.5498Z" fill="#0052D9"/>
<path fill-rule="evenodd" clip-rule="evenodd" d="M3.5459 9.18191L16.0752 2.28313L28.4903 9.11897L30.5395 7.96419L16.0752 0L1.5459 8V24L16.0752 32L30.6046 24V11.97L28.6046 13.0971V22.8181L16.0752 29.7169L3.5459 22.8181V9.18191Z" fill="#0052D9"/>
</svg>
