<?xml version="1.0" encoding="UTF-8"?>
<svg width="32px" height="32px" viewBox="0 0 32 32" version="1.1" xmlns="http://www.w3.org/2000/svg" xmlns:xlink="http://www.w3.org/1999/xlink">
    <title>Prometheus监控服务-32</title>
    <defs>
        <polygon id="path-1" points="0 0 29.9999 0 29.9999 25.7 0 25.7"></polygon>
    </defs>
    <g id="Prometheus监控服务-32" stroke="none" stroke-width="1" fill="none" fill-rule="evenodd">
        <rect id="Rectangle-Copy" fill="#0052D9" opacity="0" x="0" y="0" width="32" height="32"></rect>
        <g id="Group-3" transform="translate(1.000100, 3.149800)">
            <mask id="mask-2" fill="white">
                <use xlink:href="#path-1"></use>
            </mask>
            <g id="Clip-2"></g>
            <path d="M22.709,0 L21.682,1.714 C25.462,3.988 28,8.118 28,12.85 C28,17.583 25.462,21.712 21.682,23.987 L22.709,25.7 C27.072,23.077 30,18.311 30,12.85 C30,7.389 27.072,2.624 22.709,0 L22.709,0 Z M2,12.85 C2,8.118 4.537,3.988 8.318,1.714 L7.29,0 C2.928,2.624 0,7.389 0,12.85 C0,18.311 2.928,23.077 7.29,25.7 L8.318,23.987 C4.537,21.713 2,17.583 2,12.85 L2,12.85 Z" id="Fill-1" fill="#0052D9" mask="url(#mask-2)"></path>
        </g>
        <g id="编组备份" transform="translate(8.500000, 6.325372)" fill="#0052D9" fill-rule="nonzero">
            <polygon id="路径-5" points="14.5 11.6746282 14.5 13.6746282 0.5 13.6746282 0.5 11.6746282"></polygon>
            <polygon id="路径-5备份" points="12.5 14.6746282 12.5 16.6746282 2.5 16.6746282 2.5 14.6746282"></polygon>
            <polygon id="路径-5备份-2" points="10.5 17.6746282 10.5 19.6746282 4.5 19.6746282 4.5 17.6746282"></polygon>
            <path d="M4.59253738,0 C5.04455067,0.672767621 5.30834275,1.55739306 5.38391363,2.65387633 C5.45948451,3.7503596 5.40156625,4.57510105 5.21015883,5.1281007 C5.06189787,5.00825932 4.13168099,4.40664281 3.13896711,4.22490395 C2.47715785,4.10374471 1.89675058,4.04625854 1.39774529,4.05244543 L2.13296849,5.64022444 C2.46147616,6.34966558 2.46147616,7.31201504 2.08372866,8.55322035 C1.64818064,9.984347 2.09287421,11.3186895 3.04589912,12.4727455 C3.2779897,12.7537933 3.52486848,13.0035468 3.77271765,13.2213519 L3.94098818,13.3639722 L4.13168099,13.5114336 L4.39311053,13.6977551 L10.2101588,13.6979473 L10.4405989,13.5669639 C12.9391486,12.1467746 13.8618559,9.67159083 12.6836361,5.1281007 L11.8078669,2.23240064 C11.3215077,2.7812268 10.9880913,3.20753283 10.8076177,3.51131875 C10.6271441,3.81510466 10.4553276,4.15786205 10.2921683,4.53959091 C9.71858864,3.62578158 9.10484206,2.88588797 8.45092851,2.31991008 C7.79701496,1.75393219 6.51088458,0.980628829 4.59253738,0 Z M8.62173894,5.75495313 C8.82360694,6.58985284 8.87295456,7.37701321 8.7697818,8.11643422 C9.31799169,7.84921392 9.75591832,7.57381923 10.0835617,7.29025016 C10.4112051,7.00668108 10.7348639,6.69053067 11.0545383,6.34179892 C11.1582853,6.67991542 11.2101588,7.4170559 11.2101588,8.55322035 C11.2101588,9.68938481 10.8346265,10.737175 10.0835617,11.6965909 L5.06816825,11.6965909 L5.09294083,11.7190168 C4.9208844,11.5678169 4.55293183,11.4498498 4.39311053,11.2563158 C3.82570493,10.5692216 3.75029538,9.80391153 3.94098818,8.89611097 C4.06811672,8.2909106 4.16946053,7.6085315 4.24501962,6.84897367 C4.61173799,7.04811101 4.88612087,7.32763232 5.06816825,7.68753759 C5.30957699,8.20478294 5.46344324,8.56474848 5.52976702,8.7674342 C6.10117374,8.02259773 6.53887453,7.21405264 6.84286942,6.34179892 C7.1468643,5.4695452 7.2692941,4.57429836 7.21015883,3.65605839 C7.94934425,4.22042183 8.41987095,4.92005341 8.62173894,5.75495313 Z" id="路径-10"></path>
        </g>
    </g>
</svg>