<?xml version="1.0" encoding="UTF-8"?>
<svg width="32px" height="32px" viewBox="0 0 32 32" version="1.1" xmlns="http://www.w3.org/2000/svg" xmlns:xlink="http://www.w3.org/1999/xlink">
    <title>应用性能观测-32px</title>
    <g id="应用性能观测-32px" stroke="none" stroke-width="1" fill="none" fill-rule="evenodd">
        <g id="编组-8" transform="translate(-0.000000, 0.000000)">
            <g id="编组备份">
                <rect id="Rectangle-Copy" fill="#0052D9" opacity="0" x="2.27373675e-13" y="0" width="32" height="32"></rect>
                <g id="编组-11">
                    <rect id="Rectangle-Copy" fill="#0052D9" opacity="0" x="2.27373675e-13" y="0" width="32" height="32"></rect>
                    <path d="M16,0 C23.811235,0 30.3151005,5.59751424 31.7192447,13.000191 L29.677892,13.0003278 C28.3046747,6.70979962 22.7023537,2 16,2 C8.2680135,2 2,8.2680135 2,16 C2,23.7319865 8.2680135,30 16,30 C23.052652,30 28.8872801,24.7850199 29.8581018,18.0008423 L31.8761139,18.0007904 C30.8915668,25.8930309 24.1589629,32 16,32 C7.163444,32 0,24.836556 0,16 C0,7.163444 7.163444,0 16,0 Z" id="Combined-Shape" fill="#0052D9" fill-rule="nonzero"></path>
                </g>
            </g>
            <path d="M23,7 C24.1045695,7 25,7.8954305 25,9 C25,9.31811602 24.9257294,9.61888521 24.7935823,9.88591353 L26.872,13.004 L27,13 C28.0543618,13 28.9181651,13.8158778 28.9945143,14.8507377 L29,15 C29,16.1045695 28.1045695,17 27,17 C26.78764,17 26.5830103,16.9669028 26.3909878,16.9055854 L23.9836689,18.7432168 C23.9944445,18.82729 24,18.9129962 24,19 C24,20.1045695 23.1045695,21 22,21 C20.8954305,21 20,20.1045695 20,19 C20,18.8212028 20.0234621,18.6478854 20.0674756,18.4829588 L18.5170412,16.9325244 C18.3521146,16.9765379 18.1787972,17 18,17 C17.5333908,17 17.1041028,16.840209 16.7638715,16.5723625 L14.9797582,17.2856289 C14.8411579,18.2548974 14.007593,19 13,19 C11.8954305,19 11,18.1045695 11,17 C11,16.9381001 11.0028121,16.876857 11.0083154,16.8163914 L9.75901044,15.8509477 C9.52496419,15.9470239 9.26866871,16 9,16 C8.98861959,16 8.97726137,15.9999049 8.96592611,15.9997156 L7.7484538,18.028217 C7.9087036,18.3159259 8,18.6473012 8,19 C8,20.1045695 7.1045695,21 6,21 C4.8954305,21 4,20.1045695 4,19 C4,17.8954305 4.8954305,17 6,17 C6.01111983,17 6.02221846,17.0000907 6.03329519,17.0002715 L7.2515462,14.971783 C7.0912964,14.6840741 7,14.3526988 7,14 C7,12.8954305 7.8954305,12 9,12 C10.1045695,12 11,12.8954305 11,14 C11,14.0907865 10.9939509,14.1801602 10.9822338,14.26774 L12.1646829,15.1822592 C12.4188805,15.0652534 12.7018199,15 13,15 C13.4666092,15 13.8958972,15.159791 14.2361285,15.4276375 L16.0202418,14.7143711 C16.1588421,13.7451026 16.992407,13 18,13 C19.1045695,13 20,13.8954305 20,15 C20,15.1787972 19.9765379,15.3521146 19.9325244,15.5170412 L21.4829588,17.0674756 C21.6478854,17.0234621 21.8212028,17 22,17 C22.2732679,17 22.5337353,17.0548054 22.7710103,17.1540242 L25.0438948,15.4186908 C25.0151343,15.2836673 25,15.1436011 25,15 C25,14.681884 25.0742706,14.3811148 25.2064177,14.1140865 L23.127,10.995 L23,11 C21.9456382,11 21.0818349,10.1841222 21.0054857,9.14926234 L21,9 C21,7.8954305 21.8954305,7 23,7 Z" id="形状结合" fill="#0052D9" fill-rule="nonzero"></path>
        </g>
    </g>
</svg>