<?xml version="1.0" encoding="UTF-8"?>
<svg width="32px" height="32px" viewBox="0 0 32 32" version="1.1" xmlns="http://www.w3.org/2000/svg" xmlns:xlink="http://www.w3.org/1999/xlink">
    <title>TEM-32px</title>
    <g id="TEM-32px" stroke="none" stroke-width="1" fill="none" fill-rule="evenodd">
        <path d="M6,30 L2,26 L2,6 L6,2 L30,2 L30,4 L7,4 L4,7 L4,25 L7,28 L25,28 L28,25 L28,7 L30,7 L30,26 L26,30 L6,30 Z" id="Combined-Shape" fill="#0052D9"></path>
        <path d="M22.9902802,17.8311942 L22.9902802,20.0001113 L15.9795746,24.2237579 L8.98545834,20.0001113 L8.98545834,17.8781555 L16.019,21.925 L22.9902802,17.8311942 Z M16,7.84529946 L23.0621778,11.9226497 L23.0621778,16.5773503 L16,20.6547005 L8.93782217,16.5773503 L8.93782217,11.9226497 L16,7.84529946 Z M16,10.155 L10.937,13.077 L10.937,15.422 L15.999,18.344 L21.062,15.422 L21.062,13.077 L16,10.155 Z M16.0000877,12.7304595 L18.1396041,13.9451643 L16.0184152,15.1340998 L13.8969634,13.9451643 L16.0000877,12.7304595 Z" id="形状结合" fill="#0052D9" fill-rule="nonzero"></path>
    </g>
</svg>