<?xml version="1.0" encoding="UTF-8"?>
<svg width="32px" height="32px" viewBox="0 0 32 32" version="1.1" xmlns="http://www.w3.org/2000/svg" xmlns:xlink="http://www.w3.org/1999/xlink">
    <title>tcm-32px</title>
    <g id="tcm-32px" stroke="none" stroke-width="1" fill="none" fill-rule="evenodd">
        <g id="编组">
            <rect id="Rectangle-Copy" fill="#0052D9" opacity="0" x="2.27373675e-13" y="0" width="32" height="32"></rect>
            <path d="M16.08,0 C24.231,0 30.949,6.042 32,13.866 L32,13.866 L29.834,13.866 C28.8,7.223 23.046,2.133 16.08,2.133 C8.383,2.133 2.144,8.341 2.144,16 C2.144,23.659 8.383,29.867 16.08,29.867 C23.046,29.867 28.801,24.777 29.834,18.133 L29.834,18.133 L32,18.133 C30.95,25.958 24.231,32 16.08,32 C7.199,32 0,24.836 0,16 C0,7.164 7.199,0 16.08,0 Z M20.07,6 C21.1745695,6 22.07,6.8954305 22.07,8 C22.07,9.1045695 21.1745695,10 20.07,10 C19.2310331,10 18.5127193,9.48342254 18.2157798,8.75098877 L13.9242202,8.75098877 C13.9130968,8.77842576 13.9013822,8.80555985 13.889092,8.83237522 L19.0429221,14.2835136 C19.3431313,14.1034935 19.6944796,14 20.07,14 C20.9093502,14 21.627937,14.5170495 21.9246269,15.2500152 L25.2153731,15.2500152 C25.512063,14.5170495 26.2306498,14 27.07,14 C28.1745695,14 29.07,14.8954305 29.07,16 L29.066,15.908 L29.155025,16 L29.0678992,16.0924928 C29.0195731,17.1541263 28.1435688,18 27.07,18 C26.2310331,18 25.5127193,17.4834225 25.2157798,16.7509888 L21.9242202,16.7509888 C21.6272807,17.4834225 20.9089669,18 20.07,18 C19.6944796,18 19.3431313,17.8965065 19.0429221,17.7164864 L13.889092,23.1676248 C13.901532,23.1947672 13.9133825,23.2222361 13.9246269,23.2500152 L18.2153731,23.2500152 C18.512063,22.5170495 19.2306498,22 20.07,22 C21.1745695,22 22.07,22.8954305 22.07,24 C22.07,25.1045695 21.1745695,26 20.07,26 C19.2310331,26 18.5127193,25.4834225 18.2157798,24.7509888 L13.9242202,24.7509888 C13.6272807,25.4834225 12.9089669,26 12.07,26 C10.9654305,26 10.07,25.1045695 10.07,24 C10.07,23.7110183 10.1312896,23.4363514 10.241579,23.1882893 L5.22229946,17.9942879 C5.17202869,17.9980731 5.12123937,18 5.07,18 C3.9654305,18 3.07,17.1045695 3.07,16 C3.07,14.8954305 3.9654305,14 5.07,14 C5.12158326,14 5.17271041,14.0019528 5.22331156,14.0057886 L10.241579,8.81171072 C10.1312896,8.56364855 10.07,8.28898175 10.07,8 C10.07,6.8954305 10.9654305,6 12.07,6 C12.9093502,6 13.627937,6.51704954 13.9246269,7.25001516 L18.2153731,7.25001516 C18.512063,6.51704954 19.2306498,6 20.07,6 Z M22.5675646,19.9627748 L24.0088206,21.3494187 L22.746628,22.6613219 L21.305372,21.2746781 L22.5675646,19.9627748 Z M17.6185669,19.9663967 L18.862242,21.2763555 L17.4118088,22.6533971 L16.1681337,21.3434383 L17.6185669,19.9663967 Z M11.3200152,9.85462687 L6.61258312,14.7269495 C6.898323,15.0727929 7.07,15.5163478 7.07,16 C7.07,16.4841128 6.89799584,16.9280519 6.61176641,17.2740384 L11.3200152,22.1453731 C11.5516189,22.0516245 11.8047807,22 12.07,22 C12.3267875,22 12.5722719,22.0483942 12.7978304,22.1365598 L14.854,19.96 L13.6807834,18.7235208 L15.1312166,17.3464792 L16.23,18.505 L17.889,16.75 L13.9242202,16.7509888 C13.6450509,17.4395903 12.9934323,17.9373981 12.2192623,17.9945143 L12.07,18 C10.9654305,18 10.07,17.1045695 10.07,16 C10.07,14.8954305 10.9654305,14 12.07,14 C12.9093502,14 13.627937,14.5170495 13.9246269,15.2500152 L17.891,15.25 L16.231,13.495 L15.1316615,14.6530523 L13.6813862,13.2758444 L14.855,12.04 L12.7978304,9.86344018 C12.6163737,9.93436743 12.4220211,9.97955527 12.2192623,9.99451426 L12.07,10 C11.8047807,10 11.5516189,9.94837547 11.3200152,9.85462687 Z M25.0919499,17.3389683 L26.5332058,18.7256122 L25.2710132,20.0375155 L23.8297573,18.6508716 L25.0919499,17.3389683 Z M9.403,15 L9.403,17 L7.73629999,17 L7.73629999,15 L9.403,15 Z M25.2712086,11.9628361 L26.5335496,13.2745966 L25.0924504,14.6614034 L23.8301095,13.3496429 L25.2712086,11.9628361 Z M22.7465267,9.33931506 L24.0088677,10.6510756 L22.5677685,12.0378824 L21.3054276,10.7261219 L22.7465267,9.33931506 Z M17.4128624,9.34639603 L18.8631376,10.723604 L17.6193122,12.0334201 L16.169037,10.6562121 L17.4128624,9.34639603 Z" id="形状结合" fill="#0052D9" fill-rule="nonzero"></path>
        </g>
    </g>
</svg>