<?xml version="1.0" encoding="UTF-8"?>
<svg width="32px" height="32px" viewBox="0 0 32 32" version="1.1" xmlns="http://www.w3.org/2000/svg" xmlns:xlink="http://www.w3.org/1999/xlink">
    <title>TDMQ RocketMQ-32px</title>
    <g id="TDMQ-RocketMQ-32px" stroke="none" stroke-width="1" fill="none" fill-rule="evenodd">
        <g id="编组-2">
            <rect id="矩形" fill="#0052D9" opacity="0" x="0" y="0" width="32" height="32"></rect>
            <path d="M30,2 L30,4 L7,4 L4,7 L4,25 L7,28 L25,28 L28,25 L28,7 L30,7 L30,26 L26,30 L6,30 L2,26 L2,6 L6,2 L30,2 Z M19,21.5524025 L18.9821052,21.8311258 L18.9654099,21.9715675 L18.9390617,22.1362673 L18.9006785,22.3232021 C18.8931461,22.3560984 18.885013,22.3898369 18.8762295,22.4243754 L18.8153276,22.6408692 C18.5373278,23.5425477 17.8275651,24.8564781 16,26 C14,24.8015975 13,23.319065 13,21.5524025 C14.7621775,20.8158658 16.7621775,20.8158658 19,21.5524025 Z M15.746189,23.0002679 L15.505,23.008 L15.5272694,23.0398419 C15.6365565,23.1815691 15.7639616,23.3216954 15.9105197,23.4606744 L15.964,23.508 L16.1178499,23.3521268 L16.2753093,23.1736061 L16.392,23.025 L16.2909057,23.0168736 L16.0158575,23.0026728 L15.746189,23.0002679 Z M9.17709115,15 C9.51258365,17.6962266 10.1868866,20.0235207 11.2,21.9818823 L11.1915344,21.9843847 L10.9293774,21.9941084 L10.3008383,21.9991848 L5.33877213,21.9818823 C4.75098668,18.5834156 6.03042635,16.2561216 9.17709115,15 Z M23.0229088,15 C26.0796689,16.2202324 27.3743782,18.4513018 26.9070367,21.6932084 L26.8612279,21.9818823 L21.8991617,21.9991848 L21.2706226,21.9941084 L21.0084656,21.9843847 C22.0131134,20.0235207 22.6874163,17.6962266 23.0229088,15 Z M16.0030743,4.58534615 L16.7083811,5.29513782 C21.7497313,10.3685452 23.2343115,15.3547054 20.9762352,20.0885644 L20.8444212,20.3562481 L20.820643,20.4059134 C20.6509503,20.7229819 20.3290437,20.9787408 19.9205567,20.9990089 L19.7812777,20.9968041 L19.5992708,20.9822178 L19.4341631,20.9042518 C17.2238161,19.8604965 15.19818,19.8605086 13.4539152,20.4769022 C13.2868659,20.5359346 13.1338138,20.5972581 12.9942267,20.6593779 L12.7948782,20.7529678 L12.4530256,20.9282939 L12.3134791,20.9724275 L12.2462856,20.9840562 L12.2148208,20.9869458 L12.1341382,20.9860981 L11.7784649,20.9535437 L11.2402431,20.5432362 L11.202,20.445 L11.187846,20.4520808 C8.79155853,15.7240909 10.0305698,10.8060192 14.7354815,5.86170519 L15.0107628,5.57642835 L15.2937275,5.29110028 L16.0030743,4.58534615 Z M7.768,18.399 L7.693927,18.5084669 C7.44442073,18.907376 7.29128387,19.3607604 7.22904028,19.8792958 L7.219,19.991 L8.221,19.996 L8.09678579,19.6050609 C7.99434824,19.2680968 7.89871528,18.9245578 7.80985942,18.5744605 L7.768,18.399 Z M24.432,18.399 L24.3901406,18.5744605 L24.2517705,19.0946857 L24.2517705,19.0946857 L24.1032142,19.6050609 L23.979,19.996 L24.981,19.991 L24.9709597,19.8792958 C24.9190901,19.447183 24.8041001,19.0603139 24.6228207,18.7125105 L24.506073,18.5084669 L24.432,18.399 Z M15.996,7.441 L15.8977244,7.54566045 C12.4021776,11.3349399 11.2869691,14.8813814 12.4413716,18.2920786 L12.5346465,18.554174 L12.579,18.668 L12.7875341,18.5911832 C14.6366554,17.9377351 16.7325488,17.8305589 18.9617245,18.5644872 L19.3147907,18.6874034 L19.396,18.718 L19.4877422,18.4798116 C20.7237612,15.1517109 19.7204439,11.6414598 16.3632605,7.84736389 L16.0933273,7.54723844 L15.996,7.441 Z M17.6796574,11.9210205 C18.2319422,11.9210205 18.6796574,12.3687358 18.6796574,12.9210205 C18.6796574,13.4733053 18.2319422,13.9210205 17.6796574,13.9210205 C17.5616759,13.9210205 17.4484665,13.9005889 17.3433745,13.8630709 L16.9434363,14.2757347 C16.9800713,14.3797233 17,14.4915891 17,14.6081095 C17,14.7063665 16.9858289,14.8013137 16.9594191,14.8910187 L17.306914,15.2328233 C17.422105,15.1865232 17.5479057,15.1610439 17.6796574,15.1610439 C18.2319422,15.1610439 18.6796574,15.6087592 18.6796574,16.1610439 C18.6796574,16.7133287 18.2319422,17.1610439 17.6796574,17.1610439 C17.1273727,17.1610439 16.6796574,16.7133287 16.6796574,16.1610439 C16.6796574,16.085288 16.6880812,16.0114996 16.7040432,15.9405643 L16.3146971,15.5575872 C16.215747,15.5903663 16.1099456,15.6081095 16,15.6081095 C15.8743049,15.6081095 15.7540263,15.5849189 15.6432094,15.5425829 L15.3227032,15.873138 C15.3500667,15.9643112 15.3647695,16.0609606 15.3647695,16.1610439 C15.3647695,16.7133287 14.9170542,17.1610439 14.3647695,17.1610439 C13.8124847,17.1610439 13.3647695,16.7133287 13.3647695,16.1610439 C13.3647695,15.6087592 13.8124847,15.1610439 14.3647695,15.1610439 C14.4783677,15.1610439 14.5875419,15.1799856 14.6893059,15.2148829 L15.0324686,14.861826 C15.0112803,14.7808034 15,14.6957738 15,14.6081095 C15,14.5167926 15.0122399,14.4283345 15.0351686,14.3442862 L14.6834078,14.0072474 C14.5833278,14.0408666 14.4761761,14.0590845 14.3647695,14.0590845 C13.8124847,14.0590845 13.3647695,13.6113692 13.3647695,13.0590845 C13.3647695,12.5067998 13.8124847,12.0590845 14.3647695,12.0590845 C14.9170542,12.0590845 15.3647695,12.5067998 15.3647695,13.0590845 C15.3647695,13.16209 15.3491956,13.261458 15.3202741,13.3549623 L15.650383,13.6709272 C15.7592101,13.6303119 15.8770122,13.6081095 16,13.6081095 C16.0978917,13.6081095 16.1924982,13.6221754 16.2819086,13.6483964 L16.7184894,13.1979194 C16.6932034,13.1099875 16.6796574,13.017086 16.6796574,12.9210205 C16.6796574,12.3687358 17.1273727,11.9210205 17.6796574,11.9210205 Z" id="形状结合" fill="#0052D9"></path>
        </g>
    </g>
</svg>