<?xml version="1.0" encoding="UTF-8"?>
<svg width="32px" height="32px" viewBox="0 0 32 32" version="1.1" xmlns="http://www.w3.org/2000/svg" xmlns:xlink="http://www.w3.org/1999/xlink">
    <title>消息列队 CMQ-32px</title>
    <g id="页面-2" stroke="none" stroke-width="1" fill="none" fill-rule="evenodd">
        <g id="消息列队-CMQ-32px" fill-rule="nonzero">
            <rect id="Rectangle-Copy" fill="#0052D9" opacity="0" x="0" y="0" width="32" height="32"></rect>
            <path d="M6,30 L2,26 L2,6 L6,2 L30,2 L30,4 L7,4 L4,7 L4,25 L7,28 L25,28 L28,25 L28,7 L30,7 L30,26 L26,30 L6,30 Z M9.14285714,16 L9.14285714,20.5714286 L17.1428571,20.5714286 L17.1428571,20.5732178 L21.1281169,24.1615619 L19.5986755,25.8601786 L16.2634664,22.8571429 L6.85714286,22.8571429 L6.85714286,16 L9.14285714,16 Z M25.1428571,8 L25.1428571,14.8571429 L22.8571429,14.8571429 L22.8571429,10.2857143 L9.14285714,10.2857143 L9.14285714,12.5714286 L20.5714286,12.5714286 L20.5714286,14.8571429 L19.2989183,16 L25.1428571,16 L25.1428571,22.8571429 L21.7142857,22.8571429 L21.7142857,20.5714286 L22.8571429,20.5714286 L22.8571429,18.2857143 L11.4285714,18.2857143 L11.4285714,16 L11.4308248,16 L11.4285714,15.9974974 L12.6950635,14.8571429 L6.85714286,14.8571429 L6.85714286,8 L25.1428571,8 Z M17.1461969,14.8571429 L16.1110099,14.8571429 L14.8417384,16 L15.8769255,16 L17.1461969,14.8571429 Z" id="形状结合" fill="#0052D9"></path>
        </g>
    </g>
</svg>