<svg xmlns="http://www.w3.org/2000/svg" xmlns:xlink="http://www.w3.org/1999/xlink" fill="none" version="1.1" width="32" height="32" viewBox="0 0 32 32"><defs><clipPath id="master_svg0_23_02508"><rect x="0" y="0" width="32" height="32" rx="0"/></clipPath></defs><g clip-path="url(#master_svg0_23_02508)"><g><path d="M15,3L15,29Q15,29.0985,15.019214999999999,29.1951Q15.03843,29.2917,15.076121,29.3827Q15.113812,29.4737,15.16853,29.5556Q15.223249,29.6375,15.292893,29.7071Q15.362537,29.7767,15.44443,29.8315Q15.526322,29.8862,15.617317,29.9239Q15.708311,29.9616,15.80491,29.9808Q15.9015086,30,16,30Q16.0984914,30,16.19509,29.9808Q16.291689,29.9616,16.382683,29.9239Q16.473678,29.8862,16.55557,29.8315Q16.637463,29.7767,16.707107,29.7071Q16.776751,29.6375,16.83147,29.5556Q16.886188,29.4737,16.923879,29.3827Q16.961570000000002,29.2917,16.980785,29.1951Q17,29.0985,17,29L17,3Q17,2.9015086,16.980785,2.80491Q16.961570000000002,2.708311,16.923879,2.617317Q16.886188,2.526322,16.83147,2.44443Q16.776751,2.362537,16.707107,2.292893Q16.637463,2.223249,16.55557,2.16853Q16.473678,2.1138120000000002,16.382683,2.076121Q16.291689,2.03843,16.19509,2.019215Q16.0984914,2,16,2Q15.9015086,2,15.80491,2.019215Q15.708311,2.03843,15.617317,2.076121Q15.526322,2.1138120000000002,15.44443,2.16853Q15.362537,2.223249,15.292893,2.292893Q15.223249,2.362537,15.16853,2.44443Q15.113812,2.526322,15.076121,2.617317Q15.03843,2.708311,15.019214999999999,2.80491Q15,2.9015086,15,3Z" fill-rule="evenodd" fill="#0052D9" fill-opacity="1"/></g><g><path d="M3,28L12,28Q12.09849,28,12.19509,27.9808Q12.29169,27.9616,12.38268,27.9239Q12.47368,27.8862,12.55557,27.8315Q12.63746,27.7768,12.70711,27.7071Q12.77675,27.6375,12.83147,27.5556Q12.88619,27.4737,12.92388,27.3827Q12.96157,27.2917,12.98078,27.1951Q13,27.0985,13,27Q13,26.9015,12.98078,26.8049Q12.96157,26.7083,12.92388,26.6173Q12.88619,26.5263,12.83147,26.4444Q12.77675,26.3625,12.70711,26.2929Q12.63746,26.2232,12.55557,26.1685Q12.47368,26.1138,12.38268,26.0761Q12.29169,26.0384,12.19509,26.0192Q12.09849,26,12,26L4,26L4,6L12,6Q12.09849,6,12.19509,5.980785Q12.29169,5.96157,12.38268,5.923879Q12.47368,5.886188,12.55557,5.83147Q12.63746,5.776751,12.70711,5.707107Q12.77675,5.637463,12.83147,5.55557Q12.88619,5.473678,12.92388,5.382683Q12.96157,5.291689,12.98078,5.19509Q13,5.0984914,13,5Q13,4.9015086,12.98078,4.80491Q12.96157,4.708311,12.92388,4.617317Q12.88619,4.526322,12.83147,4.44443Q12.77675,4.362537,12.70711,4.292893Q12.63746,4.223249,12.55557,4.16853Q12.47368,4.113812,12.38268,4.076121Q12.29169,4.03843,12.19509,4.019215Q12.09849,4,12,4L3,4Q2.9015086,4,2.80491,4.019215Q2.708311,4.03843,2.617317,4.076121Q2.526322,4.113812,2.44443,4.16853Q2.362537,4.223249,2.292893,4.292893Q2.223249,4.362537,2.16853,4.44443Q2.1138120000000002,4.526322,2.076121,4.617317Q2.03843,4.708311,2.019215,4.80491Q2,4.9015086,2,5L2,27Q2,27.0985,2.019215,27.1951Q2.03843,27.2917,2.076121,27.3827Q2.1138120000000002,27.4737,2.16853,27.5556Q2.223249,27.6375,2.292893,27.7071Q2.362537,27.7768,2.44443,27.8315Q2.526322,27.8862,2.617317,27.9239Q2.708311,27.9616,2.80491,27.9808Q2.9015086,28,3,28Z" fill-rule="evenodd" fill="#0052D9" fill-opacity="1"/></g><g transform="matrix(-1,0,0,1,58,0)"><path d="M28,5L28,9.33333Q28,9.43182,28.019215,9.52842Q28.038429999999998,9.62502,28.076121,9.71602Q28.113812,9.80701,28.16853,9.8889Q28.223249,9.970790000000001,28.292893,10.04044Q28.362537,10.11008,28.44443,10.1648Q28.526322,10.21952,28.617317,10.25721Q28.708311,10.2949,28.80491,10.314119999999999Q28.9015086,10.33333,29,10.33333Q29.0984914,10.33333,29.19509,10.314119999999999Q29.291689,10.2949,29.382683,10.25721Q29.473678,10.21952,29.55557,10.1648Q29.637463,10.11008,29.707107,10.04044Q29.776751,9.970790000000001,29.83147,9.8889Q29.886188,9.80701,29.923879,9.71602Q29.961570000000002,9.62502,29.980785,9.52842Q30,9.43182,30,9.33333L30,6L31.33334,6Q31.43183,6,31.52843,5.980785Q31.62502,5.96157,31.71602,5.923879Q31.80701,5.886188,31.88891,5.83147Q31.9708,5.776751,32.04044,5.707107Q32.11009,5.637463,32.16481,5.55557Q32.21952,5.473678,32.25722,5.382683Q32.29491,5.291689,32.31412,5.19509Q32.33334,5.0984914,32.33334,5Q32.33334,4.9015086,32.31412,4.80491Q32.29491,4.708311,32.25721,4.617317Q32.21952,4.526322,32.1648,4.44443Q32.11009,4.362537,32.04044,4.292893Q31.9708,4.223249,31.88891,4.16853Q31.80701,4.113812,31.71602,4.076121Q31.62502,4.03843,31.52843,4.019215Q31.43183,4,31.33334,4L29,4Q28.9015086,4,28.80491,4.019215Q28.708311,4.03843,28.617317,4.076121Q28.526322,4.113812,28.44443,4.16853Q28.362537,4.223249,28.292893,4.292893Q28.223249,4.362537,28.16853,4.44443Q28.113812,4.526322,28.076121,4.617317Q28.038429999999998,4.708311,28.019215,4.80491Q28,4.9015086,28,5ZM38,4L34.666669999999996,4Q34.56818,4,34.47158,4.019215Q34.37498,4.03843,34.28398,4.076121Q34.19299,4.113812,34.1111,4.16853Q34.0292,4.223249,33.959559999999996,4.292893Q33.889920000000004,4.362537,33.8352,4.44443Q33.78048,4.526322,33.74279,4.617317Q33.7051,4.708311,33.68588,4.80491Q33.666669999999996,4.9015086,33.666669999999996,5Q33.666669999999996,5.0984914,33.68588,5.19509Q33.7051,5.291689,33.74279,5.382683Q33.78048,5.473678,33.8352,5.55557Q33.889920000000004,5.637463,33.959559999999996,5.707107Q34.0292,5.776751,34.1111,5.83147Q34.19299,5.886188,34.28398,5.923879Q34.37498,5.96157,34.47158,5.980785Q34.56818,6,34.666669999999996,6L38,6Q38.09849,6,38.19509,5.980785Q38.29169,5.96157,38.38268,5.923879Q38.47368,5.886188,38.55557,5.83147Q38.637460000000004,5.776751,38.70711,5.707107Q38.77675,5.637463,38.831469999999996,5.55557Q38.88619,5.473678,38.92388,5.382683Q38.96157,5.291689,38.980779999999996,5.19509Q39,5.0984914,39,5Q39,4.9015086,38.980779999999996,4.80491Q38.96157,4.708311,38.92388,4.617317Q38.88619,4.526322,38.831469999999996,4.44443Q38.77675,4.362537,38.70711,4.292893Q38.637460000000004,4.223249,38.55557,4.16853Q38.47368,4.113812,38.38268,4.076121Q38.29169,4.03843,38.19509,4.019215Q38.09849,4,38,4ZM28,12.66667L28,19.3333Q28,19.431800000000003,28.019215,19.528399999999998Q28.038429999999998,19.625,28.076121,19.716Q28.113812,19.807000000000002,28.16853,19.8889Q28.223249,19.9708,28.292893,20.040399999999998Q28.362537,20.1101,28.44443,20.1648Q28.526322,20.2195,28.617317,20.257199999999997Q28.708311,20.2949,28.80491,20.3141Q28.9015086,20.3333,29,20.3333Q29.0984914,20.3333,29.19509,20.3141Q29.291689,20.2949,29.382683,20.257199999999997Q29.473678,20.2195,29.55557,20.1648Q29.637463,20.1101,29.707107,20.040399999999998Q29.776751,19.9708,29.83147,19.8889Q29.886188,19.807000000000002,29.923879,19.716Q29.961570000000002,19.625,29.980785,19.528399999999998Q30,19.431800000000003,30,19.3333L30,12.66667Q30,12.56817,29.980785,12.47157Q29.961570000000002,12.37498,29.923879,12.28398Q29.886188,12.19299,29.83147,12.11109Q29.776751,12.0292,29.707107,11.95956Q29.637463,11.88991,29.55557,11.8352Q29.473678,11.78048,29.382683,11.74279Q29.291689,11.70509,29.19509,11.685880000000001Q29.0984914,11.66667,29,11.66667Q28.9015086,11.66667,28.80491,11.685880000000001Q28.708311,11.70509,28.617317,11.74279Q28.526322,11.78048,28.44443,11.8352Q28.362537,11.88991,28.292893,11.95956Q28.223249,12.0292,28.16853,12.11109Q28.113812,12.19299,28.076121,12.28398Q28.038429999999998,12.37498,28.019215,12.47158Q28,12.56817,28,12.66667ZM29,28L31.33333,28Q31.431820000000002,28,31.52842,27.9808Q31.62502,27.9616,31.71602,27.9239Q31.80701,27.8862,31.8889,27.8315Q31.9708,27.7768,32.04044,27.7071Q32.110079999999996,27.6375,32.1648,27.5556Q32.21952,27.4737,32.25721,27.3827Q32.2949,27.2917,32.31412,27.1951Q32.333330000000004,27.0985,32.333330000000004,27Q32.333330000000004,26.9015,32.31412,26.8049Q32.2949,26.7083,32.25721,26.6173Q32.21952,26.5263,32.1648,26.4444Q32.110079999999996,26.3625,32.04044,26.2929Q31.9708,26.2232,31.8889,26.1685Q31.80701,26.1138,31.71602,26.0761Q31.62502,26.0384,31.52842,26.0192Q31.431820000000002,26,31.33333,26L30,26L30,22.6667Q30,22.5682,29.980785,22.4716Q29.961570000000002,22.375,29.923879,22.284Q29.886188,22.193,29.83147,22.1111Q29.776751,22.0292,29.707107,21.9596Q29.637463,21.8899,29.55557,21.8352Q29.473678,21.7805,29.382683,21.7428Q29.291689,21.7051,29.19509,21.6859Q29.0984914,21.6667,29,21.6667Q28.9015086,21.6667,28.80491,21.6859Q28.708311,21.7051,28.617317,21.7428Q28.526322,21.7805,28.44443,21.8352Q28.362537,21.8899,28.292893,21.9596Q28.223249,22.0292,28.16853,22.1111Q28.113812,22.193,28.076121,22.284Q28.038429999999998,22.375,28.019215,22.4716Q28,22.5682,28,22.6667L28,27Q28,27.0985,28.019215,27.1951Q28.038429999999998,27.2917,28.076121,27.3827Q28.113812,27.4737,28.16853,27.5556Q28.223249,27.6375,28.292893,27.7071Q28.362537,27.7768,28.44443,27.8315Q28.526322,27.8862,28.617317,27.9239Q28.708311,27.9616,28.80491,27.9808Q28.9015086,28,29,28ZM34.666669999999996,28L38,28Q38.09849,28,38.19509,27.9808Q38.29169,27.9616,38.38268,27.9239Q38.47368,27.8862,38.55557,27.8315Q38.637460000000004,27.7768,38.70711,27.7071Q38.77675,27.6375,38.831469999999996,27.5556Q38.88619,27.4737,38.92388,27.3827Q38.96157,27.2917,38.980779999999996,27.1951Q39,27.0985,39,27Q39,26.9015,38.980779999999996,26.8049Q38.96157,26.7083,38.92388,26.6173Q38.88619,26.5263,38.831469999999996,26.4444Q38.77675,26.3625,38.70711,26.2929Q38.637460000000004,26.2232,38.55557,26.1685Q38.47368,26.1138,38.38268,26.0761Q38.29169,26.0384,38.19509,26.0192Q38.09849,26,38,26L34.666669999999996,26Q34.56818,26,34.47158,26.0192Q34.37498,26.0384,34.28398,26.0761Q34.19299,26.1138,34.1111,26.1685Q34.0292,26.2232,33.959559999999996,26.2929Q33.88991,26.3625,33.8352,26.4444Q33.78048,26.5263,33.74279,26.6173Q33.7051,26.7083,33.68588,26.8049Q33.666669999999996,26.9015,33.666669999999996,27Q33.666669999999996,27.0985,33.68588,27.1951Q33.7051,27.2917,33.74279,27.3827Q33.78048,27.4737,33.8352,27.5556Q33.88991,27.6375,33.959559999999996,27.7071Q34.0292,27.7768,34.1111,27.8315Q34.19299,27.8862,34.28398,27.9239Q34.37498,27.9616,34.47158,27.9808Q34.56818,28,34.666669999999996,28Z" fill-rule="evenodd" fill="#0052D9" fill-opacity="1"/></g><g><path d="M5.5,21L6.74,21L7.6866699999999994,17.94407L11.26,17.94407L12.19333,21L13.5,21L10.18,11L8.80667,11L5.5,21ZM7.99333,16.94816L8.47333,15.40655C8.82,14.27422,9.14,13.19645,9.446670000000001,12.02319L9.5,12.02319C9.82,13.18281,10.12667,14.27422,10.48667,15.40655L10.953330000000001,16.94816L7.99333,16.94816Z" fill="#0052D9" fill-opacity="1"/></g><g><path d="M19,20.999969482421875L22.19178,20.999969482421875C24.43836,20.999969482421875,26,20.031349482421874,26,18.066819482421874C26,16.702559482421876,25.15068,15.911289482421875,23.9589,15.679369482421876L23.9589,15.611159482421876C24.90411,15.311019482421875,25.42466,14.437899482421875,25.42466,13.441989482421874C25.42466,11.682098482421875,24,10.999969482421875,21.9726,10.999969482421875L19,10.999969482421875L19,20.999969482421875ZM20.26027,15.242809482421876L20.26027,11.995876482421876L21.80822,11.995876482421876C23.38356,11.995876482421876,24.17808,12.432439482421875,24.17808,13.605699482421874C24.17808,14.628889482421876,23.47945,15.242809482421876,21.75342,15.242809482421876L20.26027,15.242809482421876ZM20.26027,19.990419482421874L20.26027,16.225069482421876L22.0137,16.225069482421876C23.78082,16.225069482421876,24.75342,16.784419482421875,24.75342,18.025889482421874C24.75342,19.376499482421877,23.73973,19.990419482421874,22.0137,19.990419482421874L20.26027,19.990419482421874Z" fill="#0052D9" fill-opacity="1"/></g></g></svg>