<svg xmlns="http://www.w3.org/2000/svg" xmlns:xlink="http://www.w3.org/1999/xlink" fill="none" version="1.1" width="32" height="32" viewBox="0 0 32 32"><defs><clipPath id="master_svg0_23_04466"><rect x="0" y="0" width="32" height="32" rx="0"/></clipPath></defs><g clip-path="url(#master_svg0_23_04466)"><g><path d="M29.332715625,13.33331298828125Q29.431215625,13.33331298828125,29.527815625,13.31409298828125Q29.624415625,13.29488298828125,29.715315625,13.25719298828125Q29.806315625,13.21950298828125,29.888215625,13.16478298828125Q29.970115625,13.11006298828125,30.039815625,13.04042298828125Q30.109415625,12.97077298828125,30.164115625,12.88888298828125Q30.218915625,12.80699298828125,30.256515625,12.71599298828125Q30.294215625,12.62500298828125,30.313515625,12.52840298828125Q30.332715625,12.43180298828125,30.332715625,12.33331298828125L30.332715625,6.33331298828125Q30.332715625,5.09067098828125,29.454015625,4.21199798828125Q28.575315625,3.33331298828125,27.332715625,3.33331298828125L4.666015625,3.33331298828125Q3.423376625,3.33331298828125,2.544696625,4.21199398828125Q1.666015625,5.09067498828125,1.666015625,6.33331298828125L1.666015625,12.33331298828125Q1.666015625,12.43180298828125,1.685230625,12.52840298828125Q1.704445625,12.62500298828125,1.742136625,12.71599298828125Q1.779827625,12.80699298828125,1.834545625,12.88888298828125Q1.889264625,12.97077298828125,1.9589086249999998,13.04042298828125Q2.028552625,13.11006298828125,2.110445625,13.16478298828125Q2.192337625,13.21950298828125,2.283332625,13.25719298828125Q2.374326625,13.29488298828125,2.470925625,13.31409298828125Q2.567524225,13.33331298828125,2.666015625,13.33331298828125L29.332715625,13.33331298828125ZM28.332715625,11.33331298828125L28.332715625,6.33331298828125Q28.332715625,5.91909298828125,28.039815625,5.62620298828125Q27.746915625,5.33331298828125,27.332715625,5.33331298828125L4.666015625,5.33331298828125Q4.251805625,5.33331298828125,3.958905625,5.62620298828125Q3.666015625,5.91910298828125,3.666015625,6.33331298828125L3.666015625,11.33331298828125L28.332715625,11.33331298828125Z" fill-rule="evenodd" fill="#0052D9" fill-opacity="1"/></g><g><path d="M20.568734375,18.69380298828125L22.894634375,20.96135298828125Q23.034734375,21.09790298828125,23.215934375,21.17160298828125Q23.397134375,21.24531298828125,23.592734375,21.24531298828125L23.605434375,21.24523298828125Q23.804334375,21.242702988281252,23.987134375,21.16425298828125Q24.169934375,21.08580298828125,24.308734375,20.94337298828125Q24.445334375,20.80331298828125,24.519034375,20.622122988281248Q24.592734375,20.44093298828125,24.592734375,20.24532298828125L24.592734375,20.24457298828125L24.592634375,20.23409298828125L24.592634375,20.23260298828125Q24.590134375,20.03370298828125,24.511634375,19.85091298828125Q24.433234375,19.66812298828125,24.290734375,19.52927298828125L21.303734375,16.61727398828125Q21.236834375,16.55203598828125,21.159034375,16.50032698828125Q21.081134375,16.44861898828125,20.995034375,16.41222998828125Q20.909034375,16.37584098828125,20.817634375,16.35603298828125Q20.726334375,16.33622498828125,20.632934375,16.33368298828125Q20.539434375,16.33114298828125,20.447234375,16.34595398828125Q20.354934375,16.36076598828125,20.267034375,16.39241998828125Q20.179034375,16.42407398828125,20.098534375,16.47147398828125Q20.017934375,16.51887298828125,19.947634375,16.58037498828125L15.274334375,20.66497298828125L11.548954375,17.09728498828125Q11.478574375,17.02988398828125,11.396504375,16.97733798828125Q11.314434375,16.92479298828125,11.223764375,16.88908098828125Q11.133094375,16.85336898828125,11.037234375,16.83583398828125Q10.941374375,16.81829998828125,10.843934375,16.81960198828125Q10.746494375,16.82090498828125,10.651134375,16.84099598828125Q10.555784375,16.86108598828125,10.466094375,16.89920898828125Q10.376414375,16.93733198828125,10.295774375,16.99205298828125Q10.215144375000001,17.04677298828125,10.146584375,17.11603198828125L2.029519375,25.316562988281248Q1.890523375,25.45699298828125,1.815379375,25.63973298828125Q1.740234375,25.822462988281252,1.740234375,26.02005298828125L1.740247375,26.025162988281252Q1.741265375,26.22407298828125,1.818324375,26.40745298828125Q1.895384375,26.59083298828125,2.036753375,26.73076298828125Q2.177179375,26.869762988281252,2.359915375,26.94490298828125Q2.542651375,27.02005298828125,2.740234375,27.02005298828125L2.745349565,27.02003298828125Q2.944259375,27.01902298828125,3.127638375,26.94196298828125Q3.3110183749999997,26.86490298828125,3.450949375,26.72353298828125L10.876054375,19.22207298828125L14.551834375,22.74227298828125Q14.618934375,22.80652298828125,14.696734375,22.85732298828125Q14.774534375,22.90811298828125,14.860334375,22.94371298828125Q14.946134375,22.97931298828125,15.037034375,22.99849298828125Q15.127934375,23.017672988281248,15.220734375,23.01979298828125Q15.313634375,23.021902988281248,15.405334375,23.006872988281252Q15.496934375,22.99184298828125,15.584334375,22.96018298828125Q15.671634375,22.92852298828125,15.751634375,22.881322988281248Q15.831634375,22.83412298828125,15.901634375,22.77298298828125L20.568734375,18.69380298828125Z" fill-rule="evenodd" fill="#0052D9" fill-opacity="1"/></g><g><path d="M27.3333,26.6667L8,26.6667Q7.9015086,26.6667,7.80491,26.6859Q7.708311,26.7051,7.617317,26.742800000000003Q7.526322,26.7805,7.44443,26.8352Q7.362537,26.8899,7.292893,26.959600000000002Q7.223249,27.0292,7.16853,27.1111Q7.113812,27.192999999999998,7.076121,27.284Q7.03843,27.375,7.019215,27.471600000000002Q7,27.568199999999997,7,27.6667Q7,27.7584,7.016695,27.848599999999998Q7.032517,27.9341,7.062862,28.0156Q7.093206,28.0971,7.137161,28.1721Q7.181115,28.2472,7.237361,28.3135Q7.2936060000000005,28.3798,7.360455,28.4354Q7.427303,28.491,7.502747,28.5343Q7.578191,28.5775,7.659966,28.6071Q7.741741,28.6366,7.827392,28.6517Q7.9130435,28.6667,8,28.6667L27.3333,28.6667Q28.576,28.6667,29.4547,27.788Q30.3333,26.9093,30.3333,25.6667L30.333,11.9999761349Q30.333,11.9014847,30.3138,11.804886Q30.2946,11.708288,30.2569,11.617295Q30.2192,11.526301,30.1645,11.44441Q30.1097,11.362519,30.0401,11.292876Q29.9704,11.223234,29.8886,11.168517Q29.8067,11.1138,29.7157,11.076111000000001Q29.6247,11.038423,29.5281,11.01921Q29.4315,11,29.333,11Q29.1341,11,28.9503,11.076125Q28.7665,11.15225,28.6259,11.292911Q28.4852,11.433562,28.4091,11.617328Q28.333,11.801094,28.333,12L28.3333,25.6667Q28.3333,26.0809,28.0405,26.3738Q27.7476,26.6667,27.3333,26.6667Z" fill-rule="evenodd" fill="#0052D9" fill-opacity="1"/></g><g><path d="M7.408203125,9.33331298828125L10.408203125,9.33331298828125Q10.506693125,9.33331298828125,10.603293125,9.314097988281251Q10.699893125,9.29488298828125,10.790883125,9.25719198828125Q10.881883125,9.21950098828125,10.963773125,9.16478298828125Q11.045663125,9.11006398828125,11.115313125,9.04041998828125Q11.184953125,8.97077598828125,11.239673125,8.88888298828125Q11.294393125,8.80699098828125,11.332083125,8.71599598828125Q11.369773125,8.62500198828125,11.388983125,8.52840298828125Q11.408203125,8.43180438828125,11.408203125,8.33331298828125Q11.408203125,8.23482158828125,11.388983125,8.13822298828125Q11.369773125,8.04162398828125,11.332083125,7.95062998828125Q11.294393125,7.85963498828125,11.239673125,7.77774298828125Q11.184953125,7.69584998828125,11.115313125,7.62620598828125Q11.045663125,7.55656198828125,10.963773125,7.50184298828125Q10.881883125,7.44712498828125,10.790883125,7.40943398828125Q10.699893125,7.37174298828125,10.603293125,7.35252798828125Q10.506693125,7.33331298828125,10.408203125,7.33331298828125L7.408203125,7.33331298828125Q7.309711725,7.33331298828125,7.213113125,7.35252798828125Q7.116514125,7.37174298828125,7.025520125,7.40943398828125Q6.934525125,7.44712498828125,6.852633125,7.50184298828125Q6.770740125,7.55656198828125,6.701096125,7.62620598828125Q6.631452125,7.69584998828125,6.576733125,7.77774298828125Q6.522015125,7.85963498828125,6.484324125,7.95062998828125Q6.446633125,8.04162398828125,6.427418125,8.13822298828125Q6.408203125,8.23482158828125,6.408203125,8.33331298828125Q6.408203125,8.43180438828125,6.427418125,8.52840298828125Q6.446633125,8.62500198828125,6.484324125,8.71599598828125Q6.522015125,8.80699098828125,6.576733125,8.88888298828125Q6.631452125,8.97077598828125,6.701096125,9.04041998828125Q6.770740125,9.11006398828125,6.852633125,9.16478298828125Q6.934525125,9.21950098828125,7.025520125,9.25719198828125Q7.116514125,9.29488298828125,7.213113125,9.314097988281251Q7.309711725,9.33331298828125,7.408203125,9.33331298828125Z" fill-rule="evenodd" fill="#0052D9" fill-opacity="1"/></g><g><path d="M1.666015625,11L1.666015625,17Q1.666015625,17.098489999999998,1.685230625,17.19509Q1.704445625,17.29169,1.742136625,17.38268Q1.779827625,17.47368,1.834545625,17.55557Q1.889264625,17.63746,1.9589086249999998,17.70711Q2.028552625,17.77675,2.110445625,17.83147Q2.192337625,17.88619,2.283332625,17.92388Q2.374326625,17.961570000000002,2.470925625,17.98078Q2.567524225,18,2.666015625,18Q2.764507025,18,2.861105625,17.98078Q2.957704625,17.961570000000002,3.048698625,17.92388Q3.139693625,17.88619,3.221585625,17.83147Q3.303478625,17.77675,3.373122625,17.70711Q3.442766625,17.63746,3.497485625,17.55557Q3.5522036249999998,17.47368,3.589894625,17.38268Q3.627585625,17.29169,3.646800625,17.19509Q3.666015625,17.098489999999998,3.666015625,17L3.666015625,11Q3.666015625,10.9015086,3.646800625,10.80491Q3.627585625,10.708311,3.589894625,10.617317Q3.5522036249999998,10.526322,3.497485625,10.44443Q3.442766625,10.362537,3.373122625,10.292893Q3.303478625,10.223249,3.221585625,10.16853Q3.139693625,10.113812,3.048698625,10.076121Q2.957704625,10.03843,2.861105625,10.019214999999999Q2.764507025,10,2.666015625,10Q2.567524225,10,2.470925625,10.019214999999999Q2.374326625,10.03843,2.283332625,10.076121Q2.192337625,10.113812,2.110445625,10.16853Q2.028552625,10.223249,1.9589086249999998,10.292893Q1.889264625,10.362537,1.834545625,10.44443Q1.779827625,10.526322,1.742136625,10.617317Q1.704445625,10.708311,1.685230625,10.80491Q1.666015625,10.9015086,1.666015625,11Z" fill-rule="evenodd" fill="#0052D9" fill-opacity="1"/></g></g></svg>