<svg xmlns="http://www.w3.org/2000/svg" xmlns:xlink="http://www.w3.org/1999/xlink" fill="none" version="1.1" width="32" height="32" viewBox="0 0 32 32"><defs><clipPath id="master_svg0_23_04189"><rect x="0" y="0" width="32" height="32" rx="0"/></clipPath></defs><g clip-path="url(#master_svg0_23_04189)"><g><path d="M3,14L3,4Q3,3.9015086,3.019215,3.80491Q3.03843,3.708311,3.076121,3.617317Q3.1138120000000002,3.526322,3.16853,3.44443Q3.223249,3.362537,3.292893,3.292893Q3.362537,3.223249,3.44443,3.16853Q3.526322,3.1138120000000002,3.617317,3.076121Q3.708311,3.03843,3.80491,3.019215Q3.9015086,3,4,3L14,3Q14.0985,3,14.1951,3.019215Q14.2917,3.03843,14.3827,3.076121Q14.4737,3.1138120000000002,14.5556,3.16853Q14.6375,3.223249,14.7071,3.292893Q14.7767,3.362537,14.8315,3.44443Q14.8862,3.526322,14.9239,3.617317Q14.9616,3.708311,14.9808,3.80491Q15,3.9015086,15,4L15,14Q15,14.0985,14.9808,14.1951Q14.9616,14.2917,14.9239,14.3827Q14.8862,14.4737,14.8315,14.5556Q14.7767,14.6375,14.7071,14.7071Q14.6375,14.7767,14.5556,14.8315Q14.4737,14.8862,14.3827,14.9239Q14.2917,14.9616,14.1951,14.9808Q14.0985,15,14,15L4,15Q3.9015086,15,3.80491,14.9808Q3.708311,14.9616,3.617317,14.9239Q3.526322,14.8862,3.44443,14.8315Q3.362537,14.7767,3.292893,14.7071Q3.223249,14.6375,3.16853,14.5556Q3.1138120000000002,14.4737,3.076121,14.3827Q3.03843,14.2917,3.019215,14.1951Q3,14.0985,3,14ZM13,5L5,5L5,13L13,13L13,5Z" fill-rule="evenodd" fill="#0052D9" fill-opacity="1"/></g><g><path d="M3,28L3,18Q3,17.9015086,3.019215,17.80491Q3.03843,17.708311,3.076121,17.617317Q3.1138120000000002,17.526322,3.16853,17.44443Q3.223249,17.362537,3.292893,17.292893Q3.362537,17.223249,3.44443,17.16853Q3.526322,17.113812,3.617317,17.076121Q3.708311,17.038429999999998,3.80491,17.019215Q3.9015086,17,4,17L14,17Q14.0985,17,14.1951,17.019215Q14.2917,17.038429999999998,14.3827,17.076121Q14.4737,17.113812,14.5556,17.16853Q14.6375,17.223249,14.7071,17.292893Q14.7767,17.362537,14.8315,17.44443Q14.8862,17.526322,14.9239,17.617317Q14.9616,17.708311,14.9808,17.80491Q15,17.9015086,15,18L15,28Q15,28.0985,14.9808,28.1951Q14.9616,28.2917,14.9239,28.3827Q14.8862,28.4737,14.8315,28.5556Q14.7767,28.6375,14.7071,28.7071Q14.6375,28.776699999999998,14.5556,28.8315Q14.4737,28.886200000000002,14.3827,28.9239Q14.2917,28.9616,14.1951,28.980800000000002Q14.0985,29,14,29L4,29Q3.9015086,29,3.80491,28.980800000000002Q3.708311,28.9616,3.617317,28.9239Q3.526322,28.886200000000002,3.44443,28.8315Q3.362537,28.776699999999998,3.292893,28.7071Q3.223249,28.6375,3.16853,28.5556Q3.1138120000000002,28.4737,3.076121,28.3827Q3.03843,28.2917,3.019215,28.1951Q3,28.0985,3,28ZM13,19L5,19L5,27L13,27L13,19Z" fill-rule="evenodd" fill="#0052D9" fill-opacity="1"/></g><g><path d="M17,14L17,4Q17,3.9015086,17.019215,3.80491Q17.038429999999998,3.708311,17.076121,3.617317Q17.113812,3.526322,17.16853,3.44443Q17.223249,3.362537,17.292893,3.292893Q17.362537,3.223249,17.44443,3.16853Q17.526322,3.1138120000000002,17.617317,3.076121Q17.708311,3.03843,17.80491,3.019215Q17.9015086,3,18,3L28,3Q28.0985,3,28.1951,3.019215Q28.2917,3.03843,28.3827,3.076121Q28.4737,3.1138120000000002,28.5556,3.16853Q28.6375,3.223249,28.7071,3.292893Q28.776699999999998,3.362537,28.8315,3.44443Q28.886200000000002,3.526322,28.9239,3.617317Q28.9616,3.708311,28.980800000000002,3.80491Q29,3.9015086,29,4L29,14Q29,14.0985,28.980800000000002,14.1951Q28.9616,14.2917,28.9239,14.3827Q28.886200000000002,14.4737,28.8315,14.5556Q28.776699999999998,14.6375,28.7071,14.7071Q28.6375,14.7767,28.5556,14.8315Q28.4737,14.8862,28.3827,14.9239Q28.2917,14.9616,28.1951,14.9808Q28.0985,15,28,15L18,15Q17.9015086,15,17.80491,14.9808Q17.708311,14.9616,17.617317,14.9239Q17.526322,14.8862,17.44443,14.8315Q17.362537,14.7767,17.292893,14.7071Q17.223249,14.6375,17.16853,14.5556Q17.113812,14.4737,17.076121,14.3827Q17.038429999999998,14.2917,17.019215,14.1951Q17,14.0985,17,14ZM27,5L19,5L19,13L27,13L27,5Z" fill-rule="evenodd" fill="#0052D9" fill-opacity="1"/></g><g><path d="M17,18L17,27.33331Q17,27.431800000000003,17.019215,27.528399999999998Q17.038429999999998,27.625,17.076121,27.715989999999998Q17.113812,27.80699,17.16853,27.88888Q17.223249,27.97077,17.292893,28.040399999999998Q17.362537,28.1101,17.44443,28.1648Q17.526322,28.2195,17.617317,28.257199999999997Q17.708311,28.2949,17.80491,28.3141Q17.9015086,28.3333,18,28.3333Q18.0984914,28.3333,18.19509,28.3141Q18.291689,28.2949,18.382683,28.257199999999997Q18.473678,28.2195,18.55557,28.1648Q18.637463,28.1101,18.707107,28.040399999999998Q18.776751,27.97077,18.83147,27.88888Q18.886188,27.80699,18.923879,27.715989999999998Q18.961570000000002,27.625,18.980785,27.528399999999998Q19,27.431800000000003,19,27.33331L19,19L27.33333,19Q27.431820000000002,19,27.52842,18.980785Q27.62502,18.961570000000002,27.71602,18.923879Q27.80701,18.886188,27.8889,18.83147Q27.97079,18.776751,28.040399999999998,18.707107Q28.1101,18.637463,28.1648,18.55557Q28.2195,18.473678,28.257199999999997,18.382683Q28.2949,18.291689,28.3141,18.19509Q28.3333,18.0984914,28.3333,18Q28.3333,17.9015086,28.3141,17.80491Q28.2949,17.708311,28.257199999999997,17.617317Q28.2195,17.526322,28.1648,17.44443Q28.1101,17.362537,28.040399999999998,17.292893Q27.97079,17.223249,27.8889,17.16853Q27.80701,17.113812,27.71602,17.076121Q27.62502,17.038429999999998,27.52842,17.019215Q27.431820000000002,17,27.33333,17L18,17Q17.9015086,17,17.80491,17.019215Q17.708311,17.038429999999998,17.617317,17.076121Q17.526322,17.113812,17.44443,17.16853Q17.362537,17.223249,17.292893,17.292893Q17.223249,17.362537,17.16853,17.44443Q17.113812,17.526322,17.076121,17.617317Q17.038429999999998,17.708311,17.019215,17.80491Q17,17.9015086,17,18Z" fill-rule="evenodd" fill="#0052D9" fill-opacity="1"/></g><g><path d="M27.29238,28.70659L27.29289,28.70711Q27.43355,28.84776,27.61732,28.92388Q27.801090000000002,29,28,29Q28.198909999999998,29,28.38268,28.92388Q28.56645,28.84776,28.70711,28.70711Q28.84776,28.56645,28.92388,28.38268Q29,28.198909999999998,29,28Q29,27.801090000000002,28.92388,27.61732Q28.84776,27.43355,28.70711,27.29289L19.707107,18.292893Q19.566455,18.152241,19.382683,18.07612Q19.198912,18,19,18Q18.801088,18,18.617317,18.07612Q18.433545,18.152241,18.292893,18.292893Q18.152241,18.433545,18.07612,18.617317Q18,18.801088,18,19Q18,19.198912,18.07612,19.382683Q18.152241,19.566455,18.292893,19.707107L27.29238,28.70659Z" fill-rule="evenodd" fill="#0052D9" fill-opacity="1"/></g></g></svg>