<svg xmlns="http://www.w3.org/2000/svg" xmlns:xlink="http://www.w3.org/1999/xlink" fill="none" version="1.1" width="32" height="32" viewBox="0 0 32 32"><defs><clipPath id="master_svg0_23_04038"><rect x="0" y="0" width="32" height="32" rx="0"/></clipPath></defs><g clip-path="url(#master_svg0_23_04038)"><g><path d="M1,24L1,4Q1,3.9015086,1.019215,3.80491Q1.03843,3.708311,1.076121,3.617317Q1.113812,3.526322,1.16853,3.44443Q1.223249,3.362537,1.2928929999999998,3.292893Q1.362537,3.223249,1.44443,3.16853Q1.526322,3.1138120000000002,1.617317,3.076121Q1.7083110000000001,3.03843,1.80491,3.019215Q1.9015086,3,2,3L30,3Q30.0985,3,30.1951,3.019215Q30.2917,3.03843,30.3827,3.076121Q30.4737,3.1138120000000002,30.5556,3.16853Q30.6375,3.223249,30.7071,3.292893Q30.7767,3.362537,30.8315,3.44443Q30.8862,3.526322,30.9239,3.617317Q30.9616,3.708311,30.9808,3.80491Q31,3.9015086,31,4L31,24Q31,24.0985,30.9808,24.1951Q30.9616,24.2917,30.9239,24.3827Q30.8862,24.4737,30.8315,24.5556Q30.7767,24.6375,30.7071,24.7071Q30.6375,24.7767,30.5556,24.8315Q30.4737,24.8862,30.3827,24.9239Q30.2917,24.9616,30.1951,24.9808Q30.0985,25,30,25L2,25Q1.9015086,25,1.80491,24.9808Q1.7083110000000001,24.9616,1.617317,24.9239Q1.526322,24.8862,1.44443,24.8315Q1.362537,24.7767,1.2928929999999998,24.7071Q1.223249,24.6375,1.16853,24.5556Q1.113812,24.4737,1.076121,24.3827Q1.03843,24.2917,1.019215,24.1951Q1,24.0985,1,24ZM3,5L3,23L29,23L29,5L3,5Z" fill="#0052D9" fill-opacity="1"/></g><g><path d="M8,29L24,29Q24.0985,29,24.1951,28.980785Q24.2917,28.961570000000002,24.3827,28.923879Q24.4737,28.886188,24.5556,28.83147Q24.6375,28.776751,24.7071,28.707107Q24.7767,28.637463,24.8315,28.55557Q24.8862,28.473678,24.9239,28.382683Q24.9616,28.291689,24.9808,28.19509Q25,28.0984914,25,28Q25,27.9015086,24.9808,27.80491Q24.9616,27.708311,24.9239,27.617317Q24.8862,27.526322,24.8315,27.44443Q24.7767,27.362537,24.7071,27.292893Q24.6375,27.223249,24.5556,27.16853Q24.4737,27.113812,24.3827,27.076121Q24.2917,27.038429999999998,24.1951,27.019215Q24.0985,27,24,27L8,27Q7.9015086,27,7.80491,27.019215Q7.708311,27.038429999999998,7.617317,27.076121Q7.526322,27.113812,7.44443,27.16853Q7.362537,27.223249,7.292893,27.292893Q7.223249,27.362537,7.16853,27.44443Q7.113812,27.526322,7.076121,27.617317Q7.03843,27.708311,7.019215,27.80491Q7,27.9015086,7,28Q7,28.0984914,7.019215,28.19509Q7.03843,28.291689,7.076121,28.382683Q7.113812,28.473678,7.16853,28.55557Q7.223249,28.637463,7.292893,28.707107Q7.362537,28.776751,7.44443,28.83147Q7.526322,28.886188,7.617317,28.923879Q7.708311,28.961570000000002,7.80491,28.980785Q7.9015086,29,8,29Z" fill-rule="evenodd" fill="#0052D9" fill-opacity="1"/></g><g><path d="M9,13L9,19Q9,19.098489999999998,9.019214999999999,19.19509Q9.03843,19.29169,9.076121,19.38268Q9.113812,19.47368,9.16853,19.55557Q9.223249,19.63746,9.292893,19.70711Q9.362537,19.77675,9.44443,19.83147Q9.526322,19.88619,9.617317,19.92388Q9.708311,19.961570000000002,9.80491,19.98078Q9.9015086,20,10,20Q10.0984914,20,10.19509,19.98078Q10.291689,19.961570000000002,10.382683,19.92388Q10.473678,19.88619,10.55557,19.83147Q10.637463,19.77675,10.707107,19.70711Q10.776751,19.63746,10.83147,19.55557Q10.886188,19.47368,10.923879,19.38268Q10.96157,19.29169,10.980785000000001,19.19509Q11,19.098489999999998,11,19L11,13Q11,12.9015086,10.980785000000001,12.80491Q10.96157,12.708311,10.923879,12.617317Q10.886188,12.526322,10.83147,12.44443Q10.776751,12.362537,10.707107,12.292893Q10.637463,12.223249,10.55557,12.16853Q10.473678,12.113812,10.382683,12.076121Q10.291689,12.03843,10.19509,12.019214999999999Q10.0984914,12,10,12Q9.9015086,12,9.80491,12.019214999999999Q9.708311,12.03843,9.617317,12.076121Q9.526322,12.113812,9.44443,12.16853Q9.362537,12.223249,9.292893,12.292893Q9.223249,12.362537,9.16853,12.44443Q9.113812,12.526322,9.076121,12.617317Q9.03843,12.708311,9.019214999999999,12.80491Q9,12.9015086,9,13Z" fill-rule="evenodd" fill="#0052D9" fill-opacity="1"/></g><g><path d="M15,11L15,19Q15,19.098489999999998,15.019214999999999,19.19509Q15.03843,19.29169,15.076121,19.38268Q15.113812,19.47368,15.16853,19.55557Q15.223249,19.63746,15.292893,19.70711Q15.362537,19.77675,15.44443,19.83147Q15.526322,19.88619,15.617317,19.92388Q15.708311,19.961570000000002,15.80491,19.98079Q15.9015086,20,16,20Q16.0984914,20,16.19509,19.98079Q16.291689,19.961570000000002,16.382683,19.92388Q16.473678,19.88619,16.55557,19.83147Q16.637463,19.77675,16.707107,19.70711Q16.776751,19.63746,16.83147,19.55557Q16.886188,19.47368,16.923879,19.38268Q16.961570000000002,19.29169,16.980785,19.19509Q17,19.098489999999998,17,19L17,11Q17,10.9015086,16.980785,10.80491Q16.961570000000002,10.708311,16.923879,10.617317Q16.886188,10.526322,16.83147,10.44443Q16.776751,10.362537,16.707107,10.292893Q16.637463,10.223249,16.55557,10.16853Q16.473678,10.113812,16.382683,10.076121Q16.291689,10.03843,16.19509,10.019214999999999Q16.0984914,10,16,10Q15.9015086,10,15.80491,10.019214999999999Q15.708311,10.03843,15.617317,10.076121Q15.526322,10.113812,15.44443,10.16853Q15.362537,10.223249,15.292893,10.292893Q15.223249,10.362537,15.16853,10.44443Q15.113812,10.526322,15.076121,10.617317Q15.03843,10.708311,15.019214999999999,10.80491Q15,10.9015086,15,11Z" fill-rule="evenodd" fill="#0052D9" fill-opacity="1"/></g><g><path d="M21,9L21,19Q21,19.0985,21.019215,19.1951Q21.038429999999998,19.2917,21.076121,19.3827Q21.113812,19.4737,21.16853,19.5556Q21.223249,19.6375,21.292893,19.7071Q21.362537,19.776699999999998,21.44443,19.8315Q21.526322,19.886200000000002,21.617317,19.9239Q21.708311,19.9616,21.80491,19.980800000000002Q21.9015086,20,22,20Q22.0984914,20,22.19509,19.980800000000002Q22.291689,19.9616,22.382683,19.9239Q22.473678,19.886200000000002,22.55557,19.8315Q22.637463,19.776699999999998,22.707107,19.7071Q22.776751,19.6375,22.83147,19.5556Q22.886188,19.4737,22.923879,19.3827Q22.961570000000002,19.2917,22.980785,19.1951Q23,19.0985,23,19L23,9Q23,8.9015086,22.980785,8.80491Q22.961570000000002,8.708311,22.923879,8.617317Q22.886188,8.526322,22.83147,8.44443Q22.776751,8.362537,22.707107,8.292893Q22.637463,8.223249,22.55557,8.16853Q22.473678,8.113812,22.382683,8.076121Q22.291689,8.03843,22.19509,8.019214999999999Q22.0984914,8,22,8Q21.9015086,8,21.80491,8.019214999999999Q21.708311,8.03843,21.617317,8.076121Q21.526322,8.113812,21.44443,8.16853Q21.362537,8.223249,21.292893,8.292893Q21.223249,8.362537,21.16853,8.44443Q21.113812,8.526322,21.076121,8.617317Q21.038429999999998,8.708311,21.019215,8.80491Q21,8.9015086,21,9Z" fill-rule="evenodd" fill="#0052D9" fill-opacity="1"/></g></g></svg>