<svg xmlns="http://www.w3.org/2000/svg" xmlns:xlink="http://www.w3.org/1999/xlink" fill="none" version="1.1" width="32" height="32" viewBox="0 0 32 32"><defs><clipPath id="master_svg0_23_04788"><rect x="0" y="0" width="32" height="32" rx="0"/></clipPath></defs><g clip-path="url(#master_svg0_23_04788)"><g><path d="M26.23418698348999,22.9365L15.99978698348999,28.8453L4.87546698348999,22.4226L4.87546698348999,9.57735L13.99978698348999,4.3094L13.99978698348999,2.00000000607184L3.37546598348999,8.133980000000001Q3.2614509834899903,8.1998,3.1683589834899903,8.29289Q3.0752659834899903,8.38599,3.0094399834899903,8.5Q2.9436139834899904,8.61402,2.9095397834899903,8.74118Q2.8754656314899902,8.86835,2.8754656314899902,9L2.87546670448999,23Q2.8754667174899904,23.1317,2.9095408834899903,23.2588Q2.9436150834899903,23.386,3.0094409834899905,23.5Q3.07526798348999,23.614,3.1683599834899905,23.7071Q3.26145198348999,23.8002,3.37546698348999,23.866L15.49978698348999,30.866Q15.613786983489991,30.9319,15.74098698348999,30.9659Q15.86818698348999,31,15.99978698348999,31Q16.131486983489992,31,16.25868698348999,30.9659Q16.38578698348999,30.9319,16.49978698348999,30.866L26.23418698348999,25.2459L26.23418698348999,22.9365Z" fill-rule="evenodd" fill="#0052D9" fill-opacity="1"/></g><g><path d="M15.000037209472655,7.42263112578208L8.571834209472657,11.133959860382081Q8.457820209472656,11.19977986038208,8.364727209472656,11.29286986038208Q8.271635209472656,11.38596986038208,8.205809209472656,11.49997986038208Q8.139982809472656,11.61399986038208,8.105908609472657,11.74115986038208Q8.071834445472657,11.86832986038208,8.071834445472657,11.99997986038208L8.071835041472657,19.99994986038208Q8.071835054472656,20.13164986038208,8.105909209472657,20.258849860382078Q8.139983409472656,20.38594986038208,8.205809209472656,20.49994986038208Q8.271636209472657,20.61394986038208,8.364728209472656,20.707049860382078Q8.457820209472656,20.800149860382078,8.571835209472656,20.86604986038208L15.500037209472655,24.86604986038208Q15.614057209472655,24.93184986038208,15.741217209472655,24.96594986038208Q15.868387209472656,24.99994986038208,16.000037209472655,24.99994986038208Q16.131687209472656,24.99994986038208,16.25885720947266,24.96594986038208Q16.38602720947266,24.93184986038208,16.50003720947266,24.86604986038208L21.500027209472655,21.97924986038208L21.500027209472655,19.66984986038208L16.000037209472655,22.84524986038208L10.071837209472656,19.42264986038208L10.071837209472656,12.57732986038208L15.000037209472655,9.732029860382081L15.000037209472655,7.42263112578208Z" fill-rule="evenodd" fill="#0052D9" fill-opacity="1"/></g><g transform="matrix(0.7071067690849304,0.7071067690849304,-0.7071067690849304,0.7071067690849304,8.496852389653213,-16.51321531168651)"><path d="M23.876052625,11.81499L27.990150625,13.4606Q28.137280625,13.5195,28.295740625,13.5195Q28.454200625,13.5195,28.601330625,13.4606L32.715430624999996,11.81499Q32.829950625,11.76919,32.926000625,11.69182Q33.022050625,11.61445,33.091190624999996,11.51232Q33.160340625,11.41019,33.196500625,11.29228Q33.232660625,11.17436,33.232660625,11.05102L33.232660625,2Q33.232660625,1.9189593,33.216850625,1.8394759999999999Q33.201040625,1.759992,33.170030625,1.68512Q33.139020625,1.610248,33.093990625,1.542866Q33.048970625,1.475483,32.991660625,1.4181780000000002Q32.934360625,1.360874,32.866980625,1.31585Q32.799590625,1.270826,32.724720625,1.239813Q32.649850625,1.2088,32.570370625,1.19299Q32.490880625,1.17718,32.409840625,1.17718Q32.251380624999996,1.17718,32.104260625,1.23603L28.295740625,2.759436L24.487228625,1.23603Q24.335265625,1.1752449999999999,24.171608525,1.177241Q24.007951625,1.179236,23.857515625,1.243709Q23.707080625,1.308181,23.592768625,1.4253149999999999Q23.478456625,1.542449,23.417670625,1.694412Q23.358820625,1.841539,23.358820625,2L23.358820625,11.05102Q23.358820625,11.17436,23.394982625,11.29228Q23.431144625,11.41019,23.500289625,11.51232Q23.569435625,11.61445,23.665486625,11.69182Q23.761538625,11.76919,23.876052625,11.81499ZM28.295740625,11.81046L25.004460625,10.49395L25.004460625,3.21533L27.990150625,4.40961Q28.137280625,4.46846,28.295740625,4.46846Q28.454200625,4.46846,28.601330625,4.40961L31.587020625,3.21533L31.587020625,10.49395L28.295740625,11.81046Z" fill-rule="evenodd" fill="#0052D9" fill-opacity="1"/></g><g><path d="M16,17.167179072265625L16.0000965595,17.167279072265625L16.583459,16.583909072265627L16.581918,16.582369072265625L20.10917,13.055119072265626L20.11071,13.056659072265624L20.69408,12.473299072265625L19.52734,11.306565642365625L18.94398,11.889934072265625L18.945520000000002,11.891475072265624L16,14.836999072265625L16,17.167179072265625L16,17.167179072265625Z" fill-rule="evenodd" fill="#0052D9" fill-opacity="1"/></g></g></svg>