<svg width="32" height="33" viewBox="0 0 32 33" fill="none" xmlns="http://www.w3.org/2000/svg">
<path fill-rule="evenodd" clip-rule="evenodd" d="M16 27.3052C20.4183 27.3052 24 23.8444 24 19.5754C24 15.3064 20.4183 11.8457 16 11.8457C11.5817 11.8457 8 15.3064 8 19.5754C8 23.8444 11.5817 27.3052 16 27.3052ZM16 24.7286C18.9455 24.7286 21.3333 22.4214 21.3333 19.5754C21.3333 16.7294 18.9455 14.4223 16 14.4223C13.0545 14.4223 10.6667 16.7294 10.6667 19.5754C10.6667 22.4214 13.0545 24.7286 16 24.7286Z" fill="#0052D9"/>
<path fill-rule="evenodd" clip-rule="evenodd" d="M16 23.4407C18.2091 23.4407 20 21.7103 20 19.5758C20 17.4413 18.2091 15.7109 16 15.7109C13.7909 15.7109 12 17.4413 12 19.5758C12 21.7103 13.7909 23.4407 16 23.4407ZM16 20.8641C16.7364 20.8641 17.3333 20.2873 17.3333 19.5758C17.3333 18.8643 16.7364 18.2875 16 18.2875C15.2636 18.2875 14.6667 18.8643 14.6667 19.5758C14.6667 20.2873 15.2636 20.8641 16 20.8641Z" fill="#0052D9"/>
<rect x="14.6666" y="10.5576" width="2.66667" height="3.22072" fill="#0052D9"/>
<rect width="2.59939" height="3.96665" transform="matrix(-0.512941 0.858424 -0.873307 -0.48717 25.4642 23.4404)" fill="#0052D9"/>
<rect width="2.59939" height="3.30554" transform="matrix(0.51294 0.858424 -0.873307 0.48717 9.55334 21.5078)" fill="#0052D9"/>
<path fill-rule="evenodd" clip-rule="evenodd" d="M4.66663 29.2375C6.87576 29.2375 8.66663 27.5072 8.66663 25.3727C8.66663 23.2382 6.87576 21.5078 4.66663 21.5078C2.45749 21.5078 0.666626 23.2382 0.666626 25.3727C0.666626 27.5072 2.45749 29.2375 4.66663 29.2375ZM4.66663 26.661C5.40301 26.661 5.99996 26.0842 5.99996 25.3727C5.99996 24.6612 5.40301 24.0844 4.66663 24.0844C3.93025 24.0844 3.33329 24.6612 3.33329 25.3727C3.33329 26.0842 3.93025 26.661 4.66663 26.661Z" fill="#0052D9"/>
<path fill-rule="evenodd" clip-rule="evenodd" d="M27.3334 29.2375C29.5425 29.2375 31.3334 27.5072 31.3334 25.3727C31.3334 23.2382 29.5425 21.5078 27.3334 21.5078C25.1242 21.5078 23.3334 23.2382 23.3334 25.3727C23.3334 27.5072 25.1242 29.2375 27.3334 29.2375ZM27.3334 26.661C28.0698 26.661 28.6667 26.0842 28.6667 25.3727C28.6667 24.6612 28.0698 24.0844 27.3334 24.0844C26.597 24.0844 26 24.6612 26 25.3727C26 26.0842 26.597 26.661 27.3334 26.661Z" fill="#0052D9"/>
<path fill-rule="evenodd" clip-rule="evenodd" d="M16 11.2014C18.2091 11.2014 20 9.47105 20 7.33654C20 5.20204 18.2091 3.47168 16 3.47168C13.7909 3.47168 12 5.20204 12 7.33654C12 9.47105 13.7909 11.2014 16 11.2014ZM16 8.62483C16.7364 8.62483 17.3333 8.04805 17.3333 7.33654C17.3333 6.62504 16.7364 6.04826 16 6.04826C15.2636 6.04826 14.6667 6.62504 14.6667 7.33654C14.6667 8.04805 15.2636 8.62483 16 8.62483Z" fill="#0052D9"/>
</svg>
