<svg xmlns="http://www.w3.org/2000/svg" xmlns:xlink="http://www.w3.org/1999/xlink" fill="none" version="1.1" width="32" height="32" viewBox="0 0 32 32"><defs><clipPath id="master_svg0_23_04400"><rect x="0" y="0" width="32" height="32" rx="0"/></clipPath></defs><g clip-path="url(#master_svg0_23_04400)"><g><path d="M2,3L2,9Q2,9.09849,2.019215,9.19509Q2.03843,9.29169,2.076121,9.38268Q2.1138120000000002,9.47368,2.16853,9.55557Q2.223249,9.63746,2.292893,9.70711Q2.362537,9.77675,2.44443,9.83147Q2.526322,9.88619,2.617317,9.92388Q2.708311,9.96157,2.80491,9.98078Q2.9015086,10,3,10Q3.0984914,10,3.19509,9.98078Q3.291689,9.96157,3.382683,9.92388Q3.473678,9.88619,3.55557,9.83147Q3.637463,9.77675,3.707107,9.70711Q3.776751,9.63746,3.83147,9.55557Q3.8861879999999998,9.47368,3.923879,9.38268Q3.96157,9.29169,3.980785,9.19509Q4,9.09849,4,9L4,4L9,4Q9.09849,4,9.19509,3.980785Q9.29169,3.96157,9.38268,3.923879Q9.47368,3.8861879999999998,9.55557,3.83147Q9.63746,3.776751,9.70711,3.707107Q9.77675,3.637463,9.83147,3.55557Q9.88619,3.473678,9.92388,3.382683Q9.96157,3.291689,9.98078,3.19509Q10,3.0984914,10,3Q10,2.9015086,9.98078,2.80491Q9.96157,2.708311,9.92388,2.617317Q9.88619,2.526322,9.83147,2.44443Q9.77675,2.362537,9.70711,2.292893Q9.63746,2.223249,9.55557,2.16853Q9.47368,2.1138120000000002,9.38268,2.076121Q9.29169,2.03843,9.19509,2.019215Q9.09849,2,9,2L3,2Q2.9015086,2,2.80491,2.019215Q2.708311,2.03843,2.617317,2.076121Q2.526322,2.1138120000000002,2.44443,2.16853Q2.362537,2.223249,2.292893,2.292893Q2.223249,2.362537,2.16853,2.44443Q2.1138120000000002,2.526322,2.076121,2.617317Q2.03843,2.708311,2.019215,2.80491Q2,2.9015086,2,3Z" fill-rule="evenodd" fill="#0052D9" fill-opacity="1"/></g><g transform="matrix(1,0,0,-1,0,58)"><path d="M2,29L2,35Q2,35.09849,2.019215,35.19509Q2.03843,35.29169,2.076121,35.38268Q2.1138120000000002,35.47368,2.16853,35.55557Q2.223249,35.63746,2.292893,35.70711Q2.362537,35.77675,2.44443,35.83147Q2.526322,35.88619,2.617317,35.92388Q2.708311,35.96157,2.80491,35.98078Q2.9015086,36,3,36Q3.0984914,36,3.19509,35.98078Q3.291689,35.96157,3.382683,35.92388Q3.473678,35.88619,3.55557,35.83147Q3.637463,35.77675,3.707107,35.70711Q3.776751,35.63746,3.83147,35.55557Q3.8861879999999998,35.47368,3.923879,35.38268Q3.96157,35.29169,3.980785,35.19509Q4,35.09849,4,35L4,30L9,30Q9.09849,30,9.19509,29.980785Q9.29169,29.961570000000002,9.38268,29.923879Q9.47368,29.886188,9.55557,29.83147Q9.63746,29.776751,9.70711,29.707107Q9.77675,29.637463,9.83147,29.55557Q9.88619,29.473678,9.92388,29.382683Q9.96157,29.291689,9.98078,29.19509Q10,29.0984914,10,29Q10,28.9015086,9.98078,28.80491Q9.96157,28.708311,9.92388,28.617317Q9.88619,28.526322,9.83147,28.44443Q9.77675,28.362537,9.70711,28.292893Q9.63746,28.223249,9.55557,28.16853Q9.47368,28.113812,9.38268,28.076121Q9.29169,28.038429999999998,9.19509,28.019215Q9.09849,28,9,28L3,28Q2.9015086,28,2.80491,28.019215Q2.708311,28.038429999999998,2.617317,28.076121Q2.526322,28.113812,2.44443,28.16853Q2.362537,28.223249,2.292893,28.292893Q2.223249,28.362537,2.16853,28.44443Q2.1138120000000002,28.526322,2.076121,28.617317Q2.03843,28.708311,2.019215,28.80491Q2,28.9015086,2,29Z" fill-rule="evenodd" fill="#0052D9" fill-opacity="1"/></g><g transform="matrix(-1,0,0,1,58,0)"><path d="M28,3L28,9Q28,9.09849,28.019215,9.19509Q28.038429999999998,9.29169,28.076121,9.38268Q28.113812,9.47368,28.16853,9.55557Q28.223249,9.63746,28.292893,9.70711Q28.362537,9.77675,28.44443,9.83147Q28.526322,9.88619,28.617317,9.92388Q28.708311,9.96157,28.80491,9.98078Q28.9015086,10,29,10Q29.0984914,10,29.19509,9.98078Q29.291689,9.96157,29.382683,9.92388Q29.473678,9.88619,29.55557,9.83147Q29.637463,9.77675,29.707107,9.70711Q29.776751,9.63746,29.83147,9.55557Q29.886188,9.47368,29.923879,9.38268Q29.961570000000002,9.29169,29.980785,9.19509Q30,9.09849,30,9L30,4L35,4Q35.09849,4,35.19509,3.980785Q35.29169,3.96157,35.38268,3.923879Q35.47368,3.8861879999999998,35.55557,3.83147Q35.63746,3.776751,35.70711,3.707107Q35.77675,3.637463,35.83147,3.55557Q35.88619,3.473678,35.92388,3.382683Q35.96157,3.291689,35.98078,3.19509Q36,3.0984914,36,3Q36,2.9015086,35.98078,2.80491Q35.96157,2.708311,35.92388,2.617317Q35.88619,2.526322,35.83147,2.44443Q35.77675,2.362537,35.70711,2.292893Q35.63746,2.223249,35.55557,2.16853Q35.47368,2.1138120000000002,35.38268,2.076121Q35.29169,2.03843,35.19509,2.019215Q35.09849,2,35,2L29,2Q28.9015086,2,28.80491,2.019215Q28.708311,2.03843,28.617317,2.076121Q28.526322,2.1138120000000002,28.44443,2.16853Q28.362537,2.223249,28.292893,2.292893Q28.223249,2.362537,28.16853,2.44443Q28.113812,2.526322,28.076121,2.617317Q28.038429999999998,2.708311,28.019215,2.80491Q28,2.9015086,28,3Z" fill-rule="evenodd" fill="#0052D9" fill-opacity="1"/></g><g transform="matrix(-1,0,0,-1,58,58)"><path d="M28,29L28,35Q28,35.09849,28.019215,35.19509Q28.038429999999998,35.29169,28.076121,35.38268Q28.113812,35.47368,28.16853,35.55557Q28.223249,35.63746,28.292893,35.70711Q28.362537,35.77675,28.44443,35.83147Q28.526322,35.88619,28.617317,35.92388Q28.708311,35.96157,28.80491,35.98078Q28.9015086,36,29,36Q29.0984914,36,29.19509,35.98078Q29.291689,35.96157,29.382683,35.92388Q29.473678,35.88619,29.55557,35.83147Q29.637463,35.77675,29.707107,35.70711Q29.776751,35.63746,29.83147,35.55557Q29.886188,35.47368,29.923879,35.38268Q29.961570000000002,35.29169,29.980785,35.19509Q30,35.09849,30,35L30,30L35,30Q35.09849,30,35.19509,29.980785Q35.29169,29.961570000000002,35.38268,29.923879Q35.47368,29.886188,35.55557,29.83147Q35.63746,29.776751,35.70711,29.707107Q35.77675,29.637463,35.83147,29.55557Q35.88619,29.473678,35.92388,29.382683Q35.96157,29.291689,35.98078,29.19509Q36,29.0984914,36,29Q36,28.9015086,35.98078,28.80491Q35.96157,28.708311,35.92388,28.617317Q35.88619,28.526322,35.83147,28.44443Q35.77675,28.362537,35.70711,28.292893Q35.63746,28.223249,35.55557,28.16853Q35.47368,28.113812,35.38268,28.076121Q35.29169,28.038429999999998,35.19509,28.019215Q35.09849,28,35,28L29,28Q28.9015086,28,28.80491,28.019215Q28.708311,28.038429999999998,28.617317,28.076121Q28.526322,28.113812,28.44443,28.16853Q28.362537,28.223249,28.292893,28.292893Q28.223249,28.362537,28.16853,28.44443Q28.113812,28.526322,28.076121,28.617317Q28.038429999999998,28.708311,28.019215,28.80491Q28,28.9015086,28,29Z" fill-rule="evenodd" fill="#0052D9" fill-opacity="1"/></g><g><ellipse cx="16" cy="12" rx="4" ry="4" fill-opacity="0" stroke-opacity="1" stroke="#0052D9" fill="none" stroke-width="2" stroke-linecap="ROUND" stroke-linejoin="round"/></g><g><path d="M7.707675,20.49649Q7,22.169620000000002,7,24Q7,24.098489999999998,7.019215,24.19509Q7.03843,24.29169,7.076121,24.38268Q7.113812,24.47368,7.16853,24.55557Q7.223249,24.63746,7.292893,24.70711Q7.362537,24.77675,7.44443,24.83147Q7.526322,24.88619,7.617317,24.92388Q7.708311,24.961570000000002,7.80491,24.98078Q7.9015086,25,8,25L24,25Q24.0985,25,24.1951,24.98078Q24.2917,24.961570000000002,24.3827,24.92388Q24.4737,24.88619,24.5556,24.83147Q24.6375,24.77675,24.7071,24.70711Q24.7767,24.63746,24.8315,24.55557Q24.8862,24.47368,24.9239,24.38268Q24.9616,24.29169,24.9808,24.19509Q25,24.098489999999998,25,24Q25,22.169620000000002,24.2923,20.49649Q23.609099999999998,18.88119,22.364,17.63604Q21.1188,16.390889,19.503500000000003,15.707675Q17.830379999999998,15,16,15Q14.16962,15,12.49649,15.707674Q10.88119,16.390888,9.63604,17.63604Q8.390889,18.88119,7.707675,20.49649ZM9.06426,23L22.9357,23Q22.637,20.73754,20.9497,19.05025Q18.8995,17,16,16.999999Q13.1005,17,11.05025,19.05025Q9.36296,20.73754,9.06426,23Z" fill-rule="evenodd" fill="#0052D9" fill-opacity="1"/></g></g></svg>