<svg xmlns="http://www.w3.org/2000/svg" xmlns:xlink="http://www.w3.org/1999/xlink" fill="none" version="1.1" width="32" height="32" viewBox="0 0 32 32"><defs><clipPath id="master_svg0_23_03740"><rect x="0" y="0" width="32" height="32" rx="0"/></clipPath></defs><g clip-path="url(#master_svg0_23_03740)"><g><path d="M3.072867,21.7197Q4.35131,24.3252,6.62221,26.1464Q6.75531,26.2532,6.91627,26.3098Q7.07724,26.3663,7.24785,26.3663Q7.34635,26.3663,7.44294,26.3471Q7.53954,26.3279,7.63054,26.2902Q7.72153,26.2525,7.80342,26.1978Q7.88532,26.1431,7.95496,26.0734Q8.0246,26.0038,8.07932,25.9219Q8.134039999999999,25.84,8.17173,25.749Q8.20942,25.658,8.22864,25.5614Q8.24785,25.4648,8.24785,25.3663Q8.24786,25.254,8.222940000000001,25.1445Q8.19802,25.035,8.14942,24.9337Q8.10083,24.8324,8.03098,24.7445Q7.96113,24.6565,7.8735,24.5862Q5.95041,23.0439,4.8683700000000005,20.8387Q3.75,18.5594,3.75,16Q3.75,13.76139,4.61402,11.71861Q5.4488900000000005,9.74476,6.97183,8.22183Q8.49476,6.6988900000000005,10.46861,5.86402Q12.51139,5,14.75,5Q18.6959,5,21.7363,7.503Q24.7371,9.97342,25.5209,13.75496Q25.5383,13.83879,25.5697,13.91844Q25.601,13.9981,25.6455,14.0713Q25.6899,14.1444,25.7462,14.209Q25.8024,14.2735,25.8688,14.3276Q25.9352,14.3816,26.0098,14.4236Q26.0844,14.4655,26.1651,14.4942Q26.2458,14.5229,26.3301,14.5375Q26.4145,14.552,26.5001,14.552Q26.5986,14.552,26.6952,14.5328Q26.7918,14.5136,26.8828,14.4759Q26.9738,14.4382,27.0557,14.3835Q27.1376,14.3288,27.2072,14.2591Q27.2769,14.1895,27.3316,14.1076Q27.3863,14.0257,27.424,13.93469Q27.4617,13.84369,27.4809,13.7471Q27.5001,13.6505,27.5001,13.55201Q27.5001,13.44946,27.4793,13.34905Q26.5525,8.87733,23.0075,5.95892Q19.4133,3,14.75,3.000002Q12.10582,3.000002,9.68951,4.0220153Q7.35638,5.00884,5.55761,6.80761Q3.75884,8.60638,2.772015,10.93951Q1.75,13.35582,1.75,16Q1.75,19.023699999999998,3.072867,21.7197Z" fill-rule="evenodd" fill="#0052D9" fill-opacity="1"/></g><g><path d="M16.58025,27.4076L16.58105,27.408Q16.78042,27.5,17,27.5Q17.098489999999998,27.5,17.19509,27.4808Q17.29169,27.4616,17.38268,27.4239Q17.47368,27.3862,17.55557,27.3315Q17.63746,27.2767,17.70711,27.2071Q17.77675,27.1375,17.83147,27.0556Q17.88619,26.9737,17.92388,26.8827Q17.961570000000002,26.7917,17.98078,26.6951Q18,26.5985,18,26.5Q18,26.3567,17.95977,26.2192Q17.91953,26.0817,17.8423,25.961Q17.76507,25.8403,17.657069999999997,25.7462Q17.54906,25.652,17.418950000000002,25.592Q16.51281,25.1739,15.623709999999999,24.585900000000002Q13.04856,22.8829,11.51224,20.7976Q9.77627,18.441290000000002,9.75022,16.039189999999998L9.749985,15.994530000000001Q9.75,13.92893,11.21447,12.46447Q12.67893,11,14.75,11Q16.10403,11,17.26554,11.67775Q18.39468,12.33661,19.0594,13.4625Q19.2706,13.82037,19.351399999999998,14.451039999999999Q19.5745,16.19298,20.6899,17.54943Q21.805300000000003,18.90587,23.4714,19.46122L24.9333,19.948520000000002L24.9338,19.94868Q25.0877,20,25.25,20Q25.3485,20,25.4451,19.98078Q25.5417,19.961570000000002,25.6327,19.92388Q25.7237,19.88619,25.8056,19.83147Q25.8875,19.77675,25.9571,19.70711Q26.0267,19.63746,26.0815,19.55557Q26.1362,19.47368,26.1739,19.38268Q26.2116,19.29169,26.2308,19.19509Q26.25,19.098489999999998,26.25,19Q26.25,18.92178,26.2378,18.8445Q26.2257,18.767229999999998,26.2016,18.692790000000002Q26.1776,18.61835,26.1423,18.54855Q26.107,18.478749999999998,26.0612,18.41529Q26.0155,18.35183,25.9605,18.29626Q25.9054,18.240679999999998,25.8424,18.19434Q25.7794,18.148,25.7099,18.11203Q25.6404,18.076050000000002,25.5662,18.05132L25.5657,18.05115L24.1038,17.563850000000002Q22.9842,17.190649999999998,22.2347,16.27912Q21.4851,15.36759,21.3352,14.197Q21.202199999999998,13.15807,20.781599999999997,12.44575Q19.8523,10.871555,18.2735,9.9503213Q16.64487,9,14.75,9.000001Q11.8505,9.000001,9.80025,11.05025Q7.75,13.10051,7.750015,16.00547L7.750333,16.06088Q7.78339,19.10814,9.90205,21.9839Q11.64906,24.3551,14.52047,26.2541Q15.53621,26.9258,16.58025,27.4076Z" fill-rule="evenodd" fill="#0052D9" fill-opacity="1"/></g><g><path d="M24.75,22.5L29.25,22.5Q29.348489999999998,22.5,29.44509,22.519215Q29.54169,22.538429999999998,29.63268,22.576121Q29.72368,22.613812,29.80557,22.66853Q29.88746,22.723249,29.95711,22.792893Q30.02675,22.862537,30.08147,22.94443Q30.13619,23.026322,30.17388,23.117317Q30.211570000000002,23.208311,30.23078,23.30491Q30.25,23.4015086,30.25,23.5Q30.25,23.5984914,30.23078,23.69509Q30.211570000000002,23.791689,30.17388,23.882683Q30.13619,23.973678,30.08147,24.05557Q30.02675,24.137463,29.95711,24.207107Q29.88746,24.276751,29.80557,24.33147Q29.72368,24.386188,29.63268,24.423879Q29.54169,24.461570000000002,29.44509,24.480785Q29.348489999999998,24.5,29.25,24.5L24.75,24.5Q24.6515086,24.5,24.55491,24.480785Q24.458311,24.461570000000002,24.367317,24.423879Q24.276322,24.386188,24.19443,24.33147Q24.112537,24.276751,24.042893,24.207107Q23.973249,24.137463,23.91853,24.05557Q23.863812,23.973678,23.826121,23.882683Q23.788429999999998,23.791689,23.769215,23.69509Q23.75,23.5984914,23.75,23.5Q23.75,23.4015086,23.769215,23.30491Q23.788429999999998,23.208311,23.826121,23.117317Q23.863812,23.026322,23.91853,22.94443Q23.973249,22.862537,24.042893,22.792893Q24.112537,22.723249,24.19443,22.66853Q24.276322,22.613812,24.367317,22.576121Q24.458311,22.538429999999998,24.55491,22.519215Q24.6515086,22.5,24.75,22.5Z" fill-rule="evenodd" fill="#0052D9" fill-opacity="1"/></g><g><path d="M20.75,27L29.25,27Q29.348489999999998,27,29.44509,27.019215Q29.54169,27.038429999999998,29.63268,27.076121Q29.72368,27.113812,29.80557,27.16853Q29.88746,27.223249,29.95711,27.292893Q30.02675,27.362537,30.08147,27.44443Q30.13619,27.526322,30.17388,27.617317Q30.211570000000002,27.708311,30.23078,27.80491Q30.25,27.9015086,30.25,28Q30.25,28.0984914,30.23078,28.19509Q30.211570000000002,28.291689,30.17388,28.382683Q30.13619,28.473678,30.08147,28.55557Q30.02675,28.637463,29.95711,28.707107Q29.88746,28.776751,29.80557,28.83147Q29.72368,28.886188,29.63268,28.923879Q29.54169,28.961570000000002,29.44509,28.980785Q29.348489999999998,29,29.25,29L20.75,29Q20.6515086,29,20.55491,28.980785Q20.458311,28.961570000000002,20.367317,28.923879Q20.276322,28.886188,20.19443,28.83147Q20.112537,28.776751,20.042893,28.707107Q19.973249,28.637463,19.91853,28.55557Q19.863812,28.473678,19.826121,28.382683Q19.788429999999998,28.291689,19.769215,28.19509Q19.75,28.0984914,19.75,28Q19.75,27.9015086,19.769215,27.80491Q19.788429999999998,27.708311,19.826121,27.617317Q19.863812,27.526322,19.91853,27.44443Q19.973249,27.362537,20.042893,27.292893Q20.112537,27.223249,20.19443,27.16853Q20.276322,27.113812,20.367317,27.076121Q20.458311,27.038429999999998,20.55491,27.019215Q20.6515086,27,20.75,27Z" fill-rule="evenodd" fill="#0052D9" fill-opacity="1"/></g><g><path d="M15.214775,14.736924L15.243893,14.843689Q15.8897,17.21165,17.44579,19.10978Q19.00189,21.00791,21.19721,22.10557Q21.32179,22.16786,21.42461,22.26182Q21.52742,22.35579,21.60065,22.47427Q21.67388,22.59275,21.71194,22.72673Q21.75,22.86072,21.75,23Q21.75,23.098489999999998,21.73078,23.19509Q21.711570000000002,23.29169,21.67388,23.38268Q21.63619,23.47368,21.58147,23.55557Q21.52675,23.63746,21.45711,23.70711Q21.38746,23.77675,21.30557,23.83147Q21.22368,23.88619,21.13268,23.92388Q21.04169,23.961570000000002,20.94509,23.98078Q20.848489999999998,24,20.75,24Q20.513930000000002,24,20.30279,23.89443Q17.72576,22.60592,15.89911,20.377760000000002Q14.07246,18.1496,13.314365,15.369924L13.285248,15.263159L13.285236,15.263117Q13.25,15.133918,13.25,15Q13.25,14.9015086,13.269214999999999,14.80491Q13.28843,14.708311,13.326121,14.617317Q13.363812,14.526322,13.41853,14.44443Q13.473249,14.362537,13.542893,14.292893Q13.612537,14.223249,13.69443,14.16853Q13.776322,14.113812,13.867317,14.076121Q13.958311,14.03843,14.05491,14.019214999999999Q14.1515086,14,14.25,14Q14.3317152,14,14.412346,14.013266Q14.492977,14.026532,14.570385,14.052713Q14.647793,14.078893,14.719924,14.117293Q14.792054,14.155693,14.856994,14.205293Q14.921933,14.254894,14.977959,14.314379Q15.033985,14.373864,15.07961,14.441656Q15.125235,14.509448,15.159248999999999,14.583747Q15.193263,14.658047,15.214764,14.736883L15.214775,14.736924Z" fill-rule="evenodd" fill="#0052D9" fill-opacity="1"/></g></g></svg>