<svg width="32" height="32" viewBox="0 0 32 32" fill="none" xmlns="http://www.w3.org/2000/svg">
<path fill-rule="evenodd" clip-rule="evenodd" d="M3.73244 3C3.38663 3.5978 2.74028 4 2 4C0.895431 4 0 3.10457 0 2C0 0.895431 0.895431 0 2 0C2.74028 0 3.38663 0.402199 3.73244 1H31H32V2V24H30V3H3.73244ZM2 29H28.2676C28.6134 28.4022 29.2597 28 30 28C31.1046 28 32 28.8954 32 30C32 31.1046 31.1046 32 30 32C29.2597 32 28.6134 31.5978 28.2676 31H1H0V30V8H2V29ZM8.32227 4.86499H7.32227V5.86499V21.2842V21.7408L7.66734 22.0398L12.5096 26.2365L14.1646 27.6708V25.4808V11.7074L17.2207 11.7077H17.2208C17.3836 11.7077 17.5397 11.7724 17.6548 11.8875C17.7698 12.0026 17.8345 12.1587 17.8345 12.3214C17.8345 12.4842 17.7698 12.6403 17.6548 12.7554C17.5397 12.8704 17.3836 12.9351 17.2208 12.9351H16.2519H15.2516L15.2519 13.9354L15.2523 15.2368V15.2372L15.2519 23.3166L15.2519 23.7429L15.5595 24.0381L18.4965 26.8567L18.7867 27.1352H19.1889H23.6772H24.6789L24.6772 26.1335L24.6699 21.6452L24.6691 21.1847L24.3187 20.8859L21.4646 18.4524C21.8301 18.1994 22.1747 17.9125 22.4933 17.5939C23.8916 16.1956 24.6772 14.299 24.6772 12.3214C24.6772 10.3439 23.8916 8.44729 22.4933 7.04894C21.0949 5.65059 19.1984 4.865 17.2208 4.865L13.1646 4.86499H8.32227ZM17.2519 22.8903L17.2522 17.4441L19.0756 19.0436L19.0756 19.0437L19.0863 19.0528L20.9558 20.6468H19.1889H18.1889V21.6468V23.7895L17.2519 22.8903ZM20.1889 22.6468H22.6715L22.6756 25.1352H20.1889V22.6468ZM19.8781 17.0871L17.4164 14.9278C18.0381 14.8811 18.6251 14.6134 19.069 14.1696C19.5591 13.6794 19.8345 13.0146 19.8345 12.3214C19.8345 11.6282 19.5591 10.9634 19.069 10.4733C18.5788 9.98313 17.9141 9.70777 17.2209 9.70774H17.2208L13.1647 9.7073L12.1646 9.7072V10.7073V23.2909L9.32227 20.8275V6.86499H13.1646L17.2208 6.865C18.6679 6.865 20.0558 7.43987 21.0791 8.46315C22.1024 9.48643 22.6772 10.8743 22.6772 12.3214C22.6772 13.7686 22.1024 15.1564 21.0791 16.1797C20.7193 16.5394 20.3146 16.8437 19.8781 17.0871Z" fill="#0052D9"/>
</svg>
