<svg xmlns="http://www.w3.org/2000/svg" xmlns:xlink="http://www.w3.org/1999/xlink" fill="none" version="1.1" width="32" height="32" viewBox="0 0 32 32"><defs><clipPath id="master_svg0_23_02803"><rect x="0" y="0" width="32" height="32" rx="0"/></clipPath></defs><g clip-path="url(#master_svg0_23_02803)"><g><path d="M31.182228125,20.4846L20.356928125,2.484618Q20.228728125,2.271319,20.015428125,2.143039Q19.844928125,2.0405234,19.648228125,2.0110434Q19.451528125,1.9815635,19.258428125000002,2.0296075Q19.065428125,2.0776514,18.905528125,2.1959049999999998Q18.745528125,2.314158,18.643028125,2.484618L11.868958124999999,13.7484L14.187548125,13.7737L19.500028125,4.94031L28.557028125,20L17.068088125,20L15.883938125,22L30.325328125,22Q30.602828125,22,30.840728125,21.857Q31.011128125,21.7544,31.129428125,21.5945Q31.247628125,21.4346,31.295728125,21.2415Q31.343728125,21.0485,31.314228125,20.8518Q31.284828125,20.6551,31.182228125,20.4846ZM11.206258125,22L12.390398125,20L10.443008125,20L11.812698125,17.7225L9.494108125,17.697200000000002L7.817722125,20.4846Q7.674682617,20.7225,7.674682617,21Q7.674682617,21.0985,7.693897325,21.1951Q7.713112025,21.2917,7.750803125,21.3827Q7.788494125,21.4737,7.843213125,21.5556Q7.897932125,21.6375,7.967576125,21.7071Q8.037220125,21.7767,8.119112125000001,21.8315Q8.201005125,21.8862,8.291999125,21.9239Q8.382993125,21.9616,8.479592125,21.9808Q8.576191125,22,8.674678125,22L11.206258125,22Z" fill-rule="evenodd" fill="#0052D9" fill-opacity="1"/></g><g transform="matrix(0.5,0.8660253882408142,-0.8732309341430664,0.4873065650463104,13.345222473144531,-6.913212927058339)"><path d="M22.58477,7.5L30.37905,21Q30.42825,21.0853,30.45995,21.1786Q30.49155,21.2718,30.50445,21.369500000000002Q30.51725,21.467100000000002,30.51085,21.5654Q30.50435,21.6637,30.47895,21.7588Q30.45345,21.854,30.40985,21.9423Q30.36625,22.0306,30.30635,22.108800000000002Q30.24635,22.1869,30.17235,22.2518Q30.09825,22.3168,30.01295,22.366Q29.78095,22.5,29.51295,22.5L13.92452,22.5Q13.82603,22.5,13.72943,22.480800000000002Q13.632832,22.4616,13.541838,22.4239Q13.450844,22.386200000000002,13.368951,22.3315Q13.287059,22.276699999999998,13.217415,22.2071Q13.147771,22.1375,13.093052,22.0556Q13.038333,21.9737,13.000642,21.8827Q12.962951,21.7917,12.943736,21.6951Q12.924522,21.5985,12.924522,21.5Q12.924522,21.232100000000003,13.058496,21L20.852719999999998,7.5Q20.90197,7.414704,20.96691,7.340654Q21.03185,7.266605,21.10999,7.206647Q21.18813,7.146689,21.27646,7.103127Q21.36479,7.059566,21.45993,7.034074Q21.55507,7.008583,21.65335,7.002141Q21.75163,6.9957,21.84928,7.008555Q21.94692,7.021411,22.040190000000003,7.05307Q22.13345,7.084729,22.21875,7.1339749999999995Q22.4508,7.267949,22.58477,7.5L22.58477,7.5ZM20.85273,8.5L21.71875,8.000000000000002L22.584780000000002,8.5L14.79055,22L13.92452,21.5L13.92452,20.5L29.51295,20.5L29.51295,21.5L28.64695,22L20.85273,8.5Z" fill="#0052D9" fill-opacity="1"/></g></g></svg>