<?xml version="1.0" encoding="UTF-8"?>
<svg width="32px" height="32px" viewBox="0 0 32 32" version="1.1" xmlns="http://www.w3.org/2000/svg" xmlns:xlink="http://www.w3.org/1999/xlink">
    <title>安全营销运营-32px</title>
    <g id="安全营销运营-32px" stroke="none" stroke-width="1" fill="none" fill-rule="evenodd">
        <g id="content" transform="translate(3.000000, 1.500000)" stroke="#0052D9" stroke-width="2">
            <path d="M0.229884405,4.18793396 C4.1362342,1.39597799 8.38483499,0 12.9756868,0 C17.5665386,0 21.8917675,1.41669866 25.9513736,4.25009597 C26.2444917,9.62227353 25.212432,14.472918 22.8551944,18.8020294 C20.4979569,23.1311408 17.2128921,26.397131 13,28.6 C8.59673475,26.5502281 5.19561618,23.2722809 2.7966443,18.7661583 C0.397672426,14.2600357 -0.457914208,9.40062762 0.229884405,4.18793396 Z" id="Path-6"></path>
        </g>
        <g id="编组" transform="translate(7.000000, 5.500000)">
            <circle id="椭圆形备份-28" opacity="0.698399135" cx="9" cy="9" r="9"></circle>
            <path d="M3.90783525,1.57806972 C5.9268365,2.54017968 7.67404381,3.97896431 9.00390947,5.74917857 C10.3324909,3.98012378 12.0780863,2.54206459 14.0947814,1.58079944 C14.3143587,1.73153486 14.5268556,1.89183915 14.7316988,2.06108984 L14.6624405,2.00413495 C14.7510741,2.07596382 14.8383158,2.14944305 14.9241186,2.22452587 L14.7316988,2.06108984 C14.8176398,2.13209822 14.9022337,2.20468134 14.985438,2.27879322 L14.9241186,2.22452587 C15.0193347,2.30784587 15.1127789,2.39314061 15.2043875,2.48034618 L14.985438,2.27879322 C15.0957718,2.37706996 15.2036622,2.47803491 15.3090104,2.58158091 L15.2043875,2.48034618 C15.2848111,2.55690443 15.3638199,2.6349354 15.4413707,2.71439583 L15.3090104,2.58158091 C15.3792835,2.65065189 15.4484254,2.72087135 15.5164069,2.79220745 L15.4413707,2.71439583 C15.542686,2.81820609 15.6415128,2.92445615 15.7377545,3.03304959 L15.5164069,2.79220745 C15.5952848,2.87497769 15.6726004,2.95925124 15.7483078,3.0449784 C13.4457605,3.93942196 11.4961318,5.53840653 10.1628437,7.57696973 C10.4495227,8.11599777 10.6999807,8.67616226 10.9126738,9.25457613 C12.1200832,6.94674778 14.1807815,5.1560057 16.6758926,4.30104018 C16.8923763,4.6524248 17.0848655,5.01984686 17.2515053,5.40107021 L17.2514601,5.40077549 C17.3484106,5.62276148 17.4365744,5.84911996 17.5156319,6.07970591 L17.5313846,6.12606567 L17.5313846,6.12606567 C14.2569195,7.15169812 11.8614495,10.162248 11.7537821,13.747775 L11.7538529,17.5708763 C11.1265197,17.7722807 10.4691847,17.906721 9.79026283,17.9657826 L9.750822,17.9691218 L9.750822,17.9691218 L9.75,14.1638847 L9.751,14.1390697 L9.751,14.1180697 L9.75,14 C9.75,13.9516588 9.75033465,13.9033958 9.75100175,13.8552131 C9.73565453,12.4505503 9.47227651,11.1054357 9.00373042,9.86083825 L8.94536656,10.0181698 C8.54731988,11.1234315 8.31026715,12.3055612 8.26250292,13.5362646 L8.2535195,14 L8.25349882,17.9694826 C7.63046746,17.9183267 7.02541411,17.8037125 6.44481526,17.6321165 L6.25054741,17.5722844 L6.25054741,17.5722844 L6.25,14 C6.25,10.3039998 3.81955492,7.17566043 0.469710234,6.12602743 C0.558277361,5.86169309 0.658970929,5.60284286 0.771073816,5.35012084 L0.770906304,5.35000064 C0.881436464,5.10132196 1.00285695,4.8584625 1.13465104,4.62215701 L1.11105113,4.66472496 C1.17485909,4.54885976 1.24114538,4.43455133 1.30983856,4.3218711 L1.31002417,4.32156665 L1.32272128,4.30080413 L1.32272128,4.30080413 C3.82190605,5.15676989 5.88470616,6.95069218 7.09175475,9.2623196 C7.30473476,8.68136104 7.55619279,8.11849838 7.84275024,7.5770717 C6.50942307,5.53697867 4.55828454,3.93713753 2.25492082,3.04273652 C2.40463876,2.87194183 2.5612795,2.70761565 2.72388184,2.54938485 L2.54973541,2.72343488 C2.62539096,2.64570775 2.70244959,2.56933389 2.78086944,2.49435573 L2.78140822,2.49389718 C2.95695617,2.32599709 3.13990612,2.16467559 3.32924523,2.01087178 L3.32948241,2.01068836 C3.50776216,1.86585903 3.69195875,1.72752915 3.88143765,1.59628491 L3.90783525,1.57806972 L3.90783525,1.57806972 Z M0.153128456,7.33809567 C2.96595941,8.24603835 5,10.8854814 5,14 C5,14.9788961 4.79906716,15.9108618 4.43619595,16.7569026 C4.19944674,16.6190893 3.97081299,16.4697898 3.74968988,16.3107058 L4.0545381,16.5203709 C3.93570382,16.4421383 3.81885885,16.3611668 3.70408609,16.2775469 L3.70438385,16.2778976 C3.4802596,16.1144737 3.26431405,15.9413281 3.05686426,15.7587808 L3.05692601,15.7588403 L2.77128036,15.4964048 L2.77128036,15.4964048 C2.9203391,15.023231 3,14.5209184 3,14 C3,11.9536706 1.77070285,10.1944589 0.0103025392,9.42055894 L0.00383710565,9.26536225 L0,9 L0.00774452172,8.62320667 C0.0136644143,8.47946192 0.0229558263,8.33658718 0.0355417744,8.19465944 L0.0123089779,8.52520716 C0.0199559151,8.37808128 0.0311361274,8.23189037 0.0457663775,8.08671767 L0.0355417744,8.19465944 C0.047639732,8.05823462 0.0627817027,7.92268478 0.0808993149,7.78807829 L0.0457663775,8.08671767 C0.0585039815,7.96032527 0.0738567308,7.83470468 0.0917696933,7.70991083 L0.0917222471,7.71024142 L0.153128456,7.33809567 L0.153128456,7.33809567 Z M17.8468715,7.33809567 L17.9082778,7.71024142 C17.9261985,7.8351224 17.9415554,7.96083121 17.9542936,8.0873128 L17.9190742,7.78788169 C17.9371717,7.92231593 17.9523011,8.05769116 17.9643943,8.19393927 L17.9542936,8.0873128 C17.9688914,8.23225947 17.9800498,8.37822103 17.9876862,8.52511463 L17.9643943,8.19393927 C17.9770136,8.33611405 17.9863269,8.47923929 17.9922568,8.62323762 L17.9922555,8.62320667 L18,9 L18,9 C18,9.11084158 17.9979963,9.22121517 17.9940231,9.33108651 L17.9902686,9.42227528 L17.9902686,9.42227528 C16.2292234,10.1945644 15,11.9537319 15,14 C15,14.5209184 15.0796609,15.023231 15.2274652,15.4954203 L14.9400842,15.7614702 C14.9247998,15.7749084 14.9094695,15.7882956 14.8940935,15.8016316 C14.6874648,15.9803547 14.472942,16.150287 14.250754,16.3102739 L14.2956161,16.2778976 C14.1812178,16.3612803 14.0647786,16.4420313 13.9463875,16.5200616 L14.250754,16.3102739 C14.1357776,16.393063 14.0187485,16.4731889 13.8997667,16.5505707 L13.9463875,16.5200616 C13.8307133,16.5963012 13.7131759,16.6699435 13.5938582,16.7409056 L13.593476,16.7411329 L13.5660375,16.7573839 L13.5660375,16.7573839 C13.2010891,15.9115862 13,14.9792765 13,14 C13,10.939422 14.9641952,8.33760639 17.7007846,7.38635414 L17.8468715,7.33809567 Z M10.2338972,0.0838847201 C10.487437,0.118646828 10.7376115,0.163968881 10.983963,0.219392934 L10.6911245,0.158633573 C10.7961318,0.178597548 10.9004928,0.200385903 11.0041731,0.223964412 L10.983963,0.219392934 C11.1099558,0.247738756 11.2349487,0.278726919 11.3588803,0.312296163 L11.0041731,0.223964412 C11.1402316,0.254906192 11.2751181,0.288930794 11.4087553,0.325960874 L11.3588803,0.312296163 C11.4615924,0.340117702 11.5635755,0.369712127 11.6647948,0.401044563 L11.4087553,0.325960874 C11.5328781,0.360354577 11.6559231,0.397341039 11.7778284,0.436858286 L11.6647948,0.401044563 C11.8090285,0.445692104 11.9517112,0.493868707 12.092742,0.545473469 L11.7778284,0.436858286 C11.8932363,0.474269316 12.0076227,0.513948545 12.120935,0.555843391 L12.092742,0.545473469 C12.1936585,0.582399933 12.2937291,0.62108172 12.392917,0.661481857 L12.120935,0.555843391 C12.2402684,0.599964373 12.3584105,0.646542686 12.4752999,0.695516913 L12.392917,0.661481857 C12.5161768,0.711686703 12.6380733,0.76454516 12.7585355,0.819986281 L12.7591365,0.82026291 L12.7978326,0.838187515 L12.7978326,0.838187515 L12.7854494,0.845750768 L12.6010011,0.948829487 L12.446,1.03788472 L12.418165,1.05441773 L12.3517234,1.09380986 C12.230428,1.16568841 12.1109414,1.23894633 11.9925751,1.31381512 C11.9761888,1.32427898 11.9597733,1.33470417 11.9433797,1.34516024 C11.8404221,1.41074996 11.7383701,1.47762217 11.6371928,1.54569471 L11.5617138,1.59685561 L11.5617138,1.59685561 C11.454958,1.66958424 11.3494673,1.74350089 11.2449836,1.81872865 C11.2113442,1.84296594 11.1779625,1.86720852 11.1446855,1.89158477 C10.9260309,2.05175035 10.7117758,2.21779058 10.5022501,2.38939066 L10.4531692,2.42976067 C9.97286135,2.82645414 9.51677529,3.25342441 9.0886705,3.70708598 L9.00069108,3.80260814 C8.54656791,3.3129414 8.06015245,2.85364626 7.54483091,2.42810893 L7.49875333,2.3902125 C7.27934239,2.21048497 7.05474413,2.03685476 6.82521733,1.86958064 C6.81098265,1.85917933 6.79662517,1.8487531 6.78224846,1.83835174 C6.54380938,1.665901 6.30022098,1.5003391 6.05165219,1.3418978 C6.03681998,1.33236509 6.02207154,1.32299999 6.00730563,1.31365996 C5.88905856,1.23894633 5.76957202,1.16568841 5.64899612,1.09407217 C5.62630223,1.08050453 5.60395975,1.06731305 5.58158011,1.05417793 C5.46602405,0.98644424 5.34922001,0.919980406 5.23144994,0.855053256 L5.2021109,0.838828393 L5.53645254,0.690602716 C5.64985355,0.643279836 5.76442994,0.598210698 5.88012575,0.555451264 L5.58139481,0.672328625 C5.68913173,0.627994559 5.79793299,0.585696234 5.90774868,0.545480979 L5.88012575,0.555451264 C5.99636425,0.512491259 6.11373271,0.471862677 6.23217436,0.43362227 L5.90774868,0.545480979 C6.04256238,0.496111285 6.17890492,0.449880962 6.31668399,0.406877574 L6.23217436,0.43362227 C6.35829157,0.392903708 6.48562559,0.354892881 6.61410789,0.319658303 L6.31668399,0.406877574 C6.42167168,0.374108977 6.52749349,0.343214082 6.63410857,0.31423163 L6.61410789,0.319658303 C6.73316572,0.287008261 6.85320955,0.256742119 6.97418487,0.228914394 L6.63410857,0.31423163 C6.77898551,0.274847996 6.92532725,0.238995787 7.0730313,0.206772214 L6.97418487,0.228914394 C7.08536525,0.20333978 7.19733239,0.179824709 7.31004397,0.158411499 L7.0730313,0.206772214 C7.18388679,0.182587637 7.29550964,0.160447024 7.40785654,0.140391471 L7.31004397,0.158411499 C7.45389338,0.131082648 7.59895537,0.107177399 7.74514195,0.0867837246 L7.74496012,0.0868090923 L7.76710134,0.0837478729 L7.76710134,0.0837478729 C8.19304539,0.383603588 8.60451399,0.702089023 9.00037862,1.03838642 C9.3071063,0.777786975 9.62319611,0.527887682 9.94807238,0.289263531 Z" id="形状结合" fill="#0052D9" fill-rule="nonzero"></path>
        </g>
    </g>
</svg>