<?xml version="1.0" encoding="UTF-8"?>
<svg width="32px" height="32px" viewBox="0 0 32 32" version="1.1" xmlns="http://www.w3.org/2000/svg" xmlns:xlink="http://www.w3.org/1999/xlink">
    <title>画板</title>
    <g id="画板" stroke="none" stroke-width="1" fill="none" fill-rule="evenodd">
        <g id="数据湖DLC-32px" transform="translate(1.000000, 3.000000)">
            <path d="M3.0081,8.0078 L3.0081,23.0078 L26.3081,23.0078 C26.6071,22.4078 27.3081,22.0078 28.0081,22.0078 C28.7081,22.0078 29.3081,22.4078 29.7081,23.0078 C30.3081,24.0078 30.0081,25.2078 29.0081,25.7078 C28.1500048,26.2792286 27.0216147,26.0343306 26.3977923,25.1458736 L26.3081,25.0078 L1.0081,25.0078 L1.0081,8.0078 L3.0081,8.0078 Z M17.4908108,4.78054054 C18.4074244,4.78054054 19.1591641,5.48644955 19.2320465,6.38428419 L19.2351967,6.45706095 C21.382954,7.77747632 22.8183784,10.1493964 22.8183784,12.8497297 C22.8183784,14.9076375 21.9847022,16.7748071 20.6374006,18.1311877 C20.6499702,18.2138813 20.6562162,18.2986437 20.6562162,18.3848649 C20.6562162,19.3497212 19.8740456,20.1318919 18.9091892,20.1318919 C18.5658898,20.1318919 18.2457178,20.0328721 17.9756759,19.8618353 C17.149935,20.1761457 16.2546393,20.3481081 15.32,20.3481081 C12.1812237,20.3481081 9.48616497,18.408713 8.37041551,15.6655144 C7.55656233,15.518015 6.93945946,14.8051276 6.93945946,13.9481081 C6.93945946,13.2931505 7.29987419,12.7223723 7.83319134,12.4232857 C8.0550751,8.48715955 11.328814,5.35135135 15.32,5.35135135 C15.6033661,5.35135135 15.8831158,5.36715806 16.1584134,5.3979359 C16.4781481,5.02043618 16.9564642,4.78054054 17.4908108,4.78054054 Z M15.32,7.08972973 C12.2778945,7.08972973 9.78098644,9.45225153 9.56631904,12.4402518 C10.0855875,12.7423503 10.4335135,13.304598 10.4335135,13.9481081 C10.4335135,14.3872162 10.271512,14.7884868 10.0040163,15.0954127 C10.8771728,17.1692758 12.9303843,18.627027 15.32,18.627027 C15.9650524,18.627027 16.5855919,18.5208043 17.165058,18.3249194 C17.1956106,17.386999 17.9649119,16.6378378 18.9091892,16.6378378 C19.1402271,16.6378378 19.3607901,16.6826858 19.5626477,16.7641509 C20.509415,15.7373213 21.0886486,14.3646845 21.0886486,12.8583784 C21.0886486,10.8208021 20.0252279,9.02781253 18.4271452,8.00136051 C18.1566922,8.17482793 17.8354024,8.27459459 17.4908108,8.27459459 C16.7317402,8.27459459 16.0857386,7.79048854 15.8447079,7.11417822 C15.6729138,7.09780412 15.4973615,7.08972973 15.32,7.08972973 Z M3.6348722,0.87599399 L3.7079,1.008 L29.0079,1.008 L29.0079,18.008 L27.0079,18.008 L27.0079,3.008 L3.7079,3.008 C3.5079,3.308 3.3079,3.608 3.0079,3.708 C2.0079,4.308 0.9079,4.008 0.3079,3.008 C-0.2921,2.008 0.00789999994,0.808 1.0079,0.308 C1.86699091,-0.264727273 3.09054463,-0.0174132231 3.6348722,0.87599399 Z M18.0010811,10.7308108 C18.6793465,10.7308108 19.2291892,11.2806535 19.2291892,11.9589189 C19.2291892,12.2443857 19.1317911,12.5071039 18.9684134,12.7156552 C19.0069845,13.7103149 18.6379089,14.7037127 17.9059459,15.4356757 C17.1967568,16.1362162 16.2627027,16.4994595 15.32,16.4994595 C14.7924324,16.4994595 14.2562162,16.387027 13.7545946,16.1448649 L14.4983784,14.5794595 C15.2335135,14.9254054 16.107027,14.7783784 16.6778378,14.2075676 C17.0279351,13.8574703 17.2186144,13.3935029 17.2339121,12.9174329 C16.9523344,12.6918007 16.772973,12.3463059 16.772973,11.9589189 C16.772973,11.2806535 17.3228157,10.7308108 18.0010811,10.7308108 Z M16.8854054,9.56324324 L16.1416216,11.1286486 C15.4064865,10.7827027 14.532973,10.9297297 13.9621622,11.5005405 C13.6258134,11.8368893 13.4366077,12.2783401 13.4087006,12.7346506 C13.7133784,12.957476 13.9102703,13.3173664 13.9102703,13.7232432 C13.9102703,14.4015086 13.3604275,14.9513514 12.6821622,14.9513514 C12.0038968,14.9513514 11.4540541,14.4015086 11.4540541,13.7232432 C11.4540541,13.463539 11.5346656,13.2226626 11.672232,13.0242707 C11.625144,12.0191223 11.9942443,11.0122422 12.7340541,10.2724324 C13.8237838,9.1827027 15.4843243,8.8972973 16.8854054,9.56324324 Z" id="形状结合" fill="#0052D9" fill-rule="nonzero"></path>
            <g id="编组" transform="translate(11.108108, 8.378378)"></g>
        </g>
    </g>
</svg>