<?xml version="1.0" encoding="UTF-8"?>
<svg width="32px" height="32px" viewBox="0 0 32 32" version="1.1" xmlns="http://www.w3.org/2000/svg" xmlns:xlink="http://www.w3.org/1999/xlink">
    <title>音频审核 -32px</title>
    <g id="音频审核--32px" stroke="none" stroke-width="1" fill="none" fill-rule="evenodd">
        <g id="编组" transform="translate(-0.000000, 0.000000)">
            <rect id="Rectangle-Copy" fill="#0052D9" opacity="0" x="2.27373675e-13" y="0" width="32" height="32"></rect>
            <path d="M16.08,0 C24.231,0 30.949,6.042 32,13.866 L32,13.866 L29.834,13.866 C28.8,7.223 23.046,2.133 16.08,2.133 C8.383,2.133 2.144,8.341 2.144,16 C2.144,23.659 8.383,29.867 16.08,29.867 C23.046,29.867 28.801,24.777 29.834,18.133 L29.834,18.133 L32,18.133 C30.95,25.958 24.231,32 16.08,32 C7.199,32 0,24.836 0,16 C0,7.164 7.199,0 16.08,0 Z M19.9240941,17.0022095 C21.7698008,17.0022095 23.2660416,18.4984504 23.2660416,20.344157 C23.2660416,20.8808012 23.1395537,21.3879025 22.914765,21.837274 L24.0919333,22.9632422 L22.7099493,24.4089669 L21.5264636,23.2776242 C21.0507193,23.5380455 20.5046972,23.6861045 19.9240941,23.6861045 C18.0783875,23.6861045 16.5821466,22.1898637 16.5821466,20.344157 C16.5821466,18.4984504 18.0783875,17.0022095 19.9240941,17.0022095 Z M23.0787935,7.7 L23.0798743,17.3928491 C22.5421917,16.8288605 21.853636,16.4099907 21.0789531,16.2009859 L21.078,9.7 L10.9,9.7 L10.9,21.422 L15.7531497,21.4217922 C15.9441198,22.1906719 16.3408625,22.8782692 16.881542,23.4227482 L8.90076347,23.4222489 L8.90076347,7.7 L23.0787935,7.7 Z M19.9240941,19.0022095 C19.182957,19.0022095 18.5821466,19.6030199 18.5821466,20.344157 C18.5821466,21.0852942 19.182957,21.6861045 19.9240941,21.6861045 C20.6652313,21.6861045 21.2660416,21.0852942 21.2660416,20.344157 C21.2660416,19.6030199 20.6652313,19.0022095 19.9240941,19.0022095 Z M17.1291773,11.3877377 L17.1291773,17.2695653 L15.1291773,17.2695653 L15.1291773,11.3877377 L17.1291773,11.3877377 Z M20.1573394,13.5265841 L20.1573394,15.3980747 L18.1573394,15.3980747 L18.1573394,13.5265841 L20.1573394,13.5265841 Z M14.0714394,13.5265841 L14.0714394,15.3980747 L12.0714394,15.3980747 L12.0714394,13.5265841 L14.0714394,13.5265841 Z" id="形状结合" fill="#0052D9"></path>
        </g>
    </g>
</svg>