<?xml version="1.0" encoding="utf-8"?>
<!-- Generator: Adobe Illustrator 23.0.3, SVG Export Plug-In . SVG Version: 6.00 Build 0)  -->
<svg version="1.1" id="图层_1" xmlns="http://www.w3.org/2000/svg" xmlns:xlink="http://www.w3.org/1999/xlink" x="0px" y="0px"
	 width="32px" height="32px" viewBox="0 0 32 32" style="enable-background:new 0 0 32 32;" xml:space="preserve">
<path style="fill:#0052D9;" d="M4.723,6H28v15h2V6V4h-2H4.723C4.376,3.405,3.738,3,3,3C1.895,3,1,3.895,1,5s0.895,2,2,2
	C3.738,7,4.376,6.595,4.723,6z"/>
<path style="fill:#0052D9;" d="M29,25c-0.738,0-1.376,0.405-1.723,1H4V11H2v15v2h2h23.277c0.346,0.595,0.984,1,1.723,1
	c1.105,0,2-0.895,2-2S30.105,25,29,25z"/>
<g>
	<rect x="8" y="8" style="fill:#0052D9;" width="5" height="2"/>
	
		<rect x="6.5" y="9.5" transform="matrix(-1.836970e-16 1 -1 -1.836970e-16 19.5 1.5)" style="fill:#0052D9;" width="5" height="2"/>
	<rect x="19" y="8" style="fill:#0052D9;" width="5" height="2"/>
	
		<rect x="20.5" y="9.5" transform="matrix(-1.836970e-16 1 -1 -1.836970e-16 33.5 -12.5)" style="fill:#0052D9;" width="5" height="2"/>
	<rect x="8" y="22" transform="matrix(-1 -1.224647e-16 1.224647e-16 -1 20.9999 46)" style="fill:#0052D9;" width="5" height="2"/>
	
		<rect x="8" y="15" transform="matrix(-1 -1.224647e-16 1.224647e-16 -1 31.9999 32)" style="fill:#0052D9;" width="16" height="2"/>
	
		<rect x="6.5" y="20.5" transform="matrix(6.123234e-17 -1 1 6.123234e-17 -12.5001 30.5001)" style="fill:#0052D9;" width="5" height="2"/>
	
		<rect x="19" y="22" transform="matrix(-1 -1.224647e-16 1.224647e-16 -1 42.9999 46)" style="fill:#0052D9;" width="5" height="2"/>
	
		<rect x="20.5" y="20.5" transform="matrix(6.123234e-17 -1 1 6.123234e-17 1.4999 44.5001)" style="fill:#0052D9;" width="5" height="2"/>
</g>
</svg>
