<?xml version="1.0" encoding="utf-8"?>
<!-- Generator: Adobe Illustrator 23.0.3, SVG Export Plug-In . SVG Version: 6.00 Build 0)  -->
<svg version="1.1" id="图层_1" xmlns="http://www.w3.org/2000/svg" xmlns:xlink="http://www.w3.org/1999/xlink" x="0px" y="0px"
	 width="32px" height="32px" viewBox="0 0 32 32" style="enable-background:new 0 0 32 32;" xml:space="preserve">
<g>
	<path style="fill:#0052D9;" d="M4.723,6H28v15h2V6V4h-2H4.723C4.376,3.405,3.738,3,3,3C1.895,3,1,3.895,1,5s0.895,2,2,2
		C3.738,7,4.376,6.595,4.723,6z"/>
	<path style="fill:#0052D9;" d="M29,25c-0.738,0-1.376,0.405-1.723,1H4V11H2v15v2h2h23.277c0.346,0.595,0.984,1,1.723,1
		c1.105,0,2-0.895,2-2S30.105,25,29,25z"/>
	<path style="fill:#0052D9;" d="M9.2,23.8h13.6V10.668L20.332,8.2H9.2V23.8z M21.069,11.2H19.8V9.931L21.069,11.2z M10.8,9.8h7.4v3
		h3v9.4H10.8V9.8z"/>
	<path style="fill:#0052D9;" d="M16,14c-1.811,0-3.359,1.242-4,3c0.641,1.758,2.189,3,4,3s3.359-1.242,4-3
		C19.359,15.242,17.811,14,16,14z M16,18.4c-0.907,0-1.741-0.534-2.242-1.4c0.501-0.866,1.334-1.4,2.242-1.4s1.741,0.534,2.242,1.4
		C17.741,17.866,16.907,18.4,16,18.4z"/>
	<circle style="fill:#0052D9;" cx="16" cy="17" r="1"/>
</g>
</svg>
