<?xml version="1.0" encoding="UTF-8"?>
<svg width="32px" height="32px" viewBox="0 0 32 32" version="1.1" xmlns="http://www.w3.org/2000/svg" xmlns:xlink="http://www.w3.org/1999/xlink">
    <title>TStor XPFS -32px</title>
    <g id="TStor-XPFS--32px" stroke="none" stroke-width="1" fill="none" fill-rule="evenodd">
        <g id="编组">
            <rect id="Rectangle-Copy" fill="#0052D9" opacity="0" x="2.27373675e-13" y="0" width="32" height="32"></rect>
            <path d="M16.08,0 C24.231,0 30.949,6.042 32,13.866 L32,13.866 L29.834,13.866 C28.8,7.223 23.046,2.133 16.08,2.133 C8.383,2.133 2.144,8.341 2.144,16 C2.144,23.659 8.383,29.867 16.08,29.867 C23.046,29.867 28.801,24.777 29.834,18.133 L29.834,18.133 L32,18.133 C30.95,25.958 24.231,32 16.08,32 C7.199,32 0,24.836 0,16 C0,7.164 7.199,0 16.08,0 Z M14.2966905,8.07461469 L17.823,10.453 L24.8835834,10.4535826 L24.8835834,24.0746147 L7.84029676,24.0746147 L7.84029676,8.07461469 L14.2966905,8.07461469 Z M13.685,10.074 L9.84,10.074 L9.84,22.074 L22.883,22.074 L22.883,12.453 L17.2122196,12.4535826 L13.685,10.074 Z M16.0413646,13.8485568 L16.0413646,20.7550696 L14.0413646,20.7550696 L14.041,16.764 L13.2934811,17.3757622 L12.028325,15.8267689 L14.4503482,13.8485568 L16.0413646,13.8485568 Z M18.8364846,13.8964361 L18.837195,17.958161 L19.6676277,17.3509925 L20.8470669,18.9662087 L18.397261,20.7550696 L16.8364846,20.7550696 L16.8364846,13.8964361 L18.8364846,13.8964361 Z" id="形状结合" fill="#0052D9" fill-rule="nonzero"></path>
        </g>
    </g>
</svg>