<?xml version="1.0" encoding="UTF-8"?>
<svg width="32px" height="32px" viewBox="0 0 32 32" version="1.1" xmlns="http://www.w3.org/2000/svg" xmlns:xlink="http://www.w3.org/1999/xlink">
    <title>32</title>
    <g id="32" stroke="none" stroke-width="1" fill="none" fill-rule="evenodd">
        <g id="监控-(2)" transform="translate(8.000000, 10.000000)" fill="#0052D9" fill-rule="nonzero">
            <path d="M18.5,11 C17.1665049,9 15.6664644,8 13.9998786,8 C12.3332929,8 10.8333333,9 9.5,11 C10.8331715,13 12.3331311,14 13.9998786,14 C15.6666262,14 17.1666667,13 18.5,11 Z M14,12.5 C13,12.5 12.1666667,12 11.5,11 C12.1666667,10 13,9.5 14,9.5 C15,9.5 15.8333333,10 16.5,11 C15.8333333,12 15,12.5 14,12.5 Z" id="形状"></path>
            <path d="M13,11 C13,11.5522847 13.4477153,12 14,12 C14.5522847,12 15,11.5522847 15,11 C15,10.4477153 14.5522847,10 14,10 C13.4477153,10 13,10.4477153 13,11 Z M2,2 L13,2 L13,7 L15,7 L15,0 L0,0 L0,12 L8,12 L8,10 L2,10 L2,2 Z" id="形状"></path>
        </g>
        <polygon id="路径" fill="#0052D9" fill-rule="nonzero" points="16.5 19.5 14.5 15.5 13 17 9 17 9 15 12.5 15 15 12.5 17 16.5 18.5 15 21 15 21 17 19 17"></polygon>
        <polygon id="Shape备份" fill="#0052D9" fill-rule="nonzero" points="28 22.84 16 29.7 4 22.84 4 9.16 16 2.3 28 9.16 28 9.14 30 8 16 0 2 8 2 24 16 32 30 24 30 12 28 13.14"></polygon>
    </g>
</svg>