<svg width="32" height="32" viewBox="0 0 32 32" fill="none" xmlns="http://www.w3.org/2000/svg">
<g clip-path="url(#clip0_642_60)">
<path d="M28 22.84L16 29.7L4 22.84V9.16L16 2.3L28 9.16L30 8L16 0L2 8V24L16 32L30 24V12L28 13.14V22.84Z" fill="#0052D9"/>
<path fill-rule="evenodd" clip-rule="evenodd" d="M9.01899 18.7543V19.0342L16.0391 23.3476L23.019 19.0342V18.7543L23 16.7062L23 14.5227L23 13.709V12.1639L16 8L9 12.1639V13.709V14.5227V16.6582L9.01899 18.7543ZM21 15.7124L16 18.6866L11 15.7124L11.019 18.017L16 21L21.019 18.0448L21 15.7124ZM16 10.3587L21.0184 13.3428L16.001 16.3268L10.9826 13.3428L16 10.3587ZM15.9999 12.068L13.8792 13.3085L16 14.5L18.0845 13.3085L15.9999 12.068Z" fill="#0052D9"/>
</g>
<defs>
<clipPath id="clip0_642_60">
<rect width="32" height="32" fill="white"/>
</clipPath>
</defs>
</svg>
