<?xml version="1.0" encoding="UTF-8"?>
<svg width="32px" height="32px" viewBox="0 0 32 32" version="1.1" xmlns="http://www.w3.org/2000/svg" xmlns:xlink="http://www.w3.org/1999/xlink">
    <title>备份一体化--32px</title>
    <g id="备份一体化--32px" stroke="none" stroke-width="1" fill="none" fill-rule="evenodd">
        <g id="编组">
            <rect id="Rectangle-Copy" fill="#0052D9" opacity="0" x="0" y="0" width="32" height="32"></rect>
            <path d="M16,0 L30,8 L28,9.16 L16,2.3 L4,9.16 L4,22.84 L16,29.7 L28,22.84 L28,13.14 L30,12 L30,24 L16,32 L2,24 L2,8 L16,0 Z M18.5,11 L16.5,21 L14.5,21 L16.5,11 L18.5,11 Z M11.9997953,12.601 L11.9997953,14.875 L9.904,16.012 L11.9997953,16.916 L11.9997953,19.095 L5.32879529,16.2156052 L11.9997953,12.601 Z M21,12.788 L27.3265707,16.2156052 L21,18.946 L21,16.768 L22.7520905,16.012 L21,15.062 L21,12.788 Z" id="形状结合" fill="#0052D9" fill-rule="nonzero"></path>
        </g>
    </g>
</svg>